<?xml version="1.0" encoding="UTF-8" standalone="no"?>
<!-- Created with Inkscape (http://www.inkscape.org/) -->

<svg
   xmlns:dc="http://purl.org/dc/elements/1.1/"
   xmlns:cc="http://creativecommons.org/ns#"
   xmlns:rdf="http://www.w3.org/1999/02/22-rdf-syntax-ns#"
   xmlns:svg="http://www.w3.org/2000/svg"
   xmlns="http://www.w3.org/2000/svg"
   xmlns:xlink="http://www.w3.org/1999/xlink"
   xmlns:sodipodi="http://sodipodi.sourceforge.net/DTD/sodipodi-0.dtd"
   xmlns:inkscape="http://www.inkscape.org/namespaces/inkscape"
   version="1.0"
   width="250"
   height="250"
   id="svg2"
   sodipodi:version="0.32"
   inkscape:version="0.47pre4 r22446"
   sodipodi:docname="yasd.svg"
   inkscape:output_extension="org.inkscape.output.svg.inkscape">
  <metadata
     id="metadata129">
    <rdf:RDF>
      <cc:Work
         rdf:about="">
        <dc:format>image/svg+xml</dc:format>
        <dc:type
           rdf:resource="http://purl.org/dc/dcmitype/StillImage" />
      </cc:Work>
    </rdf:RDF>
  </metadata>
  <sodipodi:namedview
     inkscape:window-height="535"
     inkscape:window-width="1022"
     inkscape:pageshadow="2"
     inkscape:pageopacity="0.0"
     guidetolerance="10.0"
     gridtolerance="10.0"
     objecttolerance="10.0"
     borderopacity="1.0"
     bordercolor="#666666"
     pagecolor="#ffffff"
     id="base"
     showgrid="false"
     inkscape:zoom="1.397243"
     inkscape:cx="131.3798"
     inkscape:cy="136.62686"
     inkscape:window-x="0"
     inkscape:window-y="24"
     inkscape:current-layer="svg2"
     inkscape:window-maximized="1" />
  <defs
     id="defs4">
    <linearGradient
       id="linearGradient3304">
      <stop
         id="stop3306"
         style="stop-color:#ff8313;stop-opacity:1"
         offset="0" />
      <stop
         id="stop3308"
         style="stop-color:#ffe400;stop-opacity:1"
         offset="1" />
    </linearGradient>
    <linearGradient
       id="linearGradient3284">
      <stop
         id="stop3286"
         style="stop-color:#ffffff;stop-opacity:0.78431374"
         offset="0" />
      <stop
         id="stop3288"
         style="stop-color:#ffffff;stop-opacity:0.11764706"
         offset="1" />
    </linearGradient>
    <linearGradient
       id="linearGradient3170">
      <stop
         id="stop3172"
         style="stop-color:#323232;stop-opacity:1"
         offset="0" />
      <stop
         id="stop3216"
         style="stop-color:#696969;stop-opacity:1"
         offset="0.32967147" />
      <stop
         id="stop3218"
         style="stop-color:#7f7f7f;stop-opacity:1"
         offset="0.69190311" />
      <stop
         id="stop3212"
         style="stop-color:#b4b4b4;stop-opacity:1"
         offset="1" />
    </linearGradient>
    <linearGradient
       x1="325.5"
       y1="45"
       x2="325.5"
       y2="135"
       id="linearGradient3429"
       xlink:href="#linearGradient3284"
       gradientUnits="userSpaceOnUse"
       gradientTransform="matrix(1.2146893,0,0,1.2146893,-270.38136,-32.302267)" />
    <linearGradient
       x1="322"
       y1="215"
       x2="322"
       y2="43.264011"
       id="linearGradient3432"
       xlink:href="#linearGradient3170"
       gradientUnits="userSpaceOnUse"
       gradientTransform="matrix(1.2146893,0,0,1.2146893,-270.38136,-32.302267)" />
    <linearGradient
       x1="133.09717"
       y1="222.98727"
       x2="133.09717"
       y2="67.729935"
       id="linearGradient3576"
       xlink:href="#linearGradient3304"
       gradientUnits="userSpaceOnUse"
       gradientTransform="matrix(0.6453261,0,0,0.6453261,9.664009,6.781543)" />
    <linearGradient
       id="linearGradient3304-8-1">
      <stop
         offset="0"
         style="stop-color:#ff8313;stop-opacity:1"
         id="stop3306-1-1" />
      <stop
         offset="1"
         style="stop-color:#ffe400;stop-opacity:1"
         id="stop3308-2-5" />
    </linearGradient>
    <linearGradient
       y2="-182.18307"
       x2="-122.67188"
       y1="212.40625"
       x1="-129.31883"
       gradientTransform="matrix(0.22969745,0,0,0.20148186,194.28095,169.51317)"
       gradientUnits="userSpaceOnUse"
       id="linearGradient2961"
       xlink:href="#linearGradient3304-8-1"
       inkscape:collect="always" />
    <linearGradient
       inkscape:collect="always"
       xlink:href="#linearGradient3170"
       id="linearGradient2851"
       gradientUnits="userSpaceOnUse"
       gradientTransform="matrix(1.2146893,0,0,1.2146893,-270.38136,-32.302267)"
       x1="322"
       y1="215"
       x2="322"
       y2="43.264011" />
    <linearGradient
       inkscape:collect="always"
       xlink:href="#linearGradient3304-8-1"
       id="linearGradient2854"
       gradientUnits="userSpaceOnUse"
       gradientTransform="matrix(0.22969745,0,0,0.20148186,194.28095,169.51317)"
       x1="-129.31883"
       y1="212.40625"
       x2="-122.67188"
       y2="-182.18307" />
    <linearGradient
       inkscape:collect="always"
       xlink:href="#linearGradient3304"
       id="linearGradient2857"
       gradientUnits="userSpaceOnUse"
       gradientTransform="matrix(0.6453261,0,0,0.6453261,9.664009,6.781543)"
       x1="133.09717"
       y1="222.98727"
       x2="133.09717"
       y2="67.729935" />
    <linearGradient
       inkscape:collect="always"
       xlink:href="#linearGradient3284"
       id="linearGradient2861"
       gradientUnits="userSpaceOnUse"
       gradientTransform="matrix(1.2146893,0,0,1.2146893,-270.38136,-32.302267)"
       x1="325.5"
       y1="45"
       x2="325.5"
       y2="135" />
  </defs>
  <path
     style="fill:url(#linearGradient2851);fill-opacity:1;stroke:#000000;stroke-width:9.71751404;stroke-linejoin:round;stroke-miterlimit:4;stroke-opacity:1;stroke-dasharray:none"
     d="m 58.799435,22.358751 c 44.760425,0.03136 89.522425,-0.06281 134.281865,0.04724 20.02253,0.435609 36.47789,19.63541 34.55994,39.433998 -0.12259,44.363682 0.24674,88.742822 -0.18745,133.096722 -1.44447,19.56088 -20.59464,34.71876 -39.9019,32.70453 -44.16098,-0.12258 -88.337405,0.24671 -132.488603,-0.18746 C 35.502405,226.00932 20.344527,206.85915 22.358757,187.55189 22.48133,143.39091 22.112045,99.21448 22.546209,55.063281 24.05157,36.882357 40.551792,21.998123 58.799435,22.358751 z"
     id="rect3168" />
  <path
     style="fill:url(#linearGradient2854);fill-opacity:1;stroke:#3c3c3c;stroke-width:2.00718141;stroke-linecap:round;stroke-linejoin:round;stroke-miterlimit:4;stroke-opacity:1;stroke-dasharray:none"
     d="m 151.04512,109.14589 c -1.77309,5.42459 2.96085,4.34215 6.68923,4.26526 7.76434,0 15.52869,0 23.29303,0 1.77309,-5.42459 -2.96085,-4.34215 -6.68923,-4.26526 -7.76434,0 -15.52869,0 -23.29303,0 z m 0,9.01141 c -1.61475,5.34409 4.80238,2.65631 7.90545,3.28257 7.35894,0 14.71787,0 22.07681,0 1.61475,-5.34409 -4.80238,-2.65631 -7.90545,-3.28257 -7.35894,0 -14.71787,0 -22.07681,0 z m 0,8.02873 c -1.61475,5.34409 4.80238,2.65631 7.90545,3.28257 7.35894,0 14.71787,0 22.07681,0 1.61475,-5.34409 -4.80238,-2.65631 -7.90545,-3.28257 -7.35894,0 -14.71787,0 -22.07681,0 z m 0,8.02871 c -0.91723,4.72784 0.40923,7.21198 5.47301,5.95882 8.16975,0 16.3395,0 24.50925,0 0.91723,-4.72784 -0.40923,-7.21198 -5.47301,-5.95882 -8.16975,0 -16.3395,0 -24.50925,0 z m 0,10.70497 c 0.76746,2.96234 -1.56767,9.02728 1.21622,9.97318 9.58868,0 19.17736,0 28.76604,0 -0.76746,-2.96234 1.56767,-9.02728 -1.21622,-9.97318 -9.58868,0 -19.17736,0 -28.76604,0 z m 0,14.71933 c 0,5.95882 0,11.91764 0,17.87646 -7.66632,-0.007 -15.33264,-0.0139 -22.99896,-0.0208 12.31489,11.47857 24.62979,22.95714 36.94468,34.43571 13.06062,-11.45766 26.12123,-22.91533 39.18185,-34.37299 -7.7151,0 -15.43021,0 -23.14531,0 0,-5.97276 0,-11.94551 0,-17.91827 -9.99405,-7e-5 -19.98839,1.5e-4 -29.98226,-1.1e-4 z"
     id="rect5416" />
  <g
     id="g2832"
     transform="matrix(0.98611081,0,0,0.98611081,-0.6728178,-8.581309)">
    <path
       style="fill:url(#linearGradient2857);fill-opacity:1;stroke:#3c3c3c;stroke-width:2.72085619;stroke-linecap:round;stroke-linejoin:round;stroke-miterlimit:4;stroke-opacity:1;stroke-dasharray:none"
       d="m 145.84868,102.14349 c 0.65037,26.37811 -22.59943,50.26135 -48.995311,50.28859 C 70.506017,153.7469 46.017258,131.13184 45.326318,104.73202 43.343734,78.43183 65.29717,53.349519 91.684843,51.985157 118.85355,49.194005 145.1252,72.200875 145.78381,99.554962 l 0.0487,1.290218 0.0161,1.29831 z"
       id="path3545" />
    <path
       style="fill:#3c3c3c;fill-opacity:1;stroke:none"
       d="m 62.480445,64.436488 c -5.477922,3.915674 -13.817327,17.856296 -12.413416,18.979083 6.466232,-3.828108 19.670036,-5.350946 19.531597,-16.011003 -2.033753,-1.643869 -4.700541,-2.145694 -7.118181,-2.96808 z m 41.099685,-1.488641 c -6.43885,2.308596 -13.152123,10.782721 -3.02074,8.857019 0.3759,11.930275 -11.351662,-0.735587 -14.258693,6.83351 -4.214972,1.788022 -9.048024,0.642477 -3.943449,5.606962 -8.970422,3.753121 4.673574,4.887187 5.437102,-0.932136 5.80878,-1.937844 15.05634,16.967278 15.17969,4.70864 2.98421,-7.477086 12.62512,-2.502566 4.80463,2.604575 1.1093,4.41212 -13.774718,11.640373 -18.188921,3.725467 -5.908605,-8.495665 -18.896918,-4.352079 -21.674132,4.587694 -3.988254,8.595242 3.109035,18.933112 12.523921,18.575012 12.624103,-0.0353 8.946276,16.80686 12.232514,24.98085 4.537621,6.53179 18.610638,11.14373 15.601838,-1.8535 0.7843,-11.16118 12.63107,-21.79704 12.93881,-30.92055 -4.47882,4.88894 -13.94834,-0.55967 -6.98279,-4.4359 9.64523,1.80185 22.28799,-0.53283 25.37494,9.2547 7.97087,-7.80158 5.35519,-19.680725 2.44094,-29.2636 -4.1266,-11.269605 -12.26631,-22.565084 -23.58429,-26.96648 -4.19015,0.838086 -4.48775,10.4644 -10.47597,3.645309 -1.54175,-0.08884 -3.01573,0.399933 -4.4054,0.992428 z M 46.232433,96.336118 c -0.918846,8.054382 0.132892,16.325172 3.055508,23.887712 -4.31159,-9.15191 13.868637,-20.770765 -1.629451,-23.499868 l -1.355157,-0.220164 -0.0709,-0.16768 0,0 z"
       id="circle14328" />
  </g>
  <path
     style="fill:url(#linearGradient2861);fill-opacity:1;stroke:none"
     d="M 58.799436,22.358751 C 38.347618,21.72855 20.578998,40.930779 22.358757,61.231877 c 0,15.081371 0,30.162742 0,45.244113 35.667212,21.50502 78.828053,26.965 119.782963,24.6343 29.70881,-2.16301 59.88644,-8.86814 85.49953,-24.6343 -0.23284,-17.742159 0.49415,-35.531611 -0.41838,-53.240554 -2.37927,-18.790419 -21.02509,-32.768362 -39.67097,-30.876685 -42.91749,0 -85.83498,0 -128.752464,0 z"
     id="rect3404" />
</svg>
