<?xml version="1.0" encoding="UTF-8" standalone="no"?>
<!-- Created with Inkscape (http://www.inkscape.org/) -->

<svg
   xmlns:dc="http://purl.org/dc/elements/1.1/"
   xmlns:cc="http://creativecommons.org/ns#"
   xmlns:rdf="http://www.w3.org/1999/02/22-rdf-syntax-ns#"
   xmlns:svg="http://www.w3.org/2000/svg"
   xmlns="http://www.w3.org/2000/svg"
   xmlns:xlink="http://www.w3.org/1999/xlink"
   xmlns:sodipodi="http://sodipodi.sourceforge.net/DTD/sodipodi-0.dtd"
   xmlns:inkscape="http://www.inkscape.org/namespaces/inkscape"
   version="1.0"
   width="96"
   height="96"
   id="svg2408"
   inkscape:version="0.48.2 r9819"
   sodipodi:docname="azoth.svg"
   inkscape:export-filename="/home/buckstabu/Dropbox/Public/lcicons/lcproto2.png"
   inkscape:export-xdpi="90"
   inkscape:export-ydpi="90">
  <sodipodi:namedview
     pagecolor="#ffffff"
     bordercolor="#666666"
     borderopacity="1"
     objecttolerance="10"
     gridtolerance="10"
     guidetolerance="10"
     inkscape:pageopacity="0"
     inkscape:pageshadow="2"
     inkscape:window-width="1862"
     inkscape:window-height="1036"
     id="namedview68"
     showgrid="false"
     inkscape:zoom="1.6666667"
     inkscape:cx="145.00189"
     inkscape:cy="5.2991137"
     inkscape:window-x="58"
     inkscape:window-y="0"
     inkscape:window-maximized="1"
     inkscape:current-layer="svg2408" />
  <defs
     id="defs2410">
    <linearGradient
       id="linearGradient4017">
      <stop
         style="stop-color:#ff6600;stop-opacity:1;"
         offset="0"
         id="stop4019" />
      <stop
         style="stop-color:#ff1e00;stop-opacity:1;"
         offset="1"
         id="stop4021" />
    </linearGradient>
    <linearGradient
       x1="45.447727"
       y1="92.539597"
       x2="45.447727"
       y2="7.0165396"
       id="ButtonShadow"
       gradientUnits="userSpaceOnUse"
       gradientTransform="scale(1.0058652,0.994169)">
      <stop
         id="stop3750"
         style="stop-color:#000000;stop-opacity:1"
         offset="0" />
      <stop
         id="stop3752"
         style="stop-color:#000000;stop-opacity:0.58823532"
         offset="1" />
    </linearGradient>
    <filter
       color-interpolation-filters="sRGB"
       id="filter3174">
      <feGaussianBlur
         id="feGaussianBlur3176"
         stdDeviation="1.71" />
    </filter>
    <linearGradient
       id="linearGradient3224-6">
      <stop
         id="stop3226-2"
         style="stop-color:#42394b;stop-opacity:1"
         offset="0" />
      <stop
         id="stop3228-1"
         style="stop-color:#000000;stop-opacity:1"
         offset="1" />
    </linearGradient>
    <linearGradient
       id="linearGradient3187-5">
      <stop
         id="stop3189-3"
         style="stop-color:#b4b4b4;stop-opacity:1"
         offset="0" />
      <stop
         id="stop3191-2"
         style="stop-color:#e6e6e6;stop-opacity:1"
         offset="1" />
    </linearGradient>
    <linearGradient
       id="linearGradient3737-9">
      <stop
         id="stop3739-7"
         style="stop-color:#ffffff;stop-opacity:1"
         offset="0" />
      <stop
         id="stop3741-6"
         style="stop-color:#ffffff;stop-opacity:0"
         offset="1" />
    </linearGradient>
    <linearGradient
       id="linearGradient3465-2">
      <stop
         id="stop3467-0"
         style="stop-color:#919191;stop-opacity:1"
         offset="0" />
      <stop
         id="stop3469-6"
         style="stop-color:#fdfdfd;stop-opacity:1"
         offset="1" />
    </linearGradient>
    <linearGradient
       id="linearGradient3737-7-3">
      <stop
         id="stop3739-2-3"
         style="stop-color:#ffffff;stop-opacity:1"
         offset="0" />
      <stop
         id="stop3741-7-6"
         style="stop-color:#ffffff;stop-opacity:0"
         offset="1" />
    </linearGradient>
    <linearGradient
       id="linearGradient3737-4-0">
      <stop
         id="stop3739-8-4"
         style="stop-color:#ffffff;stop-opacity:1"
         offset="0" />
      <stop
         id="stop3741-71-8"
         style="stop-color:#ffffff;stop-opacity:0"
         offset="1" />
    </linearGradient>
    <clipPath
       id="clipPath3613-5">
      <rect
         width="84"
         height="84"
         rx="6"
         ry="6"
         x="6"
         y="6"
         id="rect3615-1"
         style="fill:#ffffff;fill-opacity:1;fill-rule:nonzero;stroke:none" />
    </clipPath>
    <filter
       x="-0.192"
       y="-0.192"
       width="1.3839999"
       height="1.3839999"
       color-interpolation-filters="sRGB"
       id="filter3794-2">
      <feGaussianBlur
         id="feGaussianBlur3796-9"
         stdDeviation="5.28" />
    </filter>
    <linearGradient
       inkscape:collect="always"
       xlink:href="#linearGradient3187-5"
       id="linearGradient4094"
       gradientUnits="userSpaceOnUse"
       x1="48"
       y1="90"
       x2="48"
       y2="5.9877172" />
    <linearGradient
       inkscape:collect="always"
       xlink:href="#linearGradient3737-9"
       id="linearGradient4096"
       gradientUnits="userSpaceOnUse"
       x1="36.357143"
       y1="6"
       x2="36.357143"
       y2="63.893143" />
    <linearGradient
       inkscape:collect="always"
       xlink:href="#linearGradient3465-2"
       id="linearGradient4098"
       gradientUnits="userSpaceOnUse"
       gradientTransform="matrix(1.0294118,0,0,1.0294118,-1.4117647,-1.411765)"
       x1="43.17857"
       y1="13"
       x2="43.17857"
       y2="83.294571" />
    <radialGradient
       inkscape:collect="always"
       xlink:href="#linearGradient3737-7-3"
       id="radialGradient4100"
       gradientUnits="userSpaceOnUse"
       gradientTransform="matrix(1.1573129,0,0,0.99590774,-7.551021,0.1971319)"
       cx="48"
       cy="90.171875"
       fx="48"
       fy="90.171875"
       r="42" />
    <linearGradient
       inkscape:collect="always"
       xlink:href="#linearGradient3737-4-0"
       id="linearGradient4102"
       gradientUnits="userSpaceOnUse"
       x1="48"
       y1="20.220806"
       x2="48"
       y2="138.66119" />
    <radialGradient
       inkscape:collect="always"
       xlink:href="#linearGradient3224-6"
       id="radialGradient4113"
       gradientUnits="userSpaceOnUse"
       gradientTransform="matrix(1.3830053,-1.0350102e-8,0,1.3123934,-17.140614,-23.729195)"
       cx="47.098362"
       cy="78.286942"
       fx="47.098362"
       fy="78.286942"
       r="38.957481" />
    <filter
       id="filter3174-0"
       color-interpolation-filters="sRGB">
      <feGaussianBlur
         stdDeviation="1.71"
         id="feGaussianBlur3176-0" />
    </filter>
    <linearGradient
       gradientTransform="scale(1.0058652,0.994169)"
       gradientUnits="userSpaceOnUse"
       id="ButtonShadow-83"
       y2="7.0165396"
       x2="45.447727"
       y1="92.539597"
       x1="45.447727">
      <stop
         offset="0"
         style="stop-color:#000000;stop-opacity:1"
         id="stop3750-64" />
      <stop
         offset="1"
         style="stop-color:#000000;stop-opacity:0.58823532"
         id="stop3752-71" />
    </linearGradient>
    <linearGradient
       inkscape:collect="always"
       xlink:href="#linearGradient4017"
       id="linearGradient10943"
       gradientUnits="userSpaceOnUse"
       gradientTransform="matrix(0.57142857,0,0,0.57142857,20.57143,20.571429)"
       x1="32.775002"
       y1="3.8999999"
       x2="31.725"
       y2="120.43772" />
    <style
       id="style3891"
       type="text/css">
   
    .str0 {stroke:black;stroke-width:0.238063}
    .fil0 {fill:black}
    .fil2 {fill:#050707}
    .fil3 {fill:#881846}
    .fil5 {fill:#F6BCD6}
    .fil1 {fill:#F9DD56}
    .fil4 {fill:#FDFCFD}
   
  </style>
    <linearGradient
       inkscape:collect="always"
       xlink:href="#linearGradient4017"
       id="linearGradient9141"
       gradientUnits="userSpaceOnUse"
       gradientTransform="matrix(0.57142857,0,0,0.57142857,20.57143,20.571429)"
       x1="32.775002"
       y1="3.8999999"
       x2="31.725"
       y2="120.43772" />
    <linearGradient
       inkscape:collect="always"
       xlink:href="#linearGradient4017"
       id="linearGradient9145"
       gradientUnits="userSpaceOnUse"
       gradientTransform="matrix(0.69970846,0,0,0.69970846,14.413996,14.413995)"
       x1="32.775002"
       y1="3.8999999"
       x2="31.725"
       y2="120.43772" />
    <linearGradient
       inkscape:collect="always"
       xlink:href="#linearGradient4017"
       id="linearGradient9961"
       x1="46.875"
       y1="29.00609"
       x2="46.956249"
       y2="59.15609"
       gradientUnits="userSpaceOnUse" />
  </defs>
  <metadata
     id="metadata2413">
    <rdf:RDF>
      <cc:Work
         rdf:about="">
        <dc:format>image/svg+xml</dc:format>
        <dc:type
           rdf:resource="http://purl.org/dc/dcmitype/StillImage" />
        <dc:title></dc:title>
      </cc:Work>
    </rdf:RDF>
  </metadata>
  <path
     style="opacity:0.6;color:#000000;fill:#000000;fill-opacity:1;fill-rule:nonzero;stroke:none;stroke-width:1;marker:none;visibility:visible;display:inline;overflow:visible;enable-background:accumulate"
     id="rect3977-9"
     inkscape:connector-curvature="0"
     d="m 17.89831,14.489536 c -1.662,0 -3,1.338 -3,3 l 0,62 c 0,1.662 1.338,3 3,3 l 62,0 c 1.662,0 3,-1.338 3,-3 l 0,-62 c 0,-1.662 -1.338,-3 -3,-3 l -62,0 z m 0,0.96875 62,0 c 1.140081,0 2.03125,0.891169 2.03125,2.03125 l 0,62 c 0,1.140081 -0.891169,2.03125 -2.03125,2.03125 l -62,0 c -1.140081,0 -2.03125,-0.891169 -2.03125,-2.03125 l 0,-62 c 0,-1.140081 0.891169,-2.03125 2.03125,-2.03125 z" />
  <g
     id="layer2"
     style="display:none">
    <rect
       width="86"
       height="85"
       rx="6"
       ry="6"
       x="5"
       y="7"
       id="rect3745"
       style="opacity:0.9;fill:url(#ButtonShadow);fill-opacity:1;fill-rule:nonzero;stroke:none;filter:url(#filter3174)" />
  </g>
  <rect
     style="fill:url(#radialGradient4113);fill-opacity:1;stroke:none"
     id="rect3461-7"
     y="8.743969"
     x="9.0391903"
     ry="6.1732869"
     rx="5.8527675"
     height="78.516495"
     width="77.914963" />
  <path
     style="font-size:medium;font-style:normal;font-variant:normal;font-weight:normal;font-stretch:normal;text-indent:0;text-align:start;text-decoration:none;line-height:normal;letter-spacing:normal;word-spacing:normal;text-transform:none;direction:ltr;block-progression:tb;writing-mode:lr-tb;text-anchor:start;opacity:0.15;color:#000000;fill:#000000;fill-opacity:1;stroke:none;stroke-width:4;marker:none;visibility:visible;display:inline;overflow:visible;enable-background:accumulate;font-family:Abandoned Bitplane;-inkscape-font-specification:Abandoned Bitplane"
     id="rect3222-3-8"
     inkscape:connector-curvature="0"
     d="m 19.89831,13.489536 c -3.289406,0 -6,2.710594 -6,6 l 0,58 c 0,3.289406 2.710594,6 6,6 l 58,0 c 3.289406,0 6,-2.710594 6,-6 l 0,-58 c 0,-3.289406 -2.710594,-6 -6,-6 l -58,0 z m 0,4 58,0 c 1.142594,0 2,0.857406 2,2 l 0,58 c 0,1.142594 -0.857406,2 -2,2 l -58,0 c -1.142594,0 -2,-0.857406 -2,-2 l 0,-58 c 0,-1.142594 0.857406,-2 2,-2 z" />
  <path
     style="opacity:0.3;color:#000000;fill:#000000;fill-opacity:1;fill-rule:nonzero;stroke:none;stroke-width:1;marker:none;visibility:visible;display:inline;overflow:visible;enable-background:accumulate"
     id="rect3981-0"
     inkscape:connector-curvature="0"
     d="m 17.89831,14.489536 c -1.662,0 -3,1.338 -3,3 l 0,62 c 0,1.662 1.338,3 3,3 l 62,0 c 1.662,0 3,-1.338 3,-3 l 0,-62 c 0,-1.662 -1.338,-3 -3,-3 l -62,0 z m 0,1.9375 62,0 c 0.618163,0 1.0625,0.444337 1.0625,1.0625 l 0,62 c 0,0.618163 -0.444337,1.0625 -1.0625,1.0625 l -62,0 c -0.618163,0 -1.0625,-0.444337 -1.0625,-1.0625 l 0,-62 c 0,-0.618163 0.444337,-1.0625 1.0625,-1.0625 z" />
  <g
     id="layer2-5"
     style="display:none"
     transform="translate(124.4,-16.999999)">
    <rect
       width="86"
       height="85"
       rx="6"
       ry="6"
       x="5"
       y="7"
       id="rect3745-2"
       style="opacity:0.9;fill:url(#ButtonShadow-83);fill-opacity:1;fill-rule:nonzero;stroke:none;filter:url(#filter3174-0)" />
  </g>
  <path
     d="m 22.810494,18.612245 c -2.325832,0 -4.198249,1.872419 -4.198249,4.198252 l 0,39.183673 c 0,2.325832 1.872417,4.19825 4.198249,4.19825 l 8.396498,0 -2.099118,11.195336 16.093298,-11.195336 27.988335,0 c 2.325832,-10e-7 4.198249,-1.872418 4.198249,-4.19825 l 0,-39.183673 c 0,-2.325832 -1.872417,-4.198251 -4.198249,-4.198251 l -50.379013,0 z"
     inkscape:connector-curvature="0"
     id="path3984"
     style="fill:url(#linearGradient9145);fill-opacity:1;fill-rule:nonzero;stroke:#000000;stroke-width:1.22448981;stroke-opacity:1" />
  <path
     inkscape:connector-curvature="0"
     d="m 64.162678,25.307896 c 0,0 -0.614869,-0.111794 -1.40302,-0.0056 l -1.324763,0.257127 c 0,0 -0.788151,0.229179 -1.436558,0.491896 0,0 -0.586921,0.234768 -1.380661,0.631638 l -1.252098,0.760202 c 0,0 -1.078816,-1.632198 -2.554502,-2.224709 l -0.02236,-0.0056 -0.01677,-0.01118 c 0,0 -0.950252,-0.340973 -1.967581,-0.106204 0,0 -1.022919,0.234768 -1.866966,0.98938 l -0.01118,0.0056 c 0,0 -0.866407,0.782561 -1.548353,1.822248 0,0 -0.754612,-0.02236 -1.525993,-0.02795 l -0.626049,0 c 0,0 -0.514254,-0.02795 -1.492456,0.03913 l -1.458917,0.05031 c 0,0 -1.721634,0.08944 -3.532702,0.486306 0,0 -0.514255,0.03354 -0.849638,-0.145333 0,0 -1.609839,-0.832868 -3.97988,-1.609839 l -1.224149,-0.313024 c 0,0 -0.760202,-0.184461 -1.296815,-0.240358 0,0 -1.520404,-0.150923 -2.420349,0.5981 0,0 -1.089995,1.280046 -1.604249,2.945782 0,0 -0.357742,1.089995 -0.458357,2.643938 0,0 -0.03354,0.967021 0.20123,2.124094 0,0 0.128564,0.653997 0.514254,2.051427 0,0 0.06149,0.19005 -0.05031,0.39687 0,0 -2.062607,3.577421 -2.174401,7.121303 0,0 -0.01118,0.05031 -0.0056,0.5981 0,0 0,0.357742 -0.212409,0.497485 l -1.078816,0.100615 -1.380661,0.156512 c 0,0 -0.832869,0.09502 -1.324764,0.329793 0,0 -0.385691,0.162102 -0.39687,0.670767 0,0 0.02795,0.212409 0.217999,0.290665 0,0 0.40805,0.06708 0.99497,-0.0056 l 0.978201,-0.106205 1.369482,-0.117384 0.503074,-0.01118 c 0,0 0.290666,0.01677 0.40246,0.21241 0,0 0.117384,0.408049 0.313025,1.341533 0,0 0.18446,0.871996 0.329793,1.324763 0,0 0.06149,0.162102 0.0056,0.296255 0,0 -0.06708,0.150923 -0.285076,0.234769 l -1.117944,0.324203 c 0,0 -0.648407,0.20123 -1.067636,0.463947 0,0 -0.178871,0.06149 -0.279486,0.251537 0,0 -0.08385,0.167692 -0.06149,0.301845 0,0 0.02236,0.128564 0.240358,0.240358 0,0 0.251537,0.128564 0.536613,0.08385 0,0 0.514254,-0.08385 0.922304,-0.217999 l 1.017329,-0.212409 c 0,0 0.564561,-0.07826 0.905534,0.268306 l 0.447178,0.788151 0.480716,0.776971 c 0,0 0.04472,0.106205 0.257127,0.368921 0,0 0.111794,0.117384 0.08385,0.307435 0,0 -0.03354,0.20682 -0.234769,0.313024 0,0 -0.614869,0.391281 -1.889325,1.112355 0,0 -0.301845,0.178871 -0.614869,0.441587 0,0 -0.435998,0.363332 -0.581331,0.653998 l 0,0.335383 c 0,0 0.02236,0.20123 0.145333,0.290665 0,0 0.20123,0.08385 0.419229,0.0559 0,0 0.20123,-0.02795 0.357742,-0.145333 l 1.559532,-0.961432 c 0,0 0.933483,-0.581331 1.593069,-0.849637 0,0 0.145333,-0.08944 0.329794,-0.08944 0,0 0.20123,0.0056 0.346562,0.139743 0,0 1.157072,0.905535 1.822249,1.363892 0,0 1.710454,1.179431 3.113474,1.755172 0,0 1.732813,0.704304 3.124654,1.045277 0,0 1.291225,0.313025 3.214088,0.531024 l 2.817219,0.273896 c 0,0 3.320294,0.301845 6.601459,0.05031 0,0 1.643378,-0.122974 2.615989,-0.313025 0,0 1.525994,-0.173281 3.19173,-0.642818 0,0 1.20738,-0.340972 2.263837,-0.765791 0,0 1.034098,-0.413639 1.956402,-1.017329 0,0 0.653997,-0.424819 1.822249,-1.352712 0,0 0.78815,-0.693126 1.453327,-1.436559 0,0 0.100615,-0.111794 0.268306,-0.167691 l 0.335384,-0.0056 c 0,0 0.206819,0.05031 0.547792,0.20682 0,0 0.385691,0.184461 0.542203,0.234768 l 1.20179,0.531023 c 0,0 0.721074,0.329794 1.235328,0.40805 0,0 0.19005,0.01118 0.313024,-0.122974 0,0 0.106205,-0.111794 0.111795,-0.257127 0,0 0.09502,-0.335383 -0.229179,-0.626049 0,0 -0.542203,-0.38569 -1.458917,-0.832868 l -1.503634,-0.737843 c 0,0 -0.195641,-0.100615 -0.245948,-0.245948 0,0 -0.03913,-0.117384 0.02236,-0.212409 l 0.39128,-0.877586 0.385691,-0.888765 0.184461,-0.486306 c 0,0 0.122973,-0.285076 0.380101,-0.335383 l 1.129123,0.06708 1.106765,0.150923 0.653997,0.02236 c 0,0 0.408049,0 0.631638,-0.139743 0,0 0.100615,-0.07826 0.100615,-0.268307 0,0 0,-0.19005 -0.111794,-0.251537 0,0 -0.754612,-0.441588 -1.727224,-0.61487 l -0.570151,-0.09503 -0.503075,-0.07826 -0.313024,-0.03913 c 0,0 -0.134154,-0.02795 -0.240358,-0.128563 0,0 -0.111795,-0.106205 -0.08944,-0.20123 0,0 0.01677,-0.357742 0.117384,-1.062047 0,0 0.100615,-0.704305 0.111795,-1.078816 l 0.0056,-0.413639 c 0,0 -0.0056,-0.251538 0.139743,-0.363332 0,0 0.61487,-0.178871 1.671327,-0.117384 l 1.732813,0.06708 0.570151,-0.03913 c 0,0 0.458357,-0.06708 0.480716,-0.408049 0,0 -0.05031,-0.268306 -0.335383,-0.424818 0,0 -0.03354,-0.02236 -0.514254,-0.20682 l -1.302405,-0.145333 -1.39184,-0.03913 -0.39687,0.02236 c 0,0 -0.234769,0.02236 -0.352153,0 0,0 -0.128563,0.0056 -0.223588,-0.122974 0,0 -0.08385,-0.106205 -0.09503,-0.229178 L 68.041943,41.60749 c 0,0 -0.20682,-0.983791 -0.676356,-2.012299 0,0 0.346562,-0.480716 0.860816,-1.363892 l 0.03354,-0.07267 c 0,0 0.827278,-1.738403 0.849637,-3.454447 0,0 0.01118,-0.475127 -0.0559,-0.933484 0,0 -0.08385,-0.681946 -0.575741,-1.240918 0,0 -0.491896,-0.553382 -1.168252,-0.726664 l -0.285075,-0.06708 c 0,0 -0.162102,-2.744553 -0.955843,-4.544442 0,0 -0.441587,-0.79933 -0.737843,-1.140303 0,0 -0.514254,-0.5981 -1.168251,-0.743433"
     id="path9500"
     style="fill:#000000;fill-opacity:1;stroke:none" />
  <path
     style="fill:url(#linearGradient9961);fill-opacity:1;stroke:none;opacity:1"
     d="M 63.71875 26.84375 L 63.125 26.875 C 63.125 26.875 62.717022 26.931388 61.75 27.25 C 61.75 27.25 60.996734 27.501764 60.28125 27.78125 C 60.28125 27.78125 59.575026 28.010882 58.09375 28.84375 L 58.40625 29.625 L 58.5 29.90625 C 58.5 29.90625 58.622712 30.22254 58.65625 30.625 C 58.65625 30.625 59.477606 30.650138 60.1875 30.96875 C 60.1875 30.96875 60.915368 31.2769 61.46875 31.875 L 61.78125 32.25 C 61.78125 32.25 62.033014 32.047006 62.3125 31.96875 C 62.3125 31.96875 63.856622 31.432923 65.5 31.5 L 65.40625 30.75 L 65.25 29.6875 C 65.25 29.6875 65.11307 28.968524 64.90625 28.4375 C 64.90625 28.4375 64.68371 27.85369 64.28125 27.25 C 64.28125 27.25 64.10444 26.888468 63.71875 26.84375 z M 33.15625 27.78125 C 33.15625 27.78125 32.259678 27.760392 31.8125 28.21875 C 31.8125 28.21875 31.039652 29.151864 30.6875 30.4375 C 30.6875 30.4375 30.408538 31.535493 30.375 33 C 30.375 33 30.436228 33.566289 30.53125 33.96875 C 30.53125 33.96875 30.63693 34.50938 30.84375 34.90625 C 30.84375 34.90625 30.905992 35.019054 31.0625 34.96875 L 31.40625 34.78125 C 31.40625 34.78125 31.571129 34.68521 31.75 34.71875 C 31.75 34.71875 32.092474 34.780728 32.1875 35.09375 C 32.1875 35.09375 32.25027 35.352117 32.09375 35.6875 L 31.0625 37.1875 C 31.0625 37.1875 30.518307 38.071355 30.25 38.78125 C 30.25 38.78125 28.914128 41.656334 28.875 44.9375 C 28.875 44.9375 28.910567 45.041154 29 45.125 C 29 45.125 29.12372 45.238825 29.21875 45.25 L 29.96875 45.3125 L 30.78125 45.4375 C 30.78125 45.4375 30.950181 45.50762 31.375 45.625 C 31.375 45.625 31.704269 45.795206 31.6875 46.125 C 31.6875 46.125 31.592253 46.460872 31.15625 46.5 C 31.15625 46.5 30.61866 46.47764 30.40625 46.5 L 29.90625 46.46875 L 29.40625 46.46875 C 29.40625 46.46875 29.240096 46.47308 29.15625 46.5625 C 29.15625 46.5625 29.08817 46.650402 29.09375 46.8125 L 29.09375 47.0625 C 29.09375 47.0625 29.176547 48.201159 29.71875 49.375 C 29.71875 49.375 29.916905 49.549292 30.21875 49.4375 L 30.96875 49.34375 L 31.59375 49.40625 C 31.59375 49.40625 31.807924 49.446131 31.875 49.625 C 31.875 49.625 31.91972 49.764219 31.875 49.9375 C 31.875 49.9375 31.875262 50.013209 31.71875 50.125 C 31.71875 50.125 30.984017 50.408276 30.53125 50.53125 C 30.53125 50.53125 30.405237 50.575709 30.34375 50.6875 C 30.34375 50.6875 30.27667 50.808936 30.34375 50.9375 C 30.34375 50.9375 30.519546 51.357444 30.84375 51.84375 L 31.46875 52.6875 C 31.46875 52.6875 31.722278 53.012455 32.28125 52.90625 L 33.03125 52.625 C 33.03125 52.625 33.406739 52.483231 33.78125 52.5 C 33.78125 52.5 34.002026 52.511931 34.125 52.71875 C 34.125 52.71875 34.246694 52.875751 34.21875 53.09375 C 34.21875 53.09375 34.075479 53.35568 33.65625 53.5625 C 33.65625 53.5625 33.145333 53.817828 33 53.96875 C 33 53.96875 32.96976 54.085872 33.03125 54.125 C 33.03125 54.125 34.368588 55.147323 35.53125 55.8125 C 35.53125 55.8125 36.973256 56.63997 38.28125 57.03125 C 38.28125 57.03125 40.07822 57.573418 40.6875 57.71875 C 40.6875 57.71875 42.258295 58.084596 43.96875 58.21875 C 43.96875 58.21875 47.55951 58.618659 51.34375 58.40625 C 51.34375 58.40625 54.395488 58.259677 56.15625 57.8125 C 56.15625 57.8125 58.909934 57.36618 61.375 55.96875 C 61.375 55.96875 62.250227 55.428121 62.78125 55.03125 C 62.78125 55.03125 63.519284 54.458619 64 53.84375 C 64 53.84375 64.10493 53.751275 64.09375 53.65625 C 64.09375 53.65625 64.058185 53.561492 63.96875 53.5 C 63.96875 53.5 63.650922 53.345025 63.5 53.25 C 63.5 53.25 63.234506 53.078519 63.15625 52.84375 C 63.15625 52.84375 63.1283 52.707833 63.15625 52.5625 C 63.15625 52.5625 63.189528 52.410826 63.3125 52.34375 C 63.3125 52.34375 63.546219 52.146084 63.9375 52.21875 L 64.625 52.375 C 64.625 52.375 65.076719 52.49062 65.25 52.09375 C 65.25 52.09375 65.887943 50.991406 66.15625 50.125 C 66.15625 50.125 66.21774 49.941063 66.15625 49.8125 C 66.15625 49.8125 66.111792 49.721039 66 49.6875 L 65.28125 49.46875 C 65.28125 49.46875 64.863821 49.270595 64.875 48.96875 C 64.875 48.96875 64.96823 48.657525 65.28125 48.5625 L 65.9375 48.53125 L 66.3125 48.5625 C 66.3125 48.5625 66.535564 48.551573 66.625 48.40625 C 66.625 48.40625 66.754314 47.672042 66.84375 46.90625 C 66.84375 46.90625 66.89736 46.614869 66.875 46 C 66.875 46 66.90753 45.791416 66.8125 45.71875 C 66.8125 45.71875 66.761439 45.67302 66.59375 45.65625 L 66.53125 45.65625 L 65.65625 45.78125 L 64.75 45.90625 C 64.75 45.90625 64.307172 45.88569 64.15625 45.5 C 64.15625 45.5 64.058671 45.149908 64.34375 44.9375 C 64.34375 44.9375 64.622187 44.822666 64.96875 44.75 L 65.53125 44.59375 L 66.15625 44.53125 C 66.15625 44.53125 66.51752 44.490094 66.71875 44.40625 C 66.71875 44.40625 66.90625 44.302863 66.90625 44.0625 C 66.90625 44.0625 66.76628 42.595847 66.375 41.34375 L 66.21875 40.875 C 66.21875 40.875 64.724936 42.157788 63.03125 41.90625 C 63.03125 41.90625 61.913412 41.746997 60.96875 40.875 C 60.96875 40.875 60.165927 40.140041 59.71875 39.15625 C 59.71875 39.15625 59.596038 38.918967 59.5625 38.65625 C 59.5625 38.65625 58.990882 38.81809 58.4375 38.8125 C 58.4375 38.8125 57.436785 38.809995 56.53125 38.3125 C 56.53125 38.3125 55.612581 37.803907 55.03125 36.9375 C 55.03125 36.9375 54.855192 37.077994 54.6875 37.15625 L 54.5625 37.21875 C 54.5625 37.21875 52.689859 37.845025 51.28125 37.75 C 51.28125 37.75 49.86997 37.645374 48.875 36.8125 L 48.84375 36.8125 L 48.84375 36.78125 C 48.84375 36.78125 47.476366 35.485889 47.59375 33.25 C 47.59375 33.25 47.638436 31.996543 48.28125 30.0625 L 48.3125 30 L 48.46875 29.625 C 48.46875 29.625 46.609089 29.64608 44.78125 29.71875 L 42.25 29.90625 C 42.25 29.90625 41.956069 29.930636 41.53125 30.03125 L 40.84375 30.1875 C 40.84375 30.1875 40.005363 30.338684 39.46875 30.03125 C 39.46875 30.03125 37.049925 28.631638 34.5625 28 C 34.5625 28 33.592248 27.792429 33.15625 27.78125 z "
     id="path9504" />
  <path
     inkscape:connector-curvature="0"
     d="m 53.469544,32.764582 c 0,0 0.03913,0.296255 0.223588,0.553383 0,0 0.184461,0.268306 0.452768,0.402459 l 0.145332,0.0056 c 0,0 0.07826,-0.03913 0.111795,-0.134153 0,0 0.268306,-0.950253 0.866406,-1.637788 0,0 0.07826,-0.100615 0.07267,-0.217999 0,0 -0.0056,-0.106205 -0.06708,-0.150923 0,0 -0.257127,-0.145332 -0.558972,-0.162102 0,0 -0.307434,-0.02236 -0.558972,0.106205 0,0 -0.352152,0.167692 -0.536613,0.503075 0,0 -0.19005,0.340973 -0.150922,0.732253"
     id="path9516"
     style="fill:#e72235;fill-opacity:1;stroke:none" />
  <path
     inkscape:connector-curvature="0"
     d="m 63.296271,36.945693 c 0,0 -0.18446,0.20123 -0.38569,0.245948 l -0.39687,0.01677 c 0,0 -0.190051,-0.03913 -0.346563,-0.167691 0,0 -0.0559,-0.04472 -0.0559,-0.145333 0,0 -0.0056,-0.106205 0.05031,-0.184461 0,0 0.262717,-0.486306 0.40246,-1.067636 0,0 0.0056,-0.08385 0.08944,-0.156513 0,0 0.08384,-0.07267 0.156512,-0.0559 0,0 0.273896,0.03354 0.519844,0.285076 0,0 0.335383,0.385691 0.20123,0.832868 0,0 -0.0559,0.20682 -0.234769,0.39687"
     id="path9522"
     style="fill:#e72235;fill-opacity:1;stroke:none" />
  <path
     inkscape:connector-curvature="0"
     style="fill:#000000"
     d="m 61.10548,41.53125 c -0.05772,-0.01205 -0.105279,-0.01972 -0.15625,0.03125 -0.05287,0.05287 -0.104244,0.229877 -0.15625,0.46875 -0.136185,0.625525 -1.960961,1.66497 -5.21875,2.96875 -1.789323,0.71609 -4.404409,1.628991 -5.59375,1.96875 -1.438835,0.411029 -2.852109,0.686517 -4.3125,0.84375 -0.625579,0.06735 -2.609309,0.09283 -3.125,0.03125 C 40.892662,47.646695 39.789127,47.284559 38.69923,46.5625 37.648461,45.866366 37.273981,45.230118 37.13673,44 c -0.01874,-0.167972 -0.08955,-0.451714 -0.125,-0.625 -0.08645,-0.422577 -0.170471,-0.574739 -0.34375,-0.53125 -0.145742,0.03658 -0.271,0.280198 -0.34375,0.75 -0.04745,0.306405 -0.144724,0.539388 -0.28125,0.6875 -0.144459,0.15672 -0.21171,0.313368 -0.3125,0.71875 -0.400362,1.610364 -0.462684,5.125976 -0.125,7.15625 0.360367,2.166672 1.221825,3.155852 3.21875,3.6875 0.918179,0.244449 2.333401,0.429527 3.96875,0.53125 0.52572,0.0327 3.015332,0.08439 3.34375,0.0625 0.09239,-0.0062 0.463177,-0.045 0.8125,-0.0625 2.2569,-0.113055 4.139353,-0.458485 5.65625,-1.0625 1.546311,-0.615729 3.426075,-1.924573 4.875,-3.375 1.103872,-1.105012 1.78162,-2.001097 2.875,-3.84375 0.579696,-0.976953 0.956593,-1.548474 1.15625,-1.78125 0.164745,-0.192073 0.180247,-0.315685 0.125,-0.53125 -0.05457,-0.212915 0.01437,-0.522451 0.15625,-0.8125 0.16477,-0.336918 0.292279,-0.405057 0.8125,-0.40625 0.591535,-0.0014 0.9807,-0.145955 1,-0.375 0.008,-0.09475 -0.0072,-0.123424 -0.09375,-0.1875 -0.05551,-0.04109 -0.238277,-0.124061 -0.40625,-0.1875 -0.407323,-0.153833 -0.81321,-0.345533 -1,-0.5 -0.283174,-0.234171 -0.402942,-0.470254 -0.53125,-1 -0.111654,-0.460986 -0.29558,-0.745084 -0.46875,-0.78125 z m -0.1875,2.09375 c 0.173631,6.84e-4 0.224381,0.10935 0.21875,0.3125 -0.0061,0.219621 -0.189145,0.809682 -0.375,1.1875 -0.213026,0.433079 -0.619546,0.781585 -1.40625,1.25 -0.649738,0.386864 -1.626495,0.904802 -1.71875,0.90625 -0.02185,3.41e-4 -0.06814,-0.03244 -0.09375,-0.09375 -0.05566,-0.133216 -0.0792,-0.661604 -0.03125,-1.3125 0.01732,-0.235161 0.03111,-0.471584 0.03125,-0.5 3.1e-4,-0.05484 0.06325,-0.06157 1.3125,-0.78125 1.158856,-0.667611 1.773115,-0.96989 2.0625,-0.96875 z m -24.25,2.1875 c 0.03385,-0.01102 0.04671,0.02836 0.03125,0.125 -0.05773,0.361031 -0.232418,0.705081 -0.3125,0.625 -0.02399,-0.02399 -0.02679,-0.083 0,-0.1875 0.04802,-0.186988 0.226058,-0.544538 0.28125,-0.5625 z m 19.9375,0 c 0.04601,0.0056 0.07926,0.03543 0.09375,0.0625 0.05623,0.105059 0.04662,0.351993 0,0.53125 -0.08949,0.344005 -0.451396,0.892369 -0.84375,1.3125 -0.286545,0.306826 -0.431232,0.414099 -0.6875,0.46875 -0.388159,0.08278 -0.687056,0.190888 -1.625,0.625 -0.913816,0.422946 -1.041547,0.458322 -1.15625,0.3125 -0.03383,-0.04301 -0.07454,-0.154437 -0.09375,-0.25 -0.01921,-0.09556 -0.09236,-0.416399 -0.15625,-0.71875 -0.135962,-0.643492 -0.116232,-0.688973 0.125,-0.84375 0.153316,-0.09837 0.596347,-0.271544 1,-0.40625 0.771916,-0.257599 1.748776,-0.59599 2.34375,-0.8125 0.568562,-0.206898 0.861985,-0.29798 1,-0.28125 z m -19.125,1 c 0.07967,0.07967 0.09756,0.852939 0.03125,1.625 -0.07729,0.899859 -0.141751,0.980528 -0.40625,0.84375 -0.0522,-0.02699 -0.137403,-0.11141 -0.21875,-0.1875 -0.135596,-0.126832 -0.156443,-0.152087 -0.15625,-0.28125 3.1e-4,-0.192042 0.07864,-0.538882 0.25,-1.03125 0.222434,-0.639182 0.433999,-1.034756 0.5,-0.96875 z m 22.25,0.59375 c 0.07965,0.07965 -1.359656,2.227828 -1.875,2.8125 -0.07033,0.07979 -0.143365,0.15625 -0.15625,0.15625 -0.01288,0 -0.06792,-0.02438 -0.125,-0.0625 -0.05708,-0.03813 -0.126879,-0.129044 -0.15625,-0.1875 -0.108679,-0.216318 -0.02546,-1.053515 0.125,-1.375 0.140282,-0.299738 0.453325,-0.542885 1.34375,-1 0.543669,-0.279098 0.81586,-0.371642 0.84375,-0.34375 z m -21.1875,0.25 c 0.09899,0.002 0.26658,0.0731 0.53125,0.21875 0.637287,0.350715 0.653775,0.429353 0.53125,1 -0.04436,0.206579 -0.07698,0.514384 -0.09375,0.6875 -0.04152,0.428737 -0.09064,0.527997 -0.28125,0.46875 -0.0518,-0.0161 -0.137105,-0.04826 -0.1875,-0.0625 -0.05039,-0.01423 -0.161842,-0.01999 -0.25,-0.03125 -0.176298,-0.02251 -0.256106,-0.0859 -0.34375,-0.3125 -0.201529,-0.520993 -0.240272,-1.262932 -0.09375,-1.75 0.042,-0.139607 0.08851,-0.220701 0.1875,-0.21875 z m 12.53125,0.125 c 0.06656,0.0092 0.104952,0.05629 0.125,0.09375 0.03977,0.07431 0.236694,0.900907 0.28125,1.1875 0.05737,0.368977 -0.01176,0.5347 -0.25,0.65625 -0.159186,0.08121 -0.830555,0.281638 -1.25,0.375 -0.566303,0.126049 -1.207436,0.225542 -1.8125,0.25 -0.310754,0.01256 -0.622695,0.02858 -0.6875,0.03125 l -0.09375,0 0,-0.3125 c 0.01099,-0.172172 0.04671,-0.491987 0.0625,-0.71875 0.01579,-0.226763 0.02803,-0.505925 0.03125,-0.59375 0.0032,-0.08783 0.02164,-0.172481 0.03125,-0.1875 0.0096,-0.01502 0.07226,-0.04424 0.15625,-0.0625 0.08399,-0.01826 0.451358,-0.102458 0.8125,-0.1875 1.843134,-0.434021 2.394082,-0.558777 2.59375,-0.53125 z m -10.40625,0.75 c 0.0881,0.0077 2.615059,0.398067 2.625,0.40625 0.01919,0.0158 -0.09629,1.080731 -0.125,1.15625 -0.0384,0.101007 -0.106352,0.182582 -0.1875,0.21875 -0.09049,0.04033 -1.254877,-0.0085 -1.625,-0.0625 -0.419098,-0.06114 -0.821309,-0.148091 -0.9375,-0.21875 -0.150725,-0.09166 -0.147203,-0.169878 0.03125,-0.875 0.144658,-0.57158 0.164501,-0.629744 0.21875,-0.625 z m 5.9375,0.0625 0,0.875 0,0.90625 -1.34375,0 c -1.259481,0 -1.312618,-0.01245 -1.3125,-0.0625 1.86e-4,-0.07728 0.126619,-0.861293 0.1875,-1.125 0.03903,-0.16902 0.07724,-0.229887 0.125,-0.25 0.07791,-0.03281 0.668089,-0.116182 1.5,-0.21875 0.344346,-0.04246 0.687011,-0.0837 0.75,-0.09375 l 0.09375,-0.03125 z m 9.9375,0.5 0,0.46875 c 0.02287,0.643705 0.110164,0.924664 0.375,1.34375 0.171327,0.271131 0.004,0.46151 -1.59375,1.6875 -0.403132,0.309337 -0.943937,0.717437 -1.1875,0.90625 -0.243556,0.188812 -0.451563,0.343126 -0.46875,0.34375 -0.01719,6.26e-4 -0.166008,-0.281709 -0.3125,-0.625 -0.54075,-1.26713 -0.672739,-1.947287 -0.46875,-2.3125 0.102351,-0.183257 0.180324,-0.226967 0.625,-0.375 0.577422,-0.192223 1.10048,-0.430989 2.25,-1.03125 l 0.78125,-0.40625 z m -4.59375,1.9375 c 0.0022,0 0.02044,0.225888 0.03125,0.5 0.02628,0.666417 0.103576,0.920439 0.40625,1.53125 0.486976,0.982725 0.406915,1.167056 -0.6875,1.5625 -1.313167,0.474483 -3.020148,0.827238 -3.28125,0.6875 -0.08927,-0.04777 -0.155085,-0.240214 -0.1875,-0.59375 -0.03574,-0.389735 -0.08256,-2.29244 -0.0625,-2.3125 0.0076,-0.0076 0.244439,-0.09611 0.5625,-0.1875 1.072263,-0.308094 1.622602,-0.512034 2.84375,-1.03125 0.200921,-0.08543 0.372799,-0.15625 0.375,-0.15625 z m -15.53125,0.875 c 0.08304,-0.02756 0.653472,1.187209 0.8125,1.78125 0.09268,0.346205 0.02648,0.414731 -0.125,0.15625 C 36.916105,53.520598 36.476085,52.329541 36.41798,52 c -0.01052,-0.05966 -0.01186,-0.08981 0,-0.09375 z m 1.53125,0.71875 c 0.02256,-0.0064 0.05353,0.0049 0.09375,0.03125 0.214166,0.140328 0.592503,0.754817 0.875,1.46875 0.331758,0.83841 0.312383,0.877912 -0.09375,0.71875 -0.103776,-0.04067 -0.28546,-0.07501 -0.40625,-0.09375 -0.13277,-0.0206 -0.268261,-0.06811 -0.375,-0.125 -0.178826,-0.09531 -0.5625,-0.413986 -0.5625,-0.46875 0,-0.01857 0.08603,-0.0131 0.21875,0 0.170726,0.01682 0.220864,0.0083 0.28125,-0.03125 0.156222,-0.102365 0.154975,-0.357373 0,-0.96875 -0.08742,-0.344876 -0.09892,-0.512053 -0.03125,-0.53125 z m 9.21875,0.03125 c 0.04653,-0.005 0.0748,-0.01895 0.09375,0 0.07438,0.07438 0.118623,0.456825 0.15625,1.125 0.05051,0.89696 -0.0093,1.601263 -0.125,1.6875 -0.101607,0.07568 -0.721469,0.118454 -1.78125,0.125 l -0.75,0 -0.03125,-0.15625 c -0.01762,-0.08819 -0.04657,-0.242966 -0.0625,-0.34375 -0.01592,-0.100784 -0.06498,-0.463644 -0.125,-0.8125 -0.15217,-0.884296 -0.159061,-1.120336 0.03125,-1.21875 0.09922,-0.05131 0.360226,-0.08129 0.875,-0.125 0.527121,-0.04476 1.129592,-0.15606 1.46875,-0.25 0.123582,-0.03423 0.203467,-0.02626 0.25,-0.03125 z m -7.78125,0.3125 c 0.0052,-0.01326 0.182805,0.0059 0.375,0.0625 0.192189,0.05657 0.421914,0.13721 0.53125,0.15625 0.232847,0.04055 0.262819,0.07265 0.40625,0.375 0.100795,0.21247 0.53125,1.607094 0.53125,1.71875 0,0.107128 -0.0251,0.120697 -0.5,0 -0.15295,-0.03887 -0.36516,-0.08203 -0.46875,-0.09375 -0.103585,-0.01172 -0.175805,-0.04372 -0.1875,-0.0625 -0.0117,-0.01878 -0.02962,-0.146872 -0.03125,-0.28125 -0.0042,-0.349026 -0.06265,-0.533011 -0.59375,-1.71875 -0.03253,-0.07263 -0.06769,-0.142986 -0.0625,-0.15625 z m 3.3125,0.28125 c 0.706522,0.0019 0.747846,0.0085 0.90625,0.625 0.0679,0.264243 0.3125,1.610092 0.3125,1.71875 0,0.01066 -0.2499,0.0084 -0.53125,0 -0.366373,-0.01087 -0.560531,-0.05497 -0.6875,-0.09375 -0.227331,-0.06945 -0.305419,-0.172868 -0.53125,-0.625 -0.156489,-0.313303 -0.65625,-1.462195 -0.65625,-1.53125 0,-0.03966 0.615904,-0.0953 1.1875,-0.09375 z"
     id="path3310" />
  <path
     inkscape:connector-curvature="0"
     style="fill:#000000"
     d="m 40.57423,37.71875 c -0.423031,-2.4e-5 -0.830629,0.02278 -1,0.0625 -0.418888,0.09822 -0.613223,0.195869 -0.96875,0.53125 -0.247257,0.233247 -0.40203,0.444964 -0.40625,0.59375 -0.01271,0.448472 0.611249,0.650617 2.375,0.84375 1.963593,0.215016 3.026002,0.557116 3.15625,1.03125 0.04143,0.150781 0.03979,0.431943 0,0.8125 -0.06925,0.662784 -0.178826,0.81635 -0.78125,1.25 -0.706851,0.508818 -1.194233,0.95143 -1.71875,1.5 -0.546098,0.571131 -0.76618,0.727379 -1.03125,0.78125 -0.25139,0.05109 -0.493298,0.168497 -0.75,0.375 -0.195523,0.157296 -0.40625,0.373932 -0.40625,0.4375 0,0.06712 0.21454,0.02428 0.46875,-0.125 0.379637,-0.222933 1.104656,-0.576492 1.34375,-0.65625 0.33459,-0.111612 0.406904,-0.09399 0.59375,0.1875 0.142966,0.215388 0.215443,0.253224 0.375,0.125 0.186642,-0.14999 0.265041,-0.148638 0.5625,0.125 0.169363,0.1558 0.425096,0.410285 0.6875,0.71875 0.275376,0.323708 0.69365,0.755802 0.84375,0.84375 0.262887,0.154033 0.56677,0.186937 0.9375,0.125 0.243277,-0.04064 0.490363,-0.144255 0.59375,-0.25 0.109776,-0.112278 0.21875,-0.372262 0.21875,-0.53125 0,-0.06126 -0.02866,-0.180092 -0.0625,-0.25 -0.109039,-0.225238 -0.29911,-0.261882 -0.53125,-0.09375 -0.322585,0.233648 -0.474724,0.271765 -0.8125,0.09375 -0.362877,-0.191243 -0.915756,-0.851975 -1.21875,-1.4375 -0.146765,-0.283622 -0.145696,-0.491209 -0.03125,-0.75 0.130775,-0.295698 0.299383,-0.454892 0.5625,-0.5 0.353686,-0.06063 0.765162,-0.66388 0.90625,-1.34375 0.02756,-0.132831 0.04885,-0.475741 0.0625,-0.78125 0.03502,-0.783768 0.04538,-0.824435 0.65625,-1.1875 0.3327,-0.197735 0.559631,-0.395303 0.59375,-0.53125 0.03318,-0.132224 -0.03359,-0.219154 -0.15625,-0.28125 -0.141298,-0.07152 -0.202659,-0.07148 -0.53125,-0.09375 -0.487751,-0.03306 -0.804313,-0.171133 -1.21875,-0.53125 -0.743827,-0.646335 -1.269204,-0.888766 -2.1875,-1.03125 -0.25612,-0.03974 -0.701969,-0.06248 -1.125,-0.0625 z m -0.1875,0.875 c 0.318383,6.2e-5 0.59375,0.05607 0.59375,0.09375 0,0.04419 -0.564036,0.06017 -0.90625,0.03125 -0.128512,-0.01086 -0.21875,-0.04964 -0.21875,-0.0625 0,-0.03746 0.234392,-0.06253 0.53125,-0.0625 z"
     id="path3274" />
  <path
     style="fill:#000000"
     d="m 50.459663,46.325217 c 0.175454,-0.100329 0.397269,-0.272569 0.469858,-0.364845 0.114951,-0.146137 0.240166,-0.46352 0.284574,-0.721313 0.07902,-0.458707 0.0079,-1.067117 -0.164069,-1.404279 -0.202279,-0.396502 -0.591683,-0.602617 -1.197832,-0.634022 -0.784083,-0.04062 -1.192322,0.216707 -0.946336,0.596511 0.06763,0.104418 0.230746,0.173136 0.555506,0.234023 0.79977,0.149946 0.977294,0.274174 0.977294,0.683902 0,0.256083 -0.09274,0.486244 -0.27731,0.688189 -0.17657,0.193195 -0.242137,0.332832 -0.241207,0.513709 7.13e-4,0.139708 0.07902,0.343541 0.165011,0.429529 0.07335,0.07335 0.223854,0.06475 0.374511,-0.0214 z"
     id="path3270"
     inkscape:connector-curvature="0" />
  <path
     style="fill:#000000"
     d="m 64.138884,46.097683 c 0.103281,-0.06379 0.27092,-0.261013 0.370923,-0.436382 0.224901,-0.394391 0.405134,-1.334606 0.404911,-2.112325 -3.1e-4,-0.970315 -0.253207,-1.795892 -0.754879,-2.463934 -0.170149,-0.226578 -0.529463,-0.578122 -0.750508,-0.734286 -0.660244,-0.466435 -2.094182,-0.627222 -3.074036,-0.344688 -0.165365,0.04768 -0.439644,0.172196 -0.763512,0.346615 -0.888739,0.478627 -1.740106,0.826249 -2.39218,0.976763 -0.558934,0.129012 -1.046481,0.05527 -1.723806,-0.260731 -0.447905,-0.20897 -0.768749,-0.436763 -1.130876,-0.802904 -0.366342,-0.370405 -0.470329,-0.428174 -0.672676,-0.37369 -0.18011,0.0485 -0.236268,0.128565 -0.233888,0.333435 0.0063,0.537485 0.888094,1.424777 1.764996,1.775902 0.946398,0.378959 2.02859,0.35391 3.281868,-0.07596 0.70343,-0.241274 1.746786,-0.735406 1.973956,-0.934867 0.135906,-0.119329 0.260786,-0.167443 0.546184,-0.210443 0.409653,-0.06173 1.05134,0.0091 1.516916,0.167469 0.409361,0.139236 0.611863,0.290912 0.89198,0.66811 0.234049,0.315166 0.399104,0.600738 0.516113,0.89295 0.286235,0.714844 0.30838,1.004164 0.132956,1.737268 -0.220717,0.9224 -0.264809,1.158269 -0.269296,1.440624 -0.0038,0.240937 0.0045,0.292164 0.05965,0.366486 0.07889,0.106332 0.181082,0.121262 0.305206,0.04459 z"
     id="path3268"
     inkscape:connector-curvature="0" />
  <path
     style="fill:#000000"
     d="m 49.171231,45.980093 c 0.186084,-0.04533 0.29573,-0.282054 0.293152,-0.632928 -0.0021,-0.291642 -0.0143,-0.337665 -0.119321,-0.451381 -0.143257,-0.155126 -0.324538,-0.191883 -0.937349,-0.190055 -0.626174,0.0019 -0.960944,0.06012 -1.334153,0.232142 -0.422557,0.194768 -0.521518,0.482778 -0.211031,0.6142 0.0453,0.01918 0.412783,0.0428 0.858029,0.05515 0.460742,0.01278 0.828193,0.03677 0.899778,0.05874 0.06687,0.02052 0.169344,0.08878 0.229054,0.152556 0.09362,0.1 0.220779,0.191147 0.251111,0.180002 0.0053,-0.0019 0.03713,-0.01024 0.07073,-0.01842 z"
     id="path3264"
     inkscape:connector-curvature="0" />
  <path
     style="fill:#000000"
     d="m 54.497122,44.261059 c 0.165011,-0.03522 0.186586,-0.0547 0.116947,-0.105625 -0.09365,-0.06848 -0.497805,-0.110798 -1.31988,-0.138215 -1.069313,-0.03566 -1.45035,-0.116591 -1.614692,-0.342948 -0.05918,-0.08151 -0.05926,-0.08614 -0.0043,-0.247735 0.06673,-0.19632 0.04924,-0.264915 -0.06738,-0.264273 -0.102023,5.64e-4 -0.14079,0.02375 -0.187262,0.112051 -0.09212,0.175012 0.01583,0.549005 0.208787,0.723327 0.138695,0.125302 0.2273,0.152729 0.702854,0.217554 0.413129,0.05631 1.962223,0.08913 2.164955,0.04586 z"
     id="path3260"
     inkscape:connector-curvature="0" />
  <path
     style="fill:#000000"
     d="m 39.367736,43.070152 c 0.448903,-0.08246 0.620478,-0.150594 0.826965,-0.328371 0.220606,-0.189931 0.358093,-0.542681 0.290889,-0.746315 -0.106751,-0.323468 -0.308373,-0.321642 -0.958502,0.0087 -0.467844,0.23771 -0.557781,0.22216 -1.075567,-0.185962 -0.919344,-0.724635 -1.097135,-0.807015 -1.823243,-0.844798 -0.826154,-0.04299 -1.631042,0.18106 -1.996994,0.55589 -0.246166,0.252136 -0.289476,0.579059 -0.103144,0.778529 0.155281,0.166232 0.43008,0.119228 0.782291,-0.133812 0.583093,-0.41891 1.395456,-0.458646 1.924696,-0.09415 0.194556,0.133998 0.334157,0.320287 0.450936,0.601756 0.104539,0.251975 0.21113,0.37172 0.370191,0.415882 0.191327,0.05312 0.960845,0.03708 1.311482,-0.02734 z"
     id="path3258"
     inkscape:connector-curvature="0" />
  <path
     inkscape:connector-curvature="0"
     style="fill:#000000"
     d="m 52.60548,36.65625 c -0.872866,0.04803 -1.630051,0.263101 -2.34375,0.6875 -0.592656,0.352421 -1.437782,1.077119 -1.65625,1.40625 -0.222341,0.334975 -0.255434,0.698455 -0.09375,1.03125 0.137939,0.28393 0.820452,0.907753 1.1875,1.09375 0.179428,0.09092 0.16211,0.11865 0.3125,0.03125 0.401751,-0.233387 1.197692,-0.676422 1.40625,-0.78125 1.315981,-0.661467 2.783723,-0.830581 4.375,-0.46875 0.83553,0.189987 1.382269,0.170314 1.6875,-0.0625 0.290828,-0.221825 0.245501,-0.692681 -0.125,-1.25 -0.63557,-0.956025 -1.98076,-1.545397 -3.84375,-1.6875 -0.31651,-0.02414 -0.615295,-0.01601 -0.90625,0 z m -0.34375,0.90625 c 0.03618,0.03618 0.21875,0.838742 0.21875,0.96875 0,0.150722 -0.09013,0.220748 -0.3125,0.25 -0.330587,0.04349 -0.614706,0.154062 -1.4375,0.5625 -0.620825,0.308178 -0.737229,0.358047 -0.9375,0.34375 -0.121596,-0.0087 -0.160391,-0.0041 -0.25,-0.09375 -0.07585,-0.07585 -0.125,-0.155967 -0.125,-0.21875 0,-0.179981 0.409975,-0.614717 0.84375,-0.90625 0.710954,-0.477826 1.891544,-1.014702 2,-0.90625 z m 3.625,0.8125 c 0.09446,1.91e-4 0.223012,7.6e-4 0.3125,0.03125 0.232413,0.07919 0.466171,0.371796 0.40625,0.46875 -0.02506,0.04055 -0.215227,-0.01459 -0.46875,-0.09375 -0.32512,-0.101511 -0.523005,-0.271969 -0.4375,-0.375 0.02511,-0.03025 0.09304,-0.03144 0.1875,-0.03125 z"
     id="path3256" />
  <path
     style="fill:#000000"
     d="m 58.633684,39.965224 c 0.0112,-0.0112 0.02036,-0.0595 0.02036,-0.107338 0,-0.131835 -0.15199,-0.216899 -0.349372,-0.195537 -0.08297,0.009 -0.170137,0.03561 -0.193708,0.05918 -0.03677,0.03677 -0.02836,0.05391 0.05938,0.120819 0.162643,0.124057 0.399382,0.18684 0.463344,0.122879 z"
     id="path3250"
     inkscape:connector-curvature="0" />
  <path
     style="fill:#000000"
     d="m 59.323454,39.356804 c 0.185625,-0.04991 0.320503,-0.125015 0.425816,-0.237117 0.143511,-0.152761 0.02514,-0.243669 -0.438602,-0.336846 -0.337175,-0.06774 -1.242314,-0.206877 -1.256104,-0.193083 -0.0062,0.0062 0.212028,0.110338 0.484975,0.231399 0.488352,0.216603 0.66659,0.317122 0.628981,0.354728 -0.01049,0.01049 -0.170936,0.05641 -0.356549,0.102051 -0.185619,0.04564 -0.347476,0.09297 -0.359685,0.105179 -0.04176,0.04176 0.701471,0.01931 0.871168,-0.02631 z"
     id="path3248"
     inkscape:connector-curvature="0" />
  <path
     style="fill:#000000"
     d="m 44.123468,37.767913 c 0.02905,-1.332496 -0.122128,-2.048768 -0.470428,-2.228879 -0.09806,-0.05071 -0.177612,-0.02769 -0.177612,0.0514 0,0.03147 0.06237,0.177741 0.138597,0.325045 0.180629,0.34906 0.291354,0.7963 0.395081,1.5958 0.04464,0.344052 0.0867,0.63109 0.09348,0.637862 0.0068,0.0068 0.01617,-0.16478 0.02089,-0.381224 z"
     id="path3246"
     inkscape:connector-curvature="0" />
  <path
     style="fill:#000000"
     d="m 57.890532,36.84465 c 0,-0.193056 -0.613103,-0.884973 -1.35292,-1.526842 -0.647055,-0.561384 -1.097867,-0.816583 -1.924634,-1.089528 -0.683678,-0.225707 -1.275373,-0.33651 -2.112838,-0.39566 -0.134375,-0.0095 -0.343949,-0.02506 -0.465711,-0.03461 -0.386671,-0.0303 -1.965329,-0.01843 -2.288305,0.01721 -0.493298,0.05444 -0.724546,0.147699 -0.508353,0.205021 0.111419,0.02954 0.762948,0.03089 1.628451,0.0034 1.24589,-0.03961 2.381762,0.08934 3.420347,0.388275 1.034097,0.297643 1.662236,0.706378 2.779371,1.808542 0.427856,0.422119 0.731439,0.68056 0.799429,0.68056 0.01384,0 0.02516,-0.02535 0.02516,-0.05635 z"
     id="path3244"
     inkscape:connector-curvature="0" />
  <path
     style="fill:#000000"
     d="m 49.075481,36.476749 c 0.03866,-0.662048 0.182272,-1.062069 0.613257,-1.708096 0.229395,-0.343846 0.285039,-0.461513 0.247213,-0.522714 -0.03474,-0.05621 -0.241188,0.07558 -0.418645,0.267252 -0.202892,0.219147 -0.390253,0.589989 -0.480252,0.950584 -0.07324,0.293431 -0.07992,0.632545 -0.022,1.116546 l 0.03655,0.305406 0.02387,-0.408978 z"
     id="path3242"
     inkscape:connector-curvature="0" />
  <path
     style="fill:#000000"
     d="m 38.221464,36.740658 c 0.03261,-0.07139 0.100646,-0.267753 0.15119,-0.436366 0.156514,-0.522133 0.390123,-0.802584 1.020016,-1.224526 0.44035,-0.29498 0.821932,-0.483648 1.105967,-0.54684 0.197259,-0.04389 0.321389,-0.05009 0.685004,-0.03426 0.859008,0.0374 2.097962,0.198097 2.744112,0.355913 0.41771,0.102024 0.53149,0.111763 0.582839,0.04989 0.145506,-0.175324 -0.456415,-0.358346 -1.661245,-0.505117 -1.451769,-0.176856 -2.125772,-0.208135 -2.489046,-0.115508 -0.242751,0.0619 -0.803017,0.340661 -1.169458,0.581867 -0.508037,0.334422 -0.890035,0.766617 -1.036229,1.172415 -0.09864,0.273803 -0.113935,0.832335 -0.02279,0.832335 0.0167,0 0.05703,-0.05841 0.08964,-0.129799 z"
     id="path3240"
     inkscape:connector-curvature="0" />
  <path
     inkscape:connector-curvature="0"
     d="m 60.652334,32.652788 c 0,0 0.60369,0.626048 0.754612,1.531584 0,0 0.145333,0.894355 -0.20123,1.688095 0,0 -0.318614,0.810509 -1.106764,1.319174 0,0 -0.776972,0.508665 -1.648968,0.486306 0,0 -0.80492,0.01118 -1.520404,-0.424819 0,0 -0.704304,-0.435998 -1.106764,-1.168252 0,0 -0.41364,-0.726663 -0.318614,-1.676916 0,0 0.09502,-0.950252 0.642817,-1.581891 0,0 0.41364,-0.575741 1.235329,-0.939073 0,0 0.855227,-0.318614 1.760761,-0.100615 0,0 0.905535,0.21241 1.509225,0.866407"
     id="path9518"
     style="fill:#e72235;fill-opacity:1;stroke:none" />
  <path
     inkscape:connector-curvature="0"
     d="m 52.955289,26.213431 c 0,0 0.749023,-0.20682 1.436558,0.04472 0,0 1.062047,0.430409 1.878146,1.565122 0,0 0.637228,0.894355 1.089996,2.179991 0,0 0.02795,0.117384 0.09502,0.268306 l 0.01677,0.195641 c 0,0 -0.02236,0.100614 -0.111794,0.128563 0,0 -0.469537,0.162102 -0.726664,0.285076 l -0.178871,0.04472 c 0,0 -0.100615,-0.01118 -0.139743,-0.08944 l -0.268306,-0.223589 c 0,0 -0.553383,-0.40246 -1.274457,-0.430408 0,0 -0.715484,-0.03354 -1.319174,0.318614 0,0 -0.676356,0.408049 -0.98938,1.095585 0,0 -0.301845,0.665176 -0.20123,1.442148 0,0 0.09502,0.558972 0.463947,1.050867 0,0 0.368921,0.497485 0.877586,0.737843 0,0 0.20682,0.100615 0.408049,0.145333 0,0 0.257128,0.0559 0.285076,0.229179 l 0.122974,0.642817 c 0,0 0.0559,0.195641 -0.20123,0.307435 0,0 -3.130243,1.050867 -4.617108,-0.19005 0,0 -0.989381,-0.944663 -0.894355,-2.677477 0,0 0.06149,-1.101175 0.648407,-2.873116 0,0 0.374511,-0.99497 0.950253,-1.872556 0,0 0.609279,-0.922304 1.37507,-1.615429 0,0 0.581331,-0.519844 1.274456,-0.709894"
     id="path9514"
     style="fill:#e72235;fill-opacity:1;stroke:none" />
  <path
     inkscape:connector-curvature="0"
     d="m 67.019025,32.887556 c 0,0 0.340973,0.07826 0.609279,0.385691 0,0 0.273897,0.301845 0.313025,0.648407 0,0 0.122974,0.922305 -0.08385,1.945223 0,0 -0.184461,0.911125 -0.60928,1.81107 0,0 -0.810509,1.442147 -1.604249,2.19676 0,0 -1.179431,1.117944 -2.459477,0.933483 0,0 -0.788151,-0.117384 -1.486866,-0.776971 0,0 -0.637228,-0.592511 -0.98938,-1.40302 0,0 -0.06708,-0.07267 -0.04472,-0.19564 0,0 0.01677,-0.117384 0.09502,-0.184461 l 0.296256,-0.223589 c 0,0 0.20123,-0.111794 0.374511,0.03913 0,0 0.441588,0.307435 0.983791,0.380101 0,0 0.570151,0.07267 1.045277,-0.139743 0,0 0.547793,-0.217999 0.916714,-0.726663 0,0 0.368922,-0.508665 0.40805,-1.101175 0,0 0.02795,-0.575741 -0.20123,-1.067637 0,0 -0.234768,-0.503074 -0.698715,-0.838458 0,0 -0.447178,-0.296255 -0.983791,-0.363331 0,0 -0.122974,-0.02236 -0.20123,-0.08944 0,0 -0.07826,-0.07267 -0.08944,-0.173282 l -0.150923,-0.614869 c 0,0 -0.01677,-0.234768 0.173282,-0.296255 0,0 1.045277,-0.352153 2.168811,-0.39687 0,0 1.173841,-0.05031 2.219119,0.251537"
     id="path9520"
     style="fill:#e72235;fill-opacity:1;stroke:none" />
  <path
     style="opacity:0.07999998;fill:#d9c6ed;fill-opacity:1;stroke:none"
     id="rect3256-3"
     inkscape:connector-curvature="0"
     d="m 14.89831,8.7395363 c -3.242433,0 -5.8437503,2.7674997 -5.8437503,6.1874997 l 0,49.0625 C 27.878614,50.130638 54.866224,40.195879 86.96081,42.208286 l 0,-27.28125 c 0,-3.420001 -2.63257,-6.1874997 -5.875,-6.1874997 l -66.1875,0 z" />
  <g
     id="layer1"
     style="display:inline">
    <path
       d="M 12,6 C 8.676,6 6,8.676 6,12 l 0,72 c 0,3.324 2.676,6 6,6 l 72,0 c 3.324,0 6,-2.676 6,-6 L 90,12 C 90,8.676 87.324,6 84,6 L 12,6 z m 5,7 62,0 c 2.216001,0 4,1.784 4,4 l 0,62 c 10e-7,2.216001 -1.784,4 -4,4 l -62,0 c -2.215999,10e-7 -4,-1.784 -4,-4 l 0,-62 c 0,-2.215999 1.784,-4 4,-4 z"
       inkscape:connector-curvature="0"
       id="rect2419"
       style="fill:url(#linearGradient4094);fill-opacity:1;fill-rule:nonzero;stroke:none" />
    <path
       d="M 12,6 C 8.676,6 6,8.676 6,12 l 0,2 0,68 0,2 c 0,0.334721 0.04135,0.6507 0.09375,0.96875 0.0487,0.295596 0.09704,0.596915 0.1875,0.875 0.00988,0.03038 0.020892,0.0636 0.03125,0.09375 0.098865,0.287771 0.2348802,0.547452 0.375,0.8125 0.1445918,0.273507 0.3156161,0.535615 0.5,0.78125 0.1843839,0.245635 0.3737765,0.473472 0.59375,0.6875 0.439947,0.428056 0.94291,0.814526 1.5,1.09375 0.278545,0.139612 0.5734731,0.246947 0.875,0.34375 -0.2562018,-0.100222 -0.4867109,-0.236272 -0.71875,-0.375 -0.00741,-0.0044 -0.023866,0.0045 -0.03125,0 -0.031933,-0.0193 -0.062293,-0.04251 -0.09375,-0.0625 -0.120395,-0.0767 -0.2310226,-0.163513 -0.34375,-0.25 -0.1061728,-0.0808 -0.2132809,-0.161112 -0.3125,-0.25 C 8.4783201,88.557317 8.3087904,88.373362 8.15625,88.1875 8.0486711,88.057245 7.9378561,87.922215 7.84375,87.78125 7.818661,87.74287 7.805304,87.69538 7.78125,87.65625 7.716487,87.553218 7.6510225,87.451733 7.59375,87.34375 7.4927417,87.149044 7.3880752,86.928049 7.3125,86.71875 7.30454,86.69694 7.288911,86.6782 7.28125,86.65625 7.2494249,86.5643 7.2454455,86.469419 7.21875,86.375 7.1884177,86.268382 7.1483606,86.171969 7.125,86.0625 7.0521214,85.720988 7,85.364295 7,85 L 7,83 7,15 7,13 C 7,10.218152 9.2181517,8 12,8 l 2,0 68,0 2,0 c 2.781848,0 5,2.218152 5,5 l 0,2 0,68 0,2 c 0,0.364295 -0.05212,0.720988 -0.125,1.0625 -0.04415,0.206893 -0.08838,0.397658 -0.15625,0.59375 -0.0077,0.02195 -0.0233,0.04069 -0.03125,0.0625 -0.06274,0.173739 -0.138383,0.367449 -0.21875,0.53125 -0.04158,0.0828 -0.07904,0.169954 -0.125,0.25 -0.0546,0.09721 -0.126774,0.18835 -0.1875,0.28125 -0.09411,0.140965 -0.204921,0.275995 -0.3125,0.40625 -0.143174,0.17445 -0.303141,0.346998 -0.46875,0.5 -0.01117,0.0102 -0.01998,0.02115 -0.03125,0.03125 -0.138386,0.125556 -0.285091,0.234436 -0.4375,0.34375 -0.102571,0.07315 -0.204318,0.153364 -0.3125,0.21875 -0.0074,0.0045 -0.02384,-0.0044 -0.03125,0 -0.232039,0.138728 -0.462548,0.274778 -0.71875,0.375 0.301527,-0.0968 0.596455,-0.204138 0.875,-0.34375 0.55709,-0.279224 1.060053,-0.665694 1.5,-1.09375 0.219973,-0.214028 0.409366,-0.441865 0.59375,-0.6875 0.184384,-0.245635 0.355408,-0.507743 0.5,-0.78125 0.14012,-0.265048 0.276135,-0.524729 0.375,-0.8125 0.01041,-0.03078 0.02133,-0.06274 0.03125,-0.09375 0.09046,-0.278085 0.1388,-0.579404 0.1875,-0.875 C 89.95865,84.6507 90,84.334721 90,84 l 0,-2 0,-68 0,-2 C 90,8.676 87.324,6 84,6 L 12,6 z"
       inkscape:connector-curvature="0"
       id="rect3728"
       style="opacity:0.5;fill:url(#linearGradient4096);fill-opacity:1;fill-rule:nonzero;stroke:none" />
    <path
       d="m 17,12 c -2.752703,0 -5,2.247297 -5,5 l 0,62 c 0,2.752703 2.247298,5 5,5 l 62,0 c 2.752703,0 5.000001,-2.247297 5,-5 l 0,-62 c 0,-2.752703 -2.247297,-5 -5,-5 l -62,0 z m 0,2 62,0 c 1.679298,0 3,1.320703 3,3 l 0,62 c 10e-7,1.679297 -1.320703,3 -3,3 l -62,0 c -1.679296,0 -3,-1.320703 -3,-3 l 0,-62 c 0,-1.679297 1.320703,-3 3,-3 z"
       inkscape:connector-curvature="0"
       id="rect3425"
       style="fill:url(#linearGradient4098);fill-opacity:1;fill-rule:nonzero;stroke:none" />
    <path
       d="M 12,90 C 8.676,90 6,87.324 6,84 L 6,82 6,14 6,12 c 0,-0.334721 0.04135,-0.6507 0.09375,-0.96875 0.0487,-0.295596 0.09704,-0.596915 0.1875,-0.875 C 6.29113,10.12587 6.302142,10.09265 6.3125,10.0625 6.411365,9.774729 6.5473802,9.515048 6.6875,9.25 6.8320918,8.976493 7.0031161,8.714385 7.1875,8.46875 7.3718839,8.223115 7.5612765,7.995278 7.78125,7.78125 8.221197,7.353194 8.72416,6.966724 9.28125,6.6875 9.559795,6.547888 9.8547231,6.440553 10.15625,6.34375 9.9000482,6.443972 9.6695391,6.580022 9.4375,6.71875 c -0.00741,0.0044 -0.023866,-0.0045 -0.03125,0 -0.031933,0.0193 -0.062293,0.04251 -0.09375,0.0625 -0.120395,0.0767 -0.2310226,0.163513 -0.34375,0.25 -0.1061728,0.0808 -0.2132809,0.161112 -0.3125,0.25 C 8.4783201,7.442683 8.3087904,7.626638 8.15625,7.8125 8.0486711,7.942755 7.9378561,8.077785 7.84375,8.21875 7.818661,8.25713 7.805304,8.30462 7.78125,8.34375 7.716487,8.446782 7.6510225,8.548267 7.59375,8.65625 7.4927417,8.850956 7.3880752,9.071951 7.3125,9.28125 7.30454,9.30306 7.288911,9.3218 7.28125,9.34375 7.2494249,9.4357 7.2454455,9.530581 7.21875,9.625 7.1884177,9.731618 7.1483606,9.828031 7.125,9.9375 7.0521214,10.279012 7,10.635705 7,11 l 0,2 0,68 0,2 c 0,2.781848 2.2181517,5 5,5 l 2,0 68,0 2,0 c 2.781848,0 5,-2.218152 5,-5 l 0,-2 0,-68 0,-2 C 89,10.635705 88.94788,10.279012 88.875,9.9375 88.83085,9.730607 88.78662,9.539842 88.71875,9.34375 88.71105,9.3218 88.69545,9.30306 88.6875,9.28125 88.62476,9.107511 88.549117,8.913801 88.46875,8.75 88.42717,8.6672 88.38971,8.580046 88.34375,8.5 88.28915,8.40279 88.216976,8.31165 88.15625,8.21875 88.06214,8.077785 87.951329,7.942755 87.84375,7.8125 87.700576,7.63805 87.540609,7.465502 87.375,7.3125 87.36383,7.3023 87.35502,7.29135 87.34375,7.28125 87.205364,7.155694 87.058659,7.046814 86.90625,6.9375 86.803679,6.86435 86.701932,6.784136 86.59375,6.71875 c -0.0074,-0.0045 -0.02384,0.0044 -0.03125,0 -0.232039,-0.138728 -0.462548,-0.274778 -0.71875,-0.375 0.301527,0.0968 0.596455,0.204138 0.875,0.34375 0.55709,0.279224 1.060053,0.665694 1.5,1.09375 0.219973,0.214028 0.409366,0.441865 0.59375,0.6875 0.184384,0.245635 0.355408,0.507743 0.5,0.78125 0.14012,0.265048 0.276135,0.524729 0.375,0.8125 0.01041,0.03078 0.02133,0.06274 0.03125,0.09375 0.09046,0.278085 0.1388,0.579404 0.1875,0.875 C 89.95865,11.3493 90,11.665279 90,12 l 0,2 0,68 0,2 c 0,3.324 -2.676,6 -6,6 l -72,0 z"
       inkscape:connector-curvature="0"
       id="path3615"
       style="opacity:0.4;fill:url(#radialGradient4100);fill-opacity:1;fill-rule:nonzero;stroke:none" />
    <rect
       width="66"
       height="66"
       rx="12"
       ry="12"
       x="15"
       y="15"
       clip-path="url(#clipPath3613-5)"
       id="rect3171"
       style="opacity:0.1;fill:url(#linearGradient4102);fill-opacity:1;fill-rule:nonzero;stroke:#ffffff;stroke-width:0.5;stroke-linecap:round;stroke-linejoin:miter;stroke-miterlimit:4;stroke-opacity:1;stroke-dasharray:none;stroke-dashoffset:0;filter:url(#filter3794-2)" />
  </g>
</svg>
