<?xml version="1.0" encoding="UTF-8" standalone="no"?>
<!-- Created with Inkscape (http://www.inkscape.org/) -->

<svg
   xmlns:dc="http://purl.org/dc/elements/1.1/"
   xmlns:cc="http://creativecommons.org/ns#"
   xmlns:rdf="http://www.w3.org/1999/02/22-rdf-syntax-ns#"
   xmlns:svg="http://www.w3.org/2000/svg"
   xmlns="http://www.w3.org/2000/svg"
   xmlns:xlink="http://www.w3.org/1999/xlink"
   xmlns:sodipodi="http://sodipodi.sourceforge.net/DTD/sodipodi-0.dtd"
   xmlns:inkscape="http://www.inkscape.org/namespaces/inkscape"
   version="1.0"
   width="250"
   height="250"
   id="svg2"
   sodipodi:version="0.32"
   inkscape:version="0.47pre4 r22446"
   sodipodi:docname="poshuku.svg"
   inkscape:output_extension="org.inkscape.output.svg.inkscape">
  <metadata
     id="metadata4859">
    <rdf:RDF>
      <cc:Work
         rdf:about="">
        <dc:format>image/svg+xml</dc:format>
        <dc:type
           rdf:resource="http://purl.org/dc/dcmitype/StillImage" />
      </cc:Work>
    </rdf:RDF>
  </metadata>
  <sodipodi:namedview
     inkscape:window-height="942"
     inkscape:window-width="1280"
     inkscape:pageshadow="2"
     inkscape:pageopacity="0.0"
     guidetolerance="10.0"
     gridtolerance="10.0"
     objecttolerance="10.0"
     borderopacity="1.0"
     bordercolor="#666666"
     pagecolor="#ffffff"
     id="base"
     showgrid="false"
     inkscape:zoom="2.7897686"
     inkscape:cx="122.88742"
     inkscape:cy="138.77528"
     inkscape:window-x="0"
     inkscape:window-y="25"
     inkscape:current-layer="svg2"
     showguides="true"
     inkscape:guide-bbox="true" />
  <defs
     id="defs4">
    <linearGradient
       id="linearGradient3304">
      <stop
         id="stop3306"
         style="stop-color:#ff8313;stop-opacity:1"
         offset="0" />
      <stop
         id="stop3308"
         style="stop-color:#ffe400;stop-opacity:1"
         offset="1" />
    </linearGradient>
    <linearGradient
       id="linearGradient3284">
      <stop
         id="stop3286"
         style="stop-color:#ffffff;stop-opacity:0.78431374"
         offset="0" />
      <stop
         id="stop3288"
         style="stop-color:#ffffff;stop-opacity:0.11764706"
         offset="1" />
    </linearGradient>
    <linearGradient
       id="linearGradient3170">
      <stop
         id="stop3172"
         style="stop-color:#323232;stop-opacity:1"
         offset="0" />
      <stop
         id="stop3216"
         style="stop-color:#696969;stop-opacity:1"
         offset="0.32967147" />
      <stop
         id="stop3218"
         style="stop-color:#7f7f7f;stop-opacity:1"
         offset="0.69190311" />
      <stop
         id="stop3212"
         style="stop-color:#b4b4b4;stop-opacity:1"
         offset="1" />
    </linearGradient>
    <linearGradient
       x1="325.5"
       y1="45"
       x2="325.5"
       y2="135"
       id="linearGradient3429"
       xlink:href="#linearGradient3284"
       gradientUnits="userSpaceOnUse"
       gradientTransform="matrix(1.2146893,0,0,1.2146893,-270.38136,-32.302267)" />
    <linearGradient
       x1="322"
       y1="215"
       x2="322"
       y2="43.264011"
       id="linearGradient3432"
       xlink:href="#linearGradient3170"
       gradientUnits="userSpaceOnUse"
       gradientTransform="matrix(1.2146893,0,0,1.2146893,-270.38136,-32.302267)" />
    <linearGradient
       inkscape:collect="always"
       xlink:href="#linearGradient3304"
       id="linearGradient3522"
       x1="123.69058"
       y1="200.8002"
       x2="123.69058"
       y2="64.998772"
       gradientUnits="userSpaceOnUse" />
  </defs>
  <rect
     width="205.28249"
     height="205.28249"
     rx="36.440678"
     ry="36.440678"
     x="22.358757"
     y="22.358751"
     id="rect3168"
     style="fill:url(#linearGradient3432);fill-opacity:1;stroke:#000000;stroke-width:9.71751404;stroke-linejoin:round;stroke-miterlimit:4;stroke-dasharray:none;stroke-opacity:1" />
  <path
     sodipodi:type="arc"
     style="opacity:1;fill:url(#linearGradient3522);fill-opacity:1;stroke:#3c3c3c;stroke-width:4;stroke-linecap:round;stroke-linejoin:round;stroke-miterlimit:4;stroke-dasharray:none;stroke-dashoffset:7.99999924000000018;stroke-opacity:1"
     id="path2706"
     sodipodi:cx="123.69058"
     sodipodi:cy="132.89949"
     sodipodi:rx="65.900719"
     sodipodi:ry="65.900719"
     d="M 189.5913,132.89949 A 65.900719,65.900719 0 1 1 57.789864,132.89949 A 65.900719,65.900719 0 1 1 189.5913,132.89949 z"
     transform="translate(0.5069286,-7.1524296)" />
  <path
     style="fill:#3c3c3c;fill-rule:evenodd;stroke:none;stroke-width:1px;stroke-linecap:butt;stroke-linejoin:miter;stroke-opacity:1;fill-opacity:1"
     d="M 73.25 83.96875 C 68.846356 89.329914 65.298764 95.391165 62.75 101.96875 C 74.240524 103.59241 86.23166 102.20946 88.71875 96.40625 C 90.959575 91.177658 79.469194 86.214518 73.25 83.96875 z "
     id="path3478" />
  <path
     style="fill:#3c3c3c;fill-rule:evenodd;stroke:none;stroke-width:1px;stroke-linecap:butt;stroke-linejoin:miter;stroke-opacity:1;fill-opacity:1"
     d="M 72.0625 128.90625 C 69.956821 128.92367 67.945335 129.91885 66.0625 130.78125 C 63.605199 132.03265 61.257251 133.46699 58.96875 135 C 59.802557 140.9212 61.418758 146.59833 63.71875 151.90625 C 64.466753 151.66995 65.23574 151.44064 65.96875 151.15625 C 69.940457 149.36383 70.904821 147.1579 72.71875 143.25 C 74.245553 140.31713 75.351469 136.67366 75.59375 133.28125 C 75.673267 131.55591 74.865174 129.3248 72.96875 128.96875 C 72.664382 128.92819 72.363311 128.90376 72.0625 128.90625 z "
     id="path3482" />
  <path
     style="fill:#3c3c3c;fill-rule:evenodd;stroke:none;stroke-width:1px;stroke-linecap:butt;stroke-linejoin:miter;stroke-opacity:1;fill-opacity:1"
     d="M 159.75,70.28125 C 156.72728,73.332332 153.09375,77.520161 153.09375,80.1875 C 153.09375,84.749859 142.94075,77.132071 135.84375,81.1875 C 128.74675,85.242933 125.72229,86.246607 127.75,88.78125 C 129.77772,91.315891 135.34375,89.3125 135.34375,89.3125 C 135.34374,89.312499 129.76357,95.892393 119.625,96.90625 C 109.48642,97.920108 104.51498,99.772997 104.4375,104 C 104.40756,105.63364 118.61143,102.48275 128.75,106.03125 C 138.88857,109.57975 139.40625,106.03464 139.40625,103.5 C 139.40626,100.96535 145.50354,96.909785 147.53125,98.9375 C 149.55895,100.96521 144.97215,112.6076 142.4375,111.59375 C 139.90285,110.57989 131.15342,115.45319 125.5772,114.43934 C 120.00099,113.42548 109.18775,108.99746 101.90625,108.46506 C 96.850467,108.0954 83.452891,117.511 91.555176,132.45036 C 100.81632,149.52648 114.57311,139.98261 120.65625,138.96875 C 126.7394,137.95488 128.77093,168.389 131.8125,171.9375 C 134.85407,175.48601 141.93764,179.03818 146.5,178.53125 C 151.06236,178.02433 155.12175,138.96861 162.21875,134.40625 C 169.31575,129.8439 154.09714,135.92704 151.5625,134.40625 C 149.02786,132.88547 154.11482,126.8125 161.71875,126.8125 C 169.32267,126.8125 180.46536,127.3265 183,130.875 C 184.35958,132.77841 187.44001,128.39695 190.03125,123.9375 C 189.42292,101.40475 177.52193,81.700141 159.75,70.28125 z"
     id="path3485"
     sodipodi:nodetypes="cssscsssssssssssssssscc" />
  <path
     d="M 58.799436,22.358751 C 38.6113,22.358751 22.358757,38.611294 22.358757,58.79943 L 22.358757,106.47599 C 46.760881,121.86573 83.700858,131.68079 125,131.68079 C 166.29914,131.68079 203.23912,121.86573 227.64125,106.47599 L 227.64125,58.79943 C 227.64125,38.611294 211.38871,22.358751 191.20057,22.358751 L 58.799436,22.358751 z"
     id="rect3404"
     style="fill:url(#linearGradient3429);fill-opacity:1;stroke:none;stroke-width:8;stroke-linejoin:round;stroke-miterlimit:4;stroke-dasharray:none;stroke-opacity:1" />
</svg>
