<?xml version="1.0" encoding="UTF-8"?>
<svg width="78.5" height="78.5" version="1.0" viewBox="-.3 0 78.5 78.5" xmlns="http://www.w3.org/2000/svg" xmlns:xlink="http://www.w3.org/1999/xlink">
 <defs>
  <radialGradient id="a" cx="47.1" cy="78.3" r="39" gradientTransform="matrix(1.38 -1.04e-8 0 1.31 -17.1 -23.7)" gradientUnits="userSpaceOnUse">
   <stop stop-color="#42394b" offset="0"/>
   <stop offset="1"/>
  </radialGradient>
  <linearGradient id="b" x1="-68.1" x2="-67.9" y1="7.42" y2="66.6" gradientTransform="translate(116 11.1)" gradientUnits="userSpaceOnUse">
   <stop stop-color="#48f200" offset="0"/>
   <stop stop-color="#2c6603" offset="1"/>
  </linearGradient>
 </defs>
 <g transform="translate(-9.04 -8.74)" opacity=".45">
  <path d="m17.9 14.5c-1.66 0-3 1.34-3 3v62c0 1.66 1.34 3 3 3h62c1.66 0 3-1.34 3-3v-62c0-1.66-1.34-3-3-3zm0 0.969h62c1.14 0 2.03 0.891 2.03 2.03v62c0 1.14-0.891 2.03-2.03 2.03h-62c-1.14 0-2.03-0.891-2.03-2.03v-62c0-1.14 0.891-2.03 2.03-2.03z" color="#000000" opacity=".6"/>
  <rect x="9.04" y="8.74" width="77.9" height="78.5" rx="5.85" ry="6.17" fill="url(#a)"/>
  <path d="m19.9 13.5c-3.29 0-6 2.71-6 6v58c0 3.29 2.71 6 6 6h58c3.29 0 6-2.71 6-6v-58c0-3.29-2.71-6-6-6zm0 4h58c1.14 0 2 0.857 2 2v58c0 1.14-0.857 2-2 2h-58c-1.14 0-2-0.857-2-2v-58c0-1.14 0.857-2 2-2z" color="#000000" opacity=".15" style="text-decoration-line:none;text-indent:0;text-transform:none"/>
  <path d="m17.9 14.5c-1.66 0-3 1.34-3 3v62c0 1.66 1.34 3 3 3h62c1.66 0 3-1.34 3-3v-62c0-1.66-1.34-3-3-3zm0 1.94h62c0.618 0 1.06 0.444 1.06 1.06v62c0 0.618-0.444 1.06-1.06 1.06h-62c-0.618 0-1.06-0.444-1.06-1.06v-62c0-0.618 0.444-1.06 1.06-1.06z" color="#000000" opacity=".3"/>
  <rect x="18" y="18" width="60" height="60" rx="10" ry="10" fill="url(#b)"/>
  <path d="m14.9 8.74c-3.24 0-5.84 2.77-5.84 6.19v49.1c18.8-13.9 45.8-23.8 77.9-21.8v-27.3c0-3.42-2.63-6.19-5.88-6.19z" fill="#d9c6ed" opacity=".08"/>
 </g>
</svg>
