<?xml version="1.0" encoding="UTF-8" standalone="no"?>
<!-- Created with Inkscape (http://www.inkscape.org/) -->
<svg
   xmlns:dc="http://purl.org/dc/elements/1.1/"
   xmlns:cc="http://creativecommons.org/ns#"
   xmlns:rdf="http://www.w3.org/1999/02/22-rdf-syntax-ns#"
   xmlns:svg="http://www.w3.org/2000/svg"
   xmlns="http://www.w3.org/2000/svg"
   xmlns:sodipodi="http://sodipodi.sourceforge.net/DTD/sodipodi-0.dtd"
   xmlns:inkscape="http://www.inkscape.org/namespaces/inkscape"
   width="48"
   height="48"
   id="svg2"
   sodipodi:version="0.32"
   inkscape:version="0.46"
   version="1.0"
   sodipodi:docname="clear.svg"
   inkscape:output_extension="org.inkscape.output.svg.inkscape">
  <defs
     id="defs4">
    <inkscape:perspective
       sodipodi:type="inkscape:persp3d"
       inkscape:vp_x="0 : 526.18109 : 1"
       inkscape:vp_y="0 : 1000 : 0"
       inkscape:vp_z="744.09448 : 526.18109 : 1"
       inkscape:persp3d-origin="372.04724 : 350.78739 : 1"
       id="perspective10" />
  </defs>
  <sodipodi:namedview
     id="base"
     pagecolor="#ffffff"
     bordercolor="#666666"
     borderopacity="1.0"
     gridtolerance="10000"
     guidetolerance="10"
     objecttolerance="10"
     inkscape:pageopacity="0.0"
     inkscape:pageshadow="2"
     inkscape:zoom="7.9195959"
     inkscape:cx="23.805937"
     inkscape:cy="24.778045"
     inkscape:document-units="px"
     inkscape:current-layer="layer1"
     showgrid="false"
     inkscape:window-width="640"
     inkscape:window-height="672"
     inkscape:window-x="0"
     inkscape:window-y="30" />
  <metadata
     id="metadata7">
    <rdf:RDF>
      <cc:Work
         rdf:about="">
        <dc:format>image/svg+xml</dc:format>
        <dc:type
           rdf:resource="http://purl.org/dc/dcmitype/StillImage" />
      </cc:Work>
    </rdf:RDF>
  </metadata>
  <g
     inkscape:label="Layer 1"
     inkscape:groupmode="layer"
     id="layer1">
    <path
       style="fill:#99ff66;fill-rule:evenodd;stroke:#000000;stroke-width:1px;stroke-linecap:butt;stroke-linejoin:miter;stroke-opacity:1"
       d="M 31.440998,3.5532879 C 32.095601,3.3896373 31.314729,4.898844 31.314729,5.573593 C 31.314729,6.4812909 31.128747,6.8225953 30.935922,7.5938981 C 30.709173,8.5008945 29.975604,9.4380991 29.294424,10.119279 C 28.704113,10.709591 28.132093,11.40788 27.652926,11.887046 C 27.042396,12.497576 26.831415,12.379343 28.158002,12.644661 C 29.0735,12.82776 29.512077,13.023468 30.683384,13.023468 C 32.57742,13.023468 34.471456,13.023468 36.365492,13.023468 C 37.544003,13.023468 38.722514,13.023468 39.901026,13.023468 C 41.309516,13.023468 40.691669,12.524241 40.65864,12.392123 C 40.569733,12.036495 38.902744,10.636226 38.638335,10.371818 C 36.866225,8.599708 36.271445,7.8287719 34.092648,6.5837456 C 33.325944,6.1456286 32.224043,5.3549623 31.819805,4.8159786 C 31.228805,4.0279784 31.838722,3.3828347 30.557115,3.9320951 C 28.477745,4.8232536 24.483223,3.9320951 22.223356,3.9320951 C 20.539768,3.9320951 18.856181,3.9320951 17.172593,3.9320951 C 16.28871,3.9320951 15.404826,3.9320951 14.520943,3.9320951 C 13.174073,3.9320951 11.827203,3.9320951 10.480333,3.9320951 C 8.776751,3.9320951 8.9651039,6.7236577 8.9651039,8.0989744 C 8.9651039,10.624356 8.9651039,13.149737 8.9651039,15.675118 C 8.9651039,17.148258 8.9651039,18.621397 8.9651039,20.094536 C 8.9651039,22.704097 8.9651039,25.313657 8.9651039,27.923218 C 8.9651039,29.396357 8.9651039,30.869496 8.9651039,32.342636 C 8.9651039,34.362941 8.9651039,36.383246 8.9651039,38.403551 C 8.9651039,38.613999 8.9651039,38.824448 8.9651039,39.034896 C 8.9651039,40.177115 8.8388348,40.872239 8.8388348,41.939085 C 8.8388348,42.542261 8.815589,43.294759 8.7125657,43.706852 C 8.3289572,45.241286 16.786163,44.338197 18.687822,44.338197 C 21.086934,44.338197 23.486047,44.338197 25.885159,44.338197 C 28.957706,44.338197 32.030254,44.338197 35.102801,44.338197 C 35.944595,44.338197 36.786389,44.338197 37.628182,44.338197 C 38.421508,44.338197 39.131796,44.372668 39.774757,44.211928 C 40.180361,44.110527 40.089408,42.259864 40.153564,41.939085 C 40.221632,41.598744 40.321922,41.26565 40.406102,40.928932 C 40.598103,40.160928 40.406102,39.087988 40.406102,38.277282 C 40.406102,35.625631 40.406102,32.973981 40.406102,30.32233 C 40.406102,28.596653 40.406102,26.870976 40.406102,25.145299 C 40.406102,23.58798 40.406102,22.030662 40.406102,20.473343 C 40.406102,19.757818 40.406102,19.042294 40.406102,18.326769 C 40.406102,17.356352 40.532371,16.421966 40.532371,15.42258 C 40.532371,14.533995 40.65864,14.063279 40.65864,13.276006 C 40.65864,13.065558 40.65864,12.855109 40.65864,12.644661"
       id="path2389" />
  </g>
</svg>
