<?xml version="1.0" encoding="UTF-8" standalone="no"?>
<!-- Created with Inkscape (http://www.inkscape.org/) -->
<svg
   xmlns:dc="http://purl.org/dc/elements/1.1/"
   xmlns:cc="http://creativecommons.org/ns#"
   xmlns:rdf="http://www.w3.org/1999/02/22-rdf-syntax-ns#"
   xmlns:svg="http://www.w3.org/2000/svg"
   xmlns="http://www.w3.org/2000/svg"
   xmlns:sodipodi="http://sodipodi.sourceforge.net/DTD/sodipodi-0.dtd"
   xmlns:inkscape="http://www.inkscape.org/namespaces/inkscape"
   version="1.0"
   width="32"
   height="32"
   id="svg2"
   sodipodi:version="0.32"
   inkscape:version="0.46"
   sodipodi:docname="close.svg"
   inkscape:output_extension="org.inkscape.output.svg.inkscape">
  <metadata
     id="metadata2526">
    <rdf:RDF>
      <cc:Work
         rdf:about="">
        <dc:format>image/svg+xml</dc:format>
        <dc:type
           rdf:resource="http://purl.org/dc/dcmitype/StillImage" />
      </cc:Work>
    </rdf:RDF>
  </metadata>
  <sodipodi:namedview
     inkscape:window-height="672"
     inkscape:window-width="640"
     inkscape:pageshadow="2"
     inkscape:pageopacity="0.0"
     guidetolerance="10.0"
     gridtolerance="10.0"
     objecttolerance="10.0"
     borderopacity="1.0"
     bordercolor="#666666"
     pagecolor="#ffffff"
     id="base"
     showgrid="false"
     inkscape:zoom="14.5625"
     inkscape:cx="17.563933"
     inkscape:cy="14.662113"
     inkscape:window-x="374"
     inkscape:window-y="30"
     inkscape:current-layer="svg2" />
  <defs
     id="defs4">
    <inkscape:perspective
       sodipodi:type="inkscape:persp3d"
       inkscape:vp_x="0 : 16 : 1"
       inkscape:vp_y="0 : 1000 : 0"
       inkscape:vp_z="32 : 16 : 1"
       inkscape:persp3d-origin="16 : 10.666667 : 1"
       id="perspective2528" />
  </defs>
  <g
     id="layer1"
     style="stroke:#ffffff">
    <path
       d="M 26.122507,2.5840216 C 24.588792,2.4479957 23.668487,3.8419341 23.045403,5.0245142 C 22.139789,6.9136533 19.815802,7.1220638 18.443092,8.4994601 C 17.758801,9.529082 17.675673,10.813724 16.481782,11.507305 C 14.192304,13.551333 11.025671,14.927228 9.8251807,17.943837 C 6.7943042,18.635273 6.1963448,22.341893 3.5253743,23.571674 C 2.4256754,24.785883 2.7057037,26.504857 2.0288053,27.893175 C 1.4467046,28.55011 0.67446245,31.411113 2.2958656,29.925492 C 4.5674589,27.905809 6.3637342,25.3842 8.8071211,23.555756 C 12.540271,20.201424 15.959128,16.5028 19.850091,13.323605 C 22.131435,10.060135 25.625303,7.9404846 28.149401,4.8941377 C 27.328694,5.3868999 26.563861,5.0706018 27.631672,4.3772485 C 28.568177,3.4596421 29.839459,2.7902127 30.476544,1.6262277 C 29.37266,1.1629508 27.978347,2.1062602 26.81414,2.377169 C 26.583596,2.4461198 26.353051,2.5150707 26.122507,2.5840216 z M 22.506966,6.5161343 C 21.835789,6.6203921 21.824295,5.5699005 22.506966,6.5161343 z M 22.287842,6.5898614 C 22.057432,6.7389583 21.880666,6.0688352 22.287842,6.5898614 z M 22.096109,6.6390128 C 21.706118,7.1010676 21.905094,6.2046474 22.096109,6.6390128 z M 16.837139,12.045668 C 15.608844,11.72444 17.858043,11.251286 16.837139,12.045668 z M 15.221103,17.304869 C 13.468885,17.155078 13.598721,14.936488 15.345683,15.031376 C 16.822799,15.095107 15.664199,16.752818 15.221103,17.304869 z M 13.112036,19.344652 C 12.150692,18.744993 9.7744196,21.068772 10.322958,18.965275 C 10.179191,18.058705 11.607117,19.112345 10.91842,17.971533 C 11.127583,17.412196 12.610259,19.01308 13.112036,19.344652 z"
       id="path2383"
       style="fill:#ff0000;fill-rule:evenodd;stroke:#ffffff;stroke-width:0.83023809999999998px;stroke-linecap:butt;stroke-linejoin:miter;stroke-opacity:1" />
    <path
       d="M 3.8266695,2.5594456 C 2.0585494,2.5583933 1.2654271,4.5277216 2.9248763,5.5095821 C 4.4245247,7.0232875 6.4212041,8.042672 7.6373586,9.8255202 C 9.8011196,11.22605 10.716937,13.776133 12.536836,15.510842 C 13.715116,18.598213 17.913935,18.672763 19.353858,21.554151 C 19.544465,23.263596 20.85872,24.532578 22.341367,25.265244 C 23.797216,25.916209 25.043104,26.951784 26.497727,27.572202 C 27.495171,28.275213 29.969168,28.273594 28.766332,26.489345 C 27.262538,23.923907 25.123603,21.763499 22.845876,19.874823 C 18.791043,16.297184 15.172914,12.261984 11.386438,8.4084637 C 10.018429,6.389375 8.8709408,3.8671285 6.371432,3.0436974 C 5.5588072,2.7819211 4.7047866,2.2388992 3.8266695,2.5594456 z"
       id="path2385"
       style="fill:#ff0000;fill-rule:evenodd;stroke:#ffffff;stroke-width:0.83023809999999998px;stroke-linecap:butt;stroke-linejoin:miter;stroke-opacity:1" />
    <path
       d="M 10.267857,19.232143 C 10.172652,18.861211 11.598246,18.738916 11.964286,18.607143"
       id="path2435"
       style="fill:none;fill-rule:evenodd;stroke:#ffffff;stroke-width:1px;stroke-linecap:butt;stroke-linejoin:miter;stroke-opacity:1" />
  </g>
</svg>
