<?xml version="1.0"?>
<!DOCTYPE svg PUBLIC "-//W3C//DTD SVG 1.0//EN"
	"http://www.w3.org/TR/2001/REC-SVG-20010904/DTD/svg10.dtd">
<svg xmlns:x="http://ns.adobe.com/Extensibility/1.0/"
	xmlns:i="http://ns.adobe.com/AdobeIllustrator/10.0/" xmlns:graph=""
	xmlns="http://www.w3.org/2000/svg" xmlns:xlink="http://www.w3.org/1999/xlink"
	xmlns:a="http://ns.adobe.com/AdobeSVGViewerExtensions/3.0/" width="116"
	height="125" viewBox="0.448 -0.276 116 125" overflow="visible"
	enable-background="new 0.448 -0.276 116 125" xml:space="preserve">
	<g id="Layer_1_2_">
		<path
			d="M98.448 112.974 C98.448 119.463 77.405 124.724 51.448 124.724 C25.49 124.724 4.448
				119.463 4.448 112.974 C4.448 106.485 25.49 101.224 51.448 101.224 C77.405
				101.224 98.448 106.485 98.448 112.974 z"
			 style="opacity:0.2"/>
		<g>
			<path
				d="M0.557 75.031 C5.016 104.106 32.202 124.061 61.277 119.604 C90.353 115.145 110.31
					87.959 105.851 58.883 C101.393 29.807 74.207 9.851 45.13 14.311 C16.055 18.769
					-3.901 45.954 0.557 75.031 z"/>
			<linearGradient id="XMLID_1_" gradientUnits="userSpaceOnUse" x1="87.3125"
				y1="125.986" x2="61.9029" y2="81.7544">
				<stop offset="0" style="stop-color:rgb(255,255,255)"/>
				<stop offset="1" style="stop-color:rgb(0,0,0)"/>
				<a:midPointStop offset="0" style="stop-color:#FFFFFF"/>
				<a:midPointStop offset="0.5" style="stop-color:#FFFFFF"/>
				<a:midPointStop offset="1" style="stop-color:#000000"/>
			</linearGradient>
			<path
				d="M96.844 58.252 C106.303 73.519 97.972 95.802 78.24 108.028 C58.509 120.25 34.846
					117.784 25.39 102.517 C15.932 87.247 24.263 64.964 43.994 52.741 C63.725 40.52
					87.387 42.984 96.844 58.252 z"
				 style="opacity:0.6;fill:url(#XMLID_1_)"/>
			<linearGradient id="XMLID_2_" gradientUnits="userSpaceOnUse" x1="147.211"
				y1="-32.9502" x2="162.345" y2="16.0821"
				gradientTransform="matrix(0.9884 -0.1516 0.1516 0.9884 -110.979 78.098)">
				<stop offset="0" style="stop-color:rgb(255,255,255)"/>
				<stop offset="1" style="stop-color:rgb(0,0,0)"/>
				<a:midPointStop offset="0" style="stop-color:#FFFFFF"/>
				<a:midPointStop offset="0.5" style="stop-color:#FFFFFF"/>
				<a:midPointStop offset="1" style="stop-color:#000000"/>
			</linearGradient>
			<path
				d="M72.888 24.176 C80.302 36.141 71.541 54.988 53.327 66.272 C35.11 77.555 14.335 77.005
					6.923 65.04 C-0.489 53.075 8.27 34.228 26.486 22.943 C44.701 11.661 65.477
					12.21 72.888 24.176 z"
				 style="fill:url(#XMLID_2_)"/>
			<g>
				<g>
					<g>
						<path
							d="M102.038 24.09 L93.337 35.945 C91.493 38.453 85.577 37.242 80.122 33.237 C74.667
								29.232 71.738 23.95 73.579 21.441 L82.281 9.59 z"/>
					</g>
					<path
						d="M82.281 9.59 C80.439 12.098 83.37 17.38 88.825 21.384 C94.278 25.388 100.194 26.6
							102.038 24.09 C103.881 21.582 100.949 16.301 95.495 12.296 C90.039 8.293
							84.123 7.08 82.281 9.59 z"/>
					<path
						d="M84.105 10.93 C82.603 12.974 84.993 17.282 89.441 20.545 C93.886 23.81 98.711 24.799
							100.212 22.752 C101.713 20.705 99.326 16.401 94.879 13.136 C90.431 9.87
							85.607 8.884 84.105 10.93 z"
						 style="fill:rgb(242,242,242)"/>
				</g>
				<linearGradient id="XMLID_3_" gradientUnits="userSpaceOnUse" x1="1208.42"
					y1="-35.3115" x2="1210.26" y2="-25.1975"
					gradientTransform="matrix(0.9884 -0.1516 0.1516 0.9884 -1112.21 231.629)">
					<stop offset="0" style="stop-color:rgb(255,255,255)"/>
					<stop offset="1" style="stop-color:rgb(0,0,0)"/>
					<a:midPointStop offset="0" style="stop-color:#FFFFFF"/>
					<a:midPointStop offset="0.5" style="stop-color:#FFFFFF"/>
					<a:midPointStop offset="1" style="stop-color:#000000"/>
				</linearGradient>
				<path a:adobe-blending-mode="screen"
					d="M76.548 26.922 L73.902 22.184 L81.344 12.953 L82.387 15.537 L84.144 17.527 z"
					 style="fill:url(#XMLID_3_)"/>
				<path
					d="M109.808 0 C108.917 0.853 108.888 2.266 109.741 3.156 C111.396 4.883 112.121 6.413
						111.729 7.354 C111.201 8.624 108.769 9.544 106.916 9.577 C105.627 9.531
						104.301 9.196 103.017 8.873 C99.361 7.952 94.811 6.806 91.691 14.689 C91.237
						15.835 91.798 17.13 92.945 17.586 C94.091 18.039 95.387 17.479 95.841 16.332
						C97.52 12.092 98.453 12.327 101.927 13.203 C103.366 13.566 105 13.977
						106.88 14.04 C110.286 13.983 114.462 12.403 115.85 9.071 C116.643 7.166
						116.787 4.056 112.965 0.068 C112.111 -0.823 110.698 -0.854 109.808 0 z"
					 style="fill-rule:evenodd;clip-rule:evenodd;fill:rgb(255,205,0)"/>
			</g>
		</g>
	</g>
</svg>
