<?xml version="1.0" encoding="UTF-8" standalone="no"?>
<!-- Created with Inkscape (http://www.inkscape.org/) -->

<svg
   xmlns:dc="http://purl.org/dc/elements/1.1/"
   xmlns:cc="http://creativecommons.org/ns#"
   xmlns:rdf="http://www.w3.org/1999/02/22-rdf-syntax-ns#"
   xmlns:svg="http://www.w3.org/2000/svg"
   xmlns="http://www.w3.org/2000/svg"
   xmlns:xlink="http://www.w3.org/1999/xlink"
   version="1.2"
   width="250"
   height="250"
   id="svg2">
  <title
     id="title4340">azoth icon</title>
  <metadata
     id="metadata71">
    <rdf:RDF>
      <cc:Work
         rdf:about="">
        <dc:format>image/svg+xml</dc:format>
        <dc:type
           rdf:resource="http://purl.org/dc/dcmitype/StillImage" />
        <dc:title>azoth icon</dc:title>
      </cc:Work>
    </rdf:RDF>
  </metadata>
  <defs
     id="defs4">
    <linearGradient
       id="linearGradient3304">
      <stop
         id="stop3306"
         style="stop-color:#ff8313;stop-opacity:1"
         offset="0" />
      <stop
         id="stop3308"
         style="stop-color:#ffe400;stop-opacity:1"
         offset="1" />
    </linearGradient>
    <linearGradient
       id="linearGradient3284">
      <stop
         id="stop3286"
         style="stop-color:#ffffff;stop-opacity:0.78431374"
         offset="0" />
      <stop
         id="stop3288"
         style="stop-color:#ffffff;stop-opacity:0.11764706"
         offset="1" />
    </linearGradient>
    <linearGradient
       id="linearGradient3170">
      <stop
         id="stop3172"
         style="stop-color:#323232;stop-opacity:1"
         offset="0" />
      <stop
         id="stop3216"
         style="stop-color:#696969;stop-opacity:1"
         offset="0.32967147" />
      <stop
         id="stop3218"
         style="stop-color:#7f7f7f;stop-opacity:1"
         offset="0.69190311" />
      <stop
         id="stop3212"
         style="stop-color:#b4b4b4;stop-opacity:1"
         offset="1" />
    </linearGradient>
    <linearGradient
       x1="322"
       y1="215"
       x2="322"
       y2="43.264011"
       id="linearGradient3176"
       xlink:href="#linearGradient3170"
       gradientUnits="userSpaceOnUse" />
    <filter
       color-interpolation-filters="sRGB"
       id="filter3270">
      <feGaussianBlur
         id="feGaussianBlur3272"
         stdDeviation="5.31" />
    </filter>
    <linearGradient
       x1="325.5"
       y1="45"
       x2="325.5"
       y2="137.5"
       id="linearGradient3290"
       xlink:href="#linearGradient3284"
       gradientUnits="userSpaceOnUse" />
    <linearGradient
       x1="143.75"
       y1="334.5"
       x2="143.75"
       y2="276"
       id="linearGradient3310"
       xlink:href="#linearGradient3304"
       gradientUnits="userSpaceOnUse"
       gradientTransform="translate(-51.5,-180.5)" />
    <linearGradient
       x1="213.25"
       y1="334.5"
       x2="213.25"
       y2="276"
       id="linearGradient3312"
       xlink:href="#linearGradient3304"
       gradientUnits="userSpaceOnUse"
       gradientTransform="translate(-53.5,-180.5)" />
    <linearGradient
       x1="325.5"
       y1="45"
       x2="325.5"
       y2="135"
       id="linearGradient3433"
       xlink:href="#linearGradient3284"
       gradientUnits="userSpaceOnUse"
       gradientTransform="translate(-200,-4)" />
    <filter
       x="-0.14433655"
       y="-0.14433655"
       width="1.288673"
       height="1.288673"
       color-interpolation-filters="sRGB"
       id="filter3483">
      <feGaussianBlur
         id="feGaussianBlur3485"
         stdDeviation="3.8189046" />
    </filter>
    <filter
       x="-0.14433655"
       y="-0.14433655"
       width="1.288673"
       height="1.288673"
       color-interpolation-filters="sRGB"
       id="filter3487">
      <feGaussianBlur
         id="feGaussianBlur3489"
         stdDeviation="3.8189046" />
    </filter>
    <linearGradient
       x1="322"
       y1="215"
       x2="322"
       y2="43.264011"
       id="linearGradient3501"
       xlink:href="#linearGradient3170"
       gradientUnits="userSpaceOnUse"
       gradientTransform="translate(-200,-4)" />
    <linearGradient
       x1="322"
       y1="215"
       x2="322"
       y2="43.264011"
       id="linearGradient2413"
       xlink:href="#linearGradient3170"
       gradientUnits="userSpaceOnUse"
       gradientTransform="translate(-200,-4)" />
    <linearGradient
       x1="322"
       y1="215"
       x2="322"
       y2="43.264011"
       id="linearGradient2858"
       xlink:href="#linearGradient3170"
       gradientUnits="userSpaceOnUse"
       gradientTransform="matrix(1.2146893,0,0,1.2146893,-270.38136,-32.302267)" />
    <linearGradient
       x1="294.96686"
       y1="165.60571"
       x2="284.96686"
       y2="130.60571"
       id="linearGradient4299"
       xlink:href="#linearGradient3304"
       gradientUnits="userSpaceOnUse"
       gradientTransform="matrix(1.6234792,0,0,1.6234792,-339.73024,-129.0944)" />
    <linearGradient
       x1="299.96686"
       y1="30.605713"
       x2="304.96686"
       y2="70.605713"
       id="linearGradient4301"
       xlink:href="#linearGradient3304"
       gradientUnits="userSpaceOnUse"
       gradientTransform="translate(-191.37709,82.076137)" />
    <linearGradient
       x1="325.5"
       y1="45"
       x2="325.5"
       y2="135"
       id="linearGradient4303"
       xlink:href="#linearGradient3284"
       gradientUnits="userSpaceOnUse"
       gradientTransform="matrix(1.2146893,0,0,1.2146893,-270.38136,-32.30227)" />
    <filter
       x="-0.10859291"
       y="-0.15786418"
       width="1.2171859"
       height="1.3157284"
       color-interpolation-filters="sRGB"
       id="filter4309">
      <feGaussianBlur
         id="feGaussianBlur4311"
         stdDeviation="5.5741275" />
    </filter>
    <filter
       x="-0.1085929"
       y="-0.15786418"
       width="1.2171859"
       height="1.3157284"
       color-interpolation-filters="sRGB"
       id="filter4313">
      <feGaussianBlur
         id="feGaussianBlur4315"
         stdDeviation="5.5741275" />
    </filter>
    <linearGradient
       id="linearGradient3758">
      <stop
         id="stop3760"
         style="stop-color:#ff8313;stop-opacity:1"
         offset="0" />
      <stop
         id="stop3762"
         style="stop-color:#ffe400;stop-opacity:1"
         offset="1" />
    </linearGradient>
    <linearGradient
       id="linearGradient3863">
      <stop
         id="stop3865"
         style="stop-color:#ff8313;stop-opacity:1"
         offset="0" />
      <stop
         id="stop3867"
         style="stop-color:#ffe400;stop-opacity:1"
         offset="1" />
    </linearGradient>
    <linearGradient
       id="linearGradient3870">
      <stop
         id="stop3872"
         style="stop-color:#ff8313;stop-opacity:1"
         offset="0" />
      <stop
         id="stop3874"
         style="stop-color:#ffe400;stop-opacity:1"
         offset="1" />
    </linearGradient>
    <linearGradient
       id="linearGradient3877">
      <stop
         id="stop3879"
         style="stop-color:#ff8313;stop-opacity:1"
         offset="0" />
      <stop
         id="stop3881"
         style="stop-color:#ffe400;stop-opacity:1"
         offset="1" />
    </linearGradient>
    <linearGradient
       x1="-1807.2036"
       y1="125.8584"
       x2="-1807.2036"
       y2="0.00048828119"
       id="linearGradient3085"
       xlink:href="#SVGID_1_"
       gradientUnits="userSpaceOnUse"
       gradientTransform="translate(1691.0275,-3.687744)" />
    <linearGradient
       x1="-1807.2036"
       y1="125.8584"
       x2="-1807.2036"
       y2="0.00048828119"
       id="SVGID_1_"
       gradientUnits="userSpaceOnUse"
       gradientTransform="translate(1915.9799,2.1203186e-6)">
      <stop
         id="stop237"
         style="stop-color:#1b3967;stop-opacity:1"
         offset="0.011" />
      <stop
         id="stop239"
         style="stop-color:#13b5ea;stop-opacity:1"
         offset="0.46700001" />
      <stop
         id="stop241"
         style="stop-color:#002b5c;stop-opacity:1"
         offset="0.99449998" />
    </linearGradient>
    <linearGradient
       x1="123.69058"
       y1="200.8002"
       x2="123.69058"
       y2="64.998772"
       id="linearGradient2839"
       xlink:href="#linearGradient3304-2"
       gradientUnits="userSpaceOnUse" />
    <linearGradient
       id="linearGradient3304-2">
      <stop
         id="stop3306-5"
         style="stop-color:#ff8313;stop-opacity:1"
         offset="0" />
      <stop
         id="stop3308-4"
         style="stop-color:#ffe400;stop-opacity:1"
         offset="1" />
    </linearGradient>
    <linearGradient
       x1="958.06287"
       y1="1096.9232"
       x2="959.72888"
       y2="3445.2549"
       id="linearGradient3847"
       xlink:href="#linearGradient3304-2"
       gradientUnits="userSpaceOnUse" />
    <linearGradient
       x1="-241.20244"
       y1="265.99265"
       x2="-240.85039"
       y2="129.01947"
       id="linearGradient3882"
       xlink:href="#linearGradient3304-2"
       gradientUnits="userSpaceOnUse" />
  </defs>
  <rect
     width="169"
     height="169"
     rx="30"
     ry="30"
     x="41"
     y="41"
     transform="matrix(1.2146893,0,0,1.2146893,-27.443504,-27.44351)"
     id="rect3240"
     style="fill:#000000;fill-opacity:1;stroke:#000000;stroke-width:8;stroke-linejoin:round;stroke-miterlimit:4;stroke-opacity:1;stroke-dasharray:none;filter:url(#filter3270)" />
  <rect
     width="205.28249"
     height="205.28249"
     rx="36.440678"
     ry="36.440678"
     x="22.358757"
     y="22.358751"
     id="rect3168"
     style="fill:url(#linearGradient2858);fill-opacity:1;stroke:#000000;stroke-width:9.71751404;stroke-linejoin:round;stroke-miterlimit:4;stroke-opacity:1;stroke-dasharray:none" />
  <g
     transform="matrix(0.05057801,0,0,-0.05057801,88.062711,236.97386)"
     id="g2035"
     style="fill:url(#linearGradient3847);fill-opacity:1;stroke:#000000;stroke-width:39.5428772;stroke-miterlimit:4;stroke-opacity:1;stroke-dasharray:none">
    <path
       d="m 719.899,2297.19 c 0,34.81 -6.429,72.81 -26.649,102 -40.54,58.51 -127.57,77.12 -188.15,40.25 -30.62,-18.65 -47.65,-51.21 -57.25,-84.64 -19.06,-66.38 -10.32,-142.13 3.009,-208.79 4.26,-21.32 8.66,-42.67 14.64,-63.6 2.16,-7.55 3.16,-18.52 8.07,-24.8 8.569,-10.98 29.49,-14.16 42.319,-12 38.49,6.47 28.96,69.85 27.65,96.8 -3.07,63.13 -21.67,124.4 -3.65,187.19 7.63,26.57 22.37,56.45 49.2,67.99 24.22,10.43 48.66,-2.33 58.25,-25.99 15.529,-38.31 11.649,-82.54 21.389,-122.4 3.31,-13.55 6.95,-26.97 13.06,-39.6 1.77,-3.65 4.21,-11.24 9.34,-10.78 12.47,1.14 30.2,21.95 39.549,29.67 30.2,24.96 61.23,51.69 96,70.16 16.36,8.69 43.279,22.76 59.99,7.98 4.259,-3.77 7.689,-8.27 10.739,-13.04 19.64,-30.77 0.14,-54.74 -12.629,-84 -16.53,-37.87 -33.469,-75.36 -57.42,-109.2 -20.59,-29.1 -48.729,-54.61 -65.18,-86.4 -10.59,-20.47 -16.58,-42.9 -12.2,-66 3.55,-18.68 18.03,-29.96 37.08,-25.58 14.26,3.28 23.92,15.5 32.05,26.78 14.49,20.12 27.95,41 42.35,61.2 27.86,39.07 60.73,75.6 84.16,117.6 28.24,50.63 41.86,107.92 41.829,165.59 -0.019,47.13 -17.109,119.16 -72,129.04 -10.329,1.85 -22.14,0.84 -32.4,-0.95 -12.749,-2.22 -25.549,-6.37 -37.199,-12.01 -31.21,-15.1 -58.2,-37.65 -81.39,-63.29 -14.469,-15.98 -27.429,-36.08 -44.599,-49.2"
       id="path26"
       style="fill:url(#linearGradient3847);fill-opacity:1;stroke:#000000;stroke-width:39.5428772;stroke-miterlimit:4;stroke-opacity:1;stroke-dasharray:none" />
    <path
       d="m 668.3,3463.03 c -43.29,-5.69 -87.29,-5.1 -130.79,-11.82 -83.329,-12.87 -163.14,-38.76 -241.189,-69.99 -28.42,-11.37 -56.46,-24.04 -84,-37.37 -10.249,-4.96 -25.88,-8.93 -34.12,-16.89 -4.289,-4.15 -3.849,-13.87 -4.37,-19.42 -1.449,-15.61 -3.399,-31.2 -4.91,-46.8 -5.829,-60.2 -9.939,-122.22 -1.319,-182.39 2.79,-19.44 8.83,-54.7 32.72,-58.43 36.739,-5.75 65.279,39.46 83.309,64.43 42.11,58.32 90.02,112.61 159.08,138.68 81.3,30.69 174.38,37.92 260.39,43.82 241.31,16.54 505.009,-27.54 682.769,-205.3 25.28,-25.28 49.21,-52.11 69.56,-81.6 79.59,-115.26 121.68,-246.32 141.95,-383.98 9.53,-64.63 16.04,-130.03 1.3,-194.39 -25.58,-111.66 -92.65,-208.85 -169.72,-291.59 -52.75,-56.63 -112.11,-107.82 -173.89,-154.35 -34.49,-25.97 -73.17,-48 -105.6,-76.39 -37.35,-32.7 -68.42,-73.62 -92.03,-117.25 -63.54,-117.48 -80.579,-258.84 -61.89,-389.98 3.83,-26.88 7.29,-53.89 13.38,-80.4 1.82,-7.93 2.14,-21.56 7.27,-28.04 9.6,-12.12 35.8,-18.79 50.47,-19.5 15.3,-0.74 25.48,11.02 29.23,24.74 6.42,23.51 2.58,49.55 -1.14,73.2 -7.62,48.44 -14.6,97.22 -12.44,146.39 3.98,90.79 39.08,175.39 102,241.19 63.99,66.92 150.42,105.51 223.14,161.57 146.56,112.98 277.86,265.41 328.28,446.8 18.02,64.87 23.99,133.61 15.76,200.39 -10.4,84.47 -41.29,168.84 -70.39,248.39 -88.69,242.48 -240.83,473.08 -482.44,584.01 -95.89,44.02 -196.16,64.06 -299.99,78.52 -48.69,6.78 -97.37,10.94 -146.391,13.09 -27.229,1.19 -56.849,4.21 -83.999,0.64"
       id="path28"
       style="fill:url(#linearGradient3847);fill-opacity:1;stroke:#000000;stroke-width:39.5428772;stroke-miterlimit:4;stroke-opacity:1;stroke-dasharray:none" />
    <path
       d="m 290.31,1893.49 c -47.09,-6.74 -60.78,-44.49 -52.08,-87.08 11.14,-54.5 54,-96.07 96.469,-128.81 108.81,-83.88 249.35,-129.22 386.38,-123.22 53.47,2.34 111.72,11.18 160.79,33.87 26.31,12.16 53.83,55.97 18,74.72 -4.91,2.57 -11.329,4.16 -16.8,5.06 -15.649,2.56 -33.17,-4.1 -47.999,-8.36 -26.15,-7.51 -52.28,-15.2 -79.2,-19.52 -80.43,-12.92 -167.4,5.46 -233.99,53.12 -53.829,38.54 -97.369,89.36 -138.47,140.74 -25.159,31.45 -47.899,65.96 -93.119,59.48"
       id="path30"
       style="fill:url(#linearGradient3847);fill-opacity:1;stroke:#000000;stroke-width:39.5428772;stroke-miterlimit:4;stroke-opacity:1;stroke-dasharray:none" />
    <path
       d="m 229.11,1627.11 c -11.98,-1.58 -25.72,-1.13 -35.98,-8.66 -21.4,-15.71 2.17,-47.31 13.43,-61.63 32.649,-41.49 75.639,-75.93 118.54,-106.29 119.599,-84.61 255.079,-133.42 400.78,-143.41 41.889,-2.87 84.559,0.11 125.989,7.01 15.149,2.53 34,3.67 48,10.21 39.619,18.53 28.159,93.38 -7.2,110.02 -15.44,7.26 -40.21,-2.33 -56.4,-4.58 -38.29,-5.34 -76.69,-5.88 -115.2,-4.94 -100.93,2.47 -208.45,33.56 -296.39,82.62 -34.57,19.3 -66.319,42.78 -96,68.91 -18.05,15.89 -36.59,41.89 -59.999,49.92 -10.9,3.74 -28.261,2.32 -39.601,0.83"
       id="path32"
       style="fill:url(#linearGradient3847);fill-opacity:1;stroke:#000000;stroke-width:39.5428772;stroke-miterlimit:4;stroke-opacity:1;stroke-dasharray:none" />
    <path
       d="m 253.109,1402.7 c -17.059,-1.91 -29.919,-10.81 -41.139,-23.47 -7.73,-8.72 -15.07,-16.6 -19.51,-27.6 -24.48,-60.56 40.78,-117.73 85.85,-146.33 50.159,-31.82 104.959,-55.41 160.789,-75.28 125.92,-44.82 273.61,-73.51 404.38,-33.44 38.87,11.9 77.29,33.66 105.55,63.07 15.919,16.57 26.849,41.66 -2.35,52.27 -17.3,6.28 -38.31,-9.71 -54,-16.03 -37.04,-14.94 -75.44,-26.28 -115.2,-31.09 -52.37,-6.35 -99.52,5.18 -149.99,17.81 -43.11,10.78 -86.709,21.56 -128.39,37.1 -35.56,13.26 -70.88,29.01 -101.999,51.03 -9.3,6.58 -20.44,12.44 -28.06,21.01 -24.91,28.03 -43.63,60.83 -70.34,87.49 -11.54,11.52 -27.939,25.44 -45.6,23.47"
       id="path34"
       style="fill:url(#linearGradient3847);fill-opacity:1;stroke:#000000;stroke-width:39.5428772;stroke-miterlimit:4;stroke-opacity:1;stroke-dasharray:none" />
  </g>
  <flowRoot
     id="flowRoot3855"
     xml:space="preserve"
     style="font-size:64px;font-style:normal;font-weight:normal;line-height:125%;letter-spacing:0px;word-spacing:0px;fill:#000000;fill-opacity:1;stroke:none;font-family:Sans"><flowRegion
       id="flowRegion3857"><rect
         width="280.65134"
         height="228.9272"
         x="-357.27969"
         y="54.597702"
         id="rect3859"
         style="font-size:64px" /></flowRegion><flowPara
       id="flowPara3861"></flowPara></flowRoot>  <g
     transform="translate(372.60537,-75.670498)"
     id="flowRoot3863"
     style="font-size:40px;font-style:normal;font-weight:normal;line-height:125%;letter-spacing:0px;word-spacing:0px;fill:url(#linearGradient3882);fill-opacity:1;stroke:#000000;stroke-width:2;stroke-miterlimit:4;stroke-opacity:1;stroke-dasharray:none;font-family:Sans">
    <path
       d="m -328.36719,194.13508 c 3.60937,-0.0937 6.55077,-1.06636 8.82422,-2.91797 2.27342,-1.85151 3.78514,-4.39448 4.53516,-7.6289 0.74998,-3.23432 1.14842,-8.76557 1.19531,-16.59375 0.0469,-7.82805 0.18748,-12.9843 0.42188,-15.46875 0.42185,-3.93741 1.20701,-7.10147 2.35546,-9.49219 1.14842,-2.39053 2.56639,-4.30068 4.25391,-5.73047 1.68747,-1.42959 3.84372,-2.51943 6.46875,-3.26953 1.78122,-0.46865 4.68746,-0.70302 8.71875,-0.70313 l 3.9375,0 0,11.03907 -2.17969,0 c -4.87504,9e-5 -8.10941,0.87899 -9.70312,2.63671 -1.59378,1.75791 -2.39066,5.68368 -2.39063,11.77735 -3e-5,12.28132 -0.25784,20.03912 -0.77343,23.27344 -0.84378,5.01567 -2.28519,8.88286 -4.32422,11.60156 -2.03909,2.71879 -5.23831,5.13285 -9.59766,7.24219 5.15623,2.15628 8.89451,5.44925 11.21484,9.8789 2.32029,4.42971 3.48044,11.68361 3.48047,21.76172 -3e-5,9.14062 0.0937,14.57812 0.28125,16.3125 0.37497,3.18749 1.32419,5.41405 2.84766,6.67969 1.5234,1.2656 4.51168,1.89842 8.96484,1.89844 l 2.17969,0 0,11.03906 -3.9375,0 c -4.59379,-3e-5 -7.92191,-0.37503 -9.98437,-1.125 -3.00003,-1.07815 -5.48441,-2.82425 -7.45313,-5.23828 -1.96877,-2.41409 -3.24611,-5.47268 -3.83203,-9.17578 -0.58596,-3.70314 -0.90236,-9.77345 -0.94922,-18.21094 -0.0469,-8.43749 -0.44533,-14.27342 -1.19531,-17.50781 -0.75002,-3.23436 -2.26174,-5.78904 -4.53516,-7.66407 -2.27345,-1.87497 -5.21485,-2.85934 -8.82422,-2.95312 z"
       id="path3872"
       style="font-size:144px;fill:url(#linearGradient3882);fill-opacity:1;stroke:#000000;stroke-width:2;stroke-miterlimit:4;stroke-opacity:1;stroke-dasharray:none" />
    <path
       d="m -160.39062,194.13508 0,11.46094 c -3.60942,0.0938 -6.55082,1.07815 -8.82422,2.95312 -2.27347,1.87503 -3.78519,4.418 -4.53516,7.62891 -0.75003,3.21095 -1.14847,8.73048 -1.19531,16.55859 -0.0469,7.82812 -0.18753,12.98437 -0.42188,15.46875 -0.4219,3.98436 -1.20706,7.16014 -2.35547,9.52735 -1.14846,2.36716 -2.56643,4.2656 -4.2539,5.69531 -1.68752,1.42966 -3.84377,2.5195 -6.46875,3.26953 -1.78127,0.5156 -4.68751,0.77341 -8.71875,0.77344 l -3.9375,0 0,-11.03906 2.17969,0 c 4.87498,-2e-5 8.10936,-0.87893 9.70312,-2.63672 1.59373,-1.75783 2.39061,-5.70705 2.39063,-11.84766 -2e-5,-11.71874 0.21091,-19.14842 0.63281,-22.28906 0.74998,-5.2031 2.24998,-9.36326 4.5,-12.48047 2.24997,-3.11715 5.43747,-5.54293 9.5625,-7.27734 -5.39065,-2.57809 -9.18753,-5.98824 -11.39063,-10.23047 -2.20314,-4.24214 -3.3047,-11.40229 -3.30468,-21.48047 -2e-5,-9.14055 -0.11721,-14.60148 -0.35157,-16.38281 -0.32814,-3.14054 -1.25392,-5.33194 -2.77734,-6.57422 -1.52345,-1.2421 -4.51173,-1.86319 -8.96484,-1.86328 l -2.17969,0 0,-11.03907 3.9375,0 c 4.59374,1.1e-4 7.92186,0.37511 9.98437,1.125 2.99998,1.03136 5.48435,2.76573 7.45313,5.20313 1.96872,2.43759 3.24606,5.5079 3.83203,9.21094 0.58591,3.70321 0.90231,9.77351 0.94922,18.21093 0.0468,8.43757 0.44528,14.26178 1.19531,17.47266 0.74997,3.21099 2.26169,5.75395 4.53516,7.62891 2.2734,1.87504 5.2148,2.85941 8.82422,2.95312 z"
       id="path3874"
       style="font-size:144px;fill:url(#linearGradient3882);fill-opacity:1;stroke:#000000;stroke-width:2;stroke-miterlimit:4;stroke-opacity:1;stroke-dasharray:none" />
  </g>
  <path
     d="m 58.799436,22.358751 c -20.188136,0 -36.440679,16.252543 -36.440679,36.440679 l 0,47.67656 c 24.402124,15.38974 61.342101,25.2048 102.641243,25.2048 41.29914,0 78.23912,-9.81506 102.64125,-25.2048 l 0,-47.67656 c 0,-20.188136 -16.25254,-36.440679 -36.44068,-36.440679 l -132.401134,0 z"
     id="rect3404"
     style="fill:url(#linearGradient4303);fill-opacity:1;stroke:none" />
</svg>
