<?xml version="1.0" encoding="UTF-8" standalone="no"?>
<!-- Created with Inkscape (http://www.inkscape.org/) -->

<svg
   xmlns:dc="http://purl.org/dc/elements/1.1/"
   xmlns:cc="http://creativecommons.org/ns#"
   xmlns:rdf="http://www.w3.org/1999/02/22-rdf-syntax-ns#"
   xmlns:svg="http://www.w3.org/2000/svg"
   xmlns="http://www.w3.org/2000/svg"
   xmlns:xlink="http://www.w3.org/1999/xlink"
   xmlns:sodipodi="http://sodipodi.sourceforge.net/DTD/sodipodi-0.dtd"
   xmlns:inkscape="http://www.inkscape.org/namespaces/inkscape"
   version="1.2"
   width="250"
   height="250"
   id="svg2"
   inkscape:version="0.47 r22583"
   sodipodi:docname="acetamide.svg">
  <metadata
     id="metadata49">
    <rdf:RDF>
      <cc:Work
         rdf:about="">
        <dc:format>image/svg+xml</dc:format>
        <dc:type
           rdf:resource="http://purl.org/dc/dcmitype/StillImage" />
      </cc:Work>
    </rdf:RDF>
  </metadata>
  <sodipodi:namedview
     pagecolor="#ffffff"
     bordercolor="#666666"
     borderopacity="1"
     objecttolerance="10"
     gridtolerance="10"
     guidetolerance="10"
     inkscape:pageopacity="0"
     inkscape:pageshadow="2"
     inkscape:window-width="1280"
     inkscape:window-height="725"
     id="namedview47"
     showgrid="false"
     inkscape:zoom="0.984"
     inkscape:cx="101.96915"
     inkscape:cy="113.82114"
     inkscape:window-x="0"
     inkscape:window-y="25"
     inkscape:window-maximized="1"
     inkscape:current-layer="svg2" />
  <title
     id="title4340">azoth icon</title>
  <defs
     id="defs4">
    <inkscape:perspective
       sodipodi:type="inkscape:persp3d"
       inkscape:vp_x="0 : 125 : 1"
       inkscape:vp_y="0 : 1000 : 0"
       inkscape:vp_z="250 : 125 : 1"
       inkscape:persp3d-origin="125 : 83.333333 : 1"
       id="perspective51" />
    <linearGradient
       id="linearGradient3304">
      <stop
         id="stop3306"
         style="stop-color:#ff8313;stop-opacity:1"
         offset="0" />
      <stop
         id="stop3308"
         style="stop-color:#ffe400;stop-opacity:1"
         offset="1" />
    </linearGradient>
    <linearGradient
       id="linearGradient3284">
      <stop
         id="stop3286"
         style="stop-color:#ffffff;stop-opacity:0.78431374"
         offset="0" />
      <stop
         id="stop3288"
         style="stop-color:#ffffff;stop-opacity:0.11764706"
         offset="1" />
    </linearGradient>
    <linearGradient
       id="linearGradient3170">
      <stop
         id="stop3172"
         style="stop-color:#323232;stop-opacity:1"
         offset="0" />
      <stop
         id="stop3216"
         style="stop-color:#696969;stop-opacity:1"
         offset="0.32967147" />
      <stop
         id="stop3218"
         style="stop-color:#7f7f7f;stop-opacity:1"
         offset="0.69190311" />
      <stop
         id="stop3212"
         style="stop-color:#b4b4b4;stop-opacity:1"
         offset="1" />
    </linearGradient>
    <linearGradient
       x1="322"
       y1="215"
       x2="322"
       y2="43.264011"
       id="linearGradient3176"
       xlink:href="#linearGradient3170"
       gradientUnits="userSpaceOnUse" />
    <filter
       color-interpolation-filters="sRGB"
       id="filter3270">
      <feGaussianBlur
         id="feGaussianBlur3272"
         stdDeviation="5.31" />
    </filter>
    <linearGradient
       x1="325.5"
       y1="45"
       x2="325.5"
       y2="137.5"
       id="linearGradient3290"
       xlink:href="#linearGradient3284"
       gradientUnits="userSpaceOnUse" />
    <linearGradient
       x1="143.75"
       y1="334.5"
       x2="143.75"
       y2="276"
       id="linearGradient3310"
       xlink:href="#linearGradient3304"
       gradientUnits="userSpaceOnUse"
       gradientTransform="translate(-51.5,-180.5)" />
    <linearGradient
       x1="213.25"
       y1="334.5"
       x2="213.25"
       y2="276"
       id="linearGradient3312"
       xlink:href="#linearGradient3304"
       gradientUnits="userSpaceOnUse"
       gradientTransform="translate(-53.5,-180.5)" />
    <linearGradient
       x1="325.5"
       y1="45"
       x2="325.5"
       y2="135"
       id="linearGradient3433"
       xlink:href="#linearGradient3284"
       gradientUnits="userSpaceOnUse"
       gradientTransform="translate(-200,-4)" />
    <filter
       x="-0.14433655"
       y="-0.14433655"
       width="1.288673"
       height="1.288673"
       color-interpolation-filters="sRGB"
       id="filter3483">
      <feGaussianBlur
         id="feGaussianBlur3485"
         stdDeviation="3.8189046" />
    </filter>
    <filter
       x="-0.14433655"
       y="-0.14433655"
       width="1.288673"
       height="1.288673"
       color-interpolation-filters="sRGB"
       id="filter3487">
      <feGaussianBlur
         id="feGaussianBlur3489"
         stdDeviation="3.8189046" />
    </filter>
    <linearGradient
       x1="322"
       y1="215"
       x2="322"
       y2="43.264011"
       id="linearGradient3501"
       xlink:href="#linearGradient3170"
       gradientUnits="userSpaceOnUse"
       gradientTransform="translate(-200,-4)" />
    <linearGradient
       x1="322"
       y1="215"
       x2="322"
       y2="43.264011"
       id="linearGradient2413"
       xlink:href="#linearGradient3170"
       gradientUnits="userSpaceOnUse"
       gradientTransform="translate(-200,-4)" />
    <linearGradient
       x1="322"
       y1="215"
       x2="322"
       y2="43.264011"
       id="linearGradient2858"
       xlink:href="#linearGradient3170"
       gradientUnits="userSpaceOnUse"
       gradientTransform="matrix(1.2146893,0,0,1.2146893,-270.38136,-32.302267)" />
    <linearGradient
       x1="294.96686"
       y1="165.60571"
       x2="284.96686"
       y2="130.60571"
       id="linearGradient4299"
       xlink:href="#linearGradient3304"
       gradientUnits="userSpaceOnUse"
       gradientTransform="matrix(1.6234792,0,0,1.6234792,-339.73024,-129.0944)" />
    <linearGradient
       x1="299.96686"
       y1="30.605713"
       x2="304.96686"
       y2="70.605713"
       id="linearGradient4301"
       xlink:href="#linearGradient3304"
       gradientUnits="userSpaceOnUse"
       gradientTransform="translate(-191.37709,82.076137)" />
    <linearGradient
       x1="325.5"
       y1="45"
       x2="325.5"
       y2="135"
       id="linearGradient4303"
       xlink:href="#linearGradient3284"
       gradientUnits="userSpaceOnUse"
       gradientTransform="matrix(1.2146893,0,0,1.2146893,-270.38136,-32.30227)" />
    <filter
       x="-0.10859291"
       y="-0.15786418"
       width="1.2171859"
       height="1.3157284"
       color-interpolation-filters="sRGB"
       id="filter4309">
      <feGaussianBlur
         id="feGaussianBlur4311"
         stdDeviation="5.5741275" />
    </filter>
    <filter
       x="-0.1085929"
       y="-0.15786418"
       width="1.2171859"
       height="1.3157284"
       color-interpolation-filters="sRGB"
       id="filter4313">
      <feGaussianBlur
         id="feGaussianBlur4315"
         stdDeviation="5.5741275" />
    </filter>
    <inkscape:perspective
       id="perspective2869"
       inkscape:persp3d-origin="0.5 : 0.33333333 : 1"
       inkscape:vp_z="1 : 0.5 : 1"
       inkscape:vp_y="0 : 1000 : 0"
       inkscape:vp_x="0 : 0.5 : 1"
       sodipodi:type="inkscape:persp3d" />
    <inkscape:perspective
       id="perspective2895"
       inkscape:persp3d-origin="0.5 : 0.33333333 : 1"
       inkscape:vp_z="1 : 0.5 : 1"
       inkscape:vp_y="0 : 1000 : 0"
       inkscape:vp_x="0 : 0.5 : 1"
       sodipodi:type="inkscape:persp3d" />
  </defs>
  <rect
     width="169"
     height="169"
     rx="30"
     ry="30"
     x="41"
     y="41"
     transform="matrix(1.2146893,0,0,1.2146893,-27.443504,-27.44351)"
     id="rect3240"
     style="fill:#000000;fill-opacity:1;stroke:#000000;stroke-width:8;stroke-linejoin:round;stroke-miterlimit:4;stroke-opacity:1;stroke-dasharray:none;filter:url(#filter3270)" />
  <rect
     width="205.28249"
     height="205.28249"
     rx="36.440678"
     ry="36.440678"
     x="22.358757"
     y="22.358751"
     id="rect3168"
     style="fill:url(#linearGradient2858);fill-opacity:1;stroke:#000000;stroke-width:9.71751404;stroke-linejoin:round;stroke-miterlimit:4;stroke-opacity:1;stroke-dasharray:none" />
  <path
     d="m 58.799436,22.358751 c -20.188136,0 -36.440679,16.252543 -36.440679,36.440679 l 0,47.67656 c 24.402124,15.38974 61.342101,25.2048 102.641243,25.2048 41.29914,0 78.23912,-9.81506 102.64125,-25.2048 l 0,-47.67656 c 0,-20.188136 -16.25254,-36.440679 -36.44068,-36.440679 l -132.401134,0 z"
     id="rect3404"
     style="fill:url(#linearGradient4303);fill-opacity:1;stroke:none" />
  <path
     d="m 171.98543,144.96775 c 0,0 -4.57119,-35.48687 -4.57119,-35.48687 -0.51891,-4.02835 -5.30304,-7.55383 -9.68643,-7.21926 0,0 -103.314436,7.88536 -103.314436,7.88536 -3.786205,0.28898 -6.631413,6.42688 -5.188773,12.23751 0,0 12.983763,52.29571 12.983763,52.29571 1.133216,4.56434 6.738999,10.42574 10.592719,9.23022 0,0 50.098357,-15.54177 50.098357,-15.54177 0,0 -8.43544,18.61407 -8.43544,18.61407 0,0 35.41147,-26.98272 35.41147,-26.98272 0,0 15.329,-4.75544 15.329,-4.75544 3.9396,-1.22216 7.28572,-6.35823 6.78096,-10.27681 0,0 0,0 0,0"
     id="path4305"
     style="opacity:0.32876713;fill:#000000;fill-opacity:1;stroke:#000000;stroke-width:6;stroke-linecap:round;stroke-linejoin:round;stroke-miterlimit:4;stroke-opacity:1;stroke-dasharray:none;filter:url(#filter4309)" />
  <path
     d="m 207.90451,101.87676 c 0,0 -4.5712,-35.486869 -4.5712,-35.486869 -0.51891,-4.028357 -5.30304,-7.553825 -9.68643,-7.219266 0,0 -103.314428,7.885365 -103.314428,7.885365 -3.786206,0.288978 -6.63142,6.426878 -5.188778,12.237513 0,0 12.983769,52.295707 12.983769,52.295707 1.133209,4.56434 6.738997,10.42574 10.592717,9.23022 0,0 50.09835,-15.54176 50.09835,-15.54176 0,0 -8.43543,18.61406 -8.43543,18.61406 0,0 35.41146,-26.98271 35.41146,-26.98271 0,0 15.329,-4.75546 15.329,-4.75546 3.9396,-1.22215 7.28573,-6.35822 6.78097,-10.2768 0,0 0,0 0,0"
     id="path4307"
     style="opacity:0.36273977;fill:#000000;fill-opacity:1;stroke:#000000;stroke-width:6;stroke-linecap:round;stroke-linejoin:round;stroke-miterlimit:4;stroke-opacity:1;stroke-dasharray:none;filter:url(#filter4313)" />
  <path
     d="m 208.82907,130.89326 c 0,0 -6.48966,-50.380239 -6.48966,-50.380239 -0.73668,-5.719006 -7.52866,-10.724065 -13.7517,-10.249098 0,0 -146.674127,11.19475 -146.674127,11.19475 -5.375225,0.410259 -9.414539,9.124156 -7.366439,17.37343 0,0 18.432885,74.243537 18.432885,74.243537 1.608802,6.47993 9.56726,14.80129 15.038335,13.10401 0,0 71.123966,-22.06442 71.123966,-22.06442 0,0 -11.97567,26.42614 -11.97567,26.42614 0,0 50.27318,-38.307 50.27318,-38.307 0,0 21.7624,-6.75126 21.7624,-6.75126 5.59299,-1.73508 10.34344,-9.02668 9.62683,-14.58985 0,0 0,0 0,0"
     id="path3647"
     style="fill:url(#linearGradient4299);fill-opacity:1;stroke:#323232;stroke-width:9.74087429;stroke-linecap:round;stroke-linejoin:round;stroke-miterlimit:4;stroke-opacity:1;stroke-dasharray:none" />
  <g
     id="g2909"
     transform="matrix(0.4530428,-0.12364176,0.12364176,0.4530428,223.16306,49.788043)"
     style="fill:#323232;fill-opacity:1">
    <path
       d="m -218.00703,23.944706 c -0.43637,0.84032 -0.83865,1.699239 -1.30911,2.52096 -3.73446,6.522776 -7.98473,12.742237 -11.79542,19.222699 -4.1851,7.117198 -8.21561,14.324186 -12.33167,21.481542 -12.99778,22.17775 -25.73701,44.504073 -38.55721,66.784213 -5.05326,8.96801 -9.89764,18.05117 -14.81339,27.09483 0,0 -12.83846,5.73588 -12.83846,5.73588 l 0,0 c 5.27978,-9.15469 10.4466,-18.3722 15.72533,-27.52738 3.96059,-6.69322 8.00569,-13.33654 11.92579,-20.05357 9.08625,-15.56916 17.8399,-31.33435 26.98364,-46.870887 21.30882,-38.007586 -7.62992,13.724247 11.73097,-21.23417 7.95049,-14.355566 1.46487,-2.436446 8.26722,-14.37427 1.92569,-3.379492 1.96473,-3.537181 3.35313,-6.364984 0,0 13.65918,-6.414863 13.65918,-6.414863 z"
       id="path2859"
       style="fill:#323232;fill-opacity:1" />
    <path
       d="m -164.54323,22.075875 c -0.43637,0.84032 -0.83865,1.699239 -1.30911,2.52096 -3.73446,6.522776 -7.98473,12.742237 -11.79542,19.222699 -4.1851,7.117198 -8.21561,14.324186 -12.33167,21.481542 -12.99778,22.17775 -25.73701,44.504074 -38.55721,66.784214 -5.05326,8.96801 -9.89764,18.05117 -14.81339,27.09483 0,0 -12.83846,5.73588 -12.83846,5.73588 l 0,0 c 5.27978,-9.15469 10.4466,-18.3722 15.72533,-27.52738 3.96059,-6.69322 8.00569,-13.33654 11.92579,-20.05357 9.08625,-15.56916 17.8399,-31.334351 26.98364,-46.870888 21.30882,-38.007586 -7.62992,13.724247 11.73097,-21.23417 7.95049,-14.355566 1.46487,-2.436446 8.26722,-14.37427 1.92569,-3.379492 1.96473,-3.537181 3.35313,-6.364984 0,0 13.65918,-6.414863 13.65918,-6.414863 z"
       id="path2859-8"
       style="fill:#323232;fill-opacity:1" />
    <path
       d="m -129.79379,74.49511 c -13.11097,-0.393853 -26.23133,-0.356578 -39.34702,-0.379504 -16.63544,-0.02743 -33.27085,-0.01634 -49.90624,0.0291 -11.74347,0.02834 -23.48638,0.09522 -35.22917,0.220972 -4.5577,0.06985 -9.11559,0.115154 -13.6737,0.143208 -2.99336,0.0099 -5.98673,0.0028 -8.9801,0.007 -3.02169,-0.0011 -6.04339,-0.0065 -9.06508,-0.0018 -3.04793,-2.69e-4 -6.09587,-0.0052 -9.1438,-2.23e-4 -2.79452,-0.01135 -5.58899,0.01818 -8.38349,0.01163 -2.86564,-0.01073 -5.73129,-0.0059 -8.59694,-0.01065 -2.85386,0.178967 -5.64805,-0.141469 -8.46563,-0.529861 -0.42843,-0.04755 -0.85686,-0.09511 -1.28529,-0.142659 0,0 12.22335,-8.665049 12.22335,-8.665049 l 0,0 c 0.43715,0.05374 0.8743,0.107478 1.31145,0.161217 2.76169,0.378939 5.5207,0.480098 8.30872,0.390568 2.87542,-0.0047 5.75084,5.8e-5 8.62626,-0.01065 2.78383,-0.0065 5.56762,0.02296 8.35146,0.01163 3.04813,0.005 6.09628,2.7e-5 9.14441,-2.23e-4 3.02334,0.0047 6.04669,-7.19e-4 9.07003,-0.0018 2.98695,0.0042 5.9739,-0.003 8.96085,0.007 4.42672,0.02771 8.8532,0.07243 13.27948,0.143208 11.54002,0.127336 23.08017,0.19268 34.62089,0.220972 16.60868,0.04571 33.21739,0.05637 49.82613,0.0291 13.46402,-0.02342 26.93203,0.0044 40.3917,-0.379504 0,0 -12.03827,8.746318 -12.03827,8.746318 z"
       id="path2885"
       style="fill:#323232;fill-opacity:1" />
    <path
       d="m -157.94839,120.47725 c -13.11097,-0.39386 -26.23133,-0.35658 -39.34702,-0.37951 -16.63544,-0.0274 -33.27085,-0.0163 -49.90624,0.0291 -11.74347,0.0283 -23.48638,0.0952 -35.22917,0.22097 -4.5577,0.0699 -9.11559,0.11516 -13.6737,0.14321 -2.99336,0.01 -5.98673,0.003 -8.9801,0.007 -3.02169,-10e-4 -6.04339,-0.007 -9.06508,-0.002 -3.04793,-2.7e-4 -6.09587,-0.005 -9.1438,-2.2e-4 -2.79452,-0.0113 -5.58899,0.0182 -8.38349,0.0116 -2.86564,-0.0107 -5.73129,-0.006 -8.59694,-0.0107 -2.85386,0.17897 -5.64805,-0.14147 -8.46563,-0.52986 -0.42843,-0.0476 -0.85686,-0.0951 -1.28529,-0.14266 0,0 12.22335,-8.66505 12.22335,-8.66505 l 0,0 c 0.43715,0.0537 0.8743,0.10748 1.31145,0.16122 2.76169,0.37894 5.5207,0.4801 8.30872,0.39057 2.87542,-0.005 5.75084,5e-5 8.62626,-0.0106 2.78383,-0.007 5.56762,0.023 8.35146,0.0116 3.04813,0.005 6.09628,2e-5 9.14441,-2.3e-4 3.02334,0.005 6.04669,-7.2e-4 9.07003,-0.002 2.98695,0.004 5.9739,-0.003 8.96085,0.007 4.42672,0.0277 8.8532,0.0724 13.27948,0.14321 11.54002,0.12734 23.08017,0.19268 34.62089,0.22097 16.60868,0.0457 33.21739,0.0564 49.82613,0.0291 13.46402,-0.0234 26.93203,0.004 40.3917,-0.3795 0,0 -12.03827,8.74632 -12.03827,8.74632 z"
       id="path2885-6"
       style="fill:#323232;fill-opacity:1" />
  </g>
</svg>
