<?xml version="1.0" encoding="iso-8859-1"?>
<!-- Generator: Adobe Illustrator 18.1.1, SVG Export Plug-In . SVG Version: 6.00 Build 0)  -->
<svg version="1.1" id="Capa_1" xmlns="http://www.w3.org/2000/svg" xmlns:xlink="http://www.w3.org/1999/xlink" x="0px" y="0px"
	 viewBox="0 0 23.418 23.418" style="enable-background:new 0 0 23.418 23.418;" xml:space="preserve">
<g>
	<g>
		<path style="fill:#010002;" d="M3.178,7.636h-0.06c-0.769,0-1.396,0.629-1.396,1.396v6.078c0,0.77,0.627,1.397,1.396,1.397h0.061
			c0.769,0,1.396-0.629,1.396-1.397V9.032C4.574,8.265,3.946,7.636,3.178,7.636z"/>
		<path style="fill:#010002;" d="M5.243,17.456c0,0.706,0.577,1.281,1.283,1.281h1.371v3.283c0,0.771,0.629,1.398,1.396,1.398h0.06
			c0.77,0,1.398-0.628,1.398-1.398v-3.283h1.916v3.283c0,0.771,0.631,1.398,1.398,1.398h0.059c0.77,0,1.397-0.628,1.397-1.398
			v-3.283h1.372c0.705,0,1.282-0.575,1.282-1.281V7.859H5.243V17.456z"/>
		<path style="fill:#010002;" d="M14.93,2.039l1.089-1.681c0.07-0.106,0.039-0.251-0.068-0.32c-0.106-0.07-0.251-0.041-0.32,0.068
			l-1.129,1.739c-0.847-0.347-1.793-0.542-2.792-0.542c-1,0-1.944,0.195-2.793,0.542L7.79,0.106
			C7.721-0.003,7.575-0.032,7.468,0.038C7.361,0.107,7.33,0.252,7.4,0.358l1.09,1.681C6.525,3.002,5.2,4.817,5.2,6.899
			c0,0.128,0.008,0.254,0.019,0.379h12.983c0.011-0.125,0.018-0.251,0.018-0.379C18.22,4.817,16.894,3.002,14.93,2.039z M8.7,5.049
			c-0.345,0-0.625-0.278-0.625-0.624S8.355,3.802,8.7,3.802c0.347,0,0.625,0.277,0.625,0.623S9.045,5.049,8.7,5.049z M14.719,5.049
			c-0.345,0-0.625-0.278-0.625-0.624s0.28-0.623,0.625-0.623c0.346,0,0.624,0.277,0.624,0.623
			C15.343,4.771,15.065,5.049,14.719,5.049z"/>
		<path style="fill:#010002;" d="M20.3,7.636h-0.058c-0.769,0-1.398,0.629-1.398,1.396v6.078c0,0.77,0.63,1.397,1.398,1.397h0.059
			c0.77,0,1.396-0.629,1.396-1.397V9.032C21.697,8.265,21.069,7.636,20.3,7.636z"/>
	</g>
</g>
<g>
</g>
<g>
</g>
<g>
</g>
<g>
</g>
<g>
</g>
<g>
</g>
<g>
</g>
<g>
</g>
<g>
</g>
<g>
</g>
<g>
</g>
<g>
</g>
<g>
</g>
<g>
</g>
<g>
</g>
</svg>
