<?xml version="1.0" encoding="iso-8859-1"?>
<!-- Generator: Adobe Illustrator 16.0.0, SVG Export Plug-In . SVG Version: 6.00 Build 0)  -->
<!DOCTYPE svg PUBLIC "-//W3C//DTD SVG 1.1//EN" "http://www.w3.org/Graphics/SVG/1.1/DTD/svg11.dtd">
<svg version="1.1" id="Capa_1" xmlns="http://www.w3.org/2000/svg" xmlns:xlink="http://www.w3.org/1999/xlink" x="0px" y="0px"
	 width="341.648px" height="341.648px" viewBox="0 0 341.648 341.648" style="enable-background:new 0 0 341.648 341.648;"
	 xml:space="preserve">
<g>
	<path d="M238.468,40.062c-6.791,0-12.292-5.51-12.292-12.298V12.298C226.176,5.504,220.664,0,213.878,0h-8.202
		c-6.798,0-12.298,5.504-12.298,12.298V27.77c0,6.788-5.513,12.298-12.298,12.298h-77.894c-6.794,0-12.298,5.503-12.298,12.298
		v276.986c0,6.785,5.503,12.297,12.298,12.297h135.276c6.785,0,12.298-5.512,12.298-12.297V52.359
		C250.76,45.57,245.26,40.062,238.468,40.062z M117.79,278.358c0-6.791,5.503-12.298,12.298-12.298
		c6.789,0,12.298,5.507,12.298,12.298c0,6.785-5.509,12.298-12.298,12.298C123.293,290.656,117.79,285.144,117.79,278.358z
		 M130.087,225.324c6.789,0,12.298,5.506,12.298,12.298c0,6.785-5.509,12.298-12.298,12.298c-6.794,0-12.298-5.513-12.298-12.298
		C117.79,230.83,123.293,225.324,130.087,225.324z M117.79,196.886c0-6.792,5.503-12.298,12.298-12.298
		c6.789,0,12.298,5.506,12.298,12.298c0,6.785-5.509,12.298-12.298,12.298C123.293,209.184,117.79,203.671,117.79,196.886z
		 M195.804,320.729h-51.5c-3.401,0-6.149-2.75-6.149-6.149c0-3.398,2.748-6.148,6.149-6.148h51.5c3.398,0,6.149,2.75,6.149,6.148
		C201.953,317.973,199.202,320.729,195.804,320.729z M170.056,225.324c6.788,0,12.298,5.506,12.298,12.298
		c0,6.785-5.51,12.298-12.298,12.298c-6.795,0-12.298-5.513-12.298-12.298C157.757,230.83,163.261,225.324,170.056,225.324z
		 M157.757,196.886c0-6.792,5.503-12.298,12.298-12.298c6.788,0,12.298,5.506,12.298,12.298c0,6.785-5.51,12.298-12.298,12.298
		C163.261,209.184,157.757,203.671,157.757,196.886z M170.056,266.061c6.788,0,12.298,5.507,12.298,12.298
		c0,6.785-5.51,12.298-12.298,12.298c-6.795,0-12.298-5.513-12.298-12.298C157.757,271.567,163.261,266.061,170.056,266.061z
		 M210.023,290.656c-6.798,0-12.298-5.513-12.298-12.298c0-6.791,5.5-12.298,12.298-12.298c6.785,0,12.298,5.507,12.298,12.298
		C222.321,285.144,216.809,290.656,210.023,290.656z M210.023,249.92c-6.798,0-12.298-5.513-12.298-12.298
		c0-6.792,5.5-12.298,12.298-12.298c6.785,0,12.298,5.506,12.298,12.298C222.321,244.407,216.809,249.92,210.023,249.92z
		 M210.023,209.184c-6.798,0-12.298-5.513-12.298-12.298c0-6.792,5.5-12.298,12.298-12.298c6.785,0,12.298,5.506,12.298,12.298
		C222.321,203.671,216.809,209.184,210.023,209.184z M230.007,149.03c0,6.791-5.512,12.298-12.298,12.298h-93.771
		c-6.794,0-12.298-5.507-12.298-12.298v-67.81c0-6.794,5.503-12.297,12.298-12.297h93.771c6.786,0,12.298,5.503,12.298,12.297
		V149.03z"/>
</g>
<g>
</g>
<g>
</g>
<g>
</g>
<g>
</g>
<g>
</g>
<g>
</g>
<g>
</g>
<g>
</g>
<g>
</g>
<g>
</g>
<g>
</g>
<g>
</g>
<g>
</g>
<g>
</g>
<g>
</g>
</svg>
