<?xml version="1.0" encoding="iso-8859-1"?>
<!-- Generator: Adobe Illustrator 18.1.1, SVG Export Plug-In . SVG Version: 6.00 Build 0)  -->
<svg version="1.1" id="Capa_1" xmlns="http://www.w3.org/2000/svg" xmlns:xlink="http://www.w3.org/1999/xlink" x="0px" y="0px"
	 viewBox="0 0 26 26" style="enable-background:new 0 0 26 26;" xml:space="preserve">
<g>
	<path style="fill:#030104;" d="M11.234,11.86c-0.409,0-0.887,0.104-1.453,0.319l0.752-2.605c0.579-0.234,1.079-0.349,1.525-0.349
		c0.646,0,1.092,0.241,1.487,0.502l-0.768,2.646C12.361,12.104,11.89,11.866,11.234,11.86z M13.229,13.577l-0.768,2.641
		c0.394,0.262,0.84,0.503,1.485,0.503c0.445,0,0.944-0.114,1.523-0.349l0.729-2.532c-0.521,0.161-0.975,0.24-1.381,0.24
		C14.118,14.08,13.642,13.844,13.229,13.577z M15.761,10.675c-0.674,0-1.156-0.242-1.553-0.496l-0.768,2.66
		c0.405,0.267,0.871,0.502,1.503,0.502c0.453,0,0.945-0.118,1.504-0.361l0.752-2.601C16.664,10.578,16.191,10.675,15.761,10.675z
		 M11.103,12.664c-0.453,0-0.963,0.116-1.556,0.356l-0.744,2.589c0.529-0.197,0.997-0.293,1.423-0.293
		c0.671,0,1.146,0.237,1.563,0.506l0.776-2.672C12.116,12.856,11.688,12.664,11.103,12.664z"/>
	<path style="fill:#030104;" d="M18.5,0h-11c-1.657,0-3,1.344-3,3v20c0,1.656,1.343,3,3,3h11c1.657,0,3-1.344,3-3V3
		C21.5,1.344,20.157,0,18.5,0z M11,1h4c0.276,0,0.5,0.224,0.5,0.5S15.276,2,15,2h-4c-0.276,0-0.5-0.224-0.5-0.5S10.724,1,11,1z
		 M19.5,20.5c0,0.276-0.224,0.5-0.5,0.5H7c-0.276,0-0.5-0.224-0.5-0.5v-17C6.5,3.224,6.724,3,7,3h12c0.276,0,0.5,0.224,0.5,0.5V20.5
		z M19.5,23.5c0,0.276-0.224,0.5-0.5,0.5h-1c-0.276,0-0.5-0.224-0.5-0.5l0,0c0-0.276,0.224-0.5,0.5-0.5h1
		C19.276,23,19.5,23.224,19.5,23.5L19.5,23.5z M8.5,23.5C8.5,23.776,8.276,24,8,24H7c-0.276,0-0.5-0.224-0.5-0.5l0,0
		C6.5,23.224,6.724,23,7,23h1C8.276,23,8.5,23.224,8.5,23.5L8.5,23.5z M15.5,23.5c0,0.276-0.224,0.5-0.5,0.5h-4
		c-0.276,0-0.5-0.224-0.5-0.5l0,0c0-0.276,0.224-0.5,0.5-0.5h4C15.276,23,15.5,23.224,15.5,23.5L15.5,23.5z"/>
</g>
<g>
</g>
<g>
</g>
<g>
</g>
<g>
</g>
<g>
</g>
<g>
</g>
<g>
</g>
<g>
</g>
<g>
</g>
<g>
</g>
<g>
</g>
<g>
</g>
<g>
</g>
<g>
</g>
<g>
</g>
</svg>
