<?xml version="1.0" encoding="UTF-8" standalone="no"?>
<!-- Created with Inkscape (http://www.inkscape.org/) -->

<svg
   xmlns:dc="http://purl.org/dc/elements/1.1/"
   xmlns:cc="http://creativecommons.org/ns#"
   xmlns:rdf="http://www.w3.org/1999/02/22-rdf-syntax-ns#"
   xmlns:svg="http://www.w3.org/2000/svg"
   xmlns="http://www.w3.org/2000/svg"
   xmlns:xlink="http://www.w3.org/1999/xlink"
   xmlns:sodipodi="http://sodipodi.sourceforge.net/DTD/sodipodi-0.dtd"
   xmlns:inkscape="http://www.inkscape.org/namespaces/inkscape"
   version="1.2"
   width="250"
   height="250"
   id="svg2"
   inkscape:version="0.47 r22583"
   sodipodi:docname="hili.svg">
  <metadata
     id="metadata67">
    <rdf:RDF>
      <cc:Work
         rdf:about="">
        <dc:format>image/svg+xml</dc:format>
        <dc:type
           rdf:resource="http://purl.org/dc/dcmitype/StillImage" />
      </cc:Work>
    </rdf:RDF>
  </metadata>
  <sodipodi:namedview
     pagecolor="#ffffff"
     bordercolor="#666666"
     borderopacity="1"
     objecttolerance="10"
     gridtolerance="10"
     guidetolerance="10"
     inkscape:pageopacity="0"
     inkscape:pageshadow="2"
     inkscape:window-width="1280"
     inkscape:window-height="725"
     id="namedview65"
     showgrid="false"
     inkscape:zoom="2.7831723"
     inkscape:cx="182.23815"
     inkscape:cy="124.24378"
     inkscape:window-x="0"
     inkscape:window-y="25"
     inkscape:window-maximized="1"
     inkscape:current-layer="svg2" />
  <title
     id="title4340">azoth icon</title>
  <defs
     id="defs4">
    <inkscape:perspective
       sodipodi:type="inkscape:persp3d"
       inkscape:vp_x="0 : 125 : 1"
       inkscape:vp_y="0 : 1000 : 0"
       inkscape:vp_z="250 : 125 : 1"
       inkscape:persp3d-origin="125 : 83.333333 : 1"
       id="perspective69" />
    <linearGradient
       id="linearGradient3304">
      <stop
         id="stop3306"
         style="stop-color:#ff8313;stop-opacity:1"
         offset="0" />
      <stop
         id="stop3308"
         style="stop-color:#ffe400;stop-opacity:1"
         offset="1" />
    </linearGradient>
    <linearGradient
       id="linearGradient3284">
      <stop
         id="stop3286"
         style="stop-color:#ffffff;stop-opacity:0.78431374"
         offset="0" />
      <stop
         id="stop3288"
         style="stop-color:#ffffff;stop-opacity:0.11764706"
         offset="1" />
    </linearGradient>
    <linearGradient
       id="linearGradient3170">
      <stop
         id="stop3172"
         style="stop-color:#323232;stop-opacity:1"
         offset="0" />
      <stop
         id="stop3216"
         style="stop-color:#696969;stop-opacity:1"
         offset="0.32967147" />
      <stop
         id="stop3218"
         style="stop-color:#7f7f7f;stop-opacity:1"
         offset="0.69190311" />
      <stop
         id="stop3212"
         style="stop-color:#b4b4b4;stop-opacity:1"
         offset="1" />
    </linearGradient>
    <linearGradient
       x1="322"
       y1="215"
       x2="322"
       y2="43.264011"
       id="linearGradient3176"
       xlink:href="#linearGradient3170"
       gradientUnits="userSpaceOnUse" />
    <filter
       color-interpolation-filters="sRGB"
       id="filter3270">
      <feGaussianBlur
         stdDeviation="5.31"
         id="feGaussianBlur3272" />
    </filter>
    <linearGradient
       x1="325.5"
       y1="45"
       x2="325.5"
       y2="137.5"
       id="linearGradient3290"
       xlink:href="#linearGradient3284"
       gradientUnits="userSpaceOnUse" />
    <linearGradient
       x1="143.75"
       y1="334.5"
       x2="143.75"
       y2="276"
       id="linearGradient3310"
       xlink:href="#linearGradient3304"
       gradientUnits="userSpaceOnUse"
       gradientTransform="translate(-51.5,-180.5)" />
    <linearGradient
       x1="213.25"
       y1="334.5"
       x2="213.25"
       y2="276"
       id="linearGradient3312"
       xlink:href="#linearGradient3304"
       gradientUnits="userSpaceOnUse"
       gradientTransform="translate(-53.5,-180.5)" />
    <linearGradient
       x1="325.5"
       y1="45"
       x2="325.5"
       y2="135"
       id="linearGradient3433"
       xlink:href="#linearGradient3284"
       gradientUnits="userSpaceOnUse"
       gradientTransform="translate(-200,-4)" />
    <filter
       x="-0.14433655"
       y="-0.14433655"
       width="1.288673"
       height="1.288673"
       color-interpolation-filters="sRGB"
       id="filter3483">
      <feGaussianBlur
         stdDeviation="3.8189046"
         id="feGaussianBlur3485" />
    </filter>
    <filter
       x="-0.14433655"
       y="-0.14433655"
       width="1.288673"
       height="1.288673"
       color-interpolation-filters="sRGB"
       id="filter3487">
      <feGaussianBlur
         stdDeviation="3.8189046"
         id="feGaussianBlur3489" />
    </filter>
    <linearGradient
       x1="322"
       y1="215"
       x2="322"
       y2="43.264011"
       id="linearGradient3501"
       xlink:href="#linearGradient3170"
       gradientUnits="userSpaceOnUse"
       gradientTransform="translate(-200,-4)" />
    <linearGradient
       x1="322"
       y1="215"
       x2="322"
       y2="43.264011"
       id="linearGradient2413"
       xlink:href="#linearGradient3170"
       gradientUnits="userSpaceOnUse"
       gradientTransform="translate(-200,-4)" />
    <linearGradient
       x1="322"
       y1="215"
       x2="322"
       y2="43.264011"
       id="linearGradient2858"
       xlink:href="#linearGradient3170"
       gradientUnits="userSpaceOnUse"
       gradientTransform="matrix(1.2146893,0,0,1.2146893,-270.38136,-32.302267)" />
    <linearGradient
       x1="294.96686"
       y1="165.60571"
       x2="284.96686"
       y2="130.60571"
       id="linearGradient4299"
       xlink:href="#linearGradient3304"
       gradientUnits="userSpaceOnUse"
       gradientTransform="matrix(1.6234792,0,0,1.6234792,-339.73024,-129.0944)" />
    <linearGradient
       x1="299.96686"
       y1="30.605713"
       x2="304.96686"
       y2="70.605713"
       id="linearGradient4301"
       xlink:href="#linearGradient3304"
       gradientUnits="userSpaceOnUse"
       gradientTransform="translate(-191.37709,82.076137)" />
    <linearGradient
       x1="325.5"
       y1="45"
       x2="325.5"
       y2="135"
       id="linearGradient4303"
       xlink:href="#linearGradient3284"
       gradientUnits="userSpaceOnUse"
       gradientTransform="matrix(1.2146893,0,0,1.2146893,-270.38136,-32.30227)" />
    <filter
       x="-0.10859291"
       y="-0.15786418"
       width="1.2171859"
       height="1.3157284"
       color-interpolation-filters="sRGB"
       id="filter4309">
      <feGaussianBlur
         stdDeviation="5.5741275"
         id="feGaussianBlur4311" />
    </filter>
    <filter
       x="-0.1085929"
       y="-0.15786418"
       width="1.2171859"
       height="1.3157284"
       color-interpolation-filters="sRGB"
       id="filter4313">
      <feGaussianBlur
         stdDeviation="5.5741275"
         id="feGaussianBlur4315" />
    </filter>
    <linearGradient
       id="linearGradient3758">
      <stop
         id="stop3760"
         style="stop-color:#ff8313;stop-opacity:1"
         offset="0" />
      <stop
         id="stop3762"
         style="stop-color:#ffe400;stop-opacity:1"
         offset="1" />
    </linearGradient>
    <linearGradient
       id="linearGradient3863">
      <stop
         id="stop3865"
         style="stop-color:#ff8313;stop-opacity:1"
         offset="0" />
      <stop
         id="stop3867"
         style="stop-color:#ffe400;stop-opacity:1"
         offset="1" />
    </linearGradient>
    <linearGradient
       id="linearGradient3870">
      <stop
         id="stop3872"
         style="stop-color:#ff8313;stop-opacity:1"
         offset="0" />
      <stop
         id="stop3874"
         style="stop-color:#ffe400;stop-opacity:1"
         offset="1" />
    </linearGradient>
    <linearGradient
       id="linearGradient3877">
      <stop
         id="stop3879"
         style="stop-color:#ff8313;stop-opacity:1"
         offset="0" />
      <stop
         id="stop3881"
         style="stop-color:#ffe400;stop-opacity:1"
         offset="1" />
    </linearGradient>
    <linearGradient
       x1="-1807.2036"
       y1="125.8584"
       x2="-1807.2036"
       y2="0.00048828119"
       id="linearGradient3085"
       xlink:href="#SVGID_1_"
       gradientUnits="userSpaceOnUse"
       gradientTransform="translate(1691.0275,-3.687744)" />
    <linearGradient
       x1="-1807.2036"
       y1="125.8584"
       x2="-1807.2036"
       y2="0.00048828119"
       id="SVGID_1_"
       gradientUnits="userSpaceOnUse"
       gradientTransform="translate(1915.9799,2.1203186e-6)">
      <stop
         id="stop237"
         style="stop-color:#1b3967;stop-opacity:1"
         offset="0.011" />
      <stop
         id="stop239"
         style="stop-color:#13b5ea;stop-opacity:1"
         offset="0.46700001" />
      <stop
         id="stop241"
         style="stop-color:#002b5c;stop-opacity:1"
         offset="0.99449998" />
    </linearGradient>
    <linearGradient
       x1="56"
       y1="16"
       x2="56"
       y2="80"
       id="linearGradient3736"
       xlink:href="#StandardGradient-3"
       gradientUnits="userSpaceOnUse"
       gradientTransform="matrix(0.94249199,0,0,0.94249199,-154.89815,3.2168654)" />
    <linearGradient
       x1="11.998966"
       y1="0.92195445"
       x2="11.998966"
       y2="19.387045"
       id="StandardGradient-3"
       gradientUnits="userSpaceOnUse"
       gradientTransform="scale(0.9219544,1.0846523)">
      <stop
         id="stop3283-5"
         style="stop-color:#000000;stop-opacity:0.86274511"
         offset="0" />
      <stop
         id="stop2651-2"
         style="stop-color:#000000;stop-opacity:0.47058824"
         offset="1" />
    </linearGradient>
  </defs>
  <rect
     width="169"
     height="169"
     rx="30"
     ry="30"
     x="41"
     y="41"
     transform="matrix(1.2146893,0,0,1.2146893,-27.443504,-27.44351)"
     id="rect3240"
     style="fill:#000000;fill-opacity:1;stroke:#000000;stroke-width:8;stroke-linejoin:round;stroke-miterlimit:4;stroke-opacity:1;stroke-dasharray:none;filter:url(#filter3270)" />
  <rect
     width="205.28249"
     height="205.28249"
     rx="36.440678"
     ry="36.440678"
     x="22.358757"
     y="22.358751"
     id="rect3168"
     style="fill:url(#linearGradient2858);fill-opacity:1;stroke:#000000;stroke-width:9.71751404;stroke-linejoin:round;stroke-miterlimit:4;stroke-opacity:1;stroke-dasharray:none" />
  <path
     d="m 58.799436,22.358751 c -20.188136,0 -36.440679,16.252543 -36.440679,36.440679 l 0,47.67656 c 24.402124,15.38974 61.342101,25.2048 102.641243,25.2048 41.29914,0 78.23912,-9.81506 102.64125,-25.2048 l 0,-47.67656 c 0,-20.188136 -16.25254,-36.440679 -36.44068,-36.440679 l -132.401134,0 z"
     id="rect3404"
     style="fill:url(#linearGradient4303);fill-opacity:1;stroke:none" />
  <path
     d="m 208.82907,130.89326 c 0,0 -6.48966,-50.380239 -6.48966,-50.380239 -0.73668,-5.719006 -7.52866,-10.724065 -13.7517,-10.249098 0,0 -146.674127,11.19475 -146.674127,11.19475 -5.375225,0.410259 -9.414539,9.124156 -7.366439,17.37343 0,0 18.432885,74.243537 18.432885,74.243537 1.608802,6.47993 9.56726,14.80129 15.038335,13.10401 0,0 71.123966,-22.06442 71.123966,-22.06442 0,0 -11.97567,26.42614 -11.97567,26.42614 0,0 50.27318,-38.307 50.27318,-38.307 0,0 21.7624,-6.75126 21.7624,-6.75126 5.59299,-1.73508 10.34344,-9.02668 9.62683,-14.58985 0,0 0,0 0,0"
     id="path3647"
     style="fill:url(#linearGradient4299);fill-opacity:1;stroke:#323232;stroke-width:9.74087429;stroke-linecap:round;stroke-linejoin:round;stroke-miterlimit:4;stroke-opacity:1;stroke-dasharray:none" />
  <path
     d="m 139.67721,87.410064 c -6.57808,-6.34e-4 -11.91114,4.932324 -11.91173,11.018075 0.0159,0.697427 0.026,1.493758 0.0991,2.361271 -1.04109,0.55 -1.17699,2.70124 -0.24861,4.87007 0.35799,0.8363 0.84631,1.51585 1.33976,2.06623 0.0165,0.0184 0.033,0.0311 0.0497,0.0491 0.11774,0.57301 0.20482,1.02623 0.34724,1.6726 0.4412,1.31244 2.26466,3.78121 3.87039,5.90352 0.15999,1.63711 0.17302,3.25392 -0.14939,5.11605 -4.62279,3.80099 -16.44505,5.50803 -16.4277,9.44346 l -1.58905,10.23198 c -2.1e-4,2.09638 3.15897,4.01614 8.18805,5.31362 l 0.69452,2.80408 a 1.7295878,1.7144325 0.00551577 0 0 1.09171,1.13155 c 0.22322,0.0857 0.38074,0.26671 0.99251,0.44282 3.22267,0.92774 8.1298,1.57492 13.64749,1.57548 5.51771,5.2e-4 10.47459,-0.64573 13.69743,-1.57286 0.61181,-0.17598 0.76936,-0.35707 0.9926,-0.44263 a 1.7295878,1.7144325 0.00551577 0 0 1.04228,-1.08215 l 0.84396,-2.9515 c 4.90648,-1.29447 8.04001,-3.14681 8.04022,-5.21368 l -1.58712,-10.23227 c -0.0186,-3.3682 -11.91015,-5.51074 -16.47552,-9.44664 -0.18472,-1.5075 -0.1931,-2.99176 -0.0989,-4.47656 1.4603,-2.2324 3.38286,-5.08943 3.87158,-6.54229 0.17961,-0.75241 0.25766,-1.27241 0.39723,-1.91847 0.43122,-0.52235 0.82327,-1.1259 1.14162,-1.86923 0.88203,-2.05945 0.79989,-4.05376 -0.0988,-4.72253 0.0628,-0.89489 0.12275,-1.744008 0.14912,-2.508827 6e-4,-6.085746 -5.33151,-11.019728 -11.9096,-11.020362 z"
     id="path3798"
     style="fill:#323232;fill-opacity:1;stroke:none;display:inline;enable-background:new" />
  <path
     style="font-size:80.09927368px;font-style:normal;font-weight:normal;fill:#323232;fill-opacity:1;stroke:none;font-family:Bitstream Vera Sans"
     d="m 108.43731,89.93406 -7.95004,-0.01194 -0.006,25.61899 0.81138,13.96392 6.32763,-0.0131 0.78106,-13.94777 0.0365,-25.610104 z m -0.0664,48.45147 -7.92008,-0.003 -0.0149,9.93754 7.95003,0.0119 -0.015,-9.94642 z"
     id="text2889" />
</svg>
