<?xml version="1.0" encoding="UTF-8" standalone="no"?>
<!-- Created with Inkscape (http://www.inkscape.org/) -->

<svg
   xmlns:dc="http://purl.org/dc/elements/1.1/"
   xmlns:cc="http://creativecommons.org/ns#"
   xmlns:rdf="http://www.w3.org/1999/02/22-rdf-syntax-ns#"
   xmlns:svg="http://www.w3.org/2000/svg"
   xmlns="http://www.w3.org/2000/svg"
   xmlns:xlink="http://www.w3.org/1999/xlink"
   xmlns:sodipodi="http://sodipodi.sourceforge.net/DTD/sodipodi-0.dtd"
   xmlns:inkscape="http://www.inkscape.org/namespaces/inkscape"
   version="1.0"
   width="96"
   height="96"
   id="svg2408"
   inkscape:version="0.48.2 r9819"
   sodipodi:docname="poshuku_cleanweb.svg"
   inkscape:export-filename="/home/buckstabu/Dropbox/Public/lcicons/lcproto2.png"
   inkscape:export-xdpi="90"
   inkscape:export-ydpi="90">
  <sodipodi:namedview
     pagecolor="#ffffff"
     bordercolor="#666666"
     borderopacity="1"
     objecttolerance="10"
     gridtolerance="10"
     guidetolerance="10"
     inkscape:pageopacity="0"
     inkscape:pageshadow="2"
     inkscape:window-width="1920"
     inkscape:window-height="1145"
     id="namedview68"
     showgrid="false"
     inkscape:zoom="3.3333333"
     inkscape:cx="41.065002"
     inkscape:cy="43.535342"
     inkscape:window-x="1678"
     inkscape:window-y="32"
     inkscape:window-maximized="1"
     inkscape:current-layer="svg2408" />
  <defs
     id="defs2410">
    <linearGradient
       id="linearGradient4017">
      <stop
         style="stop-color:#ff6600;stop-opacity:1;"
         offset="0"
         id="stop4019" />
      <stop
         style="stop-color:#ff1e00;stop-opacity:1;"
         offset="1"
         id="stop4021" />
    </linearGradient>
    <linearGradient
       x1="45.447727"
       y1="92.539597"
       x2="45.447727"
       y2="7.0165396"
       id="ButtonShadow"
       gradientUnits="userSpaceOnUse"
       gradientTransform="scale(1.0058652,0.994169)">
      <stop
         id="stop3750"
         style="stop-color:#000000;stop-opacity:1"
         offset="0" />
      <stop
         id="stop3752"
         style="stop-color:#000000;stop-opacity:0.58823532"
         offset="1" />
    </linearGradient>
    <filter
       color-interpolation-filters="sRGB"
       id="filter3174">
      <feGaussianBlur
         id="feGaussianBlur3176"
         stdDeviation="1.71" />
    </filter>
    <linearGradient
       id="linearGradient3224-6">
      <stop
         id="stop3226-2"
         style="stop-color:#42394b;stop-opacity:1"
         offset="0" />
      <stop
         id="stop3228-1"
         style="stop-color:#000000;stop-opacity:1"
         offset="1" />
    </linearGradient>
    <linearGradient
       id="linearGradient3187-5">
      <stop
         id="stop3189-3"
         style="stop-color:#b4b4b4;stop-opacity:1"
         offset="0" />
      <stop
         id="stop3191-2"
         style="stop-color:#e6e6e6;stop-opacity:1"
         offset="1" />
    </linearGradient>
    <linearGradient
       id="linearGradient3737-9">
      <stop
         id="stop3739-7"
         style="stop-color:#ffffff;stop-opacity:1"
         offset="0" />
      <stop
         id="stop3741-6"
         style="stop-color:#ffffff;stop-opacity:0"
         offset="1" />
    </linearGradient>
    <linearGradient
       id="linearGradient3465-2">
      <stop
         id="stop3467-0"
         style="stop-color:#919191;stop-opacity:1"
         offset="0" />
      <stop
         id="stop3469-6"
         style="stop-color:#fdfdfd;stop-opacity:1"
         offset="1" />
    </linearGradient>
    <linearGradient
       id="linearGradient3737-7-3">
      <stop
         id="stop3739-2-3"
         style="stop-color:#ffffff;stop-opacity:1"
         offset="0" />
      <stop
         id="stop3741-7-6"
         style="stop-color:#ffffff;stop-opacity:0"
         offset="1" />
    </linearGradient>
    <linearGradient
       id="linearGradient3737-4-0">
      <stop
         id="stop3739-8-4"
         style="stop-color:#ffffff;stop-opacity:1"
         offset="0" />
      <stop
         id="stop3741-71-8"
         style="stop-color:#ffffff;stop-opacity:0"
         offset="1" />
    </linearGradient>
    <clipPath
       id="clipPath3613-5">
      <rect
         width="84"
         height="84"
         rx="6"
         ry="6"
         x="6"
         y="6"
         id="rect3615-1"
         style="fill:#ffffff;fill-opacity:1;fill-rule:nonzero;stroke:none" />
    </clipPath>
    <filter
       x="-0.192"
       y="-0.192"
       width="1.3839999"
       height="1.3839999"
       color-interpolation-filters="sRGB"
       id="filter3794-2">
      <feGaussianBlur
         id="feGaussianBlur3796-9"
         stdDeviation="5.28" />
    </filter>
    <linearGradient
       inkscape:collect="always"
       xlink:href="#linearGradient3187-5"
       id="linearGradient4094"
       gradientUnits="userSpaceOnUse"
       x1="48"
       y1="90"
       x2="48"
       y2="5.9877172" />
    <linearGradient
       inkscape:collect="always"
       xlink:href="#linearGradient3737-9"
       id="linearGradient4096"
       gradientUnits="userSpaceOnUse"
       x1="36.357143"
       y1="6"
       x2="36.357143"
       y2="63.893143" />
    <linearGradient
       inkscape:collect="always"
       xlink:href="#linearGradient3465-2"
       id="linearGradient4098"
       gradientUnits="userSpaceOnUse"
       gradientTransform="matrix(1.0294118,0,0,1.0294118,-1.4117647,-1.411765)"
       x1="43.17857"
       y1="13"
       x2="43.17857"
       y2="83.294571" />
    <radialGradient
       inkscape:collect="always"
       xlink:href="#linearGradient3737-7-3"
       id="radialGradient4100"
       gradientUnits="userSpaceOnUse"
       gradientTransform="matrix(1.1573129,0,0,0.99590774,-7.551021,0.1971319)"
       cx="48"
       cy="90.171875"
       fx="48"
       fy="90.171875"
       r="42" />
    <linearGradient
       inkscape:collect="always"
       xlink:href="#linearGradient3737-4-0"
       id="linearGradient4102"
       gradientUnits="userSpaceOnUse"
       x1="48"
       y1="20.220806"
       x2="48"
       y2="138.66119" />
    <radialGradient
       inkscape:collect="always"
       xlink:href="#linearGradient3224-6"
       id="radialGradient4113"
       gradientUnits="userSpaceOnUse"
       gradientTransform="matrix(1.3830053,-1.0350102e-8,0,1.3123934,-17.140614,-23.729195)"
       cx="47.098362"
       cy="78.286942"
       fx="47.098362"
       fy="78.286942"
       r="38.957481" />
    <filter
       id="filter3174-6"
       color-interpolation-filters="sRGB">
      <feGaussianBlur
         stdDeviation="1.71"
         id="feGaussianBlur3176-7" />
    </filter>
    <linearGradient
       gradientTransform="scale(1.0058652,0.994169)"
       gradientUnits="userSpaceOnUse"
       id="ButtonShadow-7"
       y2="7.0165396"
       x2="45.447727"
       y1="92.539597"
       x1="45.447727">
      <stop
         offset="0"
         style="stop-color:#000000;stop-opacity:1"
         id="stop3750-1" />
      <stop
         offset="1"
         style="stop-color:#000000;stop-opacity:0.58823532"
         id="stop3752-1" />
    </linearGradient>
    <linearGradient
       id="linearGradient3224-61">
      <stop
         offset="0"
         style="stop-color:#42394b;stop-opacity:1"
         id="stop3226-5" />
      <stop
         offset="1"
         style="stop-color:#000000;stop-opacity:1"
         id="stop3228-9" />
    </linearGradient>
    <linearGradient
       inkscape:collect="always"
       xlink:href="#linearGradient4017"
       id="linearGradient3563"
       gradientUnits="userSpaceOnUse"
       gradientTransform="matrix(1.1298076,0,0,1.1298076,-115.70914,-7.925481)"
       x1="145.3"
       y1="22.799999"
       x2="144.00851"
       y2="102.12128" />
    <linearGradient
       inkscape:collect="always"
       xlink:href="#linearGradient3224-61"
       id="linearGradient3570"
       gradientUnits="userSpaceOnUse"
       gradientTransform="translate(-169.2,-20.700002)"
       x1="218.40002"
       y1="27.900003"
       x2="218.69998"
       y2="109.8" />
  </defs>
  <metadata
     id="metadata2413">
    <rdf:RDF>
      <cc:Work
         rdf:about="">
        <dc:format>image/svg+xml</dc:format>
        <dc:type
           rdf:resource="http://purl.org/dc/dcmitype/StillImage" />
        <dc:title />
      </cc:Work>
    </rdf:RDF>
  </metadata>
  <g
     id="layer2-6"
     style="display:none"
     transform="translate(93.10736,40.263961)">
    <rect
       width="86"
       height="85"
       rx="6"
       ry="6"
       x="5"
       y="7"
       id="rect3745-0"
       style="opacity:0.9;fill:url(#ButtonShadow-7);fill-opacity:1;fill-rule:nonzero;stroke:none;filter:url(#filter3174-6)" />
  </g>
  <path
     style="opacity:0.6;color:#000000;fill:#000000;fill-opacity:1;fill-rule:nonzero;stroke:none;stroke-width:1;marker:none;visibility:visible;display:inline;overflow:visible;enable-background:accumulate"
     id="rect3977-9"
     inkscape:connector-curvature="0"
     d="m 17.89831,14.489536 c -1.662,0 -3,1.338 -3,3 l 0,62 c 0,1.662 1.338,3 3,3 l 62,0 c 1.662,0 3,-1.338 3,-3 l 0,-62 c 0,-1.662 -1.338,-3 -3,-3 l -62,0 z m 0,0.96875 62,0 c 1.140081,0 2.03125,0.891169 2.03125,2.03125 l 0,62 c 0,1.140081 -0.891169,2.03125 -2.03125,2.03125 l -62,0 c -1.140081,0 -2.03125,-0.891169 -2.03125,-2.03125 l 0,-62 c 0,-1.140081 0.891169,-2.03125 2.03125,-2.03125 z" />
  <g
     id="layer2"
     style="display:none">
    <rect
       width="86"
       height="85"
       rx="6"
       ry="6"
       x="5"
       y="7"
       id="rect3745"
       style="opacity:0.9;fill:url(#ButtonShadow);fill-opacity:1;fill-rule:nonzero;stroke:none;filter:url(#filter3174)" />
  </g>
  <rect
     style="fill:url(#radialGradient4113);fill-opacity:1;stroke:none"
     id="rect3461-7"
     y="8.743969"
     x="9.0391903"
     ry="6.1732869"
     rx="5.8527675"
     height="78.516495"
     width="77.914963" />
  <path
     style="font-size:medium;font-style:normal;font-variant:normal;font-weight:normal;font-stretch:normal;text-indent:0;text-align:start;text-decoration:none;line-height:normal;letter-spacing:normal;word-spacing:normal;text-transform:none;direction:ltr;block-progression:tb;writing-mode:lr-tb;text-anchor:start;opacity:0.15;color:#000000;fill:#000000;fill-opacity:1;stroke:none;stroke-width:4;marker:none;visibility:visible;display:inline;overflow:visible;enable-background:accumulate;font-family:Abandoned Bitplane;-inkscape-font-specification:Abandoned Bitplane"
     id="rect3222-3-8"
     inkscape:connector-curvature="0"
     d="m 19.89831,13.489536 c -3.289406,0 -6,2.710594 -6,6 l 0,58 c 0,3.289406 2.710594,6 6,6 l 58,0 c 3.289406,0 6,-2.710594 6,-6 l 0,-58 c 0,-3.289406 -2.710594,-6 -6,-6 l -58,0 z m 0,4 58,0 c 1.142594,0 2,0.857406 2,2 l 0,58 c 0,1.142594 -0.857406,2 -2,2 l -58,0 c -1.142594,0 -2,-0.857406 -2,-2 l 0,-58 c 0,-1.142594 0.857406,-2 2,-2 z" />
  <path
     style="opacity:0.3;color:#000000;fill:#000000;fill-opacity:1;fill-rule:nonzero;stroke:none;stroke-width:1;marker:none;visibility:visible;display:inline;overflow:visible;enable-background:accumulate"
     id="rect3981-0"
     inkscape:connector-curvature="0"
     d="m 17.89831,14.489536 c -1.662,0 -3,1.338 -3,3 l 0,62 c 0,1.662 1.338,3 3,3 l 62,0 c 1.662,0 3,-1.338 3,-3 l 0,-62 c 0,-1.662 -1.338,-3 -3,-3 l -62,0 z m 0,1.9375 62,0 c 0.618163,0 1.0625,0.444337 1.0625,1.0625 l 0,62 c 0,0.618163 -0.444337,1.0625 -1.0625,1.0625 l -62,0 c -0.618163,0 -1.0625,-0.444337 -1.0625,-1.0625 l 0,-62 c 0,-0.618163 0.444337,-1.0625 1.0625,-1.0625 z" />
  <path
     d="m 36.27391,7.4992853 c 1.65011,2.21669 0.11258,5.9183397 2.60147,5.8815897 1.2119,1.71402 -2.41546,0.5113 0.20359,1.83235 1.50611,1.18657 -1.59338,1.86454 0.27179,2.92937 -2.14969,1.10967 0.34845,5.80399 1.94512,6.97885 2.62796,2.21316 1.16221,-4.68572 4.0945,-5.0446 1.59336,-1.8197 4.39184,-2.98781 6.37927,-4.81838 -1.9423,-0.15774 -3.07646,-1.36714 -1.23703,-2.1163 3.38546,3.47039 0.84891,-1.64353 -1.02513,-2.45324 1.81337,-0.57705 3.57698,-0.15449 3.32537,-1.6513697 1.91632,-1.40252 -1.84226,-1.85535 -3.18394,-1.53827 -4.45834,0 -8.91668,0 -13.37501,0 z m -27.8018493,1.44778 c -2.44977,0.69819 -2.62065,6.5548797 -0.15836,3.3027397 0.60435,-1.33537 3.3970793,-2.9446697 0.15836,-3.3027397 z m 11.4464893,0.20359 c -1.41226,2.2153397 0.20491,3.9914997 1.37991,1.2894297 0.83171,-1.1283397 -0.61793,-1.2480897 -1.37991,-1.2894297 z m 3.52895,0.49768 c -2.72875,1.2652097 -0.6726,4.2155597 -0.60506,4.8717297 2.87456,0.99483 4.47323,-0.65043 5.5607,2.16149 2.73516,1.57694 -0.0538,4.31706 -1.08055,5.03068 1.84934,-1.61119 5.40416,4.38048 4.47225,1.21492 -1.11178,-0.81208 2.98516,1.30456 0.85962,-1.33467 -1.95606,-3.15266 0.15527,-1.41141 0.97995,-0.67561 2.80489,-2.51609 -3.17359,-2.82021 -1.68121,-5.40958 -1.30776,-1.05958 -3.02289,-4.26949 -5.33868,-3.64206 -1.55024,2.00557 -0.21416,-4.3699597 -2.48861,-1.17956 -0.11789,1.78341 -0.0429,4.04645 -0.70571,0.95682 -0.44407,-0.54087 0.764,-1.7982997 0.0273,-1.9941597 z m -5.56489,0.0226 c -1.8316,0.6108497 -1.73323,3.0864997 0.51896,3.3519097 0.77143,-0.87964 0.30649,-3.1853397 -0.51896,-3.3519097 z m -7.1484,0.7917497 c -2.3790793,0.56388 -1.4079893,2.48286 -0.67958,3.02332 -2.9449093,0.73792 4.4957,0.94313 0.79269,1.41049 -3.0807993,1.23084 2.96666,2.68095 3.95876,1.22156 3.80439,0.93074 0.13691,-3.04654 -0.19704,-5.20253 -1.61275,-1.7314797 -0.0637,3.99154 -1.52187,0.18441 -0.50878,1.13054 -2.12652,0.1666 -2.35296,-0.63725 z m 75.60113,0.24884 c -3.19245,1.24986 1.98417,5.96643 0.69764,1.67549 -0.12817,-0.51813 0.28819,-1.88711 -0.69764,-1.67549 z m -66.66563,1.9002 c -2.29408,2.15671 2.91599,3.9402 -0.6589,5.54691 -0.53601,-2.00294 -1.45827,1.0021 -3.50346,-0.61542 -3.5159,1.46447 -5.31387,-0.76283 -8.2575393,-2.28957 -1.76802,-0.22016 -1.10378,1.68053 -1.22088,3.46019 0,4.91831 0,9.83662 0,14.75492 1.73349,1.824483 0.67633,0.80498 0,0.30175 0.95147,3.241653 -0.41957,7.980243 3.33085,9.865843 0.63757,1.18303 3.3128793,6.22307 3.4362193,4.71504 -1.34121,-1.40506 -2.71735,-5.61739 -0.44789,-1.86302 2.03275,3.56879 4.77475,5.8835 8.78047,6.73276 2.19006,0.74522 3.99117,3.30696 5.91712,2.74332 1.08905,2.87197 -3.22742,5.62989 0.14491,8.3086 1.76052,2.7118 4.71619,4.4904 3.11596,8.29758 -1.11907,3.71826 -0.63992,7.76974 -1.60778,11.23409 -0.3004,2.10873 2.93803,7.46101 2.65747,3.17511 0.94556,-2.9784 0.92064,-6.25562 3.14757,-8.36483 3.04712,0.0241 0.58238,-3.27775 3.60701,-2.84642 1.84565,-2.42007 2.38024,-5.30712 5.49491,-6.26809 0.37205,-2.9376 5.17883,-7.43659 0.21314,-8.58032 -1.34961,-0.66545 -4.8245,-0.90473 -4.55895,-1.23308 0.53804,-2.91487 -4.49346,-3.7447 -6.63422,-4.93727 -2.81076,-1.99584 -7.03424,3.3156 -8.02452,-1.26102 -0.59088,-1.43995 -2.75133,-1.4633 -1.75843,-3.68521 -1.78939,1.78033 -5.28934,1.23924 -4.37303,-2.19892 1.39157,-2.89559 6.73564,-3.0326 7.64626,0.45029 -1.26435,-3.84121 2.44394,-6.83144 4.50253,-9.56422 0.41916,-1.3062 2.90974,-2.42843 2.05267,-0.69242 1.46016,-0.0527 3.6733,-2.68864 1.07941,-1.47202 -0.0367,-2.403893 -2.27297,-1.72027 -2.99799,-1.37893 1.34377,-2.133573 8.24499,-0.967133 5.3551,-4.454593 -2.23931,-0.90768 -2.05303,-6.20445 -4.318,-3.25359 0.19059,-1.81815 -4.61002,-5.37715 -4.50526,-2.32832 0.58599,2.72813 0.10713,5.87087 -1.13992,7.65911 -0.26025,-3.99762 -7.07568,-3.11408 -6.19943,-7.37399 1.26944,-2.0303 2.75285,-4.83791 2.89418,-4.58534 2.27505,-0.86894 4.10459,-3.39651 1.46783,-5.05812 -0.14092,1.4482 -1.98303,4.43614 -1.72366,0.82232 -1.70579,2.02318 -1.3162,-3.21941 -2.91375,-3.76312 z m 54.45,1.40253 c -3.99594,0.97784 -5.58006,4.79584 -7.55681,7.95817 -2.91386,1.31423 -2.80294,6.95832 0.45241,5.15567 0.87128,1.52228 -0.60951,3.92167 1.92831,1.93122 2.047,-2.7099 0.35794,-7.09276 3.84142,-8.80152 0.25373,1.32865 -3.21333,6.28987 0.83699,5.47441 3.66157,0.13821 -2.66185,0.36497 -0.881,2.70473 -1.85026,-1.09821 -0.88882,2.99933 -3.30397,2.04578 -2.09234,1.13854 -3.46434,-0.52862 -2.98503,-2.35496 -1.64596,0.96058 0.51769,3.67045 -2.33959,3.83331 -0.64004,2.27366 -5.90338,1.93097 -2.91021,4.246163 1.3289,3.44536 -4.95153,0.21599 -3.16853,4.35053 1.52545,4.08844 4.7224,-1.35472 6.01944,-2.40634 2.50247,-1.94188 6.21066,3.31108 3.95876,3.50633 2.52508,-0.33891 2.00619,-2.74125 -0.017,-3.6713 -1.09268,-2.83493 3.45903,1.39032 3.2066,2.81168 1.60594,3.00835 0.94461,-3.08009 2.57885,-0.38456 -0.1908,2.84338 6.57418,0.66855 3.34439,4.29241 -2.77687,0.55952 -5.51013,-0.71614 -7.90083,0.10093 -2.22511,-0.0197 -2.11347,-2.39797 -2.92358,-2.99354 -2.83037,0.23004 -6.32794,0.20402 -8.22277,2.4914 -2.04902,2.81234 -5.00383,6.7438 -2.77053,10.33481 2.23488,5.32146 7.77719,0.27603 10.96298,3.41876 0.94693,1.31039 -0.8206,2.86804 1.29671,4.28743 0.7967,3.02353 -0.90449,5.89433 1.05226,8.78464 1.01184,2.7182 1.63978,6.78664 5.40576,4.30281 3.98577,-2.39945 2.92416,-6.8227 6.21294,-9.27265 -2.60227,-5.03806 3.18363,-7.2471 4.62722,-11.3371 -3.15394,0.46191 -5.96377,-2.68376 -6.72579,-5.84994 -1.32493,-1.53789 -0.98367,-3.8055 0.49633,-0.91647 2.03426,1.97191 2.07822,7.82306 5.84127,4.81302 1.72035,-0.71984 6.41861,-3.46572 2.67511,-4.71532 -2.41304,1.7484 -5.07525,-5.22426 -1.53182,-1.17997 2.57604,1.0933 4.37998,1.7447 4.37998,-1.88015 0,-9.76613 0,-19.664583 0,-29.496873 -0.8024,0.82028 -2.8638,2.33524 -3.90428,1.32857 -1.79037,0.24941 -4.15389,3.73428 -3.59125,0.36554 -1.55624,-0.10309 -0.27859,3.02053 -2.41664,3.10789 -0.21529,1.60589 -2.15987,0.29738 -1.42943,1.82237 -1.50065,-1.06488 -2.77067,-4.42704 0.18614,-2.31673 4.39102,-1.31784 -2.8956,-4.29041 -3.45804,-5.00891 0.94545,-0.22661 -1.02861,-1.21224 -1.26681,-0.88224 z m -36.23967,0.88224 c -1.46151,1.2182 2.77852,1.44762 0,0 z m -19.52238,0.65603 c -1.63465,1.7105 2.60328,1.57244 0,0 z m 9.47842,1.69661 c -1.23787,2.02858 1.82903,0.74894 0,0 z m 27.10058,2.39788 c -1.44923,1.66908 -3.36205,-0.43926 -3.39323,0.99535 0.26265,0.43347 1.31468,3.52729 3.61944,1.24418 1.23699,-0.52171 0.74997,-1.83688 -0.22621,-2.23953 z m -30.85575,0.99535 c -2.74881,2.40147 4.6683,2.62274 0.58232,0.27542 l -0.58232,-0.27542 z m 36.26229,6.65072 c -1.97908,1.29104 0.94944,4.03281 -0.0431,5.32072 -1.2401,2.161473 4.60833,-0.15225 1.48462,-1.87675 -0.22257,-1.48162 -1.83002,-3.28936 -1.44154,-3.44397 z m -1.33466,2.60147 c -2.7574,0.77986 -0.62597,4.806243 0.35065,1.014 0.055,-0.21986 0.12936,-1.02135 -0.35065,-1.014 z m -22.07861,2.91818 c -2.56522,1.74983 -0.39843,3.496443 1.48156,2.709123 -0.38596,-1.055763 -1.46417,-1.720963 -1.48156,-2.709123 z m 48.4553,2.940803 c 1.27995,0.64619 -2.34554,1.75008 -0.0498,2.88736 1.33598,1.57167 0.83231,4.94545 -1.3392,2.55764 0.40344,-2.66599 -2.94356,-4.65698 1.38903,-5.445 z m -6.58287,0.0226 c -0.17366,1.71279 3.69395,4.37514 -0.47504,3.50633 -2.20475,0.25873 -5.50697,-0.0674 -2.72943,-2.81568 0.87765,-0.52709 3.18206,1.8185 1.98291,-0.37395 0.42514,-0.0271 0.82108,-0.18767 1.22156,-0.3167 z m -12.73591,3.70992 c -1.60812,1.03642 1.11198,1.83112 0,0 z m -40.37942,9.65939 c -0.2711,0.90481 5.08599,1.82176 1.3893,0.37215 l -0.55106,-0.19405 -0.83824,-0.1781 z m 4.16236,1.28943 c -1.62491,1.65021 3.34781,0.49301 0,0 z m 54.3369,15.13379 c -3.53072,0.0911 -3.06133,9.20159 -0.60013,3.81083 0.2334,-1.16979 1.1689,-2.71377 0.60013,-3.81083 z"
     inkscape:connector-curvature="0"
     id="path3522-3"
     style="fill:url(#linearGradient3570);fill-opacity:1;stroke:none;display:inline" />
  <path
     inkscape:connector-curvature="0"
     d="M 48,18.625 C 31.785,18.625 18.625,31.784996 18.625,47.999998 18.625,64.215001 31.785,77.375 48,77.375 64.215,77.375 77.375,64.215001 77.375,47.999998 77.375,31.784996 64.215,18.625 48,18.625 z M 38.131838,29.640624 48,39.508792 l 9.868163,-9.868168 8.491212,8.491215 -9.868162,9.868159 9.868162,9.868168 -8.491212,8.491209 L 48,56.491213 l -9.868162,9.868162 -8.491213,-8.491209 9.868163,-9.868168 -9.868163,-9.868159 8.491213,-8.491215 z"
     id="path3898"
     style="fill:url(#linearGradient3563);fill-opacity:1;stroke:#000000;stroke-width:1.25;stroke-opacity:1;display:inline" />
  <path
     style="opacity:0.07999998;fill:#d9c6ed;fill-opacity:1;stroke:none"
     id="rect3256-3"
     inkscape:connector-curvature="0"
     d="m 14.89831,8.7395363 c -3.242433,0 -5.8437503,2.7674997 -5.8437503,6.1874997 l 0,49.0625 C 27.878614,50.130638 54.866224,40.195879 86.96081,42.208286 l 0,-27.28125 c 0,-3.420001 -2.63257,-6.1874997 -5.875,-6.1874997 l -66.1875,0 z" />
  <g
     id="layer1"
     style="display:inline">
    <path
       d="M 12,6 C 8.676,6 6,8.676 6,12 l 0,72 c 0,3.324 2.676,6 6,6 l 72,0 c 3.324,0 6,-2.676 6,-6 L 90,12 C 90,8.676 87.324,6 84,6 L 12,6 z m 5,7 62,0 c 2.216001,0 4,1.784 4,4 l 0,62 c 10e-7,2.216001 -1.784,4 -4,4 l -62,0 c -2.215999,10e-7 -4,-1.784 -4,-4 l 0,-62 c 0,-2.215999 1.784,-4 4,-4 z"
       inkscape:connector-curvature="0"
       id="rect2419"
       style="fill:url(#linearGradient4094);fill-opacity:1;fill-rule:nonzero;stroke:none" />
    <path
       d="M 12,6 C 8.676,6 6,8.676 6,12 l 0,2 0,68 0,2 c 0,0.334721 0.04135,0.6507 0.09375,0.96875 0.0487,0.295596 0.09704,0.596915 0.1875,0.875 0.00988,0.03038 0.020892,0.0636 0.03125,0.09375 0.098865,0.287771 0.2348802,0.547452 0.375,0.8125 0.1445918,0.273507 0.3156161,0.535615 0.5,0.78125 0.1843839,0.245635 0.3737765,0.473472 0.59375,0.6875 0.439947,0.428056 0.94291,0.814526 1.5,1.09375 0.278545,0.139612 0.5734731,0.246947 0.875,0.34375 -0.2562018,-0.100222 -0.4867109,-0.236272 -0.71875,-0.375 -0.00741,-0.0044 -0.023866,0.0045 -0.03125,0 -0.031933,-0.0193 -0.062293,-0.04251 -0.09375,-0.0625 -0.120395,-0.0767 -0.2310226,-0.163513 -0.34375,-0.25 -0.1061728,-0.0808 -0.2132809,-0.161112 -0.3125,-0.25 C 8.4783201,88.557317 8.3087904,88.373362 8.15625,88.1875 8.0486711,88.057245 7.9378561,87.922215 7.84375,87.78125 7.818661,87.74287 7.805304,87.69538 7.78125,87.65625 7.716487,87.553218 7.6510225,87.451733 7.59375,87.34375 7.4927417,87.149044 7.3880752,86.928049 7.3125,86.71875 7.30454,86.69694 7.288911,86.6782 7.28125,86.65625 7.2494249,86.5643 7.2454455,86.469419 7.21875,86.375 7.1884177,86.268382 7.1483606,86.171969 7.125,86.0625 7.0521214,85.720988 7,85.364295 7,85 L 7,83 7,15 7,13 C 7,10.218152 9.2181517,8 12,8 l 2,0 68,0 2,0 c 2.781848,0 5,2.218152 5,5 l 0,2 0,68 0,2 c 0,0.364295 -0.05212,0.720988 -0.125,1.0625 -0.04415,0.206893 -0.08838,0.397658 -0.15625,0.59375 -0.0077,0.02195 -0.0233,0.04069 -0.03125,0.0625 -0.06274,0.173739 -0.138383,0.367449 -0.21875,0.53125 -0.04158,0.0828 -0.07904,0.169954 -0.125,0.25 -0.0546,0.09721 -0.126774,0.18835 -0.1875,0.28125 -0.09411,0.140965 -0.204921,0.275995 -0.3125,0.40625 -0.143174,0.17445 -0.303141,0.346998 -0.46875,0.5 -0.01117,0.0102 -0.01998,0.02115 -0.03125,0.03125 -0.138386,0.125556 -0.285091,0.234436 -0.4375,0.34375 -0.102571,0.07315 -0.204318,0.153364 -0.3125,0.21875 -0.0074,0.0045 -0.02384,-0.0044 -0.03125,0 -0.232039,0.138728 -0.462548,0.274778 -0.71875,0.375 0.301527,-0.0968 0.596455,-0.204138 0.875,-0.34375 0.55709,-0.279224 1.060053,-0.665694 1.5,-1.09375 0.219973,-0.214028 0.409366,-0.441865 0.59375,-0.6875 0.184384,-0.245635 0.355408,-0.507743 0.5,-0.78125 0.14012,-0.265048 0.276135,-0.524729 0.375,-0.8125 0.01041,-0.03078 0.02133,-0.06274 0.03125,-0.09375 0.09046,-0.278085 0.1388,-0.579404 0.1875,-0.875 C 89.95865,84.6507 90,84.334721 90,84 l 0,-2 0,-68 0,-2 C 90,8.676 87.324,6 84,6 L 12,6 z"
       inkscape:connector-curvature="0"
       id="rect3728"
       style="opacity:0.5;fill:url(#linearGradient4096);fill-opacity:1;fill-rule:nonzero;stroke:none" />
    <path
       d="m 17,12 c -2.752703,0 -5,2.247297 -5,5 l 0,62 c 0,2.752703 2.247298,5 5,5 l 62,0 c 2.752703,0 5.000001,-2.247297 5,-5 l 0,-62 c 0,-2.752703 -2.247297,-5 -5,-5 l -62,0 z m 0,2 62,0 c 1.679298,0 3,1.320703 3,3 l 0,62 c 10e-7,1.679297 -1.320703,3 -3,3 l -62,0 c -1.679296,0 -3,-1.320703 -3,-3 l 0,-62 c 0,-1.679297 1.320703,-3 3,-3 z"
       inkscape:connector-curvature="0"
       id="rect3425"
       style="fill:url(#linearGradient4098);fill-opacity:1;fill-rule:nonzero;stroke:none" />
    <path
       d="M 12,90 C 8.676,90 6,87.324 6,84 L 6,82 6,14 6,12 c 0,-0.334721 0.04135,-0.6507 0.09375,-0.96875 0.0487,-0.295596 0.09704,-0.596915 0.1875,-0.875 C 6.29113,10.12587 6.302142,10.09265 6.3125,10.0625 6.411365,9.774729 6.5473802,9.515048 6.6875,9.25 6.8320918,8.976493 7.0031161,8.714385 7.1875,8.46875 7.3718839,8.223115 7.5612765,7.995278 7.78125,7.78125 8.221197,7.353194 8.72416,6.966724 9.28125,6.6875 9.559795,6.547888 9.8547231,6.440553 10.15625,6.34375 9.9000482,6.443972 9.6695391,6.580022 9.4375,6.71875 c -0.00741,0.0044 -0.023866,-0.0045 -0.03125,0 -0.031933,0.0193 -0.062293,0.04251 -0.09375,0.0625 -0.120395,0.0767 -0.2310226,0.163513 -0.34375,0.25 -0.1061728,0.0808 -0.2132809,0.161112 -0.3125,0.25 C 8.4783201,7.442683 8.3087904,7.626638 8.15625,7.8125 8.0486711,7.942755 7.9378561,8.077785 7.84375,8.21875 7.818661,8.25713 7.805304,8.30462 7.78125,8.34375 7.716487,8.446782 7.6510225,8.548267 7.59375,8.65625 7.4927417,8.850956 7.3880752,9.071951 7.3125,9.28125 7.30454,9.30306 7.288911,9.3218 7.28125,9.34375 7.2494249,9.4357 7.2454455,9.530581 7.21875,9.625 7.1884177,9.731618 7.1483606,9.828031 7.125,9.9375 7.0521214,10.279012 7,10.635705 7,11 l 0,2 0,68 0,2 c 0,2.781848 2.2181517,5 5,5 l 2,0 68,0 2,0 c 2.781848,0 5,-2.218152 5,-5 l 0,-2 0,-68 0,-2 C 89,10.635705 88.94788,10.279012 88.875,9.9375 88.83085,9.730607 88.78662,9.539842 88.71875,9.34375 88.71105,9.3218 88.69545,9.30306 88.6875,9.28125 88.62476,9.107511 88.549117,8.913801 88.46875,8.75 88.42717,8.6672 88.38971,8.580046 88.34375,8.5 88.28915,8.40279 88.216976,8.31165 88.15625,8.21875 88.06214,8.077785 87.951329,7.942755 87.84375,7.8125 87.700576,7.63805 87.540609,7.465502 87.375,7.3125 87.36383,7.3023 87.35502,7.29135 87.34375,7.28125 87.205364,7.155694 87.058659,7.046814 86.90625,6.9375 86.803679,6.86435 86.701932,6.784136 86.59375,6.71875 c -0.0074,-0.0045 -0.02384,0.0044 -0.03125,0 -0.232039,-0.138728 -0.462548,-0.274778 -0.71875,-0.375 0.301527,0.0968 0.596455,0.204138 0.875,0.34375 0.55709,0.279224 1.060053,0.665694 1.5,1.09375 0.219973,0.214028 0.409366,0.441865 0.59375,0.6875 0.184384,0.245635 0.355408,0.507743 0.5,0.78125 0.14012,0.265048 0.276135,0.524729 0.375,0.8125 0.01041,0.03078 0.02133,0.06274 0.03125,0.09375 0.09046,0.278085 0.1388,0.579404 0.1875,0.875 C 89.95865,11.3493 90,11.665279 90,12 l 0,2 0,68 0,2 c 0,3.324 -2.676,6 -6,6 l -72,0 z"
       inkscape:connector-curvature="0"
       id="path3615"
       style="opacity:0.4;fill:url(#radialGradient4100);fill-opacity:1;fill-rule:nonzero;stroke:none" />
    <rect
       width="66"
       height="66"
       rx="12"
       ry="12"
       x="15"
       y="15"
       clip-path="url(#clipPath3613-5)"
       id="rect3171"
       style="opacity:0.1;fill:url(#linearGradient4102);fill-opacity:1;fill-rule:nonzero;stroke:#ffffff;stroke-width:0.5;stroke-linecap:round;stroke-linejoin:miter;stroke-miterlimit:4;stroke-opacity:1;stroke-dasharray:none;stroke-dashoffset:0;filter:url(#filter3794-2)" />
  </g>
</svg>
