<?xml version="1.0" encoding="UTF-8" standalone="no"?>
<!-- Created with Inkscape (http://www.inkscape.org/) -->

<svg
   xmlns:dc="http://purl.org/dc/elements/1.1/"
   xmlns:cc="http://creativecommons.org/ns#"
   xmlns:rdf="http://www.w3.org/1999/02/22-rdf-syntax-ns#"
   xmlns:svg="http://www.w3.org/2000/svg"
   xmlns="http://www.w3.org/2000/svg"
   xmlns:xlink="http://www.w3.org/1999/xlink"
   xmlns:sodipodi="http://sodipodi.sourceforge.net/DTD/sodipodi-0.dtd"
   xmlns:inkscape="http://www.inkscape.org/namespaces/inkscape"
   version="1.0"
   width="250"
   height="250"
   id="svg2"
   sodipodi:version="0.32"
   inkscape:version="0.47pre4 r22446"
   sodipodi:docname="vgrabber.svg"
   inkscape:output_extension="org.inkscape.output.svg.inkscape">
  <metadata
     id="metadata4859">
    <rdf:RDF>
      <cc:Work
         rdf:about="">
        <dc:format>image/svg+xml</dc:format>
        <dc:type
           rdf:resource="http://purl.org/dc/dcmitype/StillImage" />
      </cc:Work>
    </rdf:RDF>
  </metadata>
  <sodipodi:namedview
     inkscape:window-height="535"
     inkscape:window-width="1022"
     inkscape:pageshadow="2"
     inkscape:pageopacity="0.0"
     guidetolerance="10.0"
     gridtolerance="10.0"
     objecttolerance="10.0"
     borderopacity="1.0"
     bordercolor="#666666"
     pagecolor="#ffffff"
     id="base"
     showgrid="false"
     inkscape:zoom="0.24658304"
     inkscape:cx="182.69039"
     inkscape:cy="362.20739"
     inkscape:window-x="0"
     inkscape:window-y="24"
     inkscape:current-layer="svg2"
     showguides="true"
     inkscape:guide-bbox="true"
     inkscape:window-maximized="1" />
  <defs
     id="defs4">
    <linearGradient
       id="linearGradient3304">
      <stop
         id="stop3306"
         style="stop-color:#ff8313;stop-opacity:1"
         offset="0" />
      <stop
         id="stop3308"
         style="stop-color:#ffe400;stop-opacity:1"
         offset="1" />
    </linearGradient>
    <linearGradient
       id="linearGradient3284">
      <stop
         id="stop3286"
         style="stop-color:#ffffff;stop-opacity:0.78431374"
         offset="0" />
      <stop
         id="stop3288"
         style="stop-color:#ffffff;stop-opacity:0.11764706"
         offset="1" />
    </linearGradient>
    <linearGradient
       id="linearGradient3170">
      <stop
         id="stop3172"
         style="stop-color:#323232;stop-opacity:1"
         offset="0" />
      <stop
         id="stop3216"
         style="stop-color:#696969;stop-opacity:1"
         offset="0.32967147" />
      <stop
         id="stop3218"
         style="stop-color:#7f7f7f;stop-opacity:1"
         offset="0.69190311" />
      <stop
         id="stop3212"
         style="stop-color:#b4b4b4;stop-opacity:1"
         offset="1" />
    </linearGradient>
    <linearGradient
       x1="325.5"
       y1="45"
       x2="325.5"
       y2="135"
       id="linearGradient3429"
       xlink:href="#linearGradient3284"
       gradientUnits="userSpaceOnUse"
       gradientTransform="matrix(1.2146893,0,0,1.2146893,-270.38136,-32.302267)" />
    <linearGradient
       x1="322"
       y1="215"
       x2="322"
       y2="43.264011"
       id="linearGradient3432"
       xlink:href="#linearGradient3170"
       gradientUnits="userSpaceOnUse"
       gradientTransform="matrix(1.2146893,0,0,1.2146893,-270.38136,-32.302267)" />
    <linearGradient
       inkscape:collect="always"
       xlink:href="#linearGradient3304"
       id="linearGradient6190"
       x1="342.15942"
       y1="162.68492"
       x2="342.11996"
       y2="56.814766"
       gradientUnits="userSpaceOnUse" />
  </defs>
  <rect
     width="205.28249"
     height="205.28249"
     rx="36.440678"
     ry="36.440678"
     x="22.358757"
     y="22.358751"
     id="rect3168"
     style="fill:url(#linearGradient3432);fill-opacity:1;stroke:#000000;stroke-width:9.71751404;stroke-linejoin:round;stroke-miterlimit:4;stroke-dasharray:none;stroke-opacity:1" />
  <g
     id="g6112"
     transform="matrix(0.93102624,-0.40876941,0.40876941,0.93102624,-298.57195,84.151444)">
    <g
       id="g3474"
       transform="matrix(1.0534319,0.4606928,-0.4606928,1.0534319,50.801398,-67.31124)">
      <path
         style="font-size:40px;font-style:normal;font-weight:bold;fill:url(#linearGradient6190);fill-opacity:1;stroke:#3c3c3c;stroke-width:3.47897553;stroke-linecap:round;stroke-linejoin:round;stroke-miterlimit:4;stroke-opacity:1;stroke-dasharray:none;font-family:Bitstream Vera Sans;-inkscape-font-specification:Bitstream Vera Sans Bold"
         d="m 345.33504,97.781029 c 4.29945,6e-5 7.55951,-0.94488 9.78021,-2.834839 2.22057,-1.889828 3.33088,-4.677424 3.33095,-8.3628 -7e-5,-3.637976 -1.11038,-6.401941 -3.33095,-8.291924 -2.2207,-1.937048 -5.48076,-2.905621 -9.78021,-2.905705 l -15.09555,0 0,22.395268 15.09555,0 m 0.92133,46.278851 c 5.48062,1e-5 9.59115,-1.15755 12.33157,-3.47269 2.78752,-2.31509 4.18133,-5.8114 4.1814,-10.48892 -7e-5,-4.58298 -1.37025,-8.00841 -4.11053,-10.27632 -2.74041,-2.31508 -6.87457,-3.47263 -12.40244,-3.47269 l -16.01688,0 0,27.71062 16.01688,0 m 25.37185,-38.0578 c 5.8586,1.70096 10.39434,4.84291 13.60725,9.42585 3.21273,4.58305 4.81915,10.20549 4.81925,16.86733 -10e-5,10.20547 -3.44916,17.8123 -10.34719,22.82049 -6.89821,5.00824 -17.38712,7.51237 -31.46677,7.51237 l -45.28666,0 0,-105.8106 40.96352,0 c 14.69388,9.8e-5 25.32454,2.220736 31.892,6.661887 6.61454,4.441347 9.92186,11.552082 9.92196,21.332207 -1e-4,5.150043 -1.2049,9.544044 -3.61443,13.182015 -2.40971,3.590871 -5.90601,6.260351 -10.48893,8.008451"
         id="flowRoot6175" />
    </g>
  </g>
  <path
     d="M 58.799436,22.358751 C 38.6113,22.358751 22.358757,38.611294 22.358757,58.79943 L 22.358757,106.47599 C 46.760881,121.86573 83.700858,131.68079 125,131.68079 C 166.29914,131.68079 203.23912,121.86573 227.64125,106.47599 L 227.64125,58.79943 C 227.64125,38.611294 211.38871,22.358751 191.20057,22.358751 L 58.799436,22.358751 z"
     id="rect3404"
     style="fill:url(#linearGradient3429);fill-opacity:1;stroke:none;stroke-width:8;stroke-linejoin:round;stroke-miterlimit:4;stroke-dasharray:none;stroke-opacity:1" />
</svg>
