<?xml version="1.0" encoding="UTF-8" standalone="no"?>
<!-- Created with Inkscape (http://www.inkscape.org/) -->

<svg
   xmlns:dc="http://purl.org/dc/elements/1.1/"
   xmlns:cc="http://creativecommons.org/ns#"
   xmlns:rdf="http://www.w3.org/1999/02/22-rdf-syntax-ns#"
   xmlns:svg="http://www.w3.org/2000/svg"
   xmlns="http://www.w3.org/2000/svg"
   xmlns:xlink="http://www.w3.org/1999/xlink"
   xmlns:sodipodi="http://sodipodi.sourceforge.net/DTD/sodipodi-0.dtd"
   xmlns:inkscape="http://www.inkscape.org/namespaces/inkscape"
   version="1.0"
   width="250"
   height="250"
   id="svg2"
   inkscape:version="0.47pre4 r22446"
   sodipodi:docname="newlife.svg">
  <metadata
     id="metadata203">
    <rdf:RDF>
      <cc:Work
         rdf:about="">
        <dc:format>image/svg+xml</dc:format>
        <dc:type
           rdf:resource="http://purl.org/dc/dcmitype/StillImage" />
      </cc:Work>
    </rdf:RDF>
  </metadata>
  <sodipodi:namedview
     pagecolor="#ffffff"
     bordercolor="#666666"
     borderopacity="1"
     objecttolerance="10"
     gridtolerance="10"
     guidetolerance="10"
     inkscape:pageopacity="0"
     inkscape:pageshadow="2"
     inkscape:window-width="1022"
     inkscape:window-height="535"
     id="namedview201"
     showgrid="false"
     inkscape:zoom="1"
     inkscape:cx="127.34701"
     inkscape:cy="71.102929"
     inkscape:window-x="0"
     inkscape:window-y="24"
     inkscape:window-maximized="1"
     inkscape:current-layer="svg2" />
  <defs
     id="defs4">
    <linearGradient
       id="linearGradient3304">
      <stop
         id="stop3306"
         style="stop-color:#ff8313;stop-opacity:1"
         offset="0" />
      <stop
         id="stop3308"
         style="stop-color:#ffe400;stop-opacity:1"
         offset="1" />
    </linearGradient>
    <linearGradient
       id="linearGradient3284">
      <stop
         id="stop3286"
         style="stop-color:#ffffff;stop-opacity:0.78431374"
         offset="0" />
      <stop
         id="stop3288"
         style="stop-color:#ffffff;stop-opacity:0.11764706"
         offset="1" />
    </linearGradient>
    <linearGradient
       id="linearGradient3170">
      <stop
         id="stop3172"
         style="stop-color:#323232;stop-opacity:1"
         offset="0" />
      <stop
         id="stop3216"
         style="stop-color:#696969;stop-opacity:1"
         offset="0.32967147" />
      <stop
         id="stop3218"
         style="stop-color:#7f7f7f;stop-opacity:1"
         offset="0.69190311" />
      <stop
         id="stop3212"
         style="stop-color:#b4b4b4;stop-opacity:1"
         offset="1" />
    </linearGradient>
    <linearGradient
       x1="325.5"
       y1="45"
       x2="325.5"
       y2="135"
       id="linearGradient3429"
       xlink:href="#linearGradient3284"
       gradientUnits="userSpaceOnUse"
       gradientTransform="matrix(1.2146893,0,0,1.2146893,-270.38136,-32.302267)" />
    <linearGradient
       x1="322"
       y1="215"
       x2="322"
       y2="43.264011"
       id="linearGradient3432"
       xlink:href="#linearGradient3170"
       gradientUnits="userSpaceOnUse"
       gradientTransform="matrix(1.2146893,0,0,1.2146893,-270.38136,-32.302267)" />
    <linearGradient
       id="linearGradient3398">
      <stop
         id="stop3400"
         style="stop-color:#ff8313;stop-opacity:1"
         offset="0" />
      <stop
         id="stop3402"
         style="stop-color:#ffe400;stop-opacity:1"
         offset="1" />
    </linearGradient>
    <linearGradient
       x1="79.31459"
       y1="191.99982"
       x2="115.90786"
       y2="92.015564"
       id="linearGradient3911"
       xlink:href="#linearGradient3304"
       gradientUnits="userSpaceOnUse"
       gradientTransform="matrix(0.4944881,0,0,0.4944881,-9.0011436,-49.383341)" />
    <linearGradient
       x1="118.5088"
       y1="123.89969"
       x2="127.97269"
       y2="103.65276"
       id="linearGradient3913"
       xlink:href="#linearGradient3304"
       gradientUnits="userSpaceOnUse"
       gradientTransform="matrix(0.4944881,0,0,0.4944881,-9.0011436,-49.383341)" />
    <linearGradient
       x1="11.198683"
       y1="9.5646152"
       x2="14.851925"
       y2="15.058491"
       id="linearGradient3915"
       xlink:href="#linearGradient3398"
       gradientUnits="userSpaceOnUse"
       gradientTransform="matrix(1.331937,0,0,1.331937,5.4309454,-4.2301758)" />
    <linearGradient
       inkscape:collect="always"
       xlink:href="#linearGradient3284"
       id="linearGradient3626"
       gradientUnits="userSpaceOnUse"
       gradientTransform="matrix(-1.9657289,-3.05532,3.05532,-1.9657289,108.29293,196.06202)"
       x1="23.180553"
       y1="11.2562"
       x2="7.4736471"
       y2="12.857242" />
    <linearGradient
       inkscape:collect="always"
       xlink:href="#linearGradient3170"
       id="linearGradient2844"
       gradientUnits="userSpaceOnUse"
       gradientTransform="matrix(1.2146893,0,0,1.2146893,-270.38136,-32.302267)"
       x1="322"
       y1="215"
       x2="322"
       y2="43.264011" />
    <linearGradient
       inkscape:collect="always"
       xlink:href="#linearGradient3304"
       id="linearGradient2847"
       gradientUnits="userSpaceOnUse"
       gradientTransform="matrix(0.4944881,0,0,0.4944881,-9.0011436,-49.383341)"
       x1="79.31459"
       y1="191.99982"
       x2="115.90786"
       y2="92.015564" />
    <linearGradient
       inkscape:collect="always"
       xlink:href="#linearGradient3304"
       id="linearGradient2850"
       gradientUnits="userSpaceOnUse"
       gradientTransform="matrix(0.4944881,0,0,0.4944881,-9.0011436,-49.383341)"
       x1="118.5088"
       y1="123.89969"
       x2="127.97269"
       y2="103.65276" />
    <linearGradient
       inkscape:collect="always"
       xlink:href="#linearGradient3398"
       id="linearGradient2853"
       gradientUnits="userSpaceOnUse"
       gradientTransform="matrix(1.331937,0,0,1.331937,5.4309454,-4.2301758)"
       x1="11.198683"
       y1="9.5646152"
       x2="14.851925"
       y2="15.058491" />
    <linearGradient
       inkscape:collect="always"
       xlink:href="#linearGradient3284"
       id="linearGradient2856"
       gradientUnits="userSpaceOnUse"
       gradientTransform="matrix(1.331937,0,0,1.331937,5.430945,-4.2301746)"
       x1="23.180553"
       y1="11.2562"
       x2="7.4736471"
       y2="12.857242" />
    <linearGradient
       inkscape:collect="always"
       xlink:href="#linearGradient3284"
       id="linearGradient2859"
       gradientUnits="userSpaceOnUse"
       gradientTransform="matrix(1.2146893,0,0,1.2146893,-270.38136,-32.302267)"
       x1="325.5"
       y1="45"
       x2="325.5"
       y2="135" />
  </defs>
  <path
     style="fill:url(#linearGradient2844);fill-opacity:1;stroke:#000000;stroke-width:9.71751404;stroke-linejoin:round;stroke-miterlimit:4;stroke-opacity:1;stroke-dasharray:none"
     d="m 58.799435,22.358751 c 44.760425,0.03136 89.522425,-0.06281 134.281865,0.04724 20.02253,0.435609 36.47789,19.63541 34.55994,39.433998 -0.12259,44.363682 0.24674,88.742822 -0.18745,133.096722 -1.44447,19.56088 -20.59464,34.71876 -39.9019,32.70453 -44.16098,-0.12258 -88.337405,0.24671 -132.488603,-0.18746 C 35.502405,226.00932 20.344527,206.85915 22.358757,187.55189 22.48133,143.39091 22.112045,99.21448 22.546209,55.063281 24.05157,36.882357 40.551792,21.998123 58.799435,22.358751 z"
     id="rect3168" />
  <g
     transform="matrix(2.1484487,-1.0042357,1.0042357,2.1484487,13.087628,121.84043)"
     id="g3870">
    <path
       style="fill:url(#linearGradient2847);fill-opacity:1;stroke:#3c3c3c;stroke-width:2.29349875;stroke-linecap:round;stroke-linejoin:round;stroke-miterlimit:4;stroke-opacity:1;stroke-dasharray:none;stroke-dashoffset:7.99999924"
       d="m 46.624871,-8.0250583 c 5.62965,5.6292686 11.2593,11.2585373 16.88895,16.8878059 -2e-6,13.1846974 -3e-6,26.3693954 -5e-6,39.5540924 -1.135176,1.053793 -3.29746,0.236209 -4.858859,0.494488 -12.585831,0 -25.171662,0 -37.757493,0 -1.053794,-1.135182 -0.236211,-3.297462 -0.494489,-4.858864 0,-17.194345 0,-34.3886897 0,-51.5830343 1.135184,-1.0537924 3.297463,-0.23621 4.858865,-0.494488 7.121011,0 14.242021,0 21.363031,0 z"
       id="path3274" />
    <path
       style="fill:url(#linearGradient2850);fill-opacity:1;stroke:#3c3c3c;stroke-width:1.9779526;stroke-linecap:round;stroke-linejoin:round;stroke-miterlimit:4;stroke-opacity:1;stroke-dashoffset:7.99999924"
       d="m 46.168107,-8.1828313 c 5.834499,5.7901871 11.668997,11.5803743 17.503496,17.3705614 -5.834499,0 -11.668997,0 -17.503496,0 0,-5.7901871 0,-11.5803743 0,-17.3705614 z"
       id="rect3286" />
    <g
       transform="matrix(-0.15418089,-1.1397648,1.1397648,-0.15418089,28.774028,50.889012)"
       id="g3849">
      <path
         style="fill:url(#linearGradient2853);fill-opacity:1;stroke:#000000;stroke-width:0.97961253;stroke-linecap:round;stroke-linejoin:round;stroke-miterlimit:4;stroke-opacity:1;stroke-dasharray:none;stroke-dashoffset:7.99999924"
         d="M 33.588827,2.9120416 C 29.710273,-0.04045117 23.440024,2.7409917 23.046151,7.6050715 c 0.505505,1.9968322 -1.921331,2.2184707 -3.126119,3.1986525 -4.071949,2.396185 -8.228521,4.659262 -12.2463729,7.140538 -3.76454,2.857935 1.3665324,7.449739 4.3551449,4.33938 4.692433,-2.709177 9.384866,-5.418355 14.077299,-8.127532 3.988932,2.81194 10.154271,-0.203295 10.364306,-5.0845476 C 36.606471,7.18438 34.075398,10.007958 32.902736,10.161981 28.545423,11.993202 27.134338,5.2536615 31.322293,4.2206257 32.077804,3.784431 32.833316,3.3482363 33.588827,2.9120416 z"
         id="rect3383" />
      <path
         style="fill:url(#linearGradient2856);fill-opacity:1;stroke:none"
         d="M 35.463451,12.062684 C 36.852133,10.018552 36.977443,6.9576364 34.363232,9.3865538 31.745284,12.124536 26.563693,8.8018031 29.482111,5.5521626 30.1488,4.2944388 33.591785,3.6579166 33.18677,2.6569626 29.1116,-0.01553071 23.063885,3.2072851 22.997096,8.0764881 c -0.30474,1.8761832 -3.366603,2.3715439 -2.858409,5.1298049 -0.41214,1.974611 -1.275727,6.073061 1.503681,3.529806 1.487075,-0.858655 2.97415,-1.71731 4.461225,-2.575965 3.034565,2.014615 7.483219,1.062758 9.359858,-2.09745 z"
         id="path3624" />
    </g>
  </g>
  <path
     style="fill:url(#linearGradient2859);fill-opacity:1;stroke:none"
     d="M 58.799436,22.358751 C 38.347618,21.72855 20.578998,40.930779 22.358757,61.231877 c 0,15.081371 0,30.162742 0,45.244113 35.667212,21.50502 78.828053,26.965 119.782963,24.6343 29.70881,-2.16301 59.88644,-8.86814 85.49953,-24.6343 -0.23284,-17.742159 0.49415,-35.531611 -0.41838,-53.240554 -2.37927,-18.790419 -21.02509,-32.768362 -39.67097,-30.876685 -42.91749,0 -85.83498,0 -128.752464,0 z"
     id="rect3404" />
</svg>
