<?xml version="1.0" encoding="utf-8"?>
<!-- Generator: Adobe Illustrator 15.1.0, SVG Export Plug-In . SVG Version: 6.00 Build 0)  -->
<!DOCTYPE svg PUBLIC "-//W3C//DTD SVG 1.1//EN" "http://www.w3.org/Graphics/SVG/1.1/DTD/svg11.dtd">
<svg version="1.1" id="Layer_1" xmlns="http://www.w3.org/2000/svg" xmlns:xlink="http://www.w3.org/1999/xlink" x="0px" y="0px"
	 width="63.82px" height="63.82px" viewBox="0 0 63.82 63.82" enable-background="new 0 0 63.82 63.82" xml:space="preserve">
<path fill-rule="evenodd" clip-rule="evenodd" fill="#809BBF" d="M53.208,11.667c7.693,5.656,5.458,20.485-4.972,33.115
	C37.82,57.412,23.132,63.066,15.438,57.41c-7.07-5.204-5.762-18.171,2.615-30.046h1.764c-8.15,11.102-9.451,22.643-2.586,27.686
	c6.865,5.042,20.747,0.639,30.341-10.97c5.748-6.959,8.311-14.646,8.311-20.807c0-1.491-0.183-2.896-0.563-4.183
	c-0.654-2.248-1.855-4.121-3.665-5.445c-1.231-0.909-2.661-1.5-4.242-1.795c-4.699-1.162-10.933-0.301-16.908,2.677
	C18.541,20.344,12.763,29.926,6.589,41.25c3.862-13.03,16.156-28.084,31.092-31.439C42.674,8.69,48.895,8.496,53.208,11.667
	L53.208,11.667z M46.103,15.598c-6.965-2.417-18.454,2.041-25.656,9.956c-0.291,0.319-0.569,0.64-0.837,0.96l1.601-0.388
	c0.053-0.06,0.105-0.118,0.159-0.179c3.967-4.365,9.113-7.426,14.169-8.826c1.218-0.35,2.424-0.582,3.599-0.688
	c2.037-0.203,3.94-0.047,5.572,0.521c1.119,0.389,2.037,0.945,2.756,1.638c2.374,2,3.396,5.206,2.766,8.774
	c-1.605,7.095-5.672,11.596-11.979,16.998C48.575,39.753,57.94,20.751,46.103,15.598L46.103,15.598z"/>
<polygon fill-rule="evenodd" clip-rule="evenodd" fill="#FFFFFF" points="9.529,18.583 10.464,15.733 12.292,13.225 14.716,11.226 
	16.927,9.696 18.968,9.143 20.966,8.76 23.943,12.544 21.859,13.012 18.926,14.032 17.055,15.393 14.971,17.094 12.93,20.325 
	12.462,23.004 9.529,18.583 "/>
<polygon fill-rule="evenodd" clip-rule="evenodd" fill="#B4BCCE" points="9.529,18.583 10.464,15.733 12.292,13.225 13.963,11.848 
	16.72,15.667 14.971,17.094 12.93,20.325 12.462,23.004 9.529,18.583 "/>
<polygon fill-rule="evenodd" clip-rule="evenodd" fill="#F2A4A3" stroke="#000000" stroke-width="0.216" stroke-miterlimit="22.9256" points="
	11.314,9.27 9.188,12.332 8.253,14.458 8.21,16.286 9.146,18.497 9.699,17.944 10.421,15.563 12.845,12.799 14.929,11.014 
	16.757,9.908 19.011,9.1 20.966,9.057 19.351,6.676 15.992,6.804 12.973,8.122 11.314,9.27 "/>
<polygon fill-rule="evenodd" clip-rule="evenodd" fill="#78ABCE" points="16.587,15.819 14.886,17.391 13.61,18.965 12.888,20.581 
	12.462,21.899 12.462,23.344 21.094,34.74 24.155,38.183 24.921,38.183 25.771,37.036 26.749,35.292 27.217,33.846 27.217,32.401 
	26.962,30.02 26.367,28.829 16.587,15.819 "/>
<polygon fill-rule="evenodd" clip-rule="evenodd" fill="#B3CDE2" points="24.21,12.905 22.735,12.948 20.425,13.461 18.287,14.338 
	17.133,15.324 16.662,15.817 26.877,29.68 28.337,30.397 31.587,30.911 34.217,30.526 35.329,29.948 36.142,29.005 35.585,27.314 
	24.21,12.905 "/>
<path fill-rule="evenodd" clip-rule="evenodd" fill="#FED99E" stroke="#26467C" stroke-width="0.7087" stroke-linecap="round" stroke-linejoin="round" stroke-miterlimit="22.9256" d="
	M26.79,29.573c1.316,0.864,2.891,1.365,4.583,1.365c1.751,0,3.376-0.538,4.72-1.459l2.276,14.6l-13.629-5.692
	c1.564-1.52,2.537-3.645,2.537-5.997C27.277,31.401,27.105,30.454,26.79,29.573L26.79,29.573z"/>
<path fill="none" stroke="#26467C" stroke-width="0.7087" stroke-linecap="round" stroke-linejoin="round" stroke-miterlimit="22.9256" d="
	M21.606,9.29c-4.236-1.394-12.305,4.753-11.864,9.953"/>
<path fill-rule="evenodd" clip-rule="evenodd" fill="#26467C" d="M33.704,42.13c0.515-1.772,1.985-3.138,3.816-3.502l0.85,5.45
	L33.704,42.13L33.704,42.13z"/>
<path fill="none" stroke="#26467C" stroke-width="0.7087" stroke-linecap="round" stroke-linejoin="round" stroke-miterlimit="22.9256" d="
	M24.318,13.132c-4.236-1.394-12.305,4.753-11.864,9.954 M16.618,15.807l10.339,13.877"/>
<path fill="none" stroke="#26467C" stroke-width="1.4173" stroke-linecap="round" stroke-linejoin="round" stroke-miterlimit="22.9256" d="
	M8.592,17.713L23.865,38.02l14.505,6.059l-2.475-15.871L20.623,7.987C17.45,3.146,5.344,11.956,8.592,17.713L8.592,17.713z"/>
</svg>
