<?xml version="1.0" encoding="UTF-8"?>
<svg version="1.0" viewBox="0 0 96 96" xmlns="http://www.w3.org/2000/svg" xmlns:xlink="http://www.w3.org/1999/xlink">
 <defs>
  <linearGradient id="a" x1="45.448" x2="45.448" y1="92.54" y2="7.0165" gradientTransform="scale(1.0059 .99417)" gradientUnits="userSpaceOnUse">
   <stop offset="0"/>
   <stop stop-opacity=".58824" offset="1"/>
  </linearGradient>
  <filter id="l" color-interpolation-filters="sRGB">
   <feGaussianBlur stdDeviation="1.71"/>
  </filter>
  <clipPath id="m">
   <rect x="6" y="6" width="84" height="84" rx="6" ry="6" fill="#fff"/>
  </clipPath>
  <filter id="i" x="-.192" y="-.192" width="1.384" height="1.384" color-interpolation-filters="sRGB">
   <feGaussianBlur stdDeviation="5.28"/>
  </filter>
  <linearGradient id="h" x1="48" x2="48" y1="90" y2="5.9877" gradientUnits="userSpaceOnUse">
   <stop stop-color="#b4b4b4" offset="0"/>
   <stop stop-color="#e6e6e6" offset="1"/>
  </linearGradient>
  <linearGradient id="g" x1="36.357" x2="36.357" y1="6" y2="63.893" gradientUnits="userSpaceOnUse">
   <stop stop-color="#fff" offset="0"/>
   <stop stop-color="#fff" stop-opacity="0" offset="1"/>
  </linearGradient>
  <linearGradient id="f" x1="43.179" x2="43.179" y1="13" y2="83.295" gradientTransform="matrix(1.0294 0 0 1.0294 -1.4118 -1.4118)" gradientUnits="userSpaceOnUse">
   <stop stop-color="#919191" offset="0"/>
   <stop stop-color="#fdfdfd" offset="1"/>
  </linearGradient>
  <radialGradient id="c" cx="48" cy="90.172" r="42" gradientTransform="matrix(1.1573 0 0 .99591 -7.551 .19713)" gradientUnits="userSpaceOnUse">
   <stop stop-color="#fff" offset="0"/>
   <stop stop-color="#fff" stop-opacity="0" offset="1"/>
  </radialGradient>
  <linearGradient id="e" x1="48" x2="48" y1="20.221" y2="138.66" gradientUnits="userSpaceOnUse">
   <stop stop-color="#fff" offset="0"/>
   <stop stop-color="#fff" stop-opacity="0" offset="1"/>
  </linearGradient>
  <radialGradient id="b" cx="47.098" cy="78.287" r="38.957" gradientTransform="matrix(1.383 -1.035e-8 0 1.3124 -17.141 -23.729)" gradientUnits="userSpaceOnUse">
   <stop stop-color="#42394b" offset="0"/>
   <stop offset="1"/>
  </radialGradient>
  <filter id="j" color-interpolation-filters="sRGB">
   <feGaussianBlur stdDeviation="1.71"/>
  </filter>
  <linearGradient id="d" x1="47.4" x2="47.7" y1="7.9" y2="117" gradientTransform="matrix(.92308 0 0 .92308 -152.48 6.5692)" gradientUnits="userSpaceOnUse">
   <stop stop-color="#f60" offset="0"/>
   <stop stop-color="#ff1e00" offset="1"/>
  </linearGradient>
  <filter id="k" color-interpolation-filters="sRGB">
   <feGaussianBlur stdDeviation="1.71"/>
  </filter>
 </defs>
 <g transform="translate(93.107 40.264)" display="none">
  <rect x="5" y="7" width="86" height="85" rx="6" ry="6" fill="url(#a)" filter="url(#j)" opacity=".9"/>
 </g>
 <path d="m17.898 14.49c-1.662 0-3 1.338-3 3v62c0 1.662 1.338 3 3 3h62c1.662 0 3-1.338 3-3v-62c0-1.662-1.338-3-3-3h-62zm0 0.96875h62c1.1401 0 2.0312 0.89117 2.0312 2.0312v62c0 1.1401-0.89117 2.0312-2.0312 2.0312h-62c-1.1401 0-2.0312-0.89117-2.0312-2.0312v-62c0-1.1401 0.89117-2.0312 2.0312-2.0312z" color="#000000" opacity=".6"/>
 <g display="none">
  <rect x="5" y="7" width="86" height="85" rx="6" ry="6" fill="url(#a)" filter="url(#l)" opacity=".9"/>
 </g>
 <rect x="9.0392" y="8.744" width="77.915" height="78.516" rx="5.8528" ry="6.1733" fill="url(#b)"/>
 <path d="m19.898 13.49c-3.2894 0-6 2.7106-6 6v58c0 3.2894 2.7106 6 6 6h58c3.2894 0 6-2.7106 6-6v-58c0-3.2894-2.7106-6-6-6h-58zm0 4h58c1.1426 0 2 0.85741 2 2v58c0 1.1426-0.85741 2-2 2h-58c-1.1426 0-2-0.85741-2-2v-58c0-1.1426 0.85741-2 2-2z" color="#000000" opacity=".15" style="block-progression:tb;text-indent:0;text-transform:none"/>
 <path d="m17.898 14.49c-1.662 0-3 1.338-3 3v62c0 1.662 1.338 3 3 3h62c1.662 0 3-1.338 3-3v-62c0-1.662-1.338-3-3-3h-62zm0 1.9375h62c0.61816 0 1.0625 0.44434 1.0625 1.0625v62c0 0.61816-0.44434 1.0625-1.0625 1.0625h-62c-0.61816 0-1.0625-0.44434-1.0625-1.0625v-62c0-0.61816 0.44434-1.0625 1.0625-1.0625z" color="#000000" opacity=".3"/>
 <g transform="matrix(1.248 0 0 1.248 176.67 -9.1584)">
  <g display="none">
   <rect x="5" y="7" width="86" height="85" rx="6" ry="6" fill="url(#a)" filter="url(#k)" opacity=".9"/>
  </g>
  <path d="m-107.72 22.262c-3.3137 0-6 1.8597-6 4.1538 0.0964 0.85588 0.63746 1.9366 0.92307 2.3077 1.3846 1.8462 1.3846 3 1.0385 3.6923h-11.192c-2.0455 0-3.6923 1.6468-3.6923 3.6923v9.3462c0.69231 0.34615 1.8462 0.34615 3.6923-1.0385 0.37105-0.28561 1.4518-0.82668 2.3077-0.92308 2.2941 0 4.1538 2.6863 4.1538 6 0 3.3137-1.8597 6-4.1538 6-0.70409-0.01191-1.7745-0.64163-2.3077-0.92308-1.8462-1.3846-3-1.3846-3.6923-1.0385v12.115c0 2.0455 1.6468 3.6923 3.6923 3.6923h14.885c0.34616-0.69231 0.34616-1.8462-1.0385-3.6923-0.28561-0.37105-0.82668-1.4518-0.92308-2.3077 0-2.2941 2.6863-4.1538 6-4.1538 3.3137 0 6 1.8597 6 4.1538-0.01191 0.70409-0.64163 1.7745-0.92308 2.3077-1.3846 1.8462-1.3846 3-1.0385 3.6923h6.5769c2.0455 0 3.6923-1.6468 3.6923-3.6923v-10.269c0.69231-0.34615 1.8462-0.34615 3.6923 1.0385 0.5332 0.28145 1.6036 0.91115 2.3077 0.92308 2.2941 0 4.1538-2.6863 4.1538-6 0-3.3137-1.8597-6-4.1538-6-0.85588 0.0964-1.9366 0.63747-2.3077 0.92308-1.8462 1.3846-3 1.3846-3.6923 1.0385v-11.192c0-2.0455-1.6468-3.6923-3.6923-3.6923h-10.269c-0.34616-0.69231-0.34616-1.8462 1.0385-3.6923 0.28144-0.5332 0.91115-1.6036 0.92307-2.3077 0-2.2941-2.6863-4.1538-6-4.1538z" color="#000000" fill="url(#d)" stroke="#000"/>
 </g>
 <path d="m14.898 8.7395c-3.2424 0-5.8438 2.7675-5.8438 6.1875v49.062c18.824-13.859 45.812-23.794 77.906-21.781v-27.281c0-3.42-2.6326-6.1875-5.875-6.1875h-66.188z" fill="#d9c6ed" opacity=".08"/>
 <g>
  <path d="m12 6c-3.324 0-6 2.676-6 6v72c0 3.324 2.676 6 6 6h72c3.324 0 6-2.676 6-6v-72c0-3.324-2.676-6-6-6h-72zm5 7h62c2.216 0 4 1.784 4 4v62c1e-6 2.216-1.784 4-4 4h-62c-2.216 1e-6 -4-1.784-4-4v-62c0-2.216 1.784-4 4-4z" fill="url(#h)"/>
  <path d="m12 6c-3.324 0-6 2.676-6 6v2 68 2c0 0.33472 0.04135 0.6507 0.09375 0.96875 0.0487 0.2956 0.09704 0.59692 0.1875 0.875 0.00988 0.03038 0.020892 0.0636 0.03125 0.09375 0.098865 0.28777 0.23488 0.54745 0.375 0.8125 0.14459 0.27351 0.31562 0.53562 0.5 0.78125s0.37378 0.47347 0.59375 0.6875c0.43995 0.42806 0.94291 0.81453 1.5 1.0938 0.27854 0.13961 0.57347 0.24695 0.875 0.34375-0.2562-0.10022-0.48671-0.23627-0.71875-0.375-0.00741-0.0044-0.023866 0.0045-0.03125 0-0.031933-0.0193-0.062293-0.04251-0.09375-0.0625-0.1204-0.0767-0.23102-0.16351-0.34375-0.25-0.10617-0.0808-0.21328-0.16111-0.3125-0.25-0.17793-0.16143-0.34746-0.34539-0.5-0.53125-0.10758-0.13026-0.21839-0.26528-0.3125-0.40625-0.025089-0.03838-0.038446-0.08587-0.0625-0.125-0.064763-0.10303-0.13023-0.20452-0.1875-0.3125-0.10101-0.19471-0.20567-0.4157-0.28125-0.625-0.00796-0.02181-0.023589-0.04055-0.03125-0.0625-0.031825-0.09195-0.035804-0.18683-0.0625-0.28125-0.030332-0.10662-0.070389-0.20303-0.09375-0.3125-0.072879-0.34151-0.125-0.6982-0.125-1.0625v-2-68-2c0-2.7818 2.2182-5 5-5h2 68 2c2.7818 0 5 2.2182 5 5v2 68 2c0 0.3643-0.05212 0.72099-0.125 1.0625-0.04415 0.20689-0.08838 0.39766-0.15625 0.59375-0.0077 0.02195-0.0233 0.04069-0.03125 0.0625-0.06274 0.17374-0.13838 0.36745-0.21875 0.53125-0.04158 0.0828-0.07904 0.16995-0.125 0.25-0.0546 0.09721-0.12677 0.18835-0.1875 0.28125-0.09411 0.14096-0.20492 0.276-0.3125 0.40625-0.14317 0.17445-0.30314 0.347-0.46875 0.5-0.01117 0.0102-0.01998 0.02115-0.03125 0.03125-0.13839 0.12556-0.28509 0.23444-0.4375 0.34375-0.10257 0.07315-0.20432 0.15336-0.3125 0.21875-0.0074 0.0045-0.02384-0.0044-0.03125 0-0.23204 0.13873-0.46255 0.27478-0.71875 0.375 0.30153-0.0968 0.59646-0.20414 0.875-0.34375 0.55709-0.27922 1.0601-0.66569 1.5-1.0938 0.21997-0.21403 0.40937-0.44186 0.59375-0.6875s0.35541-0.50774 0.5-0.78125c0.14012-0.26505 0.27614-0.52473 0.375-0.8125 0.01041-0.03078 0.02133-0.06274 0.03125-0.09375 0.09046-0.27808 0.1388-0.5794 0.1875-0.875 0.0524-0.31805 0.09375-0.63403 0.09375-0.96875v-2-68-2c0-3.324-2.676-6-6-6h-72z" fill="url(#g)" opacity=".5"/>
  <path d="m17 12c-2.7527 0-5 2.2473-5 5v62c0 2.7527 2.2473 5 5 5h62c2.7527 0 5-2.2473 5-5v-62c0-2.7527-2.2473-5-5-5h-62zm0 2h62c1.6793 0 3 1.3207 3 3v62c1e-6 1.6793-1.3207 3-3 3h-62c-1.6793 0-3-1.3207-3-3v-62c0-1.6793 1.3207-3 3-3z" fill="url(#f)"/>
  <path d="m12 90c-3.324 0-6-2.676-6-6v-2-68-2c0-0.33472 0.04135-0.6507 0.09375-0.96875 0.0487-0.2956 0.09704-0.59692 0.1875-0.875 0.00988-0.03038 0.020892-0.0636 0.03125-0.09375 0.098865-0.28777 0.23488-0.54745 0.375-0.8125 0.14459-0.27351 0.31562-0.53562 0.5-0.78125s0.37378-0.47347 0.59375-0.6875c0.43995-0.42806 0.94291-0.81453 1.5-1.0938 0.27854-0.13961 0.57347-0.24695 0.875-0.34375-0.2562 0.10022-0.48671 0.23627-0.71875 0.375-0.00741 0.0044-0.023866-0.0045-0.03125 0-0.031933 0.0193-0.062293 0.04251-0.09375 0.0625-0.1204 0.0767-0.23102 0.16351-0.34375 0.25-0.10617 0.0808-0.21328 0.16111-0.3125 0.25-0.17793 0.16143-0.34746 0.34539-0.5 0.53125-0.10758 0.13026-0.21839 0.26528-0.3125 0.40625-0.025089 0.03838-0.038446 0.08587-0.0625 0.125-0.064763 0.10303-0.13023 0.20452-0.1875 0.3125-0.10101 0.19471-0.20567 0.4157-0.28125 0.625-0.00796 0.02181-0.023589 0.04055-0.03125 0.0625-0.031825 0.09195-0.035804 0.18683-0.0625 0.28125-0.030332 0.10662-0.070389 0.20303-0.09375 0.3125-0.072879 0.34151-0.125 0.6982-0.125 1.0625v2 68 2c0 2.7818 2.2182 5 5 5h2 68 2c2.7818 0 5-2.2182 5-5v-2-68-2c0-0.3643-0.05212-0.72099-0.125-1.0625-0.04415-0.20689-0.08838-0.39766-0.15625-0.59375-0.0077-0.02195-0.0233-0.04069-0.03125-0.0625-0.06274-0.17374-0.13838-0.36745-0.21875-0.53125-0.04158-0.0828-0.07904-0.16995-0.125-0.25-0.0546-0.09721-0.12677-0.18835-0.1875-0.28125-0.09411-0.14096-0.20492-0.276-0.3125-0.40625-0.14317-0.17445-0.30314-0.347-0.46875-0.5-0.01117-0.0102-0.01998-0.02115-0.03125-0.03125-0.13839-0.12556-0.28509-0.23444-0.4375-0.34375-0.10257-0.07315-0.20432-0.15336-0.3125-0.21875-0.0074-0.0045-0.02384 0.0044-0.03125 0-0.23204-0.13873-0.46255-0.27478-0.71875-0.375 0.30153 0.0968 0.59646 0.20414 0.875 0.34375 0.55709 0.27922 1.0601 0.66569 1.5 1.0938 0.21997 0.21403 0.40937 0.44186 0.59375 0.6875s0.35541 0.50774 0.5 0.78125c0.14012 0.26505 0.27614 0.52473 0.375 0.8125 0.01041 0.03078 0.02133 0.06274 0.03125 0.09375 0.09046 0.27808 0.1388 0.5794 0.1875 0.875 0.0524 0.31805 0.09375 0.63403 0.09375 0.96875v2 68 2c0 3.324-2.676 6-6 6h-72z" fill="url(#c)" opacity=".4"/>
  <rect x="15" y="15" width="66" height="66" rx="12" ry="12" clip-path="url(#m)" fill="url(#e)" filter="url(#i)" opacity=".1" stroke="#fff" stroke-linecap="round" stroke-width=".5"/>
 </g>
</svg>
