<?xml version="1.0" encoding="UTF-8" standalone="no"?>
<!-- Created with Inkscape (http://www.inkscape.org/) -->

<svg
   width="1000"
   height="600"
   id="svg2"
   version="1.1"
   viewBox="0 0 500 300"
   xmlns:xlink="http://www.w3.org/1999/xlink"
   xmlns="http://www.w3.org/2000/svg"
   xmlns:svg="http://www.w3.org/2000/svg"
   xmlns:rdf="http://www.w3.org/1999/02/22-rdf-syntax-ns#"
   xmlns:cc="http://creativecommons.org/ns#"
   xmlns:dc="http://purl.org/dc/elements/1.1/">
  <defs
     id="defs4">
    <pattern
       patternUnits="userSpaceOnUse"
       width="100"
       height="87"
       preserveAspectRatio="xMidYMid"
       patternTransform="translate(1,1) scale(0.3,0.3)"
       style="fill:#5c2300"
       id="pattern168">
      <path
         id="path27"
         style="stroke:none"
         d="M 23.246093,0 0,13.382812 V 44.689453 L 0.0839844,44.640625 24.033203,58.505859 24.001953,86.332031 22.841796,87 h 4.478516 L 26.068359,86.275391 26.099609,58.449219 50.083984,44.640625 74.033203,58.505859 74.001953,86.332031 72.841796,87 h 4.478516 L 76.068359,86.275391 76.099609,58.449219 100,44.689453 V 13.365234 L 76.919921,0 H 73.246093 L 50.015625,13.373047 26.919921,0 Z M 25.083984,1.25 49.033203,15.115234 49.001953,42.941406 25.017578,56.75 1.0019531,42.845703 l 0.033203,-27.75 z m 50,0 24.017576,13.904297 -0.0352,27.75 L 75.017578,56.75 51.068359,42.884766 51.099609,15.058594 Z" />
    </pattern>
    <linearGradient
       id="swatch165">
      <stop
         style="stop-color:#000000;stop-opacity:1;"
         offset="0"
         id="stop165" />
    </linearGradient>
    <linearGradient
       id="swatch3">
      <stop
         style="stop-color:#000000;stop-opacity:1;"
         offset="0"
         id="stop3" />
    </linearGradient>
    <linearGradient
       id="linearGradient4017">
      <stop
         id="stop4019"
         offset="0"
         style="stop-color:#ff6600;stop-opacity:1;" />
      <stop
         id="stop4021"
         offset="1"
         style="stop-color:#ff1e00;stop-opacity:1;" />
    </linearGradient>
    <linearGradient
       xlink:href="#linearGradient4017"
       id="linearGradient6128"
       x1="260.44757"
       y1="947.44672"
       x2="259.58569"
       y2="1039.1141"
       gradientUnits="userSpaceOnUse"
       gradientTransform="translate(0,14.88218)" />
    <linearGradient
       xlink:href="#linearGradient4017"
       id="linearGradient20"
       x1="55.858398"
       y1="81.03363"
       x2="55.858398"
       y2="294.31012"
       gradientUnits="userSpaceOnUse" />
  </defs>
  <metadata
     id="metadata7">
    <rdf:RDF>
      <cc:Work
         rdf:about="">
        <dc:format>image/svg+xml</dc:format>
        <dc:type
           rdf:resource="http://purl.org/dc/dcmitype/StillImage" />
      </cc:Work>
    </rdf:RDF>
  </metadata>
  <g
     id="layer4">
    <rect
       style="display:inline;fill:#000000;fill-opacity:1;fill-rule:nonzero"
       id="rect16"
       width="500"
       height="300"
       x="0"
       y="0"
       rx="10"
       ry="10" />
    <rect
       style="opacity:1;mix-blend-mode:normal;fill:url(#pattern168);fill-rule:evenodd"
       id="rect18"
       width="500"
       height="300"
       x="0"
       y="0"
       rx="10"
       ry="10" />
  </g>
  <g
     id="layer1"
     transform="translate(0,-752.36218)"
     style="display:inline">
    <path
       style="display:inline;fill:url(#linearGradient6128);fill-opacity:1;fill-rule:evenodd;stroke:none"
       d="m 352,962.36218 c -22.38163,13.02463 -40.69984,23.46237 -60,35 H -1.9999999e-7 v 25.00002 H 300 c -0.009,-0.028 11.56947,-6.8882 60,-35.00002 51.58043,-0.17884 140,0 140,0 v -25 z"
       id="rect3037" />
    <path
       style="font-size:71.9938px;font-family:Quantico;-inkscape-font-specification:Quantico;font-variant-ligatures:no-common-ligatures;font-variant-caps:small-caps;font-variant-numeric:diagonal-fractions;font-feature-settings:'cv37';white-space:pre;shape-padding:13.75;fill:url(#linearGradient20)"
       d="M 75.729442,149.14388 V 98.748219 h 7.199379 v 43.916221 h 18.646389 v 6.47944 z m 62.202648,-6.26346 v 6.26346 h -20.08627 l -8.35128,-4.82359 v -26.7097 l 8.35128,-4.82358 h 11.73499 l 8.35128,4.82358 v 15.98263 h -21.45415 v 9.2872 z m -21.45415,-23.82995 v 8.27929 h 14.47075 v -8.27929 z m 61.41073,23.82995 v 6.26346 H 157.8024 l -8.35128,-4.82359 v -26.7097 l 8.35128,-4.82358 h 11.73499 l 8.35128,4.82358 v 15.98263 h -21.45415 v 9.2872 z m -21.45415,-23.82995 v 8.27929 h 14.47076 v -8.27929 z m 39.95658,0.35997 v 23.46998 h 20.01427 v 6.26346 h -18.64639 l -8.35128,-4.82359 v -26.34973 l 8.35128,-4.82358 h 18.64639 v 6.26346 z m 37.07676,29.73344 h -6.9834 V 96.588405 h 6.9834 v 19.150355 l 5.11156,-2.95175 h 10.87107 l 8.35128,4.82358 v 31.53329 h -6.9834 v -30.09341 h -17.35051 z m 65.01035,-12.59892 h 7.19938 v 8.1353 l -8.35128,4.82359 h -18.93437 l -8.35128,-4.82359 v -41.46843 l 8.35128,-4.82358 h 18.93437 l 8.35128,4.82358 v 8.1353 h -7.19938 v -6.47944 h -21.23817 v 38.15671 h 21.23817 z m 38.80473,-17.13452 h -13.10287 v 29.73344 h -6.9834 v -35.9969 h 5.25555 l 1.72785,2.95174 5.11156,-2.95174 h 7.99131 z m 13.46284,14.97471 v 8.85524 h 14.47075 v -8.85524 z m 1.36788,15.1187 -8.35128,-4.82359 v -11.73499 l 8.35128,-4.82358 h 13.10287 v -8.71125 h -17.85446 v -6.26346 h 16.48658 l 8.35128,4.82358 v 31.53329 h -1.87184 l -5.11156,-2.95175 -5.11156,2.95175 z m 28.7255,-30.09341 v -6.26346 h 6.62343 v -11.73499 l 8.35128,-4.823585 h 7.27138 v 6.263465 h -8.63926 v 10.29511 h 8.63926 v 6.26346 h -8.63926 v 29.73344 h -6.9834 v -29.73344 z m 28.00559,0 v -6.26346 h 6.62343 v -6.04748 l 6.9834,-4.03165 v 10.07913 h 8.63925 v 6.26346 h -8.63925 v 23.46998 h 8.63925 v 6.26346 h -7.27137 l -8.35128,-4.82359 v -24.90985 z"
       id="text18"
       transform="matrix(1.1256145,0,0,1.1112062,-35.24217,735.03251)"
       aria-label="LeechCraft" />
  </g>
</svg>
