<?xml version="1.0" encoding="utf-8"?>
<!-- Generator: Adobe Illustrator 13.0.0, SVG Export Plug-In . SVG Version: 6.00 Build 14948)  -->
<!DOCTYPE svg PUBLIC "-//W3C//DTD SVG 1.1//EN" "http://www.w3.org/Graphics/SVG/1.1/DTD/svg11.dtd">
<svg version="1.1" id="Layer_1" xmlns="http://www.w3.org/2000/svg" xmlns:xlink="http://www.w3.org/1999/xlink" x="0px" y="0px"
	 width="164px" height="145px" viewBox="0 0 164 145" enable-background="new 0 0 164 145" xml:space="preserve">
<path fill-rule="evenodd" clip-rule="evenodd" fill="#9A9A9A" d="M113.637,138.52c-6.012,2.24-12.722,3.525-20.114,3.826
	c-7.393,0.299-15.332-0.383-23.757-2.016c-9.135-1.742-17.478-4.176-25-7.359c-7.502-3.164-14.601-7.229-21.316-12.176
	c-6.724-4.945-11.752-9.783-15.018-14.539c-3.267-4.756-4.94-9.682-5.056-14.758c-0.191-4.756,1.161-8.93,4.1-12.504
	c2.944-3.566,7.42-6.469,13.392-8.69c5.971-2.228,12.674-3.492,20.094-3.772c7.414-0.28,15.4,0.403,23.906,2.057
	c9.054,1.715,17.341,4.147,24.809,7.316c7.454,3.165,14.594,7.256,21.379,12.264c6.799,4.988,11.861,9.859,15.134,14.58
	c3.273,4.729,4.946,9.627,5.07,14.67c0.191,4.693-1.169,8.848-4.134,12.408C124.166,133.387,119.643,136.277,113.637,138.52
	L113.637,138.52z M107.645,134.111c6.751-2.52,8.65-5.889,6.423-10.215c-2.37-4.631-11.819-13.205-29.194-25.982
	C67.505,85.137,55.131,77.662,47.547,74.963c-7.092-2.521-13.801-2.678-20.551-0.171c-6.799,2.542-8.725,5.938-6.471,10.303
	c2.398,4.682,11.82,13.242,29.106,25.949c17.28,12.709,29.646,20.17,37.298,22.889C94.083,136.477,100.847,136.646,107.645,134.111
	L107.645,134.111z"/>
<path fill-rule="evenodd" clip-rule="evenodd" fill="#CC0000" d="M100.438,142.461c-8.404,0-16.248-1.646-23.483-4.967
	c-7.229-3.328-13.726-8.254-19.486-14.717c-6.293-6.936-10.953-14.451-13.918-22.547c-2.966-8.076-4.414-17.17-4.414-27.248
	s1.448-19.165,4.414-27.242c2.965-8.089,7.625-15.612,13.918-22.547C63.29,16.676,69.801,11.702,77.043,8.34
	c7.242-3.348,15.051-5.015,23.395-5.015c8.342,0,16.158,1.667,23.388,5.015c7.235,3.361,13.76,8.335,19.567,14.853
	c6.238,6.881,10.857,14.356,13.788,22.411c2.938,8.042,4.366,17.184,4.366,27.378c0,10.193-1.429,19.342-4.366,27.377
	c-2.931,8.063-7.55,15.531-13.781,22.418c-5.767,6.463-12.244,11.389-19.486,14.717
	C116.671,140.814,108.841,142.461,100.438,142.461L100.438,142.461z M100.438,133.477c9.441,0,15.455-3.607,18.844-10.604
	c3.635-7.469,5.691-23.832,5.691-49.891c0-26.045-2.057-42.416-5.691-49.897c-3.389-6.983-9.402-10.591-18.844-10.591
	c-9.497,0-15.564,3.642-18.995,10.693c-3.669,7.537-5.725,23.873-5.725,49.795c0,25.93,2.056,42.271,5.725,49.809
	C84.873,129.834,90.94,133.477,100.438,133.477L100.438,133.477z"/>
</svg>
