<?xml version="1.0" encoding="UTF-8" standalone="no"?>
<!-- Created with Inkscape (http://www.inkscape.org/) -->

<svg
   xmlns:dc="http://purl.org/dc/elements/1.1/"
   xmlns:cc="http://creativecommons.org/ns#"
   xmlns:rdf="http://www.w3.org/1999/02/22-rdf-syntax-ns#"
   xmlns:svg="http://www.w3.org/2000/svg"
   xmlns="http://www.w3.org/2000/svg"
   xmlns:xlink="http://www.w3.org/1999/xlink"
   xmlns:sodipodi="http://sodipodi.sourceforge.net/DTD/sodipodi-0.dtd"
   xmlns:inkscape="http://www.inkscape.org/namespaces/inkscape"
   version="1.0"
   width="96"
   height="96"
   id="svg2408"
   inkscape:version="0.48.1 r9760"
   sodipodi:docname="lmp.svg"
   inkscape:export-filename="/home/buckstabu/Dropbox/Public/lcicons/lcproto_defaultplugin.png"
   inkscape:export-xdpi="90"
   inkscape:export-ydpi="90">
  <sodipodi:namedview
     pagecolor="#ffffff"
     bordercolor="#666666"
     borderopacity="1"
     objecttolerance="10"
     gridtolerance="10"
     guidetolerance="10"
     inkscape:pageopacity="0"
     inkscape:pageshadow="2"
     inkscape:window-width="1920"
     inkscape:window-height="988"
     id="namedview68"
     showgrid="false"
     inkscape:zoom="3.3333333"
     inkscape:cx="165.68435"
     inkscape:cy="115.16877"
     inkscape:window-x="-7"
     inkscape:window-y="17"
     inkscape:window-maximized="1"
     inkscape:current-layer="svg2408" />
  <defs
     id="defs2410">
    <linearGradient
       inkscape:collect="always"
       id="linearGradient4145">
      <stop
         style="stop-color:#00b1ff;stop-opacity:1;"
         offset="0"
         id="stop4147" />
      <stop
         style="stop-color:#00b1ff;stop-opacity:0;"
         offset="1"
         id="stop4149" />
    </linearGradient>
    <linearGradient
       id="linearGradient3224">
      <stop
         id="stop3226"
         style="stop-color:#42394b;stop-opacity:1"
         offset="0" />
      <stop
         id="stop3228"
         style="stop-color:#000000;stop-opacity:1"
         offset="1" />
    </linearGradient>
    <linearGradient
       id="linearGradient3465">
      <stop
         id="stop3467"
         style="stop-color:#919191;stop-opacity:1"
         offset="0" />
      <stop
         id="stop3469"
         style="stop-color:#fdfdfd;stop-opacity:1"
         offset="1" />
    </linearGradient>
    <linearGradient
       id="linearGradient3187">
      <stop
         id="stop3189"
         style="stop-color:#b4b4b4;stop-opacity:1"
         offset="0" />
      <stop
         id="stop3191"
         style="stop-color:#e6e6e6;stop-opacity:1"
         offset="1" />
    </linearGradient>
    <linearGradient
       x1="45.447727"
       y1="92.539597"
       x2="45.447727"
       y2="7.0165396"
       id="ButtonShadow"
       gradientUnits="userSpaceOnUse"
       gradientTransform="scale(1.0058652,0.994169)">
      <stop
         id="stop3750"
         style="stop-color:#000000;stop-opacity:1"
         offset="0" />
      <stop
         id="stop3752"
         style="stop-color:#000000;stop-opacity:0.58823532"
         offset="1" />
    </linearGradient>
    <linearGradient
       id="linearGradient3737">
      <stop
         id="stop3739"
         style="stop-color:#ffffff;stop-opacity:1"
         offset="0" />
      <stop
         id="stop3741"
         style="stop-color:#ffffff;stop-opacity:0"
         offset="1" />
    </linearGradient>
    <filter
       color-interpolation-filters="sRGB"
       id="filter3174">
      <feGaussianBlur
         id="feGaussianBlur3176"
         stdDeviation="1.71" />
    </filter>
    <linearGradient
       x1="36.357143"
       y1="6"
       x2="36.357143"
       y2="63.893143"
       id="linearGradient3188"
       xlink:href="#linearGradient3737"
       gradientUnits="userSpaceOnUse" />
    <linearGradient
       x1="48"
       y1="90"
       x2="48"
       y2="5.9877172"
       id="linearGradient3427"
       xlink:href="#linearGradient3187"
       gradientUnits="userSpaceOnUse" />
    <radialGradient
       cx="47.098362"
       cy="78.286942"
       r="38.957481"
       fx="47.098362"
       fy="78.286942"
       id="radialGradient3205"
       xlink:href="#linearGradient3224"
       gradientUnits="userSpaceOnUse"
       gradientTransform="matrix(1.3830053,-1.0350102e-8,0,1.3123934,-18.038924,-24.218731)" />
    <linearGradient
       x1="43.17857"
       y1="13"
       x2="43.17857"
       y2="83.294571"
       id="linearGradient3279"
       xlink:href="#linearGradient3465"
       gradientUnits="userSpaceOnUse"
       gradientTransform="matrix(1.0294118,0,0,1.0294118,-1.4117647,-1.411765)" />
    <linearGradient
       id="linearGradient3737-7">
      <stop
         id="stop3739-2"
         style="stop-color:#ffffff;stop-opacity:1;"
         offset="0" />
      <stop
         id="stop3741-7"
         style="stop-color:#ffffff;stop-opacity:0"
         offset="1" />
    </linearGradient>
    <radialGradient
       cx="48"
       cy="90.171875"
       r="42"
       fx="48"
       fy="90.171875"
       id="radialGradient2874"
       xlink:href="#linearGradient3737-7"
       gradientUnits="userSpaceOnUse"
       gradientTransform="matrix(1.1573129,0,0,0.99590774,-7.551021,0.1971319)" />
    <linearGradient
       id="linearGradient3737-4">
      <stop
         id="stop3739-8"
         style="stop-color:#ffffff;stop-opacity:1"
         offset="0" />
      <stop
         id="stop3741-71"
         style="stop-color:#ffffff;stop-opacity:0"
         offset="1" />
    </linearGradient>
    <clipPath
       id="clipPath3613">
      <rect
         width="84"
         height="84"
         rx="6"
         ry="6"
         x="6"
         y="6"
         id="rect3615"
         style="fill:#ffffff;fill-opacity:1;fill-rule:nonzero;stroke:none" />
    </clipPath>
    <filter
       x="-0.192"
       y="-0.192"
       width="1.3839999"
       height="1.3839999"
       color-interpolation-filters="sRGB"
       id="filter3794">
      <feGaussianBlur
         id="feGaussianBlur3796"
         stdDeviation="5.28" />
    </filter>
    <linearGradient
       x1="48"
       y1="20.220806"
       x2="48"
       y2="138.66119"
       id="linearGradient2908"
       xlink:href="#linearGradient3737-4"
       gradientUnits="userSpaceOnUse" />
    <linearGradient
       x1="45.447727"
       y1="92.539597"
       x2="45.447727"
       y2="7.0165396"
       id="ButtonShadow-0"
       gradientUnits="userSpaceOnUse"
       gradientTransform="matrix(1.0058652,0,0,0.994169,100,0)">
      <stop
         id="stop3750-8"
         style="stop-color:#000000;stop-opacity:1"
         offset="0" />
      <stop
         id="stop3752-5"
         style="stop-color:#000000;stop-opacity:0.58823532"
         offset="1" />
    </linearGradient>
    <linearGradient
       x1="32.251034"
       y1="6.1317081"
       x2="32.251034"
       y2="90.238609"
       id="linearGradient3780"
       xlink:href="#ButtonShadow-0"
       gradientUnits="userSpaceOnUse"
       gradientTransform="matrix(1.0238095,0,0,1.0119048,-1.1428571,-98.071429)" />
    <linearGradient
       x1="32.251034"
       y1="6.1317081"
       x2="32.251034"
       y2="90.238609"
       id="linearGradient3772"
       xlink:href="#ButtonShadow-0"
       gradientUnits="userSpaceOnUse"
       gradientTransform="matrix(1.0238095,0,0,1.0119048,-1.1428571,-98.071429)" />
    <linearGradient
       x1="32.251034"
       y1="6.1317081"
       x2="32.251034"
       y2="90.238609"
       id="linearGradient3725"
       xlink:href="#ButtonShadow-0"
       gradientUnits="userSpaceOnUse"
       gradientTransform="matrix(1.0238095,0,0,1.0119048,-1.1428571,-98.071429)" />
    <linearGradient
       x1="32.251034"
       y1="6.1317081"
       x2="32.251034"
       y2="90.238609"
       id="linearGradient3721"
       xlink:href="#ButtonShadow-0"
       gradientUnits="userSpaceOnUse"
       gradientTransform="translate(0,-97)" />
    <linearGradient
       x1="32.251034"
       y1="6.1317081"
       x2="32.251034"
       y2="90.238609"
       id="linearGradient3224-3"
       xlink:href="#ButtonShadow-0"
       gradientUnits="userSpaceOnUse"
       gradientTransform="matrix(1.0238095,0,0,1.0119048,-1.1428571,-98.071429)" />
    <linearGradient
       inkscape:collect="always"
       xlink:href="#linearGradient3737-4"
       id="linearGradient3053"
       gradientUnits="userSpaceOnUse"
       x1="48"
       y1="20.220806"
       x2="48"
       y2="138.66119" />
    <linearGradient
       id="linearGradient3304">
      <stop
         id="stop3306"
         style="stop-color:#ff8313;stop-opacity:1"
         offset="0" />
      <stop
         id="stop3308"
         style="stop-color:#ffe400;stop-opacity:1"
         offset="1" />
    </linearGradient>
    <linearGradient
       inkscape:collect="always"
       xlink:href="#linearGradient3304"
       id="linearGradient3023"
       gradientUnits="userSpaceOnUse"
       gradientTransform="matrix(1.2146893,0,0,1.2146893,-90.000003,-246.69493)"
       x1="143.75"
       y1="334.5"
       x2="143.75"
       y2="276" />
    <linearGradient
       id="linearGradient3045">
      <stop
         id="stop3047"
         style="stop-color:#ff8313;stop-opacity:1"
         offset="0" />
      <stop
         id="stop3049"
         style="stop-color:#ffe400;stop-opacity:1"
         offset="1" />
    </linearGradient>
    <linearGradient
       inkscape:collect="always"
       xlink:href="#linearGradient3224"
       id="linearGradient3934"
       x1="51.244343"
       y1="6.9503713"
       x2="51.244343"
       y2="120.35037"
       gradientUnits="userSpaceOnUse" />
    <radialGradient
       cx="47.098362"
       cy="78.286942"
       r="38.957481"
       fx="47.098362"
       fy="78.286942"
       id="radialGradient3205-1"
       xlink:href="#linearGradient3224-6"
       gradientUnits="userSpaceOnUse"
       gradientTransform="matrix(1.3830053,-1.0350102e-8,0,1.3123934,-18.038924,-24.218731)" />
    <linearGradient
       id="linearGradient3224-6">
      <stop
         id="stop3226-2"
         style="stop-color:#42394b;stop-opacity:1"
         offset="0" />
      <stop
         id="stop3228-1"
         style="stop-color:#000000;stop-opacity:1"
         offset="1" />
    </linearGradient>
    <linearGradient
       x1="48"
       y1="90"
       x2="48"
       y2="5.9877172"
       id="linearGradient3427-0"
       xlink:href="#linearGradient3187-5"
       gradientUnits="userSpaceOnUse" />
    <linearGradient
       id="linearGradient3187-5">
      <stop
         id="stop3189-3"
         style="stop-color:#b4b4b4;stop-opacity:1"
         offset="0" />
      <stop
         id="stop3191-2"
         style="stop-color:#e6e6e6;stop-opacity:1"
         offset="1" />
    </linearGradient>
    <linearGradient
       x1="36.357143"
       y1="6"
       x2="36.357143"
       y2="63.893143"
       id="linearGradient3188-1"
       xlink:href="#linearGradient3737-9"
       gradientUnits="userSpaceOnUse" />
    <linearGradient
       id="linearGradient3737-9">
      <stop
         id="stop3739-7"
         style="stop-color:#ffffff;stop-opacity:1"
         offset="0" />
      <stop
         id="stop3741-6"
         style="stop-color:#ffffff;stop-opacity:0"
         offset="1" />
    </linearGradient>
    <linearGradient
       x1="43.17857"
       y1="13"
       x2="43.17857"
       y2="83.294571"
       id="linearGradient3279-8"
       xlink:href="#linearGradient3465-2"
       gradientUnits="userSpaceOnUse"
       gradientTransform="matrix(1.0294118,0,0,1.0294118,-1.4117647,-1.411765)" />
    <linearGradient
       id="linearGradient3465-2">
      <stop
         id="stop3467-0"
         style="stop-color:#919191;stop-opacity:1"
         offset="0" />
      <stop
         id="stop3469-6"
         style="stop-color:#fdfdfd;stop-opacity:1"
         offset="1" />
    </linearGradient>
    <radialGradient
       cx="48"
       cy="90.171875"
       r="42"
       fx="48"
       fy="90.171875"
       id="radialGradient2874-4"
       xlink:href="#linearGradient3737-7-3"
       gradientUnits="userSpaceOnUse"
       gradientTransform="matrix(1.1573129,0,0,0.99590774,-7.551021,0.1971319)" />
    <linearGradient
       id="linearGradient3737-7-3">
      <stop
         id="stop3739-2-3"
         style="stop-color:#ffffff;stop-opacity:1"
         offset="0" />
      <stop
         id="stop3741-7-6"
         style="stop-color:#ffffff;stop-opacity:0"
         offset="1" />
    </linearGradient>
    <linearGradient
       x1="48"
       y1="20.220806"
       x2="48"
       y2="138.66119"
       id="linearGradient2908-9"
       xlink:href="#linearGradient3737-4-0"
       gradientUnits="userSpaceOnUse" />
    <linearGradient
       id="linearGradient3737-4-0">
      <stop
         id="stop3739-8-4"
         style="stop-color:#ffffff;stop-opacity:1"
         offset="0" />
      <stop
         id="stop3741-71-8"
         style="stop-color:#ffffff;stop-opacity:0"
         offset="1" />
    </linearGradient>
    <clipPath
       id="clipPath3613-5">
      <rect
         width="84"
         height="84"
         rx="6"
         ry="6"
         x="6"
         y="6"
         id="rect3615-1"
         style="fill:#ffffff;fill-opacity:1;fill-rule:nonzero;stroke:none" />
    </clipPath>
    <filter
       x="-0.192"
       y="-0.192"
       width="1.3839999"
       height="1.3839999"
       color-interpolation-filters="sRGB"
       id="filter3794-2">
      <feGaussianBlur
         id="feGaussianBlur3796-9"
         stdDeviation="5.28" />
    </filter>
    <linearGradient
       inkscape:collect="always"
       xlink:href="#linearGradient3187-5"
       id="linearGradient4094"
       gradientUnits="userSpaceOnUse"
       x1="48"
       y1="90"
       x2="48"
       y2="5.9877172" />
    <linearGradient
       inkscape:collect="always"
       xlink:href="#linearGradient3737-9"
       id="linearGradient4096"
       gradientUnits="userSpaceOnUse"
       x1="36.357143"
       y1="6"
       x2="36.357143"
       y2="63.893143" />
    <linearGradient
       inkscape:collect="always"
       xlink:href="#linearGradient3465-2"
       id="linearGradient4098"
       gradientUnits="userSpaceOnUse"
       gradientTransform="matrix(1.0294118,0,0,1.0294118,-1.4117647,-1.411765)"
       x1="43.17857"
       y1="13"
       x2="43.17857"
       y2="83.294571" />
    <radialGradient
       inkscape:collect="always"
       xlink:href="#linearGradient3737-7-3"
       id="radialGradient4100"
       gradientUnits="userSpaceOnUse"
       gradientTransform="matrix(1.1573129,0,0,0.99590774,-7.551021,0.1971319)"
       cx="48"
       cy="90.171875"
       fx="48"
       fy="90.171875"
       r="42" />
    <linearGradient
       inkscape:collect="always"
       xlink:href="#linearGradient3737-4-0"
       id="linearGradient4102"
       gradientUnits="userSpaceOnUse"
       x1="48"
       y1="20.220806"
       x2="48"
       y2="138.66119" />
    <radialGradient
       inkscape:collect="always"
       xlink:href="#linearGradient3224-6"
       id="radialGradient4113"
       gradientUnits="userSpaceOnUse"
       gradientTransform="matrix(1.3830053,-1.0350102e-8,0,1.3123934,-17.140614,-23.729195)"
       cx="47.098362"
       cy="78.286942"
       fx="47.098362"
       fy="78.286942"
       r="38.957481" />
    <linearGradient
       inkscape:collect="always"
       xlink:href="#linearGradient4145"
       id="linearGradient4151"
       x1="51.237862"
       y1="34.850372"
       x2="51.544342"
       y2="132.65038"
       gradientUnits="userSpaceOnUse" />
    <linearGradient
       x1="59"
       y1="40"
       x2="69"
       y2="40"
       id="linearGradient4578"
       xlink:href="#linearGradient5932-3-2-4"
       gradientUnits="userSpaceOnUse" />
    <linearGradient
       id="linearGradient5932-3-2-4">
      <stop
         id="stop5934-3-2-9"
         style="stop-color:#ff7c53;stop-opacity:1"
         offset="0" />
      <stop
         id="stop5940-1-4-5"
         style="stop-color:#f21919;stop-opacity:1"
         offset="0.5" />
      <stop
         id="stop5942-5-4-7"
         style="stop-color:#db1414;stop-opacity:1"
         offset="0.5" />
      <stop
         id="stop5936-2-5-0"
         style="stop-color:#9b1818;stop-opacity:1"
         offset="1" />
    </linearGradient>
    <linearGradient
       x1="59"
       y1="88"
       x2="69"
       y2="88"
       id="linearGradient4580"
       xlink:href="#linearGradient5944-6-9-3"
       gradientUnits="userSpaceOnUse" />
    <linearGradient
       id="linearGradient5944-6-9-3">
      <stop
         id="stop5946-9-5-0"
         style="stop-color:#f0f0f0;stop-opacity:1"
         offset="0" />
      <stop
         id="stop5952-4-9-7"
         style="stop-color:#e6e6e6;stop-opacity:1"
         offset="0.5" />
      <stop
         id="stop5954-4-7-2"
         style="stop-color:#d2d2d2;stop-opacity:1"
         offset="0.5" />
      <stop
         id="stop5948-6-2-1"
         style="stop-color:#bebebe;stop-opacity:1"
         offset="1" />
    </linearGradient>
    <radialGradient
       cx="63.335083"
       cy="63.279507"
       r="1.7404202"
       fx="63.335083"
       fy="63.279507"
       id="radialGradient4582"
       xlink:href="#linearGradient5960-0-4-4"
       gradientUnits="userSpaceOnUse"
       gradientTransform="matrix(0.644005,-1.4508695e-6,1.4508659e-6,0.6440034,22.699101,22.755712)" />
    <linearGradient
       id="linearGradient5960-0-4-4">
      <stop
         id="stop5962-7-7-5"
         style="stop-color:#c1c1c1;stop-opacity:1"
         offset="0" />
      <stop
         id="stop5964-4-1-8"
         style="stop-color:#3f3f3f;stop-opacity:1"
         offset="1" />
    </linearGradient>
    <linearGradient
       inkscape:collect="always"
       xlink:href="#linearGradient4145"
       id="linearGradient4251"
       x1="48.700001"
       y1="15"
       x2="47.900002"
       y2="141"
       gradientUnits="userSpaceOnUse" />
    <linearGradient
       x1="48"
       y1="64"
       x2="48"
       y2="24"
       id="linearGradient4142"
       xlink:href="#linearGradient3317"
       gradientUnits="userSpaceOnUse" />
    <linearGradient
       id="linearGradient3317">
      <stop
         id="stop3319"
         style="stop-color:#6ab300;stop-opacity:1"
         offset="0" />
      <stop
         id="stop3321"
         style="stop-color:#9dcf00;stop-opacity:1"
         offset="1" />
    </linearGradient>
    <linearGradient
       inkscape:collect="always"
       xlink:href="#linearGradient4145"
       id="linearGradient4302"
       gradientUnits="userSpaceOnUse"
       x1="47.400002"
       y1="7.9000001"
       x2="47.700001"
       y2="117"
       gradientTransform="translate(82.4,52.7)" />
    <linearGradient
       inkscape:collect="always"
       xlink:href="#linearGradient4145"
       id="linearGradient4311"
       gradientUnits="userSpaceOnUse"
       gradientTransform="translate(82.4,52.7)"
       x1="47.400002"
       y1="7.9000001"
       x2="47.700001"
       y2="117" />
    <linearGradient
       inkscape:collect="always"
       xlink:href="#linearGradient3697"
       id="linearGradient3050"
       gradientUnits="userSpaceOnUse"
       gradientTransform="matrix(0,-1,1,0,140.40019,150.29998)"
       x1="18.000002"
       y1="47.999897"
       x2="78.000175"
       y2="47.999897" />
    <linearGradient
       id="linearGradient3697">
      <stop
         id="stop3699"
         style="stop-color:#bababa;stop-opacity:1"
         offset="0" />
      <stop
         id="stop3701"
         style="stop-color:#d2d2d2;stop-opacity:1"
         offset="1" />
    </linearGradient>
    <linearGradient
       x1="38"
       y1="36"
       x2="38"
       y2="68"
       id="linearGradient4171"
       xlink:href="#linearGradient4281-6-2"
       gradientUnits="userSpaceOnUse"
       gradientTransform="translate(157.2,46.4)" />
    <linearGradient
       id="linearGradient4281-6-2">
      <stop
         id="stop4283-9-1"
         style="stop-color:#1e1e1e;stop-opacity:1"
         offset="0" />
      <stop
         id="stop4285-8-5"
         style="stop-color:#505050;stop-opacity:1"
         offset="1" />
    </linearGradient>
    <linearGradient
       gradientTransform="matrix(0,0.85741265,-0.77885807,0,204.87309,64.40776)"
       x1="24.508066"
       y1="35.527863"
       x2="55.491936"
       y2="35.527863"
       id="linearGradient4169"
       xlink:href="#linearGradient4281-6"
       gradientUnits="userSpaceOnUse" />
    <linearGradient
       id="linearGradient4281-6">
      <stop
         id="stop4283-9"
         style="stop-color:#1e1e1e;stop-opacity:1"
         offset="0" />
      <stop
         id="stop4285-8"
         style="stop-color:#505050;stop-opacity:1"
         offset="1" />
    </linearGradient>
    <linearGradient
       x1="24.508066"
       y1="35.527863"
       x2="55.491936"
       y2="35.527863"
       id="linearGradient4167"
       xlink:href="#linearGradient4281-6"
       gradientUnits="userSpaceOnUse" />
    <linearGradient
       id="linearGradient3138">
      <stop
         id="stop3140"
         style="stop-color:#1e1e1e;stop-opacity:1"
         offset="0" />
      <stop
         id="stop3142"
         style="stop-color:#505050;stop-opacity:1"
         offset="1" />
    </linearGradient>
    <linearGradient
       inkscape:collect="always"
       xlink:href="#linearGradient4145"
       id="linearGradient4013"
       gradientUnits="userSpaceOnUse"
       gradientTransform="matrix(0,0.82311608,-0.74770368,0,63.049782,15.357863)"
       x1="20.134443"
       y1="35.929092"
       x2="107.24648"
       y2="36.330318" />
    <linearGradient
       inkscape:collect="always"
       xlink:href="#linearGradient3224"
       id="linearGradient4021"
       x1="175.65625"
       y1="55.029999"
       x2="176.25624"
       y2="88.029999"
       gradientUnits="userSpaceOnUse"
       gradientTransform="translate(-124.05625,-23.530002)" />
    <linearGradient
       inkscape:collect="always"
       xlink:href="#linearGradient4236"
       id="linearGradient3087"
       gradientUnits="userSpaceOnUse"
       gradientTransform="translate(184,-19.100001)"
       x1="33"
       y1="68"
       x2="33"
       y2="61" />
    <linearGradient
       id="linearGradient4236">
      <stop
         id="stop4238"
         style="stop-color:#ffdf39;stop-opacity:1"
         offset="0" />
      <stop
         id="stop4240"
         style="stop-color:#eb9c00;stop-opacity:0"
         offset="1" />
    </linearGradient>
    <linearGradient
       inkscape:collect="always"
       xlink:href="#linearGradient4236"
       id="linearGradient3090"
       gradientUnits="userSpaceOnUse"
       gradientTransform="translate(180,-19.100001)"
       x1="33"
       y1="68"
       x2="33"
       y2="61" />
    <linearGradient
       id="linearGradient3143">
      <stop
         id="stop3145"
         style="stop-color:#ffdf39;stop-opacity:1"
         offset="0" />
      <stop
         id="stop3147"
         style="stop-color:#eb9c00;stop-opacity:0"
         offset="1" />
    </linearGradient>
    <linearGradient
       inkscape:collect="always"
       xlink:href="#linearGradient4236"
       id="linearGradient3093"
       gradientUnits="userSpaceOnUse"
       gradientTransform="translate(176,-19.100001)"
       x1="33"
       y1="68"
       x2="33"
       y2="61" />
    <linearGradient
       id="linearGradient3150">
      <stop
         id="stop3152"
         style="stop-color:#ffdf39;stop-opacity:1"
         offset="0" />
      <stop
         id="stop3154"
         style="stop-color:#eb9c00;stop-opacity:0"
         offset="1" />
    </linearGradient>
    <linearGradient
       inkscape:collect="always"
       xlink:href="#linearGradient4236"
       id="linearGradient3096"
       gradientUnits="userSpaceOnUse"
       gradientTransform="translate(172,-19.100001)"
       x1="33"
       y1="68"
       x2="33"
       y2="61" />
    <linearGradient
       id="linearGradient3157">
      <stop
         id="stop3159"
         style="stop-color:#ffdf39;stop-opacity:1"
         offset="0" />
      <stop
         id="stop3161"
         style="stop-color:#eb9c00;stop-opacity:0"
         offset="1" />
    </linearGradient>
    <linearGradient
       inkscape:collect="always"
       xlink:href="#linearGradient4236"
       id="linearGradient3099"
       gradientUnits="userSpaceOnUse"
       gradientTransform="translate(168,-19.100001)"
       x1="33"
       y1="68"
       x2="33"
       y2="61" />
    <linearGradient
       id="linearGradient3164">
      <stop
         id="stop3166"
         style="stop-color:#ffdf39;stop-opacity:1"
         offset="0" />
      <stop
         id="stop3168"
         style="stop-color:#eb9c00;stop-opacity:0"
         offset="1" />
    </linearGradient>
    <linearGradient
       inkscape:collect="always"
       xlink:href="#linearGradient4236"
       id="linearGradient3102"
       gradientUnits="userSpaceOnUse"
       gradientTransform="translate(164,-19.100001)"
       x1="33"
       y1="68"
       x2="33"
       y2="61" />
    <linearGradient
       id="linearGradient3171">
      <stop
         id="stop3173"
         style="stop-color:#ffdf39;stop-opacity:1"
         offset="0" />
      <stop
         id="stop3175"
         style="stop-color:#eb9c00;stop-opacity:0"
         offset="1" />
    </linearGradient>
    <linearGradient
       inkscape:collect="always"
       xlink:href="#linearGradient4236"
       id="linearGradient3105"
       gradientUnits="userSpaceOnUse"
       gradientTransform="translate(160,-19.100001)"
       x1="33"
       y1="68"
       x2="33"
       y2="61" />
    <linearGradient
       id="linearGradient3178">
      <stop
         id="stop3180"
         style="stop-color:#ffdf39;stop-opacity:1"
         offset="0" />
      <stop
         id="stop3182"
         style="stop-color:#eb9c00;stop-opacity:0"
         offset="1" />
    </linearGradient>
    <linearGradient
       inkscape:collect="always"
       xlink:href="#linearGradient4236"
       id="linearGradient3108"
       gradientUnits="userSpaceOnUse"
       gradientTransform="translate(156,-19.100001)"
       x1="33"
       y1="68"
       x2="33"
       y2="61" />
    <linearGradient
       id="linearGradient3185">
      <stop
         id="stop3187"
         style="stop-color:#ffdf39;stop-opacity:1"
         offset="0" />
      <stop
         id="stop3189-8"
         style="stop-color:#eb9c00;stop-opacity:0"
         offset="1" />
    </linearGradient>
    <linearGradient
       inkscape:collect="always"
       xlink:href="#linearGradient3224-6"
       id="linearGradient4162"
       x1="202.7"
       y1="41.799999"
       x2="203"
       y2="48.699997"
       gradientUnits="userSpaceOnUse" />
    <linearGradient
       inkscape:collect="always"
       xlink:href="#linearGradient4145"
       id="linearGradient4170"
       x1="165.45"
       y1="63.749996"
       x2="166.5"
       y2="137.39999"
       gradientUnits="userSpaceOnUse"
       gradientTransform="matrix(0.97959184,0,0,0.97959184,2.8612245,2.3)" />
    <linearGradient
       inkscape:collect="always"
       xlink:href="#linearGradient3224"
       id="linearGradient4194"
       x1="176.34999"
       y1="63.299995"
       x2="176.75"
       y2="112.35"
       gradientUnits="userSpaceOnUse"
       gradientTransform="matrix(0.97959184,0,0,0.97959184,2.8612245,2.3)" />
    <linearGradient
       inkscape:collect="always"
       xlink:href="#linearGradient5852"
       id="linearGradient3150-9"
       gradientUnits="userSpaceOnUse"
       gradientTransform="matrix(0.7031498,0,0,0.699561,-91.90285,-51.752764)"
       spreadMethod="reflect"
       x1="15.593941"
       y1="61.447784"
       x2="111.61377"
       y2="61.447784" />
    <linearGradient
       id="linearGradient5852">
      <stop
         id="stop5854"
         style="stop-color:#f3cb20;stop-opacity:0"
         offset="0" />
      <stop
         id="stop5856"
         style="stop-color:#f3cb20;stop-opacity:1"
         offset="0.22019713" />
      <stop
         id="stop5862"
         style="stop-color:#f3cb20;stop-opacity:1"
         offset="0.56106508" />
      <stop
         id="stop5858"
         style="stop-color:#f3cb20;stop-opacity:0"
         offset="1" />
    </linearGradient>
    <linearGradient
       y2="61.447784"
       x2="111.61377"
       y1="61.447784"
       x1="15.593941"
       spreadMethod="reflect"
       gradientTransform="matrix(0.43664734,0,0,0.43441874,135.84432,63.741977)"
       gradientUnits="userSpaceOnUse"
       id="linearGradient3169"
       xlink:href="#linearGradient3224"
       inkscape:collect="always" />
    <linearGradient
       inkscape:collect="always"
       xlink:href="#linearGradient3224-6"
       id="linearGradient4233"
       gradientUnits="userSpaceOnUse"
       x1="202.7"
       y1="41.799999"
       x2="203"
       y2="48.699997" />
    <linearGradient
       inkscape:collect="always"
       xlink:href="#linearGradient3224-6"
       id="linearGradient4235"
       gradientUnits="userSpaceOnUse"
       x1="202.7"
       y1="41.799999"
       x2="203"
       y2="48.699997" />
    <linearGradient
       inkscape:collect="always"
       xlink:href="#linearGradient3224-6"
       id="linearGradient4237"
       gradientUnits="userSpaceOnUse"
       x1="202.7"
       y1="41.799999"
       x2="203"
       y2="48.699997" />
    <linearGradient
       inkscape:collect="always"
       xlink:href="#linearGradient3224-6"
       id="linearGradient4239"
       gradientUnits="userSpaceOnUse"
       x1="202.7"
       y1="41.799999"
       x2="203"
       y2="48.699997" />
    <linearGradient
       inkscape:collect="always"
       xlink:href="#linearGradient3224-6"
       id="linearGradient4241"
       gradientUnits="userSpaceOnUse"
       x1="202.7"
       y1="41.799999"
       x2="203"
       y2="48.699997" />
    <linearGradient
       inkscape:collect="always"
       xlink:href="#linearGradient3224-6"
       id="linearGradient4243"
       gradientUnits="userSpaceOnUse"
       x1="202.7"
       y1="41.799999"
       x2="203"
       y2="48.699997" />
    <linearGradient
       inkscape:collect="always"
       xlink:href="#linearGradient3224-6"
       id="linearGradient4245"
       gradientUnits="userSpaceOnUse"
       x1="202.7"
       y1="41.799999"
       x2="203"
       y2="48.699997" />
    <linearGradient
       inkscape:collect="always"
       xlink:href="#linearGradient3224-6"
       id="linearGradient4247"
       gradientUnits="userSpaceOnUse"
       x1="202.7"
       y1="41.799999"
       x2="203"
       y2="48.699997" />
    <linearGradient
       inkscape:collect="always"
       xlink:href="#linearGradient4145"
       id="linearGradient4262"
       gradientUnits="userSpaceOnUse"
       gradientTransform="matrix(0.97959184,0,0,0.97959184,2.8612245,2.3)"
       x1="165.45"
       y1="63.749996"
       x2="166.5"
       y2="137.39999" />
    <linearGradient
       inkscape:collect="always"
       xlink:href="#linearGradient3224"
       id="linearGradient4264"
       gradientUnits="userSpaceOnUse"
       gradientTransform="matrix(0.97959184,0,0,0.97959184,2.8612245,2.3)"
       x1="176.34999"
       y1="63.299995"
       x2="176.75"
       y2="112.35" />
    <linearGradient
       inkscape:collect="always"
       xlink:href="#linearGradient3224-6"
       id="linearGradient4266"
       gradientUnits="userSpaceOnUse"
       x1="202.7"
       y1="41.799999"
       x2="203"
       y2="48.699997" />
    <linearGradient
       inkscape:collect="always"
       xlink:href="#linearGradient3224-6"
       id="linearGradient4268"
       gradientUnits="userSpaceOnUse"
       x1="202.7"
       y1="41.799999"
       x2="203"
       y2="48.699997" />
    <linearGradient
       inkscape:collect="always"
       xlink:href="#linearGradient3224-6"
       id="linearGradient4270"
       gradientUnits="userSpaceOnUse"
       x1="202.7"
       y1="41.799999"
       x2="203"
       y2="48.699997" />
    <linearGradient
       inkscape:collect="always"
       xlink:href="#linearGradient3224-6"
       id="linearGradient4272"
       gradientUnits="userSpaceOnUse"
       x1="202.7"
       y1="41.799999"
       x2="203"
       y2="48.699997" />
    <linearGradient
       inkscape:collect="always"
       xlink:href="#linearGradient3224-6"
       id="linearGradient4274"
       gradientUnits="userSpaceOnUse"
       x1="202.7"
       y1="41.799999"
       x2="203"
       y2="48.699997" />
    <linearGradient
       inkscape:collect="always"
       xlink:href="#linearGradient3224-6"
       id="linearGradient4276"
       gradientUnits="userSpaceOnUse"
       x1="202.7"
       y1="41.799999"
       x2="203"
       y2="48.699997" />
    <linearGradient
       inkscape:collect="always"
       xlink:href="#linearGradient3224-6"
       id="linearGradient4278"
       gradientUnits="userSpaceOnUse"
       x1="202.7"
       y1="41.799999"
       x2="203"
       y2="48.699997" />
    <linearGradient
       inkscape:collect="always"
       xlink:href="#linearGradient3224-6"
       id="linearGradient4280"
       gradientUnits="userSpaceOnUse"
       x1="202.7"
       y1="41.799999"
       x2="203"
       y2="48.699997" />
    <linearGradient
       inkscape:collect="always"
       xlink:href="#linearGradient3224-6"
       id="linearGradient4282"
       gradientUnits="userSpaceOnUse"
       x1="202.7"
       y1="41.799999"
       x2="203"
       y2="48.699997" />
    <linearGradient
       inkscape:collect="always"
       xlink:href="#linearGradient3224"
       id="linearGradient4284"
       gradientUnits="userSpaceOnUse"
       gradientTransform="matrix(0.43664734,0,0,0.43441874,135.84432,63.741977)"
       spreadMethod="reflect"
       x1="15.593941"
       y1="61.447784"
       x2="111.61377"
       y2="61.447784" />
  </defs>
  <metadata
     id="metadata2413">
    <rdf:RDF>
      <cc:Work
         rdf:about="">
        <dc:format>image/svg+xml</dc:format>
        <dc:type
           rdf:resource="http://purl.org/dc/dcmitype/StillImage" />
        <dc:title></dc:title>
      </cc:Work>
    </rdf:RDF>
  </metadata>
  <path
     style="opacity:0.6;color:#000000;fill:#000000;fill-opacity:1;fill-rule:nonzero;stroke:none;stroke-width:1;marker:none;visibility:visible;display:inline;overflow:visible;enable-background:accumulate"
     id="rect3977-9"
     inkscape:connector-curvature="0"
     d="m 17.89831,14.489536 c -1.662,0 -3,1.338 -3,3 l 0,62 c 0,1.662 1.338,3 3,3 l 62,0 c 1.662,0 3,-1.338 3,-3 l 0,-62 c 0,-1.662 -1.338,-3 -3,-3 l -62,0 z m 0,0.96875 62,0 c 1.140081,0 2.03125,0.891169 2.03125,2.03125 l 0,62 c 0,1.140081 -0.891169,2.03125 -2.03125,2.03125 l -62,0 c -1.140081,0 -2.03125,-0.891169 -2.03125,-2.03125 l 0,-62 c 0,-1.140081 0.891169,-2.03125 2.03125,-2.03125 z" />
  <g
     id="layer2"
     style="display:none">
    <rect
       width="86"
       height="85"
       rx="6"
       ry="6"
       x="5"
       y="7"
       id="rect3745"
       style="opacity:0.9;fill:url(#ButtonShadow);fill-opacity:1;fill-rule:nonzero;stroke:none;filter:url(#filter3174)" />
  </g>
  <rect
     style="fill:url(#radialGradient4113);fill-opacity:1;stroke:none"
     id="rect3461-7"
     y="8.743969"
     x="9.0391903"
     ry="6.1732869"
     rx="5.8527675"
     height="78.516495"
     width="77.914963" />
  <path
     style="font-size:medium;font-style:normal;font-variant:normal;font-weight:normal;font-stretch:normal;text-indent:0;text-align:start;text-decoration:none;line-height:normal;letter-spacing:normal;word-spacing:normal;text-transform:none;direction:ltr;block-progression:tb;writing-mode:lr-tb;text-anchor:start;opacity:0.15;color:#000000;fill:#000000;fill-opacity:1;stroke:none;stroke-width:4;marker:none;visibility:visible;display:inline;overflow:visible;enable-background:accumulate;font-family:Abandoned Bitplane;-inkscape-font-specification:Abandoned Bitplane"
     id="rect3222-3-8"
     inkscape:connector-curvature="0"
     d="m 19.89831,13.489536 c -3.289406,0 -6,2.710594 -6,6 l 0,58 c 0,3.289406 2.710594,6 6,6 l 58,0 c 3.289406,0 6,-2.710594 6,-6 l 0,-58 c 0,-3.289406 -2.710594,-6 -6,-6 l -58,0 z m 0,4 58,0 c 1.142594,0 2,0.857406 2,2 l 0,58 c 0,1.142594 -0.857406,2 -2,2 l -58,0 c -1.142594,0 -2,-0.857406 -2,-2 l 0,-58 c 0,-1.142594 0.857406,-2 2,-2 z" />
  <path
     style="opacity:0.3;color:#000000;fill:#000000;fill-opacity:1;fill-rule:nonzero;stroke:none;stroke-width:1;marker:none;visibility:visible;display:inline;overflow:visible;enable-background:accumulate"
     id="rect3981-0"
     inkscape:connector-curvature="0"
     d="m 17.89831,14.489536 c -1.662,0 -3,1.338 -3,3 l 0,62 c 0,1.662 1.338,3 3,3 l 62,0 c 1.662,0 3,-1.338 3,-3 l 0,-62 c 0,-1.662 -1.338,-3 -3,-3 l -62,0 z m 0,1.9375 62,0 c 0.618163,0 1.0625,0.444337 1.0625,1.0625 l 0,62 c 0,0.618163 -0.444337,1.0625 -1.0625,1.0625 l -62,0 c -0.618163,0 -1.0625,-0.444337 -1.0625,-1.0625 l 0,-62 c 0,-0.618163 0.444337,-1.0625 1.0625,-1.0625 z" />
  <g
     id="g4249"
     transform="translate(-116.2,-40.699998)">
    <path
       d="m 156.36327,65.189796 0,3.918367 -3.91837,0 0,3.918368 -8.81633,0 c -1.62808,0 -2.93877,1.310693 -2.93877,2.938775 l 0,33.306124 c 0,1.62808 1.31069,2.93877 2.93877,2.93877 l 41.14286,0 c 1.62808,0 2.93877,-1.31069 2.93877,-2.93877 l 0,-33.306124 c 0,-1.628082 -1.31069,-2.938775 -2.93877,-2.938775 l -8.81633,0 0,-3.918368 -3.91837,0 0,-3.918367 -15.67346,0 z"
       inkscape:connector-curvature="0"
       id="rect4168"
       style="color:#000000;fill:url(#linearGradient4262);fill-opacity:1;fill-rule:nonzero;stroke:url(#linearGradient4264);stroke-width:0.97959185;stroke-opacity:1;marker:none;visibility:visible;display:inline;overflow:visible;enable-background:accumulate" />
    <g
       style="fill:url(#linearGradient4282);fill-opacity:1;stroke:none"
       transform="matrix(0.97959184,0,0,0.97959184,-34.657143,64.308164)"
       id="g4129">
      <rect
         style="color:#000000;fill:url(#linearGradient4266);fill-opacity:1;fill-rule:nonzero;stroke:none;stroke-width:1;marker:none;visibility:visible;display:inline;overflow:visible;enable-background:accumulate"
         id="rect4282"
         y="41.899998"
         x="188"
         height="7"
         width="2" />
      <rect
         style="color:#000000;fill:url(#linearGradient4268);fill-opacity:1;fill-rule:nonzero;stroke:none;stroke-width:1;marker:none;visibility:visible;display:inline;overflow:visible;enable-background:accumulate"
         id="rect4284"
         y="41.899998"
         x="192"
         height="7"
         width="2" />
      <rect
         style="color:#000000;fill:url(#linearGradient4270);fill-opacity:1;fill-rule:nonzero;stroke:none;stroke-width:1;marker:none;visibility:visible;display:inline;overflow:visible;enable-background:accumulate"
         id="rect4286"
         y="41.899998"
         x="196"
         height="7"
         width="2" />
      <rect
         style="color:#000000;fill:url(#linearGradient4272);fill-opacity:1;fill-rule:nonzero;stroke:none;stroke-width:1;marker:none;visibility:visible;display:inline;overflow:visible;enable-background:accumulate"
         id="rect4288"
         y="41.899998"
         x="200"
         height="7"
         width="2" />
      <rect
         style="color:#000000;fill:url(#linearGradient4274);fill-opacity:1;fill-rule:nonzero;stroke:none;stroke-width:1;marker:none;visibility:visible;display:inline;overflow:visible;enable-background:accumulate"
         id="rect4290"
         y="41.899998"
         x="204"
         height="7"
         width="2" />
      <rect
         style="color:#000000;fill:url(#linearGradient4276);fill-opacity:1;fill-rule:nonzero;stroke:none;stroke-width:1;marker:none;visibility:visible;display:inline;overflow:visible;enable-background:accumulate"
         id="rect4292"
         y="41.899998"
         x="208"
         height="7"
         width="2" />
      <rect
         style="color:#000000;fill:url(#linearGradient4278);fill-opacity:1;fill-rule:nonzero;stroke:none;stroke-width:1;marker:none;visibility:visible;display:inline;overflow:visible;enable-background:accumulate"
         id="rect4294"
         y="41.899998"
         x="212"
         height="7"
         width="2" />
      <rect
         style="color:#000000;fill:url(#linearGradient4280);fill-opacity:1;fill-rule:nonzero;stroke:none;stroke-width:1;marker:none;visibility:visible;display:inline;overflow:visible;enable-background:accumulate"
         id="rect4296"
         y="41.899998"
         x="216"
         height="7"
         width="2" />
    </g>
    <path
       d="m 152.48856,78.150607 -2.69742,15.369444 -9.10134,0 0,1.241976 10.14926,0 2.23168,-12.788465 3.20196,19.716358 0.61129,3.38216 0.61128,-3.38216 1.37782,-9.373033 4.73503,0 0.69862,-2.173456 2.21226,7.99522 1.6301,-3.434842 19.5611,0 0,-1.241976 -20.33734,0 -0.54336,1.12554 -2.44514,-8.810261 -1.68832,5.297801 -4.89028,0 -0.95088,6.42334 -3.14375,-19.32824 -0.60158,-3.170087 -0.62099,3.150681 z"
       inkscape:connector-curvature="0"
       id="path3267"
       style="fill:url(#linearGradient4284);fill-opacity:1;fill-rule:evenodd;stroke:none;display:inline" />
  </g>
  <path
     style="opacity:0.07999998;fill:#d9c6ed;fill-opacity:1;stroke:none"
     id="rect3256-3"
     inkscape:connector-curvature="0"
     d="m 14.89831,8.7395363 c -3.242433,0 -5.8437503,2.7674997 -5.8437503,6.1874997 l 0,49.0625 C 27.878614,50.130638 54.866224,40.195879 86.96081,42.208286 l 0,-27.28125 c 0,-3.420001 -2.63257,-6.1874997 -5.875,-6.1874997 l -66.1875,0 z" />
  <g
     id="layer1"
     style="display:inline">
    <path
       d="M 12,6 C 8.676,6 6,8.676 6,12 l 0,72 c 0,3.324 2.676,6 6,6 l 72,0 c 3.324,0 6,-2.676 6,-6 L 90,12 C 90,8.676 87.324,6 84,6 L 12,6 z m 5,7 62,0 c 2.216001,0 4,1.784 4,4 l 0,62 c 10e-7,2.216001 -1.784,4 -4,4 l -62,0 c -2.215999,10e-7 -4,-1.784 -4,-4 l 0,-62 c 0,-2.215999 1.784,-4 4,-4 z"
       inkscape:connector-curvature="0"
       id="rect2419"
       style="fill:url(#linearGradient4094);fill-opacity:1;fill-rule:nonzero;stroke:none" />
    <path
       d="M 12,6 C 8.676,6 6,8.676 6,12 l 0,2 0,68 0,2 c 0,0.334721 0.04135,0.6507 0.09375,0.96875 0.0487,0.295596 0.09704,0.596915 0.1875,0.875 0.00988,0.03038 0.020892,0.0636 0.03125,0.09375 0.098865,0.287771 0.2348802,0.547452 0.375,0.8125 0.1445918,0.273507 0.3156161,0.535615 0.5,0.78125 0.1843839,0.245635 0.3737765,0.473472 0.59375,0.6875 0.439947,0.428056 0.94291,0.814526 1.5,1.09375 0.278545,0.139612 0.5734731,0.246947 0.875,0.34375 -0.2562018,-0.100222 -0.4867109,-0.236272 -0.71875,-0.375 -0.00741,-0.0044 -0.023866,0.0045 -0.03125,0 -0.031933,-0.0193 -0.062293,-0.04251 -0.09375,-0.0625 -0.120395,-0.0767 -0.2310226,-0.163513 -0.34375,-0.25 -0.1061728,-0.0808 -0.2132809,-0.161112 -0.3125,-0.25 C 8.4783201,88.557317 8.3087904,88.373362 8.15625,88.1875 8.0486711,88.057245 7.9378561,87.922215 7.84375,87.78125 7.818661,87.74287 7.805304,87.69538 7.78125,87.65625 7.716487,87.553218 7.6510225,87.451733 7.59375,87.34375 7.4927417,87.149044 7.3880752,86.928049 7.3125,86.71875 7.30454,86.69694 7.288911,86.6782 7.28125,86.65625 7.2494249,86.5643 7.2454455,86.469419 7.21875,86.375 7.1884177,86.268382 7.1483606,86.171969 7.125,86.0625 7.0521214,85.720988 7,85.364295 7,85 L 7,83 7,15 7,13 C 7,10.218152 9.2181517,8 12,8 l 2,0 68,0 2,0 c 2.781848,0 5,2.218152 5,5 l 0,2 0,68 0,2 c 0,0.364295 -0.05212,0.720988 -0.125,1.0625 -0.04415,0.206893 -0.08838,0.397658 -0.15625,0.59375 -0.0077,0.02195 -0.0233,0.04069 -0.03125,0.0625 -0.06274,0.173739 -0.138383,0.367449 -0.21875,0.53125 -0.04158,0.0828 -0.07904,0.169954 -0.125,0.25 -0.0546,0.09721 -0.126774,0.18835 -0.1875,0.28125 -0.09411,0.140965 -0.204921,0.275995 -0.3125,0.40625 -0.143174,0.17445 -0.303141,0.346998 -0.46875,0.5 -0.01117,0.0102 -0.01998,0.02115 -0.03125,0.03125 -0.138386,0.125556 -0.285091,0.234436 -0.4375,0.34375 -0.102571,0.07315 -0.204318,0.153364 -0.3125,0.21875 -0.0074,0.0045 -0.02384,-0.0044 -0.03125,0 -0.232039,0.138728 -0.462548,0.274778 -0.71875,0.375 0.301527,-0.0968 0.596455,-0.204138 0.875,-0.34375 0.55709,-0.279224 1.060053,-0.665694 1.5,-1.09375 0.219973,-0.214028 0.409366,-0.441865 0.59375,-0.6875 0.184384,-0.245635 0.355408,-0.507743 0.5,-0.78125 0.14012,-0.265048 0.276135,-0.524729 0.375,-0.8125 0.01041,-0.03078 0.02133,-0.06274 0.03125,-0.09375 0.09046,-0.278085 0.1388,-0.579404 0.1875,-0.875 C 89.95865,84.6507 90,84.334721 90,84 l 0,-2 0,-68 0,-2 C 90,8.676 87.324,6 84,6 L 12,6 z"
       inkscape:connector-curvature="0"
       id="rect3728"
       style="opacity:0.5;fill:url(#linearGradient4096);fill-opacity:1;fill-rule:nonzero;stroke:none" />
    <path
       d="m 17,12 c -2.752703,0 -5,2.247297 -5,5 l 0,62 c 0,2.752703 2.247298,5 5,5 l 62,0 c 2.752703,0 5.000001,-2.247297 5,-5 l 0,-62 c 0,-2.752703 -2.247297,-5 -5,-5 l -62,0 z m 0,2 62,0 c 1.679298,0 3,1.320703 3,3 l 0,62 c 10e-7,1.679297 -1.320703,3 -3,3 l -62,0 c -1.679296,0 -3,-1.320703 -3,-3 l 0,-62 c 0,-1.679297 1.320703,-3 3,-3 z"
       inkscape:connector-curvature="0"
       id="rect3425"
       style="fill:url(#linearGradient4098);fill-opacity:1;fill-rule:nonzero;stroke:none" />
    <path
       d="M 12,90 C 8.676,90 6,87.324 6,84 L 6,82 6,14 6,12 c 0,-0.334721 0.04135,-0.6507 0.09375,-0.96875 0.0487,-0.295596 0.09704,-0.596915 0.1875,-0.875 C 6.29113,10.12587 6.302142,10.09265 6.3125,10.0625 6.411365,9.774729 6.5473802,9.515048 6.6875,9.25 6.8320918,8.976493 7.0031161,8.714385 7.1875,8.46875 7.3718839,8.223115 7.5612765,7.995278 7.78125,7.78125 8.221197,7.353194 8.72416,6.966724 9.28125,6.6875 9.559795,6.547888 9.8547231,6.440553 10.15625,6.34375 9.9000482,6.443972 9.6695391,6.580022 9.4375,6.71875 c -0.00741,0.0044 -0.023866,-0.0045 -0.03125,0 -0.031933,0.0193 -0.062293,0.04251 -0.09375,0.0625 -0.120395,0.0767 -0.2310226,0.163513 -0.34375,0.25 -0.1061728,0.0808 -0.2132809,0.161112 -0.3125,0.25 C 8.4783201,7.442683 8.3087904,7.626638 8.15625,7.8125 8.0486711,7.942755 7.9378561,8.077785 7.84375,8.21875 7.818661,8.25713 7.805304,8.30462 7.78125,8.34375 7.716487,8.446782 7.6510225,8.548267 7.59375,8.65625 7.4927417,8.850956 7.3880752,9.071951 7.3125,9.28125 7.30454,9.30306 7.288911,9.3218 7.28125,9.34375 7.2494249,9.4357 7.2454455,9.530581 7.21875,9.625 7.1884177,9.731618 7.1483606,9.828031 7.125,9.9375 7.0521214,10.279012 7,10.635705 7,11 l 0,2 0,68 0,2 c 0,2.781848 2.2181517,5 5,5 l 2,0 68,0 2,0 c 2.781848,0 5,-2.218152 5,-5 l 0,-2 0,-68 0,-2 C 89,10.635705 88.94788,10.279012 88.875,9.9375 88.83085,9.730607 88.78662,9.539842 88.71875,9.34375 88.71105,9.3218 88.69545,9.30306 88.6875,9.28125 88.62476,9.107511 88.549117,8.913801 88.46875,8.75 88.42717,8.6672 88.38971,8.580046 88.34375,8.5 88.28915,8.40279 88.216976,8.31165 88.15625,8.21875 88.06214,8.077785 87.951329,7.942755 87.84375,7.8125 87.700576,7.63805 87.540609,7.465502 87.375,7.3125 87.36383,7.3023 87.35502,7.29135 87.34375,7.28125 87.205364,7.155694 87.058659,7.046814 86.90625,6.9375 86.803679,6.86435 86.701932,6.784136 86.59375,6.71875 c -0.0074,-0.0045 -0.02384,0.0044 -0.03125,0 -0.232039,-0.138728 -0.462548,-0.274778 -0.71875,-0.375 0.301527,0.0968 0.596455,0.204138 0.875,0.34375 0.55709,0.279224 1.060053,0.665694 1.5,1.09375 0.219973,0.214028 0.409366,0.441865 0.59375,0.6875 0.184384,0.245635 0.355408,0.507743 0.5,0.78125 0.14012,0.265048 0.276135,0.524729 0.375,0.8125 0.01041,0.03078 0.02133,0.06274 0.03125,0.09375 0.09046,0.278085 0.1388,0.579404 0.1875,0.875 C 89.95865,11.3493 90,11.665279 90,12 l 0,2 0,68 0,2 c 0,3.324 -2.676,6 -6,6 l -72,0 z"
       inkscape:connector-curvature="0"
       id="path3615"
       style="opacity:0.4;fill:url(#radialGradient4100);fill-opacity:1;fill-rule:nonzero;stroke:none" />
    <rect
       width="66"
       height="66"
       rx="12"
       ry="12"
       x="15"
       y="15"
       clip-path="url(#clipPath3613-5)"
       id="rect3171"
       style="opacity:0.1;fill:url(#linearGradient4102);fill-opacity:1;fill-rule:nonzero;stroke:#ffffff;stroke-width:0.5;stroke-linecap:round;stroke-linejoin:miter;stroke-miterlimit:4;stroke-opacity:1;stroke-dasharray:none;stroke-dashoffset:0;filter:url(#filter3794-2)" />
  </g>
</svg>
