<?xml version="1.0" encoding="UTF-8" standalone="no"?>
<!-- Created with Inkscape (http://www.inkscape.org/) -->

<svg
   xmlns:dc="http://purl.org/dc/elements/1.1/"
   xmlns:cc="http://creativecommons.org/ns#"
   xmlns:rdf="http://www.w3.org/1999/02/22-rdf-syntax-ns#"
   xmlns:svg="http://www.w3.org/2000/svg"
   xmlns="http://www.w3.org/2000/svg"
   xmlns:xlink="http://www.w3.org/1999/xlink"
   xmlns:sodipodi="http://sodipodi.sourceforge.net/DTD/sodipodi-0.dtd"
   xmlns:inkscape="http://www.inkscape.org/namespaces/inkscape"
   version="1.0"
   width="96"
   height="96"
   id="svg2408"
   inkscape:version="0.48.2 r9819"
   sodipodi:docname="adiumstyles.svg"
   inkscape:export-filename="/home/buckstabu/Dropbox/Public/lcicons/lcproto2.png"
   inkscape:export-xdpi="90"
   inkscape:export-ydpi="90">
  <sodipodi:namedview
     pagecolor="#ffffff"
     bordercolor="#666666"
     borderopacity="1"
     objecttolerance="10"
     gridtolerance="10"
     guidetolerance="10"
     inkscape:pageopacity="0"
     inkscape:pageshadow="2"
     inkscape:window-width="1859"
     inkscape:window-height="1036"
     id="namedview68"
     showgrid="false"
     inkscape:zoom="6.6666666"
     inkscape:cx="30.562754"
     inkscape:cy="52.499348"
     inkscape:window-x="61"
     inkscape:window-y="0"
     inkscape:window-maximized="1"
     inkscape:current-layer="svg2408" />
  <defs
     id="defs2410">
    <linearGradient
       id="linearGradient4017">
      <stop
         style="stop-color:#ff6600;stop-opacity:1;"
         offset="0"
         id="stop4019" />
      <stop
         style="stop-color:#ff1e00;stop-opacity:1;"
         offset="1"
         id="stop4021" />
    </linearGradient>
    <linearGradient
       x1="45.447727"
       y1="92.539597"
       x2="45.447727"
       y2="7.0165396"
       id="ButtonShadow"
       gradientUnits="userSpaceOnUse"
       gradientTransform="scale(1.0058652,0.994169)">
      <stop
         id="stop3750"
         style="stop-color:#000000;stop-opacity:1"
         offset="0" />
      <stop
         id="stop3752"
         style="stop-color:#000000;stop-opacity:0.58823532"
         offset="1" />
    </linearGradient>
    <filter
       color-interpolation-filters="sRGB"
       id="filter3174">
      <feGaussianBlur
         id="feGaussianBlur3176"
         stdDeviation="1.71" />
    </filter>
    <linearGradient
       id="linearGradient3224-6">
      <stop
         id="stop3226-2"
         style="stop-color:#42394b;stop-opacity:1"
         offset="0" />
      <stop
         id="stop3228-1"
         style="stop-color:#000000;stop-opacity:1"
         offset="1" />
    </linearGradient>
    <linearGradient
       id="linearGradient3187-5">
      <stop
         id="stop3189-3"
         style="stop-color:#b4b4b4;stop-opacity:1"
         offset="0" />
      <stop
         id="stop3191-2"
         style="stop-color:#e6e6e6;stop-opacity:1"
         offset="1" />
    </linearGradient>
    <linearGradient
       id="linearGradient3737-9">
      <stop
         id="stop3739-7"
         style="stop-color:#ffffff;stop-opacity:1"
         offset="0" />
      <stop
         id="stop3741-6"
         style="stop-color:#ffffff;stop-opacity:0"
         offset="1" />
    </linearGradient>
    <linearGradient
       id="linearGradient3465-2">
      <stop
         id="stop3467-0"
         style="stop-color:#919191;stop-opacity:1"
         offset="0" />
      <stop
         id="stop3469-6"
         style="stop-color:#fdfdfd;stop-opacity:1"
         offset="1" />
    </linearGradient>
    <linearGradient
       id="linearGradient3737-7-3">
      <stop
         id="stop3739-2-3"
         style="stop-color:#ffffff;stop-opacity:1"
         offset="0" />
      <stop
         id="stop3741-7-6"
         style="stop-color:#ffffff;stop-opacity:0"
         offset="1" />
    </linearGradient>
    <linearGradient
       id="linearGradient3737-4-0">
      <stop
         id="stop3739-8-4"
         style="stop-color:#ffffff;stop-opacity:1"
         offset="0" />
      <stop
         id="stop3741-71-8"
         style="stop-color:#ffffff;stop-opacity:0"
         offset="1" />
    </linearGradient>
    <clipPath
       id="clipPath3613-5">
      <rect
         width="84"
         height="84"
         rx="6"
         ry="6"
         x="6"
         y="6"
         id="rect3615-1"
         style="fill:#ffffff;fill-opacity:1;fill-rule:nonzero;stroke:none" />
    </clipPath>
    <filter
       x="-0.192"
       y="-0.192"
       width="1.3839999"
       height="1.3839999"
       color-interpolation-filters="sRGB"
       id="filter3794-2">
      <feGaussianBlur
         id="feGaussianBlur3796-9"
         stdDeviation="5.28" />
    </filter>
    <linearGradient
       inkscape:collect="always"
       xlink:href="#linearGradient3187-5"
       id="linearGradient4094"
       gradientUnits="userSpaceOnUse"
       x1="48"
       y1="90"
       x2="48"
       y2="5.9877172" />
    <linearGradient
       inkscape:collect="always"
       xlink:href="#linearGradient3737-9"
       id="linearGradient4096"
       gradientUnits="userSpaceOnUse"
       x1="36.357143"
       y1="6"
       x2="36.357143"
       y2="63.893143" />
    <linearGradient
       inkscape:collect="always"
       xlink:href="#linearGradient3465-2"
       id="linearGradient4098"
       gradientUnits="userSpaceOnUse"
       gradientTransform="matrix(1.0294118,0,0,1.0294118,-1.4117647,-1.411765)"
       x1="43.17857"
       y1="13"
       x2="43.17857"
       y2="83.294571" />
    <radialGradient
       inkscape:collect="always"
       xlink:href="#linearGradient3737-7-3"
       id="radialGradient4100"
       gradientUnits="userSpaceOnUse"
       gradientTransform="matrix(1.1573129,0,0,0.99590774,-7.551021,0.1971319)"
       cx="48"
       cy="90.171875"
       fx="48"
       fy="90.171875"
       r="42" />
    <linearGradient
       inkscape:collect="always"
       xlink:href="#linearGradient3737-4-0"
       id="linearGradient4102"
       gradientUnits="userSpaceOnUse"
       x1="48"
       y1="20.220806"
       x2="48"
       y2="138.66119" />
    <radialGradient
       inkscape:collect="always"
       xlink:href="#linearGradient3224-6"
       id="radialGradient4113"
       gradientUnits="userSpaceOnUse"
       gradientTransform="matrix(1.3830053,-1.0350102e-8,0,1.3123934,-17.140614,-23.729195)"
       cx="47.098362"
       cy="78.286942"
       fx="47.098362"
       fy="78.286942"
       r="38.957481" />
    <filter
       id="filter3174-0"
       color-interpolation-filters="sRGB">
      <feGaussianBlur
         stdDeviation="1.71"
         id="feGaussianBlur3176-0" />
    </filter>
    <linearGradient
       gradientTransform="scale(1.0058652,0.994169)"
       gradientUnits="userSpaceOnUse"
       id="ButtonShadow-83"
       y2="7.0165396"
       x2="45.447727"
       y1="92.539597"
       x1="45.447727">
      <stop
         offset="0"
         style="stop-color:#000000;stop-opacity:1"
         id="stop3750-64" />
      <stop
         offset="1"
         style="stop-color:#000000;stop-opacity:0.58823532"
         id="stop3752-71" />
    </linearGradient>
    <linearGradient
       inkscape:collect="always"
       xlink:href="#linearGradient4017"
       id="linearGradient10943"
       gradientUnits="userSpaceOnUse"
       gradientTransform="matrix(0.57142857,0,0,0.57142857,20.57143,20.571429)"
       x1="32.775002"
       y1="3.8999999"
       x2="31.725"
       y2="120.43772" />
  </defs>
  <metadata
     id="metadata2413">
    <rdf:RDF>
      <cc:Work
         rdf:about="">
        <dc:format>image/svg+xml</dc:format>
        <dc:type
           rdf:resource="http://purl.org/dc/dcmitype/StillImage" />
        <dc:title></dc:title>
      </cc:Work>
    </rdf:RDF>
  </metadata>
  <path
     style="opacity:0.6;color:#000000;fill:#000000;fill-opacity:1;fill-rule:nonzero;stroke:none;stroke-width:1;marker:none;visibility:visible;display:inline;overflow:visible;enable-background:accumulate"
     id="rect3977-9"
     inkscape:connector-curvature="0"
     d="m 17.89831,14.489536 c -1.662,0 -3,1.338 -3,3 l 0,62 c 0,1.662 1.338,3 3,3 l 62,0 c 1.662,0 3,-1.338 3,-3 l 0,-62 c 0,-1.662 -1.338,-3 -3,-3 l -62,0 z m 0,0.96875 62,0 c 1.140081,0 2.03125,0.891169 2.03125,2.03125 l 0,62 c 0,1.140081 -0.891169,2.03125 -2.03125,2.03125 l -62,0 c -1.140081,0 -2.03125,-0.891169 -2.03125,-2.03125 l 0,-62 c 0,-1.140081 0.891169,-2.03125 2.03125,-2.03125 z" />
  <g
     id="layer2"
     style="display:none">
    <rect
       width="86"
       height="85"
       rx="6"
       ry="6"
       x="5"
       y="7"
       id="rect3745"
       style="opacity:0.9;fill:url(#ButtonShadow);fill-opacity:1;fill-rule:nonzero;stroke:none;filter:url(#filter3174)" />
  </g>
  <rect
     style="fill:url(#radialGradient4113);fill-opacity:1;stroke:none"
     id="rect3461-7"
     y="8.743969"
     x="9.0391903"
     ry="6.1732869"
     rx="5.8527675"
     height="78.516495"
     width="77.914963" />
  <path
     style="font-size:medium;font-style:normal;font-variant:normal;font-weight:normal;font-stretch:normal;text-indent:0;text-align:start;text-decoration:none;line-height:normal;letter-spacing:normal;word-spacing:normal;text-transform:none;direction:ltr;block-progression:tb;writing-mode:lr-tb;text-anchor:start;opacity:0.15;color:#000000;fill:#000000;fill-opacity:1;stroke:none;stroke-width:4;marker:none;visibility:visible;display:inline;overflow:visible;enable-background:accumulate;font-family:Abandoned Bitplane;-inkscape-font-specification:Abandoned Bitplane"
     id="rect3222-3-8"
     inkscape:connector-curvature="0"
     d="m 19.89831,13.489536 c -3.289406,0 -6,2.710594 -6,6 l 0,58 c 0,3.289406 2.710594,6 6,6 l 58,0 c 3.289406,0 6,-2.710594 6,-6 l 0,-58 c 0,-3.289406 -2.710594,-6 -6,-6 l -58,0 z m 0,4 58,0 c 1.142594,0 2,0.857406 2,2 l 0,58 c 0,1.142594 -0.857406,2 -2,2 l -58,0 c -1.142594,0 -2,-0.857406 -2,-2 l 0,-58 c 0,-1.142594 0.857406,-2 2,-2 z" />
  <path
     style="opacity:0.3;color:#000000;fill:#000000;fill-opacity:1;fill-rule:nonzero;stroke:none;stroke-width:1;marker:none;visibility:visible;display:inline;overflow:visible;enable-background:accumulate"
     id="rect3981-0"
     inkscape:connector-curvature="0"
     d="m 17.89831,14.489536 c -1.662,0 -3,1.338 -3,3 l 0,62 c 0,1.662 1.338,3 3,3 l 62,0 c 1.662,0 3,-1.338 3,-3 l 0,-62 c 0,-1.662 -1.338,-3 -3,-3 l -62,0 z m 0,1.9375 62,0 c 0.618163,0 1.0625,0.444337 1.0625,1.0625 l 0,62 c 0,0.618163 -0.444337,1.0625 -1.0625,1.0625 l -62,0 c -0.618163,0 -1.0625,-0.444337 -1.0625,-1.0625 l 0,-62 c 0,-0.618163 0.444337,-1.0625 1.0625,-1.0625 z" />
  <g
     id="g10922"
     transform="translate(124.4,-16.999999)">
    <g
       style="display:none"
       id="layer2-5">
      <rect
         style="opacity:0.9;fill:url(#ButtonShadow-83);fill-opacity:1;fill-rule:nonzero;stroke:none;filter:url(#filter3174-0)"
         id="rect3745-2"
         y="7"
         x="5"
         ry="6"
         rx="6"
         height="85"
         width="86" />
    </g>
    <g
       id="g10939"
       transform="matrix(1.2244898,0,0,1.2244898,-135.17551,6.2244888)">
      <path
         d="M 27.42857,24 C 25.52914,24 24,25.529142 24,27.428572 l 0,32 c 0,1.899429 1.52914,3.428571 3.42857,3.428571 l 6.85714,0 L 32.57143,72 l 13.14286,-9.142857 22.85714,0 C 70.47086,62.857142 72,61.328001 72,59.428572 l 0,-32 c 0,-1.899429 -1.52914,-3.428571 -3.42857,-3.428571 l -41.14286,0 z"
         inkscape:connector-curvature="0"
         id="path3984"
         style="fill:url(#linearGradient10943);fill-opacity:1;fill-rule:nonzero;stroke:#000000;stroke-opacity:1" />
    </g>
  </g>
  <g
     id="g8704"
     transform="matrix(0.28266666,0,0,0.28266666,-154.09156,-16.455482)"
     style="stroke:#000000;stroke-opacity:1">
    <g
       id="g8936"
       transform="matrix(2.3584906,0,0,2.3584906,256.1268,89.386802)"
       style="stroke:#000000;stroke-opacity:1">
      <g
         id="kD9nJ5.tif"
         style="stroke:#000000;stroke-opacity:1">
	<g
   id="XMLID_2_"
   transform="translate(-41.4,35.4)"
   style="stroke:#000000;stroke-opacity:1">
		<g
   id="g19"
   transform="matrix(0.30379748,0,0,0.30379748,186.8121,15.369824)"
   style="stroke:#000000;stroke-opacity:1">
			<path
   id="path21"
   d="m 237.18894,40.239781 c 0.79,18.459996 -9.1,26.229996 -13,39.999996 -1,0 -2,0 -3,0 3.6,-8.279 6.42,-22.74 13,-31 -3.3,-19.699996 -0.279,-45.7209957 -10,-58.9999957 0.71,-3.7100003 -1.71,-4.2900003 -1,-8.0000003 -3.17,-4.25 -4.33,-9.44 -7,-13.999997 -2.51,-4.29 -7.91,-8.1 -6,-13 3.38,0 2.54,9.4 6,6 -2.25,-2.08 -2.859,-5.81 -5,-8 -3.24,-1.24 -0.76,3.24 -4,2 0.439,-3.44 -0.4,-5.6 -1,-8 -5.12,-6.73 -8.42,-13.86 -18,-18 -2.28,1.39 -3.87,3.46 -6,5 1.89,0.44 6.03,-1.36 5,2 -3.33,0 -6.67,0 -10,0 -2.63,3.04 -3.64,7.7 -3,14 -3.99,6.35 -10.59,10.08 -9,22 -3.1,-0.1 -2.85,3.149997 -7,1.999997 -1.66,-2.589997 1.5,-2.849997 1,-5.999997 -0.31,-1.98 -3.07,-3.42 -3,-6 0.21,-7.48 7.11,-14.53 6,-24 3.85,2.24 5.85,0.05 6,-4 -11.74,-0.53 -25.63,-2.18 -37,0 -5.05,6.28 -11.49,11.18 -16,18 5.71,4.63 18.76,1.9 22,9 -0.33,2.34 -4.36,0.97 -5,3 5.55,5.45 10.74,11.259997 17,15.999997 0.72,17.7200003 -11.15,22.8500003 -19,32 -4.67,0 -9.33,0 -14,0 -1.76,-3.4799997 -5.32,-4.6199997 -7,-8.9999997 -0.54,-1.391 0.9,-5.26 0,-8 -0.53,-1.6 -1.85,-0.79 -2,-3 -0.37,-5.5500003 1.76,-10.3800003 2,-15.0000003 6.28,-4.779997 15.37,-9.599997 25,-7.999997 -6.42,-7.09 -12.17,-12.41 -23,-13 -4.9,10.1 -17.079999,12.92 -14.999999,29.999997 -6.17,7.8300003 -3.51,24.49 -5,37 4.44,10.07 5.79,22.579996 9.999999,30.999996 0.53,1.07 -0.52,2.92 0,4 2.2,4.529 7.92,5.95 8,11 5.72,3.609 14.02,4.641 17,11 -0.67,0 -1.33,0 -2,0 0,-0.33 0,-0.67 0,-1 -9.6,-3.73 -18.29,-8.38 -23,-17 -0.12,7.779 2.77,12.561 5,18 -1,0 -2,0 -3,0 -4.079999,-7 -2.57,-14.1 -4.999999,-21 -1.96,-5.57 -7.29,-9.609 -9,-14.999996 -1.52,-4.8 0.98,-11.359 -3,-16 0,-16 0,-31.9999997 0,-48 6.25,2.07 2.1,11.5500003 2,17.0000003 -0.15,8.58 -0.15,18.2699997 0,25.9999997 0.15,7.689 4.61,25.539996 10,30.999996 -6.76,-17.929996 -12.57,-51.9099957 -5,-68.999996 -5.47,-3.48 3.9,-14.469997 3,-22.999997 1.97,0.69 -0.25,5.58 2,6 2.809999,-4.52 6.379999,-8.29 8.999999,-13 -3.37,-0.63 -9.289999,1.29 -10.999999,-1 3.26,-1.78 9.049999,-0.45 10.999999,-2 -0.68,0.53 -2.84,-0.85 -1,-1 2,0 4,0 6,0 0.19,-3.68 3.98,-2.82 6,-5 1.15,-1.24 0.17,-3.91 1,-5 1.04,-1.35 8.61,-7.77 9,-8 3.67,-2.21 8.19,-1.28 13,-3 2.85,-1.02 4.34,-3.31 7,-4 6.31,-1.65 12.91,-0.45 19,-4 4.67,0 9.33,0 14,0 4.3,2.58 5.59,2.46 12,2 0.471,2.13 -1.43,1.9 -3,2 10.971,8.69 19.87,19.46 28,31 -0.63,15.24 13.41,23.869997 16,37.9999973 2.45,13.37 -0.16,26.2499997 1,43.9999997 0.35,1.57 1.76,-0.88 2,1 z m -5,-38.9999997 c -0.439,-8.56 -3.49,-14.5100003 -7,-20.0000003 -0.71,3.71 1.71,4.29 1,8 3.811,1.5500003 4.45,11.52000026 6,12.0000003 z m -58,-68.9999973 c 4.52,-0.48 5.43,-4.57 8,-7 -2.35,-0.32 -3.75,-1.58 -7,-1 -1.55,1.45 -0.88,5.12 -1,8 z m -5,8 c 3.02,1.54 2.63,-5.17 1,-5 0.83,2.83 -1.41,2.59 -1,5 z m 0,-8 c -1.24,-3.32 5.2,-7.09 0,-8 -6.86,2.81 -17.06,2.27 -23,6 9.75,-1.41 14.23,2.44 23,2 z m 0,16 c -1.37,-2.28 2.58,-3.76 0,-4 -0.29,0.61 -2.49,3.85 0,4 z m -4,-2 c 2.88,-5.79 -2.47,-2.63 0,0 l 0,0 z m -3,21 c -0.58,-1.76 1.21,-5.88 -1,-6 -0.4,2.66 -4.31,5.69 1,6 z m -15,16.999997 c -0.15,-2.23 -2.52,1.3 -5,0 -2.24,-20.449997 -36.17,-13.979997 -33,7.0000003 5,-0.95 7.7,0.58 9,-5.0000003 0.04,-3.71 -7.46,0.13 -7,-4 2.67,0 5.33,0 8,0 -0.26,2.93 2.26,3.07 2,6 -1.43,3.9000003 -5.71,4.9500003 -10,6.0000003 -1.58,12.91 6.23,16.4389997 19,15 6.2,-7.8 15.04,-12.96 17,-25.0000003 z m -4,-5 c -1.05,2.53 3.37,4.43 4,2 -1.57,-0.43 -0.85,-3.15 -4,-2 z m -10,-18.999997 c -4.04,-3.52 -2.36,3.22 0,0 l 0,0 z"
   inkscape:connector-curvature="0"
   style="stroke:#000000;stroke-opacity:1" />

			
			
			<path
   id="path27"
   d="m 221.18894,21.239781 c -0.12,6.88 0.54,14.54 -1,20 -5.62,4.949996 -13.2,1.57 -19,3 -5.52,1.358996 -13.53,8.459996 -19,11.999996 -6.59,4.26 -11.97,9.12 -20,11 -2.81,0.189 -2.74,3.26 -5,4 -10.85,-0.811 -21.8,-1.529 -29,-6 5.02,-11.13 10.08,-27.629996 13,-43.999996 1.9,-10.65 1.13,-13.9299997 7,-20.99999974 2.88,-3.46999996 4.41,-5.19999996 8,-6.99999996 11.18,-5.5900003 29.52,0.46 41,9 2.84,0.17 1.95,-3.38 6,-2.00000004 10.529,2.47100004 11.83,14.16999974 18,20.99999974 z m -16,21 c 13.38,2.05 15.5,-7.17 14,-20 -6.87,-5.79 -6.79,-18.5399997 -18,-19.9999997 -0.23,3.57 5.641,1.02 5,5 -14.439,-1.561 -19.82,-12.18 -35,-13 -1.23,5.76999996 8.01,8.311 9,3 2.15,2.12999996 0.37,5.45 -2,6 -2.83,-0.17 -4.17,-1.83 -7,-2 -0.17,2.83 0.86,6.859 -2,7 -3.99,0.99 -3.01,-2.99 -7,-2 1.8,10.4799997 -4.64,11.5699997 -10,7.9999997 -0.02,5.09 -4.98,8.41 -8,5 3.87,-0.13 4.69,-3.311 7,-5 -2.38,-0.62 -4.66,-1.34 -5,-4 2.28,-1.3699997 3.76,2.58 4,0 -2.04,-0.2899997 -1.96,-2.7099997 -4,-2.9999997 -5.85,17.8109997 -5,42.3399957 -15,55.9999957 3.07,6.27 17.01,1.65 22,6 6.97,-4.029 15.99,-6.01 22,-11 -3.68,-1.98 -4.81,-6.52 -9,-8 -8.06,1.27 -8.01,10.65 -12,16 -2.87,-2.13 -5.51,-4.49 -8,-7 -4.68,0.02 -6.82,7.8 -11,5 3.17,-3.49 5.84,-7.49 13,-7 2.17,1.5 2.33,5 6,5 1.03,-9.311 5.77,-14.9 17,-14 -0.47,3.141 1.25,4.09 3,5 -1,-5.66 3.35,-5.99 2,-11.999996 3.17,-2.66 11.61,-5.05 14,0 2.51,-3.16 1.65,-9.68 7,-10 -1.76,-4.24 -4.76,-7.24 -9,-9 -3.48,2.52 -6.48,5.52 -9,9 -4.33,1 -5.55,-1.12 -8,-2 -6.85,1.82 -4.83,12.5 -11,15 0.38,-5.689 6.24,-22.811 17,-15 3.85,-3.82 5.94,-9.391 14,-9 5.29,3.04 7.1,9.57 12,13 -0.21,-2.87 0.25,-5.08 2,-6 7.49,-1.471 12.85,4.46 12,8 -4.971,-0.7 -4.1,-7.23 -11,-6 0.58,5.25 -1.76,7.57 -1,13 z m -3,0 c 0.311,-3.641 -0.16,-6.51 -1,-9 -8.55,-0.55 -5.939,10.061 -12,11.999996 -3.25,-0.09 -0.7,-5.959996 -5,-4.999996 -6.69,1.65 -6.13,10.539996 -8,16.999996 9.99,-3.67 14.41,-12.919996 26,-14.999996 z m -34,-36.9999997 c 0,-4 0,-8 0,-12 -5.57,-0.57 -9.04,0.96 -12,3 4.02,2.97999996 5.14,8.859 12,9 z m -9,7.9999997 c 2.77,-6.3699997 -2.05,-13.08999974 -6,-15.9999997 -6.48,5.02 -3.44,15.9389997 6,15.9999997 z"
   inkscape:connector-curvature="0"
   style="stroke:#000000;stroke-opacity:1" />

			
			<path
   id="path31"
   d="m 214.18894,-29.760216 c 4.221,10.909997 1.529,23.2299973 -8,25.9999973 -20.98,1.98 -31.25,-6.7500003 -38,-19.0000003 -1.02,-13.679997 7.17,-18.159997 14,-23.999997 -0.3,-2.33 -2.13,-4.31 1,-5 2,-2.44 12.07,-0.38 14,1 1.561,1.12 3.37,6.27 6,9 0.939,0.98 3.37,1.2 4,2 2.859,3.61 3.3,9.23 7,10 z m -8,22.9999973 c 3.08,-1.92 5.221,-4.7800003 8,-7.0000003 -1.34,-18.989997 -12.25,-28.419997 -24,-36.999997 0,1 0,2 0,3 -10.85,3.82 -18.49,10.85 -20,23.999997 2.42,3.25 5.84,5.5 7,10 6.76,5.5000003 14.34,7.7600003 29,7.0000003 z"
   inkscape:connector-curvature="0"
   style="stroke:#000000;stroke-opacity:1" />

			
			<path
   id="path35"
   d="m 194.18894,-34.760216 c 2.85,4.2 10.15,0.11 12,1 -1.02,7.479997 -9.109,2.1 -14,2 0,-3.33 0,-6.67 0,-10 3.8,-0.8 1.27,4.73 2,7 z"
   inkscape:connector-curvature="0"
   style="stroke:#000000;stroke-opacity:1" />

			
			
			
			
			
			
			
			
			
			
			
			
			
			
			
		</g>

	</g>

</g>
    </g>
  </g>
  <path
     style="opacity:0.07999998;fill:#d9c6ed;fill-opacity:1;stroke:none"
     id="rect3256-3"
     inkscape:connector-curvature="0"
     d="m 14.89831,8.7395363 c -3.242433,0 -5.8437503,2.7674997 -5.8437503,6.1874997 l 0,49.0625 C 27.878614,50.130638 54.866224,40.195879 86.96081,42.208286 l 0,-27.28125 c 0,-3.420001 -2.63257,-6.1874997 -5.875,-6.1874997 l -66.1875,0 z" />
  <g
     id="layer1"
     style="display:inline">
    <path
       d="M 12,6 C 8.676,6 6,8.676 6,12 l 0,72 c 0,3.324 2.676,6 6,6 l 72,0 c 3.324,0 6,-2.676 6,-6 L 90,12 C 90,8.676 87.324,6 84,6 L 12,6 z m 5,7 62,0 c 2.216001,0 4,1.784 4,4 l 0,62 c 10e-7,2.216001 -1.784,4 -4,4 l -62,0 c -2.215999,10e-7 -4,-1.784 -4,-4 l 0,-62 c 0,-2.215999 1.784,-4 4,-4 z"
       inkscape:connector-curvature="0"
       id="rect2419"
       style="fill:url(#linearGradient4094);fill-opacity:1;fill-rule:nonzero;stroke:none" />
    <path
       d="M 12,6 C 8.676,6 6,8.676 6,12 l 0,2 0,68 0,2 c 0,0.334721 0.04135,0.6507 0.09375,0.96875 0.0487,0.295596 0.09704,0.596915 0.1875,0.875 0.00988,0.03038 0.020892,0.0636 0.03125,0.09375 0.098865,0.287771 0.2348802,0.547452 0.375,0.8125 0.1445918,0.273507 0.3156161,0.535615 0.5,0.78125 0.1843839,0.245635 0.3737765,0.473472 0.59375,0.6875 0.439947,0.428056 0.94291,0.814526 1.5,1.09375 0.278545,0.139612 0.5734731,0.246947 0.875,0.34375 -0.2562018,-0.100222 -0.4867109,-0.236272 -0.71875,-0.375 -0.00741,-0.0044 -0.023866,0.0045 -0.03125,0 -0.031933,-0.0193 -0.062293,-0.04251 -0.09375,-0.0625 -0.120395,-0.0767 -0.2310226,-0.163513 -0.34375,-0.25 -0.1061728,-0.0808 -0.2132809,-0.161112 -0.3125,-0.25 C 8.4783201,88.557317 8.3087904,88.373362 8.15625,88.1875 8.0486711,88.057245 7.9378561,87.922215 7.84375,87.78125 7.818661,87.74287 7.805304,87.69538 7.78125,87.65625 7.716487,87.553218 7.6510225,87.451733 7.59375,87.34375 7.4927417,87.149044 7.3880752,86.928049 7.3125,86.71875 7.30454,86.69694 7.288911,86.6782 7.28125,86.65625 7.2494249,86.5643 7.2454455,86.469419 7.21875,86.375 7.1884177,86.268382 7.1483606,86.171969 7.125,86.0625 7.0521214,85.720988 7,85.364295 7,85 L 7,83 7,15 7,13 C 7,10.218152 9.2181517,8 12,8 l 2,0 68,0 2,0 c 2.781848,0 5,2.218152 5,5 l 0,2 0,68 0,2 c 0,0.364295 -0.05212,0.720988 -0.125,1.0625 -0.04415,0.206893 -0.08838,0.397658 -0.15625,0.59375 -0.0077,0.02195 -0.0233,0.04069 -0.03125,0.0625 -0.06274,0.173739 -0.138383,0.367449 -0.21875,0.53125 -0.04158,0.0828 -0.07904,0.169954 -0.125,0.25 -0.0546,0.09721 -0.126774,0.18835 -0.1875,0.28125 -0.09411,0.140965 -0.204921,0.275995 -0.3125,0.40625 -0.143174,0.17445 -0.303141,0.346998 -0.46875,0.5 -0.01117,0.0102 -0.01998,0.02115 -0.03125,0.03125 -0.138386,0.125556 -0.285091,0.234436 -0.4375,0.34375 -0.102571,0.07315 -0.204318,0.153364 -0.3125,0.21875 -0.0074,0.0045 -0.02384,-0.0044 -0.03125,0 -0.232039,0.138728 -0.462548,0.274778 -0.71875,0.375 0.301527,-0.0968 0.596455,-0.204138 0.875,-0.34375 0.55709,-0.279224 1.060053,-0.665694 1.5,-1.09375 0.219973,-0.214028 0.409366,-0.441865 0.59375,-0.6875 0.184384,-0.245635 0.355408,-0.507743 0.5,-0.78125 0.14012,-0.265048 0.276135,-0.524729 0.375,-0.8125 0.01041,-0.03078 0.02133,-0.06274 0.03125,-0.09375 0.09046,-0.278085 0.1388,-0.579404 0.1875,-0.875 C 89.95865,84.6507 90,84.334721 90,84 l 0,-2 0,-68 0,-2 C 90,8.676 87.324,6 84,6 L 12,6 z"
       inkscape:connector-curvature="0"
       id="rect3728"
       style="opacity:0.5;fill:url(#linearGradient4096);fill-opacity:1;fill-rule:nonzero;stroke:none" />
    <path
       d="m 17,12 c -2.752703,0 -5,2.247297 -5,5 l 0,62 c 0,2.752703 2.247298,5 5,5 l 62,0 c 2.752703,0 5.000001,-2.247297 5,-5 l 0,-62 c 0,-2.752703 -2.247297,-5 -5,-5 l -62,0 z m 0,2 62,0 c 1.679298,0 3,1.320703 3,3 l 0,62 c 10e-7,1.679297 -1.320703,3 -3,3 l -62,0 c -1.679296,0 -3,-1.320703 -3,-3 l 0,-62 c 0,-1.679297 1.320703,-3 3,-3 z"
       inkscape:connector-curvature="0"
       id="rect3425"
       style="fill:url(#linearGradient4098);fill-opacity:1;fill-rule:nonzero;stroke:none" />
    <path
       d="M 12,90 C 8.676,90 6,87.324 6,84 L 6,82 6,14 6,12 c 0,-0.334721 0.04135,-0.6507 0.09375,-0.96875 0.0487,-0.295596 0.09704,-0.596915 0.1875,-0.875 C 6.29113,10.12587 6.302142,10.09265 6.3125,10.0625 6.411365,9.774729 6.5473802,9.515048 6.6875,9.25 6.8320918,8.976493 7.0031161,8.714385 7.1875,8.46875 7.3718839,8.223115 7.5612765,7.995278 7.78125,7.78125 8.221197,7.353194 8.72416,6.966724 9.28125,6.6875 9.559795,6.547888 9.8547231,6.440553 10.15625,6.34375 9.9000482,6.443972 9.6695391,6.580022 9.4375,6.71875 c -0.00741,0.0044 -0.023866,-0.0045 -0.03125,0 -0.031933,0.0193 -0.062293,0.04251 -0.09375,0.0625 -0.120395,0.0767 -0.2310226,0.163513 -0.34375,0.25 -0.1061728,0.0808 -0.2132809,0.161112 -0.3125,0.25 C 8.4783201,7.442683 8.3087904,7.626638 8.15625,7.8125 8.0486711,7.942755 7.9378561,8.077785 7.84375,8.21875 7.818661,8.25713 7.805304,8.30462 7.78125,8.34375 7.716487,8.446782 7.6510225,8.548267 7.59375,8.65625 7.4927417,8.850956 7.3880752,9.071951 7.3125,9.28125 7.30454,9.30306 7.288911,9.3218 7.28125,9.34375 7.2494249,9.4357 7.2454455,9.530581 7.21875,9.625 7.1884177,9.731618 7.1483606,9.828031 7.125,9.9375 7.0521214,10.279012 7,10.635705 7,11 l 0,2 0,68 0,2 c 0,2.781848 2.2181517,5 5,5 l 2,0 68,0 2,0 c 2.781848,0 5,-2.218152 5,-5 l 0,-2 0,-68 0,-2 C 89,10.635705 88.94788,10.279012 88.875,9.9375 88.83085,9.730607 88.78662,9.539842 88.71875,9.34375 88.71105,9.3218 88.69545,9.30306 88.6875,9.28125 88.62476,9.107511 88.549117,8.913801 88.46875,8.75 88.42717,8.6672 88.38971,8.580046 88.34375,8.5 88.28915,8.40279 88.216976,8.31165 88.15625,8.21875 88.06214,8.077785 87.951329,7.942755 87.84375,7.8125 87.700576,7.63805 87.540609,7.465502 87.375,7.3125 87.36383,7.3023 87.35502,7.29135 87.34375,7.28125 87.205364,7.155694 87.058659,7.046814 86.90625,6.9375 86.803679,6.86435 86.701932,6.784136 86.59375,6.71875 c -0.0074,-0.0045 -0.02384,0.0044 -0.03125,0 -0.232039,-0.138728 -0.462548,-0.274778 -0.71875,-0.375 0.301527,0.0968 0.596455,0.204138 0.875,0.34375 0.55709,0.279224 1.060053,0.665694 1.5,1.09375 0.219973,0.214028 0.409366,0.441865 0.59375,0.6875 0.184384,0.245635 0.355408,0.507743 0.5,0.78125 0.14012,0.265048 0.276135,0.524729 0.375,0.8125 0.01041,0.03078 0.02133,0.06274 0.03125,0.09375 0.09046,0.278085 0.1388,0.579404 0.1875,0.875 C 89.95865,11.3493 90,11.665279 90,12 l 0,2 0,68 0,2 c 0,3.324 -2.676,6 -6,6 l -72,0 z"
       inkscape:connector-curvature="0"
       id="path3615"
       style="opacity:0.4;fill:url(#radialGradient4100);fill-opacity:1;fill-rule:nonzero;stroke:none" />
    <rect
       width="66"
       height="66"
       rx="12"
       ry="12"
       x="15"
       y="15"
       clip-path="url(#clipPath3613-5)"
       id="rect3171"
       style="opacity:0.1;fill:url(#linearGradient4102);fill-opacity:1;fill-rule:nonzero;stroke:#ffffff;stroke-width:0.5;stroke-linecap:round;stroke-linejoin:miter;stroke-miterlimit:4;stroke-opacity:1;stroke-dasharray:none;stroke-dashoffset:0;filter:url(#filter3794-2)" />
  </g>
</svg>
