<?xml version="1.0" encoding="UTF-8" standalone="no"?>
<!-- Created with Inkscape (http://www.inkscape.org/) -->

<svg
   xmlns:dc="http://purl.org/dc/elements/1.1/"
   xmlns:cc="http://creativecommons.org/ns#"
   xmlns:rdf="http://www.w3.org/1999/02/22-rdf-syntax-ns#"
   xmlns:svg="http://www.w3.org/2000/svg"
   xmlns="http://www.w3.org/2000/svg"
   xmlns:xlink="http://www.w3.org/1999/xlink"
   xmlns:sodipodi="http://sodipodi.sourceforge.net/DTD/sodipodi-0.dtd"
   xmlns:inkscape="http://www.inkscape.org/namespaces/inkscape"
   version="1.0"
   width="96"
   height="96"
   id="svg2408"
   inkscape:version="0.48.2 r9819"
   sodipodi:docname="wlm.svg"
   inkscape:export-filename="/home/buckstabu/Dropbox/Public/lcicons/lcproto2.png"
   inkscape:export-xdpi="90"
   inkscape:export-ydpi="90">
  <sodipodi:namedview
     pagecolor="#ffffff"
     bordercolor="#666666"
     borderopacity="1"
     objecttolerance="10"
     gridtolerance="10"
     guidetolerance="10"
     inkscape:pageopacity="0"
     inkscape:pageshadow="2"
     inkscape:window-width="1920"
     inkscape:window-height="1145"
     id="namedview68"
     showgrid="false"
     inkscape:zoom="0.58925565"
     inkscape:cx="-523.95705"
     inkscape:cy="28.650543"
     inkscape:window-x="1678"
     inkscape:window-y="32"
     inkscape:window-maximized="1"
     inkscape:current-layer="g6034" />
  <defs
     id="defs2410">
    <linearGradient
       x1="45.447727"
       y1="92.539597"
       x2="45.447727"
       y2="7.0165396"
       id="ButtonShadow"
       gradientUnits="userSpaceOnUse"
       gradientTransform="scale(1.0058652,0.994169)">
      <stop
         id="stop3750"
         style="stop-color:#000000;stop-opacity:1"
         offset="0" />
      <stop
         id="stop3752"
         style="stop-color:#000000;stop-opacity:0.58823532"
         offset="1" />
    </linearGradient>
    <filter
       color-interpolation-filters="sRGB"
       id="filter3174">
      <feGaussianBlur
         id="feGaussianBlur3176"
         stdDeviation="1.71" />
    </filter>
    <linearGradient
       x1="45.447727"
       y1="92.539597"
       x2="45.447727"
       y2="7.0165396"
       id="ButtonShadow-310-770-301-339-1"
       gradientUnits="userSpaceOnUse"
       gradientTransform="scale(1.0058652,0.994169)">
      <stop
         id="stop5056-0"
         style="stop-color:#0b0b0b;stop-opacity:1"
         offset="0" />
      <stop
         id="stop5058-7"
         style="stop-color:#ff6600;stop-opacity:1;"
         offset="1" />
    </linearGradient>
    <linearGradient
       id="linearGradient3224-8">
      <stop
         offset="0"
         style="stop-color:#42394b;stop-opacity:1"
         id="stop3226-7" />
      <stop
         id="stop6032"
         style="stop-color:#211c25;stop-opacity:1;"
         offset="0.5" />
      <stop
         offset="1"
         style="stop-color:#42394b;stop-opacity:1;"
         id="stop3228-08" />
    </linearGradient>
    <linearGradient
       inkscape:collect="always"
       xlink:href="#linearGradient3224-8"
       id="linearGradient3116"
       gradientUnits="userSpaceOnUse"
       gradientTransform="translate(-14.3418,-282.9668)"
       x1="273.39651"
       y1="328.332"
       x2="262.50369"
       y2="332.733" />
    <linearGradient
       inkscape:collect="always"
       xlink:href="#ButtonShadow-310-770-301-339-1"
       id="linearGradient3894"
       gradientUnits="userSpaceOnUse"
       gradientTransform="translate(-21.5659,-121.0361)"
       x1="271.26859"
       y1="143.9473"
       x2="315.61929"
       y2="143.9473" />
    <linearGradient
       inkscape:collect="always"
       xlink:href="#ButtonShadow-310-770-301-339-1"
       id="linearGradient3896"
       gradientUnits="userSpaceOnUse"
       gradientTransform="translate(-21.5659,-121.0361)"
       x1="273.0928"
       y1="165.3398"
       x2="311.6514"
       y2="165.3398" />
    <linearGradient
       inkscape:collect="always"
       xlink:href="#ButtonShadow-310-770-301-339-1"
       id="linearGradient3898"
       gradientUnits="userSpaceOnUse"
       gradientTransform="translate(-21,-121.5)"
       x1="299.10159"
       y1="198.21291"
       x2="295.44531"
       y2="165.6161" />
    <linearGradient
       inkscape:collect="always"
       xlink:href="#ButtonShadow-310-770-301-339-1"
       id="linearGradient3900"
       gradientUnits="userSpaceOnUse"
       gradientTransform="translate(-21,-121.5)"
       x1="236.5762"
       y1="169.89059"
       x2="252.4729"
       y2="141.1055" />
    <linearGradient
       inkscape:collect="always"
       xlink:href="#ButtonShadow-310-770-301-339-1"
       id="linearGradient3902"
       gradientUnits="userSpaceOnUse"
       gradientTransform="translate(-21,-121.5)"
       x1="254.3887"
       y1="160.92191"
       x2="274.77151"
       y2="181.3047" />
    <linearGradient
       inkscape:collect="always"
       xlink:href="#ButtonShadow-310-770-301-339-1"
       id="linearGradient3904"
       gradientUnits="userSpaceOnUse"
       gradientTransform="translate(-21,-121.5)"
       x1="280.25391"
       y1="201.6445"
       x2="261.9498"
       y2="173.45869" />
  </defs>
  <metadata
     id="metadata2413">
    <rdf:RDF>
      <cc:Work
         rdf:about="">
        <dc:format>image/svg+xml</dc:format>
        <dc:type
           rdf:resource="http://purl.org/dc/dcmitype/StillImage" />
        <dc:title />
      </cc:Work>
    </rdf:RDF>
  </metadata>
  <g
     id="layer2"
     style="display:none">
    <rect
       width="86"
       height="85"
       rx="6"
       ry="6"
       x="5"
       y="7"
       id="rect3745"
       style="opacity:0.9;fill:url(#ButtonShadow);fill-opacity:1;fill-rule:nonzero;stroke:none;filter:url(#filter3174)" />
  </g>
  <g
     id="g5034"
     transform="matrix(2.2829547,0,0,2.2829547,-455.71248,162.1252)">
    <g
       transform="matrix(0.48884711,0,0,0.48884711,97.853879,-70.06891)"
       id="g6034">
      <path
         style="fill:url(#linearGradient3900);fill-opacity:1"
         inkscape:connector-curvature="0"
         d="m 246.235,35.751 c -0.233,-1.233 -0.429,-2.459 -0.587,-3.661 -8.091,-7.538 -19.813,-13.804 -28.996,-16.517 -2.645,-0.78 -5.909,-1.285 -7.639,0.642 -1.397,1.557 -0.975,4.494 0.6,8.081 5.427,12.372 15.466,25.525 25.344,33.211 0,-0.002 0,-0.003 0,-0.003 -2.167,-10.255 1.542,-19.23 11.278,-21.753 z"
         id="path5063" />
      <path
         style="fill:url(#linearGradient3902);fill-opacity:1"
         inkscape:connector-curvature="0"
         d="m 253.156,55.715 c -3.012,-5.187 -5.569,-12.761 -6.921,-19.964 -9.736,2.523 -13.445,11.498 -11.278,21.753 0,0 0,0.001 0,0.003 0.003,0.006 0.003,0.003 0.002,0 1.292,1.006 2.733,1.988 3.864,2.576 5.238,2.723 8.701,2.186 11.688,0.499 1.192,-0.676 2.703,-2.399 3.468,-3.502 -0.283,-0.451 -0.557,-0.906 -0.823,-1.365 z"
         id="path5078" />
      <path
         style="fill:url(#linearGradient3904);fill-opacity:1"
         inkscape:connector-curvature="0"
         d="m 250.511,60.582 c -2.986,1.687 -6.449,2.224 -11.688,-0.499 -1.131,-0.588 -2.572,-1.57 -3.864,-2.576 0,0.003 0.001,0.005 0,0.002 3.996,10.235 10.033,17.533 18.036,21.864 1.431,0.773 2.768,0.978 4.177,0.305 0.942,-0.449 1.471,-1.501 1.731,-2.117 1.263,-2.99 1.864,-6.584 2.155,-11.471 -2.702,-2.763 -5.078,-5.797 -7.08,-9.01 -0.764,1.103 -2.275,2.826 -3.467,3.502 z"
         id="path5093" />
      <path
         style="fill:url(#linearGradient3898);fill-opacity:1"
         inkscape:connector-curvature="0"
         d="m 290.086,43.759 c -0.814,2.26 -1.568,3.901 -3.148,6.544 -2.378,3.978 -6.64,6.347 -11.544,6.886 -4.461,0.489 -10.494,-0.339 -15.355,-2.243 0.746,3.589 1.105,7.321 1.021,11.145 3.464,3.398 7.521,6.388 12.081,8.662 0.794,0.396 1.795,0.669 2.665,0.669 1.351,0 2.628,-0.512 3.769,-1.424 8.106,-6.481 13.182,-18.086 10.511,-30.239 z"
         id="path5102" />
      <path
         style="fill:url(#linearGradient3896);fill-opacity:1"
         inkscape:connector-curvature="0"
         d="m 251.527,33.93 c 3.61,6.164 6.591,13.283 8.02,18.891 0.179,0.702 0.344,1.411 0.491,2.125 4.861,1.904 10.895,2.732 15.355,2.243 4.904,-0.539 9.166,-2.908 11.544,-6.886 1.58,-2.643 2.334,-4.284 3.148,-6.544 -7.773,-14.397 -27.667,-14.284 -38.558,-9.829 z"
         id="path5109" />
      <path
         style="fill:url(#linearGradient3894);fill-opacity:1.0"
         inkscape:connector-curvature="0"
         d="M 291.098,7.777 C 290.32,6.133 288.986,4.25 287.472,3.33 c -2.935,-1.781 -6.637,-1.628 -10.271,0.106 -11.61,5.538 -23.772,15.465 -27.497,27.548 0.621,0.949 1.23,1.934 1.824,2.945 10.891,-4.455 30.784,-4.568 38.559,9.829 3.774,-10.479 6.466,-24.45 1.011,-35.981 z"
         id="path5116" />
      <path
         style="fill:url(#linearGradient3116);fill-opacity:1;fill-rule:evenodd"
         inkscape:connector-curvature="0"
         clip-rule="evenodd"
         d="m 245.589,31.621 c -0.155,-1.278 0.161,-2.434 1.006,-2.757 0.802,-0.309 1.811,0.206 2.495,1.202 4.696,6.841 8.719,15.925 10.457,22.754 1.077,4.232 1.612,8.684 1.512,13.27 -3.081,-3.152 -5.74,-6.655 -7.902,-10.375 -3.595,-6.194 -6.546,-15.791 -7.568,-24.094 z"
         id="path5133" />
    </g>
  </g>
</svg>
