<?xml version="1.0" encoding="UTF-8" ?>
<!DOCTYPE svg PUBLIC "-//W3C//DTD SVG 1.1//EN" "http://www.w3.org/Graphics/SVG/1.1/DTD/svg11.dtd">
<svg width="248pt" height="203pt" viewBox="0 0 248 203" version="1.1" xmlns="http://www.w3.org/2000/svg">
<path fill="#ffffff" d=" M 0.00 0.00 L 113.14 0.00 C 88.58 0.48 63.90 1.20 39.64 5.33 C 32.22 6.81 24.58 8.31 18.00 12.24 C 11.19 17.08 7.46 25.03 5.03 32.81 C 1.46 44.44 0.31 56.63 0.00 68.75 L 0.00 0.00 Z" />
<path fill="#030303" d=" M 113.14 0.00 L 127.34 0.00 C 148.98 0.38 170.64 1.06 192.16 3.50 C 203.32 4.87 214.64 6.06 225.27 9.91 C 232.64 12.36 237.16 19.38 240.09 26.16 C 245.65 39.97 247.35 54.95 248.00 69.72 L 248.00 81.89 C 247.28 95.85 245.79 109.95 241.27 123.26 C 239.04 129.89 235.73 136.58 230.14 141.01 C 223.80 144.89 216.22 145.83 209.02 147.01 C 189.80 149.68 170.37 150.47 150.99 151.10 C 122.82 151.68 94.62 151.35 66.49 149.54 C 65.52 157.54 65.82 166.28 70.81 173.01 C 80.33 186.08 95.45 193.12 109.62 199.93 C 109.51 200.70 109.29 202.23 109.18 203.00 L 94.62 203.00 C 79.30 201.47 63.56 195.48 53.65 183.24 C 45.31 173.42 43.17 159.95 43.36 147.45 C 34.95 146.00 26.04 145.51 18.42 141.35 C 12.65 136.99 9.71 130.05 7.39 123.43 C 2.34 107.79 0.38 91.33 0.00 74.95 L 0.00 68.75 C 0.31 56.63 1.46 44.44 5.03 32.81 C 7.46 25.03 11.19 17.08 18.00 12.24 C 24.58 8.31 32.22 6.81 39.64 5.33 C 63.90 1.20 88.58 0.48 113.14 0.00 Z" />
<path fill="#ffffff" d=" M 127.34 0.00 L 248.00 0.00 L 248.00 69.72 C 247.35 54.95 245.65 39.97 240.09 26.16 C 237.16 19.38 232.64 12.36 225.27 9.91 C 214.64 6.06 203.32 4.87 192.16 3.50 C 170.64 1.06 148.98 0.38 127.34 0.00 Z" />
<path fill="#ffffff" d=" M 84.97 5.25 C 118.64 3.88 152.41 4.26 185.98 7.31 C 198.70 8.78 211.64 9.94 223.83 14.13 C 230.86 16.48 234.34 23.77 236.89 30.18 C 242.67 46.05 243.65 63.21 243.50 79.96 C 243.06 94.93 241.48 110.14 236.20 124.27 C 233.65 130.58 230.01 137.71 222.84 139.54 C 208.62 143.51 193.76 144.29 179.11 145.45 C 141.44 147.55 103.64 147.37 65.99 144.99 C 64.89 144.91 63.85 145.15 62.87 145.69 C 60.52 155.44 60.91 166.54 66.81 175.00 C 74.15 185.72 85.51 192.66 96.73 198.70 C 83.01 197.65 68.88 192.99 59.19 182.83 C 54.50 177.93 51.17 171.79 49.58 165.20 C 47.65 158.30 48.02 151.07 47.78 143.98 C 39.08 141.30 29.32 142.11 21.07 137.72 C 17.77 135.62 16.01 131.94 14.25 128.59 C 8.33 115.50 6.41 101.07 5.02 86.90 C 4.05 71.79 4.20 56.46 7.30 41.58 C 9.19 33.38 11.81 24.94 17.46 18.51 C 22.02 13.81 28.71 12.42 34.82 10.90 C 51.29 7.26 68.18 6.29 84.97 5.25 Z" />
<path fill="#ffffff" d=" M 0.00 74.95 C 0.38 91.33 2.34 107.79 7.39 123.43 C 9.71 130.05 12.65 136.99 18.42 141.35 C 26.04 145.51 34.95 146.00 43.36 147.45 C 43.17 159.95 45.31 173.42 53.65 183.24 C 63.56 195.48 79.30 201.47 94.62 203.00 L 0.00 203.00 L 0.00 74.95 Z" />
<path fill="#ffffff" d=" M 241.27 123.26 C 245.79 109.95 247.28 95.85 248.00 81.89 L 248.00 203.00 L 109.18 203.00 C 109.29 202.23 109.51 200.70 109.62 199.93 C 95.45 193.12 80.33 186.08 70.81 173.01 C 65.82 166.28 65.52 157.54 66.49 149.54 C 94.62 151.35 122.82 151.68 150.99 151.10 C 170.37 150.47 189.80 149.68 209.02 147.01 C 216.22 145.83 223.80 144.89 230.14 141.01 C 235.73 136.58 239.04 129.89 241.27 123.26 Z" />
</svg>
