<?xml version="1.0" encoding="UTF-8" standalone="no"?>
<!-- Created with Inkscape (http://www.inkscape.org/) -->

<svg
   xmlns:dc="http://purl.org/dc/elements/1.1/"
   xmlns:cc="http://creativecommons.org/ns#"
   xmlns:rdf="http://www.w3.org/1999/02/22-rdf-syntax-ns#"
   xmlns:svg="http://www.w3.org/2000/svg"
   xmlns="http://www.w3.org/2000/svg"
   xmlns:xlink="http://www.w3.org/1999/xlink"
   xmlns:sodipodi="http://sodipodi.sourceforge.net/DTD/sodipodi-0.dtd"
   xmlns:inkscape="http://www.inkscape.org/namespaces/inkscape"
   version="1.0"
   width="96"
   height="96"
   id="svg2408"
   inkscape:version="0.48.2 r9819"
   sodipodi:docname="mrim.svg"
   inkscape:export-filename="/home/buckstabu/Dropbox/Public/lcicons/lcproto2.png"
   inkscape:export-xdpi="90"
   inkscape:export-ydpi="90">
  <sodipodi:namedview
     pagecolor="#ffffff"
     bordercolor="#666666"
     borderopacity="1"
     objecttolerance="10"
     gridtolerance="10"
     guidetolerance="10"
     inkscape:pageopacity="0"
     inkscape:pageshadow="2"
     inkscape:window-width="1920"
     inkscape:window-height="1145"
     id="namedview68"
     showgrid="false"
     inkscape:zoom="1.6666667"
     inkscape:cx="-48.027394"
     inkscape:cy="86.214217"
     inkscape:window-x="1678"
     inkscape:window-y="32"
     inkscape:window-maximized="1"
     inkscape:current-layer="svg2408" />
  <defs
     id="defs2410">
    <linearGradient
       id="linearGradient4017">
      <stop
         style="stop-color:#ff6600;stop-opacity:1;"
         offset="0"
         id="stop4019" />
      <stop
         style="stop-color:#ff1e00;stop-opacity:1;"
         offset="1"
         id="stop4021" />
    </linearGradient>
    <linearGradient
       x1="45.447727"
       y1="92.539597"
       x2="45.447727"
       y2="7.0165396"
       id="ButtonShadow"
       gradientUnits="userSpaceOnUse"
       gradientTransform="scale(1.0058652,0.994169)">
      <stop
         id="stop3750"
         style="stop-color:#000000;stop-opacity:1"
         offset="0" />
      <stop
         id="stop3752"
         style="stop-color:#000000;stop-opacity:0.58823532"
         offset="1" />
    </linearGradient>
    <filter
       color-interpolation-filters="sRGB"
       id="filter3174">
      <feGaussianBlur
         id="feGaussianBlur3176"
         stdDeviation="1.71" />
    </filter>
    <linearGradient
       inkscape:collect="always"
       xlink:href="#linearGradient4017"
       id="linearGradient7864"
       x1="-317.51443"
       y1="-70.380196"
       x2="-317.44739"
       y2="-35.698116"
       gradientUnits="userSpaceOnUse" />
    <linearGradient
       inkscape:collect="always"
       xlink:href="#linearGradient4017"
       id="linearGradient7866"
       gradientUnits="userSpaceOnUse"
       x1="-317.51443"
       y1="-70.380196"
       x2="-317.44739"
       y2="-35.698116" />
  </defs>
  <metadata
     id="metadata2413">
    <rdf:RDF>
      <cc:Work
         rdf:about="">
        <dc:format>image/svg+xml</dc:format>
        <dc:type
           rdf:resource="http://purl.org/dc/dcmitype/StillImage" />
        <dc:title />
      </cc:Work>
    </rdf:RDF>
  </metadata>
  <g
     id="layer2"
     style="display:none">
    <rect
       width="86"
       height="85"
       rx="6"
       ry="6"
       x="5"
       y="7"
       id="rect3745"
       style="opacity:0.9;fill:url(#ButtonShadow);fill-opacity:1;fill-rule:nonzero;stroke:none;filter:url(#filter3174)" />
  </g>
  <g
     style="font-size:40px;font-style:normal;font-weight:normal;line-height:125%;letter-spacing:0px;word-spacing:0px;fill:url(#linearGradient7864);fill-opacity:1;stroke:#000000;stroke-opacity:1;font-family:Sans"
     id="flowRoot7839"
     transform="matrix(2.7334,0,0,2.7334,917.00231,192.37723)">
    <path
       d="m -306.15234,-65.27082 c 1.4583,1.458357 2.59762,3.209658 3.41797,5.253907 0.83329,2.031267 1.24996,4.309911 1.25,6.835937 -4e-5,1.822928 -0.26046,3.678395 -0.78125,5.566406 -0.52087,1.875006 -1.17191,3.430994 -1.95313,4.667969 l -9.88281,0 -0.3125,-1.523437 c -0.74221,0.494795 -1.45836,0.89193 -2.14844,1.191406 -0.69012,0.286461 -1.68622,0.42969 -2.98828,0.429687 -2.12241,3e-6 -3.84116,-0.872392 -5.15625,-2.617187 -1.31512,-1.757806 -1.97267,-4.121085 -1.97266,-7.089844 -1e-5,-1.588528 0.22135,-2.975245 0.66407,-4.160156 0.44269,-1.197899 1.04816,-2.239565 1.8164,-3.125 0.71613,-0.833313 1.58202,-1.484354 2.59766,-1.953125 1.01561,-0.468728 2.02472,-0.703103 3.02734,-0.703125 0.85936,2.2e-5 1.62107,0.162782 2.28516,0.488281 0.66404,0.312521 1.17836,0.644552 1.54297,0.996094 l 0,-1.210938 4.53125,0 0,15.9375 3.32031,0 c 0.46872,-1.028638 0.81377,-2.141919 1.03516,-3.339843 0.23434,-1.210927 0.35153,-2.36978 0.35156,-3.476563 -3e-5,-2.200506 -0.30602,-4.127587 -0.91797,-5.78125 -0.61201,-1.666646 -1.45836,-3.046853 -2.53906,-4.140625 -1.1068,-1.119768 -2.40237,-1.9531 -3.88672,-2.5 -1.4844,-0.546849 -3.09247,-0.820286 -4.82422,-0.820312 -1.65366,2.6e-5 -3.22918,0.325546 -4.72656,0.976562 -1.48439,0.651066 -2.79298,1.529972 -3.92578,2.636719 -1.15887,1.132834 -2.10288,2.552103 -2.83204,4.257812 -0.71615,1.705746 -1.07422,3.574234 -1.07421,5.605469 -10e-6,2.213552 0.33853,4.173186 1.01562,5.878906 0.6901,1.705734 1.60155,3.125004 2.73438,4.257813 1.1328,1.119793 2.4479,1.972657 3.94531,2.558594 1.49738,0.585936 3.07941,0.878905 4.74609,0.878906 1.10675,-10e-7 2.36326,-0.104168 3.76953,-0.3125 1.41925,-0.195313 2.67576,-0.45573 3.76953,-0.78125 l 0,3.789062 c -1.21096,0.273434 -2.41539,0.481767 -3.61328,0.625 -1.19794,0.143225 -2.50653,0.21484 -3.92578,0.214844 -2.38283,-4e-6 -4.58986,-0.41016 -6.62109,-1.230469 -2.01824,-0.820315 -3.76954,-1.985678 -5.25391,-3.496093 -1.47136,-1.497395 -2.6237,-3.307289 -3.45703,-5.429688 -0.82032,-2.122388 -1.23047,-4.440094 -1.23047,-6.953125 0,-2.42186 0.42969,-4.661441 1.28906,-6.71875 0.85937,-2.070291 2.04427,-3.873675 3.55469,-5.410156 1.47135,-1.510391 3.22916,-2.701796 5.27344,-3.574219 2.05728,-0.872367 4.23826,-1.308564 6.54297,-1.308594 2.29164,3e-5 4.42706,0.403675 6.40625,1.210938 1.99216,0.807319 3.70439,1.94013 5.13672,3.398437 m -8.69141,17.148438 0,-9.84375 c -0.53388,-0.27342 -1.02867,-0.468732 -1.48437,-0.585938 -0.45575,-0.13019 -0.97008,-0.195294 -1.54297,-0.195312 -1.25002,1.8e-5 -2.21356,0.546893 -2.89063,1.640625 -0.6771,1.093766 -1.01564,2.59116 -1.01562,4.492187 -2e-5,2.057302 0.27993,3.580738 0.83984,4.570313 0.55988,0.98959 1.48436,1.484381 2.77344,1.484375 0.67706,6e-6 1.26951,-0.130202 1.77734,-0.390625 0.50779,-0.273431 1.02211,-0.664055 1.54297,-1.171875"
       style="font-weight:bold;fill:url(#linearGradient7866);fill-opacity:1;stroke:#000000;stroke-opacity:1;-inkscape-font-specification:Sans Bold"
       id="path7848"
       inkscape:connector-curvature="0" />
  </g>
</svg>
