<?xml version="1.0" encoding="UTF-8" standalone="no"?>
<!-- Created with Inkscape (http://www.inkscape.org/) -->

<svg
   xmlns:dc="http://purl.org/dc/elements/1.1/"
   xmlns:cc="http://creativecommons.org/ns#"
   xmlns:rdf="http://www.w3.org/1999/02/22-rdf-syntax-ns#"
   xmlns:svg="http://www.w3.org/2000/svg"
   xmlns="http://www.w3.org/2000/svg"
   xmlns:xlink="http://www.w3.org/1999/xlink"
   xmlns:sodipodi="http://sodipodi.sourceforge.net/DTD/sodipodi-0.dtd"
   xmlns:inkscape="http://www.inkscape.org/namespaces/inkscape"
   version="1.0"
   width="96"
   height="96"
   id="svg2408"
   inkscape:version="0.48.2 r9819"
   sodipodi:docname="azoth.svg"
   inkscape:export-filename="/home/buckstabu/Dropbox/Public/lcicons/lcproto2.png"
   inkscape:export-xdpi="90"
   inkscape:export-ydpi="90">
  <sodipodi:namedview
     pagecolor="#ffffff"
     bordercolor="#666666"
     borderopacity="1"
     objecttolerance="10"
     gridtolerance="10"
     guidetolerance="10"
     inkscape:pageopacity="0"
     inkscape:pageshadow="2"
     inkscape:window-width="1859"
     inkscape:window-height="1036"
     id="namedview68"
     showgrid="false"
     inkscape:zoom="1.6666667"
     inkscape:cx="-48.027394"
     inkscape:cy="-33.785785"
     inkscape:window-x="61"
     inkscape:window-y="0"
     inkscape:window-maximized="1"
     inkscape:current-layer="svg2408" />
  <defs
     id="defs2410">
    <linearGradient
       id="linearGradient4017">
      <stop
         style="stop-color:#ff6600;stop-opacity:1;"
         offset="0"
         id="stop4019" />
      <stop
         style="stop-color:#ff1e00;stop-opacity:1;"
         offset="1"
         id="stop4021" />
    </linearGradient>
    <linearGradient
       x1="45.447727"
       y1="92.539597"
       x2="45.447727"
       y2="7.0165396"
       id="ButtonShadow"
       gradientUnits="userSpaceOnUse"
       gradientTransform="scale(1.0058652,0.994169)">
      <stop
         id="stop3750"
         style="stop-color:#000000;stop-opacity:1"
         offset="0" />
      <stop
         id="stop3752"
         style="stop-color:#000000;stop-opacity:0.58823532"
         offset="1" />
    </linearGradient>
    <filter
       color-interpolation-filters="sRGB"
       id="filter3174">
      <feGaussianBlur
         id="feGaussianBlur3176"
         stdDeviation="1.71" />
    </filter>
    <linearGradient
       id="linearGradient3224-6">
      <stop
         id="stop3226-2"
         style="stop-color:#42394b;stop-opacity:1"
         offset="0" />
      <stop
         id="stop3228-1"
         style="stop-color:#000000;stop-opacity:1"
         offset="1" />
    </linearGradient>
    <linearGradient
       id="linearGradient3187-5">
      <stop
         id="stop3189-3"
         style="stop-color:#b4b4b4;stop-opacity:1"
         offset="0" />
      <stop
         id="stop3191-2"
         style="stop-color:#e6e6e6;stop-opacity:1"
         offset="1" />
    </linearGradient>
    <linearGradient
       id="linearGradient3737-9">
      <stop
         id="stop3739-7"
         style="stop-color:#ffffff;stop-opacity:1"
         offset="0" />
      <stop
         id="stop3741-6"
         style="stop-color:#ffffff;stop-opacity:0"
         offset="1" />
    </linearGradient>
    <linearGradient
       id="linearGradient3465-2">
      <stop
         id="stop3467-0"
         style="stop-color:#919191;stop-opacity:1"
         offset="0" />
      <stop
         id="stop3469-6"
         style="stop-color:#fdfdfd;stop-opacity:1"
         offset="1" />
    </linearGradient>
    <linearGradient
       id="linearGradient3737-7-3">
      <stop
         id="stop3739-2-3"
         style="stop-color:#ffffff;stop-opacity:1"
         offset="0" />
      <stop
         id="stop3741-7-6"
         style="stop-color:#ffffff;stop-opacity:0"
         offset="1" />
    </linearGradient>
    <linearGradient
       id="linearGradient3737-4-0">
      <stop
         id="stop3739-8-4"
         style="stop-color:#ffffff;stop-opacity:1"
         offset="0" />
      <stop
         id="stop3741-71-8"
         style="stop-color:#ffffff;stop-opacity:0"
         offset="1" />
    </linearGradient>
    <clipPath
       id="clipPath3613-5">
      <rect
         width="84"
         height="84"
         rx="6"
         ry="6"
         x="6"
         y="6"
         id="rect3615-1"
         style="fill:#ffffff;fill-opacity:1;fill-rule:nonzero;stroke:none" />
    </clipPath>
    <filter
       x="-0.192"
       y="-0.192"
       width="1.3839999"
       height="1.3839999"
       color-interpolation-filters="sRGB"
       id="filter3794-2">
      <feGaussianBlur
         id="feGaussianBlur3796-9"
         stdDeviation="5.28" />
    </filter>
    <linearGradient
       inkscape:collect="always"
       xlink:href="#linearGradient3187-5"
       id="linearGradient4094"
       gradientUnits="userSpaceOnUse"
       x1="48"
       y1="90"
       x2="48"
       y2="5.9877172" />
    <linearGradient
       inkscape:collect="always"
       xlink:href="#linearGradient3737-9"
       id="linearGradient4096"
       gradientUnits="userSpaceOnUse"
       x1="36.357143"
       y1="6"
       x2="36.357143"
       y2="63.893143" />
    <linearGradient
       inkscape:collect="always"
       xlink:href="#linearGradient3465-2"
       id="linearGradient4098"
       gradientUnits="userSpaceOnUse"
       gradientTransform="matrix(1.0294118,0,0,1.0294118,-1.4117647,-1.411765)"
       x1="43.17857"
       y1="13"
       x2="43.17857"
       y2="83.294571" />
    <radialGradient
       inkscape:collect="always"
       xlink:href="#linearGradient3737-7-3"
       id="radialGradient4100"
       gradientUnits="userSpaceOnUse"
       gradientTransform="matrix(1.1573129,0,0,0.99590774,-7.551021,0.1971319)"
       cx="48"
       cy="90.171875"
       fx="48"
       fy="90.171875"
       r="42" />
    <linearGradient
       inkscape:collect="always"
       xlink:href="#linearGradient3737-4-0"
       id="linearGradient4102"
       gradientUnits="userSpaceOnUse"
       x1="48"
       y1="20.220806"
       x2="48"
       y2="138.66119" />
    <radialGradient
       inkscape:collect="always"
       xlink:href="#linearGradient3224-6"
       id="radialGradient4113"
       gradientUnits="userSpaceOnUse"
       gradientTransform="matrix(1.3830053,-1.0350102e-8,0,1.3123934,-17.140614,-23.729195)"
       cx="47.098362"
       cy="78.286942"
       fx="47.098362"
       fy="78.286942"
       r="38.957481" />
    <filter
       id="filter3174-0"
       color-interpolation-filters="sRGB">
      <feGaussianBlur
         stdDeviation="1.71"
         id="feGaussianBlur3176-0" />
    </filter>
    <linearGradient
       gradientTransform="scale(1.0058652,0.994169)"
       gradientUnits="userSpaceOnUse"
       id="ButtonShadow-83"
       y2="7.0165396"
       x2="45.447727"
       y1="92.539597"
       x1="45.447727">
      <stop
         offset="0"
         style="stop-color:#000000;stop-opacity:1"
         id="stop3750-64" />
      <stop
         offset="1"
         style="stop-color:#000000;stop-opacity:0.58823532"
         id="stop3752-71" />
    </linearGradient>
    <linearGradient
       inkscape:collect="always"
       xlink:href="#linearGradient4017"
       id="linearGradient10943"
       gradientUnits="userSpaceOnUse"
       gradientTransform="matrix(0.57142857,0,0,0.57142857,20.57143,20.571429)"
       x1="32.775002"
       y1="3.8999999"
       x2="31.725"
       y2="120.43772" />
  </defs>
  <metadata
     id="metadata2413">
    <rdf:RDF>
      <cc:Work
         rdf:about="">
        <dc:format>image/svg+xml</dc:format>
        <dc:type
           rdf:resource="http://purl.org/dc/dcmitype/StillImage" />
        <dc:title></dc:title>
      </cc:Work>
    </rdf:RDF>
  </metadata>
  <path
     style="opacity:0.6;color:#000000;fill:#000000;fill-opacity:1;fill-rule:nonzero;stroke:none;stroke-width:1;marker:none;visibility:visible;display:inline;overflow:visible;enable-background:accumulate"
     id="rect3977-9"
     inkscape:connector-curvature="0"
     d="m 17.89831,14.489536 c -1.662,0 -3,1.338 -3,3 l 0,62 c 0,1.662 1.338,3 3,3 l 62,0 c 1.662,0 3,-1.338 3,-3 l 0,-62 c 0,-1.662 -1.338,-3 -3,-3 l -62,0 z m 0,0.96875 62,0 c 1.140081,0 2.03125,0.891169 2.03125,2.03125 l 0,62 c 0,1.140081 -0.891169,2.03125 -2.03125,2.03125 l -62,0 c -1.140081,0 -2.03125,-0.891169 -2.03125,-2.03125 l 0,-62 c 0,-1.140081 0.891169,-2.03125 2.03125,-2.03125 z" />
  <g
     id="layer2"
     style="display:none">
    <rect
       width="86"
       height="85"
       rx="6"
       ry="6"
       x="5"
       y="7"
       id="rect3745"
       style="opacity:0.9;fill:url(#ButtonShadow);fill-opacity:1;fill-rule:nonzero;stroke:none;filter:url(#filter3174)" />
  </g>
  <rect
     style="fill:url(#radialGradient4113);fill-opacity:1;stroke:none"
     id="rect3461-7"
     y="8.743969"
     x="9.0391903"
     ry="6.1732869"
     rx="5.8527675"
     height="78.516495"
     width="77.914963" />
  <path
     style="font-size:medium;font-style:normal;font-variant:normal;font-weight:normal;font-stretch:normal;text-indent:0;text-align:start;text-decoration:none;line-height:normal;letter-spacing:normal;word-spacing:normal;text-transform:none;direction:ltr;block-progression:tb;writing-mode:lr-tb;text-anchor:start;opacity:0.15;color:#000000;fill:#000000;fill-opacity:1;stroke:none;stroke-width:4;marker:none;visibility:visible;display:inline;overflow:visible;enable-background:accumulate;font-family:Abandoned Bitplane;-inkscape-font-specification:Abandoned Bitplane"
     id="rect3222-3-8"
     inkscape:connector-curvature="0"
     d="m 19.89831,13.489536 c -3.289406,0 -6,2.710594 -6,6 l 0,58 c 0,3.289406 2.710594,6 6,6 l 58,0 c 3.289406,0 6,-2.710594 6,-6 l 0,-58 c 0,-3.289406 -2.710594,-6 -6,-6 l -58,0 z m 0,4 58,0 c 1.142594,0 2,0.857406 2,2 l 0,58 c 0,1.142594 -0.857406,2 -2,2 l -58,0 c -1.142594,0 -2,-0.857406 -2,-2 l 0,-58 c 0,-1.142594 0.857406,-2 2,-2 z" />
  <path
     style="opacity:0.3;color:#000000;fill:#000000;fill-opacity:1;fill-rule:nonzero;stroke:none;stroke-width:1;marker:none;visibility:visible;display:inline;overflow:visible;enable-background:accumulate"
     id="rect3981-0"
     inkscape:connector-curvature="0"
     d="m 17.89831,14.489536 c -1.662,0 -3,1.338 -3,3 l 0,62 c 0,1.662 1.338,3 3,3 l 62,0 c 1.662,0 3,-1.338 3,-3 l 0,-62 c 0,-1.662 -1.338,-3 -3,-3 l -62,0 z m 0,1.9375 62,0 c 0.618163,0 1.0625,0.444337 1.0625,1.0625 l 0,62 c 0,0.618163 -0.444337,1.0625 -1.0625,1.0625 l -62,0 c -0.618163,0 -1.0625,-0.444337 -1.0625,-1.0625 l 0,-62 c 0,-0.618163 0.444337,-1.0625 1.0625,-1.0625 z" />
  <g
     id="g10922"
     transform="translate(124.4,-16.999999)">
    <g
       style="display:none"
       id="layer2-5">
      <rect
         style="opacity:0.9;fill:url(#ButtonShadow-83);fill-opacity:1;fill-rule:nonzero;stroke:none;filter:url(#filter3174-0)"
         id="rect3745-2"
         y="7"
         x="5"
         ry="6"
         rx="6"
         height="85"
         width="86" />
    </g>
    <g
       id="g10939"
       transform="matrix(1.2244898,0,0,1.2244898,-135.17551,6.2244888)">
      <path
         d="M 27.42857,24 C 25.52914,24 24,25.529142 24,27.428572 l 0,32 c 0,1.899429 1.52914,3.428571 3.42857,3.428571 l 6.85714,0 L 32.57143,72 l 13.14286,-9.142857 22.85714,0 C 70.47086,62.857142 72,61.328001 72,59.428572 l 0,-32 c 0,-1.899429 -1.52914,-3.428571 -3.42857,-3.428571 l -41.14286,0 z"
         inkscape:connector-curvature="0"
         id="path3984"
         style="fill:url(#linearGradient10943);fill-opacity:1;fill-rule:nonzero;stroke:#000000;stroke-opacity:1" />
      <g
         id="g6954"
         transform="matrix(0.81666666,0,0,0.81666666,-209.86312,-248.43932)">
        <g
           id="layer1-3"
           inkscape:label="Layer 1" />
        <g
           inkscape:label="Layer 3"
           id="layer5" />
        <g
           inkscape:label="Layer 2"
           id="layer2-2">
          <g
             transform="matrix(0.06501571,0,0,0.06501571,298.36858,341.24662)"
             id="g3507">
            <g
               id="g3330"
               style="fill:#000000;fill-opacity:0.7854406">
              <g
                 id="g3326"
                 style="fill:#000000;fill-opacity:0.7854406">
                <path
                   id="path2511-9"
                   style="fill:#000000;fill-opacity:0.7854406"
                   d="m 337.96958,406.04497 c 0,-0.47796 -0.71201,-4.85061 -1.58225,-9.717 -3.17333,-17.74544 -14.06448,-38.13648 -25.83213,-48.3644 -3.20536,-2.78597 -9.43322,-6.74933 -13.83969,-8.80749 -9.64469,-4.50481 -9.85961,-5.72703 -2.09117,-11.89261 11.21353,-8.89986 31.73691,-11.64795 54.73447,-7.32899 l 12.15122,2.28201 4.11435,-2.90125 c 9.38589,-6.61851 10.65257,-7.40126 11.97707,-7.40126 0.7626,0 1.38654,0.93191 1.38654,2.07091 0,2.85084 -13.21315,16.93274 -15.87258,16.91619 -1.14014,-0.007 -4.88541,-0.87287 -8.32285,-1.92394 -16.12438,-4.93038 -35.84077,-4.85292 -47.63354,0.18714 l -5.35517,2.28873 6.02053,3.89816 c 16.13811,10.44906 28.50195,26.62301 32.57143,42.60879 2.08637,8.19572 3.19926,20.55081 2.28105,25.32377 -0.52004,2.70326 -1.21022,3.63025 -2.70282,3.63025 -1.10246,0 -2.00446,-0.39105 -2.00446,-0.86901 z m 35.88356,-23.15892 c 9.75711,-14.44363 14.4273,-29.25799 14.24675,-29.78621 -0.18056,-0.52822 -9.39723,15.58418 -24.26751,34.14542 -14.5716,18.18842 -24.82046,33.47276 -25.49833,33.47276 -0.67787,0 -12.849,-13.21695 -27.44615,-31.36695 -17.18084,-21.36253 -27.18639,-33 -28.37243,-33 -2.706,-1.03846 -2.26023,-5.77441 -3.2711,-8.42263 -1.80257,-4.20707 -6.7304,-5.99367 -14.74434,-5.34558 -6.89851,0.55787 -10.47867,3.75453 -10.47867,9.3562 0,2.44379 -0.55858,3.68967 -1.88046,4.19423 -2.3886,0.91174 -3.18741,1.82864 -32.42409,37.21778 -13.40426,16.225 -25.09131,29.5 -25.9712,29.5 -1.00063,0 -6.38897,-13.84145 -17.86203,-32.53739 -10.93315,-17.81614 -22.65007,-29.86131 -23.63452,-31.13919 -2.85191,-3.70195 14.38214,26.71602 31.4593,60.47911 32.5693,36.89731 18.20244,38.13921 -1.58353,13.5 -13.68582,-17.20807 -24.60855,-45.54565 -26.79284,-46.57632 -1.48473,-0.70058 -7.68981,-2.00149 -13.78905,-2.8909 -18.58668,-2.71036 -39.93551,0.15692 -59.85152,8.03841 -4.8647,1.92514 -9.06943,3.05446 -9.58882,2.57539 -1.72269,-1.58895 27.93135,-81.63379 43.30395,-111.52555 10.66669,-20.7412 13.7203,-27.78662 22.28322,-36.17302 9.95357,-9.74837 13.77729,-10.31401 26.28167,-11.00927 10.89615,-0.60585 12.6885,-2.76513 7.98494,2.9425 -4.20933,5.1079 -9.14124,14.68228 -9.89437,19.20808 -1.59116,9.56166 14.1641,20.96562 36.33756,26.30181 9.7562,2.3479 13.1226,2.65955 29.47255,2.7285 l 18.45829,0.0778 c -0.0305,-3.34162 -0.2498,-6.67457 -0.57033,-10 -0.39116,-3.72242 -0.24363,-3.99325 2.12591,-3.9027 1.40044,0.0535 9.11278,2.45146 10.24079,2.86528 1.12801,0.41381 -5.66926,-2.50891 -8.20727,-4.03145 -2.53802,-1.52254 -12.9208,-8.49282 -23.07286,-15.48951 -30.47411,-21.00241 -40.35426,-25.20189 -59.4767,-25.28011 -12.59041,-0.0515 -17.75844,1.3648 -26.58192,7.28478 -18.56222,12.45406 -41.61065,60.6537 -74.14463,155.05372 -4.26491,12.375 -8.35641,23.13571 -9.09222,23.91268 -2.31266,2.44204 -13.345486,-3.66795 -20.963834,-11.6098 C 26.40837,395.04275 21.299444,381.71476 21.259667,365.6676 c -0.01711,-6.90348 0.350881,-7.99485 9.44126,-28 C 49.601834,296.07242 80.58241,237.66496 102.78728,201.76376 l 10.56847,-17.0873 1.19787,-9.9127 c 5.39303,-44.62855 18.6716,-87.104436 35.95102,-115.001126 15.00819,-24.22991 29.50954,-35.3905 54.43674,-41.89583 l 46.51633,-4.01573 0.66051,9 c 0.36328,4.95 -0.72192,20.925 -0.59309,35.5 0.12883,14.575 0.46955,133.752576 2.4499,139.209096 2.46385,6.78872 5.25541,-108.636176 4.27211,-138.836656 -1.21258,-37.24242 -1.1867,-44.05119 -1.00591,-45.278801 l 26.26163,0.15873 -0.98422,39.247631 c 1.19867,26.68971 2.74876,146.142796 3.6167,146.069896 2.57861,-0.21656 3.86165,-122.517876 3.98057,-145.019796 0.11323,-21.42707 0.84873,-39.37786 0.49426,-39.81586 -1.02609,-1.267861 28.53426,0.9405 37.9847,2.83949 9.93609,1.99659 21.59453,6.32628 29.56614,10.98023 30.9505,18.06939 56.53266,75.034336 64.64415,143.946026 l 1.76563,15 6.9083,11.5 c 25.10686,41.79449 58.04394,107.17715 78.03995,154.91539 3.3897,8.09253 3.94167,10.481 3.92865,17 -0.0297,14.8328 -5.31525,28.67156 -14.7265,38.55687 -5.98329,6.28468 -16.08117,12.52775 -20.26305,12.52775 -2.70872,0 -2.97504,-0.47712 -6.55871,-11.75 -16.4884,-51.86637 -39.08459,-115.53631 -47.1797,-129.75096 -14.53073,-25.51532 -26.19016,-41.4808 -41.42012,-45.88628 -7.92206,-2.29157 -21.39208,-2.09562 -30.85466,0.4537 -11.28516,3.04035 -21.4275,8.47572 -45.79086,24.53973 -12.00663,7.91659 -26.00536,16.00626 -26.674,16.00626 -2.14197,1.34847 6.19221,-1.80639 6.87853,-2.12382 1.80923,-0.91236 3.67609,-1.28185 4.14859,-0.82108 0.47251,0.46077 0.32821,3.86006 -0.32065,7.55398 -0.64885,3.69393 -0.87103,7.01726 -0.49374,7.38518 1.36262,1.32878 20.26574,1.62966 31.34064,0.49884 22.00579,-2.24693 38.13272,-8.03216 47.29375,-16.96575 2.79847,-2.72898 5.38241,-6.1052 5.7421,-7.50271 2.09839,-10.926 -16.33584,-26.0144 -9.5211,-25.668 4.56547,-2.81516 17.17701,-0.33252 25.87114,5.08721 4.41048,2.7494 10.46544,10.61733 14.67358,15.94559 4.77847,6.05041 17.35694,23.95643 27.35959,50.43633 5.60194,14.82995 24.51288,70.04816 28.71958,83.85852 1.86436,6.1206 0.61731,6.79315 -6.30033,3.39786 -7.54634,-3.70387 -20.29482,-7.59679 -30.59533,-9.34269 -10.79664,-1.83001 -34.78734,-1.38134 -43.01625,0.80448 l -2.49784,5.61101 -13.08117,18.09463 c -7.43589,13.93662 -13.46519,20.05624 -13.89573,20.72491 -0.6004,0.93246 -21.73476,18.02412 -24.37476,16.79645 -15.39472,5.23159 40.61443,-46.78827 45.94245,-65.84841 z m -175.26271,46.20096 c 34.33196,-44.49536 62.69333,-76.77451 62.69333,-76.77451 l 10.46748,0.19599 c 19.32638,22.04546 42.85533,49.63495 60.9315,77.28686 l 0.0918,0.47052 -4.21032,18.59559 -61.98794,43.01797 -65.37435,-42.31625 c 0,0 0,0 -2.61153,-20.47617 z"
                   inkscape:connector-curvature="0" />
              </g>
            </g>
            <path
               sodipodi:nodetypes="ccsssc"
               style="fill:#000000;fill-opacity:1"
               d="m 243.70754,469.63864 c -11.96809,-8.90734 -27.2893,-14.9646 -38.15117,-23.1507 -0.0304,0.68451 20.49455,0.008 61.13399,0.12608 50.92499,0.1477 58.65158,-0.27844 57.09525,0.39632 -0.79925,0.34653 -55.35923,34.65796 -55.53157,36.47802 -0.0527,0.55678 -11.60519,-6.23237 -24.5465,-13.84972 z"
               id="path3437"
               inkscape:connector-curvature="0" />
            <path
               style="fill:#000000;fill-opacity:1"
               d="m 221.00406,440.74984 -17.16314,-0.39716 -0.6226,-3.42499 c -0.34243,-1.88376 0.28752,-4.05229 0.0472,-4.92131 -0.6125,-2.21466 39.80596,-1.98765 91.64735,-0.5594 l 32.14678,0.47171 c 0.46656,3.03182 0.018,5.15347 0.45144,8.35469 -1.3269,1.52045 -51.65993,1.74561 -106.50701,0.47646 z"
               id="path3403"
               sodipodi:nodetypes="cccscccc"
               inkscape:connector-curvature="0" />
            <path
               sodipodi:nodetypes="cssssc"
               style="fill:#000000;fill-opacity:1"
               d="m 224.73237,426.87235 c -0.37601,-0.44958 0.7198,-5.93091 0.7198,-11.32306 0,-8.84114 0.30764,-8.62285 3.1327,-13.88686 6.75548,-12.58766 6.48354,-12.86375 8.13167,6.70766 1.42216,16.88794 2.5056,18.96883 -6.00224,18.61797 -2.14035,-0.0883 -5.60593,0.33388 -5.98193,-0.11571 z"
               id="path3397"
               inkscape:connector-curvature="0" />
            <path
               sodipodi:nodetypes="cccccccc"
               style="fill:#000000;fill-opacity:1"
               d="m 261.44832,426.09634 c -0.28379,-0.72121 -0.394,-15.7074 -0.2449,-33.30264 l 0.27111,-31.99135 c 3.4453,0.54937 8.42027,-0.12599 11.91721,0.15136 0.21358,0.98783 0.15759,17.02364 -0.12441,34.34864 l -0.51273,31.5 -5.39513,0.30265 c -3.73869,0.20972 -5.55357,-0.1 -5.91115,-1.00866 z"
               id="path3393"
               inkscape:connector-curvature="0" />
            <path
               style="fill:#000000;fill-opacity:1"
               d="m 244.20721,425.40983 c -0.35042,-0.67465 -0.47095,-10.95841 -0.26782,-22.85279 l 0.36931,-21.62614 3.67512,-3.82719 c 6.58506,-6.85752 6.73772,-6.3726 6.73772,21.40185 0,13.89723 -0.33461,25.91192 -0.74358,26.6993 -0.93506,1.80024 -8.85587,1.96641 -9.77075,0.20497 z"
               id="path3165"
               inkscape:connector-curvature="0" />
            <path
               style="fill:#000000;fill-opacity:1"
               d="m 195.45928,405.33899 c 0,-0.47796 0.71201,-4.85061 1.58225,-9.717 3.17333,-17.74544 14.06448,-38.13648 25.83213,-48.3644 3.20536,-2.78597 9.43322,-6.74933 13.83969,-8.80749 9.64469,-4.50481 9.85961,-5.72703 2.09117,-11.89261 -11.21353,-8.89986 -31.73691,-11.64795 -54.73447,-7.32899 l -12.15122,2.28201 -4.11435,-2.90125 c -9.38589,-6.61851 -10.65257,-7.40126 -11.97707,-7.40126 -0.7626,0 -1.38654,0.93191 -1.38654,2.07091 0,2.85084 13.21315,16.93274 15.87258,16.91619 1.14014,-0.007 4.88541,-0.87287 8.32285,-1.92394 16.12438,-4.93038 35.84077,-4.85292 47.63354,0.18714 l 5.35517,2.28873 -6.02053,3.89816 c -16.13811,10.44906 -28.50195,26.62301 -32.57143,42.60879 -2.08637,8.19572 -3.19926,20.55081 -2.28105,25.32377 0.52004,2.70326 1.21022,3.63025 2.70282,3.63025 1.10246,0 2.00446,-0.39105 2.00446,-0.86901 z"
               id="path2511"
               inkscape:connector-curvature="0" />
            <path
               style="fill:#000000;fill-opacity:1"
               d="m 259.03342,305.85465 c 5.21115,-2.25036 13.78432,-2.27118 20.01572,-0.0486 5.73551,2.0457 7.11083,2.08949 7.11083,0.22644 0,-1.87782 -4.54549,-5.80317 -8.41655,-7.26831 -3.91538,-1.4819 -13.09171,-1.4819 -17.00709,0 -5.35013,2.02494 -9.77121,6.7196 -7.73291,8.21144 1.07586,0.78743 2.01501,0.61285 6.03,-1.12096 z"
               id="path2509"
               inkscape:connector-curvature="0" />
            <path
               style="fill:#000000;fill-opacity:1"
               d="m 358.68418,300.65823 c 13.5403,-5.53187 31.23783,-17.97562 30.70348,-21.58868 -0.37238,-2.51789 -1.21931,-2.34941 -10.56782,2.10234 -4.25877,2.02804 -13.24832,5.87002 -19.97676,8.53775 -11.83847,4.69378 -13.00327,4.96211 -36.06964,8.30925 -22.97085,3.33328 -23.82569,3.52934 -23.54888,5.40102 0.22386,1.51363 1.84204,2.21717 7.33367,3.18845 3.87554,0.68544 10.02363,1.27428 13.66244,1.30854 9.91228,0.0933 29.52983,-3.60882 38.46351,-7.25867 z"
               id="path2507"
               inkscape:connector-curvature="0" />
            <path
               style="fill:#000000;fill-opacity:1"
               d="m 225.22865,305.59177 c 11.30089,-2.26751 15.37514,-3.86066 15.37514,-6.01211 0,-1.24237 -2.52642,-1.51214 -15.38191,-1.64245 -28.96645,-0.29363 -37.64428,-1.54662 -61.66795,-8.90422 -7.97324,-2.44192 -15.01046,-4.43986 -15.63828,-4.43986 -0.62781,0 -1.14149,0.90559 -1.14149,2.01242 0,3.49176 18.69578,13.67337 32.06885,17.46451 13.71147,3.88706 31.66226,4.47595 46.38564,1.52171 z"
               id="path2505"
               inkscape:connector-curvature="0" />
            <path
               style="fill:#000000;fill-opacity:1"
               d="m 258.71199,292.01101 c 2.54409,-0.84351 6.6794,-1.48212 9.59748,-1.48212 2.91809,0 7.0534,0.63861 9.59749,1.48212 2.45862,0.81517 5.112,1.48212 5.8964,1.48212 2.25495,0 1.66427,-2.67545 -1.12552,-5.09801 -5.49446,-4.77121 -14.93777,-5.97994 -23.1004,-2.95682 -4.56319,1.69003 -8.92852,5.82394 -7.69274,7.28495 0.90288,1.06747 1.7151,0.98274 6.82729,-0.71224 z"
               id="path2503"
               inkscape:connector-curvature="0" />
            <path
               style="fill:#000000;fill-opacity:1"
               d="m 441.93858,257.98383 c 0,-3.42536 -16.07195,-22.75544 -31.22747,-37.55795 -17.57188,-17.16258 -30.08069,-25.27504 -44.6566,-28.96157 -11.48823,-2.9056 -24.16634,-0.50387 -42.5566,8.06188 -11.25106,5.24048 -34.35293,19.99362 -34.35293,21.9382 0,3.09926 2.44695,2.39811 11.02701,-3.15968 4.93321,-3.19552 14.54544,-8.55345 21.36052,-11.90651 23.52845,-11.57616 39.00338,-13.36134 53.8358,-6.21045 4.21535,2.03227 10.88144,6.04297 14.81351,8.91266 8.9612,6.54002 28.07291,25.4492 38.13812,37.73394 4.2096,5.13791 8.55129,10.21682 9.64818,11.28648 1.89735,1.85024 3.97046,1.77871 3.97046,-0.137 z"
               id="path2485"
               inkscape:connector-curvature="0" />
            <path
               style="fill:#000000;fill-opacity:1"
               d="m 102.88359,247.14623 c 11.76296,-13.42277 32.61268,-33.66903 40.89117,-39.70767 3.94803,-2.87983 10.63915,-6.86407 14.86918,-8.85387 6.5516,-3.08187 8.98221,-3.67764 16.40737,-4.02165 6.05024,-0.28031 10.75524,0.11292 15.38191,1.28559 9.48831,2.40491 27.36069,10.94759 40.43709,19.32825 6.16632,3.95198 11.81917,7.18542 12.56189,7.18542 0.74273,0 1.35041,-0.86418 1.35041,-1.92039 0,-2.51762 -22.93511,-17.48842 -36.06123,-23.53882 -18.29589,-8.43338 -30.89509,-10.31739 -44.19436,-6.60857 -17.48986,4.87747 -39.48225,21.93234 -58.74975,45.55984 -9.678169,11.86821 -13.744169,17.55486 -13.769589,19.25794 -0.0461,3.08925 3.39899,0.56588 10.875909,-7.96607 z"
               id="path2483"
               inkscape:connector-curvature="0" />
            <path
               style="fill:#000000;fill-opacity:1"
               d="m 290.13201,425.95476 c 0.35042,-0.68056 0.47094,-11.0542 0.26782,-23.05256 l -0.36932,-21.81517 -3.67512,-3.86064 c -6.58505,-6.91748 -6.73772,-6.42831 -6.73772,21.58892 0,14.01871 0.3346,26.13842 0.74359,26.93268 0.93504,1.81598 8.85586,1.9836 9.77075,0.20677 z"
               id="path3618"
               inkscape:connector-curvature="0" />
            <path
               sodipodi:nodetypes="cssssc"
               style="fill:#000000;fill-opacity:1"
               d="m 309.46582,426.23614 c 0.34567,-0.4733 0.24666,-6.66321 -0.1074,-12.04372 -0.58052,-8.82206 -2.38876,-10.24241 -5.55336,-15.30956 -7.56743,-12.11692 -5.33899,-10.73811 -6.15808,8.88548 -0.82612,19.79178 -3.70139,19.55443 4.81355,19.39505 2.14204,-0.0401 6.68913,-0.005 7.00529,-0.92725 z"
               id="path3620"
               inkscape:connector-curvature="0" />
            <path
               style="fill:#000000;fill-opacity:1"
               d="m 336.67606,406.44447 c 0,-0.47796 -0.71201,-4.85061 -1.58225,-9.717 -3.17333,-17.74544 -14.06448,-38.13648 -25.83213,-48.3644 -3.20536,-2.78597 -9.43322,-6.74933 -13.83969,-8.80749 -9.64469,-4.50481 -9.85961,-5.72703 -2.09117,-11.89261 11.21353,-8.89986 31.73691,-11.64795 54.73447,-7.32899 l 12.15122,2.28201 4.11435,-2.90125 c 9.38589,-6.61851 10.65257,-7.40126 11.97707,-7.40126 0.7626,0 1.38654,0.93191 1.38654,2.07091 0,2.85084 -13.21315,16.93274 -15.87258,16.91619 -1.14014,-0.007 -4.88541,-0.87287 -8.32285,-1.92394 -16.12438,-4.93038 -35.84077,-4.85292 -47.63354,0.18714 l -5.35517,2.28873 6.02053,3.89816 c 16.13811,10.44906 28.50195,26.62301 32.57143,42.60879 2.08637,8.19572 3.19926,20.55081 2.28105,25.32377 -0.52004,2.70326 -1.21022,3.63025 -2.70282,3.63025 -1.10246,0 -2.00446,-0.39105 -2.00446,-0.86901 z"
               id="path2511-7"
               inkscape:connector-curvature="0" />
          </g>
        </g>
      </g>
    </g>
  </g>
  <path
     style="opacity:0.07999998;fill:#d9c6ed;fill-opacity:1;stroke:none"
     id="rect3256-3"
     inkscape:connector-curvature="0"
     d="m 14.89831,8.7395363 c -3.242433,0 -5.8437503,2.7674997 -5.8437503,6.1874997 l 0,49.0625 C 27.878614,50.130638 54.866224,40.195879 86.96081,42.208286 l 0,-27.28125 c 0,-3.420001 -2.63257,-6.1874997 -5.875,-6.1874997 l -66.1875,0 z" />
  <g
     id="layer1"
     style="display:inline">
    <path
       d="M 12,6 C 8.676,6 6,8.676 6,12 l 0,72 c 0,3.324 2.676,6 6,6 l 72,0 c 3.324,0 6,-2.676 6,-6 L 90,12 C 90,8.676 87.324,6 84,6 L 12,6 z m 5,7 62,0 c 2.216001,0 4,1.784 4,4 l 0,62 c 10e-7,2.216001 -1.784,4 -4,4 l -62,0 c -2.215999,10e-7 -4,-1.784 -4,-4 l 0,-62 c 0,-2.215999 1.784,-4 4,-4 z"
       inkscape:connector-curvature="0"
       id="rect2419"
       style="fill:url(#linearGradient4094);fill-opacity:1;fill-rule:nonzero;stroke:none" />
    <path
       d="M 12,6 C 8.676,6 6,8.676 6,12 l 0,2 0,68 0,2 c 0,0.334721 0.04135,0.6507 0.09375,0.96875 0.0487,0.295596 0.09704,0.596915 0.1875,0.875 0.00988,0.03038 0.020892,0.0636 0.03125,0.09375 0.098865,0.287771 0.2348802,0.547452 0.375,0.8125 0.1445918,0.273507 0.3156161,0.535615 0.5,0.78125 0.1843839,0.245635 0.3737765,0.473472 0.59375,0.6875 0.439947,0.428056 0.94291,0.814526 1.5,1.09375 0.278545,0.139612 0.5734731,0.246947 0.875,0.34375 -0.2562018,-0.100222 -0.4867109,-0.236272 -0.71875,-0.375 -0.00741,-0.0044 -0.023866,0.0045 -0.03125,0 -0.031933,-0.0193 -0.062293,-0.04251 -0.09375,-0.0625 -0.120395,-0.0767 -0.2310226,-0.163513 -0.34375,-0.25 -0.1061728,-0.0808 -0.2132809,-0.161112 -0.3125,-0.25 C 8.4783201,88.557317 8.3087904,88.373362 8.15625,88.1875 8.0486711,88.057245 7.9378561,87.922215 7.84375,87.78125 7.818661,87.74287 7.805304,87.69538 7.78125,87.65625 7.716487,87.553218 7.6510225,87.451733 7.59375,87.34375 7.4927417,87.149044 7.3880752,86.928049 7.3125,86.71875 7.30454,86.69694 7.288911,86.6782 7.28125,86.65625 7.2494249,86.5643 7.2454455,86.469419 7.21875,86.375 7.1884177,86.268382 7.1483606,86.171969 7.125,86.0625 7.0521214,85.720988 7,85.364295 7,85 L 7,83 7,15 7,13 C 7,10.218152 9.2181517,8 12,8 l 2,0 68,0 2,0 c 2.781848,0 5,2.218152 5,5 l 0,2 0,68 0,2 c 0,0.364295 -0.05212,0.720988 -0.125,1.0625 -0.04415,0.206893 -0.08838,0.397658 -0.15625,0.59375 -0.0077,0.02195 -0.0233,0.04069 -0.03125,0.0625 -0.06274,0.173739 -0.138383,0.367449 -0.21875,0.53125 -0.04158,0.0828 -0.07904,0.169954 -0.125,0.25 -0.0546,0.09721 -0.126774,0.18835 -0.1875,0.28125 -0.09411,0.140965 -0.204921,0.275995 -0.3125,0.40625 -0.143174,0.17445 -0.303141,0.346998 -0.46875,0.5 -0.01117,0.0102 -0.01998,0.02115 -0.03125,0.03125 -0.138386,0.125556 -0.285091,0.234436 -0.4375,0.34375 -0.102571,0.07315 -0.204318,0.153364 -0.3125,0.21875 -0.0074,0.0045 -0.02384,-0.0044 -0.03125,0 -0.232039,0.138728 -0.462548,0.274778 -0.71875,0.375 0.301527,-0.0968 0.596455,-0.204138 0.875,-0.34375 0.55709,-0.279224 1.060053,-0.665694 1.5,-1.09375 0.219973,-0.214028 0.409366,-0.441865 0.59375,-0.6875 0.184384,-0.245635 0.355408,-0.507743 0.5,-0.78125 0.14012,-0.265048 0.276135,-0.524729 0.375,-0.8125 0.01041,-0.03078 0.02133,-0.06274 0.03125,-0.09375 0.09046,-0.278085 0.1388,-0.579404 0.1875,-0.875 C 89.95865,84.6507 90,84.334721 90,84 l 0,-2 0,-68 0,-2 C 90,8.676 87.324,6 84,6 L 12,6 z"
       inkscape:connector-curvature="0"
       id="rect3728"
       style="opacity:0.5;fill:url(#linearGradient4096);fill-opacity:1;fill-rule:nonzero;stroke:none" />
    <path
       d="m 17,12 c -2.752703,0 -5,2.247297 -5,5 l 0,62 c 0,2.752703 2.247298,5 5,5 l 62,0 c 2.752703,0 5.000001,-2.247297 5,-5 l 0,-62 c 0,-2.752703 -2.247297,-5 -5,-5 l -62,0 z m 0,2 62,0 c 1.679298,0 3,1.320703 3,3 l 0,62 c 10e-7,1.679297 -1.320703,3 -3,3 l -62,0 c -1.679296,0 -3,-1.320703 -3,-3 l 0,-62 c 0,-1.679297 1.320703,-3 3,-3 z"
       inkscape:connector-curvature="0"
       id="rect3425"
       style="fill:url(#linearGradient4098);fill-opacity:1;fill-rule:nonzero;stroke:none" />
    <path
       d="M 12,90 C 8.676,90 6,87.324 6,84 L 6,82 6,14 6,12 c 0,-0.334721 0.04135,-0.6507 0.09375,-0.96875 0.0487,-0.295596 0.09704,-0.596915 0.1875,-0.875 C 6.29113,10.12587 6.302142,10.09265 6.3125,10.0625 6.411365,9.774729 6.5473802,9.515048 6.6875,9.25 6.8320918,8.976493 7.0031161,8.714385 7.1875,8.46875 7.3718839,8.223115 7.5612765,7.995278 7.78125,7.78125 8.221197,7.353194 8.72416,6.966724 9.28125,6.6875 9.559795,6.547888 9.8547231,6.440553 10.15625,6.34375 9.9000482,6.443972 9.6695391,6.580022 9.4375,6.71875 c -0.00741,0.0044 -0.023866,-0.0045 -0.03125,0 -0.031933,0.0193 -0.062293,0.04251 -0.09375,0.0625 -0.120395,0.0767 -0.2310226,0.163513 -0.34375,0.25 -0.1061728,0.0808 -0.2132809,0.161112 -0.3125,0.25 C 8.4783201,7.442683 8.3087904,7.626638 8.15625,7.8125 8.0486711,7.942755 7.9378561,8.077785 7.84375,8.21875 7.818661,8.25713 7.805304,8.30462 7.78125,8.34375 7.716487,8.446782 7.6510225,8.548267 7.59375,8.65625 7.4927417,8.850956 7.3880752,9.071951 7.3125,9.28125 7.30454,9.30306 7.288911,9.3218 7.28125,9.34375 7.2494249,9.4357 7.2454455,9.530581 7.21875,9.625 7.1884177,9.731618 7.1483606,9.828031 7.125,9.9375 7.0521214,10.279012 7,10.635705 7,11 l 0,2 0,68 0,2 c 0,2.781848 2.2181517,5 5,5 l 2,0 68,0 2,0 c 2.781848,0 5,-2.218152 5,-5 l 0,-2 0,-68 0,-2 C 89,10.635705 88.94788,10.279012 88.875,9.9375 88.83085,9.730607 88.78662,9.539842 88.71875,9.34375 88.71105,9.3218 88.69545,9.30306 88.6875,9.28125 88.62476,9.107511 88.549117,8.913801 88.46875,8.75 88.42717,8.6672 88.38971,8.580046 88.34375,8.5 88.28915,8.40279 88.216976,8.31165 88.15625,8.21875 88.06214,8.077785 87.951329,7.942755 87.84375,7.8125 87.700576,7.63805 87.540609,7.465502 87.375,7.3125 87.36383,7.3023 87.35502,7.29135 87.34375,7.28125 87.205364,7.155694 87.058659,7.046814 86.90625,6.9375 86.803679,6.86435 86.701932,6.784136 86.59375,6.71875 c -0.0074,-0.0045 -0.02384,0.0044 -0.03125,0 -0.232039,-0.138728 -0.462548,-0.274778 -0.71875,-0.375 0.301527,0.0968 0.596455,0.204138 0.875,0.34375 0.55709,0.279224 1.060053,0.665694 1.5,1.09375 0.219973,0.214028 0.409366,0.441865 0.59375,0.6875 0.184384,0.245635 0.355408,0.507743 0.5,0.78125 0.14012,0.265048 0.276135,0.524729 0.375,0.8125 0.01041,0.03078 0.02133,0.06274 0.03125,0.09375 0.09046,0.278085 0.1388,0.579404 0.1875,0.875 C 89.95865,11.3493 90,11.665279 90,12 l 0,2 0,68 0,2 c 0,3.324 -2.676,6 -6,6 l -72,0 z"
       inkscape:connector-curvature="0"
       id="path3615"
       style="opacity:0.4;fill:url(#radialGradient4100);fill-opacity:1;fill-rule:nonzero;stroke:none" />
    <rect
       width="66"
       height="66"
       rx="12"
       ry="12"
       x="15"
       y="15"
       clip-path="url(#clipPath3613-5)"
       id="rect3171"
       style="opacity:0.1;fill:url(#linearGradient4102);fill-opacity:1;fill-rule:nonzero;stroke:#ffffff;stroke-width:0.5;stroke-linecap:round;stroke-linejoin:miter;stroke-miterlimit:4;stroke-opacity:1;stroke-dasharray:none;stroke-dashoffset:0;filter:url(#filter3794-2)" />
  </g>
</svg>
