<?xml version="1.0" encoding="utf-8"?>
<!-- Generator: Adobe Illustrator 13.0.0, SVG Export Plug-In . SVG Version: 6.00 Build 14948)  -->
<!DOCTYPE svg PUBLIC "-//W3C//DTD SVG 1.1//EN" "http://www.w3.org/Graphics/SVG/1.1/DTD/svg11.dtd">
<svg version="1.1" xmlns="http://www.w3.org/2000/svg" xmlns:xlink="http://www.w3.org/1999/xlink" x="0px" y="0px" width="128px"
	 height="128px" viewBox="0 0 128 128" enable-background="new 0 0 128 128" xml:space="preserve">
<g id="Layer_2">
	<path fill="#3B5998" d="M126,118c0,4.418-3.582,8-8,8H10c-4.418,0-8-3.582-8-8V10c0-4.418,3.582-8,8-8h108c4.418,0,8,3.582,8,8V118
		z"/>
</g>
<g id="Layer_4">
	<g>
		<rect x="5.667" y="98.98" fill="#6D84B4" width="116.666" height="18.039"/>
	</g>
</g>
<g id="Layer_3">
	<path fill="#FFFFFF" d="M93.376,117.012H72.203V65.767H61.625v-17.66h10.578V37.504c0-14.407,5.973-22.974,22.943-22.974h14.128
		v17.662h-8.831c-6.606,0-7.043,2.468-7.043,7.074l-0.024,8.839h15.998l-1.872,17.66H93.376V117.012z"/>
</g>
</svg>
