<?xml version="1.0" encoding="UTF-8" ?>
<!DOCTYPE svg PUBLIC "-//W3C//DTD SVG 1.1//EN" "http://www.w3.org/Graphics/SVG/1.1/DTD/svg11.dtd">
<svg width="512pt" height="512pt" viewBox="0 0 512 512" version="1.1" xmlns="http://www.w3.org/2000/svg">
<path fill="#ffffff" d=" M 0.00 0.00 L 512.00 0.00 L 512.00 512.00 L 0.00 512.00 L 0.00 0.00 Z" />
<path fill="#ffc705" d=" M 24.01 51.98 C 24.47 37.38 37.36 24.46 51.97 24.01 C 187.65 23.97 323.33 24.03 459.01 23.99 C 473.98 23.88 487.50 36.99 487.99 51.93 C 488.04 61.97 487.96 72.01 488.00 82.05 C 445.69 81.72 403.37 81.98 361.07 81.94 C 348.31 82.37 335.55 81.59 322.80 82.06 C 323.01 76.70 323.07 71.34 323.26 65.98 C 318.53 71.34 313.93 76.80 309.29 82.24 C 285.88 81.52 262.44 82.03 239.01 81.93 C 226.92 82.01 214.82 81.59 202.73 82.23 C 198.00 76.82 193.28 71.39 188.48 66.05 C 188.64 71.40 188.90 76.75 189.17 82.09 C 175.11 82.36 161.06 81.65 147.00 81.95 C 131.98 82.44 116.97 81.66 101.95 81.88 C 75.96 81.90 49.98 82.18 24.00 82.04 C 24.04 72.02 23.96 62.00 24.01 51.98 Z" />
<path fill="#ffffff" d=" M 188.48 66.05 C 193.28 71.39 198.00 76.82 202.73 82.23 C 214.03 95.10 225.29 108.00 236.62 120.84 C 232.87 121.88 229.14 122.98 225.41 124.09 C 214.09 127.22 202.84 130.59 191.54 133.78 C 191.51 133.09 191.44 131.71 191.40 131.03 C 190.62 114.72 189.92 98.40 189.17 82.09 C 188.90 76.75 188.64 71.40 188.48 66.05 Z" />
<path fill="#ffffff" d=" M 309.29 82.24 C 313.93 76.80 318.53 71.34 323.26 65.98 C 323.07 71.34 323.01 76.70 322.80 82.06 C 322.43 96.35 322.04 110.63 321.64 124.92 C 321.53 127.89 321.47 130.86 321.47 133.83 C 309.47 130.58 297.49 127.28 285.46 124.12 C 282.23 123.25 279.01 122.33 275.79 121.44 C 286.88 108.31 298.13 95.31 309.29 82.24 Z" />
<path fill="#ffbe0e" d=" M 24.00 82.04 C 49.98 82.18 75.96 81.90 101.95 81.88 C 116.97 81.66 131.98 82.44 147.00 81.95 C 161.06 81.65 175.11 82.36 189.17 82.09 C 189.92 98.40 190.62 114.72 191.40 131.03 C 162.60 130.79 133.80 131.05 105.01 130.91 C 99.20 130.70 93.40 131.02 87.63 131.62 C 79.48 129.83 71.46 127.51 63.31 125.75 C 67.67 129.40 72.15 132.91 76.54 136.52 C 59.06 137.67 41.51 136.99 24.00 137.06 C 24.02 118.72 23.99 100.38 24.00 82.04 Z" />
<path fill="#ffc00c" d=" M 202.73 82.23 C 214.82 81.59 226.92 82.01 239.01 81.93 C 262.44 82.03 285.88 81.52 309.29 82.24 C 298.13 95.31 286.88 108.31 275.79 121.44 C 279.01 122.33 282.23 123.25 285.46 124.12 C 281.99 124.46 278.53 124.97 275.03 124.96 C 262.03 124.87 249.03 124.87 236.03 124.95 C 232.47 124.97 228.94 124.47 225.41 124.09 C 229.14 122.98 232.87 121.88 236.62 120.84 C 225.29 108.00 214.03 95.10 202.73 82.23 Z" />
<path fill="#ffbf0d" d=" M 322.80 82.06 C 335.55 81.59 348.31 82.37 361.07 81.94 C 403.37 81.98 445.69 81.72 488.00 82.05 C 488.01 96.35 487.99 110.66 487.99 124.96 C 432.54 124.85 377.09 125.04 321.64 124.92 C 322.04 110.63 322.43 96.35 322.80 82.06 Z" />
<path fill="#ffba12" d=" M 191.54 133.78 C 202.84 130.59 214.09 127.22 225.41 124.09 C 228.94 124.47 232.47 124.97 236.03 124.95 C 249.03 124.87 262.03 124.87 275.03 124.96 C 278.53 124.97 281.99 124.46 285.46 124.12 C 297.49 127.28 309.47 130.58 321.47 133.83 C 321.47 130.86 321.53 127.89 321.64 124.92 C 377.09 125.04 432.54 124.85 487.99 124.96 C 488.01 131.00 487.99 137.03 488.00 143.07 C 471.32 143.21 454.63 143.07 437.95 143.19 C 433.43 143.23 428.91 142.97 424.41 142.63 C 431.46 137.00 438.60 131.46 445.58 125.72 C 412.29 134.16 379.04 142.72 345.78 151.25 C 348.11 154.20 350.45 157.16 352.79 160.11 C 347.42 160.86 342.02 161.25 336.61 161.30 C 315.54 144.88 289.45 134.84 262.73 133.56 C 231.21 131.62 199.23 141.78 174.42 161.26 C 168.05 161.09 161.68 160.94 155.35 160.29 C 157.96 156.99 160.57 153.67 163.14 150.33 C 137.98 144.04 112.77 137.96 87.63 131.62 C 93.40 131.02 99.20 130.70 105.01 130.91 C 133.80 131.05 162.60 130.79 191.40 131.03 C 191.44 131.71 191.51 133.09 191.54 133.78 Z" />
<path fill="#ffffff" d=" M 63.31 125.75 C 71.46 127.51 79.48 129.83 87.63 131.62 C 112.77 137.96 137.98 144.04 163.14 150.33 C 160.57 153.67 157.96 156.99 155.35 160.29 C 148.89 168.48 142.47 176.71 136.00 184.90 C 116.19 168.77 96.37 152.64 76.54 136.52 C 72.15 132.91 67.67 129.40 63.31 125.75 Z" />
<path fill="#ffffff" d=" M 345.78 151.25 C 379.04 142.72 412.29 134.16 445.58 125.72 C 438.60 131.46 431.46 137.00 424.41 142.63 C 406.93 156.50 389.50 170.41 372.02 184.27 C 365.57 176.24 359.21 168.15 352.79 160.11 C 350.45 157.16 348.11 154.20 345.78 151.25 Z" />
<path fill="#ffffff" d=" M 174.42 161.26 C 199.23 141.78 231.21 131.62 262.73 133.56 C 289.45 134.84 315.54 144.88 336.61 161.30 C 351.21 172.70 363.51 187.03 372.48 203.25 C 377.90 212.94 382.04 223.31 385.04 233.99 C 387.73 243.80 389.37 253.90 389.91 264.06 C 390.57 277.83 389.52 291.71 386.29 305.13 C 384.90 310.00 384.08 315.15 381.70 319.65 C 379.20 323.49 372.39 321.56 372.24 316.99 C 372.41 313.16 374.15 309.63 375.04 305.94 C 378.60 292.33 380.16 278.15 379.25 264.10 C 378.34 249.02 374.78 234.11 368.80 220.23 C 363.12 207.17 355.33 195.03 345.70 184.52 C 327.76 164.80 303.34 150.98 277.05 146.27 C 248.36 140.87 217.83 146.65 192.92 161.82 C 178.21 170.65 165.45 182.65 155.49 196.60 C 146.22 209.58 139.45 224.31 135.50 239.75 C 131.47 255.42 130.50 271.85 132.43 287.91 C 133.69 298.22 136.16 308.38 139.82 318.11 C 143.02 326.81 147.36 335.04 152.27 342.89 C 152.92 345.44 153.42 349.03 150.52 350.40 C 147.22 352.72 143.44 349.97 141.99 346.88 C 135.28 335.93 129.93 324.15 126.41 311.79 C 121.93 296.30 120.12 280.02 121.04 263.92 C 121.84 249.31 124.91 234.83 130.14 221.17 C 133.35 212.77 137.39 204.69 142.12 197.05 C 150.69 183.36 161.61 171.12 174.42 161.26 Z" />
<path fill="#ffb418" d=" M 24.00 137.06 C 41.51 136.99 59.06 137.67 76.54 136.52 C 96.37 152.64 116.19 168.77 136.00 184.90 C 142.47 176.71 148.89 168.48 155.35 160.29 C 161.68 160.94 168.05 161.09 174.42 161.26 C 161.61 171.12 150.69 183.36 142.12 197.05 C 102.75 196.77 63.38 196.90 24.01 196.96 C 24.01 176.99 23.99 157.03 24.00 137.06 Z" />
<path fill="#ffb319" d=" M 372.02 184.27 C 389.50 170.41 406.93 156.50 424.41 142.63 C 428.91 142.97 433.43 143.23 437.95 143.19 C 454.63 143.07 471.32 143.21 488.00 143.07 C 488.01 163.02 487.99 182.97 487.99 202.91 C 458.33 202.95 428.67 202.84 399.01 202.95 C 390.17 202.88 381.31 202.66 372.48 203.25 C 363.51 187.03 351.21 172.70 336.61 161.30 C 342.02 161.25 347.42 160.86 352.79 160.11 C 359.21 168.15 365.57 176.24 372.02 184.27 Z" />
<path fill="#ffb418" d=" M 192.92 161.82 C 217.83 146.65 248.36 140.87 277.05 146.27 C 303.34 150.98 327.76 164.80 345.70 184.52 C 325.16 185.74 304.56 184.64 283.99 185.00 C 257.20 185.14 230.41 184.87 203.62 185.22 C 198.47 183.07 192.09 182.95 187.52 186.50 C 184.11 188.93 182.04 192.79 181.32 196.86 C 172.71 196.89 164.09 197.03 155.49 196.60 C 165.45 182.65 178.21 170.65 192.92 161.82 Z" />
<path fill="#ffffff" d=" M 187.52 186.50 C 192.09 182.95 198.47 183.07 203.62 185.22 C 210.94 189.23 213.87 199.24 209.51 206.44 C 205.30 214.12 194.04 216.21 187.25 210.76 C 182.90 207.61 180.92 202.11 181.32 196.86 C 182.04 192.79 184.11 188.93 187.52 186.50 Z" />
<path fill="#ffae1e" d=" M 203.62 185.22 C 230.41 184.87 257.20 185.14 283.99 185.00 C 304.56 184.64 325.16 185.74 345.70 184.52 C 355.33 195.03 363.12 207.17 368.80 220.23 C 357.53 221.80 346.13 220.62 334.81 220.97 C 333.71 213.87 327.23 207.96 319.95 208.08 C 312.74 207.79 306.18 213.35 304.78 220.33 C 301.54 220.74 298.28 221.08 295.01 221.11 C 271.84 220.91 248.68 220.95 225.51 221.08 C 223.85 220.09 221.96 219.59 220.03 219.71 C 203.65 219.82 187.27 219.65 170.91 219.80 C 168.10 219.64 166.27 222.38 166.00 224.89 C 165.22 229.88 164.88 234.92 164.23 239.92 C 154.65 239.61 145.07 240.41 135.50 239.75 C 139.45 224.31 146.22 209.58 155.49 196.60 C 164.09 197.03 172.71 196.89 181.32 196.86 C 180.92 202.11 182.90 207.61 187.25 210.76 C 194.04 216.21 205.30 214.12 209.51 206.44 C 213.87 199.24 210.94 189.23 203.62 185.22 Z" />
<path fill="#ffae1e" d=" M 24.01 196.96 C 63.38 196.90 102.75 196.77 142.12 197.05 C 137.39 204.69 133.35 212.77 130.14 221.17 C 125.27 221.43 120.39 221.03 115.64 219.93 C 113.79 219.64 111.92 219.53 110.05 219.50 C 88.02 219.23 65.99 218.39 43.96 218.27 C 45.14 218.94 46.32 219.62 47.50 220.30 C 39.72 221.54 31.84 221.09 24.00 221.06 C 24.01 213.02 23.99 204.99 24.01 196.96 Z" />
<path fill="#ffad1f" d=" M 372.48 203.25 C 381.31 202.66 390.17 202.88 399.01 202.95 C 428.67 202.84 458.33 202.95 487.99 202.91 C 488.01 208.95 488.00 214.98 488.00 221.02 C 479.46 221.10 470.88 221.53 462.38 220.45 C 463.67 219.71 464.95 218.96 466.25 218.21 C 441.81 219.15 417.38 220.39 392.95 221.55 C 393.98 225.71 395.01 229.87 396.11 234.02 C 392.41 234.03 388.73 234.02 385.04 233.99 C 382.04 223.31 377.90 212.94 372.48 203.25 Z" />
<path fill="#ffffff" d=" M 304.78 220.33 C 306.18 213.35 312.74 207.79 319.95 208.08 C 327.23 207.96 333.71 213.87 334.81 220.97 C 335.12 225.55 334.02 230.40 330.68 233.72 C 325.15 239.67 314.76 239.81 309.09 233.98 C 305.41 230.50 304.25 225.23 304.78 220.33 Z" />
<path fill="#ffffff" d=" M 43.96 218.27 C 65.99 218.39 88.02 219.23 110.05 219.50 C 111.92 219.53 113.79 219.64 115.64 219.93 C 112.81 231.25 110.16 242.62 107.32 253.95 C 87.36 242.78 67.46 231.48 47.50 220.30 C 46.32 219.62 45.14 218.94 43.96 218.27 Z" />
<path fill="#ffffff" d=" M 392.95 221.55 C 417.38 220.39 441.81 219.15 466.25 218.21 C 464.95 218.96 463.67 219.71 462.38 220.45 C 441.99 231.79 421.67 243.25 401.27 254.57 C 399.53 247.73 397.88 240.86 396.11 234.02 C 395.01 229.87 393.98 225.71 392.95 221.55 Z" />
<path fill="#ffa725" d=" M 47.50 220.30 C 67.46 231.48 87.36 242.78 107.32 253.95 C 110.16 242.62 112.81 231.25 115.64 219.93 C 120.39 221.03 125.27 221.43 130.14 221.17 C 124.91 234.83 121.84 249.31 121.04 263.92 C 88.70 264.14 56.35 264.05 24.00 264.05 C 24.00 249.72 24.00 235.39 24.00 221.06 C 31.84 221.09 39.72 221.54 47.50 220.30 Z" />
<path fill="#ffffff" d=" M 166.00 224.89 C 166.27 222.38 168.10 219.64 170.91 219.80 C 187.27 219.65 203.65 219.82 220.03 219.71 C 221.96 219.59 223.85 220.09 225.51 221.08 C 227.27 224.43 227.31 228.27 227.75 231.94 C 228.72 240.65 229.74 249.35 230.72 258.06 C 231.05 261.63 231.82 265.19 231.67 268.79 C 231.16 272.64 226.78 275.33 223.12 273.89 C 220.49 273.08 218.78 270.53 218.71 267.82 C 217.85 257.31 217.13 246.79 216.39 236.27 C 215.97 268.49 216.50 300.72 216.15 332.93 C 215.60 335.67 212.76 337.28 210.10 337.03 C 206.95 336.90 203.10 337.80 200.59 335.38 C 199.07 334.05 199.28 331.89 199.21 330.08 C 199.27 319.88 199.24 309.69 199.25 299.50 C 197.41 299.50 195.58 299.50 193.75 299.50 C 193.67 310.36 193.89 321.22 193.67 332.07 C 193.71 334.97 190.91 337.22 188.11 337.00 C 184.39 336.91 178.82 338.14 177.04 333.80 C 175.85 328.62 176.77 323.22 176.50 317.95 C 176.49 307.97 176.51 297.99 176.50 288.01 C 176.43 272.93 176.67 257.85 176.31 242.77 C 175.04 251.46 175.03 260.26 174.03 268.97 C 173.51 273.52 167.52 275.79 163.93 273.11 C 161.48 271.67 160.88 268.60 161.28 265.99 C 162.17 257.29 163.29 248.61 164.23 239.92 C 164.88 234.92 165.22 229.88 166.00 224.89 Z" />
<path fill="#ffa923" d=" M 295.01 221.11 C 298.28 221.08 301.54 220.74 304.78 220.33 C 304.25 225.23 305.41 230.50 309.09 233.98 C 314.76 239.81 325.15 239.67 330.68 233.72 C 334.02 230.40 335.12 225.55 334.81 220.97 C 346.13 220.62 357.53 221.80 368.80 220.23 C 374.78 234.11 378.34 249.02 379.25 264.10 C 370.13 264.09 361.02 263.72 351.91 263.98 C 351.25 258.90 350.94 253.77 350.07 248.72 C 349.75 246.28 347.63 244.06 345.06 244.27 C 328.36 244.20 311.66 244.27 294.96 244.24 C 292.66 243.99 290.33 245.40 289.70 247.67 C 288.80 251.04 288.72 254.55 288.27 258.00 C 269.09 258.26 249.90 258.17 230.72 258.06 C 229.74 249.35 228.72 240.65 227.75 231.94 C 227.31 228.27 227.27 224.43 225.51 221.08 C 248.68 220.95 271.84 220.91 295.01 221.11 Z" />
<path fill="#ffa725" d=" M 401.27 254.57 C 421.67 243.25 441.99 231.79 462.38 220.45 C 470.88 221.53 479.46 221.10 488.00 221.02 C 488.00 235.36 488.00 249.70 488.00 264.04 C 455.30 264.15 422.60 263.97 389.91 264.06 C 389.37 253.90 387.73 243.80 385.04 233.99 C 388.73 234.02 392.41 234.03 396.11 234.02 C 397.88 240.86 399.53 247.73 401.27 254.57 Z" />
<path fill="#ffa02c" d=" M 216.15 332.93 C 216.50 300.72 215.97 268.49 216.39 236.27 C 217.13 246.79 217.85 257.31 218.71 267.82 C 218.78 270.53 220.49 273.08 223.12 273.89 C 226.78 275.33 231.16 272.64 231.67 268.79 C 231.82 265.19 231.05 261.63 230.72 258.06 C 249.90 258.17 269.09 258.26 288.27 258.00 C 287.08 269.33 285.51 280.63 284.50 291.97 C 284.03 296.19 288.62 299.67 292.59 298.51 C 295.54 297.87 297.52 294.97 297.53 292.02 C 298.33 281.20 299.27 270.38 299.50 259.53 C 300.53 280.93 299.76 302.38 299.99 323.80 C 295.55 323.85 291.11 324.04 286.67 324.26 C 279.03 318.80 268.77 317.23 259.75 319.62 C 257.14 320.15 255.34 322.14 253.80 324.15 C 251.24 324.12 248.69 324.10 246.13 324.04 C 241.12 317.37 231.49 318.83 224.26 319.74 C 224.25 321.02 224.25 322.30 224.25 323.59 C 222.04 323.81 219.84 324.04 217.64 324.27 C 217.17 327.16 216.77 330.06 216.15 332.93 Z" />
<path fill="#ffa428" d=" M 135.50 239.75 C 145.07 240.41 154.65 239.61 164.23 239.92 C 163.29 248.61 162.17 257.29 161.28 265.99 C 160.88 268.60 161.48 271.67 163.93 273.11 C 167.52 275.79 173.51 273.52 174.03 268.97 C 175.03 260.26 175.04 251.46 176.31 242.77 C 176.67 257.85 176.43 272.93 176.50 288.01 C 161.81 288.01 147.12 287.92 132.43 287.91 C 130.50 271.85 131.47 255.42 135.50 239.75 Z" />
<path fill="#ffffff" d=" M 289.70 247.67 C 290.33 245.40 292.66 243.99 294.96 244.24 C 311.66 244.27 328.36 244.20 345.06 244.27 C 347.63 244.06 349.75 246.28 350.07 248.72 C 350.94 253.77 351.25 258.90 351.91 263.98 C 352.87 273.32 354.25 282.63 354.98 292.00 C 355.46 296.43 350.44 299.92 346.38 298.36 C 343.72 297.53 342.00 294.86 341.99 292.13 C 341.24 284.06 341.07 275.94 339.88 267.91 C 339.10 280.60 339.68 293.33 339.50 306.04 C 339.52 320.39 339.48 334.74 339.51 349.09 C 339.13 353.02 341.04 358.55 336.75 360.90 C 333.35 361.93 329.61 361.72 326.13 361.17 C 322.84 360.39 322.19 356.71 322.45 353.85 C 322.57 343.82 322.47 333.79 322.48 323.76 C 320.66 323.76 318.84 323.76 317.02 323.75 C 317.02 333.79 316.95 343.84 317.04 353.89 C 317.57 357.25 315.95 361.46 311.98 361.40 C 307.99 361.54 301.93 362.70 300.20 357.91 C 299.66 352.67 300.09 347.38 299.98 342.12 C 300.02 336.02 299.99 329.91 299.99 323.80 C 299.76 302.38 300.53 280.93 299.50 259.53 C 299.27 270.38 298.33 281.20 297.53 292.02 C 297.52 294.97 295.54 297.87 292.59 298.51 C 288.62 299.67 284.03 296.19 284.50 291.97 C 285.51 280.63 287.08 269.33 288.27 258.00 C 288.72 254.55 288.80 251.04 289.70 247.67 Z" />
<path fill="#ffa12b" d=" M 24.00 264.05 C 56.35 264.05 88.70 264.14 121.04 263.92 C 120.12 280.02 121.93 296.30 126.41 311.79 C 122.19 311.86 117.96 311.92 113.74 311.99 C 111.86 305.17 110.00 298.36 108.09 291.55 C 97.49 298.43 86.93 305.39 76.35 312.31 C 58.91 311.55 41.45 312.00 24.01 311.93 C 24.01 295.97 23.99 280.01 24.00 264.05 Z" />
<path fill="#ffa12b" d=" M 351.91 263.98 C 361.02 263.72 370.13 264.09 379.25 264.10 C 380.16 278.15 378.60 292.33 375.04 305.94 C 363.19 306.36 351.35 305.70 339.50 306.04 C 339.68 293.33 339.10 280.60 339.88 267.91 C 341.07 275.94 341.24 284.06 341.99 292.13 C 342.00 294.86 343.72 297.53 346.38 298.36 C 350.44 299.92 355.46 296.43 354.98 292.00 C 354.25 282.63 352.87 273.32 351.91 263.98 Z" />
<path fill="#ffa12b" d=" M 389.91 264.06 C 422.60 263.97 455.30 264.15 488.00 264.04 C 488.00 278.05 487.99 292.07 488.00 306.08 C 471.99 305.86 455.98 306.10 439.97 305.90 C 434.18 305.81 428.40 306.00 422.62 306.32 C 415.30 301.42 408.04 296.44 400.71 291.56 C 399.26 296.55 397.88 301.57 396.51 306.58 C 393.10 306.14 389.69 305.67 386.29 305.13 C 389.52 291.71 390.57 277.83 389.91 264.06 Z" />
<path fill="#ff9e2e" d=" M 132.43 287.91 C 147.12 287.92 161.81 288.01 176.50 288.01 C 176.51 297.99 176.49 307.97 176.50 317.95 C 164.27 317.97 152.05 317.88 139.82 318.11 C 136.16 308.38 133.69 298.22 132.43 287.91 Z" />
<path fill="#ffffff" d=" M 76.35 312.31 C 86.93 305.39 97.49 298.43 108.09 291.55 C 110.00 298.36 111.86 305.17 113.74 311.99 C 114.33 314.14 114.92 316.30 115.52 318.45 C 98.07 319.42 80.61 320.09 63.15 321.01 C 67.51 318.04 71.95 315.21 76.35 312.31 Z" />
<path fill="#ffffff" d=" M 396.51 306.58 C 397.88 301.57 399.26 296.55 400.71 291.56 C 408.04 296.44 415.30 301.42 422.62 306.32 C 429.94 311.32 437.32 316.21 444.61 321.25 C 427.38 320.70 410.15 320.00 392.92 319.45 C 394.12 315.16 395.31 310.86 396.51 306.58 Z" />
<path fill="#ff9932" d=" M 193.75 299.50 C 195.58 299.50 197.41 299.50 199.25 299.50 C 199.24 309.69 199.27 319.88 199.21 330.08 C 199.28 331.89 199.07 334.05 200.59 335.38 C 203.10 337.80 206.95 336.90 210.10 337.03 C 212.76 337.28 215.60 335.67 216.15 332.93 C 216.77 330.06 217.17 327.16 217.64 324.27 C 219.84 324.04 222.04 323.81 224.25 323.59 C 224.24 327.43 224.24 331.27 224.26 335.11 C 230.98 334.88 238.15 333.80 243.58 329.50 C 245.29 328.22 245.93 326.08 246.13 324.04 C 248.69 324.10 251.24 324.12 253.80 324.15 C 255.01 329.93 261.07 332.23 266.15 333.56 C 272.91 335.07 280.72 335.66 286.81 331.79 C 289.60 329.99 288.58 326.29 286.67 324.26 C 291.11 324.04 295.55 323.85 299.99 323.80 C 299.99 329.91 300.02 336.02 299.98 342.12 C 295.13 342.19 290.29 342.42 285.46 342.88 C 278.60 339.10 270.48 337.55 262.73 338.66 C 259.63 339.02 256.77 340.45 254.56 342.64 C 251.66 342.52 248.77 342.35 245.89 342.13 C 242.71 338.45 237.49 338.45 233.05 338.85 C 228.33 339.23 223.87 340.93 219.57 342.80 C 209.39 342.02 199.16 342.23 188.96 342.32 C 186.42 342.02 184.89 344.18 183.32 345.77 C 179.96 345.77 176.94 344.30 174.31 342.32 C 166.96 342.13 159.58 342.05 152.27 342.89 C 147.36 335.04 143.02 326.81 139.82 318.11 C 152.05 317.88 164.27 317.97 176.50 317.95 C 176.77 323.22 175.85 328.62 177.04 333.80 C 178.82 338.14 184.39 336.91 188.11 337.00 C 190.91 337.22 193.71 334.97 193.67 332.07 C 193.89 321.22 193.67 310.36 193.75 299.50 Z" />
<path fill="#ffffff" d=" M 224.25 300.77 C 230.59 299.74 237.74 299.02 243.55 302.34 C 246.31 303.67 246.70 307.48 244.51 309.53 C 239.21 314.72 231.33 315.76 224.25 316.08 C 224.23 310.97 224.25 305.87 224.25 300.77 Z" />
<path fill="#ff9931" d=" M 381.70 319.65 C 384.08 315.15 384.90 310.00 386.29 305.13 C 389.69 305.67 393.10 306.14 396.51 306.58 C 395.31 310.86 394.12 315.16 392.92 319.45 C 410.15 320.00 427.38 320.70 444.61 321.25 C 437.32 316.21 429.94 311.32 422.62 306.32 C 428.40 306.00 434.18 305.81 439.97 305.90 C 455.98 306.10 471.99 305.86 488.00 306.08 C 488.00 321.34 488.01 336.60 487.99 351.86 C 450.61 351.67 413.22 351.93 375.84 351.73 C 377.08 349.82 378.98 347.54 377.89 345.14 C 376.82 342.43 373.61 341.66 371.01 341.36 C 363.89 340.74 356.77 342.78 350.50 346.06 C 350.49 346.81 350.49 348.31 350.49 349.05 C 346.83 349.11 343.17 349.12 339.51 349.09 C 339.48 334.74 339.52 320.39 339.50 306.04 C 351.35 305.70 363.19 306.36 375.04 305.94 C 374.15 309.63 372.41 313.16 372.24 316.99 C 372.39 321.56 379.20 323.49 381.70 319.65 Z" />
<path fill="#ff9931" d=" M 24.01 311.93 C 41.45 312.00 58.91 311.55 76.35 312.31 C 71.95 315.21 67.51 318.04 63.15 321.01 C 80.61 320.09 98.07 319.42 115.52 318.45 C 114.92 316.30 114.33 314.14 113.74 311.99 C 117.96 311.92 122.19 311.86 126.41 311.79 C 129.93 324.15 135.28 335.93 141.99 346.88 C 128.99 347.41 115.98 347.16 102.98 347.20 C 76.66 347.06 50.33 347.49 24.01 347.01 C 23.99 335.31 24.01 323.62 24.01 311.93 Z" />
<path fill="#ffffff" d=" M 224.26 319.74 C 231.49 318.83 241.12 317.37 246.13 324.04 C 245.93 326.08 245.29 328.22 243.58 329.50 C 238.15 333.80 230.98 334.88 224.26 335.11 C 224.24 331.27 224.24 327.43 224.25 323.59 C 224.25 322.30 224.25 321.02 224.26 319.74 Z" />
<path fill="#ffffff" d=" M 259.75 319.62 C 268.77 317.23 279.03 318.80 286.67 324.26 C 288.58 326.29 289.60 329.99 286.81 331.79 C 280.72 335.66 272.91 335.07 266.15 333.56 C 261.07 332.23 255.01 329.93 253.80 324.15 C 255.34 322.14 257.14 320.15 259.75 319.62 Z" />
<path fill="#ff9731" d=" M 317.02 323.75 C 318.84 323.76 320.66 323.76 322.48 323.76 C 322.47 333.79 322.57 343.82 322.45 353.85 C 320.65 353.86 318.84 353.87 317.04 353.89 C 316.95 343.84 317.02 333.79 317.02 323.75 Z" />
<path fill="#ffffff" d=" M 262.73 338.66 C 270.48 337.55 278.60 339.10 285.46 342.88 C 287.76 344.45 290.55 346.73 290.00 349.89 C 289.28 352.99 285.81 354.14 283.06 354.76 C 275.43 356.11 267.32 354.99 260.41 351.48 C 257.07 349.84 253.61 346.77 254.56 342.64 C 256.77 340.45 259.63 339.02 262.73 338.66 Z" />
<path fill="#ffffff" d=" M 219.57 342.80 C 223.87 340.93 228.33 339.23 233.05 338.85 C 237.49 338.45 242.71 338.45 245.89 342.13 C 246.45 345.32 244.66 348.26 242.17 350.11 C 235.10 355.55 225.79 358.20 216.92 357.03 C 213.99 356.73 210.46 354.55 211.27 351.14 C 212.38 347.15 216.27 344.87 219.57 342.80 Z" />
<path fill="#ffffff" d=" M 350.50 346.06 C 356.77 342.78 363.89 340.74 371.01 341.36 C 373.61 341.66 376.82 342.43 377.89 345.14 C 378.98 347.54 377.08 349.82 375.84 351.73 C 368.96 357.84 359.63 360.81 350.50 360.57 C 350.49 356.73 350.48 352.89 350.49 349.05 C 350.49 348.31 350.49 346.81 350.50 346.06 Z" />
<path fill="#ff8d27" d=" M 152.27 342.89 C 159.58 342.05 166.96 342.13 174.31 342.32 C 171.95 345.14 168.86 348.00 168.83 351.96 C 169.45 355.17 173.31 354.97 175.79 354.60 C 184.09 353.03 191.50 348.38 197.83 342.95 C 193.12 344.43 188.30 345.75 183.32 345.77 C 184.89 344.18 186.42 342.02 188.96 342.32 C 199.16 342.23 209.39 342.02 219.57 342.80 C 216.27 344.87 212.38 347.15 211.27 351.14 C 210.46 354.55 213.99 356.73 216.92 357.03 C 225.79 358.20 235.10 355.55 242.17 350.11 C 244.66 348.26 246.45 345.32 245.89 342.13 C 248.77 342.35 251.66 342.52 254.56 342.64 C 253.61 346.77 257.07 349.84 260.41 351.48 C 267.32 354.99 275.43 356.11 283.06 354.76 C 285.81 354.14 289.28 352.99 290.00 349.89 C 290.55 346.73 287.76 344.45 285.46 342.88 C 290.29 342.42 295.13 342.19 299.98 342.12 C 300.09 347.38 299.66 352.67 300.20 357.91 C 301.93 362.70 307.99 361.54 311.98 361.40 C 315.95 361.46 317.57 357.25 317.04 353.89 C 318.84 353.87 320.65 353.86 322.45 353.85 C 322.19 356.71 322.84 360.39 326.13 361.17 C 329.61 361.72 333.35 361.93 336.75 360.90 C 341.04 358.55 339.13 353.02 339.51 349.09 C 343.17 349.12 346.83 349.11 350.49 349.05 C 350.48 352.89 350.49 356.73 350.50 360.57 C 359.63 360.81 368.96 357.84 375.84 351.73 C 413.22 351.93 450.61 351.67 487.99 351.86 C 487.97 360.86 488.04 369.85 488.00 378.85 C 437.01 378.79 386.03 378.68 335.05 378.91 C 336.16 372.34 328.81 369.36 323.88 367.44 C 316.86 370.53 308.97 369.80 301.72 368.03 C 298.48 367.30 296.93 371.53 297.62 374.12 C 294.72 373.93 291.81 373.79 288.91 373.71 C 291.18 371.38 290.98 367.60 288.32 365.66 C 281.90 360.47 273.06 359.14 265.03 359.66 C 260.44 360.11 253.85 361.57 253.71 367.34 C 251.09 367.15 248.47 366.98 245.85 366.81 C 246.45 364.14 245.03 361.39 242.39 360.56 C 234.95 357.88 226.67 359.64 219.56 362.51 C 214.95 364.54 209.40 367.84 209.81 373.65 C 206.80 373.95 203.80 374.33 200.80 374.74 C 198.73 373.60 196.38 372.81 194.01 373.41 C 185.94 374.88 178.71 379.33 172.48 384.53 C 166.61 384.36 160.73 384.20 154.87 383.77 C 156.29 381.56 158.03 378.90 156.90 376.19 C 155.50 374.78 153.39 374.90 151.58 374.64 C 143.09 373.48 134.54 374.03 126.01 373.92 C 107.68 373.70 89.34 374.20 71.00 373.88 C 55.33 373.76 39.67 374.34 24.01 373.87 C 23.97 364.91 24.05 355.96 24.01 347.01 C 50.33 347.49 76.66 347.06 102.98 347.20 C 115.98 347.16 128.99 347.41 141.99 346.88 C 143.44 349.97 147.22 352.72 150.52 350.40 C 153.42 349.03 152.92 345.44 152.27 342.89 Z" />
<path fill="#ffffff" d=" M 168.83 351.96 C 168.86 348.00 171.95 345.14 174.31 342.32 C 176.94 344.30 179.96 345.77 183.32 345.77 C 188.30 345.75 193.12 344.43 197.83 342.95 C 191.50 348.38 184.09 353.03 175.79 354.60 C 173.31 354.97 169.45 355.17 168.83 351.96 Z" />
<path fill="#ffffff" d=" M 177.01 360.09 C 182.91 355.84 189.57 351.97 196.94 351.24 C 199.32 350.88 202.88 351.97 202.29 355.03 C 201.04 360.40 196.29 363.98 192.23 367.30 C 185.94 371.60 178.82 375.93 170.94 375.77 C 168.97 375.97 167.81 374.33 167.00 372.82 C 168.36 367.33 172.67 363.38 177.01 360.09 Z" />
<path fill="#ffffff" d=" M 219.56 362.51 C 226.67 359.64 234.95 357.88 242.39 360.56 C 245.03 361.39 246.45 364.14 245.85 366.81 C 242.09 372.97 234.75 375.52 228.05 377.02 C 221.92 378.14 214.46 378.63 209.81 373.65 C 209.40 367.84 214.95 364.54 219.56 362.51 Z" />
<path fill="#ffffff" d=" M 253.71 367.34 C 253.85 361.57 260.44 360.11 265.03 359.66 C 273.06 359.14 281.90 360.47 288.32 365.66 C 290.98 367.60 291.18 371.38 288.91 373.71 C 282.41 377.44 274.49 377.30 267.36 375.75 C 262.12 374.50 256.41 372.37 253.71 367.34 Z" />
<path fill="#ff841e" d=" M 228.05 377.02 C 234.75 375.52 242.09 372.97 245.85 366.81 C 248.47 366.98 251.09 367.15 253.71 367.34 C 256.41 372.37 262.12 374.50 267.36 375.75 C 274.49 377.30 282.41 377.44 288.91 373.71 C 291.81 373.79 294.72 373.93 297.62 374.12 C 302.02 380.31 309.95 382.37 317.09 383.31 C 323.24 383.84 330.54 383.84 335.05 378.91 C 386.03 378.68 437.01 378.79 488.00 378.85 C 487.98 383.92 488.02 389.00 487.99 394.08 C 422.87 394.30 357.75 393.98 292.64 394.22 C 292.14 388.35 286.29 385.43 281.33 383.80 C 274.02 381.50 265.73 380.57 258.47 383.52 C 256.05 384.41 254.62 386.70 254.49 389.23 C 237.67 389.31 220.85 389.17 204.03 389.30 C 199.86 389.32 195.69 389.05 191.54 388.70 C 195.76 385.05 201.10 380.94 200.80 374.74 C 203.80 374.33 206.80 373.95 209.81 373.65 C 214.46 378.63 221.92 378.14 228.05 377.02 Z" />
<path fill="#ffffff" d=" M 297.62 374.12 C 296.93 371.53 298.48 367.30 301.72 368.03 C 308.97 369.80 316.86 370.53 323.88 367.44 C 328.81 369.36 336.16 372.34 335.05 378.91 C 330.54 383.84 323.24 383.84 317.09 383.31 C 309.95 382.37 302.02 380.31 297.62 374.12 Z" />
<path fill="#ffffff" d=" M 172.48 384.53 C 178.71 379.33 185.94 374.88 194.01 373.41 C 196.38 372.81 198.73 373.60 200.80 374.74 C 201.10 380.94 195.76 385.05 191.54 388.70 C 186.00 392.80 179.78 396.36 172.94 397.65 C 170.37 398.00 166.26 398.36 165.70 394.93 C 166.01 390.56 169.45 387.32 172.48 384.53 Z" />
<path fill="#ff851f" d=" M 24.01 373.87 C 39.67 374.34 55.33 373.76 71.00 373.88 C 89.34 374.20 107.68 373.70 126.01 373.92 C 134.54 374.03 143.09 373.48 151.58 374.64 C 140.47 376.85 130.18 383.33 123.39 392.40 C 90.27 391.88 57.14 392.44 24.01 392.13 C 23.97 386.04 24.03 379.95 24.01 373.87 Z" />
<path fill="#ffffff" d=" M 123.39 392.40 C 130.18 383.33 140.47 376.85 151.58 374.64 C 153.39 374.90 155.50 374.78 156.90 376.19 C 158.03 378.90 156.29 381.56 154.87 383.77 C 148.61 391.02 140.10 396.45 130.85 398.93 C 127.98 399.89 125.01 399.34 122.32 398.14 C 122.51 396.19 122.69 394.23 123.39 392.40 Z" />
<path fill="#ffffff" d=" M 258.47 383.52 C 265.73 380.57 274.02 381.50 281.33 383.80 C 286.29 385.43 292.14 388.35 292.64 394.22 C 288.48 400.39 280.01 400.08 273.44 399.43 C 266.40 398.26 257.91 396.23 254.49 389.23 C 254.62 386.70 256.05 384.41 258.47 383.52 Z" />
<path fill="#ff7b15" d=" M 130.85 398.93 C 140.10 396.45 148.61 391.02 154.87 383.77 C 160.73 384.20 166.61 384.36 172.48 384.53 C 169.45 387.32 166.01 390.56 165.70 394.93 C 166.26 398.36 170.37 398.00 172.94 397.65 C 179.78 396.36 186.00 392.80 191.54 388.70 C 195.69 389.05 199.86 389.32 204.03 389.30 C 220.85 389.17 237.67 389.31 254.49 389.23 C 257.91 396.23 266.40 398.26 273.44 399.43 C 280.01 400.08 288.48 400.39 292.64 394.22 C 357.75 393.98 422.87 394.30 487.99 394.08 C 487.97 404.10 488.03 414.12 487.99 424.14 C 469.32 423.52 450.63 424.82 431.96 423.93 C 418.31 423.24 404.67 424.83 391.03 423.98 C 366.35 423.36 341.67 424.22 316.99 424.05 C 300.66 424.54 284.32 423.59 267.99 424.06 C 246.98 424.64 225.98 423.60 204.98 424.13 C 194.64 424.47 184.32 423.42 173.99 423.83 C 164.32 424.32 154.64 423.63 144.97 424.06 C 128.98 423.26 112.98 424.58 96.98 423.89 C 82.98 423.48 68.99 424.34 54.99 424.18 C 44.66 423.81 34.33 424.39 24.01 423.87 C 23.97 413.29 24.04 402.71 24.01 392.13 C 57.14 392.44 90.27 391.88 123.39 392.40 C 122.69 394.23 122.51 396.19 122.32 398.14 C 125.01 399.34 127.98 399.89 130.85 398.93 Z" />
<path fill="#ff6e08" d=" M 24.01 423.87 C 34.33 424.39 44.66 423.81 54.99 424.18 C 68.99 424.34 82.98 423.48 96.98 423.89 C 112.98 424.58 128.98 423.26 144.97 424.06 C 154.64 423.63 164.32 424.32 173.99 423.83 C 184.32 423.42 194.64 424.47 204.98 424.13 C 225.98 423.60 246.98 424.64 267.99 424.06 C 284.32 423.59 300.66 424.54 316.99 424.05 C 341.67 424.22 366.35 423.36 391.03 423.98 C 404.67 424.83 418.31 423.24 431.96 423.93 C 450.63 424.82 469.32 423.52 487.99 424.14 C 487.98 435.05 487.99 445.96 488.03 456.87 C 333.34 456.74 178.66 456.78 23.97 456.86 C 24.01 445.86 24.02 434.87 24.01 423.87 Z" />
<path fill="#ff6600" d=" M 23.97 456.86 C 178.66 456.78 333.34 456.74 488.03 456.87 C 489.26 472.95 475.16 488.16 459.02 488.01 C 323.33 487.97 187.65 488.04 51.97 487.98 C 36.21 487.54 22.78 472.58 23.97 456.86 Z" />
</svg>
