<?xml version="1.0" encoding="UTF-8" standalone="no"?>
<!-- Created with Inkscape (http://www.inkscape.org/) -->
<svg xmlns:dc="http://purl.org/dc/elements/1.1/" xmlns:cc="http://creativecommons.org/ns#" xmlns:rdf="http://www.w3.org/1999/02/22-rdf-syntax-ns#" xmlns:svg="http://www.w3.org/2000/svg" xmlns="http://www.w3.org/2000/svg" xmlns:xlink="http://www.w3.org/1999/xlink" xmlns:sodipodi="http://sodipodi.sourceforge.net/DTD/sodipodi-0.dtd" xmlns:inkscape="http://www.inkscape.org/namespaces/inkscape" version="1.0" width="96" height="96" id="svg2408" inkscape:version="0.48.1 r9760" sodipodi:docname="main.svg" inkscape:export-filename="/home/buckstabu/Dropbox/Public/lcicons/lcproto2.png" inkscape:export-xdpi="90" inkscape:export-ydpi="90">
  <sodipodi:namedview pagecolor="#ffffff" bordercolor="#666666" borderopacity="1" objecttolerance="10" gridtolerance="10" guidetolerance="10" inkscape:pageopacity="0" inkscape:pageshadow="2" inkscape:window-width="1880" inkscape:window-height="1060" id="namedview68" showgrid="false" inkscape:zoom="9.4280903" inkscape:cx="58.376504" inkscape:cy="51.3117" inkscape:window-x="33" inkscape:window-y="-10" inkscape:window-maximized="1" inkscape:current-layer="svg2408"/>
  <defs id="defs2410">
    <linearGradient id="linearGradient4017">
      <stop style="stop-color:#ff6600;stop-opacity:1;" offset="0" id="stop4019"/>
      <stop style="stop-color:#ff1e00;stop-opacity:1;" offset="1" id="stop4021"/>
    </linearGradient>
    <linearGradient id="linearGradient4145">
      <stop style="stop-color:#ff5d00;stop-opacity:1;" offset="0" id="stop4147"/>
      <stop style="stop-color:#00b1ff;stop-opacity:0;" offset="1" id="stop4149"/>
    </linearGradient>
    <linearGradient id="linearGradient3224">
      <stop id="stop3226" style="stop-color:#42394b;stop-opacity:1" offset="0"/>
      <stop id="stop3228" style="stop-color:#000000;stop-opacity:1" offset="1"/>
    </linearGradient>
    <linearGradient id="linearGradient3465">
      <stop id="stop3467" style="stop-color:#919191;stop-opacity:1" offset="0"/>
      <stop id="stop3469" style="stop-color:#fdfdfd;stop-opacity:1" offset="1"/>
    </linearGradient>
    <linearGradient id="linearGradient3187">
      <stop id="stop3189" style="stop-color:#b4b4b4;stop-opacity:1" offset="0"/>
      <stop id="stop3191" style="stop-color:#e6e6e6;stop-opacity:1" offset="1"/>
    </linearGradient>
    <linearGradient x1="45.447727" y1="92.539597" x2="45.447727" y2="7.0165396" id="ButtonShadow" gradientUnits="userSpaceOnUse" gradientTransform="scale(1.0058652,0.994169)">
      <stop id="stop3750" style="stop-color:#000000;stop-opacity:1" offset="0"/>
      <stop id="stop3752" style="stop-color:#000000;stop-opacity:0.58823532" offset="1"/>
    </linearGradient>
    <linearGradient id="linearGradient3737">
      <stop id="stop3739" style="stop-color:#ffffff;stop-opacity:1" offset="0"/>
      <stop id="stop3741" style="stop-color:#ffffff;stop-opacity:0" offset="1"/>
    </linearGradient>
    <filter color-interpolation-filters="sRGB" id="filter3174">
      <feGaussianBlur id="feGaussianBlur3176" stdDeviation="1.71"/>
    </filter>
    <linearGradient x1="36.357143" y1="6" x2="36.357143" y2="63.893143" id="linearGradient3188" xlink:href="#linearGradient3737" gradientUnits="userSpaceOnUse"/>
    <linearGradient x1="48" y1="90" x2="48" y2="5.9877172" id="linearGradient3427" xlink:href="#linearGradient3187" gradientUnits="userSpaceOnUse"/>
    <radialGradient cx="47.098362" cy="78.286942" r="38.957481" fx="47.098362" fy="78.286942" id="radialGradient3205" xlink:href="#linearGradient3224" gradientUnits="userSpaceOnUse" gradientTransform="matrix(1.3830053,-1.0350102e-8,0,1.3123934,-18.038924,-24.218731)"/>
    <linearGradient x1="43.17857" y1="13" x2="43.17857" y2="83.294571" id="linearGradient3279" xlink:href="#linearGradient3465" gradientUnits="userSpaceOnUse" gradientTransform="matrix(1.0294118,0,0,1.0294118,-1.4117647,-1.411765)"/>
    <linearGradient id="linearGradient3737-7">
      <stop id="stop3739-2" style="stop-color:#ffffff;stop-opacity:1;" offset="0"/>
      <stop id="stop3741-7" style="stop-color:#ffffff;stop-opacity:0" offset="1"/>
    </linearGradient>
    <radialGradient cx="48" cy="90.171875" r="42" fx="48" fy="90.171875" id="radialGradient2874" xlink:href="#linearGradient3737-7" gradientUnits="userSpaceOnUse" gradientTransform="matrix(1.1573129,0,0,0.99590774,-7.551021,0.1971319)"/>
    <linearGradient id="linearGradient3737-4">
      <stop id="stop3739-8" style="stop-color:#ffffff;stop-opacity:1" offset="0"/>
      <stop id="stop3741-71" style="stop-color:#ffffff;stop-opacity:0" offset="1"/>
    </linearGradient>
    <clipPath id="clipPath3613">
      <rect width="84" height="84" rx="6" ry="6" x="6" y="6" id="rect3615" style="fill:#ffffff;fill-opacity:1;fill-rule:nonzero;stroke:none"/>
    </clipPath>
    <filter x="-0.192" y="-0.192" width="1.3839999" height="1.3839999" color-interpolation-filters="sRGB" id="filter3794">
      <feGaussianBlur id="feGaussianBlur3796" stdDeviation="5.28"/>
    </filter>
    <linearGradient x1="48" y1="20.220806" x2="48" y2="138.66119" id="linearGradient2908" xlink:href="#linearGradient3737-4" gradientUnits="userSpaceOnUse"/>
    <linearGradient x1="45.447727" y1="92.539597" x2="45.447727" y2="7.0165396" id="ButtonShadow-0" gradientUnits="userSpaceOnUse" gradientTransform="matrix(1.0058652,0,0,0.994169,100,0)">
      <stop id="stop3750-8" style="stop-color:#000000;stop-opacity:1" offset="0"/>
      <stop id="stop3752-5" style="stop-color:#000000;stop-opacity:0.58823532" offset="1"/>
    </linearGradient>
    <linearGradient x1="32.251034" y1="6.1317081" x2="32.251034" y2="90.238609" id="linearGradient3780" xlink:href="#ButtonShadow-0" gradientUnits="userSpaceOnUse" gradientTransform="matrix(1.0238095,0,0,1.0119048,-1.1428571,-98.071429)"/>
    <linearGradient x1="32.251034" y1="6.1317081" x2="32.251034" y2="90.238609" id="linearGradient3772" xlink:href="#ButtonShadow-0" gradientUnits="userSpaceOnUse" gradientTransform="matrix(1.0238095,0,0,1.0119048,-1.1428571,-98.071429)"/>
    <linearGradient x1="32.251034" y1="6.1317081" x2="32.251034" y2="90.238609" id="linearGradient3725" xlink:href="#ButtonShadow-0" gradientUnits="userSpaceOnUse" gradientTransform="matrix(1.0238095,0,0,1.0119048,-1.1428571,-98.071429)"/>
    <linearGradient x1="32.251034" y1="6.1317081" x2="32.251034" y2="90.238609" id="linearGradient3721" xlink:href="#ButtonShadow-0" gradientUnits="userSpaceOnUse" gradientTransform="translate(0,-97)"/>
    <linearGradient x1="32.251034" y1="6.1317081" x2="32.251034" y2="90.238609" id="linearGradient3224-3" xlink:href="#ButtonShadow-0" gradientUnits="userSpaceOnUse" gradientTransform="matrix(1.0238095,0,0,1.0119048,-1.1428571,-98.071429)"/>
    <linearGradient inkscape:collect="always" xlink:href="#linearGradient3737-4" id="linearGradient3053" gradientUnits="userSpaceOnUse" x1="48" y1="20.220806" x2="48" y2="138.66119"/>
    <radialGradient inkscape:collect="always" xlink:href="#linearGradient3224" id="radialGradient3071" gradientUnits="userSpaceOnUse" gradientTransform="matrix(1.3830053,-1.0350102e-8,0,1.3123934,-17.140614,-23.729195)" cx="47.098362" cy="78.286942" fx="47.098362" fy="78.286942" r="38.957481"/>
    <linearGradient id="linearGradient3304">
      <stop id="stop3306" style="stop-color:#ff8313;stop-opacity:1" offset="0"/>
      <stop id="stop3308" style="stop-color:#ffe400;stop-opacity:1" offset="1"/>
    </linearGradient>
    <linearGradient inkscape:collect="always" xlink:href="#linearGradient3304" id="linearGradient3023" gradientUnits="userSpaceOnUse" gradientTransform="matrix(1.2146893,0,0,1.2146893,-90.000003,-246.69493)" x1="143.75" y1="334.5" x2="143.75" y2="276"/>
    <linearGradient id="linearGradient3045">
      <stop id="stop3047" style="stop-color:#ff8313;stop-opacity:1" offset="0"/>
      <stop id="stop3049" style="stop-color:#ffe400;stop-opacity:1" offset="1"/>
    </linearGradient>
    <linearGradient inkscape:collect="always" xlink:href="#linearGradient3737" id="linearGradient3894" x1="49.010517" y1="48.650372" x2="73.444344" y2="48.650372" gradientUnits="userSpaceOnUse" gradientTransform="translate(2.1,0)"/>
    <linearGradient inkscape:collect="always" xlink:href="#linearGradient3737" id="linearGradient3896" x1="23.037859" y1="48.650372" x2="47.471485" y2="48.650372" gradientUnits="userSpaceOnUse" gradientTransform="translate(2.1,0)"/>
    <radialGradient inkscape:collect="always" xlink:href="#ButtonShadow-0" id="radialGradient3908" cx="61.227432" cy="48.650372" fx="61.227432" fy="48.650372" r="12.216913" gradientTransform="translate(2.1,7.9644297e-6)" gradientUnits="userSpaceOnUse"/>
    <radialGradient inkscape:collect="always" xlink:href="#ButtonShadow-0" id="radialGradient3910" cx="35.254673" cy="48.650372" fx="35.254673" fy="48.650372" r="12.216814" gradientTransform="translate(2.1,-5.9733707e-6)" gradientUnits="userSpaceOnUse"/>
    <radialGradient inkscape:collect="always" xlink:href="#linearGradient3224" id="radialGradient3955" gradientUnits="userSpaceOnUse" gradientTransform="matrix(1.4908884,-1.1072317e-8,0,1.4039702,-22.221992,-28.734351)" cx="47.098362" cy="78.286942" fx="47.098362" fy="78.286942" r="38.957481"/>
    <radialGradient cx="47.098362" cy="78.286942" r="38.957481" fx="47.098362" fy="78.286942" id="radialGradient3205-1" xlink:href="#linearGradient3224-6" gradientUnits="userSpaceOnUse" gradientTransform="matrix(1.3830053,-1.0350102e-8,0,1.3123934,-18.038924,-24.218731)"/>
    <linearGradient id="linearGradient3224-6">
      <stop id="stop3226-2" style="stop-color:#42394b;stop-opacity:1" offset="0"/>
      <stop id="stop3228-1" style="stop-color:#000000;stop-opacity:1" offset="1"/>
    </linearGradient>
    <linearGradient x1="48" y1="90" x2="48" y2="5.9877172" id="linearGradient3427-0" xlink:href="#linearGradient3187-5" gradientUnits="userSpaceOnUse"/>
    <linearGradient id="linearGradient3187-5">
      <stop id="stop3189-3" style="stop-color:#b4b4b4;stop-opacity:1" offset="0"/>
      <stop id="stop3191-2" style="stop-color:#e6e6e6;stop-opacity:1" offset="1"/>
    </linearGradient>
    <linearGradient x1="36.357143" y1="6" x2="36.357143" y2="63.893143" id="linearGradient3188-1" xlink:href="#linearGradient3737-9" gradientUnits="userSpaceOnUse"/>
    <linearGradient id="linearGradient3737-9">
      <stop id="stop3739-7" style="stop-color:#ffffff;stop-opacity:1" offset="0"/>
      <stop id="stop3741-6" style="stop-color:#ffffff;stop-opacity:0" offset="1"/>
    </linearGradient>
    <linearGradient x1="43.17857" y1="13" x2="43.17857" y2="83.294571" id="linearGradient3279-8" xlink:href="#linearGradient3465-2" gradientUnits="userSpaceOnUse" gradientTransform="matrix(1.0294118,0,0,1.0294118,-1.4117647,-1.411765)"/>
    <linearGradient id="linearGradient3465-2">
      <stop id="stop3467-0" style="stop-color:#919191;stop-opacity:1" offset="0"/>
      <stop id="stop3469-6" style="stop-color:#fdfdfd;stop-opacity:1" offset="1"/>
    </linearGradient>
    <radialGradient cx="48" cy="90.171875" r="42" fx="48" fy="90.171875" id="radialGradient2874-4" xlink:href="#linearGradient3737-7-3" gradientUnits="userSpaceOnUse" gradientTransform="matrix(1.1573129,0,0,0.99590774,-7.551021,0.1971319)"/>
    <linearGradient id="linearGradient3737-7-3">
      <stop id="stop3739-2-3" style="stop-color:#ffffff;stop-opacity:1" offset="0"/>
      <stop id="stop3741-7-6" style="stop-color:#ffffff;stop-opacity:0" offset="1"/>
    </linearGradient>
    <linearGradient x1="48" y1="20.220806" x2="48" y2="138.66119" id="linearGradient2908-9" xlink:href="#linearGradient3737-4-0" gradientUnits="userSpaceOnUse"/>
    <linearGradient id="linearGradient3737-4-0">
      <stop id="stop3739-8-4" style="stop-color:#ffffff;stop-opacity:1" offset="0"/>
      <stop id="stop3741-71-8" style="stop-color:#ffffff;stop-opacity:0" offset="1"/>
    </linearGradient>
    <clipPath id="clipPath3613-5">
      <rect width="84" height="84" rx="6" ry="6" x="6" y="6" id="rect3615-1" style="fill:#ffffff;fill-opacity:1;fill-rule:nonzero;stroke:none"/>
    </clipPath>
    <filter x="-0.192" y="-0.192" width="1.3839999" height="1.3839999" color-interpolation-filters="sRGB" id="filter3794-2">
      <feGaussianBlur id="feGaussianBlur3796-9" stdDeviation="5.28"/>
    </filter>
    <linearGradient inkscape:collect="always" xlink:href="#linearGradient3187-5" id="linearGradient4094" gradientUnits="userSpaceOnUse" x1="48" y1="90" x2="48" y2="5.9877172"/>
    <linearGradient inkscape:collect="always" xlink:href="#linearGradient3737-9" id="linearGradient4096" gradientUnits="userSpaceOnUse" x1="36.357143" y1="6" x2="36.357143" y2="63.893143"/>
    <linearGradient inkscape:collect="always" xlink:href="#linearGradient3465-2" id="linearGradient4098" gradientUnits="userSpaceOnUse" gradientTransform="matrix(1.0294118,0,0,1.0294118,-1.4117647,-1.411765)" x1="43.17857" y1="13" x2="43.17857" y2="83.294571"/>
    <radialGradient inkscape:collect="always" xlink:href="#linearGradient3737-7-3" id="radialGradient4100" gradientUnits="userSpaceOnUse" gradientTransform="matrix(1.1573129,0,0,0.99590774,-7.551021,0.1971319)" cx="48" cy="90.171875" fx="48" fy="90.171875" r="42"/>
    <linearGradient inkscape:collect="always" xlink:href="#linearGradient3737-4-0" id="linearGradient4102" gradientUnits="userSpaceOnUse" x1="48" y1="20.220806" x2="48" y2="138.66119"/>
    <radialGradient inkscape:collect="always" xlink:href="#linearGradient3224-6" id="radialGradient4104" gradientUnits="userSpaceOnUse" gradientTransform="matrix(1.3830053,-1.0350102e-8,0,1.3123934,-18.038924,-24.218731)" cx="47.098362" cy="78.286942" fx="47.098362" fy="78.286942" r="38.957481"/>
    <radialGradient inkscape:collect="always" xlink:href="#linearGradient3224-6" id="radialGradient4113" gradientUnits="userSpaceOnUse" gradientTransform="matrix(1.3830053,-1.0350102e-8,0,1.3123934,-17.140614,-23.729195)" cx="47.098362" cy="78.286942" fx="47.098362" fy="78.286942" r="38.957481"/>
    <linearGradient inkscape:collect="always" xlink:href="#linearGradient4017" id="linearGradient4023" x1="48.732876" y1="37.021988" x2="48.609169" y2="60.526169" gradientUnits="userSpaceOnUse"/>
    <linearGradient inkscape:collect="always" xlink:href="#linearGradient4017" id="linearGradient3899" x1="136.05745" y1="-123.31005" x2="179.05775" y2="2094.0449" gradientUnits="userSpaceOnUse"/>
    <linearGradient inkscape:collect="always" xlink:href="#linearGradient4017" id="linearGradient3907" x1="-750.24316" y1="-59.526615" x2="-755.00562" y2="323.26517" gradientUnits="userSpaceOnUse"/>
  </defs>
  <metadata id="metadata2413">
    <rdf:RDF>
      <cc:Work rdf:about="">
        <dc:format>image/svg+xml</dc:format>
        <dc:type rdf:resource="http://purl.org/dc/dcmitype/StillImage"/>
        <dc:title/>
      </cc:Work>
    </rdf:RDF>
  </metadata>
  <path style="opacity:0.6;color:#000000;fill:#000000;fill-opacity:1;fill-rule:nonzero;stroke:none;stroke-width:1;marker:none;visibility:visible;display:inline;overflow:visible;enable-background:accumulate" id="rect3977-9" inkscape:connector-curvature="0" d="m 17.89831,14.489536 c -1.662,0 -3,1.338 -3,3 l 0,62 c 0,1.662 1.338,3 3,3 l 62,0 c 1.662,0 3,-1.338 3,-3 l 0,-62 c 0,-1.662 -1.338,-3 -3,-3 l -62,0 z m 0,0.96875 62,0 c 1.140081,0 2.03125,0.891169 2.03125,2.03125 l 0,62 c 0,1.140081 -0.891169,2.03125 -2.03125,2.03125 l -62,0 c -1.140081,0 -2.03125,-0.891169 -2.03125,-2.03125 l 0,-62 c 0,-1.140081 0.891169,-2.03125 2.03125,-2.03125 z"/>
  <g id="layer2" style="display:none">
    <rect width="86" height="85" rx="6" ry="6" x="5" y="7" id="rect3745" style="opacity:0.9;fill:url(#ButtonShadow);fill-opacity:1;fill-rule:nonzero;stroke:none;filter:url(#filter3174)"/>
  </g>
  <rect style="fill:url(#radialGradient4113);fill-opacity:1;stroke:none" id="rect3461-7" y="8.743969" x="9.0391903" ry="6.1732869" rx="5.8527675" height="78.516495" width="77.914963"/>
  <path style="font-size:medium;font-style:normal;font-variant:normal;font-weight:normal;font-stretch:normal;text-indent:0;text-align:start;text-decoration:none;line-height:normal;letter-spacing:normal;word-spacing:normal;text-transform:none;direction:ltr;block-progression:tb;writing-mode:lr-tb;text-anchor:start;opacity:0.15;color:#000000;fill:#000000;fill-opacity:1;stroke:none;stroke-width:4;marker:none;visibility:visible;display:inline;overflow:visible;enable-background:accumulate;font-family:Abandoned Bitplane;-inkscape-font-specification:Abandoned Bitplane" id="rect3222-3-8" inkscape:connector-curvature="0" d="m 19.89831,13.489536 c -3.289406,0 -6,2.710594 -6,6 l 0,58 c 0,3.289406 2.710594,6 6,6 l 58,0 c 3.289406,0 6,-2.710594 6,-6 l 0,-58 c 0,-3.289406 -2.710594,-6 -6,-6 l -58,0 z m 0,4 58,0 c 1.142594,0 2,0.857406 2,2 l 0,58 c 0,1.142594 -0.857406,2 -2,2 l -58,0 c -1.142594,0 -2,-0.857406 -2,-2 l 0,-58 c 0,-1.142594 0.857406,-2 2,-2 z"/>
  <path style="opacity:0.3;color:#000000;fill:#000000;fill-opacity:1;fill-rule:nonzero;stroke:none;stroke-width:1;marker:none;visibility:visible;display:inline;overflow:visible;enable-background:accumulate" id="rect3981-0" inkscape:connector-curvature="0" d="m 17.89831,14.489536 c -1.662,0 -3,1.338 -3,3 l 0,62 c 0,1.662 1.338,3 3,3 l 62,0 c 1.662,0 3,-1.338 3,-3 l 0,-62 c 0,-1.662 -1.338,-3 -3,-3 l -62,0 z m 0,1.9375 62,0 c 0.618163,0 1.0625,0.444337 1.0625,1.0625 l 0,62 c 0,0.618163 -0.444337,1.0625 -1.0625,1.0625 l -62,0 c -0.618163,0 -1.0625,-0.444337 -1.0625,-1.0625 l 0,-62 c 0,-0.618163 0.444337,-1.0625 1.0625,-1.0625 z"/>
  <g id="g3115" transform="matrix(0.06144809,0,0,0.06144809,40.838225,42.716381)">
    <path transform="matrix(1.0990084,0,0,1.1016578,967.4965,-489.6723)" d="m -397.14285,483.79074 c 0,219.33594 -168.85261,397.14285 -377.14286,397.14285 -208.29024,0 -377.14289,-177.80691 -377.14289,-397.14285 0,-219.33594 168.85265,-397.142852 377.14289,-397.142852 208.29025,0 377.14286,177.806912 377.14286,397.142852 z" sodipodi:ry="397.14285" sodipodi:rx="377.14285" sodipodi:cy="483.79074" sodipodi:cx="-774.28571" id="path2988" style="fill:url(#linearGradient3907);fill-opacity:1;fill-rule:nonzero;stroke:#000000;stroke-width:14.56993103;stroke-miterlimit:4;stroke-opacity:1;stroke-dasharray:none" sodipodi:type="arc"/>
    <path id="path2985" d="m 139.18489,-119.0326 c -29.53646,34.906984 -67.122144,68.006684 -111.312504,96.281254 -70.75876,45.27399 -145.642426,70.03933 -210.937496,73.9375 -0.11369,4.95314 -0.1875,9.95069 -0.1875,15 0,267.482346 161.256016,499.999996 300,499.999996 138.74398,0 300,-232.51765 300,-499.999996 0,-29.28982 -1.93629,-56.9746302 -5.5625,-83.03125 -70.06153,0.91778 -153.96253,-24.0777 -232.71875,-74.46875 -13.75755,-8.802584 -26.84468,-18.072594 -39.28125,-27.718754 z" style="fill:url(#linearGradient3899);fill-opacity:1;fill-rule:nonzero;stroke:#000000;stroke-width:16.03176689;stroke-miterlimit:4;stroke-opacity:1;stroke-dasharray:none" inkscape:connector-curvature="0"/>
    <g transform="translate(-190.99563,-486.18884)" id="g3891">
      <path style="fill:#000000;stroke:none" d="m 69.63401,538.70317 c -1.344,15.31159 2.6098,25.07108 8.3245,31.35135 -4.718,-3.12688 -8.5815,-7.29579 -10.2701,-12.64865 1.3333,8.26192 5.9371,13.59831 11.4591,17.08108 -0.3546,0.0388 -0.7202,0.0661 -1.0807,0.10794 -9.8972,-4.27973 -19.5556,-11.16233 -22.7031,-22.37838 1.7007,11.84453 7.9834,19.02367 15.2435,23.45946 -2.1612,0.33211 -4.1621,0.66103 -6.5948,1.08108 7.2517,2.19364 12.5516,2.03904 17.838,9.51351 -0.042,0.0138 -0.3252,0.10794 -0.3252,0.10794 0.035,0.14599 0.073,0.28679 0.1072,0.43243 -3.5604,0.17436 -14.8407,1.20067 -25.081,7.78378 17.0444,-4.40807 23.9716,-2.87429 26.7028,-1.4054 0.1488,0.53971 0.2803,1.08488 0.4325,1.62162 -2.8517,0.42468 -11.4159,2.26186 -15.7842,10.27027 6.8802,-7.2622 16.1045,-5.78958 18.5946,-1.51351 0.2076,0.61664 0.4339,1.2263 0.649,1.83783 0,0.0374 0,0.0706 0,0.10794 0,0 -10.8443,3.10715 -18.2704,16.64865 11.3574,-12.66785 20.973,-8.75676 20.973,-8.75676 0,0 -3.3066,2.90159 -10.0539,13.94595 5.2805,-6.33659 10.0002,-7.87408 12.973,-8.10811 0.3113,0.66051 0.65,1.29432 0.9728,1.94594 -2.8271,2.57868 -7.8672,8.59711 -11.7837,20.64865 6.4211,-10.86658 11.629,-13.89025 15.026905,-14.48648 0.7324,1.2759 1.4914,2.55034 2.2704,3.78378 -1.5069,2.85571 -3.4352,7.22428 -4.2163,12.43242 3.0169,-4.4252 6.062995,-5.87347 8.540685,-6.16216 0.7282,0.97263 1.5052,1.87248 2.2701,2.81081 -2.7188,2.16555 -7.037285,6.45407 -10.810785,14.27027 8.263885,-8.26385 12.275485,-10.22132 14.270185,-10.37838 0.4657,0.50408 0.9272,1.02148 1.4053,1.51351 -0.6086,0.87279 -2.467,3.66458 -4.3244,8.86487 4.7831,-2.96085 7.4254,-3.61856 10.16251,-3.24324 12.0255,10.04561 27.5308,16.70261 47.6755,18.59459 35.7193,3.35478 76.5077,-4.1745 79.7838,-8.32431 0,0 -0.4999,-1.05664 -0.6486,-1.40541 -13.7794,3.87318 -44.625,8.02726 -72.5407,5.40541 -49.2264,-4.62337 -70.7581,-37.93941 -81.6215,-79.13514 33.7484,-1.89917 93.402,12.02882 131.6757,37.51352 23.4586,15.62008 18.6389,38.84267 24.8648,34.05404 7.3479,-5.65137 -8.8119,-31.03035 -19.6756,-38.91891 -12.5364,-9.10312 -26.2331,-16.52604 -40.6487,-22.5946 0.1522,-1.023 0.5317,-2.23256 1.6218,-3.56757 -1.3343,0.72735 -2.2303,1.91813 -2.9191,3.02703 -0.8261,-0.34214 -1.656,-0.63941 -2.4866,-0.97298 0.1176,-1.49189 0.7517,-3.09846 2.3787,-4.43243 -1.9837,1.42115 -3.0876,2.80078 -3.676,4 -0.62,-0.24527 -1.2153,-0.51632 -1.8377,-0.75675 0.035,-1.43028 0.3788,-3.21678 1.7297,-5.08109 -1.6909,1.29042 -2.7302,2.91214 -3.3515,4.43244 -0.7535,-0.28541 -1.5132,-0.58621 -2.2701,-0.86487 0.048,-1.34742 0.4037,-3.00343 1.6218,-4.86486 -1.1672,0.79398 -1.9494,2.03496 -2.5946,3.24324 0.1107,-2.16853 0.6878,-4.73102 2.378,-7.67567 -2.752,3.16849 -3.9202,5.9988 -4.3243,8.21622 -0.211,-0.0754 -0.4359,-0.14114 -0.6483,-0.21623 -0.09,-2.08076 0.3557,-4.52746 2.2701,-6.48648 -2.4327,2.17513 -3.4788,4.3088 -3.8919,5.94594 -0.4272,-0.14771 -0.8693,-0.28678 -1.2973,-0.43243 -0.2145,-1.48355 -0.1418,-3.2722 0.6487,-5.4054 0.2629,-0.48737 0.493,-0.89652 0.8648,-1.4054 -0.1591,0.11589 -0.2836,0.20757 -0.4324,0.32415 0.1695,-0.36241 0.3252,-0.70773 0.5407,-1.08108 -0.7393,0.70389 -1.3402,1.45906 -1.838,2.27026 -1.4208,1.47744 -2.1666,2.98552 -2.3784,4.43243 -0.6514,-0.21483 -1.2928,-0.43838 -1.9459,-0.64864 -0.5262,-3.14368 -0.4376,-7.55692 2.0539,-12.97298 -3.5761,5.13816 -4.269,9.41983 -4.2161,12.32433 -0.1107,-0.0346 -0.2145,-0.074 -0.3252,-0.10794 -1.4,-3.36557 -1.6038,-7.19529 1.2973,-10.8108 -3.4044,3.20083 -4.5184,6.22409 -4.3243,8.86487 -0.813,-2.68306 -0.8147,-6.07769 1.5132,-10.05407 -3.8359,3.46528 -4.3282,7.2283 -3.7836,10.37838 -0.8282,-0.24251 -1.6561,-0.52093 -2.4863,-0.75676 -0.3495,-0.63868 -0.7712,-1.25287 -1.0815,-1.94593 -0.035,-2.16801 0.6082,-4.86106 2.5946,-8 -0.6642,0.47322 -1.2917,1.03341 -1.8376,1.62162 0.2836,-0.53376 0.5638,-1.04683 0.9728,-1.62162 -1.3029,0.82521 -2.3272,1.96974 -3.135,3.13513 -0.6241,-3.3364 -0.4643,-6.85824 1.7297,-10.27027 -4.4004,5.16273 -4.6339,9.93896 -3.4594,13.72973 -0.2941,0.77949 -0.5041,1.4903 -0.6487,2.05406 -0.3656,-0.0979 -0.7151,-0.22764 -1.0811,-0.32416 -0.9876,-2.61286 -2.1604,-7.71916 2.0543,-11.67567 -0.6885,0.56614 -1.3039,1.07136 -1.838,1.62162 0.4908,-0.89427 1.1568,-1.76152 1.9459,-2.59459 -4.5907,4.24662 -6.0108,8.19539 -6.3786,10.91892 -1.1412,-2.05517 -2.7495,-6.4704 0.8649,-12.21622 -1.034,0.90461 -1.8044,1.90429 -2.4863,2.91892 0.4048,-1.43538 0.9465,-3.05551 1.838,-4.64865 -4.0939,4.02709 -5.5784,9.24201 -6.054,13.18919 -0.2803,-0.0657 -0.584,-0.0432 -0.8649,-0.10794 0,-0.002 0,-0.10655 0,-0.10793 -1.8107,-3.64299 -3.4394,-10.16846 1.0807,-19.35135 -2.8772,3.79565 -4.251,7.08549 -4.9726,9.94594 0.1107,-3.9605 0.9963,-8.67498 3.3512,-14.05405 -6.3665,9.44287 -6.8705,16.85431 -6.2703,21.4054 -2.9623,-3.26922 -5.9316,-9.0039 -1.0811,-16.64864 -4.2409,3.52365 -5.5033,7.13527 -5.4054,10.37837 -0.9582,-3.88642 -0.7746,-8.68241 2.3784,-14.27027 -5.7918,5.41133 -6.7086,11.06349 -5.9458,15.78379 -4.02371,-5.61799 -7.01681,-13.13176 -1.838,-20.54054 -9.94591,10.69391 -4.11991,19.20899 0.6487,23.67567 -0.3564,-0.0657 -0.7248,-0.0436 -1.0811,-0.10793 -5.59781,-7.41453 -11.11011,-18.85631 -4.21611,-29.94596 -10.1604,12.28403 -6.0717,22.46075 -1.1893,28.64865 -8.2522,-4.76513 -17.753585,-13.01916 -14.702685,-24.86486 -4.865105,11.52245 1.6238,19.28946 8.324085,24 -0.2836,-0.0443 -0.5794,-0.0644 -0.8648,-0.10794 -0.038,-0.007 -0.073,0.007 -0.1073,0 -9.043385,-6.31607 -18.43889,-16.71061 -15.13509,-31.13513 -5.3587,14.27124 1.207,24.19715 8.540705,30.37837 -0.2179,-0.0208 -0.4311,-0.0906 -0.649,-0.10793 C 88.22341,569.13717 79.39211,560.83942 80.01031,547.028 c -1.4035,14.21848 3.9486,22.2351 10.4867,26.81081 -0.2837,-3.1e-4 -0.5795,-0.002 -0.8649,0 -10.541,-6.357 -20.7173,-17.12183 -20.0002,-35.13513 z" id="path3643" inkscape:connector-curvature="0"/>
      <path style="fill:#000000;stroke:none" d="m 545.85204,538.70316 c 1.344,15.3116 -2.6098,25.07108 -8.3245,31.35135 4.718,-3.12687 8.5815,-7.29579 10.2701,-12.64865 -1.3333,8.26192 -5.9371,13.59831 -11.4591,17.08108 0.3546,0.0388 0.7202,0.0661 1.0807,0.10794 9.8972,-4.27973 19.5556,-11.16233 22.7031,-22.37838 -1.7007,11.84453 -7.9834,19.02368 -15.2435,23.45947 2.1612,0.3321 4.1621,0.66102 6.5948,1.08108 -7.2517,2.19364 -12.5516,2.03904 -17.838,9.51351 0.042,0.0138 0.3252,0.10794 0.3252,0.10794 -0.035,0.14599 -0.073,0.28679 -0.1072,0.43242 3.5604,0.17436 14.8407,1.20067 25.081,7.78378 -17.0444,-4.40806 -23.9716,-2.87429 -26.7028,-1.4054 -0.1488,0.53971 -0.2803,1.08488 -0.4325,1.62162 2.8517,0.42468 11.4159,2.26186 15.7842,10.27027 -6.8802,-7.2622 -16.1045,-5.78958 -18.5946,-1.51351 -0.2076,0.61664 -0.4339,1.22631 -0.649,1.83784 0,0.0374 0,0.0706 0,0.10794 0,0 10.8443,3.10715 18.2704,16.64864 -11.3574,-12.66785 -20.973,-8.75676 -20.973,-8.75676 0,0 3.3066,2.9016 10.0539,13.94596 -5.2805,-6.33659 -10.0002,-7.87409 -12.973,-8.10811 -0.3113,0.66051 -0.65,1.29431 -0.9728,1.94593 2.8271,2.57868 7.8672,8.59712 11.7837,20.64865 -6.4211,-10.86658 -11.629,-13.89025 -15.0269,-14.48648 -0.7324,1.27591 -1.4914,2.55034 -2.2704,3.78378 1.5069,2.85571 3.4352,7.22428 4.2163,12.43243 -3.0169,-4.4252 -6.063,-5.87347 -8.5407,-6.16216 -0.7282,0.97263 -1.5052,1.87247 -2.2701,2.81081 2.7188,2.16555 7.0373,6.45407 10.8108,14.27027 -8.2639,-8.26385 -12.2755,-10.22132 -14.2702,-10.37838 -0.4657,0.50408 -0.9272,1.02148 -1.4053,1.51351 0.6086,0.87279 2.467,3.66458 4.3244,8.86487 -4.7831,-2.96085 -7.4254,-3.61856 -10.1625,-3.24324 -12.0255,10.04561 -27.5308,16.70261 -47.6755,18.59459 -35.7193,3.35478 -76.5077,-4.1745 -79.7838,-8.32432 0,0 0.4999,-1.05663 0.6486,-1.40541 13.7794,3.87318 44.625,8.02726 72.5407,5.40541 49.2264,-4.62336 70.7581,-37.93941 81.6215,-79.13514 -33.7484,-1.89917 -93.402,12.02882 -131.6757,37.51352 -23.4586,15.62008 -18.6389,38.84267 -24.8648,34.05405 -7.3479,-5.65137 8.8119,-31.03035 19.6756,-38.91892 12.5364,-9.10312 26.2331,-16.52604 40.6487,-22.59459 -0.1522,-1.023 -0.5317,-2.23256 -1.6218,-3.56757 1.3343,0.72735 2.2303,1.91813 2.9191,3.02703 0.8261,-0.34214 1.656,-0.63941 2.4866,-0.97298 -0.1176,-1.49189 -0.7517,-3.09846 -2.3787,-4.43243 1.9837,1.42115 3.0876,2.80078 3.676,4 0.62,-0.24527 1.2153,-0.51632 1.8377,-0.75675 -0.035,-1.43028 -0.3788,-3.21678 -1.7297,-5.08109 1.6909,1.29042 2.7302,2.91214 3.3515,4.43244 0.7535,-0.28541 1.5132,-0.58621 2.2701,-0.86487 -0.049,-1.34742 -0.4037,-3.00343 -1.6218,-4.86486 1.1672,0.79398 1.9494,2.03496 2.5946,3.24324 -0.1107,-2.16853 -0.6878,-4.73102 -2.3781,-7.67567 2.752,3.16848 3.9203,5.9988 4.3244,8.21621 0.211,-0.0754 0.4359,-0.14114 0.6483,-0.21622 0.09,-2.08076 -0.3557,-4.52746 -2.2701,-6.48648 2.4327,2.17513 3.4788,4.30879 3.8919,5.94594 0.4272,-0.14771 0.8693,-0.28678 1.2973,-0.43243 0.2145,-1.48355 0.1418,-3.2722 -0.6487,-5.4054 -0.2629,-0.48737 -0.493,-0.89652 -0.8648,-1.40541 0.1591,0.11589 0.2836,0.20757 0.4324,0.32415 -0.1695,-0.36241 -0.3252,-0.70773 -0.5407,-1.08108 0.7393,0.7039 1.3402,1.45906 1.838,2.27027 1.4208,1.47743 2.1666,2.98552 2.3784,4.43243 0.6514,-0.21483 1.2928,-0.43838 1.9459,-0.64864 0.5262,-3.14368 0.4376,-7.55692 -2.0539,-12.97298 3.5761,5.13816 4.269,9.41983 4.2161,12.32433 0.1107,-0.0346 0.2145,-0.074 0.3252,-0.10794 1.4,-3.36557 1.6038,-7.19529 -1.2973,-10.81081 3.4044,3.20083 4.5184,6.22409 4.3243,8.86487 0.813,-2.68306 0.8147,-6.07769 -1.5132,-10.05406 3.8359,3.46527 4.3281,7.2283 3.7836,10.37838 0.8282,-0.24251 1.6561,-0.52093 2.4863,-0.75676 0.3494,-0.63868 0.7712,-1.25287 1.0815,-1.94594 0.035,-2.16801 -0.6082,-4.86106 -2.5946,-8 0.6642,0.47322 1.2917,1.03341 1.8376,1.62162 -0.2836,-0.53376 -0.5639,-1.04683 -0.9728,-1.62162 1.3029,0.82522 2.3272,1.96974 3.135,3.13513 0.6241,-3.3364 0.4643,-6.85824 -1.7297,-10.27027 4.4004,5.16273 4.6339,9.93896 3.4594,13.72973 0.2941,0.77949 0.5041,1.4903 0.6487,2.05406 0.3656,-0.0979 0.7151,-0.22764 1.0811,-0.32416 0.9876,-2.61286 2.1604,-7.71916 -2.0543,-11.67567 0.6885,0.56614 1.3039,1.07136 1.838,1.62162 -0.4909,-0.89427 -1.1568,-1.76152 -1.9459,-2.59459 4.5907,4.24662 6.0108,8.19539 6.3786,10.91892 1.1412,-2.05517 2.7495,-6.4704 -0.8649,-12.21622 1.034,0.90461 1.8044,1.90429 2.4863,2.91892 -0.4048,-1.43537 -0.9465,-3.0555 -1.838,-4.64865 4.0939,4.02709 5.5784,9.24201 6.054,13.18919 0.2803,-0.0657 0.584,-0.0432 0.8649,-0.10794 0,-0.002 0,-0.10655 0,-0.10793 1.8107,-3.64299 3.4394,-10.16846 -1.0807,-19.35135 2.8772,3.79565 4.251,7.08549 4.9726,9.94594 -0.1107,-3.96049 -0.9963,-8.67497 -3.3512,-14.05405 6.3665,9.44287 6.8705,16.85431 6.2703,21.4054 2.9623,-3.26922 5.9316,-9.0039 1.0811,-16.64864 4.2409,3.52366 5.5033,7.13527 5.4054,10.37837 0.9582,-3.88642 0.7745,-8.68241 -2.3784,-14.27027 5.7918,5.41133 6.7086,11.06349 5.9458,15.78379 4.0237,-5.61799 7.0168,-13.13176 1.838,-20.54054 9.9459,10.69391 4.1199,19.20899 -0.6487,23.67567 0.3564,-0.0657 0.7248,-0.0436 1.0811,-0.10793 5.5978,-7.41452 11.1101,-18.8563 4.2161,-29.94595 10.1604,12.28402 6.0717,22.46075 1.1893,28.64865 8.2522,-4.76513 17.7536,-13.01916 14.7027,-24.86486 4.8651,11.52245 -1.6238,19.28946 -8.3241,24 0.2836,-0.0443 0.5794,-0.0644 0.8648,-0.10794 0.038,-0.007 0.073,0.007 0.1073,0 9.0434,-6.31607 18.4389,-16.71061 15.1351,-31.13513 5.3587,14.27124 -1.207,24.19715 -8.5407,30.37837 0.2179,-0.0208 0.431,-0.0906 0.649,-0.10793 9.0842,-4.91786 17.9155,-13.21562 17.2973,-27.02703 1.4035,14.21848 -3.9486,22.23509 -10.4867,26.81081 0.2837,-3.1e-4 0.5795,-0.002 0.8649,0 10.541,-6.357 20.7173,-17.12183 20.0002,-35.13513 z" id="path3643-9" inkscape:connector-curvature="0"/>
    </g>
    <g transform="translate(-190.88215,-486.18884)" id="g3887">
      <path style="fill:#000000;fill-opacity:1;stroke:none" id="path3634-8" inkscape:connector-curvature="0" d="m 589.3593,537.8102 c 2.3465,-3.59715 -18.77114,-17.21261 -30.34427,-19.09846 -25.42702,-4.14889 -69.98106,15.68982 -104.9572,26.74386 -37.12555,11.73317 -108.01744,28.96584 -112.08446,67.18182 6.9248,8.15554 55.03111,-32.61144 108.57045,-52.27675 37.18598,-13.65863 67.44333,-28.94504 104.17085,-34.86644 12.10008,-1.95074 32.44169,15.69259 34.64463,12.31597 z"/>
      <path style="fill:#000000;fill-opacity:1;stroke:none" id="path3634-8-7" inkscape:connector-curvature="0" d="m 25.89978,537.8102 c -2.3465,-3.59715 18.77114,-17.21261 30.34427,-19.09846 25.42702,-4.14889 69.98106,15.68982 104.9572,26.74386 37.12555,11.73317 108.01744,28.96584 112.08446,67.18182 -6.9248,8.15554 -55.03111,-32.61144 -108.57045,-52.27675 C 127.52928,546.70204 97.27193,531.41563 60.54441,525.49423 48.44433,523.54349 28.10272,541.18682 25.89978,537.8102 z"/>
    </g>
  </g>
  <path style="opacity:0.07999998;fill:#d9c6ed;fill-opacity:1;stroke:none" id="rect3256-3" inkscape:connector-curvature="0" d="m 14.89831,8.7395363 c -3.242433,0 -5.8437503,2.7674997 -5.8437503,6.1874997 l 0,49.0625 C 27.878614,50.130638 54.866224,40.195879 86.96081,42.208286 l 0,-27.28125 c 0,-3.420001 -2.63257,-6.1874997 -5.875,-6.1874997 l -66.1875,0 z"/>
  <g id="layer1" style="display:inline">
    <path d="M 12,6 C 8.676,6 6,8.676 6,12 l 0,72 c 0,3.324 2.676,6 6,6 l 72,0 c 3.324,0 6,-2.676 6,-6 L 90,12 C 90,8.676 87.324,6 84,6 L 12,6 z m 5,7 62,0 c 2.216001,0 4,1.784 4,4 l 0,62 c 10e-7,2.216001 -1.784,4 -4,4 l -62,0 c -2.215999,10e-7 -4,-1.784 -4,-4 l 0,-62 c 0,-2.215999 1.784,-4 4,-4 z" inkscape:connector-curvature="0" id="rect2419" style="fill:url(#linearGradient4094);fill-opacity:1;fill-rule:nonzero;stroke:none"/>
    <path d="M 12,6 C 8.676,6 6,8.676 6,12 l 0,2 0,68 0,2 c 0,0.334721 0.04135,0.6507 0.09375,0.96875 0.0487,0.295596 0.09704,0.596915 0.1875,0.875 0.00988,0.03038 0.020892,0.0636 0.03125,0.09375 0.098865,0.287771 0.2348802,0.547452 0.375,0.8125 0.1445918,0.273507 0.3156161,0.535615 0.5,0.78125 0.1843839,0.245635 0.3737765,0.473472 0.59375,0.6875 0.439947,0.428056 0.94291,0.814526 1.5,1.09375 0.278545,0.139612 0.5734731,0.246947 0.875,0.34375 -0.2562018,-0.100222 -0.4867109,-0.236272 -0.71875,-0.375 -0.00741,-0.0044 -0.023866,0.0045 -0.03125,0 -0.031933,-0.0193 -0.062293,-0.04251 -0.09375,-0.0625 -0.120395,-0.0767 -0.2310226,-0.163513 -0.34375,-0.25 -0.1061728,-0.0808 -0.2132809,-0.161112 -0.3125,-0.25 C 8.4783201,88.557317 8.3087904,88.373362 8.15625,88.1875 8.0486711,88.057245 7.9378561,87.922215 7.84375,87.78125 7.818661,87.74287 7.805304,87.69538 7.78125,87.65625 7.716487,87.553218 7.6510225,87.451733 7.59375,87.34375 7.4927417,87.149044 7.3880752,86.928049 7.3125,86.71875 7.30454,86.69694 7.288911,86.6782 7.28125,86.65625 7.2494249,86.5643 7.2454455,86.469419 7.21875,86.375 7.1884177,86.268382 7.1483606,86.171969 7.125,86.0625 7.0521214,85.720988 7,85.364295 7,85 L 7,83 7,15 7,13 C 7,10.218152 9.2181517,8 12,8 l 2,0 68,0 2,0 c 2.781848,0 5,2.218152 5,5 l 0,2 0,68 0,2 c 0,0.364295 -0.05212,0.720988 -0.125,1.0625 -0.04415,0.206893 -0.08838,0.397658 -0.15625,0.59375 -0.0077,0.02195 -0.0233,0.04069 -0.03125,0.0625 -0.06274,0.173739 -0.138383,0.367449 -0.21875,0.53125 -0.04158,0.0828 -0.07904,0.169954 -0.125,0.25 -0.0546,0.09721 -0.126774,0.18835 -0.1875,0.28125 -0.09411,0.140965 -0.204921,0.275995 -0.3125,0.40625 -0.143174,0.17445 -0.303141,0.346998 -0.46875,0.5 -0.01117,0.0102 -0.01998,0.02115 -0.03125,0.03125 -0.138386,0.125556 -0.285091,0.234436 -0.4375,0.34375 -0.102571,0.07315 -0.204318,0.153364 -0.3125,0.21875 -0.0074,0.0045 -0.02384,-0.0044 -0.03125,0 -0.232039,0.138728 -0.462548,0.274778 -0.71875,0.375 0.301527,-0.0968 0.596455,-0.204138 0.875,-0.34375 0.55709,-0.279224 1.060053,-0.665694 1.5,-1.09375 0.219973,-0.214028 0.409366,-0.441865 0.59375,-0.6875 0.184384,-0.245635 0.355408,-0.507743 0.5,-0.78125 0.14012,-0.265048 0.276135,-0.524729 0.375,-0.8125 0.01041,-0.03078 0.02133,-0.06274 0.03125,-0.09375 0.09046,-0.278085 0.1388,-0.579404 0.1875,-0.875 C 89.95865,84.6507 90,84.334721 90,84 l 0,-2 0,-68 0,-2 C 90,8.676 87.324,6 84,6 L 12,6 z" inkscape:connector-curvature="0" id="rect3728" style="opacity:0.5;fill:url(#linearGradient4096);fill-opacity:1;fill-rule:nonzero;stroke:none"/>
    <path d="m 17,12 c -2.752703,0 -5,2.247297 -5,5 l 0,62 c 0,2.752703 2.247298,5 5,5 l 62,0 c 2.752703,0 5.000001,-2.247297 5,-5 l 0,-62 c 0,-2.752703 -2.247297,-5 -5,-5 l -62,0 z m 0,2 62,0 c 1.679298,0 3,1.320703 3,3 l 0,62 c 10e-7,1.679297 -1.320703,3 -3,3 l -62,0 c -1.679296,0 -3,-1.320703 -3,-3 l 0,-62 c 0,-1.679297 1.320703,-3 3,-3 z" inkscape:connector-curvature="0" id="rect3425" style="fill:url(#linearGradient4098);fill-opacity:1;fill-rule:nonzero;stroke:none"/>
    <path d="M 12,90 C 8.676,90 6,87.324 6,84 L 6,82 6,14 6,12 c 0,-0.334721 0.04135,-0.6507 0.09375,-0.96875 0.0487,-0.295596 0.09704,-0.596915 0.1875,-0.875 C 6.29113,10.12587 6.302142,10.09265 6.3125,10.0625 6.411365,9.774729 6.5473802,9.515048 6.6875,9.25 6.8320918,8.976493 7.0031161,8.714385 7.1875,8.46875 7.3718839,8.223115 7.5612765,7.995278 7.78125,7.78125 8.221197,7.353194 8.72416,6.966724 9.28125,6.6875 9.559795,6.547888 9.8547231,6.440553 10.15625,6.34375 9.9000482,6.443972 9.6695391,6.580022 9.4375,6.71875 c -0.00741,0.0044 -0.023866,-0.0045 -0.03125,0 -0.031933,0.0193 -0.062293,0.04251 -0.09375,0.0625 -0.120395,0.0767 -0.2310226,0.163513 -0.34375,0.25 -0.1061728,0.0808 -0.2132809,0.161112 -0.3125,0.25 C 8.4783201,7.442683 8.3087904,7.626638 8.15625,7.8125 8.0486711,7.942755 7.9378561,8.077785 7.84375,8.21875 7.818661,8.25713 7.805304,8.30462 7.78125,8.34375 7.716487,8.446782 7.6510225,8.548267 7.59375,8.65625 7.4927417,8.850956 7.3880752,9.071951 7.3125,9.28125 7.30454,9.30306 7.288911,9.3218 7.28125,9.34375 7.2494249,9.4357 7.2454455,9.530581 7.21875,9.625 7.1884177,9.731618 7.1483606,9.828031 7.125,9.9375 7.0521214,10.279012 7,10.635705 7,11 l 0,2 0,68 0,2 c 0,2.781848 2.2181517,5 5,5 l 2,0 68,0 2,0 c 2.781848,0 5,-2.218152 5,-5 l 0,-2 0,-68 0,-2 C 89,10.635705 88.94788,10.279012 88.875,9.9375 88.83085,9.730607 88.78662,9.539842 88.71875,9.34375 88.71105,9.3218 88.69545,9.30306 88.6875,9.28125 88.62476,9.107511 88.549117,8.913801 88.46875,8.75 88.42717,8.6672 88.38971,8.580046 88.34375,8.5 88.28915,8.40279 88.216976,8.31165 88.15625,8.21875 88.06214,8.077785 87.951329,7.942755 87.84375,7.8125 87.700576,7.63805 87.540609,7.465502 87.375,7.3125 87.36383,7.3023 87.35502,7.29135 87.34375,7.28125 87.205364,7.155694 87.058659,7.046814 86.90625,6.9375 86.803679,6.86435 86.701932,6.784136 86.59375,6.71875 c -0.0074,-0.0045 -0.02384,0.0044 -0.03125,0 -0.232039,-0.138728 -0.462548,-0.274778 -0.71875,-0.375 0.301527,0.0968 0.596455,0.204138 0.875,0.34375 0.55709,0.279224 1.060053,0.665694 1.5,1.09375 0.219973,0.214028 0.409366,0.441865 0.59375,0.6875 0.184384,0.245635 0.355408,0.507743 0.5,0.78125 0.14012,0.265048 0.276135,0.524729 0.375,0.8125 0.01041,0.03078 0.02133,0.06274 0.03125,0.09375 0.09046,0.278085 0.1388,0.579404 0.1875,0.875 C 89.95865,11.3493 90,11.665279 90,12 l 0,2 0,68 0,2 c 0,3.324 -2.676,6 -6,6 l -72,0 z" inkscape:connector-curvature="0" id="path3615" style="opacity:0.4;fill:url(#radialGradient4100);fill-opacity:1;fill-rule:nonzero;stroke:none"/>
    <rect width="66" height="66" rx="12" ry="12" x="15" y="15" clip-path="url(#clipPath3613-5)" id="rect3171" style="opacity:0.1;fill:url(#linearGradient4102);fill-opacity:1;fill-rule:nonzero;stroke:#ffffff;stroke-width:0.5;stroke-linecap:round;stroke-linejoin:miter;stroke-miterlimit:4;stroke-opacity:1;stroke-dasharray:none;stroke-dashoffset:0;filter:url(#filter3794-2)"/>
  </g>
</svg>