<?xml version="1.0" encoding="UTF-8"?>
<svg width="128" height="128" version="1.0" xmlns="http://www.w3.org/2000/svg" xmlns:xlink="http://www.w3.org/1999/xlink">
 <defs>
  <radialGradient id="a" cx="69.8" cy="61.5" r="39.4" gradientTransform="matrix(1 0 0 .962 2.4e-5 3.58)" gradientUnits="userSpaceOnUse">
   <stop stop-color="#3ee800" offset="0"/>
   <stop stop-color="#390" offset="1"/>
  </radialGradient>
  <linearGradient id="d" x1="71.4" x2="71.4" y1="12.9" y2="70.9" gradientUnits="userSpaceOnUse">
   <stop stop-color="#fff" offset="0"/>
   <stop stop-color="#fff" stop-opacity="0" offset="1"/>
  </linearGradient>
  <filter id="e" x="-.096" y="-.096" width="1.19" height="1.19">
   <feGaussianBlur stdDeviation="3.1531088"/>
  </filter>
  <linearGradient id="b" x1="52.6" x2="52.6" y1="27.8" y2="48.3" gradientTransform="scale(1.46 .683)" gradientUnits="userSpaceOnUse">
   <stop stop-color="#fff" stop-opacity=".9" offset="0"/>
   <stop stop-color="#fff" stop-opacity="0" offset="1"/>
  </linearGradient>
  <radialGradient id="c" cx="87.5" cy="27" r="40.5" gradientUnits="userSpaceOnUse">
   <stop stop-color="#ffffe0" offset="0"/>
   <stop stop-color="#fff04a" offset=".4"/>
   <stop stop-color="#f5a000" offset="1"/>
  </radialGradient>
 </defs>
 <g>
  <path transform="matrix(1.62 0 0 1.62 -49.4 -37.9)" d="m109 62.7a39.4 39.4 0 1 1-78.8 0 39.4 39.4 0 1 1 78.8 0z" fill="#015a01"/>
  <path transform="matrix(1.42 1.01e-7 0 1.42 -35.2 -25.1)" d="m109 62.7a39.4 39.4 0 1 1-78.8 0 39.4 39.4 0 1 1 78.8 0z" fill="url(#a)" filter="url(#e)"/>
  <path transform="matrix(1.75 0 0 1.75 -45.8 -58.2)" d="m76.3 69.7a13.7 13.7 0 1 1-27.4 0 13.7 13.7 0 1 1 27.4 0z" fill="#015a01" opacity=".8"/>
  <path transform="matrix(1.43 0 0 1.31 -38 -18.2)" d="m105 44.5a33.6 24.5 0 1 1-67.2 0 33.6 24.5 0 1 1 67.2 0z" fill="url(#d)"/>
 </g>
 <g transform="translate(10,-10)">
  <circle cx="92" cy="36" r="26" fill="#f5a000"/>
  <circle cx="92" cy="36" r="22.5" fill="url(#c)"/>
  <ellipse cx="92" cy="26" rx="15" ry="7" fill="url(#b)" opacity=".85"/>
 </g>
</svg>
