<?xml version="1.0" encoding="UTF-8"?>
<svg width="128" height="128" version="1.0" xmlns="http://www.w3.org/2000/svg" xmlns:xlink="http://www.w3.org/1999/xlink">
 <defs>
  <linearGradient id="d">
   <stop offset="0"/>
   <stop stop-opacity="0" offset="1"/>
  </linearGradient>
  <linearGradient id="e">
   <stop stop-color="#a1a1a1" offset="0"/>
   <stop stop-color="#a1a1a1" stop-opacity="0" offset="1"/>
  </linearGradient>
  <linearGradient id="f">
   <stop stop-color="#909090" offset="0"/>
   <stop stop-opacity="0" offset="1"/>
  </linearGradient>
  <linearGradient id="n">
   <stop stop-color="#c1c1c1" offset="0"/>
   <stop stop-color="#c1c1c1" stop-opacity="0" offset="1"/>
  </linearGradient>
  <linearGradient id="o">
   <stop stop-color="#fff" stop-opacity=".664" offset="0"/>
   <stop stop-color="#fff" offset=".258"/>
   <stop stop-color="#fff" stop-opacity="0" offset="1"/>
  </linearGradient>
  <linearGradient id="a">
   <stop stop-color="#fff" offset="0"/>
   <stop stop-color="#aeaeae" offset="1"/>
  </linearGradient>
  <linearGradient id="z" x1="56.9" x2="48.1" y1="109" y2="118" gradientTransform="matrix(.707 .707 -.707 .707 53 -2.27)" gradientUnits="userSpaceOnUse" xlink:href="#f"/>
  <linearGradient id="k" x1="24.9" x2="50.3" y1="102" y2="102" gradientTransform="translate(-.629 -4.31)" gradientUnits="userSpaceOnUse" xlink:href="#a"/>
  <linearGradient id="j" x1="-23.2" x2="-20.2" y1="-64.6" y2="-13.3" gradientTransform="matrix(.267 0 0 .147 52.7 101)" gradientUnits="userSpaceOnUse" xlink:href="#a"/>
  <linearGradient id="i" x1="-23.2" x2="-20.2" y1="-64.6" y2="-13.3" gradientTransform="matrix(.231 0 0 .147 51.7 103)" gradientUnits="userSpaceOnUse" xlink:href="#a"/>
  <linearGradient id="h" x1="-23.2" x2="-20.2" y1="-64.6" y2="-13.3" gradientTransform="matrix(.204 0 0 .147 51 106)" gradientUnits="userSpaceOnUse" xlink:href="#a"/>
  <linearGradient id="g" x1="-23.2" x2="-20.2" y1="-64.6" y2="-13.3" gradientTransform="matrix(.178 0 0 .147 50.3 108)" gradientUnits="userSpaceOnUse" xlink:href="#a"/>
  <linearGradient id="y" x1="28.3" x2="86.1" y1="46" y2="129" gradientTransform="matrix(.707 .707 -.707 .707 60.1 4.82)" gradientUnits="userSpaceOnUse" xlink:href="#a"/>
  <linearGradient id="c" x1="50.2" x2="50.2" y1="55.3" y2="50.1" gradientUnits="userSpaceOnUse" xlink:href="#o"/>
  <linearGradient id="b" x1="26.2" x2="26.2" y1="47.3" y2="51.3" gradientUnits="userSpaceOnUse" xlink:href="#n"/>
  <linearGradient id="x" x1="56.9" x2="48.1" y1="109" y2="118" gradientTransform="matrix(-.707 -.707 .707 -.707 74.3 136)" gradientUnits="userSpaceOnUse" xlink:href="#f"/>
  <linearGradient id="w" x1="28.3" x2="86.1" y1="46" y2="129" gradientTransform="matrix(-.707 -.707 .707 -.707 67.2 129)" gradientUnits="userSpaceOnUse" xlink:href="#a"/>
  <linearGradient id="v" x1="30.8" x2="39.1" y1="67.3" y2="67.3" gradientTransform="matrix(-.707 -.707 .707 -.707 39 172)" gradientUnits="userSpaceOnUse" xlink:href="#e"/>
  <linearGradient id="u" x1="57.7" x2="57.7" y1="96.8" y2="86.4" gradientTransform="matrix(-.707 -.707 .707 -.707 74.8 137)" gradientUnits="userSpaceOnUse">
   <stop stop-color="#fff" offset="0"/>
   <stop stop-color="#fff" stop-opacity="0" offset="1"/>
  </linearGradient>
  <linearGradient id="t" x1="25.9" x2="35.3" y1="67.4" y2="67.4" gradientTransform="matrix(-.707 -.707 .707 -.707 74.8 137)" gradientUnits="userSpaceOnUse" xlink:href="#e"/>
  <linearGradient id="s" x1="90.8" x2="73.1" y1="75.3" y2="88.8" gradientUnits="userSpaceOnUse" xlink:href="#d"/>
  <linearGradient id="r" x1="30.6" x2="41.6" y1="66.6" y2="67.3" gradientTransform="matrix(-.707 -.707 .707 -.707 74.6 137)" gradientUnits="userSpaceOnUse" xlink:href="#e"/>
  <linearGradient id="q" x1="75.8" x2="67.8" y1="70.2" y2="79.3" gradientTransform="matrix(-1 0 0 -1 127 134)" gradientUnits="userSpaceOnUse" xlink:href="#d"/>
  <linearGradient id="p" x1="75.8" x2="67.8" y1="70.2" y2="79.3" gradientTransform="matrix(-1 0 0 -1 92.6 170)" gradientUnits="userSpaceOnUse" xlink:href="#d"/>
  <linearGradient id="m" x1="71.4" x2="71.4" y1="12.9" y2="70.9" gradientTransform="matrix(1.43 0 0 1.31 73.8 86.6)" gradientUnits="userSpaceOnUse">
   <stop stop-color="#fff" offset="0"/>
   <stop stop-color="#fff" stop-opacity="0" offset="1"/>
  </linearGradient>
  <radialGradient id="l" cx="69.8" cy="61.5" r="39.4" gradientTransform="matrix(1 0 0 .962 2.4e-5 3.58)" gradientUnits="userSpaceOnUse">
   <stop stop-color="#3ee800" offset="0"/>
   <stop stop-color="#390" offset="1"/>
  </radialGradient>
  <filter id="aa" x="-.096" y="-.096" width="1.19" height="1.19">
   <feGaussianBlur stdDeviation="3.1531088"/>
  </filter>
 </defs>
 <g transform="matrix(.96 0 0 .958 -105 -97.7)">
  <circle cx="176" cy="169" r="64" fill="#015a01"/>
  <circle transform="matrix(1.42 1.01e-7 0 1.42 76.5 79.6)" cx="69.8" cy="62.7" r="39.4" fill="url(#l)" filter="url(#aa)"/>
  <ellipse cx="176" cy="145" rx="48" ry="32" fill="url(#m)"/>
 </g>
 <g transform="matrix(.985 0 0 1.02 1.31 -2.58)">
  <path d="m50.9 3.28v-2.79 2.79z" fill="#fff" fill-opacity=".757"/>
  <path d="m20.2 110c-4.84 5.64-10.9 10.4-18.7 4.77" fill="none" stroke="url(#z)" stroke-linecap="round" stroke-linejoin="round" stroke-width="5.5"/>
  <g transform="matrix(.707 .707 -.707 .707 60.6 5.31)">
   <path d="m37.4 92.4 4.25 10.3h7.64l4.25-10.3h-5.9-4.35-5.9z" fill="url(#k)" fill-rule="evenodd"/>
   <rect x="36.7" y="92.5" width="17.7" height="1.95" rx=".708" ry=".872" fill="url(#j)"/>
   <rect x="37.9" y="95.2" width="15.3" height="1.95" rx=".634" ry=".788" fill="url(#i)"/>
   <rect x="38.7" y="97.7" width="13.5" height="1.95" rx=".61" ry=".679" fill="url(#h)"/>
   <rect x="39.6" y="100" width="11.8" height="1.95" rx=".576" ry=".611" fill="url(#g)"/>
  </g>
  <path d="m49.3 53 28.7 28.7c2.04 2.04 2.05 5.32 0.0176 7.36l-28 28c-2.03 2.03-5.03 1.68-7.36-0.0176-11.1-8.08-20.5-17.6-28.7-28.7-1.71-2.32-2.05-5.32-0.0176-7.36l28-28c2.03-2.03 5.31-2.02 7.36 0.0176z" fill="#777" stroke="#777" stroke-dashoffset="4" stroke-linecap="round" stroke-linejoin="round" stroke-width="3.98"/>
  <path d="m49.3 53.5 28 28c2 2 2 5.21 1e-5 7.21l-27.5 27.5c-2 2-4.93 1.66-7.21 1e-5 -10.8-7.89-20.1-17.2-28-28-1.67-2.27-2-5.21-1.1e-5 -7.21l27.5-27.5c2-2 5.21-2 7.21-1.1e-5z" fill="url(#y)"/>
  <g transform="matrix(.707 .707 -.707 .707 60.1 4.82)">
   <rect x="26.2" y="47.3" width="39.9" height="7.98" rx="3.99" ry="3.99" fill="url(#c)"/>
   <rect x="26.2" y="47.3" width="39.9" height="7.98" rx="3.99" ry="3.99" fill="url(#b)"/>
  </g>
  <g transform="matrix(.707 .707 -.707 .707 50.4 14.5)">
   <rect x="26.2" y="47.3" width="39.9" height="7.98" rx="3.99" ry="3.99" fill="url(#c)"/>
   <rect x="26.2" y="47.3" width="39.9" height="7.98" rx="3.99" ry="3.99" fill="url(#b)"/>
  </g>
  <g transform="matrix(.707 .707 -.707 .707 40.7 24.2)">
   <rect x="26.2" y="47.3" width="39.9" height="7.98" rx="3.99" ry="3.99" fill="url(#c)"/>
   <rect x="26.2" y="47.3" width="39.9" height="7.98" rx="3.99" ry="3.99" fill="url(#b)"/>
  </g>
  <path d="m107 24.3c4.84-5.64 10.9-10.4 18.7-4.77" fill="none" stroke="url(#x)" stroke-linecap="round" stroke-linejoin="round" stroke-width="5.5"/>
  <g transform="matrix(-.707 -.707 .707 -.707 66.7 129)">
   <path d="m37.4 92.4 4.25 10.3h7.64l4.25-10.3h-5.9-4.35-5.9z" fill="url(#k)" fill-rule="evenodd"/>
   <rect x="36.7" y="92.5" width="17.7" height="1.95" rx=".708" ry=".872" fill="url(#j)"/>
   <rect x="37.9" y="95.2" width="15.3" height="1.95" rx=".634" ry=".788" fill="url(#i)"/>
   <rect x="38.7" y="97.7" width="13.5" height="1.95" rx=".61" ry=".679" fill="url(#h)"/>
   <rect x="39.6" y="100" width="11.8" height="1.95" rx=".576" ry=".611" fill="url(#g)"/>
  </g>
  <path d="m77.9 81.1-28.7-28.7c-2.04-2.04-2.05-5.32-0.0176-7.36l28-28c2.03-2.03 5.03-1.68 7.36 0.0176 11.1 8.08 20.5 17.6 28.7 28.7 1.71 2.32 2.05 5.32 0.0176 7.36l-28 28c-2.03 2.03-5.31 2.02-7.36-0.0176z" fill="#777" stroke="#777" stroke-dashoffset="4" stroke-linecap="round" stroke-linejoin="round" stroke-width="3.98"/>
  <path d="m78 80.6-28-28c-2-2-2-5.21-1e-5 -7.21l27.5-27.5c2-2 4.93-1.66 7.21-1e-5 10.8 7.89 20.1 17.2 28 28 1.67 2.27 2 5.21 1e-5 7.21l-27.5 27.5c-2 2-5.21 2-7.21 1.1e-5z" fill="url(#w)"/>
  <path d="m42.1 116c-13.6-13.6 28.4-43.1 35.4-34.8 1.86 2.2 2.05 5.32 0.0176 7.36l-28 28c-2.03 2.03-5.39 1.46-7.43-0.585z" fill="url(#v)"/>
  <g transform="translate(-1.79e-5 -2.84e-5)">
   <g transform="matrix(.707 .707 -.707 .707 75.7 -9.64)">
    <rect x="26.2" y="47.3" width="39.9" height="7.98" rx="3.99" ry="3.99" fill="url(#c)"/>
    <rect x="26.2" y="47.3" width="39.9" height="7.98" rx="3.99" ry="3.99" fill="url(#b)"/>
   </g>
   <g transform="matrix(.707 .707 -.707 .707 85.4 -19.3)">
    <rect x="26.2" y="47.3" width="39.9" height="7.98" rx="3.99" ry="3.99" fill="url(#c)"/>
    <rect x="26.2" y="47.3" width="39.9" height="7.98" rx="3.99" ry="3.99" fill="url(#b)"/>
   </g>
   <g transform="matrix(.707 .707 -.707 .707 95.2 -29.1)">
    <rect x="26.2" y="47.3" width="39.9" height="7.98" rx="3.99" ry="3.99" fill="url(#c)"/>
    <rect x="26.2" y="47.3" width="39.9" height="7.98" rx="3.99" ry="3.99" fill="url(#b)"/>
   </g>
  </g>
  <path d="m77.3 17.1c2.03-2.03 5.03-1.68 7.36 0.0176 11.1 8.08 20.5 17.6 28.7 28.7 1.71 2.32 2.05 5.32 0.0176 7.36l-36-36z" fill="url(#u)"/>
  <path d="m79.3 79.7 33.9-33.9c2.04-2.04 2.05 5.32 0.0176 7.36l-28 28c-2.03 2.03-7.98 0.609-5.94-1.43z" fill="url(#t)"/>
  <path d="m49.3 53.5 28 28c2 2 2 5.21 1e-5 7.21l-3.93 3.95-35.2-35.2 3.93-3.95c2-2 5.21-2 7.21-1.1e-5z" fill="url(#s)"/>
  <path d="m77.5 80.5-5.95-5.99c12.7-14.8 23.1-22.7 37-34.6l4.37 5.77c1.74 2.3 2.28 5.15 0.246 7.18l-28 28c-2.03 2.03-5.62 1.63-7.66-0.414z" fill="url(#r)"/>
  <path d="m77.8 80.5-28-28c-2-2-2-5.21-1e-5 -7.21l3.93-3.95 35.2 35.2-3.93 3.95c-2 2-5.21 2-7.21 1.1e-5z" fill="url(#q)"/>
  <path d="m43.1 117c-11.3-7.96-20.8-17.7-29.1-28.7-2-2-1.23-5.53 0.766-7.53l3.93-3.95 35.7 35.9-3.93 3.95c-2 2-5.29 1.73-7.41 0.242z" fill="url(#p)"/>
 </g>
</svg>
