<?xml version="1.0" encoding="UTF-8"?>
<svg width="128" height="128" version="1.0" xmlns="http://www.w3.org/2000/svg" xmlns:xlink="http://www.w3.org/1999/xlink">
 <defs>
  <radialGradient id="a" cx="69.8" cy="61.5" r="39.4" gradientTransform="matrix(1 0 0 .962 2.4e-5 3.58)" gradientUnits="userSpaceOnUse">
   <stop stop-color="#ff8181" offset="0"/>
   <stop stop-color="#d40000" offset="1"/>
  </radialGradient>
  <linearGradient id="b" x1="71.4" x2="71.4" y1="12.9" y2="70.9" gradientUnits="userSpaceOnUse">
   <stop stop-color="#fff" offset="0"/>
   <stop stop-color="#fff" stop-opacity="0" offset="1"/>
  </linearGradient>
  <filter id="d">
   <feGaussianBlur stdDeviation="3.1531088"/>
  </filter>
  <linearGradient id="c" x1="56.2" x2="57" y1="48" y2="64" gradientUnits="userSpaceOnUse">
   <stop stop-color="#d5d5d5" offset="0"/>
   <stop stop-color="#d5d5d5" offset=".5"/>
   <stop stop-color="#fff" offset="1"/>
  </linearGradient>
 </defs>
 <g>
  <path transform="matrix(1.62 0 0 1.62 -49.4 -37.9)" d="m109 62.7a39.4 39.4 0 1 1-78.8 0 39.4 39.4 0 1 1 78.8 0z" fill="#980101"/>
  <path transform="matrix(1.42 1.01e-7 0 1.42 -35.2 -25.1)" d="m109 62.7a39.4 39.4 0 1 1-78.8 0 39.4 39.4 0 1 1 78.8 0z" fill="url(#a)" filter="url(#d)"/>
  <path transform="matrix(1.43 0 0 1.31 -38 -18.2)" d="m105 44.5a33.6 24.5 0 1 1-67.2 0 33.6 24.5 0 1 1 67.2 0z" fill="url(#b)"/>
  <rect x="24" y="48" width="80" height="32" fill="url(#c)"/>
 </g>
</svg>
