<?xml version="1.0" encoding="UTF-8"?>
<svg width="128" height="128" version="1.0" xmlns="http://www.w3.org/2000/svg" xmlns:xlink="http://www.w3.org/1999/xlink">
 <defs>
  <linearGradient id="c" x1="28" x2="28" y1="66.5" y2="16.7" gradientTransform="matrix(2.23 0 0 1.99 -36.8 -17.2)" gradientUnits="userSpaceOnUse">
   <stop stop-color="#c8c8c8" offset="0"/>
   <stop stop-color="#e4e4e4" offset="1"/>
  </linearGradient>
  <radialGradient id="b" cx="64" cy="60.1" r="32" gradientTransform="matrix(1.93 0 0 1.75 -59.2 -41.4)" gradientUnits="userSpaceOnUse">
   <stop offset="0"/>
   <stop stop-color="#7c7c7c" offset="1"/>
  </radialGradient>
  <radialGradient id="a" cx="64" cy="44.2" r="28" gradientTransform="matrix(3.37 0 0 1.18 -152 -17.5)" gradientUnits="userSpaceOnUse" spreadMethod="reflect">
   <stop stop-color="#fff" offset="0"/>
   <stop stop-color="#fff" stop-opacity="0" offset="1"/>
  </radialGradient>
  <filter id="d">
   <feGaussianBlur stdDeviation="1.7630909"/>
  </filter>
 </defs>
 <g fill="none" stroke-linecap="round" stroke-linejoin="round">
  <path d="m90 59.1v32.6c0 30.1-52 30.1-52 0v-59.7c0-24.1 36.2-24.1 36.2 0v40.6c-13.3 18.1-6.75 18.1-20 0v-10.5" filter="url(#d)" opacity=".6" stroke="url(#b)" stroke-width="12"/>
  <path d="m90 59.1v32.6c0 30.1-52 30.1-52 0v-59.7c0-24.1 36.2-24.1 36.2 0v40.6c-13.3 18.1-6.75 18.1-20 0v-10.5" stroke="url(#c)" stroke-width="4"/>
  <path d="m90 59.1v32.6c0 30.1-52 30.1-52 0v-59.7c0-24.1 36.2-24.1 36.2 0v40.6c-13.3 18.1-6.75 18.1-20 0v-10.5" stroke="url(#a)" stroke-width="4"/>
 </g>
</svg>
