<?xml version="1.0" encoding="UTF-8"?>
<svg width="128" height="128" version="1.0" xmlns="http://www.w3.org/2000/svg" xmlns:xlink="http://www.w3.org/1999/xlink">
 <defs>
  <linearGradient id="a">
   <stop stop-color="#fff" offset="0"/>
   <stop stop-color="#fff" stop-opacity="0" offset="1"/>
  </linearGradient>
  <linearGradient id="d" x1="71.4" x2="71.4" y1="12.9" y2="81.3" gradientUnits="userSpaceOnUse" xlink:href="#a"/>
  <filter id="g">
   <feGaussianBlur stdDeviation="3.1531088"/>
  </filter>
  <radialGradient id="c" cx="69.8" cy="62.7" r="39.4" gradientUnits="userSpaceOnUse">
   <stop stop-opacity="0" offset="0"/>
   <stop stop-color="#161616" stop-opacity="0" offset=".755"/>
   <stop stop-color="#212121" stop-opacity=".847" offset=".956"/>
   <stop stop-color="#2d2d2d" offset="1"/>
  </radialGradient>
  <linearGradient id="f" x1="71.4" x2="71.4" y1="12.9" y2="81.3" gradientTransform="matrix(1.43 0 0 1.31 -37.9 -18.3)" gradientUnits="userSpaceOnUse" xlink:href="#a"/>
  <radialGradient id="b" cx="62.6" cy="73.7" r="14.6" gradientTransform="matrix(1.01 .0217 -.0215 1 .733 -1.34)" gradientUnits="userSpaceOnUse">
   <stop stop-color="#27ac2a" offset="0"/>
   <stop stop-color="#526452" offset="1"/>
  </radialGradient>
  <linearGradient id="e" x1="69.8" x2="69.8" y1="107" y2="67" gradientUnits="userSpaceOnUse">
   <stop offset="0"/>
   <stop stop-opacity="0" offset="1"/>
  </linearGradient>
  <filter id="h">
   <feGaussianBlur stdDeviation="0.029277339"/>
  </filter>
 </defs>
 <g>
  <path transform="matrix(1.62 0 0 1.62 -49.4 -37.9)" d="m109 62.7a39.4 39.4 0 1 1-78.8 0 39.4 39.4 0 1 1 78.8 0z" fill="url(#c)"/>
  <path transform="matrix(1.42 1.01e-7 0 1.42 -35.2 -25.1)" d="m109 62.7a39.4 39.4 0 1 1-78.8 0 39.4 39.4 0 1 1 78.8 0z" fill="url(#e)" filter="url(#g)" opacity=".41"/>
  <path transform="matrix(1.57 0 0 1.57 -34.3 -45.5)" d="m76.3 69.7a13.7 13.7 0 1 1-27.4 0 13.7 13.7 0 1 1 27.4 0z" fill="url(#b)" filter="url(#h)" stroke="#1b391c" stroke-miterlimit="0" stroke-width="1.9"/>
  <path transform="matrix(1.43 0 0 1.31 -38 -18.2)" d="m105 44.5c0 13.5-15 24.5-33.6 24.5-18.5 0-33.6-11-33.6-24.5 0-13.5 15-24.5 33.6-24.5 18.5 0 33.6 11 33.6 24.5z" fill="url(#d)"/>
  <path d="m16.1 39c-0.01 0.269-0.0312 0.542-0.0312 0.812 0 17.7 21.5 32 48 32 26.5 0 48-14.3 48-32 0-0.271-0.0212-0.543-0.0312-0.812-0.633 17.3-21.9 31.2-48 31.2-26.1 1e-6 -47.3-13.9-48-31.2z" fill="url(#f)"/>
 </g>
</svg>
