<?xml version="1.0" encoding="UTF-8"?>
<svg width="128" height="128" version="1.0" xmlns="http://www.w3.org/2000/svg" xmlns:xlink="http://www.w3.org/1999/xlink">
 <defs>
  <radialGradient id="a" cx="69.8" cy="61.5" r="39.4" gradientTransform="matrix(1 0 0 .962 2.4e-5 3.58)" gradientUnits="userSpaceOnUse">
   <stop stop-color="#eee" offset="0"/>
   <stop stop-color="#aaa" offset="1"/>
  </radialGradient>
  <linearGradient id="b" x1="71.4" x2="71.4" y1="12.9" y2="70.9" gradientUnits="userSpaceOnUse">
   <stop stop-color="#fff" offset="0"/>
   <stop stop-color="#fff" stop-opacity="0" offset="1"/>
  </linearGradient>
  <filter id="c">
   <feGaussianBlur stdDeviation="3.1531088"/>
  </filter>
 </defs>
 <g>
  <path transform="matrix(1.62 0 0 1.62 -49.4 -37.9)" d="m109 62.7a39.4 39.4 0 1 1-78.8 0 39.4 39.4 0 1 1 78.8 0z" fill="#666"/>
  <path transform="matrix(1.42 1.01e-7 0 1.42 -35.2 -25.1)" d="m109 62.7a39.4 39.4 0 1 1-78.8 0 39.4 39.4 0 1 1 78.8 0z" fill="url(#a)" filter="url(#c)"/>
  <path transform="matrix(1.43 0 0 1.31 -38 -18.2)" d="m105 44.5a33.6 24.5 0 1 1-67.2 0 33.6 24.5 0 1 1 67.2 0z" fill="url(#b)"/>
  <path d="m102 76.7c-3.97 11.9-13.4 21.3-25.3 25.3l-5.06-15.2c7.14-2.38 12.8-8.02 15.2-15.2l15.2 5.06zm0-25.3-15.2 5.06c-2.38-7.14-8.02-12.8-15.2-15.2l5.06-15.2c11.9 3.97 21.3 13.4 25.3 25.3zm-45.5 35.4-5.06 15.2c-11.9-3.97-21.3-13.4-25.3-25.3l15.2-5.06c2.38 7.14 8.02 12.8 15.2 15.2zm0-45.5c-7.14 2.38-12.8 8.02-15.2 15.2l-15.2-5.06c3.97-11.9 13.4-21.3 25.3-25.3l5.06 15.2z" fill="#333" opacity=".8"/>
 </g>
</svg>
