<?xml version="1.0" encoding="UTF-8" standalone="no"?>
<!-- Created with Inkscape (http://www.inkscape.org/) -->

<svg
   xmlns:dc="http://purl.org/dc/elements/1.1/"
   xmlns:cc="http://creativecommons.org/ns#"
   xmlns:rdf="http://www.w3.org/1999/02/22-rdf-syntax-ns#"
   xmlns:svg="http://www.w3.org/2000/svg"
   xmlns="http://www.w3.org/2000/svg"
   xmlns:xlink="http://www.w3.org/1999/xlink"
   xmlns:sodipodi="http://sodipodi.sourceforge.net/DTD/sodipodi-0.dtd"
   xmlns:inkscape="http://www.inkscape.org/namespaces/inkscape"
   version="1.0"
   width="96"
   height="96"
   id="svg2408"
   inkscape:version="0.48.2 r9819"
   sodipodi:docname="p100q.svg"
   inkscape:export-filename="/home/buckstabu/Dropbox/Public/lcicons/lcproto_poshuku.png"
   inkscape:export-xdpi="90"
   inkscape:export-ydpi="90">
  <sodipodi:namedview
     pagecolor="#ffffff"
     bordercolor="#666666"
     borderopacity="1"
     objecttolerance="10"
     gridtolerance="10"
     guidetolerance="10"
     inkscape:pageopacity="0"
     inkscape:pageshadow="2"
     inkscape:window-width="1920"
     inkscape:window-height="1145"
     id="namedview68"
     showgrid="false"
     inkscape:zoom="4.7140452"
     inkscape:cx="113.96563"
     inkscape:cy="12.427081"
     inkscape:window-x="1678"
     inkscape:window-y="32"
     inkscape:window-maximized="1"
     inkscape:current-layer="svg2408" />
  <defs
     id="defs2410">
    <linearGradient
       x1="45.447727"
       y1="92.539597"
       x2="45.447727"
       y2="7.0165396"
       id="ButtonShadow"
       gradientUnits="userSpaceOnUse"
       gradientTransform="scale(1.0058652,0.994169)">
      <stop
         id="stop3750"
         style="stop-color:#000000;stop-opacity:1"
         offset="0" />
      <stop
         id="stop3752"
         style="stop-color:#000000;stop-opacity:0.58823532"
         offset="1" />
    </linearGradient>
    <filter
       color-interpolation-filters="sRGB"
       id="filter3174">
      <feGaussianBlur
         id="feGaussianBlur3176"
         stdDeviation="1.71" />
    </filter>
    <linearGradient
       id="linearGradient3224-6">
      <stop
         id="stop3226-2"
         style="stop-color:#42394b;stop-opacity:1"
         offset="0" />
      <stop
         id="stop3228-1"
         style="stop-color:#000000;stop-opacity:1"
         offset="1" />
    </linearGradient>
    <linearGradient
       id="linearGradient3187-5">
      <stop
         id="stop3189-3"
         style="stop-color:#b4b4b4;stop-opacity:1"
         offset="0" />
      <stop
         id="stop3191-2"
         style="stop-color:#e6e6e6;stop-opacity:1"
         offset="1" />
    </linearGradient>
    <linearGradient
       id="linearGradient3737-9">
      <stop
         id="stop3739-7"
         style="stop-color:#ffffff;stop-opacity:1"
         offset="0" />
      <stop
         id="stop3741-6"
         style="stop-color:#ffffff;stop-opacity:0"
         offset="1" />
    </linearGradient>
    <linearGradient
       id="linearGradient3465-2">
      <stop
         id="stop3467-0"
         style="stop-color:#919191;stop-opacity:1"
         offset="0" />
      <stop
         id="stop3469-6"
         style="stop-color:#fdfdfd;stop-opacity:1"
         offset="1" />
    </linearGradient>
    <linearGradient
       id="linearGradient3737-7-3">
      <stop
         id="stop3739-2-3"
         style="stop-color:#ffffff;stop-opacity:1"
         offset="0" />
      <stop
         id="stop3741-7-6"
         style="stop-color:#ffffff;stop-opacity:0"
         offset="1" />
    </linearGradient>
    <linearGradient
       id="linearGradient3737-4-0">
      <stop
         id="stop3739-8-4"
         style="stop-color:#ffffff;stop-opacity:1"
         offset="0" />
      <stop
         id="stop3741-71-8"
         style="stop-color:#ffffff;stop-opacity:0"
         offset="1" />
    </linearGradient>
    <clipPath
       id="clipPath3613-5">
      <rect
         width="84"
         height="84"
         rx="6"
         ry="6"
         x="6"
         y="6"
         id="rect3615-1"
         style="fill:#ffffff;fill-opacity:1;fill-rule:nonzero;stroke:none" />
    </clipPath>
    <filter
       x="-0.192"
       y="-0.192"
       width="1.3839999"
       height="1.3839999"
       color-interpolation-filters="sRGB"
       id="filter3794-2">
      <feGaussianBlur
         id="feGaussianBlur3796-9"
         stdDeviation="5.28" />
    </filter>
    <linearGradient
       inkscape:collect="always"
       xlink:href="#linearGradient3187-5"
       id="linearGradient4094"
       gradientUnits="userSpaceOnUse"
       x1="48"
       y1="90"
       x2="48"
       y2="5.9877172" />
    <linearGradient
       inkscape:collect="always"
       xlink:href="#linearGradient3737-9"
       id="linearGradient4096"
       gradientUnits="userSpaceOnUse"
       x1="36.357143"
       y1="6"
       x2="36.357143"
       y2="63.893143" />
    <linearGradient
       inkscape:collect="always"
       xlink:href="#linearGradient3465-2"
       id="linearGradient4098"
       gradientUnits="userSpaceOnUse"
       gradientTransform="matrix(1.0294118,0,0,1.0294118,-1.4117647,-1.411765)"
       x1="43.17857"
       y1="13"
       x2="43.17857"
       y2="83.294571" />
    <radialGradient
       inkscape:collect="always"
       xlink:href="#linearGradient3737-7-3"
       id="radialGradient4100"
       gradientUnits="userSpaceOnUse"
       gradientTransform="matrix(1.1573129,0,0,0.99590774,-7.551021,0.1971319)"
       cx="48"
       cy="90.171875"
       fx="48"
       fy="90.171875"
       r="42" />
    <linearGradient
       inkscape:collect="always"
       xlink:href="#linearGradient3737-4-0"
       id="linearGradient4102"
       gradientUnits="userSpaceOnUse"
       x1="48"
       y1="20.220806"
       x2="48"
       y2="138.66119" />
    <radialGradient
       inkscape:collect="always"
       xlink:href="#linearGradient3224-6"
       id="radialGradient4113"
       gradientUnits="userSpaceOnUse"
       gradientTransform="matrix(1.3830053,-1.0350102e-8,0,1.3123934,-17.140614,-23.729195)"
       cx="47.098362"
       cy="78.286942"
       fx="47.098362"
       fy="78.286942"
       r="38.957481" />
    <filter
       id="filter3174-5"
       color-interpolation-filters="sRGB">
      <feGaussianBlur
         stdDeviation="1.71"
         id="feGaussianBlur3176-2" />
    </filter>
    <linearGradient
       gradientTransform="scale(1.0058652,0.994169)"
       gradientUnits="userSpaceOnUse"
       id="ButtonShadow-4"
       y2="7.0165396"
       x2="45.447727"
       y1="92.539597"
       x1="45.447727">
      <stop
         offset="0"
         style="stop-color:#000000;stop-opacity:1"
         id="stop3750-2" />
      <stop
         offset="1"
         style="stop-color:#000000;stop-opacity:0.58823532"
         id="stop3752-2" />
    </linearGradient>
    <filter
       id="filter3174-1"
       color-interpolation-filters="sRGB">
      <feGaussianBlur
         stdDeviation="1.71"
         id="feGaussianBlur3176-6" />
    </filter>
    <linearGradient
       gradientTransform="scale(1.0058652,0.994169)"
       gradientUnits="userSpaceOnUse"
       id="ButtonShadow-9"
       y2="7.0165396"
       x2="45.447727"
       y1="92.539597"
       x1="45.447727">
      <stop
         offset="0"
         style="stop-color:#000000;stop-opacity:1"
         id="stop3750-7" />
      <stop
         offset="1"
         style="stop-color:#000000;stop-opacity:0.58823532"
         id="stop3752-26" />
    </linearGradient>
    <filter
       id="filter3174-52"
       color-interpolation-filters="sRGB">
      <feGaussianBlur
         stdDeviation="1.71"
         id="feGaussianBlur3176-21" />
    </filter>
    <linearGradient
       gradientTransform="scale(1.0058652,0.994169)"
       gradientUnits="userSpaceOnUse"
       id="ButtonShadow-77"
       y2="7.0165396"
       x2="45.447727"
       y1="92.539597"
       x1="45.447727">
      <stop
         offset="0"
         style="stop-color:#000000;stop-opacity:1"
         id="stop3750-35" />
      <stop
         offset="1"
         style="stop-color:#000000;stop-opacity:0.58823532"
         id="stop3752-3" />
    </linearGradient>
    <linearGradient
       id="linearGradient4017-4">
      <stop
         id="stop4019-6"
         offset="0"
         style="stop-color:#ff6600;stop-opacity:1;" />
      <stop
         id="stop4021-5"
         offset="1"
         style="stop-color:#ff1e00;stop-opacity:1;" />
    </linearGradient>
    <filter
       id="filter3174-91"
       color-interpolation-filters="sRGB">
      <feGaussianBlur
         stdDeviation="1.71"
         id="feGaussianBlur3176-16" />
    </filter>
    <linearGradient
       gradientTransform="scale(1.0058652,0.994169)"
       gradientUnits="userSpaceOnUse"
       id="ButtonShadow-95"
       y2="7.0165396"
       x2="45.447727"
       y1="92.539597"
       x1="45.447727">
      <stop
         offset="0"
         style="stop-color:#000000;stop-opacity:1"
         id="stop3750-0" />
      <stop
         offset="1"
         style="stop-color:#000000;stop-opacity:0.58823532"
         id="stop3752-11" />
    </linearGradient>
    <linearGradient
       inkscape:collect="always"
       xlink:href="#ButtonShadow-95"
       id="linearGradient16890"
       gradientUnits="userSpaceOnUse"
       gradientTransform="scale(1.0058652,0.994169)"
       x1="45.447727"
       y1="92.539597"
       x2="45.447727"
       y2="7.0165396" />
    <linearGradient
       id="linearGradient3224-6-05">
      <stop
         offset="0"
         style="stop-color:#42394b;stop-opacity:1"
         id="stop3226-2-50" />
      <stop
         offset="1"
         style="stop-color:#000000;stop-opacity:1"
         id="stop3228-1-77" />
    </linearGradient>
    <filter
       id="filter3174-6"
       color-interpolation-filters="sRGB">
      <feGaussianBlur
         stdDeviation="1.71"
         id="feGaussianBlur3176-69" />
    </filter>
    <linearGradient
       gradientTransform="scale(1.0058652,0.994169)"
       gradientUnits="userSpaceOnUse"
       id="ButtonShadow-39"
       y2="7.0165396"
       x2="45.447727"
       y1="92.539597"
       x1="45.447727">
      <stop
         offset="0"
         style="stop-color:#000000;stop-opacity:1"
         id="stop3750-23" />
      <stop
         offset="1"
         style="stop-color:#000000;stop-opacity:0.58823532"
         id="stop3752-34" />
    </linearGradient>
    <linearGradient
       inkscape:collect="always"
       xlink:href="#linearGradient4017-4"
       id="linearGradient19333"
       gradientUnits="userSpaceOnUse"
       gradientTransform="matrix(0.57142857,0,0,0.57142857,20.57143,20.571429)"
       x1="32.775002"
       y1="3.8999999"
       x2="31.725"
       y2="120.43772" />
    <linearGradient
       inkscape:collect="always"
       xlink:href="#linearGradient3224-6-05"
       id="linearGradient19339"
       gradientUnits="userSpaceOnUse"
       x1="345.99997"
       y1="92.044624"
       x2="346.76334"
       y2="538.73999" />
    <linearGradient
       inkscape:collect="always"
       xlink:href="#linearGradient3224-6-05"
       id="linearGradient19343"
       gradientUnits="userSpaceOnUse"
       x1="345.99997"
       y1="92.044624"
       x2="346.76334"
       y2="538.73999" />
    <linearGradient
       inkscape:collect="always"
       xlink:href="#linearGradient3224-6-05"
       id="linearGradient19347"
       gradientUnits="userSpaceOnUse"
       x1="345.99997"
       y1="92.044624"
       x2="346.76334"
       y2="538.73999" />
    <linearGradient
       inkscape:collect="always"
       xlink:href="#linearGradient3224-6-05"
       id="linearGradient19351"
       gradientUnits="userSpaceOnUse"
       x1="345.99997"
       y1="92.044624"
       x2="346.76334"
       y2="538.73999" />
    <linearGradient
       inkscape:collect="always"
       xlink:href="#linearGradient3224-6-05"
       id="linearGradient19355"
       gradientUnits="userSpaceOnUse"
       x1="345.99997"
       y1="92.044624"
       x2="346.76334"
       y2="538.73999" />
    <linearGradient
       inkscape:collect="always"
       xlink:href="#linearGradient3224-6-05"
       id="linearGradient19359"
       gradientUnits="userSpaceOnUse"
       x1="345.99997"
       y1="92.044624"
       x2="346.76334"
       y2="538.73999" />
    <linearGradient
       inkscape:collect="always"
       xlink:href="#linearGradient3224-6-05"
       id="linearGradient19363"
       gradientUnits="userSpaceOnUse"
       x1="345.99997"
       y1="92.044624"
       x2="346.76334"
       y2="538.73999" />
    <linearGradient
       inkscape:collect="always"
       xlink:href="#linearGradient3224-6-05"
       id="linearGradient19367"
       gradientUnits="userSpaceOnUse"
       x1="345.99997"
       y1="92.044624"
       x2="346.76334"
       y2="538.73999" />
    <linearGradient
       inkscape:collect="always"
       xlink:href="#linearGradient3224-6-05"
       id="linearGradient19371"
       gradientUnits="userSpaceOnUse"
       x1="345.99997"
       y1="92.044624"
       x2="346.76334"
       y2="538.73999" />
    <linearGradient
       inkscape:collect="always"
       xlink:href="#linearGradient3224-6-05"
       id="linearGradient19375"
       gradientUnits="userSpaceOnUse"
       x1="345.99997"
       y1="92.044624"
       x2="346.76334"
       y2="538.73999" />
    <linearGradient
       inkscape:collect="always"
       xlink:href="#linearGradient3224-6-05"
       id="linearGradient19379"
       gradientUnits="userSpaceOnUse"
       x1="345.99997"
       y1="92.044624"
       x2="346.76334"
       y2="538.73999" />
  </defs>
  <metadata
     id="metadata2413">
    <rdf:RDF>
      <cc:Work
         rdf:about="">
        <dc:format>image/svg+xml</dc:format>
        <dc:type
           rdf:resource="http://purl.org/dc/dcmitype/StillImage" />
        <dc:title />
      </cc:Work>
    </rdf:RDF>
  </metadata>
  <g
     id="layer2-8"
     style="display:none"
     transform="translate(127.2,68.7)">
    <rect
       width="86"
       height="85"
       rx="6"
       ry="6"
       x="5"
       y="7"
       id="rect3745-7"
       style="opacity:0.9;fill:url(#ButtonShadow-4);fill-opacity:1;fill-rule:nonzero;stroke:none;filter:url(#filter3174-5)" />
  </g>
  <rect
     style="fill:url(#radialGradient4113);fill-opacity:1;stroke:none"
     id="rect3461-7"
     y="8.743969"
     x="9.0391903"
     ry="6.1732869"
     rx="5.8527675"
     height="78.516495"
     width="77.914963" />
  <path
     style="opacity:0.6;color:#000000;fill:#000000;fill-opacity:1;fill-rule:nonzero;stroke:none;stroke-width:1;marker:none;visibility:visible;display:inline;overflow:visible;enable-background:accumulate"
     id="rect3977-9"
     inkscape:connector-curvature="0"
     d="m 17.89831,14.489536 c -1.662,0 -3,1.338 -3,3 l 0,62 c 0,1.662 1.338,3 3,3 l 62,0 c 1.662,0 3,-1.338 3,-3 l 0,-62 c 0,-1.662 -1.338,-3 -3,-3 l -62,0 z m 0,0.96875 62,0 c 1.140081,0 2.03125,0.891169 2.03125,2.03125 l 0,62 c 0,1.140081 -0.891169,2.03125 -2.03125,2.03125 l -62,0 c -1.140081,0 -2.03125,-0.891169 -2.03125,-2.03125 l 0,-62 c 0,-1.140081 0.891169,-2.03125 2.03125,-2.03125 z" />
  <g
     id="layer2"
     style="display:none">
    <rect
       width="86"
       height="85"
       rx="6"
       ry="6"
       x="5"
       y="7"
       id="rect3745"
       style="opacity:0.9;fill:url(#ButtonShadow);fill-opacity:1;fill-rule:nonzero;stroke:none;filter:url(#filter3174)" />
  </g>
  <path
     style="font-size:medium;font-style:normal;font-variant:normal;font-weight:normal;font-stretch:normal;text-indent:0;text-align:start;text-decoration:none;line-height:normal;letter-spacing:normal;word-spacing:normal;text-transform:none;direction:ltr;block-progression:tb;writing-mode:lr-tb;text-anchor:start;opacity:0.15;color:#000000;fill:#000000;fill-opacity:1;stroke:none;stroke-width:4;marker:none;visibility:visible;display:inline;overflow:visible;enable-background:accumulate;font-family:Abandoned Bitplane;-inkscape-font-specification:Abandoned Bitplane"
     id="rect3222-3-8"
     inkscape:connector-curvature="0"
     d="m 19.89831,13.489536 c -3.289406,0 -6,2.710594 -6,6 l 0,58 c 0,3.289406 2.710594,6 6,6 l 58,0 c 3.289406,0 6,-2.710594 6,-6 l 0,-58 c 0,-3.289406 -2.710594,-6 -6,-6 l -58,0 z m 0,4 58,0 c 1.142594,0 2,0.857406 2,2 l 0,58 c 0,1.142594 -0.857406,2 -2,2 l -58,0 c -1.142594,0 -2,-0.857406 -2,-2 l 0,-58 c 0,-1.142594 0.857406,-2 2,-2 z" />
  <path
     style="opacity:0.3;color:#000000;fill:#000000;fill-opacity:1;fill-rule:nonzero;stroke:none;stroke-width:1;marker:none;visibility:visible;display:inline;overflow:visible;enable-background:accumulate"
     id="rect3981-0"
     inkscape:connector-curvature="0"
     d="m 17.89831,14.489536 c -1.662,0 -3,1.338 -3,3 l 0,62 c 0,1.662 1.338,3 3,3 l 62,0 c 1.662,0 3,-1.338 3,-3 l 0,-62 c 0,-1.662 -1.338,-3 -3,-3 l -62,0 z m 0,1.9375 62,0 c 0.618163,0 1.0625,0.444337 1.0625,1.0625 l 0,62 c 0,0.618163 -0.444337,1.0625 -1.0625,1.0625 l -62,0 c -0.618163,0 -1.0625,-0.444337 -1.0625,-1.0625 l 0,-62 c 0,-0.618163 0.444337,-1.0625 1.0625,-1.0625 z" />
  <g
     id="activity-gmail"
     display="block"
     style="display:block"
     transform="translate(2.0249985,106.6005)" />
  <g
     id="layer2-4"
     style="display:none"
     transform="translate(293.40001,25.799999)">
    <rect
       width="86"
       height="85"
       rx="6"
       ry="6"
       x="5"
       y="7"
       id="rect3745-2"
       style="opacity:0.9;fill:url(#ButtonShadow-9);fill-opacity:1;fill-rule:nonzero;stroke:none;filter:url(#filter3174-1)" />
  </g>
  <g
     id="layer2-1"
     style="display:none"
     transform="translate(361.83909,197.76522)">
    <rect
       width="86"
       height="85"
       rx="6"
       ry="6"
       x="5"
       y="7"
       id="rect3745-0"
       style="opacity:0.9;fill:url(#ButtonShadow-77);fill-opacity:1;fill-rule:nonzero;stroke:none;filter:url(#filter3174-52)" />
  </g>
  <g
     id="layer2-9"
     style="display:none"
     transform="translate(186.6,103.8)">
    <rect
       width="86"
       height="85"
       rx="6"
       ry="6"
       x="5"
       y="7"
       id="rect3745-19"
       style="opacity:0.9;fill:url(#linearGradient16890);fill-opacity:1;fill-rule:nonzero;stroke:none;filter:url(#filter3174-91)" />
  </g>
  <g
     id="g19292"
     transform="translate(7.4400496,-32.259503)">
    <g
       style="display:none"
       id="layer2-7">
      <rect
         style="opacity:0.9;fill:url(#ButtonShadow-39);fill-opacity:1;fill-rule:nonzero;stroke:none;filter:url(#filter3174-6)"
         id="rect3745-8"
         y="7"
         x="5"
         ry="6"
         rx="6"
         height="85"
         width="86" />
    </g>
    <g
       id="g19319"
       transform="matrix(1.2244898,0,0,1.2244898,-18.21556,21.483993)">
      <path
         d="M 27.42857,24 C 25.52914,24 24,25.529142 24,27.428572 l 0,32 c 0,1.899429 1.52914,3.428571 3.42857,3.428571 l 6.85714,0 L 32.57143,72 l 13.14286,-9.142857 22.85714,0 C 70.47086,62.857142 72,61.328001 72,59.428572 l 0,-32 c 0,-1.899429 -1.52914,-3.428571 -3.42857,-3.428571 l -41.14286,0 z"
         inkscape:connector-curvature="0"
         id="path3984-2"
         style="fill:url(#linearGradient19333);fill-opacity:1;fill-rule:nonzero;stroke:#000000;stroke-opacity:1" />
      <g
         id="layer1-3"
         inkscape:label="Layer 1"
         transform="matrix(0.06984626,0,0,0.06984626,22.756536,22.416258)"
         style="fill:#000000;fill-opacity:1;stroke:url(#linearGradient19379);stroke-width:3.86563277;stroke-miterlimit:4;stroke-opacity:1;stroke-dasharray:none">
        <path
           sodipodi:nodetypes="cscsccsccccccccsscsscccccccsccscsc"
           id="path3684"
           d="m 277.90698,266.31567 c 0,0 -10.46512,-36.04651 -10.46512,-69.76744 0,-33.72093 8.13954,-104.651164 8.13954,-104.651164 0,0 -65.11628,80.232554 -72.09303,116.279074 -6.97674,36.04651 -6.97674,88.37209 -6.97674,88.37209 l -15.11628,-2.32558 c 0,0 -3.48837,11.6279 1.16279,30.23256 4.65116,18.60465 12.7907,33.72093 12.7907,33.72093 l -19.76744,-3.48838 8.13953,20.93024 -29.06977,23.25581 26.74419,1.16279 0,0 -19.76744,34.88372 20.93023,-2.32558 c 0,0 -0.79801,38.37209 6.17874,47.67442 3.01153,4.01538 12.62584,17.82211 37.5353,22.87299 32.79756,6.65034 69.30452,4.15333 69.30452,4.15333 0,0 -39.00847,-0.9906 -69.93059,-9.5769 -25.39302,-7.05101 -29.74876,-14.52073 -32.73972,-23.80345 -4.64957,-14.43037 -3.37151,-45.97155 -3.37151,-45.97155 l -12.79069,-5.81396 11.6279,-26.74418 -13.95349,-3.48837 22.09303,-16.27907 -8.13954,-10.46512 15.11628,-2.32558 c 0,0 -11.6279,-24.41861 -12.7907,-40.69768 -1.16279,-16.27907 0,-18.60465 0,-18.60465 l 15.11628,0 c 0,0 -6.97674,-39.53488 5.81396,-82.55814 12.79069,-43.02325 51.16279,-100 51.16279,-100 0,0 -10.46512,52.32558 -9.30233,87.20931 1.16279,34.88372 24.41861,58.13953 24.41861,58.13953 z"
           style="fill:#000000;fill-opacity:1;stroke:url(#linearGradient19339);stroke-width:3.86563277;stroke-miterlimit:4;stroke-opacity:1;stroke-dasharray:none"
           inkscape:connector-curvature="0" />
        <path
           sodipodi:nodetypes="csccccccccccccscsccsccscccsccscsccscccccccccccccscscccccccccccsc"
           id="path3686"
           d="m 268.60465,288.40869 c 0,0 15.11628,-19.76744 23.25582,-22.09302 8.13953,-2.32558 15.11627,-5.81395 15.11627,-5.81395 l 1.1628,-9.30233 25.58139,3.48837 3.48837,-8.13953 15.11628,4.65116 11.62791,-9.30232 12.7907,10.46511 19.76744,-8.13953 0,5.81395 17.44186,-1.16279 -1.16279,10.46512 25.58139,12.79069 c 0,0 13.95349,-34.88372 17.44186,-68.60465 3.48838,-33.72093 4.65117,-84.88372 4.65117,-84.88372 0,0 44.18604,32.55814 48.83721,65.11628 4.65116,32.55814 0,66.27907 0,66.27907 l 10.46511,-8.13953 c 0,0 11.62791,9.30232 13.95349,19.76744 2.32558,10.46511 0,19.76744 0,19.76744 l 6.97674,-4.65116 c 0,0 6.97675,1.16279 9.30233,22.09302 2.32558,20.93023 2.32558,26.74419 2.32558,26.74419 l 5.81396,2.32558 8.13953,4.65116 c 0,0 6.97674,11.62791 -5.81395,33.72093 -12.7907,22.09302 3.48837,26.74419 3.48837,26.74419 l -15.11628,20.93023 c 0,0 2.32558,15.11628 1.16279,19.76744 -1.16279,4.65116 -12.7907,10.46512 -12.7907,10.46512 0,0 3.48837,8.13953 -1.16279,11.6279 C 531.39535,459.33893 500,474.45521 500,474.45521 l -46.51163,37.2093 c 0,0 30.23256,-32.55814 45.34884,-41.86047 15.11628,-9.30232 27.92514,-17.42369 27.92514,-17.42369 l 1.58067,-13.19041 15.53416,-5.39607 -3.54288,-20.18532 12.42733,-17.44186 -3.50654,-18.22311 12.42732,-34.9564 -14.77107,-11.95494 -6.95858,-41.53343 -10.06541,-2.65262 -2.02318,-19.77067 -8.09673,-14.3863 -20.53052,5.50508 c 0,0 5.56349,-38.08139 4.25145,-60.48328 -1.94681,-33.24029 -36.04651,-55.81396 -36.04651,-55.81396 0,0 -0.77653,44.20212 -1.16279,48.83722 -3.48837,41.86046 -24.4186,84.88372 -24.4186,84.88372 l -31.03242,-10.62441 -6.10792,-7.57423 -14.60386,-2.1502 -15.11627,2.90698 -11.04652,-9.88373 -11.04651,9.88372 -16.27906,3.48838 -22.09303,-3.48838 -5.81395,16.27908 -6.39535,-4.65117 c 0,0 -7.55814,1.74419 -12.20931,2.90698 -4.65116,1.16279 -22.67441,16.86046 -21.51162,15.69767 z"
           style="fill:#000000;fill-opacity:1;stroke:url(#linearGradient19343);stroke-width:3.86563277;stroke-miterlimit:4;stroke-opacity:1;stroke-dasharray:none"
           inkscape:connector-curvature="0" />
        <path
           sodipodi:nodetypes="csssccc"
           id="path3711"
           d="m 248.25581,424.45521 c 0,0 -1.16278,27.32558 27.90698,28.48836 15.69589,0.62784 31.39535,-8.72092 31.39535,-30.23255 0,-10.46511 -8.71222,-27.57812 -30.81396,-27.90698 -22.09751,-0.32879 -24.99999,14.53489 -24.99999,14.53489 l 22.67442,13.95349 -26.1628,1.16279 z"
           style="fill:#000000;fill-opacity:1;stroke:url(#linearGradient19347);stroke-width:3.86563277;stroke-miterlimit:4;stroke-opacity:1;stroke-dasharray:none"
           inkscape:connector-curvature="0" />
        <path
           sodipodi:nodetypes="csscsssc"
           id="path3713"
           d="m 391.86046,446.54823 c 0,0 14.53489,38.95349 44.76745,29.65116 30.23256,-9.30232 44.76744,-30.23256 51.16279,-44.18605 6.39535,-13.95348 7.55814,-43.60465 7.55814,-43.60465 0,0 -4.06977,25.5814 -8.72093,36.62791 -4.65117,11.04651 -20.34884,36.04651 -35.46512,42.44186 -15.11628,6.39535 -31.39535,8.13954 -41.27907,-1.16279 C 400,457.01334 393.60465,447.12963 391.86046,446.54823 z"
           style="fill:#000000;fill-opacity:1;stroke:url(#linearGradient19351);stroke-width:3.86563277;stroke-miterlimit:4;stroke-opacity:1;stroke-dasharray:none"
           inkscape:connector-curvature="0" />
        <path
           sodipodi:nodetypes="cssscsssc"
           id="path3715"
           d="m 332.55814,426.19939 c 0,0 -18.46727,-64.26672 -59.12973,-66.04288 -34.71915,-1.51656 -53.27034,7.26745 -58.31213,49.18242 -4.20286,34.94057 15.69768,73.25581 44.76744,76.16279 29.06977,2.90697 61.62791,-30.23256 61.62791,-30.23256 0,0 -36.04651,26.16279 -58.13954,24.4186 -22.09302,-1.74418 -44.45484,-26.72894 -43.02325,-59.30232 2.13481,-48.57377 21.47939,-59.96862 53.48837,-58.13953 40.69767,2.32558 58.72093,65.11627 58.72093,63.95348 z"
           style="fill:#000000;fill-opacity:1;stroke:url(#linearGradient19355);stroke-width:3.86563277;stroke-miterlimit:4;stroke-opacity:1;stroke-dasharray:none"
           inkscape:connector-curvature="0" />
        <path
           sodipodi:nodetypes="cscscsccccccccccscccccccccccccsc"
           id="path3717"
           d="m 513.95349,386.08311 c 0,0 -6.39535,-5.81395 -18.60465,-3.48837 -12.2093,2.32558 -28.48837,13.95349 -28.48837,13.95349 0,0 6.97674,34.30233 -21.51163,44.76744 -20.57223,7.55714 -32.55814,-15.69768 -32.55814,-15.69768 0,0 -15.69768,8.13954 -21.51163,14.53489 -5.81395,6.39535 -5.23256,12.2093 -5.23256,12.2093 l -8.13954,-11.6279 -5.81395,4.65116 -5.81395,-3.48837 -4.65116,4.06976 -8.13954,-3.48837 -5.23256,7.55814 -6.97674,-4.06977 -5.23256,11.04651 -11.62791,-6.39534 c 0,0 1.74419,-4.06977 3.48838,-9.88373 1.74418,-5.81395 2.90697,-11.04651 2.90697,-11.04651 l 1.74419,8.72093 2.32558,8.72094 4.65116,-20.34884 6.97675,15.69767 4.65116,-19.18605 10.46512,17.44186 1.74418,-22.09302 8.13954,20.34884 8.13953,-10.46511 5.23257,10.46511 2.90697,-12.7907 5.81395,4.65116 c 0,0 10.84191,-13.7925 52.32558,-33.72093 59.30232,-28.48837 68.02326,-11.6279 68.02326,-11.04651 z"
           style="fill:#000000;fill-opacity:1;stroke:url(#linearGradient19359);stroke-width:3.86563277;stroke-miterlimit:4;stroke-opacity:1;stroke-dasharray:none"
           inkscape:connector-curvature="0" />
        <path
           sodipodi:nodetypes="cssscscscscscsssc"
           id="path3725"
           d="m 344.92011,501.47667 c 0,0 -12.74437,-3.69998 -16.44434,-9.86661 -3.69998,-6.16663 -8.85345,-21.43608 -3.92014,-23.90273 4.9333,-2.46665 19.5885,10.58041 23.99392,20.15288 9.22324,20.04103 14.79991,35.89896 14.79991,35.89896 0,0 13.19679,-18.95586 18.15932,-34.61576 2.43997,-7.69964 5.75552,-29.59982 5.75552,-29.59982 0,0 11.97202,12.09244 9.50537,23.60348 -2.46666,11.51104 -12.79424,19.56292 -12.79424,19.56292 0,0 7.39995,-13.97769 8.22217,-20.14432 0.82222,-6.16663 -3.28887,-10.68882 -3.28887,-10.68882 0,0 -1.64443,18.91099 -6.57774,30.01092 -4.9333,11.09994 -21.37764,36.99978 -21.37764,36.99978 0,0 -12.21285,-39.5163 -16.73505,-46.50515 -4.52219,-6.98884 -14.6795,-19.83296 -16.73504,-17.77742 -2.05554,2.05554 2.22583,10.01623 4.28138,12.89399 2.05554,2.87776 13.56658,13.9777 13.15547,13.9777 z"
           style="fill:#000000;fill-opacity:1;stroke:url(#linearGradient19363);stroke-width:3.86563277;stroke-miterlimit:4;stroke-opacity:1;stroke-dasharray:none"
           inkscape:connector-curvature="0" />
        <path
           sodipodi:nodetypes="cscsc"
           id="path3727"
           d="m 374.70931,464.86218 c 0,0 -0.2907,5.81396 -1.45349,13.3721 -1.16279,7.55814 -3.19768,20.93023 -3.19768,20.93023 0,0 5.81395,-15.69768 5.81395,-21.51163 0,-5.81395 -1.16278,-13.0814 -1.16278,-12.7907 z"
           style="fill:#000000;fill-opacity:1;stroke:url(#linearGradient19367);stroke-width:3.86563277;stroke-miterlimit:4;stroke-opacity:1;stroke-dasharray:none"
           inkscape:connector-curvature="0" />
        <path
           sodipodi:nodetypes="cccccccccccccscccccccccccccccc"
           id="path3729"
           d="m 212.7907,360.70122 8.72093,-17.44186 -2.90697,-3.48837 20.93023,-6.39535 1.16279,-6.39535 26.74419,0.5814 8.72093,-7.55814 16.86046,10.46511 6.97674,-4.06976 12.7907,17.44186 9.30233,4.06976 12.7907,18.02326 7.55814,-3.48837 c 0,0 3.73076,10.99903 4.06977,13.37209 0.58139,4.06977 -2.90698,18.60466 -2.90698,18.60466 l -1.74419,18.02325 -4.118,-15.71516 2.37381,-19.16856 -10.46511,-6.39535 -11.04651,-18.02326 -12.20931,-4.65116 -9.30232,-13.95349 -4.65116,1.74419 -15.69768,-9.30233 -6.39535,5.81395 -23.83721,0 0.5814,5.23256 -19.76744,4.06977 0,5.23256 -14.53489,13.37209 z"
           style="fill:#000000;fill-opacity:1;stroke:url(#linearGradient19371);stroke-width:3.86563277;stroke-miterlimit:4;stroke-opacity:1;stroke-dasharray:none"
           inkscape:connector-curvature="0" />
        <path
           id="path3731"
           d="m 382.17625,409.72082 21.51162,-22.67442 11.04652,5.23256 17.44186,-20.93023 8.72093,0.58139 6.39535,-7.55814 8.13953,4.65116 8.72093,-12.79069 5.23256,1.16279 18.60465,-19.18605 1.74419,21.51163 12.79069,-1.74419 9.30233,9.30233 8.13953,-1.16279 2.32559,11.62791 -6.97675,-5.23256 -10.46511,0 -5.23256,-8.13954 -12.20931,2.32558 -6.97674,-6.97674 -8.13953,5.81395 -6.97675,-2.32558 -8.72093,9.88372 -8.13953,-1.74418 -6.39535,4.06976 -8.72093,1.16279 -17.44186,19.18605 -11.04651,-0.58139 -22.67442,14.53488 z"
           style="fill:#000000;fill-opacity:1;stroke:url(#linearGradient19375);stroke-width:3.86563277;stroke-miterlimit:4;stroke-opacity:1;stroke-dasharray:none"
           inkscape:connector-curvature="0" />
      </g>
    </g>
  </g>
  <path
     style="opacity:0.07999998;fill:#d9c6ed;fill-opacity:1;stroke:none"
     id="rect3256-3"
     inkscape:connector-curvature="0"
     d="m 14.89831,8.7395363 c -3.242433,0 -5.8437503,2.7674997 -5.8437503,6.1874997 l 0,49.0625 C 27.878614,50.130638 54.866224,40.195879 86.96081,42.208286 l 0,-27.28125 c 0,-3.420001 -2.63257,-6.1874997 -5.875,-6.1874997 l -66.1875,0 z" />
  <g
     id="layer1"
     style="display:inline">
    <path
       d="M 12,6 C 8.676,6 6,8.676 6,12 l 0,72 c 0,3.324 2.676,6 6,6 l 72,0 c 3.324,0 6,-2.676 6,-6 L 90,12 C 90,8.676 87.324,6 84,6 L 12,6 z m 5,7 62,0 c 2.216001,0 4,1.784 4,4 l 0,62 c 10e-7,2.216001 -1.784,4 -4,4 l -62,0 c -2.215999,10e-7 -4,-1.784 -4,-4 l 0,-62 c 0,-2.215999 1.784,-4 4,-4 z"
       inkscape:connector-curvature="0"
       id="rect2419"
       style="fill:url(#linearGradient4094);fill-opacity:1;fill-rule:nonzero;stroke:none" />
    <path
       d="M 12,6 C 8.676,6 6,8.676 6,12 l 0,2 0,68 0,2 c 0,0.334721 0.04135,0.6507 0.09375,0.96875 0.0487,0.295596 0.09704,0.596915 0.1875,0.875 0.00988,0.03038 0.020892,0.0636 0.03125,0.09375 0.098865,0.287771 0.2348802,0.547452 0.375,0.8125 0.1445918,0.273507 0.3156161,0.535615 0.5,0.78125 0.1843839,0.245635 0.3737765,0.473472 0.59375,0.6875 0.439947,0.428056 0.94291,0.814526 1.5,1.09375 0.278545,0.139612 0.5734731,0.246947 0.875,0.34375 -0.2562018,-0.100222 -0.4867109,-0.236272 -0.71875,-0.375 -0.00741,-0.0044 -0.023866,0.0045 -0.03125,0 -0.031933,-0.0193 -0.062293,-0.04251 -0.09375,-0.0625 -0.120395,-0.0767 -0.2310226,-0.163513 -0.34375,-0.25 -0.1061728,-0.0808 -0.2132809,-0.161112 -0.3125,-0.25 C 8.4783201,88.557317 8.3087904,88.373362 8.15625,88.1875 8.0486711,88.057245 7.9378561,87.922215 7.84375,87.78125 7.818661,87.74287 7.805304,87.69538 7.78125,87.65625 7.716487,87.553218 7.6510225,87.451733 7.59375,87.34375 7.4927417,87.149044 7.3880752,86.928049 7.3125,86.71875 7.30454,86.69694 7.288911,86.6782 7.28125,86.65625 7.2494249,86.5643 7.2454455,86.469419 7.21875,86.375 7.1884177,86.268382 7.1483606,86.171969 7.125,86.0625 7.0521214,85.720988 7,85.364295 7,85 L 7,83 7,15 7,13 C 7,10.218152 9.2181517,8 12,8 l 2,0 68,0 2,0 c 2.781848,0 5,2.218152 5,5 l 0,2 0,68 0,2 c 0,0.364295 -0.05212,0.720988 -0.125,1.0625 -0.04415,0.206893 -0.08838,0.397658 -0.15625,0.59375 -0.0077,0.02195 -0.0233,0.04069 -0.03125,0.0625 -0.06274,0.173739 -0.138383,0.367449 -0.21875,0.53125 -0.04158,0.0828 -0.07904,0.169954 -0.125,0.25 -0.0546,0.09721 -0.126774,0.18835 -0.1875,0.28125 -0.09411,0.140965 -0.204921,0.275995 -0.3125,0.40625 -0.143174,0.17445 -0.303141,0.346998 -0.46875,0.5 -0.01117,0.0102 -0.01998,0.02115 -0.03125,0.03125 -0.138386,0.125556 -0.285091,0.234436 -0.4375,0.34375 -0.102571,0.07315 -0.204318,0.153364 -0.3125,0.21875 -0.0074,0.0045 -0.02384,-0.0044 -0.03125,0 -0.232039,0.138728 -0.462548,0.274778 -0.71875,0.375 0.301527,-0.0968 0.596455,-0.204138 0.875,-0.34375 0.55709,-0.279224 1.060053,-0.665694 1.5,-1.09375 0.219973,-0.214028 0.409366,-0.441865 0.59375,-0.6875 0.184384,-0.245635 0.355408,-0.507743 0.5,-0.78125 0.14012,-0.265048 0.276135,-0.524729 0.375,-0.8125 0.01041,-0.03078 0.02133,-0.06274 0.03125,-0.09375 0.09046,-0.278085 0.1388,-0.579404 0.1875,-0.875 C 89.95865,84.6507 90,84.334721 90,84 l 0,-2 0,-68 0,-2 C 90,8.676 87.324,6 84,6 L 12,6 z"
       inkscape:connector-curvature="0"
       id="rect3728"
       style="opacity:0.5;fill:url(#linearGradient4096);fill-opacity:1;fill-rule:nonzero;stroke:none" />
    <path
       d="m 17,12 c -2.752703,0 -5,2.247297 -5,5 l 0,62 c 0,2.752703 2.247298,5 5,5 l 62,0 c 2.752703,0 5.000001,-2.247297 5,-5 l 0,-62 c 0,-2.752703 -2.247297,-5 -5,-5 l -62,0 z m 0,2 62,0 c 1.679298,0 3,1.320703 3,3 l 0,62 c 10e-7,1.679297 -1.320703,3 -3,3 l -62,0 c -1.679296,0 -3,-1.320703 -3,-3 l 0,-62 c 0,-1.679297 1.320703,-3 3,-3 z"
       inkscape:connector-curvature="0"
       id="rect3425"
       style="fill:url(#linearGradient4098);fill-opacity:1;fill-rule:nonzero;stroke:none" />
    <path
       d="M 12,90 C 8.676,90 6,87.324 6,84 L 6,82 6,14 6,12 c 0,-0.334721 0.04135,-0.6507 0.09375,-0.96875 0.0487,-0.295596 0.09704,-0.596915 0.1875,-0.875 C 6.29113,10.12587 6.302142,10.09265 6.3125,10.0625 6.411365,9.774729 6.5473802,9.515048 6.6875,9.25 6.8320918,8.976493 7.0031161,8.714385 7.1875,8.46875 7.3718839,8.223115 7.5612765,7.995278 7.78125,7.78125 8.221197,7.353194 8.72416,6.966724 9.28125,6.6875 9.559795,6.547888 9.8547231,6.440553 10.15625,6.34375 9.9000482,6.443972 9.6695391,6.580022 9.4375,6.71875 c -0.00741,0.0044 -0.023866,-0.0045 -0.03125,0 -0.031933,0.0193 -0.062293,0.04251 -0.09375,0.0625 -0.120395,0.0767 -0.2310226,0.163513 -0.34375,0.25 -0.1061728,0.0808 -0.2132809,0.161112 -0.3125,0.25 C 8.4783201,7.442683 8.3087904,7.626638 8.15625,7.8125 8.0486711,7.942755 7.9378561,8.077785 7.84375,8.21875 7.818661,8.25713 7.805304,8.30462 7.78125,8.34375 7.716487,8.446782 7.6510225,8.548267 7.59375,8.65625 7.4927417,8.850956 7.3880752,9.071951 7.3125,9.28125 7.30454,9.30306 7.288911,9.3218 7.28125,9.34375 7.2494249,9.4357 7.2454455,9.530581 7.21875,9.625 7.1884177,9.731618 7.1483606,9.828031 7.125,9.9375 7.0521214,10.279012 7,10.635705 7,11 l 0,2 0,68 0,2 c 0,2.781848 2.2181517,5 5,5 l 2,0 68,0 2,0 c 2.781848,0 5,-2.218152 5,-5 l 0,-2 0,-68 0,-2 C 89,10.635705 88.94788,10.279012 88.875,9.9375 88.83085,9.730607 88.78662,9.539842 88.71875,9.34375 88.71105,9.3218 88.69545,9.30306 88.6875,9.28125 88.62476,9.107511 88.549117,8.913801 88.46875,8.75 88.42717,8.6672 88.38971,8.580046 88.34375,8.5 88.28915,8.40279 88.216976,8.31165 88.15625,8.21875 88.06214,8.077785 87.951329,7.942755 87.84375,7.8125 87.700576,7.63805 87.540609,7.465502 87.375,7.3125 87.36383,7.3023 87.35502,7.29135 87.34375,7.28125 87.205364,7.155694 87.058659,7.046814 86.90625,6.9375 86.803679,6.86435 86.701932,6.784136 86.59375,6.71875 c -0.0074,-0.0045 -0.02384,0.0044 -0.03125,0 -0.232039,-0.138728 -0.462548,-0.274778 -0.71875,-0.375 0.301527,0.0968 0.596455,0.204138 0.875,0.34375 0.55709,0.279224 1.060053,0.665694 1.5,1.09375 0.219973,0.214028 0.409366,0.441865 0.59375,0.6875 0.184384,0.245635 0.355408,0.507743 0.5,0.78125 0.14012,0.265048 0.276135,0.524729 0.375,0.8125 0.01041,0.03078 0.02133,0.06274 0.03125,0.09375 0.09046,0.278085 0.1388,0.579404 0.1875,0.875 C 89.95865,11.3493 90,11.665279 90,12 l 0,2 0,68 0,2 c 0,3.324 -2.676,6 -6,6 l -72,0 z"
       inkscape:connector-curvature="0"
       id="path3615"
       style="opacity:0.4;fill:url(#radialGradient4100);fill-opacity:1;fill-rule:nonzero;stroke:none" />
    <rect
       width="66"
       height="66"
       rx="12"
       ry="12"
       x="15"
       y="15"
       clip-path="url(#clipPath3613-5)"
       id="rect3171"
       style="opacity:0.1;fill:url(#linearGradient4102);fill-opacity:1;fill-rule:nonzero;stroke:#ffffff;stroke-width:0.5;stroke-linecap:round;stroke-linejoin:miter;stroke-miterlimit:4;stroke-opacity:1;stroke-dasharray:none;stroke-dashoffset:0;filter:url(#filter3794-2)" />
  </g>
</svg>
