<?xml version="1.0" encoding="iso-8859-1"?>
<!-- Generator: Adobe Illustrator 10.0.3, SVG Export Plug-In . SVG Version: 3.0.0 Build 77)  -->
<!DOCTYPE svg PUBLIC "-//W3C//DTD SVG 1.0//EN"    "http://www.w3.org/TR/2001/REC-SVG-20010904/DTD/svg10.dtd" [
	<!ENTITY ns_flows "http://ns.adobe.com/Flows/1.0/">
	<!ENTITY ns_svg "http://www.w3.org/2000/svg">
	<!ENTITY ns_xlink "http://www.w3.org/1999/xlink">
]>
<svg  xmlns="&ns_svg;" xmlns:xlink="&ns_xlink;" xmlns:a="http://ns.adobe.com/AdobeSVGViewerExtensions/3.0/"
	 width="128" height="129.396" viewBox="0 0 128 129.396" overflow="visible" enable-background="new 0 0 128 129.396"
	 xml:space="preserve">
	<g id="Layer_1">
		<path fill="none" d="M128,129.396H0v-128h128V129.396z"/>
		<g>
			<linearGradient id="XMLID_1_" gradientUnits="userSpaceOnUse" x1="80.2236" y1="118.5156" x2="48.0457" y2="60.7941">
				<stop  offset="0" style="stop-color:#8C8C8C"/>
				<stop  offset="1" style="stop-color:#858585"/>
				<a:midPointStop  offset="0" style="stop-color:#8C8C8C"/>
				<a:midPointStop  offset="0.5" style="stop-color:#8C8C8C"/>
				<a:midPointStop  offset="1" style="stop-color:#858585"/>
			</linearGradient>
			<path fill="url(#XMLID_1_)" d="M112.171,65.482L65.194,28.25c-0.944-0.748-2.248-0.727-3.17,0.05L16.775,66.442
				c-0.669,0.561-1.031,1.438-0.965,2.337l3.758,51.273c0.104,1.416,1.227,2.514,2.581,2.514h83.603
				c1.329,0,2.443-1.063,2.573-2.459l4.865-52.18C113.28,66.981,112.895,66.056,112.171,65.482z"/>
			<linearGradient id="XMLID_2_" gradientUnits="userSpaceOnUse" x1="80.2236" y1="117.5205" x2="48.046" y2="59.7995">
				<stop  offset="0" style="stop-color:#CCCCCC"/>
				<stop  offset="0.9831" style="stop-color:#FFFFFF"/>
				<a:midPointStop  offset="0" style="stop-color:#CCCCCC"/>
				<a:midPointStop  offset="0.5" style="stop-color:#CCCCCC"/>
				<a:midPointStop  offset="0.9831" style="stop-color:#FFFFFF"/>
			</linearGradient>
			<path fill="url(#XMLID_2_)" d="M112.171,64.487L65.194,27.254c-0.944-0.748-2.248-0.727-3.17,0.05L16.775,65.448
				c-0.669,0.561-1.031,1.437-0.965,2.336l3.758,51.273c0.104,1.416,1.227,2.514,2.581,2.514h83.603
				c1.329,0,2.443-1.063,2.573-2.459l4.865-52.18C113.28,65.986,112.895,65.061,112.171,64.487z"/>
			<path opacity="0.2" fill-rule="evenodd" clip-rule="evenodd" fill="#575757" d="M15.653,77.756l0.244,4.747L64.321,44.66
				l47.81,38.679l0.4-5.647L64.067,39.593L15.653,77.756z"/>
			<g>
				<path opacity="0.2" fill-rule="evenodd" clip-rule="evenodd" fill="#7F7F7F" d="M59.464,82.854v2.836h-1.558v-2.836h-4.261
					l-0.16-1.842l0.96-2.455v-0.229l-5.551,4.325l-0.211,0.223l-1.629-0.378l-0.932-17.473v-0.008l0.104-0.03l8.026-2.708
					l0.193,0.007v-1.039l0.721-1.062h19.981l0.721,1.062v1.12l0.132-0.007l8.023,2.708l0.102,0.038l-0.927,17.473l-1.624,0.378
					l-0.218-0.222l-5.488-4.282v0.104l0.955,2.455l-0.154,1.842h-4.261v2.836h-1.56v-2.836H59.464z"/>
				<linearGradient id="XMLID_3_" gradientUnits="userSpaceOnUse" x1="55.9927" y1="79.001" x2="55.9927" y2="86.9969">
					<stop  offset="0" style="stop-color:#4A220A"/>
					<stop  offset="0.4208" style="stop-color:#BA632C"/>
					<stop  offset="1" style="stop-color:#FFFFFF"/>
					<a:midPointStop  offset="0" style="stop-color:#4A220A"/>
					<a:midPointStop  offset="0.5" style="stop-color:#4A220A"/>
					<a:midPointStop  offset="0.4208" style="stop-color:#BA632C"/>
					<a:midPointStop  offset="0.5" style="stop-color:#BA632C"/>
					<a:midPointStop  offset="1" style="stop-color:#FFFFFF"/>
				</linearGradient>
				<path fill-rule="evenodd" clip-rule="evenodd" fill="url(#XMLID_3_)" d="M56.792,78.541v3.258h-1.599v-3.258H56.792z"/>
				<linearGradient id="XMLID_4_" gradientUnits="userSpaceOnUse" x1="69.2627" y1="79.001" x2="69.2627" y2="86.9969">
					<stop  offset="0" style="stop-color:#4A220A"/>
					<stop  offset="0.4208" style="stop-color:#BA632C"/>
					<stop  offset="1" style="stop-color:#FFFFFF"/>
					<a:midPointStop  offset="0" style="stop-color:#4A220A"/>
					<a:midPointStop  offset="0.5" style="stop-color:#4A220A"/>
					<a:midPointStop  offset="0.4208" style="stop-color:#BA632C"/>
					<a:midPointStop  offset="0.5" style="stop-color:#BA632C"/>
					<a:midPointStop  offset="1" style="stop-color:#FFFFFF"/>
				</linearGradient>
				<path fill-rule="evenodd" clip-rule="evenodd" fill="url(#XMLID_4_)" d="M70.064,78.541v3.258h-1.604v-3.258H70.064z"/>
				<path fill-rule="evenodd" clip-rule="evenodd" fill="#7D4228" d="M73.604,60.78v14.891H51.645V60.78H73.604z"/>
				
					<linearGradient id="XMLID_5_" gradientUnits="userSpaceOnUse" x1="55.5288" y1="25.4512" x2="36.7629" y2="24.7959" gradientTransform="matrix(1.1687 0 0 0.5914 8.6934 45.4726)">
					<stop  offset="0.07" style="stop-color:#BA632C"/>
					<stop  offset="0.93" style="stop-color:#FDCC8A"/>
					<a:midPointStop  offset="0.07" style="stop-color:#BA632C"/>
					<a:midPointStop  offset="0.5" style="stop-color:#BA632C"/>
					<a:midPointStop  offset="0.93" style="stop-color:#FDCC8A"/>
				</linearGradient>
				<path fill-rule="evenodd" clip-rule="evenodd" fill="url(#XMLID_5_)" d="M51.645,60.78h21.959l-0.734-0.912H52.384L51.645,60.78
					z"/>
				
					<linearGradient id="XMLID_6_" gradientUnits="userSpaceOnUse" x1="56.3638" y1="60.1377" x2="35.8942" y2="60.495" gradientTransform="matrix(1.1687 0 0 1 8.6934 16.415)">
					<stop  offset="0.15" style="stop-color:#BA632C"/>
					<stop  offset="0.85" style="stop-color:#FDCC8A"/>
					<a:midPointStop  offset="0.15" style="stop-color:#BA632C"/>
					<a:midPointStop  offset="0.5" style="stop-color:#BA632C"/>
					<a:midPointStop  offset="0.85" style="stop-color:#FDCC8A"/>
				</linearGradient>
				<path fill-rule="evenodd" clip-rule="evenodd" fill="url(#XMLID_6_)" d="M50.661,77.777h23.93l-0.987-2.106H51.645
					L50.661,77.777z"/>
				<path fill-rule="evenodd" clip-rule="evenodd" fill="#7D4228" d="M50.661,77.777h23.93l-0.162,1.588H50.826L50.661,77.777z"/>
				
					<linearGradient id="XMLID_7_" gradientUnits="userSpaceOnUse" x1="37.7095" y1="42.2778" x2="52.7517" y2="60.8534" gradientTransform="matrix(0.9993 0 0 0.8439 17.4302 24.705)">
					<stop  offset="0.32" style="stop-color:#4A220A"/>
					<stop  offset="0.4136" style="stop-color:#BA632C"/>
					<stop  offset="0.68" style="stop-color:#FFCC99"/>
					<a:midPointStop  offset="0.32" style="stop-color:#4A220A"/>
					<a:midPointStop  offset="0.5" style="stop-color:#4A220A"/>
					<a:midPointStop  offset="0.4136" style="stop-color:#BA632C"/>
					<a:midPointStop  offset="0.5" style="stop-color:#BA632C"/>
					<a:midPointStop  offset="0.68" style="stop-color:#FFCC99"/>
				</linearGradient>
				<path fill-rule="evenodd" clip-rule="evenodd" fill="url(#XMLID_7_)" d="M72.158,61.76v12.922H53.1V61.76H72.158z"/>
				<path fill-rule="evenodd" clip-rule="evenodd" fill="#7D4228" d="M71.273,68.399v-0.666H53.979v0.666H71.273z"/>
				
					<linearGradient id="XMLID_8_" gradientUnits="userSpaceOnUse" x1="37.626" y1="17.167" x2="52.281" y2="-1.5906" gradientTransform="matrix(0.907 0 0 0.3892 21.853 61.723)">
					<stop  offset="0.26" style="stop-color:#9D9CAB"/>
					<stop  offset="0.74" style="stop-color:#FFFFFF"/>
					<a:midPointStop  offset="0.26" style="stop-color:#9D9CAB"/>
					<a:midPointStop  offset="0.5" style="stop-color:#9D9CAB"/>
					<a:midPointStop  offset="0.74" style="stop-color:#FFFFFF"/>
				</linearGradient>
				<path fill-rule="evenodd" clip-rule="evenodd" fill="url(#XMLID_8_)" d="M71.273,61.775v5.958H53.979v-5.958H71.273z"/>
				
					<linearGradient id="XMLID_9_" gradientUnits="userSpaceOnUse" x1="41.5864" y1="161.8037" x2="48.3235" y2="142.2378" gradientTransform="matrix(0.907 0 0 -0.3554 21.853 125.1066)">
					<stop  offset="0.2" style="stop-color:#000000"/>
					<stop  offset="0.8" style="stop-color:#CCCCFF"/>
					<a:midPointStop  offset="0.2" style="stop-color:#000000"/>
					<a:midPointStop  offset="0.5" style="stop-color:#000000"/>
					<a:midPointStop  offset="0.8" style="stop-color:#CCCCFF"/>
				</linearGradient>
				<path fill-rule="evenodd" clip-rule="evenodd" fill="url(#XMLID_9_)" d="M71.273,73.801v-5.444H53.979v5.444H71.273z"/>
				
					<linearGradient id="XMLID_10_" gradientUnits="userSpaceOnUse" x1="35.2886" y1="844.0859" x2="54.6186" y2="843.7485" gradientTransform="matrix(0.907 0 0 -0.0343 21.853 97.574)">
					<stop  offset="0.15" style="stop-color:#BA632C"/>
					<stop  offset="0.85" style="stop-color:#FFCC99"/>
					<a:midPointStop  offset="0.15" style="stop-color:#BA632C"/>
					<a:midPointStop  offset="0.5" style="stop-color:#BA632C"/>
					<a:midPointStop  offset="0.85" style="stop-color:#FFCC99"/>
				</linearGradient>
				<path fill-rule="evenodd" clip-rule="evenodd" fill="url(#XMLID_10_)" d="M71.273,68.891v-0.526H53.979v0.526H71.273z"/>
				<path fill-rule="evenodd" clip-rule="evenodd" fill="#7D4228" d="M63.115,61.485v13.479h-0.98V61.485H63.115z"/>
				
					<linearGradient id="XMLID_11_" gradientUnits="userSpaceOnUse" x1="102.2764" y1="61.3833" x2="110.049" y2="61.1119" gradientTransform="matrix(1.1687 0 0 1 -56.4297 12.9775)">
					<stop  offset="0.11" style="stop-color:#BA632C"/>
					<stop  offset="0.89" style="stop-color:#FFCC99"/>
					<a:midPointStop  offset="0.11" style="stop-color:#BA632C"/>
					<a:midPointStop  offset="0.5" style="stop-color:#BA632C"/>
					<a:midPointStop  offset="0.89" style="stop-color:#FFCC99"/>
				</linearGradient>
				<path fill-rule="evenodd" clip-rule="evenodd" fill="url(#XMLID_11_)" d="M63.115,74.683h9.062l-0.874-0.913h-8.188V74.683z"/>
				
					<linearGradient id="XMLID_12_" gradientUnits="userSpaceOnUse" x1="93.7188" y1="61.249" x2="101.4473" y2="61.249" gradientTransform="matrix(1.1687 0 0 1 -56.4297 12.9775)">
					<stop  offset="0.17" style="stop-color:#BA632C"/>
					<stop  offset="0.83" style="stop-color:#FFCC99"/>
					<a:midPointStop  offset="0.17" style="stop-color:#BA632C"/>
					<a:midPointStop  offset="0.5" style="stop-color:#BA632C"/>
					<a:midPointStop  offset="0.83" style="stop-color:#FFCC99"/>
				</linearGradient>
				<path fill-rule="evenodd" clip-rule="evenodd" fill="url(#XMLID_12_)" d="M53.1,74.683h9.032V73.77h-8.153L53.1,74.683z"/>
				
					<linearGradient id="XMLID_13_" gradientUnits="userSpaceOnUse" x1="81.5049" y1="301.4268" x2="100.5723" y2="301.4268" gradientTransform="matrix(0 -0.679 -0.029 0 70.9063 130.0547)">
					<stop  offset="0.15" style="stop-color:#BA632C"/>
					<stop  offset="0.85" style="stop-color:#FFCC99"/>
					<a:midPointStop  offset="0.15" style="stop-color:#BA632C"/>
					<a:midPointStop  offset="0.5" style="stop-color:#BA632C"/>
					<a:midPointStop  offset="0.85" style="stop-color:#FFCC99"/>
				</linearGradient>
				<path fill-rule="evenodd" clip-rule="evenodd" fill="url(#XMLID_13_)" d="M62.386,61.766h-0.442v12.947h0.442V61.766z"/>
				
					<linearGradient id="XMLID_14_" gradientUnits="userSpaceOnUse" x1="92.5479" y1="52.2021" x2="99.0828" y2="66.2163" gradientTransform="matrix(1.0391 0 0 1 -51.6318 12.4482)">
					<stop  offset="0.17" style="stop-color:#BA632C"/>
					<stop  offset="0.83" style="stop-color:#FFCC99"/>
					<a:midPointStop  offset="0.17" style="stop-color:#BA632C"/>
					<a:midPointStop  offset="0.5" style="stop-color:#BA632C"/>
					<a:midPointStop  offset="0.83" style="stop-color:#FFCC99"/>
				</linearGradient>
				<path fill-rule="evenodd" clip-rule="evenodd" fill="url(#XMLID_14_)" d="M43.115,64.022l0.953,15.032l1.67,0.333l5.714-5.157
					l1.084-8.433l-6.895-1.241L43.115,64.022z"/>
				
					<linearGradient id="XMLID_15_" gradientUnits="userSpaceOnUse" x1="100.6289" y1="51.1216" x2="91.532" y2="52.7256" gradientTransform="matrix(1.0391 0 0 1 -51.6318 12.4482)">
					<stop  offset="0.01" style="stop-color:#BA632C"/>
					<stop  offset="0.99" style="stop-color:#FFCC99"/>
					<a:midPointStop  offset="0.01" style="stop-color:#BA632C"/>
					<a:midPointStop  offset="0.5" style="stop-color:#BA632C"/>
					<a:midPointStop  offset="0.99" style="stop-color:#FFCC99"/>
				</linearGradient>
				<path fill-rule="evenodd" clip-rule="evenodd" fill="url(#XMLID_15_)" d="M51.452,61.664l-8.229,2.329l-0.107,0.03l2.526,0.534
					l6.895,1.241l0.021-0.163l0.506-3.927L51.452,61.664z"/>
				<path fill-rule="evenodd" clip-rule="evenodd" fill="#7D4228" d="M53.063,61.73l-8.338,2.604l0.953,15.031l7.385-4.824V61.73z"
					/>
				<linearGradient id="XMLID_16_" gradientUnits="userSpaceOnUse" x1="48.7354" y1="69.875" x2="55.5284" y2="76.4287">
					<stop  offset="0" style="stop-color:#4A220A"/>
					<stop  offset="0.4808" style="stop-color:#BA632C"/>
					<stop  offset="1" style="stop-color:#FFFFFF"/>
					<a:midPointStop  offset="0" style="stop-color:#4A220A"/>
					<a:midPointStop  offset="0.5" style="stop-color:#4A220A"/>
					<a:midPointStop  offset="0.4808" style="stop-color:#BA632C"/>
					<a:midPointStop  offset="0.5" style="stop-color:#BA632C"/>
					<a:midPointStop  offset="1" style="stop-color:#FFFFFF"/>
				</linearGradient>
				<path fill-rule="evenodd" clip-rule="evenodd" fill="url(#XMLID_16_)" d="M51.957,63.28L52.32,74.06l-5.483,3.688l-0.625-12.574
					L51.957,63.28z"/>
				
					<linearGradient id="XMLID_17_" gradientUnits="userSpaceOnUse" x1="28.6934" y1="54.1001" x2="37.5169" y2="61.2453" gradientTransform="matrix(1.0391 0 0 1 14.5068 12.6172)">
					<stop  offset="0.17" style="stop-color:#BA632C"/>
					<stop  offset="0.83" style="stop-color:#FFCC99"/>
					<a:midPointStop  offset="0.17" style="stop-color:#BA632C"/>
					<a:midPointStop  offset="0.5" style="stop-color:#BA632C"/>
					<a:midPointStop  offset="0.83" style="stop-color:#FFCC99"/>
				</linearGradient>
				<path fill-rule="evenodd" clip-rule="evenodd" fill="url(#XMLID_17_)" d="M50.88,63.689l-4.688,1.544l0.062,1.134l5.414-1.854
					L50.88,63.689 M46.303,67.251l0.072,1.321l5.292-2.131l-0.831-0.883L46.303,67.251 M46.428,69.439l0.069,1.236l5.169-2.49
					l-0.716-0.697L46.428,69.439 M46.547,71.545l0.067,1.18l5.053-2.768l-0.719-0.658L46.547,71.545 M46.665,73.583l0.061,1.069
					l4.941-2.952l-0.696-0.602L46.665,73.583 M46.773,75.499l0.078,1.328l0.463-0.26l4.352-2.886l-0.872-0.699L46.773,75.499"/>
				<path fill-rule="evenodd" clip-rule="evenodd" fill="#7D4228" d="M82.079,64.098l-0.956,15.031l-1.671,0.325l-5.714-5.157
					l-1.083-8.434l6.893-1.231L82.079,64.098z"/>
				
					<linearGradient id="XMLID_18_" gradientUnits="userSpaceOnUse" x1="104.4775" y1="54.4614" x2="111.1124" y2="49.4617" gradientTransform="matrix(-1.0391 0 0 1 188.6162 12.4678)">
					<stop  offset="0" style="stop-color:#BA632C"/>
					<stop  offset="1" style="stop-color:#FFCC99"/>
					<a:midPointStop  offset="0" style="stop-color:#BA632C"/>
					<a:midPointStop  offset="0.5" style="stop-color:#BA632C"/>
					<a:midPointStop  offset="1" style="stop-color:#FFCC99"/>
				</linearGradient>
				<path fill-rule="evenodd" clip-rule="evenodd" fill="url(#XMLID_18_)" d="M73.738,61.736l8.229,2.331l0.112,0.03l-2.531,0.534
					l-6.893,1.231l-0.023-0.156l-0.505-3.926L73.738,61.736z"/>
				
					<linearGradient id="XMLID_19_" gradientUnits="userSpaceOnUse" x1="49.2163" y1="57.7944" x2="39.8085" y2="59.2845" gradientTransform="matrix(-1.0391 0 0 1 122.5381 12.1533)">
					<stop  offset="0.23" style="stop-color:#BA632C"/>
					<stop  offset="0.77" style="stop-color:#FFCC99"/>
					<a:midPointStop  offset="0.23" style="stop-color:#BA632C"/>
					<a:midPointStop  offset="0.5" style="stop-color:#BA632C"/>
					<a:midPointStop  offset="0.77" style="stop-color:#FFCC99"/>
				</linearGradient>
				<path fill-rule="evenodd" clip-rule="evenodd" fill="url(#XMLID_19_)" d="M72.127,61.804l8.342,2.604l-0.958,15.031
					l-7.384-4.831V61.804z"/>
				<linearGradient id="XMLID_20_" gradientUnits="userSpaceOnUse" x1="76.7598" y1="69.6436" x2="67.5667" y2="78.5955">
					<stop  offset="0" style="stop-color:#4A220A"/>
					<stop  offset="0.4808" style="stop-color:#BA632C"/>
					<stop  offset="1" style="stop-color:#FFFFFF"/>
					<a:midPointStop  offset="0" style="stop-color:#4A220A"/>
					<a:midPointStop  offset="0.5" style="stop-color:#4A220A"/>
					<a:midPointStop  offset="0.4808" style="stop-color:#BA632C"/>
					<a:midPointStop  offset="0.5" style="stop-color:#BA632C"/>
					<a:midPointStop  offset="1" style="stop-color:#FFFFFF"/>
				</linearGradient>
				<path fill-rule="evenodd" clip-rule="evenodd" fill="url(#XMLID_20_)" d="M73.232,63.348l-0.363,10.779l5.484,3.695
					l0.623-12.576L73.232,63.348z"/>
				
					<linearGradient id="XMLID_21_" gradientUnits="userSpaceOnUse" x1="47.7495" y1="54.2437" x2="40.4313" y2="60.1698" gradientTransform="matrix(-1.0391 0 0 1 122.4775 12.6357)">
					<stop  offset="0.07" style="stop-color:#BA632C"/>
					<stop  offset="0.93" style="stop-color:#FDCC8A"/>
					<a:midPointStop  offset="0.07" style="stop-color:#BA632C"/>
					<a:midPointStop  offset="0.5" style="stop-color:#BA632C"/>
					<a:midPointStop  offset="0.93" style="stop-color:#FDCC8A"/>
				</linearGradient>
				<path fill-rule="evenodd" clip-rule="evenodd" fill="url(#XMLID_21_)" d="M74.31,63.755l4.689,1.551l-0.06,1.136l-5.417-1.861
					L74.31,63.755 M78.888,67.317l-0.075,1.321l-5.29-2.13l0.839-0.883L78.888,67.317 M78.761,69.506l-0.065,1.246l-5.173-2.49
					l0.719-0.706L78.761,69.506 M78.644,71.61l-0.066,1.188l-5.055-2.768l0.719-0.663L78.644,71.61 M78.524,73.651l-0.059,1.068
					l-4.943-2.946l0.697-0.608L78.524,73.651 M78.42,75.573l-0.074,1.33l-0.467-0.27l-4.356-2.886l0.876-0.689L78.42,75.573"/>
			</g>
			<g>
				<g>
					<path fill-rule="evenodd" clip-rule="evenodd" fill="#7D4228" d="M75.55,89.083v33.377H51.726V89.083H75.55z"/>
					
						<linearGradient id="XMLID_22_" gradientUnits="userSpaceOnUse" x1="45.6133" y1="71.582" x2="21.7961" y2="71.9978" gradientTransform="matrix(1 0 0 0.3026 29.917 67.0876)">
						<stop  offset="0.15" style="stop-color:#BA632C"/>
						<stop  offset="0.85" style="stop-color:#FFFFFF"/>
						<a:midPointStop  offset="0.15" style="stop-color:#BA632C"/>
						<a:midPointStop  offset="0.5" style="stop-color:#BA632C"/>
						<a:midPointStop  offset="0.85" style="stop-color:#FFFFFF"/>
					</linearGradient>
					<path fill-rule="evenodd" clip-rule="evenodd" fill="url(#XMLID_22_)" d="M51.726,89.083H75.55l-0.806-0.549H52.536
						L51.726,89.083z"/>
					
						<linearGradient id="XMLID_23_" gradientUnits="userSpaceOnUse" x1="31.459" y1="79.7539" x2="31.459" y2="113.1289" gradientTransform="matrix(0.8828 0 0 0.9377 35.8652 15.9744)">
						<stop  offset="0.25" style="stop-color:#4A220A"/>
						<stop  offset="0.545" style="stop-color:#BA632C"/>
						<stop  offset="0.75" style="stop-color:#FFFFFF"/>
						<a:midPointStop  offset="0.25" style="stop-color:#4A220A"/>
						<a:midPointStop  offset="0.5" style="stop-color:#4A220A"/>
						<a:midPointStop  offset="0.545" style="stop-color:#BA632C"/>
						<a:midPointStop  offset="0.5" style="stop-color:#BA632C"/>
						<a:midPointStop  offset="0.75" style="stop-color:#FFFFFF"/>
					</linearGradient>
					<path fill-rule="evenodd" clip-rule="evenodd" fill="url(#XMLID_23_)" d="M74.153,90.76v31.296H53.121V90.76H74.153z"/>
					
						<linearGradient id="XMLID_24_" gradientUnits="userSpaceOnUse" x1="26.3906" y1="80.5283" x2="44.7189" y2="109.8597" gradientTransform="matrix(1.1503 0 0 1.0252 22.8096 9.1191)">
						<stop  offset="0.2" style="stop-color:#BA632C"/>
						<stop  offset="0.8" style="stop-color:#FF9233"/>
						<a:midPointStop  offset="0.2" style="stop-color:#BA632C"/>
						<a:midPointStop  offset="0.5" style="stop-color:#BA632C"/>
						<a:midPointStop  offset="0.8" style="stop-color:#FF9233"/>
					</linearGradient>
					<path fill-rule="evenodd" clip-rule="evenodd" fill="url(#XMLID_24_)" d="M53.723,91.366h19.972v30.689H53.723V91.366z"/>
					<path fill-rule="evenodd" clip-rule="evenodd" fill="#3B2005" d="M70.176,105.599c1.228,0,2.221,0.803,2.221,1.785
						c0,0.991-0.993,1.789-2.221,1.789c-1.229,0-2.223-0.798-2.223-1.789C67.953,106.401,68.947,105.599,70.176,105.599z"/>
					<path fill-rule="evenodd" clip-rule="evenodd" fill="#663300" d="M69.622,105.599c1.533,0,2.774,0.613,2.774,1.366
						c0,0.757-1.241,1.369-2.774,1.369c-1.532,0-2.774-0.612-2.774-1.369C66.848,106.212,68.09,105.599,69.622,105.599z"/>
					<path fill-rule="evenodd" clip-rule="evenodd" fill="#CC9933" d="M69.622,105.796c1.299,0,2.349,0.482,2.349,1.075
						c0,0.599-1.05,1.085-2.349,1.085c-1.298,0-2.353-0.486-2.353-1.085C67.27,106.278,68.324,105.796,69.622,105.796z"/>
					
						<linearGradient id="XMLID_25_" gradientUnits="userSpaceOnUse" x1="34.5835" y1="111.2988" x2="30.7641" y2="110.9647" gradientTransform="matrix(0.8542 0 0 0.3367 41.7114 69.1855)">
						<stop  offset="0.22" style="stop-color:#CC9933"/>
						<stop  offset="0.78" style="stop-color:#FFFFFF"/>
						<a:midPointStop  offset="0.22" style="stop-color:#CC9933"/>
						<a:midPointStop  offset="0.5" style="stop-color:#CC9933"/>
						<a:midPointStop  offset="0.78" style="stop-color:#FFFFFF"/>
					</linearGradient>
					<path fill-rule="evenodd" clip-rule="evenodd" fill="url(#XMLID_25_)" d="M69.622,105.956c0.907,0,1.644,0.289,1.644,0.646
						c0,0.355-0.736,0.649-1.644,0.649c-0.904,0-1.644-0.294-1.644-0.649C67.979,106.245,68.718,105.956,69.622,105.956z"/>
					<g>
						
							<linearGradient id="XMLID_26_" gradientUnits="userSpaceOnUse" x1="-208.9224" y1="80.2256" x2="-208.9224" y2="110.1611" gradientTransform="matrix(0.0928 0 0 1.0252 75.0894 9.1191)">
							<stop  offset="0.35" style="stop-color:#BA632C"/>
							<stop  offset="0.65" style="stop-color:#FF9233"/>
							<a:midPointStop  offset="0.35" style="stop-color:#BA632C"/>
							<a:midPointStop  offset="0.5" style="stop-color:#BA632C"/>
							<a:midPointStop  offset="0.65" style="stop-color:#FF9233"/>
						</linearGradient>
						<path fill-rule="evenodd" clip-rule="evenodd" fill="url(#XMLID_26_)" d="M54.896,91.366h1.61v30.689h-1.61V91.366z"/>
						
							<linearGradient id="XMLID_27_" gradientUnits="userSpaceOnUse" x1="299.2715" y1="79.1074" x2="309.7249" y2="111.2799" gradientTransform="matrix(-0.0928 0 0 1.0252 85.5683 9.1191)">
							<stop  offset="0.15" style="stop-color:#914E24"/>
							<stop  offset="0.85" style="stop-color:#FF9233"/>
							<a:midPointStop  offset="0.15" style="stop-color:#914E24"/>
							<a:midPointStop  offset="0.5" style="stop-color:#914E24"/>
							<a:midPointStop  offset="0.85" style="stop-color:#FF9233"/>
						</linearGradient>
						<path fill-rule="evenodd" clip-rule="evenodd" fill="url(#XMLID_27_)" d="M58.115,91.366h-1.609v30.689h1.609V91.366z"/>
					</g>
					<g>
						
							<linearGradient id="XMLID_28_" gradientUnits="userSpaceOnUse" x1="-184.4927" y1="80.2256" x2="-184.4927" y2="110.1611" gradientTransform="matrix(0.0928 0 0 1.0252 76.0416 9.1191)">
							<stop  offset="0.2" style="stop-color:#BA632C"/>
							<stop  offset="0.8" style="stop-color:#FF9233"/>
							<a:midPointStop  offset="0.2" style="stop-color:#BA632C"/>
							<a:midPointStop  offset="0.5" style="stop-color:#BA632C"/>
							<a:midPointStop  offset="0.8" style="stop-color:#FF9233"/>
						</linearGradient>
						<path fill-rule="evenodd" clip-rule="evenodd" fill="url(#XMLID_28_)" d="M58.115,91.366h1.611v30.689h-1.611V91.366z"/>
						
							<linearGradient id="XMLID_29_" gradientUnits="userSpaceOnUse" x1="274.8184" y1="79.1016" x2="285.2761" y2="111.287" gradientTransform="matrix(-0.0928 0 0 1.0252 86.5214 9.1191)">
							<stop  offset="0.15" style="stop-color:#914E24"/>
							<stop  offset="0.85" style="stop-color:#FF9233"/>
							<a:midPointStop  offset="0.15" style="stop-color:#914E24"/>
							<a:midPointStop  offset="0.5" style="stop-color:#914E24"/>
							<a:midPointStop  offset="0.85" style="stop-color:#FF9233"/>
						</linearGradient>
						<path fill-rule="evenodd" clip-rule="evenodd" fill="url(#XMLID_29_)" d="M61.34,91.366h-1.613v30.689h1.613V91.366z"/>
					</g>
				</g>
				<g>
					<g>
						<linearGradient id="XMLID_30_" gradientUnits="userSpaceOnUse" x1="63.4917" y1="123.9502" x2="63.8493" y2="132.397">
							<stop  offset="0" style="stop-color:#AB9F9F"/>
							<stop  offset="1" style="stop-color:#E3D6D6"/>
							<a:midPointStop  offset="0" style="stop-color:#AB9F9F"/>
							<a:midPointStop  offset="0.5" style="stop-color:#AB9F9F"/>
							<a:midPointStop  offset="1" style="stop-color:#E3D6D6"/>
						</linearGradient>
						<path fill-rule="evenodd" clip-rule="evenodd" fill="url(#XMLID_30_)" d="M50.877,127.466h9.673l0.98,1.473l1.992-1.087
							l12.88-0.386l-0.876-5.124H51.751L50.877,127.466z"/>
						
							<linearGradient id="XMLID_31_" gradientUnits="userSpaceOnUse" x1="24.9346" y1="52.5815" x2="45.8556" y2="47.3653" gradientTransform="matrix(1.1687 0 0 -0.8307 22.0176 169.8721)">
							<stop  offset="0.11" style="stop-color:#8A8080"/>
							<stop  offset="0.89" style="stop-color:#E3D6D6"/>
							<a:midPointStop  offset="0.11" style="stop-color:#8A8080"/>
							<a:midPointStop  offset="0.5" style="stop-color:#8A8080"/>
							<a:midPointStop  offset="0.89" style="stop-color:#E3D6D6"/>
						</linearGradient>
						<path fill-rule="evenodd" clip-rule="evenodd" fill="url(#XMLID_31_)" d="M50.915,127.436h9.947l0.98-1.495l0.308,1.495
							l-0.562,1.337l1.552-1.337h13.202l-0.145,1.96H51.06L50.915,127.436z"/>
						
							<linearGradient id="XMLID_32_" gradientUnits="userSpaceOnUse" x1="28.2441" y1="105.0078" x2="29.5269" y2="104.9854" gradientTransform="matrix(1 0 0 1 32.6167 21.7148)">
							<stop  offset="0.16" style="stop-color:#6E6868"/>
							<stop  offset="0.84" style="stop-color:#E3D6D6"/>
							<a:midPointStop  offset="0.16" style="stop-color:#6E6868"/>
							<a:midPointStop  offset="0.5" style="stop-color:#6E6868"/>
							<a:midPointStop  offset="0.84" style="stop-color:#E3D6D6"/>
						</linearGradient>
						<path fill-rule="evenodd" clip-rule="evenodd" fill="url(#XMLID_32_)" d="M61.827,125.963l-0.965,1.492l1.285-0.011
							L61.827,125.963z"/>
						
							<linearGradient id="XMLID_33_" gradientUnits="userSpaceOnUse" x1="30.4995" y1="104.9717" x2="29.1966" y2="104.9944" gradientTransform="matrix(1 0 0 1 32.6167 21.7148)">
							<stop  offset="0.13" style="stop-color:#AB9F9F"/>
							<stop  offset="0.87" style="stop-color:#FFFFFF"/>
							<a:midPointStop  offset="0.13" style="stop-color:#AB9F9F"/>
							<a:midPointStop  offset="0.5" style="stop-color:#AB9F9F"/>
							<a:midPointStop  offset="0.87" style="stop-color:#FFFFFF"/>
						</linearGradient>
						<path fill-rule="evenodd" clip-rule="evenodd" fill="url(#XMLID_33_)" d="M62.146,127.444l0.958-0.009l-1.278-1.473
							L62.146,127.444z"/>
					</g>
					
						<linearGradient id="XMLID_34_" gradientUnits="userSpaceOnUse" x1="16.4834" y1="112.165" x2="11.2629" y2="112.3473" gradientTransform="matrix(0.7281 0 0 0.7281 44.3467 42.3296)">
						<stop  offset="0" style="stop-color:#AB9F9F"/>
						<stop  offset="1" style="stop-color:#FFFFFF"/>
						<a:midPointStop  offset="0" style="stop-color:#AB9F9F"/>
						<a:midPointStop  offset="0.5" style="stop-color:#AB9F9F"/>
						<a:midPointStop  offset="1" style="stop-color:#FFFFFF"/>
					</linearGradient>
					<path fill-rule="evenodd" clip-rule="evenodd" fill="url(#XMLID_34_)" d="M55.508,122.612c0.138,0,0.271,0,0.404,0.006
						c-1.369,0.099-2.037,0.651-2.037,1.382s0.879,1.387,2.441,1.387c0.003,0,0.003,0,0.008,0c-0.256,0.041-0.531,0.057-0.816,0.057
						c-1.622,0-2.939-0.636-2.939-1.413C52.569,123.25,53.886,122.612,55.508,122.612z"/>
					
						<linearGradient id="XMLID_35_" gradientUnits="userSpaceOnUse" x1="19.231" y1="113.4932" x2="14.0084" y2="113.6755" gradientTransform="matrix(0.7281 0 0 0.7281 45.1855 42.7339)">
						<stop  offset="0" style="stop-color:#AB9F9F"/>
						<stop  offset="1" style="stop-color:#FFFFFF"/>
						<a:midPointStop  offset="0" style="stop-color:#AB9F9F"/>
						<a:midPointStop  offset="0.5" style="stop-color:#AB9F9F"/>
						<a:midPointStop  offset="1" style="stop-color:#FFFFFF"/>
					</linearGradient>
					<path fill-rule="evenodd" clip-rule="evenodd" fill="url(#XMLID_35_)" d="M58.347,123.981c0.14,0,0.271,0,0.401,0.011
						c-1.37,0.097-2.038,0.648-2.038,1.377c0,0.731,0.883,1.387,2.445,1.387c0.004,0,0.004,0,0.009,0
						c-0.262,0.038-0.536,0.061-0.817,0.061c-1.617,0-2.939-0.635-2.939-1.414C55.407,124.615,56.729,123.981,58.347,123.981z"/>
					
						<linearGradient id="XMLID_36_" gradientUnits="userSpaceOnUse" x1="37.4399" y1="107.7676" x2="32.221" y2="107.9498" gradientTransform="matrix(1.1696 0 0 0.8793 26.6406 29.869)">
						<stop  offset="0" style="stop-color:#AB9F9F"/>
						<stop  offset="1" style="stop-color:#FFFFFF"/>
						<a:midPointStop  offset="0" style="stop-color:#AB9F9F"/>
						<a:midPointStop  offset="0.5" style="stop-color:#AB9F9F"/>
						<a:midPointStop  offset="1" style="stop-color:#FFFFFF"/>
					</linearGradient>
					<path fill-rule="evenodd" clip-rule="evenodd" fill="url(#XMLID_36_)" d="M69.081,122.953c0.222,0,0.438,0,0.653,0.015
						c-2.208,0.115-3.277,0.779-3.277,1.662c0,0.884,1.414,1.679,3.923,1.679c0.007,0,0.011,0,0.018,0
						c-0.422,0.043-0.861,0.066-1.316,0.066c-2.602,0-4.719-0.765-4.719-1.707C64.362,123.722,66.479,122.953,69.081,122.953z"/>
				</g>
			</g>
			<path fill="none" stroke="#757575" d="M113.191,66.933c0.089-0.947-0.297-1.872-1.021-2.445L65.194,27.254
				c-0.944-0.748-2.248-0.727-3.17,0.05L16.775,65.448c-0.669,0.561-1.031,1.437-0.965,2.336l0.027,0.368
				c-0.03,0.205-0.042,0.415-0.027,0.627l3.758,51.273c0.104,1.416,1.227,2.514,2.581,2.514h83.603c1.329,0,2.443-1.063,2.573-2.459
				l4.865-52.18c0.022-0.243,0.012-0.485-0.025-0.72L113.191,66.933z"/>
			<g>
				<g>
					
						<linearGradient id="XMLID_37_" gradientUnits="userSpaceOnUse" x1="133.1191" y1="39.5649" x2="133.1191" y2="-22.905" gradientTransform="matrix(-1 0 0 1.0364 225.5508 55.2929)">
						<stop  offset="0" style="stop-color:#FFFFFF"/>
						<stop  offset="0.736" style="stop-color:#FF6200"/>
						<stop  offset="1" style="stop-color:#D94400"/>
						<a:midPointStop  offset="0" style="stop-color:#FFFFFF"/>
						<a:midPointStop  offset="0.5" style="stop-color:#FFFFFF"/>
						<a:midPointStop  offset="0.736" style="stop-color:#FF6200"/>
						<a:midPointStop  offset="0.5" style="stop-color:#FF6200"/>
						<a:midPointStop  offset="1" style="stop-color:#D94400"/>
					</linearGradient>
					<path fill="url(#XMLID_37_)" d="M64.414,0.669v35.952l56.037,45.498L107.923,39.34L64.414,0.669z"/>
					
						<linearGradient id="XMLID_38_" gradientUnits="userSpaceOnUse" x1="-91.1562" y1="39.5654" x2="-91.1562" y2="-22.9045" gradientTransform="matrix(1 0 0 1.0364 127.5513 55.2929)">
						<stop  offset="0" style="stop-color:#FFFFFF"/>
						<stop  offset="0.8539" style="stop-color:#FF6200"/>
						<stop  offset="1" style="stop-color:#F25D00"/>
						<a:midPointStop  offset="0" style="stop-color:#FFFFFF"/>
						<a:midPointStop  offset="0.5" style="stop-color:#FFFFFF"/>
						<a:midPointStop  offset="0.8539" style="stop-color:#FF6200"/>
						<a:midPointStop  offset="0.5" style="stop-color:#FF6200"/>
						<a:midPointStop  offset="1" style="stop-color:#F25D00"/>
					</linearGradient>
					<path fill="url(#XMLID_38_)" d="M64.414,0.669v35.952L8.376,82.118L20.902,39.34L64.414,0.669z"/>
					<linearGradient id="XMLID_39_" gradientUnits="userSpaceOnUse" x1="64.3877" y1="65.124" x2="64.3877" y2="35.569">
						<stop  offset="0" style="stop-color:#FFFFFF"/>
						<stop  offset="0.8539" style="stop-color:#FF6200"/>
						<stop  offset="1" style="stop-color:#F25D00"/>
						<a:midPointStop  offset="0" style="stop-color:#FFFFFF"/>
						<a:midPointStop  offset="0.5" style="stop-color:#FFFFFF"/>
						<a:midPointStop  offset="0.8539" style="stop-color:#FF6200"/>
						<a:midPointStop  offset="0.5" style="stop-color:#FF6200"/>
						<a:midPointStop  offset="1" style="stop-color:#F25D00"/>
					</linearGradient>
					<path fill="url(#XMLID_39_)" d="M64.414,39.236l53.451,42.133l1.397,1.107l1.14-0.484l-1.053-2.151l-0.784-0.631L64.414,35.233
						L9.657,79.693l-0.671,0.407l-0.612,1.996l1.224,0.365l1.086-0.871L64.414,39.236z"/>
					
						<linearGradient id="XMLID_40_" gradientUnits="userSpaceOnUse" x1="33702.0625" y1="33557.1055" x2="-39713.7109" y2="-39858.3906" gradientTransform="matrix(-1 0 0 1.0364 225.5508 65.4726)">
						<stop  offset="0" style="stop-color:#FF6200"/>
						<stop  offset="1" style="stop-color:#AE0000"/>
						<a:midPointStop  offset="0" style="stop-color:#FF6200"/>
						<a:midPointStop  offset="0.5" style="stop-color:#FF6200"/>
						<a:midPointStop  offset="1" style="stop-color:#AE0000"/>
					</linearGradient>
					<path fill="url(#XMLID_40_)" d="M64.414,40.62l53.451,42.137l1.397,1.105l1.169-1.766l-1.866-1.507L64.414,36.616L9.657,81.08
						l-1.283,1.046l1.224,1.716l1.086-0.861L64.414,40.62z"/>
				</g>
				<linearGradient id="XMLID_41_" gradientUnits="userSpaceOnUse" x1="91.2715" y1="-9.918" x2="18.5814" y2="62.6256">
					<stop  offset="0" style="stop-color:#FFFFFF"/>
					<stop  offset="0.1663" style="stop-color:#FFE8DA"/>
					<stop  offset="0.5383" style="stop-color:#FFAD7C"/>
					<stop  offset="1" style="stop-color:#FF6000"/>
					<a:midPointStop  offset="0" style="stop-color:#FFFFFF"/>
					<a:midPointStop  offset="0.5254" style="stop-color:#FFFFFF"/>
					<a:midPointStop  offset="1" style="stop-color:#FF6000"/>
				</linearGradient>
				<path opacity="0.68" fill="url(#XMLID_41_)" d="M63.029,35.637V4.613c-0.291-0.177-0.653-0.181-0.936,0.038L36.75,27.126
					c1.188,9.23,5.414,14.965,13.059,18.036l12.224-9.41C62.331,35.515,62.695,35.521,63.029,35.637z"/>
				<path fill="#993300" d="M64.082,0.295L20.463,39.062L8.1,81.283l-0.277,0.903l0.143,0.229l1.53,2.145l1.499-1.188
					c0,0,52.807-41.633,53.419-42.115c0.612,0.482,53.141,41.893,53.141,41.893l1.823,1.442l1.596-2.409l-0.044-0.205
					l-12.567-42.916L64.414,0L64.082,0.295z M64.414,1.338c0.653,0.58,42.858,38.092,43.07,38.28
					c0.08,0.272,12.263,41.875,12.411,42.383c-0.135,0.204-0.463,0.699-0.749,1.132c-0.412-0.326-0.971-0.769-0.971-0.769
					L64.414,39.983L10.375,82.588c0,0-0.357,0.283-0.675,0.535c-0.293-0.41-0.626-0.877-0.782-1.096
					c0.062-0.198,0.141-0.457,0.141-0.457s12.204-41.678,12.284-41.952C21.554,39.43,63.761,1.918,64.414,1.338z"/>
			</g>
		</g>
	</g>
</svg>
