<?xml version="1.0"?>
<!DOCTYPE svg PUBLIC "-//W3C//DTD SVG 1.0//EN"
	"http://www.w3.org/TR/2001/REC-SVG-20010904/DTD/svg10.dtd">
<svg xmlns:x="http://ns.adobe.com/Extensibility/1.0/"
	xmlns:i="http://ns.adobe.com/AdobeIllustrator/10.0/" xmlns:graph=""
	xmlns="http://www.w3.org/2000/svg" xmlns:xlink="http://www.w3.org/1999/xlink"
	xmlns:a="http://ns.adobe.com/AdobeSVGViewerExtensions/3.0/" width="119"
	height="123" viewBox="0.023 -0.342 119 123" overflow="visible"
	enable-background="new 0.023 -0.342 119 123" xml:space="preserve">
	<g id="Layer_1_2_">
		<path
			d="M32.281 101.717 C36.394 102.298 41.086 98.848 43.329 93.842 C43.076 89.973 40.948
				87.029 37.548 86.552 C33.754 86.021 29.498 88.714 26.88 92.908 C26.419 97.479
				28.529 101.19 32.281 101.717 z"
			 style="fill:none"/>
		<g>
			<linearGradient id="XMLID_1_" gradientUnits="userSpaceOnUse" x1="59.4507"
				y1="126.196" x2="59.4507" y2="94.6883">
				<stop offset="0" style="stop-color:rgb(158,158,158)"/>
				<stop offset="1" style="stop-color:rgb(97,97,97)"/>
			</linearGradient>
			<path
				d="M100.112 106.448 C100.112 115.559 81.906 122.946 59.449 122.946 C36.993 122.946 18.788
					115.559 18.788 106.448 C18.788 97.337 36.993 89.95 59.449 89.95 C81.906
					89.95 100.112 97.337 100.112 106.448 z"
				 style="fill:url(#XMLID_1_)"/>
			<linearGradient id="XMLID_2_" gradientUnits="userSpaceOnUse" x1="59.4634"
				y1="102.881" x2="59.4634" y2="123.654">
				<stop offset="0" style="stop-color:rgb(255,255,255)"/>
				<stop offset="1" style="stop-color:rgb(207,207,207)"/>
				<a:midPointStop offset="0" style="stop-color:#FFFFFF"/>
				<a:midPointStop offset="0.5" style="stop-color:#FFFFFF"/>
				<a:midPointStop offset="1" style="stop-color:#CFCFCF"/>
			</linearGradient>
			<path
				d="M98.757 106.08 C98.757 113.93 81.166 120.289 59.465 120.289 C37.764 120.289 20.171
					113.93 20.171 106.08 C20.171 98.232 37.764 91.872 59.465 91.872 C81.166 91.872
					98.757 98.232 98.757 106.08 z"
				 style="fill:url(#XMLID_2_)"/>
			<linearGradient id="XMLID_3_" gradientUnits="userSpaceOnUse" x1="44.8691"
				y1="89.2822" x2="73.438" y2="120.732">
				<stop offset="0.0337" style="stop-color:rgb(255,255,255)"/>
				<stop offset="1" style="stop-color:rgb(135,135,135)"/>
			</linearGradient>
			<path a:adobe-blending-mode="multiply"
				d="M82.453 104.359 C82.453 107.272 71.76 109.637 58.567 109.637 C45.373 109.637 34.677
					107.272 34.677 104.359 C34.677 101.441 45.373 99.08 58.567 99.08 C71.76
					99.08 82.453 101.441 82.453 104.359 z"
				 style="opacity:0.5;fill:url(#XMLID_3_)"/>
			<linearGradient id="XMLID_4_" gradientUnits="userSpaceOnUse" x1="58.5649"
				y1="109.229" x2="58.5649" y2="77.8875">
				<stop offset="0" style="stop-color:rgb(158,158,158)"/>
				<stop offset="1" style="stop-color:rgb(97,97,97)"/>
			</linearGradient>
			<path
				d="M82.453 89.584 C82.453 98.648 71.76 105.996 58.567 105.996 C45.373 105.996 34.677
					98.648 34.677 89.584 C34.677 80.522 45.373 73.175 58.567 73.175 C71.76 73.175
					82.453 80.522 82.453 89.584 z"
				 style="fill:url(#XMLID_4_)"/>
			<linearGradient id="XMLID_5_" gradientUnits="userSpaceOnUse" x1="58.5664"
				y1="104.072" x2="58.5664" y2="89.3846">
				<stop offset="0" style="stop-color:rgb(255,255,255)"/>
				<stop offset="1" style="stop-color:rgb(207,207,207)"/>
			</linearGradient>
			<path
				d="M80.805 90.05 C80.805 98.485 70.847 105.325 58.567 105.325 C46.283 105.325 36.328
					98.484 36.328 90.05 C36.328 81.612 46.284 74.771 58.567 74.771 C70.847 74.771
					80.805 81.611 80.805 90.05 z"
				 style="fill:url(#XMLID_5_)"/>
			<linearGradient id="XMLID_6_" gradientUnits="userSpaceOnUse" x1="43.0898"
				y1="73.3662" x2="75.629" y2="109.186">
				<stop offset="0.0337" style="stop-color:rgb(255,255,255)"/>
				<stop offset="1" style="stop-color:rgb(135,135,135)"/>
			</linearGradient>
			<path a:adobe-blending-mode="multiply"
				d="M82.49 94.028 L34.886 94.028 L34.886 87.046 L82.49 87.046 z"
				 style="opacity:0.5;fill:url(#XMLID_6_)"/>
			<g>
				<linearGradient id="XMLID_7_" gradientUnits="userSpaceOnUse" x1="59.4497"
					y1="99.8369" x2="59.4497" y2="13.0515">
					<stop offset="0" style="stop-color:rgb(158,158,158)"/>
					<stop offset="1" style="stop-color:rgb(97,97,97)"/>
				</linearGradient>
				<path
					d="M11.394 0 C5.112 0 0 4.92 0 10.97 L0 79.916 C0 85.964 5.112 90.885 11.394 90.885
						L107.505 90.885 C113.791 90.885 118.9 85.964 118.9 79.916 L118.9 10.97 C118.9
						4.921 113.792 0 107.505 0 L11.394 0 M2.709 79.916 L2.709 10.97 C2.709
						6.359 6.605 2.61 11.394 2.61 L107.505 2.61 C112.297 2.61 116.191 6.359 116.191
						10.97 L116.191 79.916 C116.191 84.524 112.297 88.275 107.505 88.275 L11.394
						88.275 C6.604 88.275 2.709 84.524 2.709 79.916 z"
					 style="fill:url(#XMLID_7_)"/>
				<linearGradient id="XMLID_8_" gradientUnits="userSpaceOnUse" x1="58.5107"
					y1="69.5879" x2="62.727" y2="-38.7365">
					<stop offset="0.0337" style="stop-color:rgb(255,255,255)"/>
					<stop offset="1" style="stop-color:rgb(178,178,178)"/>
				</linearGradient>
				<path
					d="M117.546 79.916 C117.546 85.253 113.052 89.58 107.505 89.58 L11.394 89.58 C5.851
						89.58 1.355 85.253 1.355 79.916 L1.355 10.97 C1.355 5.632 5.85 1.304 11.394
						1.304 L107.505 1.304 C113.052 1.304 117.546 5.632 117.546 10.97 z"
					 style="fill:url(#XMLID_8_)"/>
				<linearGradient id="XMLID_9_" gradientUnits="userSpaceOnUse" x1="43.4175"
					y1="29.4097" x2="119.845" y2="105.837">
					<stop offset="0.0337" style="stop-color:rgb(255,255,255)"/>
					<stop offset="1" style="stop-color:rgb(178,178,178)"/>
				</linearGradient>
				<path
					d="M116.468 79.228 C116.468 84.419 112.095 88.626 106.704 88.626 L12.198 88.626 C6.805
						88.626 2.433 84.419 2.433 79.228 L2.433 11.656 C2.433 6.466 6.806 2.257
						12.198 2.257 L106.704 2.257 C112.095 2.257 116.468 6.466 116.468 11.656 z"
					 style="fill:url(#XMLID_9_)"/>
				<linearGradient id="XMLID_10_" gradientUnits="userSpaceOnUse" x1="1.6362"
					y1="-25.0278" x2="1.6362" y2="56.3893">
					<stop offset="0%" style="stop-color:rgb(255,255,255)"/>
					<stop offset="100%" style="stop-opacity:0;stop-color:rgb(255,255,255)"/>
				</linearGradient>
				<path a:adobe-blending-mode="screen"
					d="M0.84 59.228 C0.84 62.884 1.319 66.429 2.212 69.812 C2.282 69.824 2.361 69.836 2.433
						69.851 L2.433 28.958 C1.404 32.572 0.84 55.291 0.84 59.228 z"
					 style="fill:url(#XMLID_10_)"/>
				<linearGradient id="XMLID_11_" gradientUnits="userSpaceOnUse" x1="59.7729"
					y1="0.0283" x2="59.7729" y2="59.2285">
					<stop offset="0%" style="stop-color:rgb(255,255,255)"/>
					<stop offset="100%" style="stop-opacity:0;stop-color:rgb(255,255,255)"/>
				</linearGradient>
				<path a:adobe-blending-mode="screen"
					d="M105.987 3.161 L13.56 3.161 C8.362 3.161 4.152 7.213 4.152 12.216 L4.152 68.972 C10.989
						70.172 36.073 74.417 54.148 50.965 C75.707 22.99 107.599 26.266 115.395
						24.318 L115.395 12.216 C115.395 7.213 111.182 3.161 105.987 3.161 z"
					 style="fill:url(#XMLID_11_)"/>
				<radialGradient id="XMLID_12_" cx="-13.7461" cy="95.4902" r="61.6081"
					fx="-13.7461" fy="95.4902"
					gradientTransform="matrix(1.0388 0 0 1 70.2622 0)"
					gradientUnits="userSpaceOnUse">
					<stop offset="0" style="stop-color:rgb(133,202,255)"/>
					<stop offset="1" style="stop-color:rgb(0,61,169)"/>
					<a:midPointStop offset="0" style="stop-color:#85CAFF"/>
					<a:midPointStop offset="0.5" style="stop-color:#85CAFF"/>
					<a:midPointStop offset="1" style="stop-color:#003DA9"/>
				</radialGradient>
				<path d="M107.036 78.971 L11.625 78.971 L11.625 11.927 L107.036 11.927 z"
					 style="fill:url(#XMLID_12_)"/>
				<linearGradient id="XMLID_13_" gradientUnits="userSpaceOnUse" x1="59.3823"
					y1="60.042" x2="59.3823" y2="-28.4178">
					<stop offset="0" style="stop-color:rgb(204,204,204)"/>
					<stop offset="1" style="stop-color:rgb(97,97,97)"/>
					<a:midPointStop offset="0" style="stop-color:#CCCCCC"/>
					<a:midPointStop offset="0.5" style="stop-color:#CCCCCC"/>
					<a:midPointStop offset="1" style="stop-color:#616161"/>
				</linearGradient>
				<path
					d="M107.139 11.897 L11.625 11.897 L11.625 78.811 L13.13 78.811 L13.13 13.385 L107.138
						13.385 L107.138 11.897 z"
					 style="fill:url(#XMLID_13_)"/>
				<path
					d="M105.777 11.893 L105.777 77.464 L11.619 77.464 L11.619 78.95 L105.777 78.95 L105.777
						78.991 L107.281 78.991 L107.281 11.893 z"
					 style="fill:rgb(255,255,255)"/>
				<radialGradient id="XMLID_14_" cx="-16.7305" cy="15.3696" r="67.6326"
					fx="-16.7305" fy="15.3696"
					gradientTransform="matrix(1.0463 0 0 0.9215 74.949 -5.7288)"
					gradientUnits="userSpaceOnUse">
					<stop offset="0" style="stop-color:rgb(133,202,255)"/>
					<stop offset="1" style="stop-color:rgb(0,61,169)"/>
					<a:midPointStop offset="0" style="stop-color:#85CAFF"/>
					<a:midPointStop offset="0.5" style="stop-color:#85CAFF"/>
					<a:midPointStop offset="1" style="stop-color:#003DA9"/>
				</radialGradient>
				<path
					d="M14.255 25.888 C14.255 39.667 34.492 50.842 59.457 50.842 C84.424 50.842 104.665
						39.668 104.665 25.888 C104.665 21.285 102.395 16.976 98.454 13.27 L20.462
						13.27 C16.521 16.977 14.255 21.285 14.255 25.888 z"
					 style="fill:url(#XMLID_14_)"/>
			</g>
		</g>
	</g>
</svg>
