<?xml version="1.0"?>
<!DOCTYPE svg PUBLIC "-//W3C//DTD SVG 1.0//EN"
	"http://www.w3.org/TR/2001/REC-SVG-20010904/DTD/svg10.dtd">
<svg xmlns:x="http://ns.adobe.com/Extensibility/1.0/"
	xmlns:i="http://ns.adobe.com/AdobeIllustrator/10.0/" xmlns:graph=""
	xmlns="http://www.w3.org/2000/svg" xmlns:xlink="http://www.w3.org/1999/xlink"
	xmlns:a="http://ns.adobe.com/AdobeSVGViewerExtensions/3.0/" width="124"
	height="125" viewBox="0.22 -0.456 124 125" overflow="visible"
	enable-background="new 0.22 -0.456 124 125" xml:space="preserve">
	<g id="Layer_1_2_">
		<g>
			<radialGradient id="XMLID_1_" cx="61.042" cy="130.475" r="130.184" fx="61.042"
				fy="130.475" gradientUnits="userSpaceOnUse">
				<stop offset="0" style="stop-color:rgb(212,232,255)"/>
				<stop offset="0.0861" style="stop-color:rgb(202,228,255)"/>
				<stop offset="0.3389" style="stop-color:rgb(178,219,255)"/>
				<stop offset="0.4944" style="stop-color:rgb(169,215,255)"/>
				<stop offset="1" style="stop-color:rgb(18,96,217)"/>
			</radialGradient>
			<path
				d="M62.157 124.333 C96.481 124.333 124.322 96.365 124.322 62.055 C124.322 27.968 96.481
					0 62.157 0 C28.077 0 0 27.968 0 62.055 C0 96.365 28.077 124.333 62.157
					124.333 z"
				 style="fill-rule:evenodd;clip-rule:evenodd;fill:url(#XMLID_1_)"/>
			<g>
				<radialGradient id="XMLID_2_" cx="61.0894" cy="130.222" r="124.754"
					fx="61.0894" fy="130.222"
					gradientTransform="matrix(1 0 0 0.9479 0 4.1516)"
					gradientUnits="userSpaceOnUse">
					<stop offset="0" style="stop-color:rgb(255,255,255)"/>
					<stop offset="0.1176" style="stop-color:rgb(230,249,255)"/>
					<stop offset="0.2604" style="stop-color:rgb(206,242,255)"/>
					<stop offset="0.3483" style="stop-color:rgb(197,240,255)"/>
					<stop offset="0.427" style="stop-color:rgb(187,233,253)"/>
					<stop offset="1" style="stop-color:rgb(29,116,217)"/>
				</radialGradient>
				<path
					d="M62.157 121.706 C95.032 121.706 121.698 94.923 121.698 62.062 C121.698 29.413 95.032
						2.624 62.157 2.624 C29.519 2.624 2.624 29.413 2.624 62.062 C2.624 94.923
						29.519 121.706 62.157 121.706 z"
					 style="fill-rule:evenodd;clip-rule:evenodd;fill:url(#XMLID_2_)"/>
			</g>
			<radialGradient id="XMLID_3_" cx="66.165" cy="113.842" r="73.9839" fx="66.165"
				fy="113.842" gradientUnits="userSpaceOnUse">
				<stop offset="0.1742" style="stop-color:rgb(83,164,255)"/>
				<stop offset="0.2463" style="stop-color:rgb(75,153,246)"/>
				<stop offset="0.7613" style="stop-color:rgb(21,80,187)"/>
				<stop offset="1" style="stop-color:rgb(0,51,164)"/>
				<a:midPointStop offset="0.1742" style="stop-color:#53A4FF"/>
				<a:midPointStop offset="0.4677" style="stop-color:#53A4FF"/>
				<a:midPointStop offset="1" style="stop-color:#0033A4"/>
			</radialGradient>
			<path a:adobe-blending-mode="multiply"
				d="M33.445 62.312 C32.944 61.837 33.278 59.765 33.278 59.765 C33.278 59.765 25.776 55.788
					17.606 53.399 C16.598 53.102 17.106 51.013 18.106 50.215 L17.773 47.985
					C17.606 46.871 19.442 41.459 21.273 40.985 C23.107 40.506 21.105 44.167
					21.105 44.167 L19.273 45.283 C19.273 45.283 21.44 47.83 21.941 47.83 C22.44
					47.83 23.274 46.553 23.274 46.553 L20.941 44.967 L23.106 44.006 L23.242 43.169
					L23.608 43.052 L27.194 37.572 C29.674 36.548 32.721 35.279 33.11 35.093
					C33.777 34.777 38.443 32.07 39.277 31.435 C40.111 30.798 41.944 30.956 42.61
					30.956 C43.276 30.956 44.277 30.64 44.444 28.886 C44.612 27.135 45.278
					26.816 45.779 27.295 C46.278 27.769 45.276 28.565 46.444 28.886 C47.612 29.205
					48.609 30 49.444 29.205 C50.056 28.621 49.239 27.959 48.69 27.454 L57.947
					27.454 L58.949 24.586 L56.782 24.268 L48.777 23.475 L48.777 22.519 L48.139
					22.628 C49.006 17.826 54.156 18.619 50.281 15.836 C50.043 15.666 46.654
					21.224 45.793 21.115 C44.229 20.908 42.208 20.891 41.777 21.402 C41.21 22.081
					43.056 19.074 44.647 18.165 C42.11 18.921 34.088 21.687 25.607 30.799 C17.501
					39.505 14.27 51.237 14.27 51.648 C14.27 52.443 15.938 52.762 16.107 53.718
					C16.27 54.669 12.939 57.855 12.939 59.446 C12.939 60.181 12.153 69.992
					14.936 78.071 C18.19 87.503 25.134 95.382 25.941 95.897 L27.608 95.103 C27.608
					95.103 23.775 88.257 23.609 87.62 C23.44 86.986 27.942 77.753 30.111
					78.071 C32.276 78.385 31.777 79.027 33.111 78.232 C34.444 77.435 35.276 70.904
					36.777 70.273 C38.278 69.633 39.945 68.84 39.781 67.248 C39.613 65.652
					33.943 62.791 33.445 62.312 zM45.446 17.903 C45.199 17.903 44.928 18.005 44.648
					18.163 C45.304 17.971 45.612 17.903 45.446 17.903 zM61.62 21.084 L61.783
					18.698 L59.285 18.854 L59.618 21.084 zM69.62 15.514 L65.12 13.921 L65.954
					16.47 zM52.783 21.4 C53.285 21.4 63.288 14.721 62.286 14.558 C61.285 14.4
					61.119 14.558 58.45 14.24 C55.782 13.921 52.947 18.061 52.282 18.698 C51.616
					19.335 51.84 21.4 52.783 21.4 zM79.968 80.753 C79.968 80.753 78.837 81.058
					80.126 81.52 C81.416 81.981 86.58 74.002 86.58 74.002 L82.224 76.763 zM111.107
					56.36 L110.266 54.715 C109.266 49.04 106.979 41.772 102.074 34.265 C94.692
					22.984 74.155 16.474 74.155 16.474 L73.026 17.85 L72.38 16.78 L70.768
					16.165 L70.768 17.544 L72.22 18.774 L71.251 19.232 L67.538 19.539 L59.147
					24.143 L59.953 27.823 L58.986 28.135 L58.502 28.896 L61.245 33.039 L61.407
					34.423 L59.147 34.881 L59.147 37.642 L57.858 37.946 L58.019 40.096 L47.046
					47.77 L47.368 52.063 C48.175 53.136 54.471 59.582 54.471 59.582 C54.471 59.582
					61.728 59.884 63.344 58.968 C64.956 58.045 63.827 59.884 64.313 60.346
					C64.796 60.809 64.957 64.028 65.441 64.338 C65.924 64.644 65.441 66.482 66.087
					67.098 C66.733 67.711 66.733 75.077 66.733 75.077 C66.733 75.077 70.606
					81.673 70.606 83.361 C70.606 85.048 70.443 84.897 73.509 84.741 C76.576 84.588
					77.217 83.361 77.864 82.901 C78.51 82.44 78.51 81.367 79.158 80.444 C79.805
					79.525 80.929 75.997 82.384 74.77 C83.838 73.54 87.707 72.618 88.03
					70.473 C88.353 68.325 89.805 66.635 89.805 66.635 L96.782 59.193 L96.585 60.195
					L96.424 64.028 L98.521 63.263 L98.362 59.118 L97.607 58.312 L97.714 58.2
					C97.714 58.2 97.232 57.281 96.585 57.281 C95.94 57.281 92.065 58.2 91.421
					58.045 C90.775 57.894 88.03 50.526 87.546 50.222 C87.063 49.915 84 44.853
					84 44.853 C84 44.853 91.098 53.445 92.228 56.818 C92.884 58.781 95.346 56.952
					97.349 54.904 L97.877 56.208 L99.167 55.899 L99.006 54.364 L100.459 54.364
					L100.459 56.665 L99.975 57.894 L99.809 59.884 L101.101 61.116 L101.749
					60.042 L103.843 58.045 L106.265 56.819 L106.911 58.045 L107.234 59.735 L106.587
					61.574 L105.296 62.65 L104.651 65.412 L104.651 66.787 L103.199 65.872
					L103.04 62.958 L100.944 63.111 L99.974 65.715 L101.425 67.866 L104.812 68.325
					L107.557 65.715 L107.878 60.657 L109.099 59.034 C109.894 61.093 110.461
					63.252 110.461 65.259 C110.461 67.463 111.46 63.734 110.611 57.017 zM70.444
					40.712 L61.732 40.403 L65.441 37.338 L67.379 37.338 L70.443 39.481 L70.443
					40.712 zM81.094 39.637 L81.094 41.018 L77.385 41.018 L77.707 41.937 L75.446
					42.246 L75.286 43.012 L73.673 42.708 L70.769 42.092 L71.252 41.326 L71.735
					40.402 L73.348 38.716 L73.993 39.944 L76.415 39.789 L77.707 38.41 L82.707
					39.327 zM81.416 37.642 L79.478 37.946 L79.16 36.569 L81.575 36.265 L81.901
					34.881 L83.676 36.725 zM98.683 69.4 L99.976 67.711 L98.683 67.252 L97.715
					68.48 L96.586 70.166 L97.553 70.627 zM90.776 85.354 L89.646 86.274 L89.806
					88.578 L91.261 88.578 L91.261 86.584 L92.55 84.898 L92.55 81.368 L91.743 81.209
					zM104.331 74.923 L104.005 72.469 L101.912 72.469 L101.75 74.305 L99.81
					74.002 L99.331 72.006 L98.363 71.395 L97.233 72.777 L96.104 72.469 L95.78
					73.54 L97.07 73.849 L97.07 83.821 L101.638 84.929 C101.534 85.116 101.452 85.268
					101.426 85.354 C101.101 86.429 102.718 86.89 103.843 86.429 C104.262
					86.257 105.59 84.906 106.426 82.902 C107.587 80.116 108.606 76.433 108.809
					75.131 L109.33 74.002 L106.102 75.231 z"
				 style="opacity:0.1;fill:url(#XMLID_3_)"/>
			<linearGradient id="XMLID_4_" gradientUnits="userSpaceOnUse" x1="61.8477"
				y1="-20.8955" x2="61.8476" y2="119.195">
				<stop offset="0.0899" style="stop-color:rgb(43,159,215)"/>
				<stop offset="0.3508" style="stop-color:rgb(17,117,212)"/>
				<stop offset="0.5562" style="stop-color:rgb(0,88,210)"/>
				<stop offset="1" style="stop-color:rgb(0,50,187)"/>
			</linearGradient>
			<path
				d="M41.972 8.076 C41.67 8.076 41.343 8.198 41.008 8.39 C41.798 8.156 42.17 8.076 41.972
					8.076 zM61.54 11.895 L61.737 9.03 L58.716 9.219 L59.117 11.895 zM27.449
					61.371 C26.841 60.798 27.247 58.311 27.247 58.311 C27.247 58.311 18.169 53.541
					8.284 50.673 C7.064 50.318 7.681 47.81 8.886 46.856 L8.485 44.176 C8.284
					42.841 10.504 36.346 12.721 35.777 C14.94 35.2 12.52 39.593 12.52 39.593
					L10.3 40.931 C10.3 40.931 12.922 43.986 13.53 43.986 C14.134 43.986 15.142
					42.456 15.142 42.456 L12.318 40.554 L14.94 39.404 L15.106 38.394 L15.547 38.255
					L19.886 31.678 C22.886 30.449 26.575 28.929 27.042 28.705 C27.85 28.326
					33.498 25.081 34.507 24.314 C35.516 23.545 37.733 23.743 38.54 23.743 C39.347
					23.743 40.559 23.359 40.758 21.252 C40.961 19.152 41.767 18.768 42.373
					19.345 C42.977 19.914 41.767 20.87 43.181 21.252 C44.594 21.639 45.801 22.592
					46.81 21.639 C47.55 20.938 46.561 20.143 45.897 19.537 L57.097 19.537
					L58.309 16.095 L55.688 15.715 L46.002 14.762 L46.002 13.611 L45.229 13.745
					C46.28 7.98 52.507 8.932 47.82 5.594 C47.533 5.389 43.434 12.059 42.388 11.93
					C40.498 11.68 38.053 11.66 37.533 12.273 C36.847 13.086 39.08 9.481 41.007
					8.389 C37.935 9.294 28.229 12.614 17.965 23.545 C8.157 33.998 4.248 48.077
					4.248 48.573 C4.248 49.524 6.266 49.908 6.469 51.057 C6.67 52.198 2.637
					56.019 2.637 57.931 C2.637 58.811 1.685 70.586 5.056 80.281 C8.993 91.603 17.394
					101.054 18.372 101.676 L20.386 100.719 C20.386 100.719 15.748 92.506
					15.548 91.741 C15.346 90.979 20.793 79.897 23.413 80.281 C26.034 80.661 25.43
					81.429 27.043 80.471 C28.658 79.517 29.666 71.681 31.48 70.922 C33.297 70.153
					35.316 69.201 35.116 67.291 C34.912 65.379 28.055 61.946 27.449 61.371
					zM71.221 5.208 L66.026 4.174 L66.785 6.356 zM50.847 12.274 C51.452 12.274
					63.556 4.257 62.345 4.06 C61.136 3.873 60.832 4.668 57.602 4.289 C54.376 3.905
					51.046 8.266 50.241 9.03 C49.436 9.795 49.706 12.274 50.847 12.274 zM106.387
					69.873 L107.95 67.848 L106.387 67.296 L105.215 68.77 L103.85 70.791
					L105.02 71.347 zM113.219 76.505 L112.827 73.56 L110.292 73.56 L110.096 75.762
					L107.749 75.401 L107.169 73.005 L105.997 72.273 L104.63 73.927 L103.264
					73.561 L102.872 74.845 L104.434 75.216 L104.434 87.182 L109.962 88.513 C109.836
					88.737 109.738 88.919 109.707 89.02 C109.312 90.312 111.266 90.867 112.631
					90.312 C113.139 90.106 114.747 88.484 115.756 86.08 C117.162 82.735 118.391
					78.318 118.638 76.754 L119.272 75.402 L115.365 76.876 zM120.67 53.869
					L120.402 52.252 C119.193 45.443 116.403 36.735 110.489 27.716 C100.188 12.009
					77.652 5.548 77.652 5.548 L75.342 8.012 L74.561 6.73 L72.609 5.988 L72.609
					7.644 L74.367 9.121 L73.197 9.673 L68.704 10.04 L58.55 15.565 L59.525 19.98
					L58.353 20.355 L57.769 21.27 L61.087 26.242 L61.284 27.901 L58.55 28.453
					L58.55 31.766 L56.988 32.131 L57.185 34.71 L43.907 43.92 L44.299 49.07 C45.275
					50.359 52.89 58.094 52.89 58.094 C52.89 58.094 61.674 58.459 63.627
					57.357 C65.58 56.25 64.213 58.459 64.8 59.012 C65.383 59.565 65.58 63.429 66.164
					63.801 C66.75 64.167 66.164 66.373 66.944 67.114 C67.726 67.848 67.726
					76.689 67.726 76.689 C67.726 76.689 72.412 84.601 72.412 86.629 C72.412 88.652
					72.218 88.469 75.929 88.287 C79.64 88.101 80.418 86.629 81.199 86.078
					C81.982 85.523 81.982 84.238 82.763 83.13 C83.545 82.025 84.906 77.792 86.667
					76.32 C88.424 74.843 93.107 73.737 93.499 71.163 C93.889 68.586 95.647
					66.56 95.647 66.56 L104.087 57.626 L103.849 58.828 L103.655 63.428 L106.191
					62.51 L105.997 57.537 L105.085 56.574 L105.215 56.435 C105.215 56.435 104.63
					55.331 103.85 55.331 C103.069 55.331 98.381 56.435 97.601 56.25 C96.82 56.065
					93.499 47.229 92.913 46.863 C92.327 46.493 88.62 40.417 88.62 40.417
					C88.62 40.417 97.209 50.73 98.573 54.778 C99.369 57.132 102.348 54.938 104.773
					52.479 L105.411 54.041 L106.975 53.669 L106.778 51.833 L108.534 51.833
					L108.534 54.594 L107.95 56.066 L107.749 58.46 L109.312 59.935 L110.095 58.649
					L112.63 56.251 L115.561 54.78 L116.342 56.251 L116.734 58.28 L115.949 60.485
					L114.389 61.774 L113.608 65.091 L113.608 66.743 L111.852 65.638 L111.657
					62.144 L109.12 62.329 L107.95 65.454 L109.707 68.037 L113.803 68.587 L117.126
					65.454 L117.515 59.385 L118.99 57.435 C119.953 59.905 120.638 62.496
					120.638 64.907 C120.638 67.551 121.85 63.076 120.821 55.015 zM72.218 35.448
					L61.676 35.076 L66.164 31.396 L68.506 31.396 L72.218 33.972 zM85.105 34.159
					L85.105 35.816 L80.614 35.816 L81.007 36.92 L78.27 37.295 L78.076 38.212
					L76.123 37.844 L72.609 37.105 L73.197 36.186 L73.78 35.077 L75.732 33.056 L76.514
					34.53 L79.445 34.345 L81.008 32.686 L87.057 33.79 zM85.494 31.765 L83.151
					32.13 L82.762 30.474 L85.686 30.107 L86.078 28.453 L88.23 30.664 zM96.819
					89.019 L95.45 90.124 L95.647 92.888 L97.403 92.888 L97.403 90.499 L98.967
					88.469 L98.967 84.239 L97.988 84.048 zM83.738 83.501 C83.738 83.501 82.373
					83.862 83.932 84.419 C85.494 84.973 91.743 75.4 91.743 75.4 L86.47 78.71
					zM73.113 118.786 L71.943 117.672 L69.6 117.301 L69.211 118.416 L66.089 118.045
					L65.893 116.564 L63.552 116.564 L61.013 118.045 L56.525 118.045 L56.137
					116.933 L48.916 116.188 L47.744 117.301 L44.818 116.564 L44.429 113.965
					L43.064 113.776 L41.502 116.564 L36.233 116.376 C37.174 116.822 45.043 121.518
					57.11 122.5 C73.111 123.792 80.72 119.9 80.72 119.9 L80.135 119.343 z"
				 style="fill:url(#XMLID_4_)"/>
			<path
				d="M11.207 40.622 C11.199 40.345 11.178 40.073 11.178 39.795 C11.178 38.921 11.238 38.058
					11.322 37.199 C9.761 39.34 8.537 43.307 8.69 44.321 L9.091 47.024 C7.882
					47.985 7.268 50.515 8.487 50.875 C10.573 51.483 12.617 52.181 14.554 52.899
					C12.718 49.46 11.578 45.767 11.268 41.919 C10.825 41.43 10.503 41.053
					10.503 41.053 z"
				 style="fill:none"/>
			<path d="M91.945 75.804"/>
			<path a:adobe-blending-mode="screen"
				d="M62.16 106.791 C35.107 106.791 12.61 90.645 10.549 65.389 C10.447 66.631 10.378 67.88
					10.378 69.145 C10.378 96.159 33.769 118.18 62.16 118.18 C90.751 118.18
					113.945 96.159 113.945 69.145 C113.945 67.88 113.878 66.631 113.777 65.389
					C111.73 90.645 89.403 106.791 62.16 106.791 z"
				 style="opacity:0.5;fill:rgb(255,255,255)"/>
			<path a:adobe-blending-mode="screen"
				d="M93.582 93.668 C93.582 80.15 79.725 69.194 62.629 69.194 C45.533 69.194 31.676 80.15
					31.676 93.668 C31.676 107.186 45.534 118.142 62.629 118.142 C79.724 118.142
					93.582 107.186 93.582 93.668 z"
				 style="opacity:0.2;fill:rgb(255,255,255)"/>
			<linearGradient id="XMLID_5_" gradientUnits="userSpaceOnUse" x1="62.8833"
				y1="5.9136" x2="62.8833" y2="69.3881">
				<stop offset="4.02299%" style="stop-color:rgb(255,255,255)"/>
				<stop offset="100%" style="stop-opacity:0;stop-color:rgb(255,255,255)"/>
			</linearGradient>
			<path a:adobe-blending-mode="screen"
				d="M110.076 36.557 C110.076 54.642 88.947 69.303 62.882 69.303 C36.819 69.303 15.69
					54.643 15.69 36.557 C15.69 18.472 36.818 3.811 62.882 3.811 C88.947 3.812 110.076
					18.472 110.076 36.557 z"
				 style="fill:url(#XMLID_5_)"/>
		</g>
	</g>
</svg>
