<?xml version="1.0" encoding="UTF-8" standalone="no"?>
<!-- Created with Inkscape (http://www.inkscape.org/) -->

<svg
   xmlns:dc="http://purl.org/dc/elements/1.1/"
   xmlns:cc="http://creativecommons.org/ns#"
   xmlns:rdf="http://www.w3.org/1999/02/22-rdf-syntax-ns#"
   xmlns:svg="http://www.w3.org/2000/svg"
   xmlns="http://www.w3.org/2000/svg"
   xmlns:xlink="http://www.w3.org/1999/xlink"
   xmlns:sodipodi="http://sodipodi.sourceforge.net/DTD/sodipodi-0.dtd"
   xmlns:inkscape="http://www.inkscape.org/namespaces/inkscape"
   version="1.0"
   width="250"
   height="250"
   id="svg2"
   inkscape:version="0.47pre4 r22446"
   sodipodi:docname="lmp.svg">
  <metadata
     id="metadata98">
    <rdf:RDF>
      <cc:Work
         rdf:about="">
        <dc:format>image/svg+xml</dc:format>
        <dc:type
           rdf:resource="http://purl.org/dc/dcmitype/StillImage" />
      </cc:Work>
    </rdf:RDF>
  </metadata>
  <sodipodi:namedview
     pagecolor="#ffffff"
     bordercolor="#666666"
     borderopacity="1"
     objecttolerance="10"
     gridtolerance="10"
     guidetolerance="10"
     inkscape:pageopacity="0"
     inkscape:pageshadow="2"
     inkscape:window-width="1022"
     inkscape:window-height="535"
     id="namedview96"
     showgrid="false"
     inkscape:zoom="1.4142136"
     inkscape:cx="42.521502"
     inkscape:cy="135.87486"
     inkscape:window-x="0"
     inkscape:window-y="24"
     inkscape:window-maximized="1"
     inkscape:current-layer="svg2" />
  <defs
     id="defs4">
    <linearGradient
       id="linearGradient3304">
      <stop
         id="stop3306"
         style="stop-color:#ff8313;stop-opacity:1"
         offset="0" />
      <stop
         id="stop3308"
         style="stop-color:#ffe400;stop-opacity:1"
         offset="1" />
    </linearGradient>
    <linearGradient
       id="linearGradient3284">
      <stop
         id="stop3286"
         style="stop-color:#ffffff;stop-opacity:0.78431374"
         offset="0" />
      <stop
         id="stop3288"
         style="stop-color:#ffffff;stop-opacity:0.11764706"
         offset="1" />
    </linearGradient>
    <linearGradient
       id="linearGradient3170">
      <stop
         id="stop3172"
         style="stop-color:#323232;stop-opacity:1"
         offset="0" />
      <stop
         id="stop3216"
         style="stop-color:#696969;stop-opacity:1"
         offset="0.32967147" />
      <stop
         id="stop3218"
         style="stop-color:#7f7f7f;stop-opacity:1"
         offset="0.69190311" />
      <stop
         id="stop3212"
         style="stop-color:#b4b4b4;stop-opacity:1"
         offset="1" />
    </linearGradient>
    <linearGradient
       x1="325.5"
       y1="45"
       x2="325.5"
       y2="135"
       id="linearGradient3429"
       xlink:href="#linearGradient3284"
       gradientUnits="userSpaceOnUse"
       gradientTransform="matrix(1.2146893,0,0,1.2146893,-270.38136,-32.302267)" />
    <linearGradient
       x1="322"
       y1="215"
       x2="322"
       y2="43.264011"
       id="linearGradient3432"
       xlink:href="#linearGradient3170"
       gradientUnits="userSpaceOnUse"
       gradientTransform="matrix(1.2146893,0,0,1.2146893,-270.38136,-32.302267)" />
    <linearGradient
       x1="367.60938"
       y1="286.20697"
       x2="367.60938"
       y2="229.66707"
       id="linearGradient3515"
       xlink:href="#linearGradient3304"
       gradientUnits="userSpaceOnUse"
       gradientTransform="matrix(0.4780043,0,0,0.4780043,-51.42398,70.376585)" />
    <linearGradient
       x1="368.40625"
       y1="264.6947"
       x2="368.40625"
       y2="-14.625"
       id="linearGradient3517"
       xlink:href="#linearGradient3304"
       gradientUnits="userSpaceOnUse"
       gradientTransform="matrix(0.4780043,0,0,0.4780043,-51.42398,70.376585)" />
    <linearGradient
       x1="367.60938"
       y1="8.8977861"
       x2="367.60938"
       y2="-34.759617"
       id="linearGradient3519"
       xlink:href="#linearGradient3304"
       gradientUnits="userSpaceOnUse"
       gradientTransform="matrix(0.4780043,0,0,0.4780043,-51.42398,70.376585)" />
    <linearGradient
       x1="367.61334"
       y1="104.07783"
       x2="367.61334"
       y2="38.949574"
       id="linearGradient3521"
       xlink:href="#linearGradient3304"
       gradientUnits="userSpaceOnUse"
       gradientTransform="matrix(0.4780043,0,0,0.4780043,-51.42398,70.376585)" />
    <linearGradient
       x1="367.61334"
       y1="200.79352"
       x2="367.61334"
       y2="128.48987"
       id="linearGradient3523"
       xlink:href="#linearGradient3304"
       gradientUnits="userSpaceOnUse"
       gradientTransform="matrix(0.4780043,0,0,0.4780043,-51.42398,70.376585)" />
    <linearGradient
       inkscape:collect="always"
       xlink:href="#linearGradient3170"
       id="linearGradient2841"
       gradientUnits="userSpaceOnUse"
       gradientTransform="matrix(1.2146893,0,0,1.2146893,-270.38136,-32.302267)"
       x1="322"
       y1="215"
       x2="322"
       y2="43.264011" />
    <linearGradient
       inkscape:collect="always"
       xlink:href="#linearGradient3304"
       id="linearGradient2844"
       gradientUnits="userSpaceOnUse"
       gradientTransform="matrix(0.4780043,0,0,0.4780043,-51.42398,70.376585)"
       x1="367.60938"
       y1="286.20697"
       x2="367.60938"
       y2="229.66707" />
    <linearGradient
       inkscape:collect="always"
       xlink:href="#linearGradient3304"
       id="linearGradient2847"
       gradientUnits="userSpaceOnUse"
       gradientTransform="matrix(0.4780043,0,0,0.4780043,-51.42398,70.376585)"
       x1="368.40625"
       y1="264.6947"
       x2="368.40625"
       y2="-14.625" />
    <linearGradient
       inkscape:collect="always"
       xlink:href="#linearGradient3304"
       id="linearGradient2850"
       gradientUnits="userSpaceOnUse"
       gradientTransform="matrix(0.4780043,0,0,0.4780043,-51.42398,70.376585)"
       x1="367.60938"
       y1="8.8977861"
       x2="367.60938"
       y2="-34.759617" />
    <linearGradient
       inkscape:collect="always"
       xlink:href="#linearGradient3304"
       id="linearGradient2853"
       gradientUnits="userSpaceOnUse"
       gradientTransform="matrix(0.4780043,0,0,0.4780043,-51.42398,70.376585)"
       x1="367.61334"
       y1="104.07783"
       x2="367.61334"
       y2="38.949574" />
    <linearGradient
       inkscape:collect="always"
       xlink:href="#linearGradient3304"
       id="linearGradient2856"
       gradientUnits="userSpaceOnUse"
       gradientTransform="matrix(0.4780043,0,0,0.4780043,-51.42398,70.376585)"
       x1="367.61334"
       y1="200.79352"
       x2="367.61334"
       y2="128.48987" />
    <linearGradient
       inkscape:collect="always"
       xlink:href="#linearGradient3284"
       id="linearGradient2861"
       gradientUnits="userSpaceOnUse"
       gradientTransform="matrix(1.2146893,0,0,1.2146893,-270.38136,-32.302267)"
       x1="325.5"
       y1="45"
       x2="325.5"
       y2="135" />
  </defs>
  <path
     style="fill:url(#linearGradient2841);fill-opacity:1;stroke:#000000;stroke-width:9.71751404;stroke-linejoin:round;stroke-miterlimit:4;stroke-opacity:1;stroke-dasharray:none"
     d="m 58.799435,22.358751 c 44.760425,0.03136 89.522425,-0.06281 134.281865,0.04724 20.02253,0.435609 36.47789,19.63541 34.55994,39.433998 -0.12259,44.363682 0.24674,88.742822 -0.18745,133.096722 -1.44447,19.56088 -20.59464,34.71876 -39.9019,32.70453 -44.16098,-0.12258 -88.337405,0.24671 -132.488603,-0.18746 C 35.502405,226.00932 20.344527,206.85915 22.358757,187.55189 22.48133,143.39091 22.112045,99.21448 22.546209,55.063281 24.05157,36.882357 40.551792,21.998123 58.799435,22.358751 z"
     id="rect3168" />
  <g
     transform="matrix(1.0534319,0.4606928,-0.4606928,1.0534319,50.801398,-67.31124)"
     id="g3474">
    <path
       style="fill:url(#linearGradient2844);fill-opacity:1;stroke:#3c3c3c;stroke-width:3.82403493;stroke-linecap:round;stroke-linejoin:round;stroke-miterlimit:4;stroke-opacity:1;stroke-dasharray:none"
       d="m 146.18601,197.13737 c 0,-5.8456 0,-11.69119 0,-17.53679 -14.59407,0 -29.18814,0 -43.78221,0 0,5.8456 0,11.69119 0,17.53679 14.59407,0 29.18814,0 43.78221,0 z"
       id="path3331" />
    <path
       style="fill:url(#linearGradient2847);fill-opacity:1;stroke:#3c3c3c;stroke-width:3.82403493;stroke-linecap:round;stroke-linejoin:round;stroke-miterlimit:4;stroke-opacity:1;stroke-dasharray:none"
       d="m 88.870293,65.29779 c 0,43.94653 0,87.89305 0,131.83958 4.511169,0 9.022338,0 13.533507,0 0,-5.8456 0,-11.69119 0,-17.53679 14.59407,0 29.18814,0 43.78221,0 0,5.8456 0,11.69119 0,17.53679 4.7651,0 9.53021,0 14.29531,0 0,-43.94653 0,-87.89305 0,-131.83958 -4.7651,0 -9.53021,0 -14.29531,0 0,3.256403 0,6.512807 0,9.76921 -14.59407,0 -29.18814,0 -43.78221,0 0,-3.256403 0,-6.512807 0,-9.76921 -4.511169,0 -9.022338,0 -13.533507,0 z"
       id="path3328" />
    <path
       style="fill:url(#linearGradient2850);fill-opacity:1;stroke:#3c3c3c;stroke-width:3.82403493;stroke-linecap:round;stroke-linejoin:round;stroke-miterlimit:4;stroke-opacity:1;stroke-dasharray:none"
       d="m 102.4038,65.29779 c 0,3.256403 0,6.512807 0,9.76921 14.59407,0 29.18814,0 43.78221,0 0,-3.256403 0,-6.512807 0,-9.76921 -14.59407,0 -29.18814,0 -43.78221,0 z"
       id="rect3309" />
    <path
       style="fill:url(#linearGradient2853);fill-opacity:1;stroke:#3c3c3c;stroke-width:3.82403493;stroke-linecap:round;stroke-linejoin:round;stroke-miterlimit:4;stroke-opacity:1;stroke-dasharray:none"
       d="m 102.4044,87.818893 c 14.59494,0 29.18988,0 43.78482,0 0,11.046998 0,22.093997 0,33.140987 -14.59494,0 -29.18988,0 -43.78482,0 0,-11.04699 0,-22.093989 0,-33.140987 z"
       id="rect3311" />
    <path
       style="fill:url(#linearGradient2856);fill-opacity:1;stroke:#3c3c3c;stroke-width:3.82403493;stroke-linecap:round;stroke-linejoin:round;stroke-miterlimit:4;stroke-opacity:1;stroke-dasharray:none"
       d="m 102.4044,133.70732 c 14.59494,0 29.18988,0 43.78482,0 0,11.047 0,22.094 0,33.14099 -14.59494,0 -29.18988,0 -43.78482,0 0,-11.04699 0,-22.09399 0,-33.14099 z"
       id="rect3313" />
    <path
       style="fill:none;stroke:#3c3c3c;stroke-width:3.47897553;stroke-linecap:butt;stroke-linejoin:miter;stroke-miterlimit:4;stroke-opacity:1;stroke-dasharray:3.47897565, 3.47897565;stroke-dashoffset:0"
       d="m 94.528058,196.16829 c 0.528689,-43.3025 1.057379,-86.605 1.586068,-129.907506"
       id="path2872" />
    <path
       style="fill:none;stroke:#3c3c3c;stroke-width:3.47897553;stroke-linecap:butt;stroke-linejoin:miter;stroke-miterlimit:4;stroke-opacity:1;stroke-dasharray:3.47897565, 3.47897565;stroke-dashoffset:0"
       d="m 152.43157,195.52683 c 0.52869,-43.3025 1.05737,-86.605 1.58606,-129.907493"
       id="path3681" />
  </g>
  <path
     style="fill:url(#linearGradient2861);fill-opacity:1;stroke:none"
     d="M 58.799436,22.358751 C 38.347618,21.72855 20.578998,40.930779 22.358757,61.231877 c 0,15.081371 0,30.162742 0,45.244113 35.667212,21.50502 78.828053,26.965 119.782963,24.6343 29.70881,-2.16301 59.88644,-8.86814 85.49953,-24.6343 -0.23284,-17.742159 0.49415,-35.531611 -0.41838,-53.240554 -2.37927,-18.790419 -21.02509,-32.768362 -39.67097,-30.876685 -42.91749,0 -85.83498,0 -128.752464,0 z"
     id="rect3404" />
</svg>
