<?xml version="1.0" encoding="UTF-8" standalone="no"?>
<!-- Created with Inkscape (http://www.inkscape.org/) -->
<svg
   xmlns:dc="http://purl.org/dc/elements/1.1/"
   xmlns:cc="http://web.resource.org/cc/"
   xmlns:rdf="http://www.w3.org/1999/02/22-rdf-syntax-ns#"
   xmlns:svg="http://www.w3.org/2000/svg"
   xmlns="http://www.w3.org/2000/svg"
   xmlns:xlink="http://www.w3.org/1999/xlink"
   xmlns:sodipodi="http://sodipodi.sourceforge.net/DTD/sodipodi-0.dtd"
   xmlns:inkscape="http://www.inkscape.org/namespaces/inkscape"
   width="64px"
   height="64px"
   id="svg4225"
   sodipodi:version="0.32"
   inkscape:version="0.45.1"
   sodipodi:docbase="/home/d34df00d/myimages/icons/leechcraft"
   sodipodi:docname="preferences.svg"
   inkscape:output_extension="org.inkscape.output.svg.inkscape"
   inkscape:export-filename="/home/d34df00d/Programming/xd/src/plugins/http/resources/images/preferences.png"
   inkscape:export-xdpi="90"
   inkscape:export-ydpi="90">
  <defs
     id="defs4227">
    <linearGradient
       id="linearGradient6268">
      <stop
         id="stop6270"
         offset="0"
         style="stop-color:#006100;stop-opacity:1;" />
      <stop
         style="stop-color:#006100;stop-opacity:0.46025103;"
         offset="0.5"
         id="stop6274" />
      <stop
         id="stop6272"
         offset="1"
         style="stop-color:#006100;stop-opacity:1;" />
    </linearGradient>
    <linearGradient
       id="linearGradient6377">
      <stop
         style="stop-color:#006100;stop-opacity:1;"
         offset="0"
         id="stop6379" />
      <stop
         style="stop-color:#006100;stop-opacity:0.47058824;"
         offset="1"
         id="stop6381" />
    </linearGradient>
    <linearGradient
       inkscape:collect="always"
       xlink:href="#linearGradient6377"
       id="linearGradient7265"
       x1="55"
       y1="54.5"
       x2="4"
       y2="3.5"
       gradientUnits="userSpaceOnUse"
       gradientTransform="translate(-58,2.5)" />
    <linearGradient
       inkscape:collect="always"
       xlink:href="#linearGradient6377"
       id="linearGradient7273"
       x1="55"
       y1="54.5"
       x2="4"
       y2="3.5"
       gradientUnits="userSpaceOnUse"
       gradientTransform="translate(-58,2.5)" />
    <linearGradient
       inkscape:collect="always"
       xlink:href="#linearGradient6377"
       id="linearGradient6472"
       x1="55.00259"
       y1="54.064014"
       x2="4.5"
       y2="3.5"
       gradientUnits="userSpaceOnUse" />
    <linearGradient
       inkscape:collect="always"
       xlink:href="#linearGradient6377"
       id="linearGradient6480"
       x1="55.00259"
       y1="54.064014"
       x2="4.5"
       y2="3.5"
       gradientUnits="userSpaceOnUse" />
  </defs>
  <sodipodi:namedview
     id="base"
     pagecolor="#ffffff"
     bordercolor="#666666"
     borderopacity="1.0"
     inkscape:pageopacity="0.0"
     inkscape:pageshadow="2"
     inkscape:zoom="8.860932"
     inkscape:cx="-6.3542377"
     inkscape:cy="19.529244"
     inkscape:current-layer="layer1"
     showgrid="true"
     inkscape:document-units="px"
     inkscape:grid-bbox="true"
     inkscape:window-width="1280"
     inkscape:window-height="1002"
     inkscape:window-x="0"
     inkscape:window-y="22" />
  <metadata
     id="metadata4230">
    <rdf:RDF>
      <cc:Work
         rdf:about="">
        <dc:format>image/svg+xml</dc:format>
        <dc:type
           rdf:resource="http://purl.org/dc/dcmitype/StillImage" />
      </cc:Work>
    </rdf:RDF>
  </metadata>
  <g
     id="layer1"
     inkscape:label="Layer 1"
     inkscape:groupmode="layer">
    <path
       style="fill:url(#linearGradient6472);fill-rule:evenodd;stroke:url(#linearGradient6480);stroke-width:1;stroke-linecap:round;stroke-linejoin:round;stroke-opacity:1;fill-opacity:1.0;stroke-miterlimit:4;stroke-dasharray:none"
       d="M 5,9 L 10,4 L 15,7 L 15,9 C 15,9 19,14 22,17 C 25,20 30,24 30,24 L 35,19 C 35,19 45,26 49,30 C 53,34 60,44 60,44 C 60,44 60,44.13217 61,45.566085 C 62,47 60,49 60,49 L 55,54 L 50,59 C 50,59 48,61 45,59 C 42,57 45,59 45,59 C 45,59 35,52 31,48 C 27,44 20,34 20,34 L 25,29 C 25,29 21,24 18,21 C 15,18 10,14 10,14 L 8,14 L 5,9 z "
       id="path5495" />
  </g>
</svg>
