<?xml version="1.0" encoding="UTF-8" standalone="no"?>
<!-- Created with Inkscape (http://www.inkscape.org/) -->

<svg
   xmlns:dc="http://purl.org/dc/elements/1.1/"
   xmlns:cc="http://creativecommons.org/ns#"
   xmlns:rdf="http://www.w3.org/1999/02/22-rdf-syntax-ns#"
   xmlns:svg="http://www.w3.org/2000/svg"
   xmlns="http://www.w3.org/2000/svg"
   xmlns:xlink="http://www.w3.org/1999/xlink"
   xmlns:sodipodi="http://sodipodi.sourceforge.net/DTD/sodipodi-0.dtd"
   xmlns:inkscape="http://www.inkscape.org/namespaces/inkscape"
   version="1.0"
   width="24"
   height="24"
   id="svg2"
   inkscape:version="0.47 r22583"
   sodipodi:docname="lc_favorites1.svg">
  <metadata
     id="metadata70">
    <rdf:RDF>
      <cc:Work
         rdf:about="">
        <dc:format>image/svg+xml</dc:format>
        <dc:type
           rdf:resource="http://purl.org/dc/dcmitype/StillImage" />
        <dc:title></dc:title>
      </cc:Work>
    </rdf:RDF>
  </metadata>
  <sodipodi:namedview
     pagecolor="#ffffff"
     bordercolor="#666666"
     borderopacity="1"
     objecttolerance="10"
     gridtolerance="10"
     guidetolerance="10"
     inkscape:pageopacity="0"
     inkscape:pageshadow="2"
     inkscape:window-width="1024"
     inkscape:window-height="553"
     id="namedview68"
     showgrid="false"
     inkscape:zoom="5.2083335"
     inkscape:cx="6.5798484"
     inkscape:cy="14.635674"
     inkscape:window-x="-2"
     inkscape:window-y="0"
     inkscape:window-maximized="1"
     inkscape:current-layer="flowRoot3937" />
  <defs
     id="defs4">
    <linearGradient
       id="linearGradient3672">
      <stop
         id="stop3674"
         style="stop-color:#ff7979;stop-opacity:1;"
         offset="0" />
      <stop
         id="stop3676"
         style="stop-color:#e00000;stop-opacity:1;"
         offset="1" />
    </linearGradient>
    <linearGradient
       id="linearGradient3284">
      <stop
         id="stop3286"
         style="stop-color:#ffffff;stop-opacity:0.11764706;"
         offset="0" />
      <stop
         id="stop3288"
         style="stop-color:#ffffff;stop-opacity:0.78431374;"
         offset="1" />
    </linearGradient>
    <radialGradient
       inkscape:collect="always"
       xlink:href="#linearGradient3672"
       id="radialGradient3956"
       cx="7.5693359"
       cy="13.808646"
       fx="7.5693359"
       fy="13.808646"
       r="4.5621619"
       gradientTransform="matrix(1,0,0,1.0122012,0,-0.16848236)"
       gradientUnits="userSpaceOnUse" />
    <linearGradient
       inkscape:collect="always"
       xlink:href="#linearGradient3672"
       id="linearGradient3964"
       x1="9.0471725"
       y1="9.1908207"
       x2="7.5693359"
       y2="17.716881"
       gradientUnits="userSpaceOnUse"
       gradientTransform="matrix(0.93382283,0,0,0.93382283,0.02135928,1.1009805)" />
    <linearGradient
       id="linearGradient3304-2">
      <stop
         id="stop3306-3"
         style="stop-color:#ff8313;stop-opacity:1"
         offset="0" />
      <stop
         id="stop3308-8"
         style="stop-color:#ffe400;stop-opacity:1"
         offset="1" />
    </linearGradient>
    <linearGradient
       x1="95.064148"
       y1="194.67674"
       x2="95.064148"
       y2="102.30529"
       id="linearGradient3449"
       xlink:href="#linearGradient3304-2"
       gradientUnits="userSpaceOnUse"
       gradientTransform="matrix(0.9702524,0,0,0.9702524,3.7636156,1.718452)" />
    <linearGradient
       x1="122.63094"
       y1="194.67674"
       x2="126.51821"
       y2="55.323254"
       id="linearGradient3451"
       xlink:href="#linearGradient3304-2"
       gradientUnits="userSpaceOnUse"
       gradientTransform="matrix(0.9702524,0,0,0.9702524,3.7636156,1.718452)" />
    <radialGradient
       inkscape:collect="always"
       xlink:href="#linearGradient3672"
       id="radialGradient4005"
       gradientUnits="userSpaceOnUse"
       gradientTransform="matrix(1,0,0,1.0122012,0,-0.16848236)"
       cx="7.5693359"
       cy="13.808646"
       fx="7.5693359"
       fy="13.808646"
       r="4.5621619" />
    <radialGradient
       inkscape:collect="always"
       xlink:href="#linearGradient3672"
       id="radialGradient4007"
       gradientUnits="userSpaceOnUse"
       gradientTransform="matrix(1,0,0,1.0122012,0,-0.16848236)"
       cx="7.5693359"
       cy="13.808646"
       fx="7.5693359"
       fy="13.808646"
       r="4.5621619" />
    <linearGradient
       inkscape:collect="always"
       xlink:href="#linearGradient3284"
       id="linearGradient4011"
       gradientUnits="userSpaceOnUse"
       gradientTransform="matrix(0.93382283,0,0,0.93382283,0.02135928,1.1009805)"
       x1="7.5693359"
       y1="13.808646"
       x2="7.5693359"
       y2="9.4375525" />
    <linearGradient
       inkscape:collect="always"
       xlink:href="#linearGradient3284"
       id="linearGradient4016"
       gradientUnits="userSpaceOnUse"
       gradientTransform="matrix(1.5139064,0,0,1.5139065,-2.440648,-5.9783358)"
       x1="7.5693359"
       y1="13.808646"
       x2="7.5693359"
       y2="9.4375525" />
  </defs>
  <g
     id="g3693"
     transform="matrix(0,-1,1,0,-0.13600403,24.055996)">
    <g
       id="g3617"
       transform="matrix(0.96039625,0,-0.10421532,0.96935681,2.6521607,-1.1877445)">
      <g
         transform="matrix(0.18148135,1.6724413,-1.6880453,0,30.240926,-1.1879289)"
         style="font-size:2px;font-style:normal;font-weight:normal;fill:url(#radialGradient3956);fill-opacity:1.0;stroke:#3c3c3c;font-family:Bitstream Vera Sans;stroke-opacity:1;stroke-width:0.49346395999999998;stroke-miterlimit:4;stroke-dasharray:none;stroke-linejoin:round;stroke-linecap:round"
         id="flowRoot3937">
        <path
           d="m 5.0844299,9.9139824 c 0.7404886,8.2e-6 1.3223034,0.4286176 1.7454462,1.2858306 0.1532004,0.339247 0.2334508,0.598236 0.2407512,0.77697 l 0.016415,0 C 7.2147084,11.385854 7.44634,10.895233 7.781938,10.504917 8.1758883,10.110969 8.619089,9.9139906 9.1115412,9.9139824 c 0.7623711,8.2e-6 1.3733678,0.4085556 1.8329918,1.2256426 0.116719,0.302769 0.175083,0.587293 0.175092,0.853573 -9e-6,0.911941 -0.379375,1.781928 -1.1380962,2.609962 l -2.8944864,3.474477 -0.03283,0 L 3.979163,14.307692 C 3.3663406,13.559909 3.0599302,12.788411 3.0599313,11.993198 3.0599302,11.223531 3.4228806,10.612533 4.1487833,10.160205 4.4551914,9.9960648 4.7670734,9.9139906 5.0844299,9.9139824"
           style="font-size:12px;fill:url(#linearGradient3964);fill-opacity:1;stroke:#3c3c3c;stroke-width:0.46080792;stroke-linecap:round;stroke-linejoin:round;stroke-miterlimit:4;stroke-opacity:1;stroke-dasharray:none"
           id="path3946" />
        <g
           id="g3993"
           transform="matrix(0.57600989,0,0,0.57600988,1.9976108,5.2853386)"
           style="fill:url(#radialGradient4007)">
          <g
             transform="matrix(0.07729477,0,0,0.07729477,7.9684587,-3.2785271)"
             id="g3098"
             style="fill:url(#radialGradient4005)">
            <path
               d="m 148.53783,190.60403 -26.26902,0 c 0,-34.9898 -28.364829,-63.35462 -63.354624,-63.35462 l 0,-26.26901 c 49.497784,0 89.623644,40.12586 89.623644,89.62363 z"
               id="path3387"
               style="fill:url(#linearGradient3449);fill-opacity:1;stroke:#3c3c3c;stroke-width:4;stroke-linecap:round;stroke-linejoin:round;stroke-miterlimit:4;stroke-opacity:1;stroke-dasharray:none" />
            <path
               d="m 167.08063,190.60403 c 0,-59.73868 -48.42776,-108.166448 -108.166444,-108.166448 l 0,-27.041611 c 74.673354,0 135.208054,60.534699 135.208054,135.208059 l -27.04161,0 z"
               id="path3389"
               style="fill:url(#linearGradient3451);fill-opacity:1;stroke:#3c3c3c;stroke-width:4;stroke-linecap:round;stroke-linejoin:round;stroke-miterlimit:4;stroke-opacity:1;stroke-dasharray:none" />
          </g>
        </g>
        <path
           style="font-size:12px;fill:url(#linearGradient4016);fill-opacity:1;stroke:none;stroke-width:0.46080791999999998;stroke-linecap:round;stroke-linejoin:round;stroke-miterlimit:4;stroke-opacity:1;stroke-dasharray:none"
           d="M 5.78125 8.3125 C 5.2667541 8.3125133 4.7467465 8.4526472 4.25 8.71875 C 3.0731721 9.4520607 2.4999982 10.439722 2.5 11.6875 C 2.4999988 12.589935 2.731934 13.478992 3.21875 14.34375 C 4.9537408 14.769864 6.9562514 15.03125 9.125 15.03125 C 11.218547 15.03125 13.149389 14.774134 14.84375 14.375 C 15.324235 13.504117 15.562491 12.61152 15.5625 11.6875 C 15.562485 11.255809 15.470474 10.772097 15.28125 10.28125 C 14.536111 8.9565948 13.5172 8.3125133 12.28125 8.3125 C 11.48289 8.3125133 10.794919 8.6425845 10.15625 9.28125 C 9.6121811 9.9140273 9.2069713 10.69824 9 11.65625 C 8.9881646 11.366488 8.8421173 10.956235 8.59375 10.40625 C 7.9077541 9.0165428 6.9817245 8.3125133 5.78125 8.3125 z "
           transform="matrix(0.61682995,0,0,0.61682994,1.5268241,4.788597)"
           id="path4009" />
      </g>
    </g>
  </g>
</svg>
