<?xml version="1.0" encoding="UTF-8" standalone="no"?>
<!-- Created with Inkscape (http://www.inkscape.org/) -->

<svg
   xmlns:dc="http://purl.org/dc/elements/1.1/"
   xmlns:cc="http://creativecommons.org/ns#"
   xmlns:rdf="http://www.w3.org/1999/02/22-rdf-syntax-ns#"
   xmlns:svg="http://www.w3.org/2000/svg"
   xmlns="http://www.w3.org/2000/svg"
   xmlns:xlink="http://www.w3.org/1999/xlink"
   xmlns:sodipodi="http://sodipodi.sourceforge.net/DTD/sodipodi-0.dtd"
   xmlns:inkscape="http://www.inkscape.org/namespaces/inkscape"
   version="1.0"
   width="24"
   height="24"
   id="svg2"
   inkscape:version="0.47 r22583"
   sodipodi:docname="lc_aggregator_remove.svg">
  <metadata
     id="metadata71">
    <rdf:RDF>
      <cc:Work
         rdf:about="">
        <dc:format>image/svg+xml</dc:format>
        <dc:type
           rdf:resource="http://purl.org/dc/dcmitype/StillImage" />
        <dc:title></dc:title>
      </cc:Work>
    </rdf:RDF>
  </metadata>
  <sodipodi:namedview
     pagecolor="#ffffff"
     bordercolor="#666666"
     borderopacity="1"
     objecttolerance="10"
     gridtolerance="10"
     guidetolerance="10"
     inkscape:pageopacity="0"
     inkscape:pageshadow="2"
     inkscape:window-width="1024"
     inkscape:window-height="553"
     id="namedview69"
     showgrid="false"
     inkscape:zoom="3.4766084"
     inkscape:cx="16.74115"
     inkscape:cy="11.338471"
     inkscape:window-x="-2"
     inkscape:window-y="0"
     inkscape:window-maximized="1"
     inkscape:current-layer="svg2"
     showguides="true"
     inkscape:guide-bbox="true" />
  <defs
     id="defs4">
    <linearGradient
       id="linearGradient3284">
      <stop
         id="stop3286"
         style="stop-color:#ffffff;stop-opacity:0.78431374"
         offset="0" />
      <stop
         id="stop3288"
         style="stop-color:#ffffff;stop-opacity:0.11764706"
         offset="1" />
    </linearGradient>
    <linearGradient
       id="linearGradient3304">
      <stop
         id="stop3306"
         style="stop-color:#ff8313;stop-opacity:1"
         offset="0" />
      <stop
         id="stop3308"
         style="stop-color:#ffe400;stop-opacity:1"
         offset="1" />
    </linearGradient>
    <linearGradient
       inkscape:collect="always"
       xlink:href="#linearGradient3304"
       id="linearGradient2832"
       gradientUnits="userSpaceOnUse"
       gradientTransform="matrix(0.08041493,0,0,0.08041493,7.2875747,-3.3276656)"
       x1="95.064148"
       y1="194.67674"
       x2="95.064148"
       y2="102.30529" />
    <linearGradient
       inkscape:collect="always"
       xlink:href="#linearGradient3304"
       id="linearGradient2835"
       gradientUnits="userSpaceOnUse"
       gradientTransform="matrix(0.08041493,0,0,0.08041493,7.2875747,-3.3276656)"
       x1="122.63094"
       y1="194.67674"
       x2="126.51821"
       y2="55.323254" />
    <linearGradient
       inkscape:collect="always"
       xlink:href="#linearGradient3284"
       id="linearGradient2838"
       gradientUnits="userSpaceOnUse"
       gradientTransform="matrix(0.08041493,0,0,0.08041493,7.2875746,-3.3276656)"
       x1="103.0272"
       y1="102.30527"
       x2="97.237061"
       y2="156.41478" />
    <linearGradient
       inkscape:collect="always"
       xlink:href="#linearGradient3284"
       id="linearGradient2841"
       gradientUnits="userSpaceOnUse"
       gradientTransform="matrix(0.08041493,0,0,0.08041493,7.2875746,-3.3276656)"
       x1="126.5182"
       y1="55.32325"
       x2="122.48367"
       y2="150.67003" />
    <linearGradient
       id="linearGradient3304-6-1">
      <stop
         offset="0"
         style="stop-color:#ff1313;stop-opacity:1"
         id="stop3306-2-9" />
      <stop
         offset="1"
         style="stop-color:#ffcc00;stop-opacity:1"
         id="stop3308-1-6" />
    </linearGradient>
    <linearGradient
       id="linearGradient3284-7-3">
      <stop
         offset="0"
         style="stop-color:#ffffff;stop-opacity:0.78431374"
         id="stop3286-5-3" />
      <stop
         offset="1"
         style="stop-color:#ffffff;stop-opacity:0.11764706"
         id="stop3288-9-8" />
    </linearGradient>
    <linearGradient
       inkscape:collect="always"
       xlink:href="#linearGradient3304-6-1"
       id="linearGradient2935"
       gradientUnits="userSpaceOnUse"
       gradientTransform="matrix(0.50056491,0.50056491,-0.50056491,0.50056491,8.1257362,3.7168859)"
       x1="17.033213"
       y1="18.029209"
       x2="6.1431708"
       y2="7.1496291" />
    <linearGradient
       inkscape:collect="always"
       xlink:href="#linearGradient3284-7-3"
       id="linearGradient2937"
       gradientUnits="userSpaceOnUse"
       gradientTransform="matrix(0.50056491,0.50056491,-0.50056491,0.50056491,8.1257362,3.7168862)"
       x1="6.2179952"
       y1="6.2179966"
       x2="16.163746"
       y2="16.163748" />
  </defs>
  <path
     style="fill:url(#linearGradient2832);fill-opacity:1;stroke:#3c3c3c;stroke-width:0.38902119;stroke-linecap:round;stroke-linejoin:round;stroke-miterlimit:4;stroke-opacity:1;stroke-dasharray:none"
     d="m 19.286523,12.327251 c -0.725729,0 -1.451459,0 -2.177188,0 C 17.177296,9.5738898 14.747729,7.0817613 11.994004,7.0781078 11.698989,6.9443476 11.933415,6.287803 11.858477,5.9367331 11.95836,5.566564 11.576368,4.6997342 12.240723,4.9088715 c 3.489009,0.1094572 6.609257,3.0030355 6.986121,6.4723185 0.03988,0.313669 0.05969,0.629872 0.05968,0.946061 z"
     id="path3387" />
  <path
     style="fill:url(#linearGradient2835);fill-opacity:1;stroke:#3c3c3c;stroke-width:0.38902119;stroke-linecap:round;stroke-linejoin:round;stroke-miterlimit:4;stroke-opacity:1;stroke-dasharray:none"
     d="M 20.823358,12.327251 C 20.899593,8.267262 17.85066,4.440893 13.88308,3.5919331 13.2203,3.1706599 11.575432,3.8917009 11.858477,2.7292254 c 0,-0.5360252 0,-1.0720505 0,-1.6080757 4.406546,-0.061194 8.656275,2.7710958 10.325469,6.8441804 0.583053,1.3751251 0.882102,2.8686049 0.880631,4.3619209 -0.747073,0 -1.494146,0 -2.241219,0 z"
     id="path3389" />
  <path
     style="fill:url(#linearGradient2838);fill-opacity:1;stroke:none"
     d="m 11.848833,4.8982428 c 0,0.7294147 0,1.4588295 0,2.1882442 1.656963,-0.014617 3.291462,0.8154982 4.25492,2.1639304 0.711635,-0.097739 2.864663,-0.1012872 1.874704,-1.134306 C 16.621775,6.1226449 14.259775,4.8809873 11.848833,4.8982428 z"
     id="path3941" />
  <path
     style="fill:url(#linearGradient2841);fill-opacity:1;stroke:none"
     d="m 11.848833,1.1295999 c 0,0.745624 0,1.4912479 0,2.2368719 3.506163,-0.047896 6.892975,2.1887807 8.242387,5.421983 0.689402,-0.2135931 2.755881,0.3107287 2.100949,-0.7986032 C 20.519094,3.8940469 16.275831,1.0741176 11.848833,1.1295999 z"
     id="path3943" />
  <g
     id="layer1"
     transform="translate(-12.813559,5.694915)" />
  <g
     id="g2931"
     transform="matrix(1.1412476,0,0,1.1412476,-1.1477416,-2.0780712)">
    <path
       d="M 12.009951,9.9419074 8.1257353,13.826124 4.24152,9.9419088 2.3371969,11.846232 l 3.8842153,3.884215 -3.8842144,3.884214 1.9043235,1.904324 3.8842146,-3.884215 3.8842141,3.884213 1.904323,-1.904322 -3.884214,-3.884214 3.884216,-3.884215 -1.904324,-1.9043246 z"
       id="rect3546"
       style="fill:url(#linearGradient2935);fill-opacity:1;stroke:#000000;stroke-width:0.64131445;stroke-linecap:round;stroke-linejoin:round;stroke-miterlimit:4;stroke-opacity:1;stroke-dasharray:none;stroke-dashoffset:7.99999924" />
    <path
       d="m 4.2402295,9.9196453 -1.9239434,1.9239437 3.0691478,3.069147 c 0.8650505,0.09832 1.7622251,0.183233 2.7026823,0.183233 0.9570047,0 1.8698663,-0.08156 2.7484908,-0.183233 L 13.905755,11.843589 12.027619,9.9196453 8.1339244,13.81334 4.2402295,9.9196453 z"
       id="path3638"
       style="fill:url(#linearGradient2937);fill-opacity:1;stroke:none" />
  </g>
</svg>
