<?xml version="1.0" encoding="UTF-8" standalone="no"?>
<!-- Created with Inkscape (http://www.inkscape.org/) -->

<svg
   xmlns:dc="http://purl.org/dc/elements/1.1/"
   xmlns:cc="http://creativecommons.org/ns#"
   xmlns:rdf="http://www.w3.org/1999/02/22-rdf-syntax-ns#"
   xmlns:svg="http://www.w3.org/2000/svg"
   xmlns="http://www.w3.org/2000/svg"
   xmlns:xlink="http://www.w3.org/1999/xlink"
   xmlns:sodipodi="http://sodipodi.sourceforge.net/DTD/sodipodi-0.dtd"
   xmlns:inkscape="http://www.inkscape.org/namespaces/inkscape"
   version="1.0"
   width="24"
   height="24"
   id="svg2"
   inkscape:version="0.47 r22583"
   sodipodi:docname="lc_exportbinary.svg">
  <metadata
     id="metadata70">
    <rdf:RDF>
      <cc:Work
         rdf:about="">
        <dc:format>image/svg+xml</dc:format>
        <dc:type
           rdf:resource="http://purl.org/dc/dcmitype/StillImage" />
        <dc:title></dc:title>
      </cc:Work>
    </rdf:RDF>
  </metadata>
  <sodipodi:namedview
     pagecolor="#ffffff"
     bordercolor="#666666"
     borderopacity="1"
     objecttolerance="10"
     gridtolerance="10"
     guidetolerance="10"
     inkscape:pageopacity="0"
     inkscape:pageshadow="2"
     inkscape:window-width="1024"
     inkscape:window-height="553"
     id="namedview68"
     showgrid="false"
     inkscape:zoom="11.313709"
     inkscape:cx="9.2210218"
     inkscape:cy="13.735011"
     inkscape:window-x="-2"
     inkscape:window-y="0"
     inkscape:window-maximized="1"
     inkscape:current-layer="g3098" />
  <defs
     id="defs4">
    <inkscape:perspective
       sodipodi:type="inkscape:persp3d"
       inkscape:vp_x="0 : 12 : 1"
       inkscape:vp_y="0 : 1000 : 0"
       inkscape:vp_z="24 : 12 : 1"
       inkscape:persp3d-origin="12 : 8 : 1"
       id="perspective47" />
    <linearGradient
       id="linearGradient3714">
      <stop
         offset="0"
         style="stop-color:#ff1313;stop-opacity:1;"
         id="stop3716" />
      <stop
         offset="1"
         style="stop-color:#ff9618;stop-opacity:1;"
         id="stop3718" />
    </linearGradient>
    <linearGradient
       id="linearGradient3463">
      <stop
         id="stop3465"
         style="stop-color:#323232;stop-opacity:1"
         offset="0" />
      <stop
         id="stop3467"
         style="stop-color:#696969;stop-opacity:1"
         offset="0.37071067" />
      <stop
         id="stop3469"
         style="stop-color:#7f7f7f;stop-opacity:1"
         offset="0.69190311" />
      <stop
         id="stop3471"
         style="stop-color:#b4b4b4;stop-opacity:1"
         offset="1" />
    </linearGradient>
    <linearGradient
       id="linearGradient3284">
      <stop
         id="stop3286"
         style="stop-color:#ffffff;stop-opacity:0.11764706;"
         offset="0" />
      <stop
         id="stop3288"
         style="stop-color:#ffffff;stop-opacity:0.78431374;"
         offset="1" />
    </linearGradient>
    <linearGradient
       id="linearGradient3304">
      <stop
         id="stop3306"
         style="stop-color:#ff8313;stop-opacity:1"
         offset="0" />
      <stop
         id="stop3308"
         style="stop-color:#ffe400;stop-opacity:1"
         offset="1" />
    </linearGradient>
    <linearGradient
       inkscape:collect="always"
       xlink:href="#linearGradient3463"
       id="linearGradient3635"
       x1="10.709996"
       y1="12.096"
       x2="13.209996"
       y2="12.096"
       gradientUnits="userSpaceOnUse" />
    <linearGradient
       inkscape:collect="always"
       xlink:href="#linearGradient3284"
       id="linearGradient3663"
       gradientUnits="userSpaceOnUse"
       gradientTransform="translate(0,-2)"
       x1="5.4375"
       y1="10.662511"
       x2="5.4375"
       y2="6.2501645" />
    <linearGradient
       inkscape:collect="always"
       xlink:href="#linearGradient3284"
       id="linearGradient3673"
       gradientUnits="userSpaceOnUse"
       x1="11.96875"
       y1="14.111999"
       x2="11.959996"
       y2="0.76800007" />
    <linearGradient
       inkscape:collect="always"
       xlink:href="#linearGradient3714"
       id="linearGradient3685"
       gradientUnits="userSpaceOnUse"
       gradientTransform="translate(0,-2)"
       x1="5.4375"
       y1="10.662511"
       x2="5.4375"
       y2="6.2501645" />
    <linearGradient
       inkscape:collect="always"
       xlink:href="#linearGradient3284"
       id="linearGradient3687"
       gradientUnits="userSpaceOnUse"
       gradientTransform="translate(0,-2)"
       x1="5.4375"
       y1="10.662511"
       x2="5.4375"
       y2="6.2501645" />
    <linearGradient
       inkscape:collect="always"
       xlink:href="#linearGradient3304"
       id="linearGradient3703"
       x1="11.796875"
       y1="14.55175"
       x2="11.796875"
       y2="9.8477497"
       gradientUnits="userSpaceOnUse" />
    <linearGradient
       inkscape:collect="always"
       xlink:href="#linearGradient3284"
       id="linearGradient3707"
       gradientUnits="userSpaceOnUse"
       x1="11.796875"
       y1="14.55175"
       x2="11.796875"
       y2="9.8477497" />
    <linearGradient
       inkscape:collect="always"
       xlink:href="#linearGradient3714"
       id="linearGradient3720"
       gradientUnits="userSpaceOnUse"
       gradientTransform="translate(0,-2)"
       x1="5.4375"
       y1="10.662511"
       x2="5.4375"
       y2="6.2501645" />
    <linearGradient
       inkscape:collect="always"
       xlink:href="#linearGradient3714"
       id="linearGradient3747"
       gradientUnits="userSpaceOnUse"
       gradientTransform="translate(0,-2)"
       x1="5.4375"
       y1="10.662511"
       x2="5.4375"
       y2="6.2501645" />
    <linearGradient
       inkscape:collect="always"
       xlink:href="#linearGradient3284"
       id="linearGradient3750"
       gradientUnits="userSpaceOnUse"
       gradientTransform="translate(0,-2)"
       x1="5.4375"
       y1="10.662511"
       x2="5.4375"
       y2="6.2501645" />
    <linearGradient
       inkscape:collect="always"
       xlink:href="#linearGradient3463"
       id="linearGradient3756"
       gradientUnits="userSpaceOnUse"
       x1="10.709996"
       y1="12.096"
       x2="13.209996"
       y2="12.096" />
    <linearGradient
       inkscape:collect="always"
       xlink:href="#linearGradient3284"
       id="linearGradient3759"
       gradientUnits="userSpaceOnUse"
       x1="11.96875"
       y1="14.111999"
       x2="11.959996"
       y2="0.76800007" />
    <linearGradient
       inkscape:collect="always"
       xlink:href="#linearGradient3714"
       id="linearGradient3762"
       gradientUnits="userSpaceOnUse"
       gradientTransform="translate(0,-2)"
       x1="5.4375"
       y1="10.662511"
       x2="5.4375"
       y2="6.2501645" />
    <linearGradient
       inkscape:collect="always"
       xlink:href="#linearGradient3284"
       id="linearGradient3765"
       gradientUnits="userSpaceOnUse"
       gradientTransform="translate(0,-2)"
       x1="5.4375"
       y1="10.662511"
       x2="5.4375"
       y2="6.2501645" />
    <linearGradient
       gradientTransform="matrix(0.9702524,0,0,0.9702524,3.7636156,1.718452)"
       gradientUnits="userSpaceOnUse"
       xlink:href="#linearGradient3304-2"
       id="linearGradient3451"
       y2="196.73807"
       x2="151.26845"
       y1="53.261932"
       x1="126.51821" />
    <linearGradient
       gradientTransform="matrix(0.9702524,0,0,0.9702524,3.7636156,1.718452)"
       gradientUnits="userSpaceOnUse"
       xlink:href="#linearGradient3304-2"
       id="linearGradient3449"
       y2="196.73807"
       x2="118.6358"
       y1="100.24397"
       x1="77.385406" />
    <linearGradient
       gradientUnits="userSpaceOnUse"
       xlink:href="#linearGradient3304-2"
       id="linearGradient3447"
       y2="165"
       x2="68"
       y1="212.99998"
       x1="68" />
    <linearGradient
       gradientTransform="matrix(1.2146893,0,0,1.2146893,-270.38136,-32.302267)"
       gradientUnits="userSpaceOnUse"
       xlink:href="#linearGradient3170"
       id="linearGradient3432"
       y2="43.264011"
       x2="322"
       y1="215"
       x1="322" />
    <linearGradient
       gradientTransform="matrix(1.2146893,0,0,1.2146893,-270.38136,-32.302267)"
       gradientUnits="userSpaceOnUse"
       xlink:href="#linearGradient3284-5"
       id="linearGradient3429"
       y2="135"
       x2="325.5"
       y1="45"
       x1="325.5" />
    <linearGradient
       id="linearGradient3170">
      <stop
         offset="0"
         style="stop-color:#323232;stop-opacity:1"
         id="stop3172" />
      <stop
         offset="0.32967147"
         style="stop-color:#696969;stop-opacity:1"
         id="stop3216" />
      <stop
         offset="0.69190311"
         style="stop-color:#7f7f7f;stop-opacity:1"
         id="stop3218" />
      <stop
         offset="1"
         style="stop-color:#b4b4b4;stop-opacity:1"
         id="stop3212" />
    </linearGradient>
    <linearGradient
       id="linearGradient3284-5">
      <stop
         offset="0"
         style="stop-color:#ffffff;stop-opacity:0.78431374"
         id="stop3286-0" />
      <stop
         offset="1"
         style="stop-color:#ffffff;stop-opacity:0.11764706"
         id="stop3288-5" />
    </linearGradient>
    <linearGradient
       id="linearGradient3304-2">
      <stop
         offset="0"
         style="stop-color:#ff8313;stop-opacity:1"
         id="stop3306-3" />
      <stop
         offset="1"
         style="stop-color:#ffe400;stop-opacity:1"
         id="stop3308-8" />
    </linearGradient>
    <inkscape:perspective
       id="perspective3079"
       inkscape:persp3d-origin="125 : 83.333333 : 1"
       inkscape:vp_z="250 : 125 : 1"
       inkscape:vp_y="0 : 1000 : 0"
       inkscape:vp_x="0 : 125 : 1"
       sodipodi:type="inkscape:persp3d" />
  </defs>
  <g
     transform="translate(-6.892703,-2.5212918)"
     style="font-size:2px;font-style:normal;font-weight:normal;fill:#3c3c3c;fill-opacity:1;stroke:none;font-family:Bitstream Vera Sans"
     id="flowRoot3036">
    <path
       style="font-size:6px;fill:#3c3c3c;fill-opacity:1"
       d="m 9.3066406,15.357448 c 0.3222658,0 0.6445316,0 0.9667974,0 0,-1.112305 0,-2.224609 0,-3.336914 -0.3505861,0.07031 -0.7011722,0.140625 -1.0517583,0.210938 0.055741,-0.184289 -0.1364167,-0.571473 0.1476967,-0.568851 0.4924226,-0.102888 0.9828166,-0.226096 1.4899986,-0.181149 0,1.291992 0,2.583984 0,3.875976 0.322266,0 0.644531,0 0.966797,0 -0.04533,0.183465 0.134138,0.591728 -0.188338,0.498047 -0.777065,0 -1.554129,0 -2.3311934,0 0,-0.166016 0,-0.332031 0,-0.498047 z"
       id="path3106" />
    <path
       style="font-size:6px;fill:#3c3c3c;fill-opacity:1"
       d="m 13.126953,15.357448 c 0.322266,0 0.644531,0 0.966797,0 0,-1.112305 0,-2.224609 0,-3.336914 -0.350586,0.07031 -0.701172,0.140625 -1.051758,0.210938 0.05574,-0.184289 -0.136417,-0.571473 0.147697,-0.56885 0.492423,-0.102889 0.982817,-0.226097 1.489999,-0.18115 0,1.291992 0,2.583984 0,3.875976 0.322265,0 0.644531,0 0.966796,0 -0.04533,0.183465 0.134138,0.591728 -0.188338,0.498047 -0.777064,0 -1.554129,0 -2.331193,0 0,-0.166016 0,-0.332031 0,-0.498047 z"
       id="path3108" />
    <path
       style="font-size:6px;fill:#3c3c3c;fill-opacity:1"
       d="m 18.110352,11.87112 c -0.737822,0.01313 -0.886062,0.89696 -0.90896,1.479345 1.7e-5,0.6798 -0.0666,1.526772 0.508324,2.00918 0.673497,0.420384 1.279097,-0.343565 1.276255,-0.985575 0.06352,-0.749344 0.129373,-1.598071 -0.315867,-2.249164 -0.134672,-0.166538 -0.346787,-0.25842 -0.559752,-0.253786 z m 0,-0.46875 c 0.78825,-0.05246 1.346157,0.683377 1.437135,1.402453 0.12815,0.938251 0.17276,2.075006 -0.530215,2.809339 -0.648482,0.595128 -1.851944,0.357437 -2.163344,-0.490745 -0.353377,-0.914618 -0.353707,-1.987418 0,-2.901969 0.207605,-0.501186 0.709067,-0.843473 1.256424,-0.819078 z"
       id="path3110" />
    <path
       style="font-size:6px;fill:#3c3c3c;fill-opacity:1"
       d="m 20.767578,15.357448 c 0.322266,0 0.644531,0 0.966797,0 0,-1.112305 0,-2.224609 0,-3.336914 -0.350586,0.07031 -0.701172,0.140625 -1.051758,0.210938 0.05574,-0.184289 -0.136417,-0.571473 0.147697,-0.56885 0.492422,-0.102889 0.982816,-0.226097 1.489998,-0.18115 0,1.291992 0,2.583984 0,3.875976 0.322266,0 0.644531,0 0.966797,0 -0.04533,0.183465 0.134138,0.591728 -0.188338,0.498047 -0.777064,0 -1.554129,0 -2.331193,0 0,-0.166016 0,-0.332031 0,-0.498047 z"
       id="path3112" />
    <path
       style="font-size:6px;fill:#3c3c3c;fill-opacity:1"
       d="m 10.469727,19.37112 c -0.7378224,0.01313 -0.8860619,0.89696 -0.9089593,1.479345 1.7e-5,0.6798 -0.066597,1.526772 0.5083233,2.00918 0.673496,0.420384 1.279097,-0.343564 1.276255,-0.985575 0.06352,-0.749344 0.129373,-1.598071 -0.315867,-2.249164 -0.134672,-0.166538 -0.346787,-0.25842 -0.559752,-0.253786 z m 0,-0.46875 c 0.78825,-0.05246 1.346157,0.683377 1.437135,1.402453 0.12815,0.938251 0.17276,2.075006 -0.530215,2.809339 -0.648482,0.595128 -1.8519437,0.357437 -2.1633446,-0.490745 -0.3533762,-0.914618 -0.3537066,-1.987418 0,-2.901969 0.2076055,-0.501186 0.7090674,-0.843473 1.2564246,-0.819078 z"
       id="path3114" />
    <path
       style="font-size:6px;fill:#3c3c3c;fill-opacity:1"
       d="m 13.126953,22.857448 c 0.322266,0 0.644531,0 0.966797,0 0,-1.112305 0,-2.224609 0,-3.336914 -0.350586,0.07031 -0.701172,0.140625 -1.051758,0.210938 0.05574,-0.184289 -0.136417,-0.571473 0.147697,-0.56885 0.492423,-0.102889 0.982817,-0.226097 1.489999,-0.18115 0,1.291992 0,2.583984 0,3.875976 0.322265,0 0.644531,0 0.966796,0 -0.04533,0.183465 0.134138,0.591728 -0.188338,0.498047 -0.777064,0 -1.554129,0 -2.331193,0 0,-0.166016 0,-0.332031 0,-0.498047 z"
       id="path3116" />
    <path
       style="font-size:6px;fill:#3c3c3c;fill-opacity:1"
       d="m 16.947266,22.857448 c 0.322265,0 0.644531,0 0.966796,0 0,-1.112305 0,-2.224609 0,-3.336914 -0.350586,0.07031 -0.701171,0.140625 -1.051757,0.210938 0.05574,-0.184289 -0.136417,-0.571473 0.147697,-0.568851 0.492422,-0.102888 0.982816,-0.226096 1.489998,-0.181149 0,1.291992 0,2.583984 0,3.875976 0.322266,0 0.644531,0 0.966797,0 -0.04533,0.183465 0.134138,0.591728 -0.188338,0.498047 -0.777064,0 -1.554129,0 -2.331193,0 0,-0.166016 0,-0.332031 0,-0.498047 z"
       id="path3118" />
    <path
       style="font-size:6px;fill:#3c3c3c;fill-opacity:1"
       d="m 21.930664,19.37112 c -0.737822,0.01313 -0.886061,0.89696 -0.908959,1.479345 1.8e-5,0.6798 -0.0666,1.526773 0.508323,2.00918 0.673497,0.420384 1.279099,-0.343564 1.276256,-0.985575 0.06352,-0.749344 0.129373,-1.598072 -0.315868,-2.249164 -0.134672,-0.166538 -0.346787,-0.25842 -0.559752,-0.253786 z m 0,-0.46875 c 0.78825,-0.05246 1.346158,0.683377 1.437135,1.402453 0.128151,0.938251 0.172761,2.075006 -0.530215,2.809339 -0.648482,0.595128 -1.851943,0.357437 -2.163344,-0.490745 -0.353376,-0.914618 -0.353707,-1.987418 0,-2.901969 0.207605,-0.501185 0.709067,-0.843473 1.256424,-0.819078 z"
       id="path3120" />
  </g>
  <g
     id="g3098"
     transform="matrix(-0.07729478,0,0,-0.07729478,27.220601,15.609134)">
    <path
       style="fill:url(#linearGradient3449);fill-opacity:1;stroke:#3c3c3c;stroke-width:4;stroke-linecap:round;stroke-linejoin:round;stroke-miterlimit:4;stroke-opacity:1;stroke-dasharray:none"
       id="path3387"
       d="m 148.53783,190.60403 -26.26902,0 c 0,-34.9898 -28.364829,-63.35462 -63.354624,-63.35462 l 0,-26.26901 c 49.497784,0 89.623644,40.12586 89.623644,89.62363 z" />
    <path
       style="fill:url(#linearGradient3451);fill-opacity:1;stroke:#3c3c3c;stroke-width:4;stroke-linecap:round;stroke-linejoin:round;stroke-miterlimit:4;stroke-opacity:1;stroke-dasharray:none"
       id="path3389"
       d="m 167.08063,190.60403 c 0,-59.73868 -48.42776,-108.166448 -108.166444,-108.166448 l 0,-27.041611 c 74.673354,0 135.208054,60.534699 135.208054,135.208059 l -27.04161,0 z" />
  </g>
</svg>
