<?xml version="1.0" encoding="UTF-8" standalone="no"?>
<!-- Created with Inkscape (http://www.inkscape.org/) -->

<svg
   xmlns:dc="http://purl.org/dc/elements/1.1/"
   xmlns:cc="http://creativecommons.org/ns#"
   xmlns:rdf="http://www.w3.org/1999/02/22-rdf-syntax-ns#"
   xmlns:svg="http://www.w3.org/2000/svg"
   xmlns="http://www.w3.org/2000/svg"
   xmlns:xlink="http://www.w3.org/1999/xlink"
   xmlns:sodipodi="http://sodipodi.sourceforge.net/DTD/sodipodi-0.dtd"
   xmlns:inkscape="http://www.inkscape.org/namespaces/inkscape"
   version="1.0"
   width="24"
   height="24"
   id="svg2"
   inkscape:version="0.47 r22583"
   sodipodi:docname="lc_exportopml.svg">
  <metadata
     id="metadata70">
    <rdf:RDF>
      <cc:Work
         rdf:about="">
        <dc:format>image/svg+xml</dc:format>
        <dc:type
           rdf:resource="http://purl.org/dc/dcmitype/StillImage" />
        <dc:title />
      </cc:Work>
    </rdf:RDF>
  </metadata>
  <sodipodi:namedview
     pagecolor="#ffffff"
     bordercolor="#666666"
     borderopacity="1"
     objecttolerance="10"
     gridtolerance="10"
     guidetolerance="10"
     inkscape:pageopacity="0"
     inkscape:pageshadow="2"
     inkscape:window-width="1024"
     inkscape:window-height="553"
     id="namedview68"
     showgrid="false"
     inkscape:zoom="1"
     inkscape:cx="153.54639"
     inkscape:cy="-35.922083"
     inkscape:window-x="-2"
     inkscape:window-y="0"
     inkscape:window-maximized="1"
     inkscape:current-layer="svg2" />
  <defs
     id="defs4">
    <inkscape:perspective
       sodipodi:type="inkscape:persp3d"
       inkscape:vp_x="0 : 12 : 1"
       inkscape:vp_y="0 : 1000 : 0"
       inkscape:vp_z="24 : 12 : 1"
       inkscape:persp3d-origin="12 : 8 : 1"
       id="perspective21" />
    <linearGradient
       gradientTransform="matrix(0.9702524,0,0,0.9702524,3.7636156,1.718452)"
       gradientUnits="userSpaceOnUse"
       xlink:href="#linearGradient3304-2"
       id="linearGradient3451"
       y2="55.323254"
       x2="126.51821"
       y1="194.67674"
       x1="122.63094" />
    <linearGradient
       gradientTransform="matrix(0.9702524,0,0,0.9702524,3.7636156,1.718452)"
       gradientUnits="userSpaceOnUse"
       xlink:href="#linearGradient3304-2"
       id="linearGradient3449"
       y2="102.30529"
       x2="95.064148"
       y1="194.67674"
       x1="95.064148" />
    <linearGradient
       id="linearGradient3304-2">
      <stop
         offset="0"
         style="stop-color:#ff8313;stop-opacity:1"
         id="stop3306-3" />
      <stop
         offset="1"
         style="stop-color:#ffe400;stop-opacity:1"
         id="stop3308-8" />
    </linearGradient>
  </defs>
  <g
     id="g3098"
     transform="matrix(0.07729477,0,0,0.07729477,7.9684587,-3.2785271)">
    <path
       style="fill:url(#linearGradient3449);fill-opacity:1;stroke:#3c3c3c;stroke-width:4;stroke-linecap:round;stroke-linejoin:round;stroke-miterlimit:4;stroke-opacity:1;stroke-dasharray:none"
       id="path3387"
       d="m 148.53783,190.60403 -26.26902,0 c 0,-34.9898 -28.364829,-63.35462 -63.354624,-63.35462 l 0,-26.26901 c 49.497784,0 89.623644,40.12586 89.623644,89.62363 z" />
    <path
       style="fill:url(#linearGradient3451);fill-opacity:1;stroke:#3c3c3c;stroke-width:4;stroke-linecap:round;stroke-linejoin:round;stroke-miterlimit:4;stroke-opacity:1;stroke-dasharray:none"
       id="path3389"
       d="m 167.08063,190.60403 c 0,-59.73868 -48.42776,-108.166448 -108.166444,-108.166448 l 0,-27.041611 c 74.673354,0 135.208054,60.534699 135.208054,135.208059 l -27.04161,0 z" />
  </g>
  <g
     transform="translate(13.742987,4.6996243)"
     style="font-size:6px;font-style:normal;font-weight:normal;fill:#000000;fill-opacity:1;stroke:none;font-family:Bitstream Vera Sans"
     id="flowRoot2868">
    <path
       style="font-size:5px"
       d="m -8.371582,8.8353083 c -0.8398437,0.2986654 -1.679687,0.5973307 -2.519531,0.8959961 0.839844,0.2970376 1.6796873,0.5940756 2.519531,0.8911136 0.026432,0.294574 0.035183,0.563925 -0.306719,0.333085 -0.9410547,-0.341335 -1.882109,-0.682669 -2.823164,-1.0240033 -0.05576,-0.2965337 0.02243,-0.4991616 0.345059,-0.5304313 0.928275,-0.3366986 1.8565493,-0.6733973 2.784824,-1.010096 0,0.148112 0,0.2962239 0,0.4443359 z"
       id="path2919" />
    <path
       style="font-size:5px"
       d="m -6.3110352,8.8768122 c -0.7777675,0.019414 -0.9037091,1.007328 -0.7001884,1.5870288 0.1825096,0.739846 1.3288778,0.646756 1.4265051,-0.09533 0.1461871,-0.5606782 0.02427,-1.4854701 -0.7263167,-1.4916998 z m 0,-0.3808594 c 0.8549839,-0.067825 1.3684091,0.8359224 1.2496558,1.5988922 0.047165,0.912137 -0.9583465,1.554458 -1.7745588,1.176987 -0.8421005,-0.378617 -0.9069105,-1.5873585 -0.4757685,-2.2952266 0.2174671,-0.3286884 0.6154181,-0.490371 1.0006715,-0.4806526 z"
       id="path2921" />
    <path
       style="font-size:5px"
       d="m -3.8793945,10.88609 c 0,0.483398 0,0.966797 0,1.450195 -0.2499378,0.0042 -0.5704921,0.07906 -0.4516602,-0.285488 0,-1.162975 0,-2.3259508 0,-3.4889262 0.2499378,-0.00422 0.5704921,-0.07906 0.4516602,0.285488 -0.002,0.255811 0.521442,-0.5811574 0.8740234,-0.351406 0.9297315,-0.00686 1.2748916,1.12483 1.0766582,1.8839272 -0.075945,0.831691 -1.1741439,1.334252 -1.7907703,0.719223 l -0.084534,-0.09872 -0.075378,-0.114288 z m 1.5283203,-0.9545903 c 0.1448601,-0.6950819 -0.6977259,-1.4501002 -1.2720494,-0.8427423 -0.3639026,0.4879245 -0.3678948,1.2925046 0.058365,1.7443846 0.646417,0.502726 1.3078672,-0.227384 1.2136848,-0.9016423 z"
       id="path2923" />
    <path
       style="font-size:5px"
       d="M 0.98876953,9.0867731 C 1.2727334,8.3659393 2.4984201,8.252915 2.7438705,9.0553416 2.91019,9.7668514 2.8045639,10.509839 2.8344727,11.236431 2.7781222,11.330546 2.2415323,11.396802 2.3828125,11.092326 2.3539351,10.457136 2.4533595,9.8056644 2.3045327,9.1848883 1.8887396,8.4611749 0.86732617,9.1727595 1.0644531,9.8731876 c 0,0.4743524 0,0.9487054 0,1.4230584 -0.24993776,0.0042 -0.57049202,0.07906 -0.45166013,-0.285488 -0.0278622,-0.608399 0.0689263,-1.2327592 -0.0782788,-1.8267852 -0.4181576,-0.7224363 -1.4349548,-0.00989 -1.24008056,0.6892148 0,0.4743524 0,0.9487054 0,1.4230584 -0.24993777,0.0042 -0.57049211,0.07906 -0.45166021,-0.285488 0,-0.816296 0,-1.6325915 0,-2.4488872 0.24993779,-0.00422 0.57049209,-0.07906 0.45166021,0.285488 -0.004141,0.2833132 0.51893425,-0.5818782 0.87890625,-0.351406 0.37205453,-0.01799 0.71054223,0.2365635 0.81542969,0.5908203 z"
       id="path2925" />
    <path
       style="font-size:5px"
       d="m 3.7329102,7.4974177 c 0.2496329,-0.00473 0.5682368,-0.078432 0.4492187,0.285488 0,1.1711135 0,2.3422273 0,3.5133403 -0.2496329,0.0047 -0.5682368,0.07843 -0.4492187,-0.285488 0,-1.1711135 0,-2.3422269 0,-3.5133403 z"
       id="path2927" />
    <path
       style="font-size:5px"
       d="M 5.1782227,8.8353083 C 5.1517904,8.5407343 5.1430401,8.271383 5.4849417,8.5022238 6.4259963,8.843558 7.3670509,9.1848921 8.3081055,9.5262263 8.3638668,9.82276 8.2856748,10.025388 7.9630466,10.056658 7.034772,10.393356 6.1064973,10.730055 5.1782227,11.066754 5.1517203,10.791159 5.1429466,10.528091 5.485756,10.513438 6.221461,10.252727 6.9571661,9.9920155 7.6928711,9.7313044 6.854655,9.432639 6.0164388,9.1339737 5.1782227,8.8353083 z"
       id="path2929" />
  </g>
</svg>
