<?xml version="1.0" encoding="UTF-8" standalone="no"?>
<!-- Created with Inkscape (http://www.inkscape.org/) -->

<svg
   xmlns:dc="http://purl.org/dc/elements/1.1/"
   xmlns:cc="http://creativecommons.org/ns#"
   xmlns:rdf="http://www.w3.org/1999/02/22-rdf-syntax-ns#"
   xmlns:svg="http://www.w3.org/2000/svg"
   xmlns="http://www.w3.org/2000/svg"
   xmlns:xlink="http://www.w3.org/1999/xlink"
   xmlns:sodipodi="http://sodipodi.sourceforge.net/DTD/sodipodi-0.dtd"
   xmlns:inkscape="http://www.inkscape.org/namespaces/inkscape"
   version="1.0"
   width="24"
   height="24"
   id="svg2"
   inkscape:version="0.47pre2 r22153"
   sodipodi:docname="lc_aggregator_updateallfeeds.svg">
  <metadata
     id="metadata71">
    <rdf:RDF>
      <cc:Work
         rdf:about="">
        <dc:format>image/svg+xml</dc:format>
        <dc:type
           rdf:resource="http://purl.org/dc/dcmitype/StillImage" />
        <dc:title />
      </cc:Work>
    </rdf:RDF>
  </metadata>
  <sodipodi:namedview
     pagecolor="#ffffff"
     bordercolor="#666666"
     borderopacity="1"
     objecttolerance="10"
     gridtolerance="10"
     guidetolerance="10"
     inkscape:pageopacity="0"
     inkscape:pageshadow="2"
     inkscape:window-width="1022"
     inkscape:window-height="535"
     id="namedview69"
     showgrid="false"
     inkscape:zoom="6.9532167"
     inkscape:cx="-8.7241284"
     inkscape:cy="7.2970803"
     inkscape:window-x="0"
     inkscape:window-y="24"
     inkscape:window-maximized="1"
     inkscape:current-layer="svg2"
     showguides="true"
     inkscape:guide-bbox="true" />
  <defs
     id="defs4">
    <linearGradient
       id="linearGradient3284">
      <stop
         id="stop3286"
         style="stop-color:#ffffff;stop-opacity:0.78431374"
         offset="0" />
      <stop
         id="stop3288"
         style="stop-color:#ffffff;stop-opacity:0.11764706"
         offset="1" />
    </linearGradient>
    <linearGradient
       id="linearGradient3304">
      <stop
         id="stop3306"
         style="stop-color:#ff8313;stop-opacity:1"
         offset="0" />
      <stop
         id="stop3308"
         style="stop-color:#ffe400;stop-opacity:1"
         offset="1" />
    </linearGradient>
    <linearGradient
       inkscape:collect="always"
       xlink:href="#linearGradient3284"
       id="linearGradient3976"
       gradientUnits="userSpaceOnUse"
       gradientTransform="matrix(0.08041493,0,0,0.08041493,7.2875746,-3.3276656)"
       x1="103.0272"
       y1="102.30527"
       x2="97.237061"
       y2="156.41478" />
    <linearGradient
       inkscape:collect="always"
       xlink:href="#linearGradient3284"
       id="linearGradient3978"
       gradientUnits="userSpaceOnUse"
       gradientTransform="matrix(0.08041493,0,0,0.08041493,7.2875746,-3.3276656)"
       x1="126.5182"
       y1="55.32325"
       x2="122.48367"
       y2="150.67003" />
    <linearGradient
       inkscape:collect="always"
       xlink:href="#linearGradient3304"
       id="linearGradient3980"
       gradientUnits="userSpaceOnUse"
       gradientTransform="matrix(0.08041493,0,0,0.08041493,7.2875747,-3.3276656)"
       x1="122.63094"
       y1="194.67674"
       x2="126.51821"
       y2="55.323254" />
    <linearGradient
       inkscape:collect="always"
       xlink:href="#linearGradient3304"
       id="linearGradient3982"
       gradientUnits="userSpaceOnUse"
       gradientTransform="matrix(0.08041493,0,0,0.08041493,7.2875747,-3.3276656)"
       x1="95.064148"
       y1="194.67674"
       x2="95.064148"
       y2="102.30529" />
    <linearGradient
       inkscape:collect="always"
       xlink:href="#linearGradient3304"
       id="linearGradient4354"
       x1="7.328125"
       y1="22.6625"
       x2="7.328125"
       y2="11.24375"
       gradientUnits="userSpaceOnUse"
       gradientTransform="matrix(1.2644935,0,0,1.2644935,-0.17192076,-5.9940834)" />
    <linearGradient
       inkscape:collect="always"
       xlink:href="#linearGradient3284"
       id="linearGradient4363"
       gradientUnits="userSpaceOnUse"
       x1="9.773037"
       y1="11.34375"
       x2="9.9168549"
       y2="22.5625"
       gradientTransform="matrix(1.2644935,0,0,1.2644935,-0.17192076,-5.9940834)" />
  </defs>
  <path
     style="fill:url(#linearGradient3982);fill-opacity:1;stroke:#3c3c3c;stroke-width:0.38902119;stroke-linecap:round;stroke-linejoin:round;stroke-miterlimit:4;stroke-opacity:1;stroke-dasharray:none"
     id="path3387"
     d="m 19.286523,12.327251 -2.177188,0 c 0,-2.8999697 -2.350889,-5.2508582 -5.250858,-5.2508582 l 0,-2.1771866 c 4.102397,0 7.428046,3.3256479 7.428046,7.4280448 z" />
  <path
     style="fill:url(#linearGradient3980);fill-opacity:1;stroke:#3c3c3c;stroke-width:0.38902119;stroke-linecap:round;stroke-linejoin:round;stroke-miterlimit:4;stroke-opacity:1;stroke-dasharray:none"
     id="path3389"
     d="m 20.823358,12.327251 c 0,-4.9511679 -4.013714,-8.9648813 -8.964881,-8.9648813 l 0,-2.24122 c 6.188959,0 11.2061,5.0171411 11.2061,11.2061013 l -2.241219,0 z" />
  <path
     style="fill:url(#linearGradient3976);fill-opacity:1;stroke:none"
     d="m 11.848833,4.8982428 0,2.1882442 c 1.749692,0 3.300733,0.8480874 4.25492,2.1639304 0.80122,-0.019932 1.560184,-0.1903566 2.261185,-0.5105903 C 17.099357,6.4507224 14.649624,4.8982428 11.848833,4.8982428 z"
     id="path3941" />
  <path
     style="fill:url(#linearGradient3978);fill-opacity:1;stroke:none"
     d="m 11.848833,1.1295999 0,2.2368719 c 3.693802,0 6.869515,2.2314138 8.242387,5.421983 0.802411,-0.027757 1.574833,-0.099304 2.334127,-0.1945106 C 20.888695,4.2383664 16.730299,1.1295999 11.848833,1.1295999 z"
     id="path3943" />
  <g
     id="layer1"
     transform="translate(-12.813559,5.694915)" />
  <path
     style="fill:url(#linearGradient4354);fill-opacity:1;stroke:#000000;stroke-width:0.25289869;stroke-miterlimit:4;stroke-opacity:1;stroke-dasharray:none"
     d="m 9.1142032,8.3500145 c -3.585537,0 -6.51791,2.6719175 -6.9942295,6.1248905 l -1.34352435,0 3.24026455,3.042687 3.0426874,-3.042687 -1.4620706,0 c 0.4120653,-1.555536 1.8311934,-2.687049 3.5168725,-2.687049 1.7128678,0 3.1312828,1.17221 3.5168728,2.76608 l 1.304009,-1.224978 0.474185,-0.43467 0.434669,0.43467 1.304009,1.304008 C 15.751741,11.095985 12.759966,8.3500145 9.1142032,8.3500145 z m 5.2555508,5.4136125 -3.200749,3.082203 1.304009,0 c -0.544138,1.328233 -1.842209,2.252379 -3.3588108,2.252379 -1.6233056,0 -2.9704027,-1.09081 -3.4378416,-2.568502 L 4.3328372,17.833716 4.0167139,18.149839 3.7005905,17.873231 2.0804582,16.33213 c 0.4556161,3.483181 3.4298876,6.203921 7.033745,6.203921 3.4248608,0 6.2554948,-2.456981 6.9151988,-5.690221 l 1.38304,0 -3.042688,-3.082203 z"
     id="path4302" />
  <path
     style="fill:url(#linearGradient4363);fill-opacity:1;stroke:none"
     d="m 9.1142032,8.3500145 c -3.585537,0 -6.51791,2.6719175 -6.9942295,6.1248905 l -1.34352435,0 0.51370045,0.474185 c 1.2318117,0.481935 2.6243381,0.867669 4.1491192,1.106432 l 0.039515,0 1.5806168,-1.580617 -1.4620706,0 c 0.4120653,-1.555536 1.8311934,-2.687049 3.5168725,-2.687049 1.7128678,0 3.1312828,1.17221 3.5168728,2.76608 l 1.304009,-1.224978 0.474185,-0.43467 0.434669,0.43467 1.304009,1.304008 C 15.751741,11.095985 12.759966,8.3500145 9.1142032,8.3500145 z m 5.2555508,5.4136125 -2.568502,2.489472 c 1.520141,-0.142019 2.93934,-0.449453 4.22815,-0.829824 l -1.659648,-1.659648 z"
     id="path4356" />
</svg>
