<?xml version="1.0" encoding="UTF-8" standalone="no"?>
<!-- Created with Inkscape (http://www.inkscape.org/) -->

<svg
   xmlns:dc="http://purl.org/dc/elements/1.1/"
   xmlns:cc="http://creativecommons.org/ns#"
   xmlns:rdf="http://www.w3.org/1999/02/22-rdf-syntax-ns#"
   xmlns:svg="http://www.w3.org/2000/svg"
   xmlns="http://www.w3.org/2000/svg"
   xmlns:xlink="http://www.w3.org/1999/xlink"
   xmlns:sodipodi="http://sodipodi.sourceforge.net/DTD/sodipodi-0.dtd"
   xmlns:inkscape="http://www.inkscape.org/namespaces/inkscape"
   version="1.0"
   width="24"
   height="24"
   id="svg2"
   inkscape:version="0.47 r22583"
   sodipodi:docname="lc_fb2.svg">
  <metadata
     id="metadata70">
    <rdf:RDF>
      <cc:Work
         rdf:about="">
        <dc:format>image/svg+xml</dc:format>
        <dc:type
           rdf:resource="http://purl.org/dc/dcmitype/StillImage" />
        <dc:title></dc:title>
      </cc:Work>
    </rdf:RDF>
  </metadata>
  <sodipodi:namedview
     pagecolor="#ffffff"
     bordercolor="#666666"
     borderopacity="1"
     objecttolerance="10"
     gridtolerance="10"
     guidetolerance="10"
     inkscape:pageopacity="0"
     inkscape:pageshadow="2"
     inkscape:window-width="1024"
     inkscape:window-height="553"
     id="namedview68"
     showgrid="false"
     inkscape:zoom="8.0000001"
     inkscape:cx="0.10163792"
     inkscape:cy="9.0806355"
     inkscape:window-x="-2"
     inkscape:window-y="0"
     inkscape:window-maximized="1"
     inkscape:current-layer="svg2" />
  <defs
     id="defs4">
    <linearGradient
       gradientTransform="matrix(0.9702524,0,0,0.9702524,3.7636156,1.718452)"
       gradientUnits="userSpaceOnUse"
       xlink:href="#linearGradient3304-2"
       id="linearGradient3451"
       y2="55.323254"
       x2="126.51821"
       y1="194.67674"
       x1="122.63094" />
    <linearGradient
       gradientTransform="matrix(0.9702524,0,0,0.9702524,3.7636156,1.718452)"
       gradientUnits="userSpaceOnUse"
       xlink:href="#linearGradient3304-2"
       id="linearGradient3449"
       y2="102.30529"
       x2="95.064148"
       y1="194.67674"
       x1="95.064148" />
    <linearGradient
       id="linearGradient3304-2">
      <stop
         offset="0"
         style="stop-color:#ff8313;stop-opacity:1"
         id="stop3306-3" />
      <stop
         offset="1"
         style="stop-color:#ffe400;stop-opacity:1"
         id="stop3308-8" />
    </linearGradient>
    <linearGradient
       id="linearGradient3170">
      <stop
         offset="0"
         style="stop-color:#323232;stop-opacity:1"
         id="stop3172" />
      <stop
         offset="0.32967147"
         style="stop-color:#696969;stop-opacity:1"
         id="stop3216" />
      <stop
         offset="0.69190311"
         style="stop-color:#7f7f7f;stop-opacity:1"
         id="stop3218" />
      <stop
         offset="1"
         style="stop-color:#b4b4b4;stop-opacity:1"
         id="stop3212" />
    </linearGradient>
    <linearGradient
       inkscape:collect="always"
       xlink:href="#linearGradient3170"
       id="linearGradient3667"
       gradientUnits="userSpaceOnUse"
       gradientTransform="matrix(1.255102,0,0,1.255102,-2.9502089,-6.5091154)"
       x1="7.2455921"
       y1="22.431107"
       x2="7.2942915"
       y2="13.061942" />
    <linearGradient
       inkscape:collect="always"
       xlink:href="#linearGradient3304-2"
       id="linearGradient3697"
       x1="24.705532"
       y1="3.9006157"
       x2="20.683819"
       y2="-0.1210987"
       gradientUnits="userSpaceOnUse"
       gradientTransform="matrix(1.255102,0,0,1.255102,-6.2180868,-2.3596379)" />
  </defs>
  <g
     id="g3098"
     transform="matrix(0.07729477,0,0,0.07729477,7.9684587,-3.2785271)">
    <path
       style="fill:url(#linearGradient3449);fill-opacity:1;stroke:#3c3c3c;stroke-width:4;stroke-linecap:round;stroke-linejoin:round;stroke-miterlimit:4;stroke-opacity:1;stroke-dasharray:none"
       id="path3387"
       d="m 148.53783,190.60403 -26.26902,0 c 0,-34.9898 -28.364829,-63.35462 -63.354624,-63.35462 l 0,-26.26901 c 49.497784,0 89.623644,40.12586 89.623644,89.62363 z" />
    <path
       style="fill:url(#linearGradient3451);fill-opacity:1;stroke:#3c3c3c;stroke-width:4;stroke-linecap:round;stroke-linejoin:round;stroke-miterlimit:4;stroke-opacity:1;stroke-dasharray:none"
       id="path3389"
       d="m 167.08063,190.60403 c 0,-59.73868 -48.42776,-108.166448 -108.166444,-108.166448 l 0,-27.041611 c 74.673354,0 135.208054,60.534699 135.208054,135.208059 l -27.04161,0 z" />
  </g>
  <path
     style="fill:url(#linearGradient3667);fill-opacity:1;stroke:#3c3c3c;stroke-width:0.37653062;stroke-linecap:round;stroke-linejoin:round;stroke-miterlimit:4;stroke-opacity:1;stroke-dasharray:none;stroke-dashoffset:0"
     d="m 1.5076333,9.8195153 0,11.9234697 14.2375637,0 0,-1.019771 -0.03922,0.03922 -5.020408,-5.020408 5.020408,-5.020408 0.03922,0.03923 0,-0.9413265 -14.2375637,0 z"
     id="rect2829" />
  <rect
     style="fill:url(#linearGradient3697);fill-opacity:1;stroke:#3c3c3c;stroke-width:0.30924791;stroke-linecap:round;stroke-linejoin:round;stroke-miterlimit:4;stroke-opacity:1;stroke-dasharray:none;stroke-dashoffset:0"
     id="rect3663"
     width="4.8289905"
     height="4.8289905"
     x="19.851547"
     y="-2.4022949"
     transform="matrix(0.70710678,0.70710678,-0.70710678,0.70710678,0,0)" />
  <g
     transform="matrix(1.255102,0,0,1.255102,-3.1205554,-2.3000637)"
     style="font-size:2px;font-style:normal;font-weight:normal;fill:#ffffff;fill-opacity:1;stroke:none;font-family:Bitstream Vera Sans"
     id="flowRoot3699">
    <path
       d="m 6.8945312,12.937041 c -0.1601582,-0.05273 -0.2832049,-0.0791 -0.3691406,-0.0791 -0.1386735,4e-6 -0.2568374,0.05957 -0.3544922,0.178711 -0.095704,0.119144 -0.1435559,0.265629 -0.1435547,0.439453 -1.2e-6,0.02539 9.753e-4,0.05078 0.00293,0.07617 l 0.6503907,0 0,0.603516 -0.6386719,0 0,2.53418 -0.7324219,0 0,-2.53418 -0.4570312,0 0,-0.603516 0.4599609,0 c 0.015624,-0.384762 0.1289056,-0.695308 0.3398437,-0.93164 0.2128896,-0.236324 0.4873033,-0.354488 0.8232422,-0.354493 0.1738263,5e-6 0.3857401,0.03809 0.6357422,0.114258 l -0.2167969,0.556641"
       style="font-size:6px;font-weight:bold;fill:#ffffff;font-family:Trebuchet MS;-inkscape-font-specification:Trebuchet MS Bold"
       id="path3716" />
    <path
       d="m 7.8789062,16.517119 -0.1640625,0.231445 -0.4130859,0 0,-4.365234 0.7324219,-0.175781 0,1.464843 c 0.1953112,-0.119137 0.4082016,-0.178707 0.6386719,-0.17871 0.4589822,3e-6 0.829099,0.14551 1.1103515,0.436523 0.2812469,0.289065 0.4218719,0.660158 0.4218749,1.113281 -3e-6,0.525392 -0.141605,0.941407 -0.4248046,1.248047 -0.2832056,0.304688 -0.6669943,0.457031 -1.1513671,0.457031 -0.291017,0 -0.5410168,-0.07715 -0.7500001,-0.231445 m 0.1552735,-2.217773 0,1.637695 c 0.1074207,0.126954 0.2529284,0.19043 0.4365234,0.19043 0.3535138,0 0.6035135,-0.08398 0.75,-0.251954 0.1484351,-0.167967 0.2226538,-0.436522 0.2226563,-0.805664 -2.5e-6,-0.636716 -0.3046897,-0.955075 -0.9140625,-0.955078 -0.2167982,3e-6 -0.3818371,0.06153 -0.4951172,0.184571"
       style="font-size:6px;font-weight:bold;fill:#ffffff;font-family:Trebuchet MS;-inkscape-font-specification:Trebuchet MS Bold"
       id="path3718" />
  </g>
  <g
     transform="matrix(0.93185651,0,0,0.93185651,2.7884613,0.79992131)"
     style="font-size:4px;font-style:normal;font-weight:bold;fill:#ffffff;fill-opacity:1;stroke:none;font-family:Bitstream Vera Sans;-inkscape-font-specification:Trebuchet MS Bold"
     id="flowRoot3707">
    <path
       d="m 12.990234,17.355814 0,-0.148438 0.90625,-1.333984 c 0.180989,-0.266925 0.271483,-0.491535 0.271485,-0.673828 -2e-6,-0.216144 -0.129559,-0.324217 -0.388672,-0.324219 -0.197918,2e-6 -0.357423,0.10482 -0.478516,0.314453 l -0.341797,-0.269531 c 0.06771,-0.136716 0.173828,-0.249997 0.31836,-0.339844 0.145832,-0.09114 0.306639,-0.136716 0.482422,-0.136719 0.292967,3e-6 0.522133,0.06706 0.6875,0.201172 0.165362,0.132815 0.248044,0.317711 0.248047,0.554688 -3e-6,0.21745 -0.106122,0.488283 -0.31836,0.8125 l -0.585937,0.892578 1.074218,0 0,0.451172 -1.875,0"
       style="fill:#ffffff;fill-opacity:1;font-family:Trebuchet MS;-inkscape-font-specification:Trebuchet MS Bold"
       id="path3721" />
  </g>
</svg>
