<?xml version="1.0" encoding="UTF-8" standalone="no"?>
<!-- Created with Inkscape (http://www.inkscape.org/) -->

<svg
   xmlns:dc="http://purl.org/dc/elements/1.1/"
   xmlns:cc="http://creativecommons.org/ns#"
   xmlns:rdf="http://www.w3.org/1999/02/22-rdf-syntax-ns#"
   xmlns:svg="http://www.w3.org/2000/svg"
   xmlns="http://www.w3.org/2000/svg"
   xmlns:xlink="http://www.w3.org/1999/xlink"
   xmlns:sodipodi="http://sodipodi.sourceforge.net/DTD/sodipodi-0.dtd"
   xmlns:inkscape="http://www.inkscape.org/namespaces/inkscape"
   version="1.0"
   width="24"
   height="24"
   id="svg2"
   inkscape:version="0.47pre4 r22446"
   sodipodi:docname="closetab.svg">
  <metadata
     id="metadata72">
    <rdf:RDF>
      <cc:Work
         rdf:about="">
        <dc:format>image/svg+xml</dc:format>
        <dc:type
           rdf:resource="http://purl.org/dc/dcmitype/StillImage" />
      </cc:Work>
    </rdf:RDF>
  </metadata>
  <sodipodi:namedview
     pagecolor="#ffffff"
     bordercolor="#666666"
     borderopacity="1"
     objecttolerance="10"
     gridtolerance="10"
     guidetolerance="10"
     inkscape:pageopacity="0"
     inkscape:pageshadow="2"
     inkscape:window-width="640"
     inkscape:window-height="480"
     id="namedview70" />
  <defs
     id="defs4">
    <linearGradient
       id="linearGradient3170">
      <stop
         id="stop3172"
         style="stop-color:#323232;stop-opacity:1"
         offset="0" />
      <stop
         id="stop3216"
         style="stop-color:#696969;stop-opacity:1"
         offset="0.32967147" />
      <stop
         id="stop3218"
         style="stop-color:#7f7f7f;stop-opacity:1"
         offset="0.69190311" />
      <stop
         id="stop3212"
         style="stop-color:#b4b4b4;stop-opacity:1"
         offset="1" />
    </linearGradient>
    <linearGradient
       id="linearGradient3284">
      <stop
         id="stop3286"
         style="stop-color:#ffffff;stop-opacity:0.78431374"
         offset="0" />
      <stop
         id="stop3288"
         style="stop-color:#ffffff;stop-opacity:0.11764706"
         offset="1" />
    </linearGradient>
    <linearGradient
       id="linearGradient3304">
      <stop
         id="stop3306"
         style="stop-color:#ff1313;stop-opacity:1"
         offset="0" />
      <stop
         id="stop3308"
         style="stop-color:#ffcc00;stop-opacity:1"
         offset="1" />
    </linearGradient>
    <linearGradient
       x1="17.033213"
       y1="18.029209"
       x2="6.1431708"
       y2="7.1496291"
       id="linearGradient3557"
       xlink:href="#linearGradient3304"
       gradientUnits="userSpaceOnUse"
       gradientTransform="matrix(0.3414817,0.3414817,-0.3414817,0.3414817,7.0256641,7.7372733)" />
    <linearGradient
       x1="12.704699"
       y1="22.255453"
       x2="12.751147"
       y2="6.9178252"
       id="linearGradient3604"
       xlink:href="#linearGradient3170"
       gradientUnits="userSpaceOnUse" />
    <linearGradient
       x1="12.954699"
       y1="3.78125"
       x2="12.938647"
       y2="15.917826"
       id="linearGradient3616"
       xlink:href="#linearGradient3284"
       gradientUnits="userSpaceOnUse" />
    <linearGradient
       x1="6.2179952"
       y1="6.2179966"
       x2="16.163746"
       y2="16.163748"
       id="linearGradient3648"
       xlink:href="#linearGradient3284"
       gradientUnits="userSpaceOnUse"
       gradientTransform="matrix(0.3414817,0.3414817,-0.3414817,0.3414817,7.0256641,7.7372733)" />
  </defs>
  <g
     id="layer1">
    <path
       d="M 26.011428,4.5229964 A 13.005713,7.2289042 0 1 1 9.5367432e-07,4.5229964 A 13.005713,7.2289042 0 1 1 26.011428,4.5229964 z"
       id="path3563"
       style="opacity:1;fill:none;fill-opacity:1;stroke:none;stroke-width:0.5;stroke-linecap:round;stroke-linejoin:round;stroke-miterlimit:4;stroke-dasharray:none;stroke-dashoffset:7.99999924;stroke-opacity:1" />
    <path
       d="M 15.9375,3.78125 C 15.384615,3.78125 14.9375,4.2493981 14.9375,4.84375 L 14.9375,7.125 L 2.78125,7.125 C 2.22725,7.125 1.78125,7.5710005 1.78125,8.125 L 1.78125,20.09375 C 1.78125,20.64775 2.22725,21.09375 2.78125,21.09375 L 21.53125,21.09375 C 22.08525,21.09375 22.53125,20.64775 22.53125,20.09375 L 22.53125,4.84375 C 22.53125,4.2493982 22.084135,3.78125 21.53125,3.78125 L 15.9375,3.78125 z"
       id="rect3596"
       style="opacity:1;fill:url(#linearGradient3604);fill-opacity:1;stroke:#000000;stroke-width:0.5;stroke-linecap:round;stroke-linejoin:round;stroke-miterlimit:4;stroke-dasharray:none;stroke-dashoffset:7.99999924;stroke-opacity:1" />
    <path
       d="M 15.9375,3.78125 C 15.384615,3.78125 14.9375,4.2493981 14.9375,4.84375 L 14.9375,7.125 L 2.78125,7.125 C 2.22725,7.125 1.78125,7.5710005 1.78125,8.125 L 1.78125,12.96875 C 4.3864613,14.094907 7.6792745,14.75 11.25,14.75 C 15.724561,14.75 19.730703,13.68177 22.53125,12 L 22.53125,4.84375 C 22.53125,4.2493982 22.084135,3.78125 21.53125,3.78125 L 15.9375,3.78125 z"
       id="path3609"
       style="opacity:1;fill:url(#linearGradient3616);fill-opacity:1;stroke:none;stroke-width:0.5;stroke-linecap:round;stroke-linejoin:round;stroke-miterlimit:4;stroke-dasharray:none;stroke-dashoffset:7.99999924;stroke-opacity:1" />
    <path
       d="M 9.675447,11.983937 L 7.0256635,14.633721 L 4.3758804,11.983938 L 3.0767652,13.283053 L 5.7265483,15.932836 L 3.0767658,18.582618 L 4.3758813,19.881734 L 7.0256639,17.231951 L 9.675446,19.881733 L 10.974561,18.582618 L 8.324779,15.932836 L 10.974562,13.283053 L 9.675447,11.983937 z"
       id="rect3546"
       style="opacity:1;fill:url(#linearGradient3557);fill-opacity:1;stroke:#000000;stroke-width:0.4375;stroke-linecap:round;stroke-linejoin:round;stroke-miterlimit:4;stroke-dasharray:none;stroke-dashoffset:7.99999924;stroke-opacity:1" />
    <path
       d="M 4.375,11.96875 L 3.0625,13.28125 L 5.15625,15.375 C 5.7463811,15.442067 6.358427,15.5 7,15.5 C 7.6528616,15.5 8.275609,15.444365 8.875,15.375 L 10.96875,13.28125 L 9.6875,11.96875 L 7.03125,14.625 L 4.375,11.96875 z"
       id="path3638"
       style="opacity:1;fill:url(#linearGradient3648);fill-opacity:1;stroke:none;stroke-width:0.4375;stroke-linecap:round;stroke-linejoin:round;stroke-miterlimit:4;stroke-dasharray:none;stroke-dashoffset:7.99999924;stroke-opacity:1" />
  </g>
</svg>
