<?xml version="1.0" encoding="UTF-8" standalone="no"?>
<!-- Created with Inkscape (http://www.inkscape.org/) -->

<svg
   xmlns:dc="http://purl.org/dc/elements/1.1/"
   xmlns:cc="http://creativecommons.org/ns#"
   xmlns:rdf="http://www.w3.org/1999/02/22-rdf-syntax-ns#"
   xmlns:svg="http://www.w3.org/2000/svg"
   xmlns="http://www.w3.org/2000/svg"
   xmlns:xlink="http://www.w3.org/1999/xlink"
   xmlns:sodipodi="http://sodipodi.sourceforge.net/DTD/sodipodi-0.dtd"
   xmlns:inkscape="http://www.inkscape.org/namespaces/inkscape"
   version="1.0"
   width="24"
   height="24"
   id="svg2"
   inkscape:version="0.47 r22583"
   sodipodi:docname="lc_glance.svg">
  <metadata
     id="metadata70">
    <rdf:RDF>
      <cc:Work
         rdf:about="">
        <dc:format>image/svg+xml</dc:format>
        <dc:type
           rdf:resource="http://purl.org/dc/dcmitype/StillImage" />
        <dc:title></dc:title>
      </cc:Work>
    </rdf:RDF>
  </metadata>
  <sodipodi:namedview
     pagecolor="#ffffff"
     bordercolor="#666666"
     borderopacity="1"
     objecttolerance="10"
     gridtolerance="10"
     guidetolerance="10"
     inkscape:pageopacity="0"
     inkscape:pageshadow="2"
     inkscape:window-width="1024"
     inkscape:window-height="553"
     id="namedview68"
     showgrid="false"
     inkscape:zoom="10.875"
     inkscape:cx="39.343348"
     inkscape:cy="8.6849152"
     inkscape:window-x="-2"
     inkscape:window-y="0"
     inkscape:window-maximized="1"
     inkscape:current-layer="svg2" />
  <defs
     id="defs4">
    <linearGradient
       id="linearGradient3304-7">
      <stop
         id="stop3306-1"
         style="stop-color:#ff8313;stop-opacity:1"
         offset="0" />
      <stop
         id="stop3308-1"
         style="stop-color:#ffe400;stop-opacity:1"
         offset="1" />
    </linearGradient>
    <linearGradient
       inkscape:collect="always"
       xlink:href="#linearGradient3304-7"
       id="linearGradient2943"
       gradientUnits="userSpaceOnUse"
       gradientTransform="matrix(0.11728335,0,0,0.11728335,-15.120561,3.1650561)"
       x1="175.6127"
       y1="154.0992"
       x2="175.6127"
       y2="119.18017" />
    <linearGradient
       inkscape:collect="always"
       xlink:href="#linearGradient3304-7"
       id="linearGradient2946"
       gradientUnits="userSpaceOnUse"
       gradientTransform="matrix(0.11728335,0,0,0.11728335,-0.85187966,-3.969286)"
       x1="175.6127"
       y1="154.0992"
       x2="175.6127"
       y2="119.18017" />
    <linearGradient
       inkscape:collect="always"
       xlink:href="#linearGradient3304-7"
       id="linearGradient2949"
       gradientUnits="userSpaceOnUse"
       gradientTransform="matrix(0.11728335,0,0,0.11728335,-7.986221,-3.969286)"
       x1="175.6127"
       y1="154.0992"
       x2="175.6127"
       y2="119.18017" />
    <linearGradient
       inkscape:collect="always"
       xlink:href="#linearGradient3304-7"
       id="linearGradient2952"
       gradientUnits="userSpaceOnUse"
       gradientTransform="matrix(0.11728335,0,0,0.11728335,-15.120561,-3.969286)"
       x1="175.6127"
       y1="154.0992"
       x2="175.6127"
       y2="119.18017" />
    <linearGradient
       inkscape:collect="always"
       xlink:href="#linearGradient3304-7"
       id="linearGradient2955"
       gradientUnits="userSpaceOnUse"
       gradientTransform="matrix(0.11728335,0,0,0.11728335,-0.85187966,-11.103628)"
       x1="175.6127"
       y1="154.0992"
       x2="175.6127"
       y2="119.18017" />
    <linearGradient
       inkscape:collect="always"
       xlink:href="#linearGradient3304-7"
       id="linearGradient2958"
       gradientUnits="userSpaceOnUse"
       gradientTransform="matrix(0.11728335,0,0,0.11728335,-7.986221,-11.103628)"
       x1="175.6127"
       y1="154.0992"
       x2="175.6127"
       y2="119.18017" />
    <linearGradient
       inkscape:collect="always"
       xlink:href="#linearGradient3304-7"
       id="linearGradient2961"
       gradientUnits="userSpaceOnUse"
       gradientTransform="matrix(0.11728335,0,0,0.11728335,-15.120561,-11.103628)"
       x1="175.6127"
       y1="154.0992"
       x2="175.6127"
       y2="119.18017" />
    <linearGradient
       inkscape:collect="always"
       xlink:href="#linearGradient3304-7"
       id="linearGradient2964"
       gradientUnits="userSpaceOnUse"
       gradientTransform="matrix(0.11728335,0,0,0.11728335,-0.85187966,3.1650566)"
       x1="175.6127"
       y1="154.0992"
       x2="175.6127"
       y2="119.18017" />
    <linearGradient
       y2="119.18017"
       x2="175.6127"
       y1="154.0992"
       x1="175.6127"
       gradientTransform="matrix(0.11728335,0,0,0.11728335,-7.986221,3.1650561)"
       gradientUnits="userSpaceOnUse"
       id="linearGradient2937"
       xlink:href="#linearGradient3304-7"
       inkscape:collect="always" />
  </defs>
  <path
     style="fill:url(#linearGradient2937);fill-opacity:1;stroke:#3c3c3c;stroke-width:0.58641678;stroke-linecap:round;stroke-linejoin:round;stroke-miterlimit:4;stroke-opacity:1;stroke-dasharray:none"
     d="m 10.200136,16.535962 c 1.275395,0.04401 2.573554,-0.0918 3.833575,0.07501 0.935454,0.531512 0.472556,1.708264 0.584071,2.583422 -0.116448,0.893738 0.360601,2.091739 -0.584071,2.641648 -1.324336,0.152679 -2.688948,0.05754 -4.027006,0.05563 -1.135665,-0.353405 -0.664887,-1.661464 -0.764014,-2.544547 0.0902,-0.841261 -0.231364,-1.80003 0.279814,-2.531346 0.178129,-0.180407 0.427066,-0.280647 0.677631,-0.279812 z"
     id="rect2425" />
  <path
     style="fill:url(#linearGradient2943);fill-opacity:1;stroke:#3c3c3c;stroke-width:0.58641678;stroke-linecap:round;stroke-linejoin:round;stroke-miterlimit:4;stroke-opacity:1;stroke-dasharray:none"
     d="m 3.0657964,16.535962 c 1.2753956,0.04401 2.5735526,-0.0918 3.8335736,0.07501 0.935456,0.531512 0.472557,1.708264 0.584073,2.583422 -0.116448,0.893738 0.360601,2.091739 -0.584073,2.641648 -1.324336,0.152679 -2.688945,0.05754 -4.027003,0.05563 -1.1356655,-0.353405 -0.6648879,-1.661464 -0.7640156,-2.544547 0.090198,-0.841261 -0.2313628,-1.80003 0.2798133,-2.531346 0.1781304,-0.180407 0.4270675,-0.280647 0.6776317,-0.279812 z"
     id="rect3301" />
  <path
     style="fill:url(#linearGradient2946);fill-opacity:1;stroke:#3c3c3c;stroke-width:0.58641678;stroke-linecap:round;stroke-linejoin:round;stroke-miterlimit:4;stroke-opacity:1;stroke-dasharray:none"
     d="m 17.33448,9.401622 c 1.275394,0.04401 2.573553,-0.0918 3.833574,0.07501 0.935454,0.531511 0.472556,1.708266 0.584071,2.583423 -0.116448,0.893737 0.360602,2.091738 -0.584071,2.641649 -1.324336,0.152678 -2.688946,0.05754 -4.027004,0.05563 -1.135667,-0.353406 -0.664889,-1.661464 -0.764016,-2.544549 0.0902,-0.841258 -0.231364,-1.800028 0.279814,-2.531344 0.17813,-0.180409 0.427066,-0.280647 0.677632,-0.279814 z"
     id="rect3303" />
  <path
     style="fill:url(#linearGradient2949);fill-opacity:1;stroke:#3c3c3c;stroke-width:0.58641678;stroke-linecap:round;stroke-linejoin:round;stroke-miterlimit:4;stroke-opacity:1;stroke-dasharray:none"
     d="m 10.200136,9.401622 c 1.275395,0.04401 2.573554,-0.0918 3.833575,0.07501 0.935454,0.531511 0.472556,1.708266 0.584071,2.583423 -0.116448,0.893737 0.360601,2.091738 -0.584071,2.641649 -1.324336,0.152678 -2.688948,0.05754 -4.027006,0.05563 C 8.87104,14.403928 9.341818,13.09587 9.242691,12.212785 9.332891,11.371527 9.011327,10.412757 9.522505,9.681441 9.700634,9.501032 9.949571,9.400794 10.200136,9.401627 z"
     id="rect3305" />
  <path
     style="fill:url(#linearGradient2952);fill-opacity:1;stroke:#3c3c3c;stroke-width:0.58641678;stroke-linecap:round;stroke-linejoin:round;stroke-miterlimit:4;stroke-opacity:1;stroke-dasharray:none"
     d="m 3.0657964,9.401622 c 1.2753956,0.04401 2.5735526,-0.0918 3.8335736,0.07501 0.935456,0.531511 0.472557,1.708266 0.584073,2.583423 -0.116448,0.893737 0.360601,2.091738 -0.584073,2.641649 -1.324336,0.152678 -2.688945,0.05754 -4.027003,0.05563 C 1.7367015,14.403924 2.2074791,13.095866 2.1083514,12.212781 2.1985494,11.371523 1.8769886,10.412753 2.3881647,9.681437 2.5662951,9.501028 2.8152322,9.40079 3.0657964,9.401623 z"
     id="rect3307" />
  <path
     style="fill:url(#linearGradient2955);fill-opacity:1;stroke:#3c3c3c;stroke-width:0.58641678;stroke-linecap:round;stroke-linejoin:round;stroke-miterlimit:4;stroke-opacity:1;stroke-dasharray:none"
     d="m 17.33448,2.2672799 c 1.275394,0.044003 2.573553,-0.091791 3.833574,0.07501 0.935454,0.5315112 0.472556,1.7082652 0.584071,2.5834221 -0.116448,0.8937378 0.360602,2.091739 -0.584071,2.641649 C 19.843718,7.72004 18.479108,7.624901 17.14105,7.622991 16.005383,7.26958 16.476161,5.9615222 16.377034,5.0784379 16.467234,4.2371783 16.14567,3.2784095 16.656848,2.5470933 16.834978,2.3666844 17.083914,2.2664463 17.33448,2.2672799 z"
     id="rect3309" />
  <path
     style="fill:url(#linearGradient2958);fill-opacity:1;stroke:#3c3c3c;stroke-width:0.58641678;stroke-linecap:round;stroke-linejoin:round;stroke-miterlimit:4;stroke-opacity:1;stroke-dasharray:none"
     d="m 10.200136,2.2672799 c 1.275395,0.044003 2.573554,-0.091791 3.833575,0.07501 0.935454,0.5315112 0.472556,1.7082652 0.584071,2.5834221 -0.116448,0.8937378 0.360601,2.091739 -0.584071,2.641649 -1.324336,0.152679 -2.688948,0.05754 -4.027006,0.05563 C 8.87104,7.269585 9.341818,5.9615277 9.242691,5.0784434 9.332891,4.2371839 9.011327,3.278415 9.522505,2.5470989 9.700634,2.36669 9.949571,2.2664518 10.200136,2.2672854 z"
     id="rect3311" />
  <path
     style="fill:url(#linearGradient2961);fill-opacity:1;stroke:#3c3c3c;stroke-width:0.58641678;stroke-linecap:round;stroke-linejoin:round;stroke-miterlimit:4;stroke-opacity:1;stroke-dasharray:none"
     d="M 3.0657964,2.2672799 C 4.341192,2.3112829 5.639349,2.1754889 6.89937,2.3422899 7.834826,2.8738011 7.371927,4.0505551 7.483443,4.925712 7.366995,5.8194498 7.844044,7.017451 6.89937,7.567361 5.575034,7.72004 4.210425,7.624901 2.872367,7.622991 1.7367015,7.269581 2.2074791,5.961524 2.1083514,5.0784397 2.1985494,4.2371802 1.8769886,3.2784113 2.3881647,2.5470952 2.5662951,2.3666863 2.8152322,2.2664481 3.0657964,2.2672817 z"
     id="rect3313" />
  <path
     style="fill:url(#linearGradient2964);fill-opacity:1;stroke:#3c3c3c;stroke-width:0.58641678;stroke-linecap:round;stroke-linejoin:round;stroke-miterlimit:4;stroke-opacity:1;stroke-dasharray:none"
     d="m 17.33448,16.535962 c 1.275394,0.04401 2.573553,-0.0918 3.833574,0.07501 0.935454,0.531512 0.472556,1.708264 0.584071,2.583422 -0.116448,0.893738 0.360602,2.091739 -0.584071,2.641648 -1.324336,0.152679 -2.688946,0.05754 -4.027004,0.05563 -1.135667,-0.353405 -0.664889,-1.661464 -0.764016,-2.544547 0.0902,-0.841261 -0.231364,-1.80003 0.279814,-2.531346 0.17813,-0.180407 0.427066,-0.280647 0.677632,-0.279812 z"
     id="rect3315" />
</svg>
