<?xml version="1.0" encoding="UTF-8" standalone="no"?>
<!-- Created with Inkscape (http://www.inkscape.org/) -->

<svg
   xmlns:dc="http://purl.org/dc/elements/1.1/"
   xmlns:cc="http://creativecommons.org/ns#"
   xmlns:rdf="http://www.w3.org/1999/02/22-rdf-syntax-ns#"
   xmlns:svg="http://www.w3.org/2000/svg"
   xmlns="http://www.w3.org/2000/svg"
   xmlns:xlink="http://www.w3.org/1999/xlink"
   xmlns:sodipodi="http://sodipodi.sourceforge.net/DTD/sodipodi-0.dtd"
   xmlns:inkscape="http://www.inkscape.org/namespaces/inkscape"
   version="1.0"
   width="24"
   height="24"
   id="svg2"
   sodipodi:version="0.32"
   inkscape:version="0.47pre4 r22446"
   sodipodi:docname="logger.svg"
   inkscape:output_extension="org.inkscape.output.svg.inkscape">
  <metadata
     id="metadata155">
    <rdf:RDF>
      <cc:Work
         rdf:about="">
        <dc:format>image/svg+xml</dc:format>
        <dc:type
           rdf:resource="http://purl.org/dc/dcmitype/StillImage" />
      </cc:Work>
    </rdf:RDF>
  </metadata>
  <sodipodi:namedview
     inkscape:window-height="535"
     inkscape:window-width="1022"
     inkscape:pageshadow="2"
     inkscape:pageopacity="0.0"
     guidetolerance="10.0"
     gridtolerance="10.0"
     objecttolerance="10.0"
     borderopacity="1.0"
     bordercolor="#666666"
     pagecolor="#ffffff"
     id="base"
     showgrid="false"
     inkscape:zoom="11.313709"
     inkscape:cx="-11.284687"
     inkscape:cy="12.847409"
     inkscape:window-x="0"
     inkscape:window-y="24"
     inkscape:current-layer="layer1"
     inkscape:window-maximized="1" />
  <defs
     id="defs4">
    <linearGradient
       id="linearGradient3463">
      <stop
         id="stop3465"
         style="stop-color:#323232;stop-opacity:1"
         offset="0" />
      <stop
         id="stop3467"
         style="stop-color:#696969;stop-opacity:1"
         offset="0.37071067" />
      <stop
         id="stop3469"
         style="stop-color:#7f7f7f;stop-opacity:1"
         offset="0.69190311" />
      <stop
         id="stop3471"
         style="stop-color:#b4b4b4;stop-opacity:1"
         offset="1" />
    </linearGradient>
    <linearGradient
       id="linearGradient3284">
      <stop
         id="stop3286"
         style="stop-color:#ffffff;stop-opacity:0.78431374"
         offset="0" />
      <stop
         id="stop3288"
         style="stop-color:#ffffff;stop-opacity:0.11764706"
         offset="1" />
    </linearGradient>
    <linearGradient
       id="linearGradient3398">
      <stop
         id="stop3400"
         style="stop-color:#ff8313;stop-opacity:1"
         offset="0" />
      <stop
         id="stop3402"
         style="stop-color:#ffe400;stop-opacity:1"
         offset="1" />
    </linearGradient>
    <linearGradient
       inkscape:collect="always"
       xlink:href="#linearGradient3463"
       id="linearGradient2833"
       gradientUnits="userSpaceOnUse"
       x1="12"
       y1="19.778175"
       x2="12"
       y2="3.8" />
    <linearGradient
       inkscape:collect="always"
       xlink:href="#linearGradient3284"
       id="linearGradient2836"
       gradientUnits="userSpaceOnUse"
       x1="11.602252"
       y1="4"
       x2="12"
       y2="14.343145" />
    <linearGradient
       inkscape:collect="always"
       xlink:href="#linearGradient3398"
       id="linearGradient2839"
       gradientUnits="userSpaceOnUse"
       gradientTransform="matrix(1.8900935,0,0,1.8900935,-2.7390672,-5.3189935)"
       x1="4.7188721"
       y1="9.53125"
       x2="4.6717529"
       y2="6.6875" />
    <linearGradient
       inkscape:collect="always"
       xlink:href="#linearGradient3398"
       id="linearGradient2842"
       gradientUnits="userSpaceOnUse"
       gradientTransform="matrix(0.8254016,0,0,0.8254016,2.2948789,1.1992355)"
       x1="11.90162"
       y1="13.993117"
       x2="11.894528"
       y2="12.193117" />
  </defs>
  <g
     id="layer1">
    <path
       style="fill:url(#linearGradient2833);fill-opacity:1;stroke:#000000;stroke-width:0.40000001;stroke-linecap:round;stroke-linejoin:round;stroke-miterlimit:4;stroke-opacity:1;stroke-dasharray:none;stroke-dashoffset:7.99999924"
       d="M 3.9936049,4 C 9.3992498,4.0067904 14.805575,3.9863985 20.210793,4.0102327 21.366216,4.0894739 22.146653,5.2531179 22,6.3556707 21.99321,10.308604 22.01361,14.262221 21.989745,18.214725 21.908986,19.37094 20.741659,20.145856 19.639948,20 14.356452,19.993211 9.0722764,20.0136 3.7892069,19.989767 2.6337842,19.910526 1.8533472,18.746882 2,17.644329 2.0067897,13.691396 1.9863895,9.7377791 2.0102552,5.7852747 2.0913218,4.7929713 2.9988695,3.9787982 3.9936049,4 z"
       id="rect3432" />
    <path
       style="fill:url(#linearGradient2836);fill-opacity:1;stroke:none"
       d="M 4,4 C 2.7913007,3.9615265 1.8440174,5.14833 2,6.3140976 2,7.8135651 2,9.3130325 2,10.8125 5.4437787,12.692706 9.4805272,13.175601 13.350936,13.032432 16.328767,12.875208 19.354978,12.305593 22,10.875 21.993266,9.18206 22.013568,7.4884363 21.989673,5.7959301 21.906334,4.6383671 20.739913,3.8539039 19.633553,4 14.422369,4 9.2111843,4 4,4 z"
       id="rect3442" />
    <path
       style="fill:url(#linearGradient2839);fill-opacity:1;fill-rule:evenodd;stroke:#3c3c3c;stroke-width:0.30000001;stroke-linecap:round;stroke-linejoin:round;stroke-miterlimit:4;stroke-opacity:1;stroke-dasharray:none"
       d="M 5.170495,6.2124681 C 4.3014027,6.3305673 4.0678951,7.5679712 4.7815453,8.0422684 5.3070285,8.5677516 5.8325118,9.0932349 6.357995,9.6187181 5.7987027,10.206474 5.2023421,10.761408 4.6683932,11.371604 3.92467,12.449077 5.6951158,13.555819 6.3800374,12.469626 7.1187736,11.702889 7.8950704,10.969713 8.6093858,10.181155 9.0601339,9.5377058 8.5169627,8.9015617 8.0387939,8.487012 7.3172386,7.7830483 6.628939,7.0412004 5.8856285,6.3620073 5.6772552,6.2245019 5.4165252,6.1698913 5.170495,6.2124681 z"
       id="path5574" />
    <path
       style="fill:url(#linearGradient2842);fill-opacity:1;fill-rule:evenodd;stroke:#3c3c3c;stroke-width:0.30000001;stroke-linecap:round;stroke-linejoin:miter;stroke-miterlimit:4;stroke-opacity:1;stroke-dasharray:none"
       d="m 9.8892454,10.993716 c -0.92979,-0.06603 -1.391515,1.281887 -0.615313,1.799258 0.5752476,0.349581 1.2832876,0.14601 1.9240526,0.200742 1.234313,-0.01919 2.474759,0.03954 3.705007,-0.03152 0.912194,-0.180724 1.005571,-1.597438 0.124567,-1.895953 -0.794217,-0.148764 -1.621346,-0.03859 -2.429948,-0.07252 -0.902789,0 -1.805577,0 -2.7083656,0 z"
       id="path2550" />
  </g>
</svg>
