<?xml version="1.0" encoding="UTF-8" standalone="no"?>
<!-- Created with Inkscape (http://www.inkscape.org/) -->

<svg
   xmlns:dc="http://purl.org/dc/elements/1.1/"
   xmlns:cc="http://creativecommons.org/ns#"
   xmlns:rdf="http://www.w3.org/1999/02/22-rdf-syntax-ns#"
   xmlns:svg="http://www.w3.org/2000/svg"
   xmlns="http://www.w3.org/2000/svg"
   xmlns:xlink="http://www.w3.org/1999/xlink"
   xmlns:sodipodi="http://sodipodi.sourceforge.net/DTD/sodipodi-0.dtd"
   xmlns:inkscape="http://www.inkscape.org/namespaces/inkscape"
   version="1.0"
   width="24"
   height="24"
   id="svg2"
   inkscape:version="0.47pre2 r22153"
   sodipodi:docname="lc_newtab.svg">
  <metadata
     id="metadata1276">
    <rdf:RDF>
      <cc:Work
         rdf:about="">
        <dc:format>image/svg+xml</dc:format>
        <dc:type
           rdf:resource="http://purl.org/dc/dcmitype/StillImage" />
      </cc:Work>
    </rdf:RDF>
  </metadata>
  <sodipodi:namedview
     pagecolor="#ffffff"
     bordercolor="#666666"
     borderopacity="1"
     objecttolerance="10"
     gridtolerance="10"
     guidetolerance="10"
     inkscape:pageopacity="0"
     inkscape:pageshadow="2"
     inkscape:window-width="640"
     inkscape:window-height="480"
     id="namedview1274" />
  <defs
     id="defs4">
    <linearGradient
       id="linearGradient3170">
      <stop
         id="stop3172"
         style="stop-color:#323232;stop-opacity:1"
         offset="0" />
      <stop
         id="stop3216"
         style="stop-color:#696969;stop-opacity:1"
         offset="0.32967147" />
      <stop
         id="stop3218"
         style="stop-color:#7f7f7f;stop-opacity:1"
         offset="0.69190311" />
      <stop
         id="stop3212"
         style="stop-color:#b4b4b4;stop-opacity:1"
         offset="1" />
    </linearGradient>
    <linearGradient
       id="linearGradient3284">
      <stop
         id="stop3286"
         style="stop-color:#ffffff;stop-opacity:0.78431374"
         offset="0" />
      <stop
         id="stop3288"
         style="stop-color:#ffffff;stop-opacity:0.11764706"
         offset="1" />
    </linearGradient>
    <linearGradient
       id="linearGradient3304">
      <stop
         id="stop3306"
         style="stop-color:#ff8313;stop-opacity:1"
         offset="0" />
      <stop
         id="stop3308"
         style="stop-color:#ffe400;stop-opacity:1"
         offset="1" />
    </linearGradient>
    <linearGradient
       x1="12"
       y1="21.598215"
       x2="12"
       y2="4.9533181"
       id="linearGradient3557"
       xlink:href="#linearGradient3304"
       gradientUnits="userSpaceOnUse"
       gradientTransform="matrix(0.4829281,0,0,0.4829281,1.9180267,1.3876972)" />
    <linearGradient
       x1="12"
       y1="2.3381646"
       x2="12"
       y2="18.464108"
       id="linearGradient3571"
       xlink:href="#linearGradient3284"
       gradientUnits="userSpaceOnUse"
       gradientTransform="matrix(0.4829282,0,0,0.4829282,1.9180267,1.3876972)" />
    <linearGradient
       x1="12.704699"
       y1="22.255453"
       x2="12.751147"
       y2="6.9178252"
       id="linearGradient3604"
       xlink:href="#linearGradient3170"
       gradientUnits="userSpaceOnUse" />
    <linearGradient
       x1="12.954699"
       y1="3.78125"
       x2="12.938647"
       y2="15.917826"
       id="linearGradient3616"
       xlink:href="#linearGradient3284"
       gradientUnits="userSpaceOnUse" />
  </defs>
  <g
     id="layer1">
    <path
       d="M 26.011428,4.5229964 A 13.005713,7.2289042 0 1 1 9.5367432e-07,4.5229964 A 13.005713,7.2289042 0 1 1 26.011428,4.5229964 z"
       id="path3563"
       style="opacity:1;fill:none;fill-opacity:1;stroke:none;stroke-width:0.5;stroke-linecap:round;stroke-linejoin:round;stroke-miterlimit:4;stroke-dasharray:none;stroke-dashoffset:7.99999924;stroke-opacity:1" />
    <path
       d="M 15.9375,3.78125 C 15.384615,3.78125 14.9375,4.2493981 14.9375,4.84375 L 14.9375,7.125 L 2.78125,7.125 C 2.22725,7.125 1.78125,7.5710005 1.78125,8.125 L 1.78125,20.09375 C 1.78125,20.64775 2.22725,21.09375 2.78125,21.09375 L 21.53125,21.09375 C 22.08525,21.09375 22.53125,20.64775 22.53125,20.09375 L 22.53125,4.84375 C 22.53125,4.2493982 22.084135,3.78125 21.53125,3.78125 L 15.9375,3.78125 z"
       id="rect3596"
       style="opacity:1;fill:url(#linearGradient3604);fill-opacity:1;stroke:#000000;stroke-width:0.5;stroke-linecap:round;stroke-linejoin:round;stroke-miterlimit:4;stroke-dasharray:none;stroke-dashoffset:7.99999924;stroke-opacity:1" />
    <path
       d="M 15.9375,3.78125 C 15.384615,3.78125 14.9375,4.2493981 14.9375,4.84375 L 14.9375,7.125 L 2.78125,7.125 C 2.22725,7.125 1.78125,7.5710005 1.78125,8.125 L 1.78125,12.96875 C 4.3864613,14.094907 7.6792745,14.75 11.25,14.75 C 15.724561,14.75 19.730703,13.68177 22.53125,12 L 22.53125,4.84375 C 22.53125,4.2493982 22.084135,3.78125 21.53125,3.78125 L 15.9375,3.78125 z"
       id="path3609"
       style="opacity:1;fill:url(#linearGradient3616);fill-opacity:1;stroke:none;stroke-width:0.5;stroke-linecap:round;stroke-linejoin:round;stroke-miterlimit:4;stroke-dasharray:none;stroke-dashoffset:7.99999924;stroke-opacity:1" />
    <path
       d="M 6.794551,2.5168627 L 6.794551,6.2642223 L 3.0471918,6.2642223 L 3.0471918,8.1014486 L 6.794551,8.1014486 L 6.794551,11.848807 L 8.6317778,11.848807 L 8.6317778,8.1014486 L 12.379135,8.1014486 L 12.379135,6.2642223 L 8.6317778,6.2642223 L 8.6317778,2.5168627 L 6.794551,2.5168627 z"
       id="rect3546"
       style="opacity:1;fill:url(#linearGradient3557);fill-opacity:1;stroke:#000000;stroke-width:0.4375;stroke-linecap:round;stroke-linejoin:round;stroke-miterlimit:4;stroke-dasharray:none;stroke-dashoffset:7.99999924;stroke-opacity:1" />
    <path
       d="M 6.7925832,2.5195601 L 6.7925832,6.2622533 L 3.0498898,6.2622533 L 3.0498898,6.6244494 C 4.2117792,7.1996019 5.9074671,7.5601228 7.8037141,7.5601228 C 9.6020678,7.5601228 11.222461,7.239317 12.376439,6.7149985 L 12.376439,6.2622533 L 8.6337468,6.2622533 L 8.6337468,2.5195601 L 6.7925832,2.5195601 z"
       id="path3559"
       style="opacity:1;fill:url(#linearGradient3571);fill-opacity:1;stroke:none;stroke-width:0.4375;stroke-linecap:round;stroke-linejoin:round;stroke-miterlimit:4;stroke-dasharray:none;stroke-dashoffset:7.99999924;stroke-opacity:1" />
  </g>
</svg>
