<?xml version="1.0" encoding="UTF-8" standalone="no"?>
<!-- Created with Inkscape (http://www.inkscape.org/) -->

<svg
   xmlns:dc="http://purl.org/dc/elements/1.1/"
   xmlns:cc="http://creativecommons.org/ns#"
   xmlns:rdf="http://www.w3.org/1999/02/22-rdf-syntax-ns#"
   xmlns:svg="http://www.w3.org/2000/svg"
   xmlns="http://www.w3.org/2000/svg"
   xmlns:xlink="http://www.w3.org/1999/xlink"
   xmlns:sodipodi="http://sodipodi.sourceforge.net/DTD/sodipodi-0.dtd"
   xmlns:inkscape="http://www.inkscape.org/namespaces/inkscape"
   version="1.0"
   width="24"
   height="24"
   id="svg2"
   inkscape:version="0.47pre4 r22446"
   sodipodi:docname="pluginmanager.svg">
  <metadata
     id="metadata140">
    <rdf:RDF>
      <cc:Work
         rdf:about="">
        <dc:format>image/svg+xml</dc:format>
        <dc:type
           rdf:resource="http://purl.org/dc/dcmitype/StillImage" />
      </cc:Work>
    </rdf:RDF>
  </metadata>
  <sodipodi:namedview
     pagecolor="#ffffff"
     bordercolor="#666666"
     borderopacity="1"
     objecttolerance="10"
     gridtolerance="10"
     guidetolerance="10"
     inkscape:pageopacity="0"
     inkscape:pageshadow="2"
     inkscape:window-width="640"
     inkscape:window-height="480"
     id="namedview138" />
  <defs
     id="defs4">
    <linearGradient
       id="linearGradient3284">
      <stop
         id="stop3286"
         style="stop-color:#ffffff;stop-opacity:0.78431374"
         offset="0" />
      <stop
         id="stop3288"
         style="stop-color:#ffffff;stop-opacity:0.11764706"
         offset="1" />
    </linearGradient>
    <linearGradient
       id="linearGradient3398">
      <stop
         id="stop3400"
         style="stop-color:#ff8313;stop-opacity:1"
         offset="0" />
      <stop
         id="stop3402"
         style="stop-color:#ffe400;stop-opacity:1"
         offset="1" />
    </linearGradient>
    <linearGradient
       x1="12"
       y1="22.531279"
       x2="12"
       y2="5.0625"
       id="linearGradient3338"
       xlink:href="#linearGradient3398"
       gradientUnits="userSpaceOnUse" />
    <linearGradient
       x1="12"
       y1="2.4687786"
       x2="12.171875"
       y2="17.3125"
       id="linearGradient3361"
       xlink:href="#linearGradient3284"
       gradientUnits="userSpaceOnUse" />
  </defs>
  <g
     id="layer1">
    <path
       d="M 14.881733,1.7187226 C 12.785628,1.7187226 10.637214,2.9306933 11.349286,4.7458851 C 11.817518,5.9394884 12.272502,6.4372347 12.799448,6.9239656 L 7.5937381,6.9239656 C 7.1529037,6.9239656 6.7756979,7.2615461 6.7756979,7.6992146 L 6.7756979,12.793708 C 6.3443194,12.445109 5.9410133,12.126763 5.1396175,11.46471 C 3.5283677,10.133617 1.7187221,12.52157 1.7187221,14.602622 C 1.7187221,16.683675 2.9394595,18.779743 4.767781,18.072785 C 5.8376742,17.659089 6.331436,17.267256 6.7756979,16.817619 L 6.7756979,21.50603 C 6.7756979,21.943698 7.1529039,22.281278 7.5937381,22.281278 L 21.463238,22.281278 C 21.904073,22.281278 22.281278,21.943698 22.281278,21.50603 L 22.281278,16.780703 C 21.874795,17.156201 21.382899,17.494149 20.45928,17.851285 C 18.630958,18.558243 17.41022,16.462176 17.41022,14.381123 C 17.41022,12.300069 19.219865,9.9121163 20.831116,11.24321 C 21.542256,11.8307 21.884579,12.09948 22.281278,12.424542 L 22.281278,7.6992146 C 22.281278,7.2615459 21.904073,6.9239656 21.463238,6.9239656 L 16.517813,6.9239656 C 16.893623,6.4574678 17.263215,6.0003002 18.005159,5.1150514 C 19.345881,3.5153725 16.977839,1.7187227 14.881733,1.7187226 z"
       id="rect2543"
       style="opacity:1;fill:url(#linearGradient3338);fill-opacity:1;stroke:#000000;stroke-width:0.5;stroke-linecap:round;stroke-linejoin:round;stroke-miterlimit:4;stroke-dasharray:none;stroke-dashoffset:7.99999924;stroke-opacity:1" />
    <path
       d="M 14.875,1.71875 C 12.778895,1.71875 10.631678,2.9348082 11.34375,4.75 C 11.811982,5.9436035 12.285554,6.4507691 12.8125,6.9375 L 7.59375,6.9375 C 7.1529156,6.9375001 6.78125,7.2498315 6.78125,7.6875 L 6.78125,12.78125 C 6.3498717,12.432651 5.9263958,12.130803 5.125,11.46875 C 3.9270978,10.479133 2.6545439,11.563984 2.0625,13.03125 C 5.5755204,14.038188 9.7265766,14.625 14.1875,14.625 C 15.284185,14.625 16.350866,14.599356 17.40625,14.53125 C 17.404753,14.479579 17.40625,14.426695 17.40625,14.375 C 17.406251,12.293946 19.232499,9.9189063 20.84375,11.25 C 21.55489,11.83749 21.884551,12.112438 22.28125,12.4375 L 22.28125,7.6875 C 22.281249,7.2498314 21.909585,6.9375 21.46875,6.9375 L 16.53125,6.9375 C 16.90706,6.4710023 17.258056,6.0102488 18,5.125 C 19.340722,3.5253212 16.971106,1.7187501 14.875,1.71875 z"
       id="path3340"
       style="opacity:1;fill:url(#linearGradient3361);fill-opacity:1;stroke:none;stroke-width:0.5;stroke-linecap:round;stroke-linejoin:round;stroke-miterlimit:4;stroke-dasharray:none;stroke-dashoffset:7.99999924;stroke-opacity:1" />
  </g>
</svg>
