<?xml version="1.0" encoding="UTF-8" standalone="no"?>
<!-- Created with Inkscape (http://www.inkscape.org/) -->

<svg
   xmlns:dc="http://purl.org/dc/elements/1.1/"
   xmlns:cc="http://creativecommons.org/ns#"
   xmlns:rdf="http://www.w3.org/1999/02/22-rdf-syntax-ns#"
   xmlns:svg="http://www.w3.org/2000/svg"
   xmlns="http://www.w3.org/2000/svg"
   xmlns:xlink="http://www.w3.org/1999/xlink"
   xmlns:sodipodi="http://sodipodi.sourceforge.net/DTD/sodipodi-0.dtd"
   xmlns:inkscape="http://www.inkscape.org/namespaces/inkscape"
   version="1.0"
   width="24"
   height="24"
   id="svg2"
   inkscape:version="0.47 r22583"
   sodipodi:docname="lc_showstatusbar.svg">
  <metadata
     id="metadata70">
    <rdf:RDF>
      <cc:Work
         rdf:about="">
        <dc:format>image/svg+xml</dc:format>
        <dc:type
           rdf:resource="http://purl.org/dc/dcmitype/StillImage" />
        <dc:title></dc:title>
      </cc:Work>
    </rdf:RDF>
  </metadata>
  <sodipodi:namedview
     pagecolor="#ffffff"
     bordercolor="#666666"
     borderopacity="1"
     objecttolerance="10"
     gridtolerance="10"
     guidetolerance="10"
     inkscape:pageopacity="0"
     inkscape:pageshadow="2"
     inkscape:window-width="1024"
     inkscape:window-height="553"
     id="namedview68"
     showgrid="false"
     inkscape:zoom="10.416667"
     inkscape:cx="20.200409"
     inkscape:cy="8.7657347"
     inkscape:window-x="-2"
     inkscape:window-y="0"
     inkscape:window-maximized="1"
     inkscape:current-layer="g3693" />
  <defs
     id="defs4">
    <linearGradient
       id="linearGradient3753">
      <stop
         id="stop3755"
         style="stop-color:#ff1313;stop-opacity:1;"
         offset="0" />
      <stop
         id="stop3757"
         style="stop-color:#ffbd5f;stop-opacity:1;"
         offset="1" />
    </linearGradient>
    <linearGradient
       id="linearGradient3463">
      <stop
         id="stop3465"
         style="stop-color:#323232;stop-opacity:1"
         offset="0" />
      <stop
         id="stop3467"
         style="stop-color:#696969;stop-opacity:1"
         offset="0.37071067" />
      <stop
         id="stop3469"
         style="stop-color:#7f7f7f;stop-opacity:1"
         offset="0.69190311" />
      <stop
         id="stop3471"
         style="stop-color:#b4b4b4;stop-opacity:1"
         offset="1" />
    </linearGradient>
    <linearGradient
       id="linearGradient3284">
      <stop
         id="stop3286"
         style="stop-color:#ffffff;stop-opacity:0.11764706;"
         offset="0" />
      <stop
         id="stop3288"
         style="stop-color:#ffffff;stop-opacity:0.78431374;"
         offset="1" />
    </linearGradient>
    <linearGradient
       inkscape:collect="always"
       xlink:href="#linearGradient3284"
       id="linearGradient3636"
       x1="11.953125"
       y1="12.597479"
       x2="11.953125"
       y2="11.09375"
       gradientUnits="userSpaceOnUse"
       gradientTransform="matrix(0,0.990809,-7.4410548,0,102.01887,0.31792784)" />
    <linearGradient
       inkscape:collect="always"
       xlink:href="#linearGradient3463"
       id="linearGradient3638"
       gradientUnits="userSpaceOnUse"
       x1="10.709996"
       y1="12.096"
       x2="13.209996"
       y2="12.096"
       gradientTransform="matrix(7.4928159,0,0,0.99080901,-77.654054,0.18317382)" />
    <linearGradient
       id="linearGradient3304-3">
      <stop
         offset="0"
         style="stop-color:#ff8313;stop-opacity:1"
         id="stop3306-9" />
      <stop
         offset="1"
         style="stop-color:#ffe400;stop-opacity:1"
         id="stop3308-08" />
    </linearGradient>
    <linearGradient
       inkscape:collect="always"
       xlink:href="#linearGradient3304-3"
       id="linearGradient3749"
       gradientUnits="userSpaceOnUse"
       gradientTransform="matrix(0.03137274,0.01993557,-0.01993557,0.03137274,-18.014383,94.732194)"
       x1="-19.742914"
       y1="265.68219"
       x2="-89.580971"
       y2="38.595142" />
    <linearGradient
       inkscape:collect="always"
       xlink:href="#linearGradient3753"
       id="linearGradient3751"
       gradientUnits="userSpaceOnUse"
       gradientTransform="matrix(-0.03137274,-0.01993557,0.01993557,-0.03137274,-23.31379,101.91386)"
       x1="-45.384804"
       y1="-28.617914"
       x2="-49.368969"
       y2="270.29932" />
  </defs>
  <g
     id="g3693"
     transform="matrix(0,-1,1,0,-0.13600403,24.055996)">
    <path
       style="fill:url(#linearGradient3638);fill-opacity:1;stroke:#000000;stroke-width:1;stroke-miterlimit:4;stroke-opacity:1;stroke-dasharray:none"
       d="m 4.4671795,0.94411524 c 4.9952135,0 9.9904275,0 14.9856335,0 0,7.48258996 0,14.96517976 0,22.44776976 -4.995206,0 -9.99042,0 -14.9856335,0 0,-7.48259 0,-14.9651798 0,-22.44776976 z"
       id="rect2834" />
    <g
       id="g2979"
       transform="matrix(0.49282033,0.79233698,-0.79233698,0.49282033,99.854354,-25.476623)">
      <path
         style="fill:url(#linearGradient3749);fill-opacity:1;fill-rule:evenodd;stroke:#3c3c3c;stroke-width:0.35951629;stroke-linecap:butt;stroke-linejoin:miter;stroke-miterlimit:4;stroke-opacity:1;stroke-dasharray:none"
         d="m -23.665405,94.845886 c 0.61907,0.280336 1.238141,0.560671 1.857211,0.841007 -1.25438,1.974029 -2.508759,3.948058 -3.763139,5.922087 0.545106,0.34638 1.090212,0.69276 1.635318,1.03914 1.921831,-3.024397 3.843663,-6.048794 5.765494,-9.073191 -1.831628,0.423652 -3.663256,0.847305 -5.494884,1.270957 z"
         id="path4098" />
      <path
         style="fill:url(#linearGradient3751);fill-opacity:1.0;fill-rule:evenodd;stroke:#3c3c3c;stroke-width:0.35951629000000002;stroke-linecap:butt;stroke-linejoin:miter;stroke-miterlimit:4;stroke-opacity:1;stroke-dasharray:none"
         d="m -17.662762,101.80016 c -0.619072,-0.28033 -1.238144,-0.56067 -1.857216,-0.841 1.254382,-1.97403 2.508764,-3.94806 3.763146,-5.92209 -0.545108,-0.346382 -1.090217,-0.692764 -1.635325,-1.039146 -1.921831,3.024399 -3.843663,6.048796 -5.765494,9.073196 1.83163,-0.42365 3.663259,-0.84731 5.494889,-1.27096 z"
         id="path4110" />
    </g>
    <g
       transform="matrix(0,1,-1,0,23.784467,0.8827088)"
       style="font-size:4px;font-style:normal;font-weight:normal;fill:#1e1e1e;fill-opacity:1;stroke:none;font-family:Trebuchet MS;-inkscape-font-specification:Trebuchet MS"
       id="flowRoot3759">
      <path
         d="m 11.548828,10.748715 1.376953,0 0,0.332032 -1.851562,0 0,-0.332032 c 0.149739,-0.154947 0.353515,-0.362629 0.611328,-0.623046 0.259113,-0.261718 0.421874,-0.4303376 0.488281,-0.5058599 0.126301,-0.1419254 0.214191,-0.261717 0.263672,-0.359375 0.05078,-0.098956 0.07617,-0.1959615 0.07617,-0.2910156 -2e-6,-0.1549456 -0.05469,-0.2812476 -0.164063,-0.3789062 -0.108074,-0.097654 -0.24935,-0.1464818 -0.423828,-0.1464844 -0.123699,2.6e-6 -0.254558,0.021487 -0.392578,0.064453 C 11.396484,8.5514523 11.25,8.6165564 11.09375,8.7037935 l 0,-0.3984375 c 0.158854,-0.063799 0.307291,-0.1119763 0.445313,-0.1445312 0.138019,-0.032549 0.264321,-0.048825 0.378906,-0.048828 0.302082,3e-6 0.542967,0.075524 0.722656,0.2265625 0.179685,0.1510443 0.269529,0.352867 0.269531,0.6054688 -2e-6,0.1197937 -0.02279,0.2337259 -0.06836,0.3417969 -0.04427,0.1067725 -0.125653,0.2330744 -0.244141,0.3789062 -0.03255,0.037762 -0.136069,0.1471367 -0.310547,0.328125 -0.17448,0.179688 -0.420574,0.431641 -0.738281,0.755859"
         style="font-family:DejaVu Sans;-inkscape-font-specification:DejaVu Sans;fill:#1e1e1e;fill-opacity:1"
         id="path3791" />
      <path
         d="m 14.951172,9.508481 c 0.1888,0.040366 0.335935,0.1243504 0.441406,0.2519531 0.106769,0.1276054 0.160154,0.2851569 0.160156,0.4726559 -2e-6,0.287761 -0.09896,0.510417 -0.296875,0.667969 -0.197918,0.157552 -0.479168,0.236328 -0.84375,0.236328 -0.122396,0 -0.248698,-0.01237 -0.378906,-0.03711 -0.128907,-0.02344 -0.26237,-0.05924 -0.40039,-0.107422 l 0,-0.380859 c 0.109374,0.0638 0.229166,0.111979 0.359375,0.144531 0.130207,0.03255 0.266275,0.04883 0.408203,0.04883 0.247394,0 0.435545,-0.04883 0.564453,-0.146484 0.130206,-0.09766 0.19531,-0.239583 0.195312,-0.425782 -2e-6,-0.171874 -0.06055,-0.305988 -0.18164,-0.4023434 -0.119794,-0.097655 -0.287111,-0.1464829 -0.501953,-0.1464843 l -0.339844,0 0,-0.3242188 0.355469,0 c 0.194009,1.7e-6 0.342446,-0.03841 0.445312,-0.1152344 0.102863,-0.078123 0.154295,-0.1901021 0.154297,-0.3359375 -2e-6,-0.1497372 -0.05339,-0.2643204 -0.160156,-0.34375 -0.105471,-0.080726 -0.257163,-0.1210911 -0.455078,-0.1210937 -0.108074,2.6e-6 -0.22396,0.011721 -0.347657,0.035156 -0.123698,0.02344 -0.259766,0.059898 -0.408203,0.109375 l 0,-0.3515625 c 0.149739,-0.041664 0.289713,-0.072914 0.419922,-0.09375 0.131509,-0.02083 0.255207,-0.031247 0.371094,-0.03125 0.299477,3e-6 0.536456,0.068362 0.710937,0.2050782 0.174477,0.1354193 0.261717,0.3190128 0.261719,0.5507812 -2e-6,0.1614604 -0.04623,0.298179 -0.138672,0.4101563 -0.09245,0.1106787 -0.22396,0.1875016 -0.394531,0.2304687"
         style="font-family:DejaVu Sans;-inkscape-font-specification:DejaVu Sans;fill:#1e1e1e;fill-opacity:1"
         id="path3793" />
      <path
         d="m 16.302734,10.584653 0.41211,0 0,0.496094 -0.41211,0 0,-0.496094"
         style="font-family:DejaVu Sans;-inkscape-font-specification:DejaVu Sans;fill:#1e1e1e;fill-opacity:1"
         id="path3795" />
      <path
         d="m 18.419922,8.4244966 c -0.203126,2.7e-6 -0.356121,0.100263 -0.458985,0.3007813 -0.101563,0.1992209 -0.152344,0.4993508 -0.152343,0.9003906 -1e-6,0.3997405 0.05078,0.6998705 0.152343,0.9003905 0.102864,0.199219 0.255859,0.298829 0.458985,0.298828 0.204425,10e-7 0.35742,-0.09961 0.458984,-0.298828 0.102863,-0.20052 0.154295,-0.50065 0.154297,-0.9003905 -2e-6,-0.4010398 -0.05143,-0.7011697 -0.154297,-0.9003906 C 18.777342,8.5247596 18.624347,8.4244993 18.419922,8.4244966 m 0,-0.3125 c 0.326821,3e-6 0.57617,0.1295602 0.748047,0.3886719 0.173175,0.2578148 0.259763,0.6328145 0.259765,1.125 -2e-6,0.4908865 -0.08659,0.8658865 -0.259765,1.1250005 -0.171877,0.257812 -0.421226,0.386718 -0.748047,0.386718 -0.326824,0 -0.576824,-0.128906 -0.75,-0.386718 -0.171875,-0.259114 -0.257813,-0.634114 -0.257813,-1.1250005 0,-0.4921855 0.08594,-0.8671852 0.257813,-1.125 0.173176,-0.2591117 0.423176,-0.3886689 0.75,-0.3886719"
         style="font-family:DejaVu Sans;-inkscape-font-specification:DejaVu Sans;fill:#1e1e1e;fill-opacity:1"
         id="path3797" />
      <path
         d="m 12.292969,13.508481 -0.996094,1.556641 0.996094,0 0,-1.556641 m -0.103516,-0.34375 0.496094,0 0,1.900391 0.416016,0 0,0.328125 -0.416016,0 0,0.6875 -0.392578,0 0,-0.6875 -1.316406,0 0,-0.38086 1.21289,-1.847656"
         style="font-family:DejaVu Sans;-inkscape-font-specification:DejaVu Sans;fill:#1e1e1e;fill-opacity:1"
         id="path3799" />
      <path
         d="m 14.095703,15.748715 1.376953,0 0,0.332032 -1.851562,0 0,-0.332032 c 0.149739,-0.154947 0.353515,-0.362629 0.611328,-0.623046 0.259113,-0.261718 0.421874,-0.430338 0.488281,-0.50586 0.126301,-0.141925 0.214191,-0.261717 0.263672,-0.359375 0.05078,-0.09896 0.07617,-0.195961 0.07617,-0.291015 -2e-6,-0.154946 -0.05469,-0.281248 -0.164063,-0.378907 -0.108074,-0.09765 -0.24935,-0.146481 -0.423828,-0.146484 -0.123699,3e-6 -0.254558,0.02149 -0.392578,0.06445 -0.136719,0.04297 -0.283203,0.108075 -0.439453,0.195313 l 0,-0.398438 c 0.158854,-0.0638 0.307291,-0.111976 0.445313,-0.144531 0.138019,-0.03255 0.264321,-0.04883 0.378906,-0.04883 0.302082,3e-6 0.542967,0.07552 0.722656,0.226562 0.179685,0.151044 0.269529,0.352867 0.269531,0.605469 -2e-6,0.119794 -0.02279,0.233726 -0.06836,0.341797 -0.04427,0.106772 -0.125653,0.233074 -0.244141,0.378906 -0.03255,0.03776 -0.136069,0.147137 -0.310547,0.328125 -0.17448,0.179688 -0.420574,0.431641 -0.738281,0.755859"
         style="font-family:DejaVu Sans;-inkscape-font-specification:DejaVu Sans;fill:#1e1e1e;fill-opacity:1"
         id="path3801" />
      <path
         d="m 16.302734,15.584653 0.41211,0 0,0.496094 -0.41211,0 0,-0.496094"
         style="font-family:DejaVu Sans;-inkscape-font-specification:DejaVu Sans;fill:#1e1e1e;fill-opacity:1"
         id="path3803" />
      <path
         d="m 18.46875,14.465512 c -0.177084,2e-6 -0.317709,0.06055 -0.421875,0.181641 -0.102865,0.121095 -0.154298,0.28711 -0.154297,0.498047 -1e-6,0.209636 0.05143,0.375651 0.154297,0.498047 0.104166,0.121094 0.244791,0.181641 0.421875,0.18164 0.177082,10e-7 0.317056,-0.06055 0.419922,-0.18164 0.104165,-0.122396 0.156248,-0.288411 0.15625,-0.498047 -2e-6,-0.210937 -0.05208,-0.376952 -0.15625,-0.498047 -0.102866,-0.121092 -0.24284,-0.181639 -0.419922,-0.181641 m 0.783203,-1.236328 0,0.359375 c -0.09896,-0.04687 -0.199221,-0.08268 -0.300781,-0.107422 -0.100262,-0.02474 -0.199872,-0.03711 -0.298828,-0.03711 -0.260418,3e-6 -0.459637,0.08789 -0.597657,0.263672 -0.136719,0.175783 -0.214844,0.441408 -0.234375,0.796875 0.07682,-0.11328 0.173177,-0.199868 0.289063,-0.259766 0.115884,-0.0612 0.243488,-0.09179 0.382812,-0.0918 0.292968,2e-6 0.524087,0.0892 0.69336,0.267578 0.170571,0.177085 0.255857,0.418621 0.255859,0.72461 -2e-6,0.29948 -0.08854,0.539714 -0.265625,0.720703 -0.177085,0.18099 -0.412762,0.271484 -0.707031,0.271484 -0.337241,0 -0.595053,-0.128906 -0.773438,-0.386718 -0.178385,-0.259114 -0.267578,-0.634114 -0.267578,-1.125 0,-0.460936 0.109375,-0.828123 0.328125,-1.101563 0.21875,-0.274737 0.512369,-0.412106 0.88086,-0.412109 0.09896,3e-6 0.198566,0.0098 0.298828,0.0293 0.10156,0.01953 0.207029,0.04883 0.316406,0.08789"
         style="font-family:DejaVu Sans;-inkscape-font-specification:DejaVu Sans;fill:#1e1e1e;fill-opacity:1"
         id="path3805" />
    </g>
    <path
       style="fill:url(#linearGradient3636);fill-opacity:1;stroke:none"
       d="m 19.469671,0.93718352 -7.472538,0 C 10.58408,4.0300819 9.7032869,7.8368907 9.7032869,12.207637 c 0,4.326395 0.8908781,7.761178 2.2651241,11.177564 l 7.50126,0 0,-22.44801748 z"
       id="path2853"
       sodipodi:nodetypes="ccsccc" />
  </g>
</svg>
