<?xml version="1.0" encoding="UTF-8" standalone="no"?>
<!-- Created with Inkscape (http://www.inkscape.org/) -->

<svg
   xmlns:dc="http://purl.org/dc/elements/1.1/"
   xmlns:cc="http://creativecommons.org/ns#"
   xmlns:rdf="http://www.w3.org/1999/02/22-rdf-syntax-ns#"
   xmlns:svg="http://www.w3.org/2000/svg"
   xmlns="http://www.w3.org/2000/svg"
   xmlns:xlink="http://www.w3.org/1999/xlink"
   xmlns:sodipodi="http://sodipodi.sourceforge.net/DTD/sodipodi-0.dtd"
   xmlns:inkscape="http://www.inkscape.org/namespaces/inkscape"
   version="1.0"
   width="24"
   height="24"
   id="svg2"
   inkscape:version="0.47pre4 r22446"
   sodipodi:docname="lc_torrent_create.svg">
  <metadata
     id="metadata70">
    <rdf:RDF>
      <cc:Work
         rdf:about="">
        <dc:format>image/svg+xml</dc:format>
        <dc:type
           rdf:resource="http://purl.org/dc/dcmitype/StillImage" />
        <dc:title />
      </cc:Work>
    </rdf:RDF>
  </metadata>
  <sodipodi:namedview
     pagecolor="#ffffff"
     bordercolor="#666666"
     borderopacity="1"
     objecttolerance="10"
     gridtolerance="10"
     guidetolerance="10"
     inkscape:pageopacity="0"
     inkscape:pageshadow="2"
     inkscape:window-width="1022"
     inkscape:window-height="535"
     id="namedview68"
     showgrid="false"
     inkscape:zoom="3.6828479"
     inkscape:cx="-48.734611"
     inkscape:cy="6.4765065"
     inkscape:window-x="0"
     inkscape:window-y="24"
     inkscape:window-maximized="1"
     inkscape:current-layer="g4124" />
  <defs
     id="defs4">
    <linearGradient
       id="linearGradient3463">
      <stop
         id="stop3465"
         style="stop-color:#323232;stop-opacity:1"
         offset="0" />
      <stop
         id="stop3467"
         style="stop-color:#696969;stop-opacity:1"
         offset="0.37071067" />
      <stop
         id="stop3469"
         style="stop-color:#7f7f7f;stop-opacity:1"
         offset="0.69190311" />
      <stop
         id="stop3471"
         style="stop-color:#b4b4b4;stop-opacity:1"
         offset="1" />
    </linearGradient>
    <linearGradient
       id="linearGradient3284">
      <stop
         id="stop3286"
         style="stop-color:#ffffff;stop-opacity:0.78431374"
         offset="0" />
      <stop
         id="stop3288"
         style="stop-color:#ffffff;stop-opacity:0.11764706"
         offset="1" />
    </linearGradient>
    <linearGradient
       id="linearGradient3284-6">
      <stop
         offset="0"
         style="stop-color:#ffffff;stop-opacity:0.94238681;"
         id="stop3286-4" />
      <stop
         offset="1"
         style="stop-color:#ffffff;stop-opacity:0;"
         id="stop3288-3" />
    </linearGradient>
    <linearGradient
       inkscape:collect="always"
       xlink:href="#linearGradient3284"
       id="linearGradient3948"
       x1="51.252174"
       y1="-8.1643763"
       x2="51.080956"
       y2="4.3890162"
       gradientUnits="userSpaceOnUse"
       gradientTransform="matrix(0.7175264,-0.00260459,0.00260459,0.7175264,17.909686,5.1357248)" />
    <linearGradient
       inkscape:collect="always"
       xlink:href="#linearGradient3284"
       id="linearGradient3950"
       x1="35.162376"
       y1="-8.0666666"
       x2="35.646393"
       y2="31.045416"
       gradientUnits="userSpaceOnUse"
       gradientTransform="matrix(0.7175264,-0.00260459,0.00260459,0.7175264,17.909686,5.1357248)" />
    <radialGradient
       inkscape:collect="always"
       xlink:href="#linearGradient3284-6"
       id="radialGradient4128"
       gradientUnits="userSpaceOnUse"
       gradientTransform="matrix(1,0,0,5.5999999,0,-41.5104)"
       cx="39.167999"
       cy="9.0240002"
       fx="39.167999"
       fy="9.0240002"
       r="2.8800001" />
    <radialGradient
       inkscape:collect="always"
       xlink:href="#linearGradient3284-6"
       id="radialGradient4130"
       gradientUnits="userSpaceOnUse"
       gradientTransform="matrix(1,0,0,5.5999999,0,-41.5104)"
       cx="39.167999"
       cy="9.0240002"
       fx="39.167999"
       fy="9.0240002"
       r="2.8800001" />
    <linearGradient
       inkscape:collect="always"
       xlink:href="#linearGradient3463"
       id="linearGradient4159"
       x1="45.112492"
       y1="10.172881"
       x2="54.919739"
       y2="0.53421766"
       gradientUnits="userSpaceOnUse" />
    <linearGradient
       inkscape:collect="always"
       xlink:href="#linearGradient3463"
       id="linearGradient4161"
       x1="38.826279"
       y1="50.123165"
       x2="38.060974"
       y2="-9.2029018"
       gradientUnits="userSpaceOnUse" />
    <linearGradient
       gradientTransform="matrix(-0.03137274,-0.01993557,0.01993557,-0.03137274,-23.31379,101.91386)"
       gradientUnits="userSpaceOnUse"
       xlink:href="#linearGradient3304"
       id="linearGradient4112"
       y2="262.18188"
       x2="-29.357916"
       y1="39.928001"
       x1="-84.90229" />
    <linearGradient
       gradientTransform="matrix(0.03137274,0.01993557,-0.01993557,0.03137274,-18.014383,94.732194)"
       gradientUnits="userSpaceOnUse"
       xlink:href="#linearGradient3304"
       id="linearGradient4108"
       y2="38.595142"
       x2="-89.580971"
       y1="265.68219"
       x1="-19.742914" />
    <linearGradient
       gradientTransform="matrix(1.2146893,0,0,1.2146893,-270.38136,-32.302267)"
       gradientUnits="userSpaceOnUse"
       xlink:href="#linearGradient3170"
       id="linearGradient3432"
       y2="43.264011"
       x2="322"
       y1="215"
       x1="322" />
    <linearGradient
       gradientTransform="matrix(1.2146893,0,0,1.2146893,-270.38136,-32.302267)"
       gradientUnits="userSpaceOnUse"
       xlink:href="#linearGradient3284-8"
       id="linearGradient3429"
       y2="135"
       x2="325.5"
       y1="45"
       x1="325.5" />
    <linearGradient
       id="linearGradient3170">
      <stop
         offset="0"
         style="stop-color:#323232;stop-opacity:1"
         id="stop3172" />
      <stop
         offset="0.32967147"
         style="stop-color:#696969;stop-opacity:1"
         id="stop3216" />
      <stop
         offset="0.69190311"
         style="stop-color:#7f7f7f;stop-opacity:1"
         id="stop3218" />
      <stop
         offset="1"
         style="stop-color:#b4b4b4;stop-opacity:1"
         id="stop3212" />
    </linearGradient>
    <linearGradient
       id="linearGradient3284-8">
      <stop
         offset="0"
         style="stop-color:#ffffff;stop-opacity:0.78431374"
         id="stop3286-1" />
      <stop
         offset="1"
         style="stop-color:#ffffff;stop-opacity:0.11764706"
         id="stop3288-2" />
    </linearGradient>
    <linearGradient
       id="linearGradient3304">
      <stop
         offset="0"
         style="stop-color:#ff8313;stop-opacity:1"
         id="stop3306" />
      <stop
         offset="1"
         style="stop-color:#ffe400;stop-opacity:1"
         id="stop3308" />
    </linearGradient>
    <linearGradient
       gradientTransform="matrix(0.03137274,0.01993557,-0.01993557,0.03137274,-18.014383,94.732194)"
       gradientUnits="userSpaceOnUse"
       xlink:href="#linearGradient3304-3"
       id="linearGradient4108-9"
       y2="38.595142"
       x2="-89.580971"
       y1="265.68219"
       x1="-19.742914" />
    <linearGradient
       id="linearGradient3304-3">
      <stop
         offset="0"
         style="stop-color:#ff8313;stop-opacity:1"
         id="stop3306-9" />
      <stop
         offset="1"
         style="stop-color:#ffe400;stop-opacity:1"
         id="stop3308-08" />
    </linearGradient>
    <linearGradient
       y2="262.18188"
       x2="-29.357916"
       y1="39.928001"
       x1="-84.90229"
       gradientTransform="matrix(-0.03137274,-0.01993557,0.01993557,-0.03137274,-23.31379,101.91386)"
       gradientUnits="userSpaceOnUse"
       id="linearGradient3011"
       xlink:href="#linearGradient3304-3"
       inkscape:collect="always" />
    <linearGradient
       inkscape:collect="always"
       xlink:href="#linearGradient3463"
       id="linearGradient3045"
       gradientUnits="userSpaceOnUse"
       x1="38.826279"
       y1="50.123165"
       x2="38.060974"
       y2="-9.2029018" />
    <linearGradient
       inkscape:collect="always"
       xlink:href="#linearGradient3304-3"
       id="linearGradient3048"
       gradientUnits="userSpaceOnUse"
       gradientTransform="matrix(0.03137274,0.01993557,-0.01993557,0.03137274,-18.014383,94.732194)"
       x1="-19.742914"
       y1="265.68219"
       x2="-89.580971"
       y2="38.595142" />
    <linearGradient
       inkscape:collect="always"
       xlink:href="#linearGradient3304-3"
       id="linearGradient3051"
       gradientUnits="userSpaceOnUse"
       gradientTransform="matrix(-0.03137274,-0.01993557,0.01993557,-0.03137274,-23.31379,101.91386)"
       x1="-84.90229"
       y1="39.928001"
       x2="-29.357916"
       y2="262.18188" />
    <linearGradient
       inkscape:collect="always"
       xlink:href="#linearGradient3284"
       id="linearGradient3054"
       gradientUnits="userSpaceOnUse"
       x1="35.162376"
       y1="-8.0666666"
       x2="35.646393"
       y2="31.045416" />
    <linearGradient
       inkscape:collect="always"
       xlink:href="#linearGradient3463"
       id="linearGradient3057"
       gradientUnits="userSpaceOnUse"
       x1="45.112492"
       y1="10.172881"
       x2="54.919739"
       y2="0.53421766" />
    <linearGradient
       inkscape:collect="always"
       xlink:href="#linearGradient3284"
       id="linearGradient3060"
       gradientUnits="userSpaceOnUse"
       x1="51.252174"
       y1="-8.1643763"
       x2="51.080956"
       y2="4.3890162" />
    <radialGradient
       inkscape:collect="always"
       xlink:href="#linearGradient3284-6"
       id="radialGradient3063"
       gradientUnits="userSpaceOnUse"
       gradientTransform="matrix(1,0,0,5.5999999,0,-41.5104)"
       cx="39.167999"
       cy="9.0240002"
       fx="39.167999"
       fy="9.0240002"
       r="2.8800001" />
    <radialGradient
       inkscape:collect="always"
       xlink:href="#linearGradient3284-6"
       id="radialGradient3066"
       gradientUnits="userSpaceOnUse"
       gradientTransform="matrix(0,1,-5.5999999,0,89.702399,-30.143999)"
       cx="39.167999"
       cy="9.0240002"
       fx="39.167999"
       fy="9.0240002"
       r="2.8800001" />
  </defs>
  <g
     id="g3870"
     transform="matrix(0.33557749,-0.00121814,0.00121814,0.33557749,-2.0754236,7.0011208)">
    <path
       style="fill:url(#linearGradient3045);fill-opacity:1;stroke:#3c3c3c;stroke-width:2.29349875;stroke-linecap:round;stroke-linejoin:round;stroke-miterlimit:4;stroke-opacity:1;stroke-dasharray:none;stroke-dashoffset:7.99999924"
       d="m 46.624871,-8.0250583 c 5.62965,5.6292686 11.2593,11.2585373 16.88895,16.8878059 -2e-6,13.1846974 -3e-6,26.3693954 -5e-6,39.5540924 -2.057252,1.065569 -4.540133,0.281512 -6.809163,0.494488 -11.935729,0 -23.871459,0 -35.807189,0 -1.06557,-2.057254 -0.281513,-4.540136 -0.494489,-6.809168 0,-16.544243 0,-33.0884868 0,-49.6327303 2.057255,-1.0655682 4.540137,-0.281512 6.809169,-0.494488 6.470909,0 12.941818,0 19.412727,0 z"
       id="path3274" />
    <g
       id="g2979"
       transform="matrix(2.9798984,0.01081698,-0.01081698,2.9798984,104.19482,-264.27643)">
      <path
         style="fill:url(#linearGradient3048);fill-opacity:1;fill-rule:evenodd;stroke:#3c3c3c;stroke-width:0.35951629;stroke-linecap:butt;stroke-linejoin:miter;stroke-miterlimit:4;stroke-opacity:1;stroke-dasharray:none"
         d="m -23.665405,94.845886 c 0.61907,0.280336 1.238141,0.560671 1.857211,0.841007 -1.25438,1.974029 -2.508759,3.948058 -3.763139,5.922087 0.545106,0.34638 1.090212,0.69276 1.635318,1.03914 1.921831,-3.024397 3.843663,-6.048794 5.765494,-9.073191 -1.831628,0.423652 -3.663256,0.847305 -5.494884,1.270957 z"
         id="path4098" />
      <path
         style="fill:url(#linearGradient3051);fill-opacity:1;fill-rule:evenodd;stroke:#3c3c3c;stroke-width:0.35951629;stroke-linecap:butt;stroke-linejoin:miter;stroke-miterlimit:4;stroke-opacity:1;stroke-dasharray:none"
         d="m -17.662762,101.80016 c -0.619072,-0.28033 -1.238144,-0.56067 -1.857216,-0.841 1.254382,-1.97403 2.508764,-3.94806 3.763146,-5.92209 -0.545108,-0.346382 -1.090217,-0.692764 -1.635325,-1.039146 -1.921831,3.024399 -3.843663,6.048796 -5.765494,9.073196 1.83163,-0.42365 3.663259,-0.84731 5.494889,-1.27096 z"
         id="path4110" />
    </g>
    <path
       style="fill:url(#linearGradient3054);fill-opacity:1;stroke:none"
       d="m 46.625447,-8.0335506 c -8.400795,0.01011 -16.818746,-0.0077 -25.205433,0.027389 -1.733173,0.2512432 -0.76639,2.2922219 -1.016578,3.5012716 -0.0044,8.3590472 -0.0088,16.7180935 -0.01327,25.0771415 13.023633,5.402754 28.086172,5.633057 41.370838,1.005998 2.299837,0.01434 1.688107,-1.985925 1.744862,-3.512086 2.1e-5,-3.061219 4.1e-5,-6.122438 6.2e-5,-9.1836574 C 57.879101,3.2438202 52.252273,-2.3948652 46.625447,-8.0335506 z"
       id="path3929" />
    <path
       style="fill:url(#linearGradient3057);fill-opacity:1;stroke:#3c3c3c;stroke-width:1.9779526;stroke-linecap:round;stroke-linejoin:round;stroke-miterlimit:4;stroke-opacity:1;stroke-dashoffset:7.99999924"
       d="m 46.168107,-8.1828313 c 5.834499,5.7901871 11.668997,11.5803743 17.503496,17.3705614 -5.834499,0 -11.668997,0 -17.503496,0 0,-5.7901871 0,-11.5803743 0,-17.3705614 z"
       id="rect3286" />
    <path
       style="fill:url(#linearGradient3060);fill-opacity:1;stroke:none"
       d="m 46.146851,-8.1659451 c 8.69e-4,3.7600275 0.0017,7.52005485 0.0026,11.2800824 3.52036,1.006287 7.396161,0.8126645 10.759832,-0.6577808 C 53.32181,-1.0844107 49.73433,-4.6251779 46.146851,-8.1659451 z"
       id="path3931" />
  </g>
  <g
     id="g4124"
     transform="matrix(0.46103596,0.21339378,-0.21339378,0.46103596,-7.5034426,-4.5687691)">
    <path
       style="fill:url(#radialGradient3063);fill-opacity:1;stroke:none"
       d="m 42.047999,9.0240002 c -0.08534,4.8683618 -0.172282,9.8511688 -1.631401,14.5376048 -0.304742,2.186218 -2.518321,1.570126 -2.621378,-0.356167 -1.558956,-5.655029 -1.557855,-11.608945 -1.448709,-17.4317924 0.235168,-3.9966338 0.358485,-8.1278144 1.831248,-11.8990029 1.508417,-2.5849339 2.761526,1.5644149 2.874986,2.954212 0.784996,4.0101799 0.973434,8.1175974 0.995254,12.1951455 z"
       id="path4108" />
    <path
       style="fill:url(#radialGradient3066);fill-opacity:1;stroke:none"
       d="M 39.167999,11.904 C 34.299637,11.818655 29.31683,11.731718 24.630394,10.272599 22.444176,9.967857 23.060268,7.754278 24.986561,7.651221 30.64159,6.092265 36.595506,6.093366 42.418353,6.202512 46.414987,6.43768 50.546168,6.560997 54.317356,8.03376 56.90229,9.542177 52.752941,10.795286 51.363144,10.908746 47.352964,11.693742 43.245547,11.88218 39.167999,11.904 z"
       id="path4120" />
  </g>
</svg>
