<?xml version="1.0" encoding="UTF-8" standalone="no"?>
<!-- Created with Inkscape (http://www.inkscape.org/) -->

<svg
   xmlns:dc="http://purl.org/dc/elements/1.1/"
   xmlns:cc="http://creativecommons.org/ns#"
   xmlns:rdf="http://www.w3.org/1999/02/22-rdf-syntax-ns#"
   xmlns:svg="http://www.w3.org/2000/svg"
   xmlns="http://www.w3.org/2000/svg"
   xmlns:xlink="http://www.w3.org/1999/xlink"
   xmlns:sodipodi="http://sodipodi.sourceforge.net/DTD/sodipodi-0.dtd"
   xmlns:inkscape="http://www.inkscape.org/namespaces/inkscape"
   version="1.0"
   width="24"
   height="24"
   id="svg2"
   inkscape:version="0.47pre4 r22446"
   sodipodi:docname="lc_torrent_ipfilter.svg">
  <metadata
     id="metadata70">
    <rdf:RDF>
      <cc:Work
         rdf:about="">
        <dc:format>image/svg+xml</dc:format>
        <dc:type
           rdf:resource="http://purl.org/dc/dcmitype/StillImage" />
        <dc:title></dc:title>
      </cc:Work>
    </rdf:RDF>
  </metadata>
  <sodipodi:namedview
     pagecolor="#ffffff"
     bordercolor="#666666"
     borderopacity="1"
     objecttolerance="10"
     gridtolerance="10"
     guidetolerance="10"
     inkscape:pageopacity="0"
     inkscape:pageshadow="2"
     inkscape:window-width="1022"
     inkscape:window-height="535"
     id="namedview68"
     showgrid="false"
     inkscape:zoom="5.2083333"
     inkscape:cx="2.1142917"
     inkscape:cy="8.0061665"
     inkscape:window-x="0"
     inkscape:window-y="24"
     inkscape:window-maximized="1"
     inkscape:current-layer="svg2" />
  <defs
     id="defs4">
    <linearGradient
       id="linearGradient3714">
      <stop
         offset="0"
         style="stop-color:#ff1313;stop-opacity:1;"
         id="stop3716" />
      <stop
         offset="1"
         style="stop-color:#ff9618;stop-opacity:1;"
         id="stop3718" />
    </linearGradient>
    <linearGradient
       id="linearGradient3463">
      <stop
         id="stop3465"
         style="stop-color:#323232;stop-opacity:1"
         offset="0" />
      <stop
         id="stop3467"
         style="stop-color:#696969;stop-opacity:1"
         offset="0.37071067" />
      <stop
         id="stop3469"
         style="stop-color:#7f7f7f;stop-opacity:1"
         offset="0.69190311" />
      <stop
         id="stop3471"
         style="stop-color:#b4b4b4;stop-opacity:1"
         offset="1" />
    </linearGradient>
    <linearGradient
       id="linearGradient3284">
      <stop
         id="stop3286"
         style="stop-color:#ffffff;stop-opacity:0.11764706;"
         offset="0" />
      <stop
         id="stop3288"
         style="stop-color:#ffffff;stop-opacity:0.78431374;"
         offset="1" />
    </linearGradient>
    <linearGradient
       id="linearGradient3304">
      <stop
         id="stop3306"
         style="stop-color:#ff8313;stop-opacity:1"
         offset="0" />
      <stop
         id="stop3308"
         style="stop-color:#ffe400;stop-opacity:1"
         offset="1" />
    </linearGradient>
    <linearGradient
       inkscape:collect="always"
       xlink:href="#linearGradient3463"
       id="linearGradient3635"
       x1="10.709996"
       y1="12.096"
       x2="13.209996"
       y2="12.096"
       gradientUnits="userSpaceOnUse" />
    <linearGradient
       inkscape:collect="always"
       xlink:href="#linearGradient3284"
       id="linearGradient3663"
       gradientUnits="userSpaceOnUse"
       gradientTransform="translate(0,-2)"
       x1="5.4375"
       y1="10.662511"
       x2="5.4375"
       y2="6.2501645" />
    <linearGradient
       inkscape:collect="always"
       xlink:href="#linearGradient3284"
       id="linearGradient3673"
       gradientUnits="userSpaceOnUse"
       x1="11.96875"
       y1="14.111999"
       x2="11.959996"
       y2="0.76800007" />
    <linearGradient
       inkscape:collect="always"
       xlink:href="#linearGradient3714"
       id="linearGradient3685"
       gradientUnits="userSpaceOnUse"
       gradientTransform="translate(0,-2)"
       x1="5.4375"
       y1="10.662511"
       x2="5.4375"
       y2="6.2501645" />
    <linearGradient
       inkscape:collect="always"
       xlink:href="#linearGradient3284"
       id="linearGradient3687"
       gradientUnits="userSpaceOnUse"
       gradientTransform="translate(0,-2)"
       x1="5.4375"
       y1="10.662511"
       x2="5.4375"
       y2="6.2501645" />
    <linearGradient
       inkscape:collect="always"
       xlink:href="#linearGradient3304"
       id="linearGradient3703"
       x1="11.796875"
       y1="14.55175"
       x2="11.796875"
       y2="9.8477497"
       gradientUnits="userSpaceOnUse" />
    <linearGradient
       inkscape:collect="always"
       xlink:href="#linearGradient3284"
       id="linearGradient3707"
       gradientUnits="userSpaceOnUse"
       x1="11.796875"
       y1="14.55175"
       x2="11.796875"
       y2="9.8477497" />
    <linearGradient
       inkscape:collect="always"
       xlink:href="#linearGradient3714"
       id="linearGradient3720"
       gradientUnits="userSpaceOnUse"
       gradientTransform="translate(0,-2)"
       x1="5.4375"
       y1="10.662511"
       x2="5.4375"
       y2="6.2501645" />
    <linearGradient
       inkscape:collect="always"
       xlink:href="#linearGradient3304"
       id="linearGradient3744"
       gradientUnits="userSpaceOnUse"
       x1="11.796875"
       y1="14.55175"
       x2="11.796875"
       y2="9.8477497" />
    <linearGradient
       inkscape:collect="always"
       xlink:href="#linearGradient3714"
       id="linearGradient3747"
       gradientUnits="userSpaceOnUse"
       gradientTransform="translate(0,-2)"
       x1="5.4375"
       y1="10.662511"
       x2="5.4375"
       y2="6.2501645" />
    <linearGradient
       inkscape:collect="always"
       xlink:href="#linearGradient3284"
       id="linearGradient3750"
       gradientUnits="userSpaceOnUse"
       gradientTransform="translate(0,-2)"
       x1="5.4375"
       y1="10.662511"
       x2="5.4375"
       y2="6.2501645" />
    <linearGradient
       inkscape:collect="always"
       xlink:href="#linearGradient3284"
       id="linearGradient3753"
       gradientUnits="userSpaceOnUse"
       x1="11.796875"
       y1="14.55175"
       x2="11.796875"
       y2="9.8477497" />
    <linearGradient
       inkscape:collect="always"
       xlink:href="#linearGradient3463"
       id="linearGradient3756"
       gradientUnits="userSpaceOnUse"
       x1="10.709996"
       y1="12.096"
       x2="13.209996"
       y2="12.096" />
    <linearGradient
       inkscape:collect="always"
       xlink:href="#linearGradient3284"
       id="linearGradient3759"
       gradientUnits="userSpaceOnUse"
       x1="11.96875"
       y1="14.111999"
       x2="11.959996"
       y2="0.76800007" />
    <linearGradient
       inkscape:collect="always"
       xlink:href="#linearGradient3714"
       id="linearGradient3762"
       gradientUnits="userSpaceOnUse"
       gradientTransform="translate(0,-2)"
       x1="5.4375"
       y1="10.662511"
       x2="5.4375"
       y2="6.2501645" />
    <linearGradient
       inkscape:collect="always"
       xlink:href="#linearGradient3284"
       id="linearGradient3765"
       gradientUnits="userSpaceOnUse"
       gradientTransform="translate(0,-2)"
       x1="5.4375"
       y1="10.662511"
       x2="5.4375"
       y2="6.2501645" />
  </defs>
  <path
     style="fill:url(#linearGradient3744);fill-opacity:1;stroke:#000000;stroke-width:0.5;stroke-linecap:round;stroke-linejoin:round;stroke-miterlimit:4;stroke-opacity:1;stroke-dasharray:none"
     d="m 19.875,8.84375 c 0,0.7604167 0,1.520833 0,2.28125 -6.46875,0 -12.9375,0 -19.40625,0 0,0.895833 0,1.791667 0,2.6875 6.46875,0 12.9375,0 19.40625,0 0,0.677083 0,1.354167 0,2.03125 1.083333,-1.15625 2.166667,-2.3125 3.25,-3.46875 -1.083333,-1.177083 -2.166667,-2.354167 -3.25,-3.53125 z"
     id="path3641" />
  <g
     id="g3675">
    <path
       style="fill:url(#linearGradient3747);fill-opacity:1;stroke:#000000;stroke-width:0.5;stroke-linecap:round;stroke-linejoin:round;stroke-miterlimit:4;stroke-opacity:1;stroke-dasharray:none;stroke-dashoffset:0"
       d="m 7.1875,2.71875 c 0,0.6979167 0,1.3958333 0,2.09375 -2.2604167,0 -4.5208333,0 -6.78125,0 0,0.8229167 0,1.6458333 0,2.46875 2.2604167,0 4.5208333,0 6.78125,0 0,0.8125 0,1.625 0,2.4375 C 8.28125,8.5625 9.375,7.40625 10.46875,6.25 9.375,5.0729167 8.28125,3.8958333 7.1875,2.71875 z"
       id="rect3637" />
    <path
       style="fill:url(#linearGradient3750);fill-opacity:1;stroke:none"
       d="m 7.1875,2.71875 c 0,0.6979167 0,1.3958333 0,2.09375 -2.2604167,0 -4.5208333,0 -6.78125,0 C 0.21711282,5.5421139 0.6770582,5.830405 1.3731627,5.9035171 4.1849656,6.6601638 7.218761,6.6222389 10,5.75 9.0625,4.7395833 8.125,3.7291667 7.1875,2.71875 z"
       id="path3656" />
  </g>
  <path
     style="fill:url(#linearGradient3753);fill-opacity:1;stroke:none"
     d="m 19.875,8.84375 c 0,0.7604167 0,1.520833 0,2.28125 -6.46875,0 -12.9375,0 -19.40625,0 -0.058597,0.601303 -0.0655712,1.160062 0.738999,0.997147 C 8.3481967,12.925063 15.595117,12.896737 22.71875,11.9375 21.770833,10.90625 20.822917,9.875 19.875,8.84375 z"
     id="path3705" />
  <g
     id="g3693">
    <path
       style="fill:url(#linearGradient3756);fill-opacity:1;stroke:#000000;stroke-width:0.5;stroke-miterlimit:4;stroke-opacity:1;stroke-dasharray:none"
       d="m 10.959996,0.76800007 c 0.666667,0 1.333334,0 2,0 0,7.55200003 0,15.10399993 0,22.65599993 -0.666666,0 -1.333333,0 -2,0 0,-7.552 0,-15.1039999 0,-22.65599993 z"
       id="rect2834" />
    <path
       style="fill:url(#linearGradient3759);fill-opacity:1;stroke:none"
       d="m 10.96875,0.78125 c 0,3.7291667 0,7.4583333 0,11.1875 0.6014,0.611014 2.15955,0.262685 2,-0.709087 0,-3.4928044 0,-6.9856087 0,-10.478413 -0.666667,0 -1.333333,0 -2,0 z"
       id="rect3666" />
  </g>
  <g
     id="g3679"
     transform="translate(0,12.288)">
    <path
       style="fill:url(#linearGradient3762);fill-opacity:1;stroke:#000000;stroke-width:0.5;stroke-linecap:round;stroke-linejoin:round;stroke-miterlimit:4;stroke-opacity:1;stroke-dasharray:none;stroke-dashoffset:0"
       d="m 7.1875,2.71875 c 0,0.6979167 0,1.3958333 0,2.09375 -2.2604167,0 -4.5208333,0 -6.78125,0 0,0.8229167 0,1.6458333 0,2.46875 2.2604167,0 4.5208333,0 6.78125,0 0,0.8125 0,1.625 0,2.4375 C 8.28125,8.5625 9.375,7.40625 10.46875,6.25 9.375,5.0729167 8.28125,3.8958333 7.1875,2.71875 z"
       id="path3681" />
    <path
       style="fill:url(#linearGradient3765);fill-opacity:1;stroke:none"
       d="m 7.1875,2.71875 c 0,0.6979167 0,1.3958333 0,2.09375 -2.2604167,0 -4.5208333,0 -6.78125,0 C 0.21711282,5.5421139 0.6770582,5.830405 1.3731627,5.9035171 4.1849656,6.6601638 7.218761,6.6222389 10,5.75 9.0625,4.7395833 8.125,3.7291667 7.1875,2.71875 z"
       id="path3683" />
  </g>
</svg>
