<?xml version="1.0" encoding="UTF-8" standalone="no"?>
<!-- Created with Inkscape (http://www.inkscape.org/) -->

<svg
   xmlns:dc="http://purl.org/dc/elements/1.1/"
   xmlns:cc="http://creativecommons.org/ns#"
   xmlns:rdf="http://www.w3.org/1999/02/22-rdf-syntax-ns#"
   xmlns:svg="http://www.w3.org/2000/svg"
   xmlns="http://www.w3.org/2000/svg"
   xmlns:xlink="http://www.w3.org/1999/xlink"
   xmlns:sodipodi="http://sodipodi.sourceforge.net/DTD/sodipodi-0.dtd"
   xmlns:inkscape="http://www.inkscape.org/namespaces/inkscape"
   version="1.0"
   width="96"
   height="96"
   id="svg2408"
   inkscape:version="0.48.2 r9819"
   sodipodi:docname="blogique.svg"
   inkscape:export-filename="/home/buckstabu/Dropbox/Public/lcicons/lcproto2.png"
   inkscape:export-xdpi="90"
   inkscape:export-ydpi="90">
  <sodipodi:namedview
     pagecolor="#ffffff"
     bordercolor="#666666"
     borderopacity="1"
     objecttolerance="10"
     gridtolerance="10"
     guidetolerance="10"
     inkscape:pageopacity="0"
     inkscape:pageshadow="2"
     inkscape:window-width="1862"
     inkscape:window-height="1036"
     id="namedview68"
     showgrid="false"
     inkscape:zoom="0.83333333"
     inkscape:cx="112.52131"
     inkscape:cy="242.04314"
     inkscape:window-x="58"
     inkscape:window-y="0"
     inkscape:window-maximized="1"
     inkscape:current-layer="svg2408" />
  <defs
     id="defs2410">
    <linearGradient
       id="linearGradient4017">
      <stop
         style="stop-color:#ff6600;stop-opacity:1;"
         offset="0"
         id="stop4019" />
      <stop
         style="stop-color:#ff1e00;stop-opacity:1;"
         offset="1"
         id="stop4021" />
    </linearGradient>
    <linearGradient
       x1="45.447727"
       y1="92.539597"
       x2="45.447727"
       y2="7.0165396"
       id="ButtonShadow"
       gradientUnits="userSpaceOnUse"
       gradientTransform="scale(1.0058652,0.994169)">
      <stop
         id="stop3750"
         style="stop-color:#000000;stop-opacity:1"
         offset="0" />
      <stop
         id="stop3752"
         style="stop-color:#000000;stop-opacity:0.58823532"
         offset="1" />
    </linearGradient>
    <filter
       color-interpolation-filters="sRGB"
       id="filter3174">
      <feGaussianBlur
         id="feGaussianBlur3176"
         stdDeviation="1.71" />
    </filter>
    <linearGradient
       id="linearGradient3224-6">
      <stop
         id="stop3226-2"
         style="stop-color:#42394b;stop-opacity:1"
         offset="0" />
      <stop
         id="stop3228-1"
         style="stop-color:#000000;stop-opacity:1"
         offset="1" />
    </linearGradient>
    <linearGradient
       id="linearGradient3187-5">
      <stop
         id="stop3189-3"
         style="stop-color:#b4b4b4;stop-opacity:1"
         offset="0" />
      <stop
         id="stop3191-2"
         style="stop-color:#e6e6e6;stop-opacity:1"
         offset="1" />
    </linearGradient>
    <linearGradient
       id="linearGradient3737-9">
      <stop
         id="stop3739-7"
         style="stop-color:#ffffff;stop-opacity:1"
         offset="0" />
      <stop
         id="stop3741-6"
         style="stop-color:#ffffff;stop-opacity:0"
         offset="1" />
    </linearGradient>
    <linearGradient
       id="linearGradient3465-2">
      <stop
         id="stop3467-0"
         style="stop-color:#919191;stop-opacity:1"
         offset="0" />
      <stop
         id="stop3469-6"
         style="stop-color:#fdfdfd;stop-opacity:1"
         offset="1" />
    </linearGradient>
    <linearGradient
       id="linearGradient3737-7-3">
      <stop
         id="stop3739-2-3"
         style="stop-color:#ffffff;stop-opacity:1"
         offset="0" />
      <stop
         id="stop3741-7-6"
         style="stop-color:#ffffff;stop-opacity:0"
         offset="1" />
    </linearGradient>
    <linearGradient
       id="linearGradient3737-4-0">
      <stop
         id="stop3739-8-4"
         style="stop-color:#ffffff;stop-opacity:1"
         offset="0" />
      <stop
         id="stop3741-71-8"
         style="stop-color:#ffffff;stop-opacity:0"
         offset="1" />
    </linearGradient>
    <clipPath
       id="clipPath3613-5">
      <rect
         width="84"
         height="84"
         rx="6"
         ry="6"
         x="6"
         y="6"
         id="rect3615-1"
         style="fill:#ffffff;fill-opacity:1;fill-rule:nonzero;stroke:none" />
    </clipPath>
    <filter
       x="-0.192"
       y="-0.192"
       width="1.3839999"
       height="1.3839999"
       color-interpolation-filters="sRGB"
       id="filter3794-2">
      <feGaussianBlur
         id="feGaussianBlur3796-9"
         stdDeviation="5.28" />
    </filter>
    <linearGradient
       x1="45.447727"
       y1="92.539597"
       x2="45.447727"
       y2="7.0165396"
       id="ButtonShadow-4"
       gradientUnits="userSpaceOnUse"
       gradientTransform="scale(1.0058652,0.994169)">
      <stop
         id="stop3750-7"
         style="stop-color:#000000;stop-opacity:1"
         offset="0" />
      <stop
         id="stop3752-9"
         style="stop-color:#000000;stop-opacity:0.58823532"
         offset="1" />
    </linearGradient>
    <filter
       color-interpolation-filters="sRGB"
       id="filter3174-1">
      <feGaussianBlur
         id="feGaussianBlur3176-1"
         stdDeviation="1.71" />
    </filter>
    <linearGradient
       inkscape:collect="always"
       xlink:href="#ButtonShadow-4"
       id="linearGradient53366"
       gradientUnits="userSpaceOnUse"
       gradientTransform="scale(1.0058652,0.994169)"
       x1="45.447727"
       y1="92.539597"
       x2="45.447727"
       y2="7.0165396" />
    <linearGradient
       inkscape:collect="always"
       xlink:href="#linearGradient4017"
       id="linearGradient53368"
       gradientUnits="userSpaceOnUse"
       gradientTransform="matrix(0.71428571,0,0,0.71428571,-30.610596,45.159724)"
       x1="53.939693"
       y1="6.8442411"
       x2="46.812061"
       y2="133.09723" />
    <linearGradient
       inkscape:collect="always"
       xlink:href="#linearGradient3187-5"
       id="linearGradient53370"
       gradientUnits="userSpaceOnUse"
       x1="48"
       y1="90"
       x2="48"
       y2="5.9877172" />
    <linearGradient
       inkscape:collect="always"
       xlink:href="#linearGradient3737-9"
       id="linearGradient53372"
       gradientUnits="userSpaceOnUse"
       x1="36.357143"
       y1="6"
       x2="36.357143"
       y2="63.893143" />
    <linearGradient
       inkscape:collect="always"
       xlink:href="#linearGradient3465-2"
       id="linearGradient53374"
       gradientUnits="userSpaceOnUse"
       gradientTransform="matrix(1.0294118,0,0,1.0294118,-1.4117647,-1.411765)"
       x1="43.17857"
       y1="13"
       x2="43.17857"
       y2="83.294571" />
    <radialGradient
       inkscape:collect="always"
       xlink:href="#linearGradient3737-7-3"
       id="radialGradient53376"
       gradientUnits="userSpaceOnUse"
       gradientTransform="matrix(1.1573129,0,0,0.99590774,-7.551021,0.1971319)"
       cx="48"
       cy="90.171875"
       fx="48"
       fy="90.171875"
       r="42" />
    <linearGradient
       inkscape:collect="always"
       xlink:href="#linearGradient3737-4-0"
       id="linearGradient53378"
       gradientUnits="userSpaceOnUse"
       x1="48"
       y1="20.220806"
       x2="48"
       y2="138.66119" />
    <radialGradient
       inkscape:collect="always"
       xlink:href="#linearGradient3224-6"
       id="radialGradient3086"
       gradientUnits="userSpaceOnUse"
       gradientTransform="matrix(1.3830053,-1.0350102e-8,0,1.3123934,-17.140614,-23.729195)"
       cx="47.098362"
       cy="78.286942"
       fx="47.098362"
       fy="78.286942"
       r="38.957481" />
    <linearGradient
       inkscape:collect="always"
       xlink:href="#ButtonShadow-4"
       id="linearGradient3117"
       gradientUnits="userSpaceOnUse"
       gradientTransform="scale(1.0058652,0.994169)"
       x1="45.447727"
       y1="92.539597"
       x2="45.447727"
       y2="7.0165396" />
    <linearGradient
       inkscape:collect="always"
       xlink:href="#linearGradient4017"
       id="linearGradient3142"
       gradientUnits="userSpaceOnUse"
       gradientTransform="matrix(0.71428571,0,0,0.71428571,237.37043,-137.445)"
       x1="53.939693"
       y1="6.8442411"
       x2="46.812061"
       y2="133.09723" />
    <linearGradient
       inkscape:collect="always"
       xlink:href="#linearGradient4017"
       id="linearGradient3166"
       gradientUnits="userSpaceOnUse"
       gradientTransform="matrix(0.71428571,0,0,0.71428571,289.66449,-122.75983)"
       x1="53.939693"
       y1="6.8442411"
       x2="46.812061"
       y2="133.09723" />
    <linearGradient
       inkscape:collect="always"
       xlink:href="#linearGradient4017"
       id="linearGradient3171"
       gradientUnits="userSpaceOnUse"
       gradientTransform="matrix(0.71428571,0,0,0.71428571,101.17043,-140.445)"
       x1="53.939693"
       y1="6.8442411"
       x2="46.812061"
       y2="133.09723" />
    <linearGradient
       inkscape:collect="always"
       xlink:href="#linearGradient4017"
       id="linearGradient3173"
       gradientUnits="userSpaceOnUse"
       gradientTransform="matrix(0.71428571,0,0,0.71428571,289.66444,-122.76289)"
       x1="53.939693"
       y1="6.8442411"
       x2="46.812061"
       y2="133.09723" />
    <linearGradient
       inkscape:collect="always"
       xlink:href="#linearGradient4017"
       id="linearGradient3176"
       gradientUnits="userSpaceOnUse"
       gradientTransform="matrix(0.71428571,0,0,0.71428571,280.96447,-111.50981)"
       x1="53.939693"
       y1="6.8442411"
       x2="46.812061"
       y2="133.09723" />
    <linearGradient
       inkscape:collect="always"
       xlink:href="#linearGradient4017"
       id="linearGradient3178"
       gradientUnits="userSpaceOnUse"
       gradientTransform="matrix(0.71428571,0,0,0.71428571,280.96441,-111.51288)"
       x1="53.939693"
       y1="6.8442411"
       x2="46.812061"
       y2="133.09723" />
    <linearGradient
       inkscape:collect="always"
       xlink:href="#linearGradient4017"
       id="linearGradient3181"
       gradientUnits="userSpaceOnUse"
       gradientTransform="matrix(0.71428571,0,0,0.71428571,251.11444,-116.90982)"
       x1="53.939693"
       y1="6.8442411"
       x2="46.812061"
       y2="133.09723" />
    <linearGradient
       inkscape:collect="always"
       xlink:href="#linearGradient4017"
       id="linearGradient3962"
       x1="150.39526"
       y1="-61.137501"
       x2="210.39526"
       y2="-61.137501"
       gradientUnits="userSpaceOnUse" />
    <filter
       inkscape:collect="always"
       id="filter3972">
      <feGaussianBlur
         inkscape:collect="always"
         stdDeviation="1.2992126"
         id="feGaussianBlur3974" />
    </filter>
    <linearGradient
       inkscape:collect="always"
       xlink:href="#linearGradient4017"
       id="linearGradient3981"
       gradientUnits="userSpaceOnUse"
       gradientTransform="matrix(0.71428571,0,0,0.71428571,101.17043,-140.445)"
       x1="53.939693"
       y1="6.8442411"
       x2="46.812061"
       y2="133.09723" />
    <linearGradient
       inkscape:collect="always"
       xlink:href="#linearGradient4017"
       id="linearGradient3983"
       gradientUnits="userSpaceOnUse"
       x1="150.39526"
       y1="-61.137501"
       x2="210.39526"
       y2="-61.137501" />
    <linearGradient
       inkscape:collect="always"
       xlink:href="#linearGradient4017"
       id="linearGradient3986"
       gradientUnits="userSpaceOnUse"
       x1="150.39526"
       y1="-61.137501"
       x2="210.39526"
       y2="-61.137501"
       gradientTransform="translate(13.8,-9.0000001)" />
    <linearGradient
       inkscape:collect="always"
       xlink:href="#linearGradient4017"
       id="linearGradient3990"
       gradientUnits="userSpaceOnUse"
       gradientTransform="matrix(0.71428571,0,0,0.71428571,114.97043,-149.445)"
       x1="53.939693"
       y1="6.8442411"
       x2="46.812061"
       y2="133.09723" />
    <linearGradient
       inkscape:collect="always"
       xlink:href="#linearGradient4017"
       id="linearGradient4033"
       gradientUnits="userSpaceOnUse"
       gradientTransform="matrix(0.71428571,0,0,0.71428571,114.97043,-149.445)"
       x1="53.939693"
       y1="6.8442411"
       x2="46.812061"
       y2="133.09723" />
    <linearGradient
       inkscape:collect="always"
       xlink:href="#linearGradient4017"
       id="linearGradient4035"
       gradientUnits="userSpaceOnUse"
       gradientTransform="translate(13.8,-9.0000001)"
       x1="150.39526"
       y1="-61.137501"
       x2="210.39526"
       y2="-61.137501" />
  </defs>
  <metadata
     id="metadata2413">
    <rdf:RDF>
      <cc:Work
         rdf:about="">
        <dc:format>image/svg+xml</dc:format>
        <dc:type
           rdf:resource="http://purl.org/dc/dcmitype/StillImage" />
        <dc:title />
      </cc:Work>
    </rdf:RDF>
  </metadata>
  <g
     id="layer2"
     style="display:none">
    <rect
       width="86"
       height="85"
       rx="6"
       ry="6"
       x="5"
       y="7"
       id="rect3745"
       style="opacity:0.9;fill:url(#ButtonShadow);fill-opacity:1;fill-rule:nonzero;stroke:none;filter:url(#filter3174)" />
  </g>
  <path
     style="opacity:0.6;color:#000000;fill:#000000;fill-opacity:1;fill-rule:nonzero;stroke:none;stroke-width:1;marker:none;visibility:visible;display:inline;overflow:visible;enable-background:accumulate"
     id="rect3977-9"
     inkscape:connector-curvature="0"
     d="m 17.89831,14.489536 c -1.662,0 -3,1.338 -3,3 l 0,62 c 0,1.662 1.338,3 3,3 l 62,0 c 1.662,0 3,-1.338 3,-3 l 0,-62 c 0,-1.662 -1.338,-3 -3,-3 l -62,0 z m 0,0.96875 62,0 c 1.140081,0 2.03125,0.891169 2.03125,2.03125 l 0,62 c 0,1.140081 -0.891169,2.03125 -2.03125,2.03125 l -62,0 c -1.140081,0 -2.03125,-0.891169 -2.03125,-2.03125 l 0,-62 c 0,-1.140081 0.891169,-2.03125 2.03125,-2.03125 z" />
  <rect
     style="fill:url(#radialGradient3086);fill-opacity:1;stroke:none"
     id="rect3461-7"
     y="8.743969"
     x="9.0391903"
     ry="6.1732869"
     rx="5.8527675"
     height="78.516495"
     width="77.914963" />
  <path
     style="font-size:medium;font-style:normal;font-variant:normal;font-weight:normal;font-stretch:normal;text-indent:0;text-align:start;text-decoration:none;line-height:normal;letter-spacing:normal;word-spacing:normal;text-transform:none;direction:ltr;block-progression:tb;writing-mode:lr-tb;text-anchor:start;opacity:0.15;color:#000000;fill:#000000;fill-opacity:1;stroke:none;stroke-width:4;marker:none;visibility:visible;display:inline;overflow:visible;enable-background:accumulate;font-family:Abandoned Bitplane;-inkscape-font-specification:Abandoned Bitplane"
     id="rect3222-3-8"
     inkscape:connector-curvature="0"
     d="m 19.89831,13.489536 c -3.289406,0 -6,2.710594 -6,6 l 0,58 c 0,3.289406 2.710594,6 6,6 l 58,0 c 3.289406,0 6,-2.710594 6,-6 l 0,-58 c 0,-3.289406 -2.710594,-6 -6,-6 l -58,0 z m 0,4 58,0 c 1.142594,0 2,0.857406 2,2 l 0,58 c 0,1.142594 -0.857406,2 -2,2 l -58,0 c -1.142594,0 -2,-0.857406 -2,-2 l 0,-58 c 0,-1.142594 0.857406,-2 2,-2 z" />
  <path
     style="opacity:0.3;color:#000000;fill:#000000;fill-opacity:1;fill-rule:nonzero;stroke:none;stroke-width:1;marker:none;visibility:visible;display:inline;overflow:visible;enable-background:accumulate"
     id="rect3981-0"
     inkscape:connector-curvature="0"
     d="m 17.89831,14.489536 c -1.662,0 -3,1.338 -3,3 l 0,62 c 0,1.662 1.338,3 3,3 l 62,0 c 1.662,0 3,-1.338 3,-3 l 0,-62 c 0,-1.662 -1.338,-3 -3,-3 l -62,0 z m 0,1.9375 62,0 c 0.618163,0 1.0625,0.444337 1.0625,1.0625 l 0,62 c 0,0.618163 -0.444337,1.0625 -1.0625,1.0625 l -62,0 c -0.618163,0 -1.0625,-0.444337 -1.0625,-1.0625 l 0,-62 c 0,-0.618163 0.444337,-1.0625 1.0625,-1.0625 z" />
  <g
     style="display:none"
     id="g3095"
     transform="translate(183.27866,-177.55396)">
    <path
       style="opacity:0.9;fill:url(#linearGradient3117);fill-opacity:1;fill-rule:nonzero;stroke:none;filter:url(#filter3174-1)"
       id="path3097"
       inkscape:connector-curvature="0"
       d="M 11,7 C 7.676,7 5,9.676 5,13 l 0,33.6875 c 2.2377507,0.124029 4.660506,0.235683 5.875,0.4375 0.66093,0.10983 -0.08406,0.240848 -1.125,0.34375 C 8.7090622,47.571654 7.3545491,47.665119 6.84375,47.75 6.2216014,47.853382 5.6264179,47.903999 5,48 l 0,1.0625 c 0.3803657,0.03607 0.7183843,0.03125 0.9375,0.03125 0.80883,10e-7 1.1599727,0.215701 1.3125,0.5625 0.1525272,0.346797 0.09375,0.839723 0.09375,1.40625 0,0.424828 -0.9420178,0.663014 -1.15625,1.375 C 6.110939,52.691968 5.5510552,52.945524 5,53.1875 l 0,2.21875 c 0.7355867,0.02497 1.4332639,0.05671 1.84375,0.3125 C 7.1254716,55.894306 6.0687957,56.124098 5,56.3125 l 0,7.5625 c 1.1379643,0.180337 3.3100715,0.925679 3.96875,1.0625 1.090152,0.226446 1.224723,0.33476 0.875,0.4375 -0.3497231,0.102744 -1.173581,0.175172 -2,0.3125 C 6.8656638,65.850029 5.90816,66.141998 5,66.34375 L 5,86 c 0,3.324 2.676,6 6,6 l 13,0 c 0.0954,-0.438237 0.150955,-0.931178 0.25,-1.4375 0.140364,-0.717512 0.25498,-1.34159 0.375,-1.59375 0.03001,-0.06304 0.05815,-0.114053 0.09375,-0.125 0.106804,-0.03285 0.238198,0.191956 0.46875,0.78125 0.304338,0.777871 0.540174,1.646782 0.6875,2.375 l 0.75,0 c 0.276152,-0.493694 0.578538,-1.138496 0.8125,-1.4375 0.09907,-0.126629 0.275237,0.131501 0.53125,0.375 0.256014,0.2435 0.588904,0.486378 0.9375,0.375 0.648614,-0.207227 1.602807,-0.726227 2.03125,-1 0.139883,-0.08938 0.300164,-0.157976 0.40625,-0.1875 0.106087,-0.02952 0.174331,-0.01774 0.25,0 0.151339,0.03548 0.232196,0.144559 0.34375,0.28125 0.223098,0.27338 0.466785,0.656251 1.0625,0.65625 0.478344,0 0.657185,-0.0325 0.78125,0.0625 0.124065,0.095 0.197087,0.314551 0.40625,0.875 l 8.875,0 c -0.04778,-0.593879 1.040547,-2.151517 1.21875,-3.0625 0.19092,-0.975995 0.214078,-1.242419 0.28125,-1.0625 0.06717,0.179919 0.192504,0.793906 0.46875,1.5 0.110448,0.282298 0.213887,0.358235 0.3125,0.28125 0.09861,-0.07699 0.168895,-0.293948 0.25,-0.5625 0.162213,-0.537107 0.285649,-1.296709 0.34375,-1.59375 0.131129,-0.670335 0.128655,-1.786501 0.125,-2.28125 -9.11e-4,-0.123687 -0.0059,-0.217815 0,-0.25 0.01779,-0.09656 0.08067,0.312079 0.28125,1.59375 0.163819,1.046767 0.54767,2.687946 0.71875,3.5625 0.169798,0.867992 0.298106,1.322124 0.40625,1.875 l 28.21875,0 c 0.03877,-0.494956 0.03519,-1.098589 0.0625,-1.5 0.02049,-0.301057 0.06649,-0.487005 0.15625,-0.46875 0.02992,0.0061 0.05077,0.03882 0.09375,0.09375 0.233449,0.298339 0.630596,1.164908 0.96875,1.875 L 85,92 c 3.324,0 6,-2.676 6,-6 l 0,-7.21875 c -0.16942,0.0045 -0.290112,-4e-6 -0.5,0 -1.330307,0 -2.638456,-4e-6 -3.96875,0 -1.226564,0 -2.05394,-9.64e-4 -2.25,-0.0625 -0.19606,-0.06154 0.232972,-0.183183 1.46875,-0.5 C 86.405034,78.050819 89.092469,77.290673 91,76.875 L 91,38.46875 C 90.34725,38.202412 89.792969,37.980093 89.25,37.5625 89.107486,37.452886 88.801155,37.170028 88.28125,37 87.761349,36.829972 87.007124,36.743855 86,36.9375 c -1.533473,0.294852 -1.685602,0.283469 -1.25,0.15625 0.4356,-0.127221 1.468635,-0.381012 2.25,-0.53125 1.152717,-0.221645 2.722214,-1.204246 4,-1.84375 l 0,-4.5625 c -0.69831,-0.257978 -1.422206,-0.558272 -1.75,-1.0625 -0.209707,-0.322576 -0.321618,-0.513018 -0.3125,-0.625 0.0091,-0.111981 0.13299,-0.149124 0.25,-0.1875 0.117011,-0.03837 0.261032,-0.05449 0.375,-0.15625 0.11397,-0.101759 0.187497,-0.291619 0.1875,-0.59375 0,-0.32292 0.08246,-0.887065 0.0625,-1.40625 -0.01,-0.259593 -0.03562,-0.49724 -0.125,-0.6875 -0.08939,-0.19026 -0.219089,-0.333004 -0.4375,-0.375 -0.574572,-0.110478 -0.848143,-0.233682 -0.90625,-0.34375 -0.05811,-0.110067 0.07208,-0.18937 0.28125,-0.28125 0.418339,-0.18376 1.132532,-0.339398 1.125,-0.34375 -0.668701,-0.385725 -5.247169,-0.921226 -5,-0.96875 0.332574,-0.06395 0.667437,-0.123553 1,-0.1875 1.047644,-0.201439 2.43278,-0.309227 3.75,-0.5625 0.573261,-0.110227 0.911769,-0.250569 1.125,-0.4375 0.213229,-0.18693 0.294201,-0.423258 0.375,-0.625 L 91,13 C 91,9.676 88.324,7 85,7 L 33.625,7 C 33.72158,8.3975706 33.82658,9.959362 33.53125,9.1875 33.320827,8.6375466 33.210422,8.0499534 33,7.5 32.946762,7.3608606 32.903941,7.1705291 32.84375,7 L 30.8125,7 C 30.571803,7.4923127 30.362863,7.9708281 30.03125,8.1875 29.524321,8.5187294 29.245447,8.6821159 29,8.59375 28.754552,8.5053839 28.523162,8.1669814 28.15625,7.6875 27.992502,7.4735174 27.721718,7.2560338 27.40625,7 l -6.8125,0 -1.3125,5.5625 L 17.53125,7 17.3125,7 15.5625,15.9375 14.15625,7 11,7 z" />
  </g>
  <g
     id="g4028"
     transform="translate(-101.02325,163.26446)">
    <path
       inkscape:connector-curvature="0"
       style="fill:url(#linearGradient4033);fill-opacity:1;fill-rule:nonzero;stroke:none"
       d="m 123.5375,-145.15625 c -2.37428,0 -4.28125,1.90697 -4.28125,4.28125 l 0,23.71875 c 1.56122,0.0875 3.24643,0.17004 4.09375,0.3125 0.46112,0.0775 -0.055,0.17736 -0.78125,0.25 -0.72624,0.0726 -1.67488,0.15883 -2.03125,0.21875 -0.43406,0.073 -0.84422,0.0885 -1.28125,0.15625 l 0,0.75 c 0.26537,0.0255 0.50338,0.0312 0.65625,0.0312 0.5643,0 0.79983,0.13021 0.90625,0.375 0.10641,0.2448 0.0625,0.6001 0.0625,1 0,0.29988 -0.66304,0.46617 -0.8125,0.96875 -0.0534,0.17962 -0.42804,0.36045 -0.8125,0.53125 l 0,1.5625 c 0.5132,0.0176 0.99486,0.0695 1.28125,0.25 0.19655,0.12392 -0.53558,0.24201 -1.28125,0.375 l 0,5.375 c 0.79393,0.1273 2.32171,0.62217 2.78125,0.71875 0.76057,0.15984 0.83774,0.23997 0.59375,0.3125 -0.24399,0.0725 -0.79843,0.15306 -1.375,0.25 -0.68239,0.11473 -1.3664,0.32634 -2,0.46875 l 0,13.8125 c 0,2.37428 1.90696,4.28125 4.28125,4.28125 l 8.96875,0 c 0.0666,-0.30934 0.1184,-0.6426 0.1875,-1 0.0979,-0.50648 0.16626,-0.97825 0.25,-1.15625 0.0209,-0.0445 0.0376,-0.08605 0.0625,-0.09375 0.0745,-0.0232 0.1829,0.14653 0.34375,0.5625 0.21233,0.54909 0.36597,1.17346 0.46875,1.6875 l 0.53125,0 c 0.19266,-0.34849 0.39927,-0.78895 0.5625,-1 0.0691,-0.0894 0.19638,0.07817 0.375,0.25 0.17861,0.17188 0.41304,0.32861 0.65625,0.25 0.45252,-0.14628 1.10733,-0.49425 1.40625,-0.6875 0.0976,-0.0631 0.20723,-0.10417 0.28125,-0.125 0.074,-0.0209 0.1347,-0.0125 0.1875,0 0.10558,0.0251 0.14092,0.09101 0.21875,0.1875 0.15565,0.19297 0.33439,0.4375 0.75,0.4375 0.33373,0 0.47594,-0.0045 0.5625,0.0625 0.0865,0.0671 0.10407,0.22939 0.25,0.625 l 6.21875,0 c -0.0333,-0.41921 0.71943,-1.51321 0.84375,-2.15625 0.1332,-0.68894 0.17188,-0.877 0.21875,-0.75 0.0469,0.127 0.11977,0.56408 0.3125,1.0625 0.077,0.19927 0.14995,0.24185 0.21875,0.1875 0.0688,-0.0543 0.0997,-0.21669 0.15625,-0.40625 0.11317,-0.37914 0.20946,-0.91533 0.25,-1.125 0.0915,-0.47318 0.065,-1.24451 0.0625,-1.59375 -6.3e-4,-0.0873 -0.004,-0.16478 0,-0.1875 0.0124,-0.0681 0.0788,0.22029 0.21875,1.125 0.11429,0.7389 0.38064,1.91391 0.5,2.53125 0.11846,0.6127 0.2058,0.92223 0.28125,1.3125 l 15.375,0 0,-0.03125 14.96875,-14.96875 0.0312,0 0,-22.78125 c -0.4554,-0.188 -0.83993,-0.36148 -1.21875,-0.65625 -0.0994,-0.0774 -0.32478,-0.25498 -0.6875,-0.375 -0.36272,-0.12002 -0.85986,-0.19924 -1.5625,-0.0625 -1.06986,0.20813 -1.1789,0.21481 -0.875,0.125 0.30391,-0.0898 1.01737,-0.26895 1.5625,-0.375 0.80423,-0.15646 1.88977,-0.86109 2.78125,-1.3125 l 0,-3.21875 c -0.48719,-0.1821 -0.99005,-0.39407 -1.21875,-0.75 -0.1463,-0.2277 -0.22511,-0.35845 -0.21875,-0.4375 0.006,-0.079 0.0746,-0.0979 0.15625,-0.125 0.0816,-0.0271 0.20173,-0.0532 0.28125,-0.125 0.0795,-0.0718 0.125,-0.22423 0.125,-0.4375 0,-0.22794 0.0765,-0.60227 0.0625,-0.96875 -0.007,-0.18324 -0.0314,-0.3657 -0.0937,-0.5 -0.0624,-0.1343 -0.16012,-0.22036 -0.3125,-0.25 -0.40087,-0.078 -0.58446,-0.1723 -0.625,-0.25 -0.0405,-0.0777 0.0416,-0.15389 0.1875,-0.21875 0.29187,-0.12971 0.78651,-0.21568 0.78125,-0.21875 -0.46653,-0.27228 -3.64119,-0.65395 -3.46875,-0.6875 0.23203,-0.0451 0.45548,-0.0799 0.6875,-0.125 0.73092,-0.14219 1.67476,-0.22747 2.59375,-0.40625 0.39995,-0.0778 0.63248,-0.18055 0.78125,-0.3125 0.14876,-0.13195 0.22488,-0.29509 0.28125,-0.4375 l 0,-5.8125 c 0,-2.37429 -1.90696,-4.28125 -4.28125,-4.28125 l -35.75,0 c 0.0674,0.98653 0.14358,2.0761 -0.0625,1.53125 -0.14681,-0.3882 -0.2282,-0.7993 -0.375,-1.1875 -0.0371,-0.0982 -0.083,-0.22337 -0.125,-0.34375 l -1.40625,0 c -0.16793,0.34752 -0.29989,0.6908 -0.53125,0.84375 -0.35367,0.23381 -0.54751,0.34362 -0.71875,0.28125 -0.17125,-0.0624 -0.33776,-0.28655 -0.59375,-0.625 -0.11424,-0.15105 -0.31116,-0.31927 -0.53125,-0.5 l -4.75,0 -0.90625,3.9375 -1.21875,-3.9375 -0.15625,0 -1.21875,6.3125 -1,-6.3125 -2.09375,0 z"
       id="path3169" />
    <path
       inkscape:connector-curvature="0"
       id="path3164"
       d="m 213.32027,-40.1375 0.9375,-3.875 -0.0312,-0.0625 -0.90625,3.9375 z m -4.75,0 c -0.22009,-0.18073 -0.41701,-0.34895 -0.53125,-0.5 0.11423,0.15105 0.31117,0.31927 0.53125,0.5 z m -1.40625,-1.09375 c 0.11296,-0.0455 0.19563,-0.0624 0.28125,-0.0312 -0.0856,-0.0312 -0.16718,-0.0176 -0.28125,0.0312 z m -42.96875,-9.03125 c 0.0555,-0.13671 0.14051,-0.2814 0.28125,-0.40625 -0.14876,0.13195 -0.22488,0.26384 -0.28125,0.40625 z m 0.875,-1.9375 c -0.005,-0.003 0.48938,-0.089 0.78125,-0.21875 0.073,-0.0324 0.12255,-0.0569 0.15625,-0.0937 -0.0367,0.0255 -0.0979,0.0366 -0.15625,0.0625 -0.29187,0.12971 -0.78651,0.24693 -0.78125,0.25 z m 0.53125,-3 c 0.0281,-0.018 0.0283,-0.0543 0.0312,-0.0937 -0.003,0.0395 -0.0344,0.0735 -0.0625,0.0937 0.008,-0.004 0.0246,0.004 0.0312,0 z m 0.5,-6.125 c -0.36272,-0.12002 -0.5881,-0.2976 -0.6875,-0.375 0.0994,0.0774 0.32478,0.25498 0.6875,0.375 z m 58.09375,-6.8125 c -1.56122,-0.0875 -3.24644,-0.17004 -4.09375,-0.3125 0.84733,0.14246 2.53253,0.225 4.09375,0.3125 z m 0,-6.15625 0,-0.03125 c -0.2566,-0.0088 -0.49504,-2.2e-4 -0.71875,-0.03125 0.22037,0.03773 0.46215,0.05368 0.71875,0.0625 z m -1.5,-6.375 c -0.53528,-0.15617 -1.02023,-0.32671 -1.25,-0.375 -0.38029,-0.0799 -0.6014,-0.13842 -0.6875,-0.1875 0.0598,0.0523 0.22843,0.12884 0.65625,0.21875 0.22977,0.0483 0.74262,0.19205 1.28125,0.34375 z m -1.9375,-0.5625 c -0.043,-0.0245 -0.0456,-0.0423 -0.0312,-0.0625 -0.0316,0.0203 0.003,0.0381 0.0312,0.0625 z m -56.53125,-3.90625 14.96875,-14.96875 0,-0.0312 -4.3125,0 c -0.0271,0.34939 -0.0122,0.77915 -0.0312,1.0625 -0.0143,0.21251 -0.0624,0.32538 -0.125,0.3125 -0.0209,-0.004 -0.0325,-0.0238 -0.0625,-0.0625 -0.16287,-0.21059 -0.42032,-0.81126 -0.65625,-1.3125 l -5.53125,0 c -2.37428,0 -4.28125,1.90696 -4.28125,4.28125 l 0,5.0625 c 0.1182,-0.003 0.22856,0 0.375,0 l 2.75,0 c 0.85574,0 1.42571,-0.0123 1.5625,0.0312 0.13678,0.0434 -0.16908,0.12011 -1.03125,0.34375 -0.457,0.11854 -2.32542,0.64408 -3.65625,0.9375 l 0,4.34375 0.0312,0 z m 31.34375,-10.03125 c -0.0124,0.0681 -0.0788,-0.22029 -0.21875,-1.125 0.13995,0.90471 0.20635,1.1931 0.21875,1.125 z m 1.03125,-2.0625 c -0.0193,-0.0524 -0.059,-0.17472 -0.0937,-0.3125 0.0307,0.12516 0.0446,0.26398 0.0625,0.3125 0.006,0.0159 0.0255,-0.006 0.0312,0 z m -0.1875,-0.53125 c -0.0439,-0.15641 -0.0512,-0.34051 -0.125,-0.53125 -0.0385,-0.0996 -0.0874,-0.15539 -0.125,-0.1875 0.0365,0.0288 0.0553,0.0879 0.0937,0.1875 0.0771,0.19937 0.1115,0.36743 0.15625,0.53125 z m 14.03125,-0.125 c 0.006,-0.002 -0.005,-0.0262 0,-0.0312 -0.0186,0.006 -0.0402,0.0187 -0.0625,0 0.0232,0.0192 0.0439,0.0371 0.0625,0.0312 z m -14.5625,-0.1875 c 0.0566,-0.18956 0.0875,-0.35195 0.15625,-0.40625 -0.0688,0.0543 -0.0997,0.21669 -0.15625,0.40625 z m 14.21875,-0.375 c -0.21233,-0.54909 -0.36597,-1.17346 -0.46875,-1.6875 0.10278,0.51404 0.25642,1.13841 0.46875,1.6875 z m -4.96875,-0.84375 c -0.0607,-0.05 -0.10268,-0.0953 -0.1875,-0.125 0.0776,0.0259 0.12945,0.0824 0.1875,0.125 z m -0.1875,-0.125 c -0.0764,-0.0268 -0.17735,-0.0625 -0.28125,-0.0625 -0.33373,0 -0.47594,0.0358 -0.5625,-0.0312 0.0866,0.067 0.22877,0.0625 0.5625,0.0625 0.1039,0 0.20362,0.005 0.28125,0.0312 z"
       style="fill:#241c1c;fill-opacity:1;fill-rule:nonzero;stroke:none;filter:url(#filter3972)" />
    <path
       style="fill:url(#linearGradient4035);fill-opacity:1;fill-rule:nonzero;stroke:none"
       d="m 213.32027,-40.1375 0.9375,-3.875 -0.0312,-0.0625 -0.90625,3.9375 z m -4.75,0 c -0.22009,-0.18073 -0.41701,-0.34895 -0.53125,-0.5 0.11423,0.15105 0.31117,0.31927 0.53125,0.5 z m -1.40625,-1.09375 c 0.11296,-0.0455 0.19563,-0.0624 0.28125,-0.0312 -0.0856,-0.0312 -0.16718,-0.0176 -0.28125,0.0312 z m -42.96875,-9.03125 c 0.0555,-0.13671 0.14051,-0.2814 0.28125,-0.40625 -0.14876,0.13195 -0.22488,0.26384 -0.28125,0.40625 z m 0.875,-1.9375 c -0.005,-0.003 0.48938,-0.089 0.78125,-0.21875 0.073,-0.0324 0.12255,-0.0569 0.15625,-0.0937 -0.0367,0.0255 -0.0979,0.0366 -0.15625,0.0625 -0.29187,0.12971 -0.78651,0.24693 -0.78125,0.25 z m 0.53125,-3 c 0.0281,-0.018 0.0283,-0.0543 0.0312,-0.0937 -0.003,0.0395 -0.0344,0.0735 -0.0625,0.0937 0.008,-0.004 0.0246,0.004 0.0312,0 z m 0.5,-6.125 c -0.36272,-0.12002 -0.5881,-0.2976 -0.6875,-0.375 0.0994,0.0774 0.32478,0.25498 0.6875,0.375 z m 58.09375,-6.8125 c -1.56122,-0.0875 -3.24644,-0.17004 -4.09375,-0.3125 0.84733,0.14246 2.53253,0.225 4.09375,0.3125 z m 0,-6.15625 0,-0.03125 c -0.2566,-0.0088 -0.49504,-2.2e-4 -0.71875,-0.03125 0.22037,0.03773 0.46215,0.05368 0.71875,0.0625 z m -1.5,-6.375 c -0.53528,-0.15617 -1.02023,-0.32671 -1.25,-0.375 -0.38029,-0.0799 -0.6014,-0.13842 -0.6875,-0.1875 0.0598,0.0523 0.22843,0.12884 0.65625,0.21875 0.22977,0.0483 0.74262,0.19205 1.28125,0.34375 z m -1.9375,-0.5625 c -0.043,-0.0245 -0.0456,-0.0423 -0.0312,-0.0625 -0.0316,0.0203 0.003,0.0381 0.0312,0.0625 z m -56.53125,-3.90625 14.96875,-14.96875 0,-0.0312 -4.3125,0 c -0.0271,0.34939 -0.0122,0.77915 -0.0312,1.0625 -0.0143,0.21251 -0.0624,0.32538 -0.125,0.3125 -0.0209,-0.004 -0.0325,-0.0238 -0.0625,-0.0625 -0.16287,-0.21059 -0.42032,-0.81126 -0.65625,-1.3125 l -5.53125,0 c -2.37428,0 -4.28125,1.90696 -4.28125,4.28125 l 0,5.0625 c 0.1182,-0.003 0.22856,0 0.375,0 l 2.75,0 c 0.85574,0 1.42571,-0.0123 1.5625,0.0312 0.13678,0.0434 -0.16908,0.12011 -1.03125,0.34375 -0.457,0.11854 -2.32542,0.64408 -3.65625,0.9375 l 0,4.34375 0.0312,0 z m 31.34375,-10.03125 c -0.0124,0.0681 -0.0788,-0.22029 -0.21875,-1.125 0.13995,0.90471 0.20635,1.1931 0.21875,1.125 z m 1.03125,-2.0625 c -0.0193,-0.0524 -0.059,-0.17472 -0.0937,-0.3125 0.0307,0.12516 0.0446,0.26398 0.0625,0.3125 0.006,0.0159 0.0255,-0.006 0.0312,0 z m -0.1875,-0.53125 c -0.0439,-0.15641 -0.0512,-0.34051 -0.125,-0.53125 -0.0385,-0.0996 -0.0874,-0.15539 -0.125,-0.1875 0.0365,0.0288 0.0553,0.0879 0.0937,0.1875 0.0771,0.19937 0.1115,0.36743 0.15625,0.53125 z m 14.03125,-0.125 c 0.006,-0.002 -0.005,-0.0262 0,-0.0312 -0.0186,0.006 -0.0402,0.0187 -0.0625,0 0.0232,0.0192 0.0439,0.0371 0.0625,0.0312 z m -14.5625,-0.1875 c 0.0566,-0.18956 0.0875,-0.35195 0.15625,-0.40625 -0.0688,0.0543 -0.0997,0.21669 -0.15625,0.40625 z m 14.21875,-0.375 c -0.21233,-0.54909 -0.36597,-1.17346 -0.46875,-1.6875 0.10278,0.51404 0.25642,1.13841 0.46875,1.6875 z m -4.96875,-0.84375 c -0.0607,-0.05 -0.10268,-0.0953 -0.1875,-0.125 0.0776,0.0259 0.12945,0.0824 0.1875,0.125 z m -0.1875,-0.125 c -0.0764,-0.0268 -0.17735,-0.0625 -0.28125,-0.0625 -0.33373,0 -0.47594,0.0358 -0.5625,-0.0312 0.0866,0.067 0.22877,0.0625 0.5625,0.0625 0.1039,0 0.20362,0.005 0.28125,0.0312 z"
       id="path3186"
       inkscape:connector-curvature="0" />
  </g>
  <g
     id="g4194"
     transform="translate(40.536819,-26.394639)">
    <g
       style="display:none"
       id="layer2-8">
      <path
         style="opacity:0.9;fill:url(#linearGradient53366);fill-opacity:1;fill-rule:nonzero;stroke:none;filter:url(#filter3174-1)"
         id="rect3745-4"
         inkscape:connector-curvature="0"
         d="M 11,7 C 7.676,7 5,9.676 5,13 l 0,33.6875 c 2.2377507,0.124029 4.660506,0.235683 5.875,0.4375 0.66093,0.10983 -0.08406,0.240848 -1.125,0.34375 C 8.7090622,47.571654 7.3545491,47.665119 6.84375,47.75 6.2216014,47.853382 5.6264179,47.903999 5,48 l 0,1.0625 c 0.3803657,0.03607 0.7183843,0.03125 0.9375,0.03125 0.80883,10e-7 1.1599727,0.215701 1.3125,0.5625 0.1525272,0.346797 0.09375,0.839723 0.09375,1.40625 0,0.424828 -0.9420178,0.663014 -1.15625,1.375 C 6.110939,52.691968 5.5510552,52.945524 5,53.1875 l 0,2.21875 c 0.7355867,0.02497 1.4332639,0.05671 1.84375,0.3125 C 7.1254716,55.894306 6.0687957,56.124098 5,56.3125 l 0,7.5625 c 1.1379643,0.180337 3.3100715,0.925679 3.96875,1.0625 1.090152,0.226446 1.224723,0.33476 0.875,0.4375 -0.3497231,0.102744 -1.173581,0.175172 -2,0.3125 C 6.8656638,65.850029 5.90816,66.141998 5,66.34375 L 5,86 c 0,3.324 2.676,6 6,6 l 13,0 c 0.0954,-0.438237 0.150955,-0.931178 0.25,-1.4375 0.140364,-0.717512 0.25498,-1.34159 0.375,-1.59375 0.03001,-0.06304 0.05815,-0.114053 0.09375,-0.125 0.106804,-0.03285 0.238198,0.191956 0.46875,0.78125 0.304338,0.777871 0.540174,1.646782 0.6875,2.375 l 0.75,0 c 0.276152,-0.493694 0.578538,-1.138496 0.8125,-1.4375 0.09907,-0.126629 0.275237,0.131501 0.53125,0.375 0.256014,0.2435 0.588904,0.486378 0.9375,0.375 0.648614,-0.207227 1.602807,-0.726227 2.03125,-1 0.139883,-0.08938 0.300164,-0.157976 0.40625,-0.1875 0.106087,-0.02952 0.174331,-0.01774 0.25,0 0.151339,0.03548 0.232196,0.144559 0.34375,0.28125 0.223098,0.27338 0.466785,0.656251 1.0625,0.65625 0.478344,0 0.657185,-0.0325 0.78125,0.0625 0.124065,0.095 0.197087,0.314551 0.40625,0.875 l 8.875,0 c -0.04778,-0.593879 1.040547,-2.151517 1.21875,-3.0625 0.19092,-0.975995 0.214078,-1.242419 0.28125,-1.0625 0.06717,0.179919 0.192504,0.793906 0.46875,1.5 0.110448,0.282298 0.213887,0.358235 0.3125,0.28125 0.09861,-0.07699 0.168895,-0.293948 0.25,-0.5625 0.162213,-0.537107 0.285649,-1.296709 0.34375,-1.59375 0.131129,-0.670335 0.128655,-1.786501 0.125,-2.28125 -9.11e-4,-0.123687 -0.0059,-0.217815 0,-0.25 0.01779,-0.09656 0.08067,0.312079 0.28125,1.59375 0.163819,1.046767 0.54767,2.687946 0.71875,3.5625 0.169798,0.867992 0.298106,1.322124 0.40625,1.875 l 28.21875,0 c 0.03877,-0.494956 0.03519,-1.098589 0.0625,-1.5 0.02049,-0.301057 0.06649,-0.487005 0.15625,-0.46875 0.02992,0.0061 0.05077,0.03882 0.09375,0.09375 0.233449,0.298339 0.630596,1.164908 0.96875,1.875 L 85,92 c 3.324,0 6,-2.676 6,-6 l 0,-7.21875 c -0.16942,0.0045 -0.290112,-4e-6 -0.5,0 -1.330307,0 -2.638456,-4e-6 -3.96875,0 -1.226564,0 -2.05394,-9.64e-4 -2.25,-0.0625 -0.19606,-0.06154 0.232972,-0.183183 1.46875,-0.5 C 86.405034,78.050819 89.092469,77.290673 91,76.875 L 91,38.46875 C 90.34725,38.202412 89.792969,37.980093 89.25,37.5625 89.107486,37.452886 88.801155,37.170028 88.28125,37 87.761349,36.829972 87.007124,36.743855 86,36.9375 c -1.533473,0.294852 -1.685602,0.283469 -1.25,0.15625 0.4356,-0.127221 1.468635,-0.381012 2.25,-0.53125 1.152717,-0.221645 2.722214,-1.204246 4,-1.84375 l 0,-4.5625 c -0.69831,-0.257978 -1.422206,-0.558272 -1.75,-1.0625 -0.209707,-0.322576 -0.321618,-0.513018 -0.3125,-0.625 0.0091,-0.111981 0.13299,-0.149124 0.25,-0.1875 0.117011,-0.03837 0.261032,-0.05449 0.375,-0.15625 0.11397,-0.101759 0.187497,-0.291619 0.1875,-0.59375 0,-0.32292 0.08246,-0.887065 0.0625,-1.40625 -0.01,-0.259593 -0.03562,-0.49724 -0.125,-0.6875 -0.08939,-0.19026 -0.219089,-0.333004 -0.4375,-0.375 -0.574572,-0.110478 -0.848143,-0.233682 -0.90625,-0.34375 -0.05811,-0.110067 0.07208,-0.18937 0.28125,-0.28125 0.418339,-0.18376 1.132532,-0.339398 1.125,-0.34375 -0.668701,-0.385725 -5.247169,-0.921226 -5,-0.96875 0.332574,-0.06395 0.667437,-0.123553 1,-0.1875 1.047644,-0.201439 2.43278,-0.309227 3.75,-0.5625 0.573261,-0.110227 0.911769,-0.250569 1.125,-0.4375 0.213229,-0.18693 0.294201,-0.423258 0.375,-0.625 L 91,13 C 91,9.676 88.324,7 85,7 L 33.625,7 C 33.72158,8.3975706 33.82658,9.959362 33.53125,9.1875 33.320827,8.6375466 33.210422,8.0499534 33,7.5 32.946762,7.3608606 32.903941,7.1705291 32.84375,7 L 30.8125,7 C 30.571803,7.4923127 30.362863,7.9708281 30.03125,8.1875 29.524321,8.5187294 29.245447,8.6821159 29,8.59375 28.754552,8.5053839 28.523162,8.1669814 28.15625,7.6875 27.992502,7.4735174 27.721718,7.2560338 27.40625,7 l -6.8125,0 -1.3125,5.5625 L 17.53125,7 17.3125,7 15.5625,15.9375 14.15625,7 11,7 z" />
    </g>
    <g
       style="display:inline"
       id="layer1-8"
       transform="translate(3.7880724,-5.0507627)">
      <g
         id="layer1-1"
         transform="matrix(0.04596153,0.0080266,-0.0080266,0.04596153,-5.6619989,52.283013)"
         style="fill:#000000">
        <g
           id="g4871"
           transform="translate(0,3.9398272)"
           style="fill:#000000">
          <g
             id="g2534"
             transform="matrix(1.4601113,0,0,1.4601113,-321.54125,-136.8706)"
             style="fill:#000000">
            <path
               style="fill:#000000;fill-opacity:1;fill-rule:evenodd;stroke:none"
               id="path2391"
               d="M 638.07784,91.915185 C 593.39565,117.01765 268.30931,618.55614 341.01864,583.46156 c 71.1781,-29.05973 115.27433,8.33231 118.55727,3.99631 9.16819,-12.10906 170.50931,-313.04443 178.50193,-495.542685 z"
               inkscape:connector-curvature="0" />
            <path
               style="fill:#000000;fill-opacity:1;fill-rule:evenodd;stroke:none"
               id="path2387"
               d="M 635.77167,93.247285 C 626.24085,82.33677 316.36642,588.09267 319.70497,583.46157 305.05183,575.46894 293.42094,563.48001 312.07039,522.18479 330.71985,480.88957 565.17016,109.23252 635.77167,93.247285 z"
               inkscape:connector-curvature="0" />
            <path
               style="fill:#000000;fill-opacity:1;fill-rule:evenodd;stroke:none"
               id="path2385"
               d="m 221.12928,809.91925 c 2.66421,-98.57543 337.02232,-654.34591 415.61646,-718.004065 0,0 -251.76766,342.350735 -375.65334,667.384115 -31.10916,4.60876 -25.01602,33.33415 -37.06121,50.27702 l -2.90191,0.34293 z"
               inkscape:connector-curvature="0" />
            <path
               style="opacity:0.86324786;fill:#000000;fill-opacity:1;fill-rule:evenodd;stroke:none"
               id="path2651"
               d="M 270.18931,677.30348 C 366.60299,477.65243 576.59053,140.63854 636.74574,91.915185 c 0,0 -242.36234,329.561485 -368.51138,648.981225 l 1.95495,-63.59293 z"
               inkscape:connector-curvature="0" />
          </g>
        </g>
      </g>
    </g>
  </g>
  <path
     style="opacity:0.07999998;fill:#d9c6ed;fill-opacity:1;stroke:none"
     id="rect3256-3"
     inkscape:connector-curvature="0"
     d="m 14.89831,8.7395363 c -3.242433,0 -5.8437503,2.7674997 -5.8437503,6.1874997 l 0,49.0625 C 27.878614,50.130638 54.866224,40.195879 86.96081,42.208286 l 0,-27.28125 c 0,-3.420001 -2.63257,-6.1874997 -5.875,-6.1874997 l -66.1875,0 z" />
  <g
     id="layer1"
     style="display:inline">
    <path
       d="M 12,6 C 8.676,6 6,8.676 6,12 l 0,72 c 0,3.324 2.676,6 6,6 l 72,0 c 3.324,0 6,-2.676 6,-6 L 90,12 C 90,8.676 87.324,6 84,6 L 12,6 z m 5,7 62,0 c 2.216001,0 4,1.784 4,4 l 0,62 c 10e-7,2.216001 -1.784,4 -4,4 l -62,0 c -2.215999,10e-7 -4,-1.784 -4,-4 l 0,-62 c 0,-2.215999 1.784,-4 4,-4 z"
       inkscape:connector-curvature="0"
       id="rect2419"
       style="fill:url(#linearGradient53370);fill-opacity:1;fill-rule:nonzero;stroke:none" />
    <path
       d="M 12,6 C 8.676,6 6,8.676 6,12 l 0,2 0,68 0,2 c 0,0.334721 0.04135,0.6507 0.09375,0.96875 0.0487,0.295596 0.09704,0.596915 0.1875,0.875 0.00988,0.03038 0.020892,0.0636 0.03125,0.09375 0.098865,0.287771 0.2348802,0.547452 0.375,0.8125 0.1445918,0.273507 0.3156161,0.535615 0.5,0.78125 0.1843839,0.245635 0.3737765,0.473472 0.59375,0.6875 0.439947,0.428056 0.94291,0.814526 1.5,1.09375 0.278545,0.139612 0.5734731,0.246947 0.875,0.34375 -0.2562018,-0.100222 -0.4867109,-0.236272 -0.71875,-0.375 -0.00741,-0.0044 -0.023866,0.0045 -0.03125,0 -0.031933,-0.0193 -0.062293,-0.04251 -0.09375,-0.0625 -0.120395,-0.0767 -0.2310226,-0.163513 -0.34375,-0.25 -0.1061728,-0.0808 -0.2132809,-0.161112 -0.3125,-0.25 C 8.4783201,88.557317 8.3087904,88.373362 8.15625,88.1875 8.0486711,88.057245 7.9378561,87.922215 7.84375,87.78125 7.818661,87.74287 7.805304,87.69538 7.78125,87.65625 7.716487,87.553218 7.6510225,87.451733 7.59375,87.34375 7.4927417,87.149044 7.3880752,86.928049 7.3125,86.71875 7.30454,86.69694 7.288911,86.6782 7.28125,86.65625 7.2494249,86.5643 7.2454455,86.469419 7.21875,86.375 7.1884177,86.268382 7.1483606,86.171969 7.125,86.0625 7.0521214,85.720988 7,85.364295 7,85 L 7,83 7,15 7,13 C 7,10.218152 9.2181517,8 12,8 l 2,0 68,0 2,0 c 2.781848,0 5,2.218152 5,5 l 0,2 0,68 0,2 c 0,0.364295 -0.05212,0.720988 -0.125,1.0625 -0.04415,0.206893 -0.08838,0.397658 -0.15625,0.59375 -0.0077,0.02195 -0.0233,0.04069 -0.03125,0.0625 -0.06274,0.173739 -0.138383,0.367449 -0.21875,0.53125 -0.04158,0.0828 -0.07904,0.169954 -0.125,0.25 -0.0546,0.09721 -0.126774,0.18835 -0.1875,0.28125 -0.09411,0.140965 -0.204921,0.275995 -0.3125,0.40625 -0.143174,0.17445 -0.303141,0.346998 -0.46875,0.5 -0.01117,0.0102 -0.01998,0.02115 -0.03125,0.03125 -0.138386,0.125556 -0.285091,0.234436 -0.4375,0.34375 -0.102571,0.07315 -0.204318,0.153364 -0.3125,0.21875 -0.0074,0.0045 -0.02384,-0.0044 -0.03125,0 -0.232039,0.138728 -0.462548,0.274778 -0.71875,0.375 0.301527,-0.0968 0.596455,-0.204138 0.875,-0.34375 0.55709,-0.279224 1.060053,-0.665694 1.5,-1.09375 0.219973,-0.214028 0.409366,-0.441865 0.59375,-0.6875 0.184384,-0.245635 0.355408,-0.507743 0.5,-0.78125 0.14012,-0.265048 0.276135,-0.524729 0.375,-0.8125 0.01041,-0.03078 0.02133,-0.06274 0.03125,-0.09375 0.09046,-0.278085 0.1388,-0.579404 0.1875,-0.875 C 89.95865,84.6507 90,84.334721 90,84 l 0,-2 0,-68 0,-2 C 90,8.676 87.324,6 84,6 L 12,6 z"
       inkscape:connector-curvature="0"
       id="rect3728"
       style="opacity:0.5;fill:url(#linearGradient53372);fill-opacity:1;fill-rule:nonzero;stroke:none" />
    <path
       d="m 17,12 c -2.752703,0 -5,2.247297 -5,5 l 0,62 c 0,2.752703 2.247298,5 5,5 l 62,0 c 2.752703,0 5.000001,-2.247297 5,-5 l 0,-62 c 0,-2.752703 -2.247297,-5 -5,-5 l -62,0 z m 0,2 62,0 c 1.679298,0 3,1.320703 3,3 l 0,62 c 10e-7,1.679297 -1.320703,3 -3,3 l -62,0 c -1.679296,0 -3,-1.320703 -3,-3 l 0,-62 c 0,-1.679297 1.320703,-3 3,-3 z"
       inkscape:connector-curvature="0"
       id="rect3425"
       style="fill:url(#linearGradient53374);fill-opacity:1;fill-rule:nonzero;stroke:none" />
    <path
       d="M 12,90 C 8.676,90 6,87.324 6,84 L 6,82 6,14 6,12 c 0,-0.334721 0.04135,-0.6507 0.09375,-0.96875 0.0487,-0.295596 0.09704,-0.596915 0.1875,-0.875 C 6.29113,10.12587 6.302142,10.09265 6.3125,10.0625 6.411365,9.774729 6.5473802,9.515048 6.6875,9.25 6.8320918,8.976493 7.0031161,8.714385 7.1875,8.46875 7.3718839,8.223115 7.5612765,7.995278 7.78125,7.78125 8.221197,7.353194 8.72416,6.966724 9.28125,6.6875 9.559795,6.547888 9.8547231,6.440553 10.15625,6.34375 9.9000482,6.443972 9.6695391,6.580022 9.4375,6.71875 c -0.00741,0.0044 -0.023866,-0.0045 -0.03125,0 -0.031933,0.0193 -0.062293,0.04251 -0.09375,0.0625 -0.120395,0.0767 -0.2310226,0.163513 -0.34375,0.25 -0.1061728,0.0808 -0.2132809,0.161112 -0.3125,0.25 C 8.4783201,7.442683 8.3087904,7.626638 8.15625,7.8125 8.0486711,7.942755 7.9378561,8.077785 7.84375,8.21875 7.818661,8.25713 7.805304,8.30462 7.78125,8.34375 7.716487,8.446782 7.6510225,8.548267 7.59375,8.65625 7.4927417,8.850956 7.3880752,9.071951 7.3125,9.28125 7.30454,9.30306 7.288911,9.3218 7.28125,9.34375 7.2494249,9.4357 7.2454455,9.530581 7.21875,9.625 7.1884177,9.731618 7.1483606,9.828031 7.125,9.9375 7.0521214,10.279012 7,10.635705 7,11 l 0,2 0,68 0,2 c 0,2.781848 2.2181517,5 5,5 l 2,0 68,0 2,0 c 2.781848,0 5,-2.218152 5,-5 l 0,-2 0,-68 0,-2 C 89,10.635705 88.94788,10.279012 88.875,9.9375 88.83085,9.730607 88.78662,9.539842 88.71875,9.34375 88.71105,9.3218 88.69545,9.30306 88.6875,9.28125 88.62476,9.107511 88.549117,8.913801 88.46875,8.75 88.42717,8.6672 88.38971,8.580046 88.34375,8.5 88.28915,8.40279 88.216976,8.31165 88.15625,8.21875 88.06214,8.077785 87.951329,7.942755 87.84375,7.8125 87.700576,7.63805 87.540609,7.465502 87.375,7.3125 87.36383,7.3023 87.35502,7.29135 87.34375,7.28125 87.205364,7.155694 87.058659,7.046814 86.90625,6.9375 86.803679,6.86435 86.701932,6.784136 86.59375,6.71875 c -0.0074,-0.0045 -0.02384,0.0044 -0.03125,0 -0.232039,-0.138728 -0.462548,-0.274778 -0.71875,-0.375 0.301527,0.0968 0.596455,0.204138 0.875,0.34375 0.55709,0.279224 1.060053,0.665694 1.5,1.09375 0.219973,0.214028 0.409366,0.441865 0.59375,0.6875 0.184384,0.245635 0.355408,0.507743 0.5,0.78125 0.14012,0.265048 0.276135,0.524729 0.375,0.8125 0.01041,0.03078 0.02133,0.06274 0.03125,0.09375 0.09046,0.278085 0.1388,0.579404 0.1875,0.875 C 89.95865,11.3493 90,11.665279 90,12 l 0,2 0,68 0,2 c 0,3.324 -2.676,6 -6,6 l -72,0 z"
       inkscape:connector-curvature="0"
       id="path3615"
       style="opacity:0.4;fill:url(#radialGradient53376);fill-opacity:1;fill-rule:nonzero;stroke:none" />
    <rect
       width="66"
       height="66"
       rx="12"
       ry="12"
       x="15"
       y="15"
       clip-path="url(#clipPath3613-5)"
       id="rect3171"
       style="opacity:0.1;fill:url(#linearGradient53378);fill-opacity:1;fill-rule:nonzero;stroke:#ffffff;stroke-width:0.5;stroke-linecap:round;stroke-linejoin:miter;stroke-miterlimit:4;stroke-opacity:1;stroke-dasharray:none;stroke-dashoffset:0;filter:url(#filter3794-2)" />
  </g>
</svg>
