<?xml version="1.0" encoding="UTF-8" standalone="no"?>
<!-- Created with Inkscape (http://www.inkscape.org/) -->

<svg
   xmlns:dc="http://purl.org/dc/elements/1.1/"
   xmlns:cc="http://creativecommons.org/ns#"
   xmlns:rdf="http://www.w3.org/1999/02/22-rdf-syntax-ns#"
   xmlns:svg="http://www.w3.org/2000/svg"
   xmlns="http://www.w3.org/2000/svg"
   xmlns:xlink="http://www.w3.org/1999/xlink"
   xmlns:sodipodi="http://sodipodi.sourceforge.net/DTD/sodipodi-0.dtd"
   xmlns:inkscape="http://www.inkscape.org/namespaces/inkscape"
   version="1.0"
   width="96"
   height="96"
   id="svg2408"
   inkscape:version="0.48.3.1 r9886"
   sodipodi:docname="azoth.svg"
   inkscape:export-filename="/home/buckstabu/Dropbox/Public/lcicons/lcproto2.png"
   inkscape:export-xdpi="90"
   inkscape:export-ydpi="90">
  <sodipodi:namedview
     pagecolor="#ffffff"
     bordercolor="#666666"
     borderopacity="1"
     objecttolerance="10"
     gridtolerance="10"
     guidetolerance="10"
     inkscape:pageopacity="0"
     inkscape:pageshadow="2"
     inkscape:window-width="1366"
     inkscape:window-height="719"
     id="namedview68"
     showgrid="false"
     inkscape:zoom="1.6666667"
     inkscape:cx="-113.02605"
     inkscape:cy="162.46684"
     inkscape:window-x="0"
     inkscape:window-y="29"
     inkscape:window-maximized="1"
     inkscape:current-layer="svg2408" />
  <defs
     id="defs2410">
    <linearGradient
       id="linearGradient4017">
      <stop
         style="stop-color:#ff6600;stop-opacity:1;"
         offset="0"
         id="stop4019" />
      <stop
         style="stop-color:#ff1e00;stop-opacity:1;"
         offset="1"
         id="stop4021" />
    </linearGradient>
    <linearGradient
       x1="45.447727"
       y1="92.539597"
       x2="45.447727"
       y2="7.0165396"
       id="ButtonShadow"
       gradientUnits="userSpaceOnUse"
       gradientTransform="scale(1.0058652,0.994169)">
      <stop
         id="stop3750"
         style="stop-color:#000000;stop-opacity:1"
         offset="0" />
      <stop
         id="stop3752"
         style="stop-color:#000000;stop-opacity:0.58823532"
         offset="1" />
    </linearGradient>
    <filter
       color-interpolation-filters="sRGB"
       id="filter3174">
      <feGaussianBlur
         id="feGaussianBlur3176"
         stdDeviation="1.71" />
    </filter>
    <linearGradient
       id="linearGradient3224-6">
      <stop
         id="stop3226-2"
         style="stop-color:#42394b;stop-opacity:1"
         offset="0" />
      <stop
         id="stop3228-1"
         style="stop-color:#000000;stop-opacity:1"
         offset="1" />
    </linearGradient>
    <linearGradient
       id="linearGradient3187-5">
      <stop
         id="stop3189-3"
         style="stop-color:#b4b4b4;stop-opacity:1"
         offset="0" />
      <stop
         id="stop3191-2"
         style="stop-color:#e6e6e6;stop-opacity:1"
         offset="1" />
    </linearGradient>
    <linearGradient
       id="linearGradient3737-9">
      <stop
         id="stop3739-7"
         style="stop-color:#ffffff;stop-opacity:1"
         offset="0" />
      <stop
         id="stop3741-6"
         style="stop-color:#ffffff;stop-opacity:0"
         offset="1" />
    </linearGradient>
    <linearGradient
       id="linearGradient3465-2">
      <stop
         id="stop3467-0"
         style="stop-color:#919191;stop-opacity:1"
         offset="0" />
      <stop
         id="stop3469-6"
         style="stop-color:#fdfdfd;stop-opacity:1"
         offset="1" />
    </linearGradient>
    <linearGradient
       id="linearGradient3737-7-3">
      <stop
         id="stop3739-2-3"
         style="stop-color:#ffffff;stop-opacity:1"
         offset="0" />
      <stop
         id="stop3741-7-6"
         style="stop-color:#ffffff;stop-opacity:0"
         offset="1" />
    </linearGradient>
    <linearGradient
       id="linearGradient3737-4-0">
      <stop
         id="stop3739-8-4"
         style="stop-color:#ffffff;stop-opacity:1"
         offset="0" />
      <stop
         id="stop3741-71-8"
         style="stop-color:#ffffff;stop-opacity:0"
         offset="1" />
    </linearGradient>
    <clipPath
       id="clipPath3613-5">
      <rect
         width="84"
         height="84"
         rx="6"
         ry="6"
         x="6"
         y="6"
         id="rect3615-1"
         style="fill:#ffffff;fill-opacity:1;fill-rule:nonzero;stroke:none" />
    </clipPath>
    <filter
       x="-0.192"
       y="-0.192"
       width="1.3839999"
       height="1.3839999"
       color-interpolation-filters="sRGB"
       id="filter3794-2">
      <feGaussianBlur
         id="feGaussianBlur3796-9"
         stdDeviation="5.28" />
    </filter>
    <linearGradient
       inkscape:collect="always"
       xlink:href="#linearGradient3187-5"
       id="linearGradient4094"
       gradientUnits="userSpaceOnUse"
       x1="48"
       y1="90"
       x2="48"
       y2="5.9877172" />
    <linearGradient
       inkscape:collect="always"
       xlink:href="#linearGradient3737-9"
       id="linearGradient4096"
       gradientUnits="userSpaceOnUse"
       x1="36.357143"
       y1="6"
       x2="36.357143"
       y2="63.893143" />
    <linearGradient
       inkscape:collect="always"
       xlink:href="#linearGradient3465-2"
       id="linearGradient4098"
       gradientUnits="userSpaceOnUse"
       gradientTransform="matrix(1.0294118,0,0,1.0294118,-1.4117647,-1.411765)"
       x1="43.17857"
       y1="13"
       x2="43.17857"
       y2="83.294571" />
    <radialGradient
       inkscape:collect="always"
       xlink:href="#linearGradient3737-7-3"
       id="radialGradient4100"
       gradientUnits="userSpaceOnUse"
       gradientTransform="matrix(1.1573129,0,0,0.99590774,-7.551021,0.1971319)"
       cx="48"
       cy="90.171875"
       fx="48"
       fy="90.171875"
       r="42" />
    <linearGradient
       inkscape:collect="always"
       xlink:href="#linearGradient3737-4-0"
       id="linearGradient4102"
       gradientUnits="userSpaceOnUse"
       x1="48"
       y1="20.220806"
       x2="48"
       y2="138.66119" />
    <radialGradient
       inkscape:collect="always"
       xlink:href="#linearGradient3224-6"
       id="radialGradient4113"
       gradientUnits="userSpaceOnUse"
       gradientTransform="matrix(1.3830053,-1.0350102e-8,0,1.3123934,-17.140614,-23.729195)"
       cx="47.098362"
       cy="78.286942"
       fx="47.098362"
       fy="78.286942"
       r="38.957481" />
    <filter
       id="filter3174-0"
       color-interpolation-filters="sRGB">
      <feGaussianBlur
         stdDeviation="1.71"
         id="feGaussianBlur3176-0" />
    </filter>
    <linearGradient
       gradientTransform="scale(1.0058652,0.994169)"
       gradientUnits="userSpaceOnUse"
       id="ButtonShadow-83"
       y2="7.0165396"
       x2="45.447727"
       y1="92.539597"
       x1="45.447727">
      <stop
         offset="0"
         style="stop-color:#000000;stop-opacity:1"
         id="stop3750-64" />
      <stop
         offset="1"
         style="stop-color:#000000;stop-opacity:0.58823532"
         id="stop3752-71" />
    </linearGradient>
    <linearGradient
       inkscape:collect="always"
       xlink:href="#linearGradient4017"
       id="linearGradient10943"
       gradientUnits="userSpaceOnUse"
       gradientTransform="matrix(0.57142857,0,0,0.57142857,20.57143,20.571429)"
       x1="32.775002"
       y1="3.8999999"
       x2="31.725"
       y2="120.43772" />
  </defs>
  <metadata
     id="metadata2413">
    <rdf:RDF>
      <cc:Work
         rdf:about="">
        <dc:format>image/svg+xml</dc:format>
        <dc:type
           rdf:resource="http://purl.org/dc/dcmitype/StillImage" />
        <dc:title></dc:title>
      </cc:Work>
    </rdf:RDF>
  </metadata>
  <path
     style="opacity:0.6;color:#000000;fill:#000000;fill-opacity:1;fill-rule:nonzero;stroke:none;stroke-width:1;marker:none;visibility:visible;display:inline;overflow:visible;enable-background:accumulate"
     id="rect3977-9"
     inkscape:connector-curvature="0"
     d="m 17.89831,14.489536 c -1.662,0 -3,1.338 -3,3 l 0,62 c 0,1.662 1.338,3 3,3 l 62,0 c 1.662,0 3,-1.338 3,-3 l 0,-62 c 0,-1.662 -1.338,-3 -3,-3 l -62,0 z m 0,0.96875 62,0 c 1.140081,0 2.03125,0.891169 2.03125,2.03125 l 0,62 c 0,1.140081 -0.891169,2.03125 -2.03125,2.03125 l -62,0 c -1.140081,0 -2.03125,-0.891169 -2.03125,-2.03125 l 0,-62 c 0,-1.140081 0.891169,-2.03125 2.03125,-2.03125 z" />
  <g
     id="layer2"
     style="display:none">
    <rect
       width="86"
       height="85"
       rx="6"
       ry="6"
       x="5"
       y="7"
       id="rect3745"
       style="opacity:0.9;fill:url(#ButtonShadow);fill-opacity:1;fill-rule:nonzero;stroke:none;filter:url(#filter3174)" />
  </g>
  <rect
     style="fill:url(#radialGradient4113);fill-opacity:1;stroke:none"
     id="rect3461-7"
     y="8.743969"
     x="9.0391903"
     ry="6.1732869"
     rx="5.8527675"
     height="78.516495"
     width="77.914963" />
  <path
     style="font-size:medium;font-style:normal;font-variant:normal;font-weight:normal;font-stretch:normal;text-indent:0;text-align:start;text-decoration:none;line-height:normal;letter-spacing:normal;word-spacing:normal;text-transform:none;direction:ltr;block-progression:tb;writing-mode:lr-tb;text-anchor:start;opacity:0.15;color:#000000;fill:#000000;fill-opacity:1;stroke:none;stroke-width:4;marker:none;visibility:visible;display:inline;overflow:visible;enable-background:accumulate;font-family:Abandoned Bitplane;-inkscape-font-specification:Abandoned Bitplane"
     id="rect3222-3-8"
     inkscape:connector-curvature="0"
     d="m 19.89831,13.489536 c -3.289406,0 -6,2.710594 -6,6 l 0,58 c 0,3.289406 2.710594,6 6,6 l 58,0 c 3.289406,0 6,-2.710594 6,-6 l 0,-58 c 0,-3.289406 -2.710594,-6 -6,-6 l -58,0 z m 0,4 58,0 c 1.142594,0 2,0.857406 2,2 l 0,58 c 0,1.142594 -0.857406,2 -2,2 l -58,0 c -1.142594,0 -2,-0.857406 -2,-2 l 0,-58 c 0,-1.142594 0.857406,-2 2,-2 z" />
  <path
     style="opacity:0.3;color:#000000;fill:#000000;fill-opacity:1;fill-rule:nonzero;stroke:none;stroke-width:1;marker:none;visibility:visible;display:inline;overflow:visible;enable-background:accumulate"
     id="rect3981-0"
     inkscape:connector-curvature="0"
     d="m 17.89831,14.489536 c -1.662,0 -3,1.338 -3,3 l 0,62 c 0,1.662 1.338,3 3,3 l 62,0 c 1.662,0 3,-1.338 3,-3 l 0,-62 c 0,-1.662 -1.338,-3 -3,-3 l -62,0 z m 0,1.9375 62,0 c 0.618163,0 1.0625,0.444337 1.0625,1.0625 l 0,62 c 0,0.618163 -0.444337,1.0625 -1.0625,1.0625 l -62,0 c -0.618163,0 -1.0625,-0.444337 -1.0625,-1.0625 l 0,-62 c 0,-0.618163 0.444337,-1.0625 1.0625,-1.0625 z" />
  <g
     id="g10922"
     transform="translate(124.4,-16.999999)">
    <g
       style="display:none"
       id="layer2-5">
      <rect
         style="opacity:0.9;fill:url(#ButtonShadow-83);fill-opacity:1;fill-rule:nonzero;stroke:none;filter:url(#filter3174-0)"
         id="rect3745-2"
         y="7"
         x="5"
         ry="6"
         rx="6"
         height="85"
         width="86" />
    </g>
    <g
       id="g10939"
       transform="matrix(1.2244898,0,0,1.2244898,-135.17551,6.2244888)">
      <path
         d="M 27.42857,24 C 25.52914,24 24,25.529142 24,27.428572 l 0,32 c 0,1.899429 1.52914,3.428571 3.42857,3.428571 l 6.85714,0 L 32.57143,72 l 13.14286,-9.142857 22.85714,0 C 70.47086,62.857142 72,61.328001 72,59.428572 l 0,-32 c 0,-1.899429 -1.52914,-3.428571 -3.42857,-3.428571 l -41.14286,0 z"
         inkscape:connector-curvature="0"
         id="path3984"
         style="fill:url(#linearGradient10943);fill-opacity:1;fill-rule:nonzero;stroke:#000000;stroke-opacity:1" />
    </g>
    <g
       transform="matrix(0.05851871,0,0,0.05851871,-96.909857,17.769309)"
       id="layer1-0"
       inkscape:label="Capa 1">
      <path
         inkscape:connector-curvature="0"
         id="path2998"
         d="m 368.92859,1045.3475 c -2.75,-0.4322 -9.95,-1.4976 -16,-2.3676 -16.1935,-2.3288 -35.1161,-5.955 -60.0916,-11.5156 -6.9925,-1.5569 -22.5188,-7.1189 -31.40841,-11.2515 -4.675,-2.1733 -13.9,-5.9445 -20.5,-8.3805 -18.0163,-6.6495 -21.9628,-8.2131 -34.5,-13.66883 -14.4363,-6.2821 -32.2045,-15.15255 -42.1214,-21.02815 -11.8529,-7.0227 -32.9599,-21.9596 -40.4185,-28.6032 -2.222,-1.9792 -6.6676,-5.832 -9.8791,-8.5618 -8.7465,-7.4344 -26.897899,-28.4796 -39.152399,-45.3941 -3.443896,-4.7534 -7.119396,-9.7676 -8.167796,-11.1426 -1.0485,-1.375 -4.3894,-6.55 -7.4243,-11.5 -19.36694,-31.5882 -30.25011,-59.3241 -36.88413,-94.00002 -1.69982,-8.88491 -1.76686,-43.67491 -0.10791,-56 0.66627,-4.95 1.69383,-12.6 2.28346,-17 3.43147,-25.60642 7.25018,-42.08478 20.2773,-87.5 0.86771,-3.025 3.63812,-13.825 6.15647,-24 2.51831,-10.175 6.15751,-23.225 8.08701,-29 3.7622,-11.26054 15.679396,-36.59939 22.301596,-47.41879 2.2273,-3.63904 4.0497,-6.82555 4.0497,-7.08113 0,-0.98867 15.546799,-24.33304 20.312399,-30.50007 14.8398,-19.20407 47.7361,-47.32059 76.1876,-65.1178 24.3221,-15.21415 45.923,-22.3457 132.50001,-43.74493 4.675,-1.15552 13.675,-3.46682 20,-5.13622 9.8004,-2.5867 12.6084,-2.94618 19,-2.43239 8.7482,0.70322 30.9907,4.68951 32.961,5.90726 0.4551,0.28125 5.4875,1.46167 11.1832,2.62316 5.6957,1.16148 12.2453,2.49646 14.5547,2.96661 11.2579,2.2919 45.1476,10.62477 57.3011,14.08931 25.8017,7.3552 57.3709,20.64773 77.5,32.63218 15.37649,9.15486 32.31329,24.17987 46.99739,41.69244 16.3808,19.53614 22.5676,28.31282 32.0845,45.51589 4.3417,7.84808 7.9924,12.76685 14.4728,19.5 4.7666,4.95246 9.2163,10.05659 9.8882,11.34249 0.6719,1.28591 1.635,8.16699 2.1401,15.29128 0.9956,14.04168 1.3036,14.96298 9.5815,28.66163 6.0235,9.96798 11.9177,27.90372 16.5001,50.20908 2.0876,10.16138 1.6084,40.20516 -0.9569,60 -2.2277,17.18945 -3.7047,32.19716 -4.6747,47.5 -1.1429,18.02821 -4.2108,52.96541 -5.6201,64 -3.4468,26.98872 -10.8579,54.43962 -19.1561,70.95422 -2.5517,5.0783 -16.1787,25.8389 -29.3808,44.7612 -15.8121,22.6631 -17.2601,24.536 -27.3475,35.3711 -4.1407,4.4475 -10.9035,12.1183 -15.0285,17.0461 -10.8888,13.0079 -19.5182,19.47495 -42.19889,31.62448 -3.6844,1.9736 -12.0094,6.7613 -18.5,10.6392 -14.992,8.9573 -33.3019,15.2718 -59.7183,20.5949 -5.9219,1.1933 -8.766,2.3406 -11.2848,4.5521 -1.8522,1.6262 -3.4644,2.9574 -3.5828,2.9582 -0.1184,7e-4 -4.0402,0.6815 -8.7152,1.5129 -9.1994,1.6359 -53.8456,1.9168 -63.5,0.3995 z m 53.5,-12.4112 c 4.675,-0.8044 10.4967,-1.9427 12.937,-2.5296 2.4404,-0.5869 5.3654,-0.9809 6.5,-0.8756 1.1347,0.1053 3.863,-0.6034 6.063,-1.5749 2.2,-0.9716 9.625,-3.4667 16.5,-5.5448 29.7896,-9.0044 41.3017,-14.6569 76,-37.31628 48.53289,-31.6938 56.28019,-40.0244 86.63829,-93.1615 6.5987,-11.55 13.1744,-23.5362 14.6128,-26.636 4.404,-9.4915 7.7489,-21.9161 7.7489,-28.7835 0,-5.2198 0.6931,-7.8556 3.9922,-15.1824 5.3162,-11.8066 5.7729,-14.31612 6.5327,-35.89812 0.6954,-19.75121 1.4768,-27.00442 6.6252,-61.5 3.1038,-20.79581 3.2845,-23.53261 3.3005,-50 0.022,-35.94646 -1.3392,-43.13513 -12.9684,-68.5 -4.6653,-10.17545 -8.3481,-20.34663 -15.5698,-43 -3.5609,-11.17004 -6.9471,-19.26167 -10.8806,-26 -2.0869,-3.575 -6.8241,-12.575 -10.527,-20 -16.4607,-33.00613 -40.0794,-58.44255 -77.46489,-83.42653 -12.5209,-8.36751 -22.913,-14.01625 -35.0905,-19.07384 -10.9662,-4.55453 -64.0835,-22.06096 -70.9494,-23.38357 -3.575,-0.68866 -8.5085,-1.70216 -10.9634,-2.25221 -5.3583,-1.20061 -14.9779,-2.3341 -37.0366,-4.36409 -9.075,-0.83514 -20.4805,-2.05639 -25.3456,-2.71389 -8.0949,-1.09399 -8.9281,-1.04818 -9.8167,0.53964 -0.8788,1.5704 -2.3173,1.67192 -15.1543,1.0695 -25.0016,-1.17327 -64.6581,3.54868 -85.95681,10.23499 -24.3977,7.65914 -63.6366,25.72149 -78.6946,36.22454 -18.3893,12.82657 -38.5075,31.9444 -48.5602,46.14547 -13.8349,19.54401 -26.939399,41.98807 -39.411299,67.49999 -12.0836,24.71772 -18.307396,43.72175 -24.562196,75 -3.2573,16.28839 -6.9403,34.07118 -8.4917,41 -4.04805,18.07953 -7.18918,35.12777 -13.54236,73.5 -0.86509,5.225 -2.043,12.2 -2.61759,15.5 -2.09842,12.0517 0.25444,30.1832 6.81274,52.5 11.97121,40.73602 25.67461,68.55592 44.835906,91.02322 1.6526,1.9377 4.8047,5.7053 7.0047,8.3725 5.442399,6.5979 20.053199,19.3491 55.250699,48.2185 23.0207,18.8819 47.227,34.6222 65.296,42.4591 22.7088,9.84948 82.35151,29.12378 107.95331,34.88658 5.225,1.1762 11.075,2.5451 13,3.042 5.8883,1.5202 27.7053,3.9922 43,4.8722 22.6954,1.3059 33.8095,1.2099 43,-0.3714 z m 8.3572,-69.50268 c 1.5799,-11.242 1.9263,-20 0.791,-20 -0.6315,0 -1.1482,0.525 -1.1482,1.1667 0,0.6416 -0.2582,0.9084 -0.5737,0.5929 -0.3156,-0.3156 0.146,-1.9656 1.0256,-3.6667 1.865,-3.6063 1.3425,-3.8629 -2.1968,-1.0789 -3.1976,2.5152 -4.0458,1.8417 -1.8675,-1.4828 2.3363,-3.5656 0.689,-3.1446 -4.2554,1.0876 -2.3253,1.9904 -4.4315,3.4152 -4.6804,3.1663 -0.2489,-0.2489 1.343,-3.0157 3.5375,-6.1484 7.03,-10.0357 9.1995,-15.8785 5.0764,-13.6719 -1.0638,0.5694 -2.6504,1.0352 -3.5256,1.0352 -1.4535,0 -1.4528,-0.2681 0.01,-3.0929 1.8535,-3.5843 1.2017,-4.8565 -1.5936,-3.1108 -2.302,1.4376 -2.4819,0.4851 -0.4227,-2.2374 2.2769,-3.0103 1.7476,-3.7547 -1.4821,-2.0846 -4.8152,2.49 -5.7982,1.74 -2.0497,-1.5638 3.1571,-2.7826 3.2551,-3.0147 1,-2.3694 -1.375,0.3935 -4.1696,1.5578 -6.2102,2.5872 -5.5227,2.7861 -5.6589,2.3329 -0.7898,-2.6283 2.429,-2.475 4.1524,-4.5 3.8297,-4.5 -0.3226,0 -4.1288,1.8277 -8.4582,4.0616 l -7.8715,4.0617 4.9726,-4.5617 c 5.6708,-5.2021 5.1189,-5.5976 -2.8767,-2.0616 -3.1091,1.375 -6.9901,2.5 -8.6244,2.5 -3.0311,0 -3.7103,0.8517 -2.0336,2.55 0.5906,0.5982 -0.8573,0.9859 -3.9099,1.047 -3.8672,0.077 -4.7343,-0.1988 -4.2866,-1.3654 0.6969,-1.8161 -2.1672,-1.046 -8.7414,2.3504 -4.1918,2.1657 -4.3076,2.3281 -1.691,2.3714 1.545,0.026 2.5573,0.4539 2.2496,0.9518 -0.8548,1.3831 -9.6464,6.3403 -10.2226,5.7642 -1.1841,-1.1842 3.2092,-7.9002 7.026,-10.7405 6.4617,-4.8086 23.4179,-12.704 31.138,-14.4989 8.1545,-1.896 17.5525,-1.4885 22.3006,0.9669 3.9865,2.0615 7.1741,7.0186 10.5741,16.4443 3.2728,9.0729 3.448,18.6465 0.5888,32.1588 -1.1057,5.225 -2.4529,11.7157 -2.9939,14.4237 -1.2624,6.3188 -2.4407,7.4708 -1.6124,1.5763 z m -263.79601,-58.4319 c -3.6212,-1.8875 -8.4289,-5.0109 -10.6836,-6.9409 -3.6851,-3.1543 -10.4645,-5.6272 -15.4268,-5.6272 -0.7979,0 -1.4508,-0.45 -1.4508,-1 0,-0.55 1.039,-1 2.3089,-1 1.2699,0 3.1569,-0.6201 4.1934,-1.3781 1.7693,-1.2937 1.69,-1.4208 -1.2974,-2.0769 -1.7501,-0.3844 -3.4859,-1.1907 -3.8575,-1.7919 -0.4296,-0.6952 -0.082,-0.8651 0.9565,-0.4667 0.8976,0.3444 1.9003,0.1922 2.2281,-0.3382 0.8532,-1.3805 -8.026,-4.9482 -12.3149,-4.9482 -2.8133,0 -3.3504,-0.2667 -2.4171,-1.2 1.8619,-1.8619 1.4539,-2.5853 -1.8693,-3.3152 -3.004,-0.6598 -3.0306,-0.7169 -1.25,-2.6845 2.5494,-2.8171 2.5299,-14.1916 -0.031,-18.0014 -2.2606,-3.363 -1.5855,-5.8016 3.2435,-11.7174 5.3941,-6.6079 10.6734,-10.0815 15.3226,-10.0815 8.1961,0 10.0966,4.019 4.588,9.7024 -3.7642,3.8837 -2.6161,4.1632 5.2103,1.2686 3.0173,-1.116 7.0609,-2.4404 8.9859,-2.9432 1.925,-0.5028 5.3,-1.3944 7.5,-1.9812 6.3063,-1.6821 18.0448,-3.8306 30,-5.491 6.05,-0.8403 15.4087,-2.2012 20.7972,-3.0243 5.3884,-0.8231 12.8134,-1.7431 16.5,-2.0445 3.6865,-0.3013 8.5028,-0.7296 10.7028,-0.9517 2.2,-0.2221 8.3015,-0.6939 13.5588,-1.0485 7.69481,-0.5189 9.77941,-0.9979 10.69021,-2.4564 0.9604,-1.5377 0.8483,-1.7377 -0.741,-1.3221 -1.4967,0.3914 -1.7624,0.068 -1.3236,-1.6092 0.6773,-2.5902 0.2846,-2.6032 -3.9086,-0.1292 -3.05781,1.8042 -3.58151,1.8437 -6.22881,0.4703 -2.7734,-1.4389 -3.0176,-1.3762 -6.0344,1.5478 -3.3573,3.254 -4.5126,3.0865 -4.5126,-0.6545 0,-1.2833 -0.2211,-2.3333 -0.4913,-2.3333 -0.2703,0 -2.5548,1.575 -5.0766,3.5 -2.5219,1.925 -5.0008,3.5 -5.5087,3.5 -0.5079,0 -0.9234,-1.575 -0.9234,-3.5 0,-2.2104 -0.4804,-3.5 -1.3038,-3.5 -0.7171,0 -2.8304,1.575 -4.6962,3.5 -1.8658,1.925 -3.7541,3.5 -4.1962,3.5 -0.4421,0 -0.8038,-1.6139 -0.8038,-3.5865 l 0,-3.5865 -4.2402,3.1182 c -3.9185,2.8817 -4.3358,2.9876 -5.5,1.3954 -0.6929,-0.9476 -1.2598,-2.3119 -1.2598,-3.0317 0,-2.0236 -1.625,-1.5669 -5.2152,1.4656 -6.9353,5.858 -6.9878,5.8824 -6.2393,2.9001 0.9702,-3.8653 -0.5704,-3.3706 -7.2145,2.3165 -3.2071,2.7451 -6.2052,4.9951 -6.6626,5 -0.4573,0 0.1419,-1.5661 1.3316,-3.4911 1.353,-2.1891 1.7134,-3.5 0.9624,-3.5 -0.6604,0 -3.7935,1.575 -6.9624,3.5 -3.1689,1.925 -5.9878,3.5 -6.2642,3.5 -0.2764,0 -0.7379,-0.9 -1.0255,-2 -0.2877,-1.1 -1.1277,-1.9957 -1.8667,-1.9905 -0.739,0 -5.8436,2.1938 -11.3436,4.8634 -5.5,2.6696 -10.1752,4.7026 -10.3895,4.5177 -0.2141,-0.1849 0.9109,-1.9718 2.5,-3.9709 1.5893,-1.9991 4.1185,-5.4989 5.6206,-7.7772 1.714,-2.5998 2.7382,-3.4908 2.75,-2.3925 0.025,2.3625 0.3794,2.2798 7.6568,-1.79 4.9485,-2.7673 6.1835,-3.1493 5.6588,-1.75 -0.607,1.619 -0.4861,1.6512 1.2661,0.3374 1.0655,-0.7989 2.9479,-2.3381 4.1833,-3.4206 2.6361,-2.3098 4.2164,-1.3976 2.4576,1.4187 -1.8751,3.0024 0.4035,2.4721 6.75,-1.5711 6.3884,-4.07 7.0505,-4.2066 6.2899,-1.2979 -0.6257,2.3927 -0.8572,2.4908 12.2564,-5.196 l 4,-2.34473 -2.4243,2.68213 c -3.3094,3.6613 -1.8124,3.3655 4.6388,-0.9165 2.9819,-1.97928 5.6765,-3.34371 5.9882,-3.03211 0.3116,0.31161 -0.01,1.94541 -0.7027,3.63071 -0.6981,1.6853 -1.0017,3.3316 -0.6747,3.6586 0.327,0.327 4.0866,-1.4634 8.3547,-3.9786 7.697,-4.53599 9.7934,-5.16033 7.32,-2.18002 -2.516,3.03162 -0.057,2.62942 6.1751,-1.00998 5.1961,-3.03438 5.9234,-3.26234 4.0749,-1.27734 -4.0604,4.36034 -2.7966,4.34484 7.0032,-0.0856 11.97171,-5.41231 13.43731,-5.67958 9.99681,-1.82295 -1.69631,1.90147 -1.67331,1.93823 0.75,1.19833 1.375,-0.41982 5.0875,-2.06111 8.25,-3.6473 6.1506,-3.0849 7.0034,-2.71839 3.636,1.56261 -1.1627,1.47814 -1.8962,2.90532 -1.63,3.17152 0.2662,0.26619 2.8091,-0.43251 5.651,-1.55267 6.9895,-2.755 7.3034,-2.6752 6.4919,1.65039 l -0.6917,3.68701 3.013,-2.43701 c 1.6571,-1.34037 6.5605,-5.59715 10.8964,-9.45951 9.383,-8.35827 18.9366,-15.26099 26.1002,-18.85804 7.1008,-3.56552 8.5173,-3.24792 4.0479,0.90757 -4.1364,3.84589 -4.0837,4.20638 0.285,1.94726 2.6691,-1.38026 2.9503,-1.37429 2.9503,0.0626 0,0.87355 -1.0017,4.45842 -2.226,7.96637 -1.2243,3.50796 -1.955,6.64909 -1.6238,6.98028 0.3312,0.33119 2.1204,-0.1261 3.976,-1.01621 3.2715,-1.56931 3.3771,-1.80598 3.4836,-7.80505 0.086,-4.82586 0.8795,-7.83365 3.6089,-13.67447 1.9245,-4.1183 4.3501,-8.43578 5.3902,-9.59439 2.6918,-2.99844 8.6833,-5.82481 17.6856,-8.34278 9.5519,-2.67167 13.564,-2.29865 4.9342,0.45874 -3.4258,1.09462 -6.2287,2.3278 -6.2287,2.74041 0,0.41261 1.6875,0.78691 3.75,0.83177 l 3.75,0.0816 -3.5,1.44138 c -1.925,0.79276 -4.85,2.09626 -6.5,2.89668 -2.8802,1.3972 -2.7405,1.43527 3.5,0.95376 l 6.5,-0.50154 -5,2.4805 c -3.9079,1.93869 -4.3447,2.36368 -2,1.94567 2.8548,-0.50894 2.8064,-0.42087 -1,1.81982 -4.957,2.91801 -5.593,5.79564 -1.9196,8.68519 1.4791,1.16346 3.3126,2.11539 4.0743,2.11539 0.7618,0 3.2588,1.18282 5.5488,2.62849 4.1216,2.60181 4.1975,2.61036 7.4802,0.84253 3.5351,-1.90378 4.2567,-4.4457 1.833,-6.45719 -1.1976,-0.9939 -2.1608,-0.83134 -5,0.84383 -4.3249,2.55176 -4.5333,1.49052 -0.4715,-2.40095 2.5847,-2.4763 2.8202,-3.08198 1.5574,-4.00537 -1.2555,-0.91802 -1.0673,-1.32764 1.2048,-2.62295 6.2788,-3.5795 18.2757,-4.48786 30.3332,-2.29671 3.5061,0.63715 3.6852,0.52632 4.8496,-3.00205 1.5098,-4.57463 0.9465,-5.18171 -2.6534,-2.85953 l -2.8368,1.82989 3.2963,-4.5 c 3.8872,-5.30672 2.8648,-6.06961 -4.1211,-3.07511 -2.5713,1.10222 -4.6752,1.72563 -4.6752,1.38536 0,-0.34028 2.7604,-3.11666 6.1341,-6.16975 3.3738,-3.05309 5.694,-5.6978 5.156,-5.87712 -0.5379,-0.17933 -3.137,0.59936 -5.7756,1.73042 -2.6387,1.13105 -5.047,1.80699 -5.3519,1.50208 -0.305,-0.30491 2.6837,-3.8143 6.6415,-7.79865 3.9577,-3.98434 7.1959,-7.57756 7.1959,-7.98493 0,-0.40737 -1.7776,0.43568 -3.9502,1.87344 -2.1726,1.43777 -4.4022,2.45666 -4.9547,2.26419 -0.5525,-0.19246 1.0206,-3.49307 3.4959,-7.33469 2.4752,-3.84162 4.0611,-7.1312 3.5242,-7.31017 -0.5369,-0.17898 -2.8166,0.89252 -5.066,2.3811 -2.2494,1.48858 -4.3115,2.48489 -4.5823,2.21402 -0.2709,-0.27087 1.2965,-3.12845 3.4831,-6.35019 2.1866,-3.22174 3.8092,-6.02415 3.6058,-6.22759 -0.2035,-0.20343 -1.7857,0.36223 -3.516,1.25703 l -3.1462,1.62692 1.8032,-3.18377 c 0.9918,-1.75107 2.3433,-4.12243 3.0034,-5.26969 1.6744,-2.91024 0.9924,-3.14718 -3.6789,-1.27808 -6.1655,2.46691 -6.4081,2.0557 -2.0445,-3.46462 2.2127,-2.79939 4.0232,-5.49939 4.0232,-6 0,-0.50061 -1.35,-0.9102 -3,-0.9102 -1.65,0 -3,-0.52093 -3,-1.15763 0,-0.63669 1.8391,-3.54142 4.0869,-6.45495 2.2477,-2.91353 3.8581,-5.6674 3.5786,-6.1197 -0.2796,-0.45231 1.0313,-3.26423 2.9131,-6.24871 4.0994,-6.50158 4.3718,-8.23838 0.7754,-4.94332 -1.6061,1.47152 -0.6763,-0.32678 2.366,-4.57569 3.1513,-4.40118 5.5259,-9.04193 6.3961,-12.5 l 1.3839,-5.5 0.6184,11.5 c 0.3402,6.325 0.6777,18.98982 0.75,28.14405 0.1944,24.58338 1.4501,34.09002 6.5854,49.85595 2.4185,7.425 4.4308,12.90473 4.4717,12.17719 0.068,-1.21023 -2.4986,-12.78897 -5.037,-22.72225 -1.2639,-4.94586 -0.8183,-11.65925 0.8093,-12.19358 0.8402,-0.27582 1.0335,0.6195 0.6475,2.9982 -1.3657,8.41602 6.5566,26.76961 14.7252,34.11393 5.7288,5.15065 15.506,8.61134 24.4577,8.65692 4.7634,0.0242 5.596,0.24881 4.1146,1.10967 -2.874,1.67016 -13.5233,0.49232 -19.5869,-2.16637 -2.9943,-1.31287 -7.3818,-3.86607 -9.75,-5.67377 -4.2732,-3.26181 -4.3059,-3.26875 -4.3059,-0.91546 0,5.70504 4.3569,12.13915 10.3429,15.27412 2.6848,1.40602 5.2191,1.03024 3.1225,-0.46297 -0.5372,-0.3826 -2.2796,-2.49563 -3.8719,-4.69563 -2.8168,-3.89179 -2.749,-3.86108 2.5057,1.13542 2.9704,2.82448 6.3837,5.63698 7.5851,6.25 2.504,1.27777 8.9605,1.49841 9.682,0.33086 0.2664,-0.43105 -2.8602,-2.52789 -6.948,-4.65964 -8.7314,-4.55337 -9.2042,-5.76347 -0.7996,-2.04657 3.227,1.42714 7.7092,2.84726 9.9603,3.15581 3.6137,0.49531 4.5468,0.16711 7.9681,-2.80244 l 3.875,-3.36344 -2.711,3.59439 c -1.4911,1.97692 -2.7111,3.815 -2.7111,4.08463 0,0.26963 3.7125,0.29412 8.25,0.0544 9.8245,-0.51897 10.7563,-1.31542 10.7347,-9.17458 -0.019,-7.06349 -1.102,-9.05143 -3.1959,-5.86854 -1.3279,2.01862 -9.7888,7.6465 -9.7888,6.51116 0,-0.23456 1.35,-2.12523 3,-4.20149 1.65,-2.07626 3,-4.32534 3,-4.99796 0,-0.67262 1.138,-2.89994 2.529,-4.9496 4.4591,-6.57081 2.1518,-10.9361 -11.3914,-21.55244 -2.4051,-1.88536 -4.1894,-5.08148 -7.2573,-13 -8.5911,-22.17451 -8.0913,-19.57412 -7.5927,-39.5 0.3089,-12.34664 0.9158,-19.30572 1.9325,-22.15733 1.4543,-4.07927 1.4363,-4.17819 -0.957,-5.26865 -1.3415,-0.61123 -5.8765,-2.03249 -10.0778,-3.15834 -10.3581,-2.77579 -10.8958,-3.34247 -7.183,-7.57104 2.5037,-2.85157 3.0002,-4.27369 3.013,-8.62944 0.018,-6.06669 1.3468,-9.22664 2.3341,-5.54973 l 0.6268,2.33453 2.353,-2.91958 2.353,-2.91958 0.6409,3.20444 c 0.6178,3.08929 0.724,3.14999 2.9534,1.68919 2.1215,-1.39005 2.455,-1.34897 4.0357,0.49723 1.4774,1.72547 2.4694,1.91975 6.9555,1.36221 5.0959,-0.63334 6.1862,-1.03784 12.5216,-4.64573 l 3.0411,-1.73181 0.6727,3.98181 c 0.37,2.19 0.9298,3.98182 1.2439,3.98182 0.3142,0 2.9687,-1.81005 5.8988,-4.02234 6.8095,-5.14117 9.5502,-5.65954 16.1563,-3.05567 6.8366,2.69474 8.7969,2.61959 10.7842,-0.4134 1.8015,-2.74935 3.4137,-2.47456 3.4137,0.58181 0,3.1779 2.7099,3.33231 6.2352,0.3553 l 3.2648,-2.75695 0.3164,2.65562 c 0.3749,3.146 2.6495,3.48373 4.4157,0.65563 2.07159,-3.31721 3.76789,-2.41683 3.76789,2 0,4.56002 0.8829,4.8858 4.9972,1.84399 l 2.9161,-2.15602 5.9184,2.65602 c 5.3649,2.40764 7.063,2.65604 18.1568,2.65604 l 12.2385,0 -0.445,3.03212 c -0.6055,4.12565 2.5571,7.11566 10.4717,9.90017 13.4504,4.73207 13.0049,4.31364 6.2206,5.84205 -3.2859,0.74025 -8.622,1.6023 -11.858,1.91565 l -5.8838,0.56974 0.6585,11.12014 c 0.7463,12.60086 2.7993,29.16104 3.7293,30.08067 0.3412,0.33737 0.027,2.33406 -0.6971,4.43709 -0.7245,2.10304 -1.6142,6.06189 -1.9771,8.79745 -0.7635,5.75513 -1.4391,5.27462 13.8039,9.81793 4.8125,1.43441 8.75,3.03079 8.75,3.5475 0,1.69813 -3.8285,0.98734 -11.724,-2.17663 -19.0666,-7.64066 -17.6441,-4.80175 4.224,8.43003 4.4,2.66232 8.875,5.69332 9.9444,6.73555 5.4249,5.28684 -4.1517,1.3714 -13.5177,-5.52682 -13.7101,-10.09765 -16.6895,-10.2903 -19.3178,-1.2491 -0.8763,3.01425 -3.1601,7.19055 -5.322,9.73187 -3.7624,4.42298 -3.7665,4.43733 -0.6325,2.22315 5.4022,-3.81667 5.0252,-2.4613 -0.9338,3.35681 -3.4488,3.3673 -5.726,6.44499 -5.7342,7.75 -0.01,1.19055 -0.2836,3.17166 -0.6135,4.40248 -1.1429,4.264 2.276,3.80508 7.9844,-1.07177 4.5881,-3.91972 13.9692,-8.66397 17.1351,-8.66558 0.5458,-2.7e-4 -3.5042,2.97876 -9,6.62008 -5.4958,3.64133 -11.7924,8.31927 -13.9924,10.39543 -12.2583,11.56829 -34.09449,15.13993 -60.35689,9.87228 -2.9463,-0.59096 -5.7152,-0.69508 -6.1531,-0.23138 -0.4379,0.4637 -1.503,3.64582 -2.3669,7.07137 -2.5654,10.17323 -7.4036,16.23833 -19.3616,24.27172 -3.6663,2.46299 -5.2176,4.16665 -5.2357,5.75 -0.028,2.48609 1.079,2.79945 4.1277,1.16787 1.112,-0.59517 3.22,-1.29012 4.6842,-1.54435 1.4643,-0.25423 5.0417,-1.34227 7.9498,-2.41787 6.6349,-2.454 7.5036,-2.44826 6.7125,0.0444 -0.7537,2.37469 0.087,2.45744 6.9327,0.68253 2.713,-0.7034 5.1154,-1.82684 5.3386,-2.49655 0.2338,-0.70118 -1.9645,-2.26599 -5.1827,-3.68921 -5.9537,-2.63303 -6.5015,-3.441 -4.0172,-5.92534 2.8167,-2.81664 5.9166,-1.80316 12.5276,4.09574 3.4932,3.11694 9.719,7.86561 13.835,10.5526 6.479,4.2295 7.9607,4.8049 11.0357,4.2854 3.17569,-0.5366 4.33719,-0.012 10.96679,4.9474 4.0783,3.0511 7.5496,5.5474 7.7142,5.5474 0.1646,0 0.028,-1.358 -0.3043,-3.0179 -0.7244,-3.622 -0.7074,-3.6179 11.6201,2.8066 8.6879,4.5276 10.5228,4.418 7.3465,-0.439 -2.0278,-3.1008 -1.5392,-2.9202 5.187,1.9175 2.2,1.5823 4.4101,3.6093 4.9113,4.5044 0.6289,1.1229 0.045,0.9456 -1.8848,-0.5721 -3.6746,-2.8904 -4.8903,-2.7853 -4.1023,0.3546 l 0.641,2.554 -3.0199,-2.2327 c -2.8539,-2.11 -3.4546,-2.1754 -10.9198,-1.1898 -4.3449,0.5736 -8.8905,1.7369 -10.1015,2.585 -2.0844,1.46 -1.7841,1.5748 5.6372,2.1544 8.4849,0.6626 21.8534,2.7262 29.8388,4.6059 12.4815,2.9381 24.8026,11.6668 22.5114,15.9479 -1.4972,2.7974 -4.3499,3.2958 -9.7148,1.697 -8.1573,-2.4308 -12.1562,-4.4387 -17.0666,-8.5692 -6.7918,-5.7132 -9.2408,-6.4272 -15.9946,-4.6636 -4.2984,1.1225 -6.702,1.2214 -10.4012,0.4281 -4.4937,-0.9638 -5.5207,-0.7552 -15.5726,3.1623 -5.91889,2.3067 -16.42249,6.5712 -23.34139,9.4766 -6.919,2.9054 -17.944,6.914 -24.5,8.908 -6.5561,1.9939 -13.3021,4.0656 -14.9912,4.6037 -3.8098,1.2137 -17.5289,1.2843 -20.6319,0.1062 -1.2634,-0.4796 -4.0971,-1.4071 -6.2971,-2.0611 -2.2,-0.6539 -7.6,-2.849 -12,-4.8779 l -8,-3.6889 -19,0.1197 c -16.4267,0.1035 -19.8126,0.4005 -25,2.1929 l -6,2.0732 5.5,-0.6673 c 9.4147,-1.1422 29.1876,-0.7452 35,0.7027 3.025,0.7536 9.3601,3.0616 14.0781,5.1291 4.7179,2.0674 13.1005,5.1119 18.628,6.7656 10.8251,3.2385 16.2939,5.6583 16.2939,7.2098 0,0.5358 -0.1801,0.9743 -0.4002,0.9743 -0.7529,0 -32.0893,-8.9861 -38.0998,-10.9256 -30.6419,-9.8876 -47.3134,-10.166 -65.5,-1.0937 -3.025,1.509 -7.75,3.2402 -10.5,3.847 -6.9876,1.5419 -20.5852,3.4205 -21.0917,2.9139 -0.2316,-0.2316 2.3943,-1.2189 5.8353,-2.1939 3.441,-0.9751 7.3814,-2.126 8.7564,-2.5577 1.375,-0.4316 5.1127,-1.5558 8.306,-2.4981 3.1933,-0.9423 5.6006,-1.9187 5.3496,-2.1697 -0.251,-0.251 -3.9088,0.024 -8.1284,0.6107 -16.9946,2.3638 -29.5984,0.8467 -50.0272,-6.0215 -15.8207,-5.3189 -30.6539,-12.5808 -37.9256,-18.5671 l -5.8845,-4.8443 -33.59491,0.047 c -41.7673,0.059 -48.6239,0.943 -65.845,8.493 -4.5538,1.9965 -5.25,2.6769 -5.25,5.1308 0,3.8089 2.1718,3.71 11.838,-0.539 8.387,-3.6868 15.3337,-5.0533 33.9052,-6.6693 11.932,-1.0383 16.7306,-0.8797 34.2568,1.1324 4.675,0.5367 12.1503,1.3758 16.61171,1.8646 10.0425,1.1003 15.7777,2.5997 17.3943,4.5475 1.5643,1.8849 1.4323,1.8778 -7.2744,-0.3943 -3.9774,-1.038 -10.83161,-2.1727 -15.23161,-2.5217 -4.4,-0.349 -11.15,-0.9622 -15,-1.3628 -3.85,-0.4006 -15.325,-0.7045 -25.5,-0.6754 -14.7274,0.042 -19.7235,0.4167 -24.5,1.8367 -3.3,0.981 -7.35,2.1283 -9,2.5495 -1.65,0.4212 -5.9603,1.9572 -9.5785,3.4133 -3.6181,1.4562 -7.2615,2.6475 -8.0963,2.6475 -0.8349,0 -2.9814,0.7301 -4.7701,1.6224 -2.3952,1.1949 -4.4779,1.4359 -7.9037,0.9143 -2.5583,-0.3894 -7.2753,-0.6446 -10.4823,-0.567 -3.2167,0.078 -6.4671,-0.387 -7.25,-1.0368 -1.184,-0.9827 -1.4182,-0.5363 -1.4135,2.6947 0.016,11.4622 8.013,20.3384 18.3665,20.3872 1.7204,0.01 4.2394,0.5771 5.5979,1.2645 2.4931,1.2616 7.438,7.6461 6.5837,8.5004 -0.2538,0.2538 -2.3947,-1.041 -4.7576,-2.8774 l -4.2961,-3.3389 4.25,4.696 c 4.3617,4.8194 5.3996,7.7406 2.75,7.7406 -2.2909,0 -1.9072,0.7584 3.5989,7.1142 2.8045,3.2372 4.8622,5.8858 4.5727,5.8858 -0.2894,0 -3.4891,-1.5443 -7.1104,-3.4318 z m 310.28811,-55.0779 c 6.4673,-3.0107 6.9807,-3.0648 4.6507,-0.4902 -2.902,3.2067 -0.2563,2.396 11.6221,-3.5612 11.5906,-5.813 14.8026,-6.6401 7.8065,-2.0102 -6.4699,4.2815 -3.8968,4.1213 5.6483,-0.3517 9.0505,-4.2412 12.1481,-4.8822 5.9658,-1.2346 -1.9485,1.1496 -3.5427,2.5554 -3.5427,3.124 0,2.6254 11.8317,-0.015 18.1138,-4.0422 2.5376,-1.6268 6.7696,-4.0492 9.4045,-5.3832 4.648,-2.3531 4.7118,-2.4451 2.1424,-3.0899 -1.4566,-0.3656 -6.3636,-0.3355 -10.9045,0.067 -4.5409,0.4023 -47.7429,0.9098 -96.0044,1.1277 l -87.7483,0.3962 -4.7517,3.0805 c -4.3189,2.7999 -4.4785,3.0332 -1.7518,2.5614 1.65,-0.2855 4.7453,-0.9717 6.8784,-1.525 l 3.8784,-1.006 -3.8314,3.9237 c -2.1072,2.158 -3.4613,3.9236 -3.0092,3.9236 0.4522,0 3.4949,-1.6236 6.7616,-3.608 3.2667,-1.9844 6.0988,-3.4469 6.2936,-3.25 0.1948,0.1969 -2.0547,2.383 -4.9988,4.858 -5.6408,4.7419 -7.3952,7.4683 -2.7226,4.2308 1.5125,-1.0479 3.425,-2.2007 4.25,-2.5617 0.825,-0.3609 3.1875,-1.7907 5.25,-3.1772 4.9614,-3.3353 4.8087,-1.5541 -0.2235,2.608 -5.3968,4.4637 -4.2446,4.9589 1.6811,0.7225 7.2407,-5.1764 8.1264,-5.4765 4.3462,-1.4726 -4.0848,4.3267 -3.3539,4.7105 1.7629,0.9259 2.6225,-1.9397 3.1793,-2.1331 1.9333,-0.6713 -2.8404,3.3323 -2.0867,3.387 4.2659,0.3098 8.634,-4.1824 9.8365,-3.9043 5.4841,1.2682 -2.6558,3.1562 -3.3298,5.4224 -1.25,4.2025 0.6875,-0.4032 3.8722,-2.4951 7.0771,-4.6486 6.2503,-4.1999 8.23,-4.5477 4.169,-0.7326 -4.4657,4.1953 -2.6476,4.2201 4.877,0.066 8.7091,-4.8075 10.3366,-5.1475 5.5891,-1.1676 -1.9042,1.5964 -3.2372,3.1298 -2.9622,3.4077 0.275,0.2779 3.65,-1.0156 7.5,-2.8743 8.0265,-3.8751 10.0833,-4.2912 6.5,-1.3148 l -2.5,2.0765 3.5,-1.9935 c 1.925,-1.0964 5.075,-2.9392 7,-4.095 1.925,-1.1559 3.8375,-2.1032 4.25,-2.1053 1.2399,-0.01 0.8496,2.9031 -0.8237,6.1389 -0.8656,1.6738 -1.3148,3.3022 -0.9984,3.6186 0.3165,0.3165 2.7122,-0.9341 5.3238,-2.7791 2.617,-1.8489 3.9628,-2.4502 2.9983,-1.3396 -2.7759,3.1962 -2.071,3.425 2.5,0.8115 5.7059,-3.2624 7.5073,-3.2588 5.365,0.011 -2.3948,3.6549 -2.0246,3.8189 2.3651,1.0478 4.5729,-2.8867 6.0199,-3.1301 6.0199,-1.0125 0,1.7417 3.8068,1.9894 8.7566,0.5698 1.7839,-0.5116 3.2434,-0.5474 3.2434,-0.08 0,0.4679 -1.3448,1.1461 -2.9885,1.5071 -3.0368,0.667 -5.1552,2.5025 -2.8882,2.5025 0.6827,0 5.2235,-0.5107 10.0907,-1.1349 4.8673,-0.6242 9.166,-0.8184 9.5528,-0.4316 0.3868,0.3868 -0.415,1.6008 -1.7817,2.6976 l -2.4851,1.9943 2.5,-0.6999 c 3.4111,-0.955 4.6434,-1.1779 3.75,-0.6782 -1.2393,0.6931 -0.8446,3.2535 0.5,3.243 0.6875,0 3.6572,-1.1304 6.5993,-2.5 z m -138.3993,-14.5519 c 1.1288,-1.1149 -2.1059,-1.2213 -8.8833,-0.2924 -3.2266,0.4423 -4.2954,0.9277 -3.3896,1.5396 1.5626,1.0557 10.9024,0.1065 12.2729,-1.2472 z m 157.55,-8.4178 c 1.375,-0.1445 9.7,-0.3343 18.5,-0.422 16.2722,-0.162 18.1158,-0.899 7.5,-2.9982 -7.3373,-1.4508 -21.7554,-4.506 -31,-6.5689 -10.881,-2.428 -17.648,-2.3608 -22.6092,0.2243 -7.8921,4.1125 -32.9326,5.4596 -42.9714,2.3118 -3.3444,-1.0486 -12.3994,-2.6849 -20.1223,-3.6362 -12.1937,-1.502 -17.4471,-1.6024 -39.9194,-0.7627 -20.9201,0.7816 -26.4882,1.2877 -29.0643,2.642 -5.9925,3.1502 -5.2586,4.0581 2.7786,3.4378 7.537,-0.5817 11.6004,-0.2889 36.408,2.6233 36.4843,4.2829 40.9517,4.5034 80,3.95 20.9,-0.2963 39.125,-0.6568 40.5,-0.8012 z m -36.4865,-13.4006 c 8.2134,-2.6746 12.3582,-4.5471 13.3407,-6.02689 1.7798,-2.68049 1.6362,-2.81213 -4.9528,-4.54026 -2.9708,-0.77915 -8.9764,-3.05077 -13.3458,-5.04804 -8.7479,-3.99868 -17.33,-6.52195 -22.0157,-6.47293 -3.1971,0.0335 -2.893,0.5492 2.1005,3.56266 1.6668,1.0059 1.6833,1.22468 0.2042,2.7038 -1.2085,1.20849 -1.4759,2.79331 -1.0736,6.36275 l 0.5358,4.75341 -5.2926,-4.21408 c -5.8626,-4.66786 -8.0142,-4.40748 -8.0142,0.96985 0,4.23963 3.9087,7.31023 12.2938,9.65773 10.1503,2.8417 12.7726,2.6709 26.2197,-1.708 z m -57.9956,-14.80994 c 2.1901,-1.47951 6.593,-4.85451 9.784,-7.5 6.2019,-5.14156 7.7054,-5.57653 11.8323,-3.42322 3.3649,1.75573 5.6381,0.60291 3.1394,-1.5921 -3.2196,-2.8284 -5.7565,-2.91881 -11.3653,-0.40509 -3.9464,1.7687 -7.9409,2.57796 -14.7779,2.99393 -10.0767,0.61309 -10.9856,1.01105 -14.0076,6.13296 l -1.9812,3.35787 8.4535,-3.07952 c 4.6494,-1.69373 8.7428,-2.79028 9.0963,-2.43677 0.3535,0.3535 -0.8037,2.44256 -2.5715,4.64235 -3.76,4.67883 -3.1128,5.03226 2.398,1.30959 z m 39.8374,-43.55998 c -0.5934,-3.77399 -3.1382,-9.3004 -3.9218,-8.51683 -0.4017,0.40167 3.6339,12.76683 4.1667,12.76683 0.2329,0 0.1227,-1.9125 -0.2449,-4.25 z m 57.424,-4.89583 c -0.2758,-0.8173 -1.1574,0.0334 -2.2237,2.14583 l -1.7668,3.5 2.2236,-2.14583 c 1.2231,-1.18021 2.0181,-2.75521 1.7669,-3.5 z m 47.0757,-27.27917 c 1.5156,-0.78376 3.28359,-2.58376 3.92889,-4 0.9156,-2.00961 1.8915,-2.5713 4.4447,-2.55815 l 3.2714,0.0168 -3.25,2.08136 c -1.7875,1.14474 -3.25,2.42573 -3.25,2.84664 0,1.47774 10.522,-1.12216 12.5,-3.08865 1.8535,-1.84271 1.877,-2.07998 0.3217,-3.23853 -1.5069,-1.12246 -1.3809,-1.36243 1.2338,-2.34935 1.6016,-0.60456 4.6069,-0.87319 6.6783,-0.59696 5.5193,0.73601 9.4934,-2.88551 16.1182,-14.6882 1.6026,-2.85528 2.2139,-27.418 0.8088,-32.5 l -0.8295,-3 -1.9157,2.36078 c -2.3116,2.84882 -2.3766,2.48688 -0.4022,-2.23866 1.6769,-4.01332 0.8471,-4.55965 -3.0486,-2.00711 -2.8685,1.87953 -3.1024,1.28773 -0.8498,-2.15019 1.9709,-3.00797 1.5128,-3.06281 -3.0578,-0.36604 -3.7215,2.1957 -4.2011,1.72503 -2.582,-2.53368 1.0318,-2.71365 0.2151,-3.35537 -1.7585,-1.38177 -1.9344,1.93432 -2.3647,0.33023 -0.747,-2.78455 1.9873,-3.82655 0.6011,-4.09986 -4.4908,-0.88546 -2.2923,1.44708 -4.3553,2.44364 -4.5843,2.21457 -0.2291,-0.22907 0.7356,-2.11431 2.1439,-4.18943 1.4082,-2.07512 2.3776,-3.95571 2.1542,-4.17908 -0.2234,-0.22338 -2.8787,1.62938 -5.9006,4.11724 -3.022,2.48786 -5.7985,4.52338 -6.1699,4.52338 -0.3714,0 0.8989,-2.33767 2.8231,-5.19483 1.9241,-2.85716 3.3144,-5.37877 3.0896,-5.60358 -0.2248,-0.22481 -3.4715,2.07847 -7.2149,5.11841 -3.7434,3.03994 -6.9753,5.35806 -7.18189,5.15139 -0.2067,-0.20667 1.25269,-2.27828 3.24299,-4.60357 5.4123,-6.32304 4.3909,-6.65708 -2.8811,-0.94223 -3.57499,2.80948 -6.49999,4.75502 -6.49999,4.32341 0,-0.4316 1.125,-2.44032 2.5,-4.46381 4.19529,-6.17398 2.8457,-5.57681 -5.0622,2.23984 -6.8055,6.72693 -7.492,7.17475 -6.8597,4.47497 0.3864,-1.65 1.3144,-4.21515 2.0622,-5.70034 0.7478,-1.48519 1.3597,-3.45279 1.3597,-4.37244 0,-1.41977 -0.2416,-1.47161 -1.6009,-0.3435 -0.8805,0.73074 -2.2562,1.4248 -3.0572,1.54237 -0.801,0.11756 -4.862,2.16228 -9.0244,4.54383 -4.1624,2.38154 -7.8491,4.30486 -8.1927,4.27404 -0.3437,-0.0308 -1.4921,0.75192 -2.552,1.73944 -3.3916,3.15975 -2.9281,1.06862 0.9272,-4.1834 2.0566,-2.8017 3.5486,-5.28468 3.3156,-5.51775 -0.2331,-0.23306 -3.7632,2.93809 -7.8447,7.047 -4.0814,4.10895 -7.9289,7.47079 -8.5498,7.47079 -3.7942,0 -7.7807,7.63894 -9.7849,18.75 -0.8868,4.91652 -0.028,3.90339 1.9076,-2.25 2.6644,-8.47089 3.8167,-6.90689 3.1311,4.25 -0.649,10.56141 -0.2671,11.29069 0.9164,1.75 l 0.7442,-6 0.7746,4 c 0.4261,2.2 0.8713,7.15 0.9894,11 0.2114,6.89293 0.2242,6.92352 0.8361,2 l 0.6214,-5 0.8171,6.22795 0.8172,6.22795 3.3568,-2.56042 c 1.8463,-1.40823 4.1658,-2.39268 5.1544,-2.18767 1.4131,0.29303 0.9981,0.89882 -1.9401,2.83247 -2.0557,1.35285 -3.7432,2.7831 -3.75,3.17834 -0.017,0.99543 3.1282,-0.21413 5.2156,-2.00572 1.9061,-1.63594 7.1163,-2.57892 6.2179,-1.12538 -0.3102,0.50186 -1.2424,0.91248 -2.0716,0.91248 -1.245,0 -5.8506,2.88537 -9.7174,6.08793 -1.344,1.11313 2.1644,5.61054 7.3412,9.41064 5.4009,3.96464 8.5162,4.4666 9.2927,1.4973 0.3223,-1.23228 1.0773,-1.79187 1.9604,-1.45298 0.7899,0.30312 3.869,-0.40199 6.8425,-1.56693 l 5.4063,-2.11807 -3.8994,4.01618 c -3.3776,3.47886 -4.3142,3.93407 -7,3.4024 -2.8111,-0.55647 -2.9719,-0.45731 -1.7222,1.06206 3.258,3.96104 18.5767,6.02883 23.9766,3.23647 z m 15.86569,-25.78461 c -4.1113,-1.09104 -6.7207,-4.69808 -6.7207,-9.29039 0,-6.38023 6.8256,-13.01062 13.2291,-12.85063 3.8431,0.096 8.7709,2.59344 8.7709,4.44511 0,0.57661 0.675,1.72338 1.5,2.54838 2.0302,2.03022 1.8862,4.67989 -0.5098,9.37637 -3.2093,6.29064 -7.9607,7.97607 -16.2695,5.77116 z m 11.7473,-9.15949 c 2.9556,-3.875 2.5431,-6.20446 -1.2263,-6.92502 -5.5715,-1.06508 -9.4664,4.92651 -5.6703,8.72269 2.364,2.364 4.0593,1.92209 6.8966,-1.79767 z M 359.42859,903.14622 c 0,-0.7266 1.35,-3.4498 3,-6.0516 2.8732,-4.5305 3.6518,-6.661 2.4345,-6.661 -0.3111,0 -3.9824,1.5787 -8.1585,3.5081 -4.1762,1.9295 -7.7783,3.3229 -8.0048,3.0964 -0.8428,-0.8428 8.4099,-6.3712 13.4224,-8.0197 7.2433,-2.3822 11.2466,-5.3445 14.3045,-10.5848 5.102,-8.7432 14.1262,-13.0867 30.0019,-14.4402 l 6.5,-0.5542 -4.7662,1.3467 c -2.6214,0.7407 -5.0218,1.6023 -5.3342,1.9147 -0.7113,0.7113 6.8653,1.4929 21.1004,2.1767 13.9008,0.6678 17.499,1.6997 25.3178,7.2606 6.5531,4.6609 7.4591,6.1119 2.6822,4.2957 -1.5276,-0.5808 -3.0281,-0.8052 -3.3346,-0.4987 -0.3065,0.3064 2.6809,3.8171 6.6387,7.8015 3.9577,3.9843 7.1959,7.5682 7.1959,7.9641 0,0.3959 -2.1099,-0.8907 -4.6887,-2.8591 -5.0866,-3.8827 -24.3156,-13.9044 -24.3045,-12.6669 0,0.4175 1.5788,1.8296 3.5,3.138 5.5346,3.7691 4.0606,4.3637 -2.2568,0.9102 -3.4631,-1.8931 -5.2042,-2.4762 -4.3776,-1.4662 1.7048,2.0831 0.8886,2.0922 -5.9333,0.066 -15.0537,-4.4704 -41.0644,2.9538 -58.6891,16.7516 -3.4375,2.6911 -6.25,4.2984 -6.25,3.5718 z m 223.99999,-3.0905 c 0,-0.2078 0.7014,-2.0565 1.5586,-4.1081 1.9618,-4.6952 1.1887,-5.5466 -2.2107,-2.4346 l -2.6442,2.4206 0.5545,-2.25 c 0.377,-1.5296 0.1043,-2.25 -0.8518,-2.25 -0.7735,0 -1.4064,-0.45 -1.4064,-1 0,-0.55 0.6097,-1 1.3549,-1 1.5284,0 11.6451,-10.3299 11.6451,-11.8905 0,-0.5556 -0.7875,-1.4688 -1.75,-2.0294 -1.6667,-0.9708 -1.6667,-1.0207 0,-1.0497 0.9625,-0.017 1.75,-0.6536 1.75,-1.4152 0,-0.9133 1.7873,-1.6274 5.25,-2.0975 2.8875,-0.392 5.925,-0.8303 6.75,-0.9739 0.825,-0.1436 4.425,-0.5818 8,-0.9739 6.6415,-0.7283 14.8187,-3.6857 16.1997,-5.8588 1.1571,-1.8207 0.9538,-7.2563 -0.3895,-10.4141 -0.6544,-1.5383 -2.6875,-5.2941 -4.5181,-8.346 -3.0491,-5.0837 -3.2318,-5.8383 -2.1788,-9 0.6322,-1.8981 1.7974,-4.126 2.5893,-4.951 1.2714,-1.3245 1.8119,-1.0612 4.6187,2.25 1.7483,2.0626 3.7412,3.7501 4.4287,3.75 2.0138,0 1.437,-4.1721 -0.9243,-6.6856 -1.6299,-1.7349 -1.803,-2.3144 -0.6911,-2.3144 0.8157,0 2.2544,0.5639 3.197,1.2532 1.4537,1.063 1.7608,3.4377 2.0226,15.6418 0.2911,13.5672 0.1698,14.6676 -2.1261,19.2748 -3.0183,6.0568 -6.3354,8.5882 -17.4781,13.3378 -9.0276,3.848 -11.4079,6.0816 -5.25,4.9264 1.9271,-0.3615 3.5,-0.2456 3.5,0.2579 0,1.4846 -13.2394,5.3081 -18.38,5.3081 -3.0387,0 -4.5065,0.3746 -4.0925,1.0445 0.3551,0.5745 -1.208,3.4995 -3.4734,6.5 -3.6781,4.8716 -5.0541,6.254 -5.0541,5.0776 z m 8.75,-13.2524 c 2.8231,-0.7566 2.8924,-1.9685 0.1536,-2.6847 -2.7055,-0.7075 -4.9036,0.1541 -4.9036,1.922 0,1.5073 1.2328,1.7053 4.75,0.7627 z M 80.767881,858.18362 c -2.2446,-2.5134 -5.5621,-10.0342 -7.2936,-16.5343 -1.8883,-7.0889 -1.4686,-17.0633 0.9561,-22.7198 9.0529,-21.11961 15.1506,-28.43187 27.900099,-33.45727 14.9618,-5.89736 35.159,-7.19607 49.5981,-3.18923 4.4,1.22099 8.675,2.39923 9.5,2.61831 3.5911,0.95361 15.9436,5.43172 17.9606,6.51119 4.1316,2.21118 1.3325,2.09072 -8.0757,-0.34752 -10.4831,-2.71681 -26.9677,-6.19508 -34.0156,-7.17734 -7.219,-1.0061 -14.521,1.03388 -23.3987,6.537 -4.3838,2.71749 -10.5111,6.28896 -13.6162,7.93662 -9.409399,4.99289 -14.082399,12.67974 -18.585399,30.57234 l -1.7617,7 -0.5456,-4 -0.5456,-4 -1.3412,5.6337 c -1.605,6.7421 -0.9553,10.9833 2.7715,18.0923 3.5119,6.6991 4.2915,8.774 3.2965,8.774 -0.4368,0 -1.6985,-1.0125 -2.8036,-2.25 z m 525.787399,-26 c -2.7265,-2.6676 -3.918,-3.4123 -3.2001,-2 0.6291,1.2375 0.7904,2.2379 0.3586,2.2231 -1.6802,-0.058 -7.6497,-5.8087 -7.8791,-7.5908 -0.1333,-1.0353 -0.5654,-3.0073 -0.9603,-4.3823 -0.6476,-2.2546 -0.2986,-2.1073 3.5542,1.5 4.208,3.9398 4.7058,3.5922 2.5065,-1.75 -1.1609,-2.8198 0.8907,-2.0327 5.6723,2.1762 4.0011,3.5219 6.8212,8.8716 6.8212,12.9398 0,2.2405 -2.606,1.059 -6.8733,-3.116 z m 32.6672,-16.25 c 0.3883,-1.65 0.6803,-6.1805 0.6487,-10.06784 -0.074,-9.11487 -2.342,-13.57701 -9.7889,-19.25942 -4.9801,-3.8001 -6.7358,-4.50441 -14.4123,-5.78164 -7.2326,-1.20337 -10.8609,-1.25268 -21.021,-0.28568 -6.7538,0.64279 -12.5218,0.92651 -12.8178,0.63048 -0.8504,-0.85039 14.4511,-6.42527 21.3251,-7.76951 4.9365,-0.96535 7.9428,-0.9562 14.5,0.0442 15.8224,2.41383 19.1763,5.07774 23.384,18.57331 3.0298,9.71762 2.9278,15.32189 -0.408,22.4161 -1.5265,3.2465 -1.9193,3.6643 -1.4098,1.5 z m -379.2939,-24.3881 c -4.4219,-1.14577 -9.1422,-3.8026 -13.3097,-7.49144 -2.0297,-1.79651 -6.7437,-4.95199 -10.4757,-7.01218 -8.183,-4.51733 -12.407,-8.57941 -16.671,-16.03211 -4.5923,-8.02643 -6.2217,-8.63359 -19.994,-7.45014 -14.6237,1.25661 -17.2931,0.8281 -9.5496,-1.53295 5.6366,-1.71863 18.171,-2.63517 21.5,-1.57211 1.2575,0.40156 1.4437,-0.65277 1.1516,-6.52099 -0.2754,-5.53365 -1.0054,-8.20592 -3.4846,-12.75676 -2.4183,-4.43912 -3.2839,-5.35466 -3.782,-4 -0.4623,1.25733 -0.8656,0.62715 -1.4186,-2.21668 -0.4251,-2.18539 -1.5182,-6.08991 -2.4291,-8.67673 -1.2677,-3.59961 -1.9882,-4.49821 -3.0704,-3.82935 -0.8723,0.53907 -1.6793,0.4448 -2.1063,-0.24602 -0.5008,-0.81034 -2.7967,-0.65751 -8.3048,0.55279 -4.187,0.92001 -8.3446,1.67275 -9.2392,1.67275 -1.4917,0 -1.4894,-0.1516 0.028,-1.82874 0.9102,-1.00581 1.655,-2.1972 1.655,-2.64753 0,-0.77435 -11.2166,-0.21386 -22.75,1.13681 -3.2669,0.38258 -5.25,0.23417 -5.25,-0.3929 0,-1.52952 7.2007,-3.04895 20.5,-4.32575 16.8196,-1.61478 21.0417,-2.37975 20.75,-3.75952 -0.1375,-0.6503 0.65,-1.18237 1.75,-1.18237 2.458,0 2.5507,-0.87686 0.269,-2.54524 -1.5198,-1.11132 -1.3978,-1.20204 1,-0.74367 3.6697,0.70151 3.6596,-1.8265 -0.019,-4.75566 l -2.75,-2.18973 3.25,0.6966 c 1.7875,0.38314 3.25,0.31098 3.25,-0.16034 0,-2.13435 -3.3198,-5.30196 -5.5567,-5.30196 -1.8114,0 -2.4433,-0.54032 -2.4433,-2.0892 0,-1.16844 -2.0288,-4.06099 -4.6034,-6.56322 -5.3757,-5.22456 -5.2111,-6.79035 0.2877,-2.73662 l 3.8157,2.81293 -2.4243,-2.71194 c -2.8322,-3.16817 -2.5245,-3.27545 3.0253,-1.05488 3.544,1.41804 4.6572,1.47054 7.7174,0.36395 3.5258,-1.27493 3.6223,-1.23848 6.864,2.59293 1.8083,2.13733 3.2945,4.22355 3.3027,4.63605 0.01,0.4125 0.4227,0.75 0.9212,0.75 0.4985,0 1.061,-4.3875 1.25,-9.75 0.2885,-8.18311 0.7856,-10.6499 3.0937,-15.34967 3.8862,-7.91319 3.7067,-8.72936 -2,-9.09554 -2.6125,-0.16763 -8.575,0.0521 -13.25,0.48828 -4.675,0.43619 -10.525,0.65003 -13,0.47522 -4.4377,-0.31346 -4.462,-0.33446 -1.75,-1.51832 4.4315,-1.93452 3.2555,-3.20048 -2.5,-2.6911 -5.0781,0.44943 -5.1441,0.42333 -2.015,-0.79711 4.2367,-1.65246 4.4186,-2.66945 0.765,-4.27828 l -3,-1.32104 3.2814,-0.0812 c 1.9876,-0.0492 3.5165,-0.69399 3.8777,-1.63535 0.3281,-0.85477 4.4764,-3.50449 9.2187,-5.88828 4.7422,-2.38378 9.5083,-5.31635 10.5914,-6.51682 1.8915,-2.09651 9.298,-5.93295 14.5308,-7.52664 2.0118,-0.61271 1.7189,-0.13448 -1.5,2.44891 -6.2319,5.00159 -6.2111,5.01788 1.9545,1.52891 3.3422,-1.42804 3.7584,-1.45339 2.6881,-0.16374 -1.0555,1.27175 -0.2236,1.2102 4.9938,-0.3695 3.4431,-1.0425 6.5056,-1.65006 6.8055,-1.35014 0.2999,0.29992 -1.0268,1.84858 -2.9483,3.44147 -4.3897,3.63902 -2.4848,3.77764 6.0342,0.43908 3.5238,-1.38098 6.8286,-2.37032 7.344,-2.19852 0.5154,0.17179 -1.3824,2.01501 -4.2174,4.09604 -2.8349,2.08103 -5.1544,3.98612 -5.1544,4.23353 0,0.24741 4.3508,-1.89563 9.6685,-4.76231 9.3591,-5.04535 10.3693,-5.03645 5.9327,0.0523 -2.0413,2.34148 -2.0442,2.38888 -0.1012,1.66428 1.1,-0.41021 3.125,-0.91534 4.5,-1.12251 1.375,-0.20718 5.1898,-1.49132 8.4773,-2.85367 6.74341,-2.79447 8.10291,-2.62901 4.12271,0.50177 -4.17641,3.28515 -2.5426,3.23926 4.9895,-0.14015 l 6.8773,-3.08564 -2.4834,2.72414 c -2.4883,2.72952 -1.6562,2.55543 3.0166,-0.63112 1.375,-0.93766 3.6019,-2.04757 4.9487,-2.46647 l 2.4486,-0.76163 -2.7397,3.256 c -1.5069,1.7908 -2.5125,3.48333 -2.2346,3.76117 0.2778,0.27784 3.0177,-0.51461 6.0886,-1.76099 l 5.5834,-2.26614 4.366,3.13541 c 4.4618,3.20428 6.1388,3.91493 5.039,2.13542 -0.911,-1.474 0.1142,-1.23748 4.6367,1.06976 5.2484,2.6775 5.9165,1.87686 1.7088,-2.04766 l -3.3455,-3.1203 6.3512,3.11458 c 3.4931,1.71301 6.6358,2.82995 6.9837,2.48208 0.3478,-0.34787 -0.4506,-2.51435 -1.7743,-4.81439 l -2.4068,-4.18191 6.0589,5.24892 c 3.3324,2.88691 6.4699,5.24892 6.9723,5.24892 0.5024,0 0.727,-1.59656 0.4992,-3.54792 -0.4038,-3.45881 -0.3422,-3.53068 2.4508,-2.86166 1.5758,0.37743 3.6229,1.074 4.5493,1.54791 2.5842,1.32203 4.8157,1.02623 4.8157,-0.63838 0,-2.11642 0.96,-1.85306 5.346,1.46657 3.1265,2.36639 4.2984,2.73893 6.2644,1.99144 2.4274,-0.92286 7.6649,-4.37274 10.184,-6.70801 1.919,-1.77891 2.4361,-1.55154 1.7056,0.75 -0.7639,2.40694 0.5316,2.55217 4.4929,0.50367 3.0374,-1.5707 4.4368,-0.78697 3.4034,1.90609 -0.9131,2.37952 1.4032,1.93671 4.794,-0.91645 1.6385,-1.37867 3.3909,-2.25212 3.8944,-1.94098 2.5668,1.58641 -0.9193,20.98124 -4.5247,25.17279 -2.4233,2.81727 -7.723,4.04937 -18.56,4.31495 -3.575,0.0876 -7.625,0.51958 -9,0.95993 -2.3282,0.74562 -2.2595,0.81562 1,1.01863 l 3.5,0.218 -3,0.76337 c -2.9858,0.75975 -2.9822,0.76393 0.75,0.88169 2.0625,0.0651 3.75,0.46521 3.75,0.8892 0,0.42398 -2.025,1.87708 -4.5,3.22911 -5.1296,2.80218 -5.6786,4 -1.8333,4 1.4666,0 2.3625,0.30412 1.9908,0.67581 -0.8008,0.80081 3.2124,5.31004 4.7668,5.35599 0.5916,0.0175 1.9757,0.73628 3.0757,1.59731 1.903,1.4896 1.8424,1.53269 -1.25,0.88874 l -3.25,-0.67676 0,11.99767 c 0,6.59871 -0.1512,12.59697 -0.3361,13.32945 -0.1849,0.73249 -0.1474,0.99429 0.083,0.58179 1.3114,-2.34492 1.7843,0.67966 2.0604,13.17824 0.3292,14.8972 -0.1362,16.82385 -6.1697,25.54108 -6.3487,9.17273 -9.2208,10.94897 -20.1659,12.47129 -6.191,0.86109 -8.7212,1.72726 -11.4587,3.92277 -1.9323,1.54972 -8.3469,5.2184 -14.2545,8.15263 -5.9077,2.93423 -10.5685,5.50763 -10.3575,5.71867 0.2111,0.21104 3.2064,-0.54292 6.6564,-1.67548 11.4174,-3.74814 11.6968,-1.7717 0.5495,3.8864 -6.6893,3.39528 -13.7947,4.90528 -26.9341,5.72389 -6.2589,0.38994 -7.7166,0.77487 -7.2766,1.92144 0.414,1.0788 -0.062,1.30694 -1.9232,0.92144 -7.12791,-1.47659 -7.99121,-1.5508 -6.34691,-0.5456 2.6561,1.62374 11.86071,3.73532 19.69841,4.51892 10.27,1.02677 15.1947,-0.52942 22.6752,-7.16518 3.8273,-3.39512 8.4191,-6.27478 12.6805,-7.95224 3.8061,-1.49822 8.0857,-4.07948 9.9462,-5.99901 3.7371,-3.85574 3.6666,-3.91327 -2.2415,-1.82877 -2.4014,0.84727 -3.9205,1.12406 -3.3757,0.61508 2.2228,-2.07677 17.575,-10.40441 18.1397,-9.8397 0.335,0.335 -3.1947,4.37028 -7.8437,8.96728 -6.7454,6.6699 -9.4144,8.62742 -13.2136,9.69111 -3.6718,1.02803 -5.2867,2.16602 -7.0599,4.97493 -2.3887,3.78399 -6.5384,6.09857 -14.532,8.1056 -3.4598,0.86868 -5.7133,2.43765 -9.7487,6.78753 l -5.2486,5.65768 -8.2514,0.19463 c -4.5382,0.10705 -9.60131,-0.15517 -11.25131,-0.58271 z m 18.34401,-1.66616 c 3.4942,-1.39813 6.156,-4.66631 6.156,-7.5585 0,-0.67478 -4.3277,-0.78338 -12.8205,-0.32171 -13.80171,0.75027 -14.69831,0.55468 -19.95121,-4.35225 -1.7622,-1.64614 -6.4589,-4.03164 -10.9274,-5.55015 -9.9507,-3.38145 -11.0922,-3.33908 -4.7199,0.17519 2.7946,1.54116 6.6196,3.9754 8.5,5.40942 5.1661,3.93962 16.8439,6.90529 26.69171,6.77855 4.5499,-0.0586 9.0499,-0.37967 10,-0.71357 1.4116,-0.49614 1.4981,-0.36016 0.4733,0.74404 -2.0102,2.16606 -19.01611,2.5503 -24.85281,0.56154 l -4.7382,-1.61449 2.3123,2.46136 c 4.7369,5.04225 16.37441,6.98237 23.87671,3.98057 z M 262.92858,772.7791 c -2.2,-0.8533 -6.8698,-2.87282 -10.3773,-4.48784 -3.5075,-1.61501 -6.5886,-2.72506 -6.8469,-2.46678 -1.072,1.072 15.5339,8.38186 19.2242,8.46241 1.10001,0.024 0.2,-0.6545 -2,-1.50779 z m 62.99871,-27.34336 c -0.9113,1.47441 2.0514,1.21264 6.2834,-0.55519 7.7594,-3.24127 11.307,-9.21497 7.6465,-12.87552 -1.4286,-1.42857 -1.3377,-1.57143 1,-1.57143 2.179,0 2.5714,0.44882 2.5714,2.94098 0,4.25909 1.4372,4.51453 4.567,0.8117 4.4071,-5.21391 6.6253,-11.30362 6.787,-18.63191 0.1851,-8.3954 -1.7591,-8.90536 -5.354,-1.40432 -2.9063,6.06429 -7.2698,10.75352 -22.75,24.44819 -6.1875,5.47384 -11.25,10.39959 -11.25,10.94613 0,0.54654 2.501,-0.37883 5.5577,-2.05639 3.0567,-1.67755 5.2802,-2.60106 4.941,-2.05224 z m -48.4987,-12.48529 c 0,-0.26574 -2.2947,-1.64599 -5.0994,-3.06724 -2.8047,-1.42124 -4.8549,-2.82863 -4.556,-3.12752 0.2989,-0.2989 3.0538,0.24616 6.1221,1.21124 3.0682,0.96509 5.8036,1.5297 6.0786,1.2547 0.275,-0.275 -2.0942,-1.31597 -5.2649,-2.31327 -8.2744,-2.60262 -5.0006,-2.94559 4.3073,-0.45125 10.0062,2.68145 21.6919,4.90667 22.6623,4.31541 2.851,-1.73701 -2.2304,-8.33892 -6.4183,-8.33892 -1.6627,0 -4.3622,-0.7875 -5.9988,-1.75 -2.5083,-1.47508 -2.886,-2.20165 -2.4043,-4.625 0.3143,-1.58125 0.5714,-3.59375 0.5714,-4.47222 0,-1.28752 0.4203,-1.1769 2.1677,0.57047 1.7666,1.76658 1.9392,2.44297 0.9331,3.65532 -1.014,1.22174 -0.8205,1.75558 1.0823,2.98681 2.107,1.36332 3.4595,1.77501 10.5669,3.21642 1.4226,0.2885 2.25,1.1848 2.25,2.43725 0,2.4927 3.3325,2.63195 8.9733,0.37497 4.3063,-1.72305 4.4955,-3.39402 0.3844,-3.39402 -1.5765,0 -2.3669,-0.46935 -2.1049,-1.25 0.2306,-0.6875 1.1443,-1.25546 2.0303,-1.26213 0.886,-0.007 3.0522,-1.35667 4.8138,-3 l 3.2028,-2.98787 -1.8473,3.21923 c -1.016,1.77058 -1.5752,3.49126 -1.2428,3.82374 2.152,2.15192 13.5814,-9.03917 12.3935,-12.13494 -0.8072,-2.1036 1.2303,-5.68593 2.8751,-5.05479 1.3883,0.53277 2.4842,-2.1422 2.5082,-6.12229 0.012,-1.92539 -0.3666,-2.17364 -2.4965,-1.63905 -1.8264,0.4584 -3.4426,-0.0812 -5.9333,-1.98095 -1.8827,-1.43602 -4.0157,-2.61784 -4.7399,-2.62626 -0.7242,-0.008 -1.9809,-0.43532 -2.7926,-0.94865 -1.2035,-0.76103 -1.0189,-1.10698 1,-1.87393 1.7918,-0.6807 2.9121,-0.55674 4.0546,0.44865 0.8684,0.76408 3.4558,1.38924 5.75,1.38924 4.4143,0 5.7225,1.56213 1.9213,2.29427 -1.3826,0.26629 -0.7948,0.48587 1.5248,0.56955 3.1924,0.11517 3.9251,-0.25951 4.75,-2.42892 1.5643,-4.11443 1.1984,-5.4349 -1.5058,-5.4349 -1.7709,0 -2.6115,-0.64389 -2.9372,-2.25 -0.251,-1.2375 -0.7339,-3.5503 -1.0731,-5.13955 l -0.6169,-2.88956 -6.4901,0.60606 c -5.2938,0.49434 -6.5987,0.32334 -7.0787,-0.92766 -0.3237,-0.84355 -0.079,-2.04348 0.5442,-2.66651 0.623,-0.62303 1.1328,-2.15917 1.1328,-3.41365 0,-2.12882 -0.3167,-2.24551 -4.75,-1.75045 l -4.75,0.53043 3.7048,-2.05027 c 2.849,-1.57662 3.8585,-2.86943 4.3701,-5.59618 0.806,-4.2965 -0.213,-5.66807 -2.1961,-2.95596 -1.2498,1.70921 -1.5926,1.7803 -2.403,0.49843 -0.5198,-0.82232 -0.9521,-2.25607 -0.9605,-3.18611 -0.029,-3.20599 -1.8257,-2.7959 -4.1293,0.94247 l -2.3097,3.74851 -0.5382,-3.76448 -0.5381,-3.76448 -3,4.76448 -3,4.76448 -0.2957,-6.75 c -0.1626,-3.7125 -0.6609,-6.75 -1.1073,-6.75 -0.4464,0 -3.3068,2.7 -6.3565,6 -3.0496,3.3 -6.0746,6 -6.7222,6 -0.8539,0 -0.9862,-1.78613 -0.4814,-6.5 0.4115,-3.84236 0.3156,-6.5 -0.2345,-6.5 -0.5119,0 -2.4679,2.05166 -4.3468,4.55925 -3.6675,4.89485 -5.1228,4.48686 -2.5305,-0.70945 0.8709,-1.74596 1.3439,-3.41418 1.0509,-3.70716 -0.293,-0.29299 -3.74,2.59256 -7.6601,6.41233 l -7.12741,6.94503 2.74391,-4.82851 c 1.5092,-2.65567 2.491,-5.08144 2.1818,-5.39059 -0.3091,-0.30914 -3.6066,1.54007 -7.32781,4.10936 -6.9443,4.79471 -8.9054,4.75013 -5.5288,-0.12568 3.7772,-5.45433 3.4509,-5.69084 -1.3994,-1.01458 -2.7098,2.6125 -5.2581,4.75 -5.6629,4.75 -0.4048,0 0.2046,-1.84361 1.3541,-4.09691 1.1496,-2.25329 1.9054,-4.28162 1.6796,-4.50739 -0.2257,-0.22577 -2.989,2.29284 -6.1405,5.59691 -3.1516,3.30406 -5.9003,6.00739 -6.1083,6.00739 -0.208,0 0.2991,-1.62091 1.1269,-3.60201 1.1737,-2.80901 1.2175,-3.50959 0.1989,-3.18217 -1.6534,0.53152 -8.4131,10.46775 -9.3721,13.77634 -0.6612,2.28123 -0.575,2.36987 1.0186,1.04724 1.5322,-1.27162 1.8553,-1.2407 2.694,0.25784 0.5241,0.93652 1.8305,1.70276 2.9032,1.70276 1.0727,0 1.9503,0.3949 1.9503,0.87756 0,1.81832 -3.439,3.62244 -6.9052,3.62244 l -3.5948,0 0.062,4.72814 c 0.034,2.60047 0.3391,5.0058 0.6785,5.34516 0.3394,0.33936 2.0094,0.31119 3.7113,-0.0626 2.2377,-0.49149 3.6248,-1.71964 5.011,-4.43669 1.4731,-2.88757 3.1187,-4.2566 7.1106,-5.91554 2.8566,-1.18716 6.1587,-2.15848 7.338,-2.15848 2.4495,0 6.5891,2.60495 6.5891,4.14641 0,0.56815 0.958,1.80874 2.1289,2.75687 2.30411,1.86572 3.66071,9.81489 2.47871,14.5243 -1.23051,4.90247 -9.98201,6.98457 -18.92251,4.50191 -4.649,-1.29096 -7.557,-4.03902 -8.322,-7.86437 -0.7524,-3.76142 -5.3631,-5.09276 -5.3631,-1.54856 0,1.23156 0.675,3.8547 1.5,5.82921 2.4845,5.94623 1.6758,5.51884 -2.0733,-1.09576 -1.9484,-3.4375 -4.006,-6.25 -4.5725,-6.25 -2.2263,0 1.9929,16.79829 4.8054,19.13248 1.3145,1.09088 1.9772,0.76307 4.3602,-2.15673 l 2.8101,-3.44312 1.2632,2.77232 c 0.6947,1.52478 1.8084,2.5631 2.4748,2.30738 0.718,-0.27553 1.4554,0.75418 1.8101,2.52764 0.3292,1.64592 0.9805,2.75652 1.4473,2.46801 1.0005,-0.61838 5.1747,2.10994 5.1747,3.3823 0,0.48228 -1.2375,1.02605 -2.75,1.20838 -2.7245,0.32842 -2.7129,0.35171 1.25,2.50928 l 4,2.17778 -3.75,-0.5737 c -4.7575,-0.72784 -4.7992,0.55955 -0.1505,4.64121 4.4592,3.91521 8.6593,3.93734 8.8768,0.0468 0.077,-1.375 1.3186,-4.20231 2.7594,-6.28292 1.4408,-2.0806 2.804,-4.3306 3.0293,-5 0.31101,-0.92377 0.81041,-0.88633 2.07241,0.15536 2.3806,1.96517 2.0607,3.63842 -1.0874,5.68741 -6.88751,4.48284 -7.05911,8.31206 -0.5,11.16262 10.0634,4.37355 11.25,4.77375 11.25,3.79438 z m 18,-17.51685 c -1.1689,-0.75538 -0.8929,-0.97275 1.25,-0.98469 1.5169,-0.008 2.7569,-0.57583 2.7653,-1.26531 0.01,-0.85778 0.3036,-0.79432 0.934,0.20225 1.7558,2.77542 -1.6457,4.18274 -4.9493,2.04775 z m 16.5742,-0.66722 c -0.3519,-0.91697 -0.175,-2.13197 0.393,-2.7 0.7104,-0.71037 1.0328,-0.18992 1.0328,1.66722 0,3.08485 -0.4995,3.44667 -1.4258,1.03278 z m 1.2422,-7.04483 c -0.2634,-2.2568 -1.0708,-2.93361 -4.8164,-4.03713 -2.475,-0.72918 -6.3,-1.5835 -8.5,-1.89848 -5.3325,-0.76347 -5.3944,-1.02543 -0.4403,-1.86242 3.593,-0.60703 5.1338,-0.22692 10.745,2.65071 7.1802,3.68223 8.3479,5.17217 5.3225,6.79132 -1.744,0.93332 -2.0341,0.72688 -2.3108,-1.644 z m -69.69221,5.81259 2.3457,-1.89946 -2.4849,-2.06727 c -2.992,-2.48905 -4.8399,-2.67556 -5.6478,-0.57004 -0.6817,1.77635 1.1505,6.43623 2.5306,6.43623 0.5008,0 1.9662,-0.85476 3.2564,-1.89946 z m 111.22581,-7.57023 c 0.2775,-0.72327 0.3468,-2.15098 0.1538,-3.17268 -0.1929,-1.0217 -0.4313,-2.53263 -0.5296,-3.35763 -0.098,-0.825 -0.5487,-0.15 -1.0007,1.5 -0.4519,1.65 -1.1351,4.01919 -1.5181,5.26486 -0.5491,1.78579 -0.37,2.1396 0.8468,1.67268 0.8487,-0.3257 1.7703,-1.18395 2.0478,-1.90723 z m -94.17871,-18.1853 c 1.0058,-0.91024 1.8287,-2.17053 1.8287,-2.80063 0,-2.39554 -2.5888,-6.49019 -4.7167,-7.46046 -1.8052,-0.82307 -2.78,-0.53684 -5.25,1.54156 -3.358,2.82551 -3.9392,6.32574 -1.4619,8.80309 2.0557,2.05567 7.2864,2.01014 9.5999,-0.0836 z m 78.65291,-12.47483 c -4.079,-2.58615 -5.3153,1.63875 -1.5742,5.37982 l 2.25,2.25 0.3242,-3.39514 c 0.195,-2.04185 -0.2036,-3.72977 -1,-4.23468 z m -8.6929,-5.33956 c 3.4411,-1.59427 5.6735,-2.12585 6.2993,-1.5 3.0172,3.01718 2.6985,-2.11936 -0.6156,-9.92216 -2.0542,-4.83632 -2.3372,-4.79955 -4.9551,0.64366 l -1.8025,3.74788 0.4731,-5 0.473,-5 -1.4257,3.5 c -1.3188,3.2378 -1.4313,3.30647 -1.5017,0.91667 -0.1194,-4.05422 -1.2063,-4.18928 -3.7374,-0.46441 -2.9547,4.34809 -2.9321,5.182 0.1613,5.95838 2.8298,0.71025 3.0585,1.98839 1,5.58936 -2.7533,4.81645 -1.9387,5.03787 5.6313,1.53062 z m -123.50341,69.32551 c -1.0687,-1.99121 -1.6586,-4.77957 -1.4503,-6.85613 0.342,-3.40937 0.3974,-3.3488 2.1405,2.33877 2.1396,6.98144 1.8056,9.16733 -0.6902,4.51736 z m -31.3571,-101.4603 c 0.3323,-0.33229 1.1948,-0.36781 1.9167,-0.0789 0.7977,0.31922 0.5608,0.55618 -0.6042,0.60416 -1.0541,0.0434 -1.6448,-0.19293 -1.3125,-0.52522 z m 124.22921,-15.10079 c -1.9078,-1.03333 -2.507,-1.78986 -1.6458,-2.07802 0.7448,-0.24922 2.3073,0.49999 3.4722,1.66492 2.5118,2.51181 2.1849,2.58574 -1.8264,0.4131 z m 44.5,-4.17311 c 0,-0.48295 -2.7,-1.88781 -6,-3.12193 -3.3,-1.23412 -6,-2.5889 -6,-3.01063 0,-1.40818 7.3929,-2.25984 18.1987,-2.09649 11.2883,0.17065 21.8869,-1.56643 18.2475,-2.9907 -1.0704,-0.41889 -3.5212,-0.80064 -5.4462,-0.84835 -1.925,-0.0477 -5.3,-1.17963 -7.5,-2.51541 -2.2,-1.33577 -5.575,-3.17116 -7.5,-4.07865 l -3.5,-1.64999 2.5,-1.09139 c 3.0373,-1.32596 70.5499,-1.63056 85.5,-0.38575 12.5239,1.0428 28.0186,0.89749 36.5,-0.34229 3.575,-0.52257 7.85,-0.90232 9.5,-0.84387 2.9256,0.10362 2.907,0.1323 -0.75,1.15625 -2.0625,0.5775 -3.75,1.33694 -3.75,1.68764 0,0.35071 8.4375,0.49888 18.75,0.32929 18.2453,-0.30006 18.6423,-0.26383 14.75,1.34605 -3.3026,1.36595 -9.0564,1.73554 -33,2.11971 -16.135,0.25889 -28.1128,0.82213 -27,1.26966 1.1,0.44239 4.925,0.8645 8.5,0.93802 5.4517,0.11212 6.0968,0.29762 4,1.15025 -1.5409,0.62659 -11.9593,0.88999 -27.1579,0.68661 -13.5619,-0.18148 -25.0193,0.0274 -25.461,0.46429 -0.4416,0.43684 0.5295,1.91836 2.158,3.29227 l 2.9609,2.49802 -4.3469,-2.11203 c -5.164,-2.50906 -6.3867,-1.91452 -3.1494,1.53143 2.954,3.14434 2.1928,3.13606 -4.0835,-0.0444 l -5.0134,-2.54046 1.5723,3.04046 c 1.9102,3.69402 1.1176,3.80999 -3.6939,0.54046 -4.4486,-3.02293 -5.1877,-3.12055 -3.7852,-0.5 1.373,2.56555 1.0927,2.5195 -2.9873,-0.49064 -3.2251,-2.37938 -3.4619,-2.41289 -5.3021,-0.75 -1.0594,0.95735 -2.8269,1.59152 -3.9277,1.40926 -1.1457,-0.18967 -1.737,0.0966 -1.383,0.66941 0.7298,1.18078 -3.1641,2.54781 -13.2153,4.63957 -7.9959,1.66404 -19.1846,2.03982 -19.1846,0.64433 z m 126.6774,-1.77794 c -0.2689,-0.23654 -6.595,-1.29692 -11.9022,-1.99507 -8.5556,-1.12546 -4.1495,-1.93334 10.9057,-1.99958 8.1505,-0.0359 12.8012,0.12689 10.3348,0.36168 l -4.4843,0.42688 2.4843,1.9256 2.4843,1.9256 -4.8226,-0.24455 c -2.6525,-0.1345 -4.9025,-0.31476 -5,-0.40056 z m -190.1089,-24.23321 c -0.3023,-0.48907 -1.6672,-1.16972 -3.0331,-1.51255 -1.366,-0.34283 -4.133,-1.74268 -6.149,-3.11078 -2.9315,-1.98937 -4.9089,-2.48745 -9.87521,-2.48745 -5.2823,0 -7.2405,-0.56011 -13.1105,-3.75 l -6.9007,-3.75 -11.5,0.13708 c -6.325,0.0754 -13.5128,0.6126 -15.9729,1.19378 -7.4154,1.75185 -5.6842,0.55156 3.1964,-2.21618 11.6343,-3.62594 17.1681,-3.97515 42.2765,-2.66783 42.24611,2.19962 59.87441,2.33676 83.00001,0.64568 12.1,-0.88482 25.6,-2.07145 30,-2.63695 34.8558,-4.47978 55.6595,-5.6845 69.1865,-4.00652 5.9474,0.73776 11.7858,1.457 12.9742,1.5983 1.1884,0.14131 7.7133,1.18646 14.5,2.32256 41.9032,7.01472 48.4709,7.71995 56.3639,6.05224 3.2865,-0.6944 10.7004,-1.31516 16.4754,-1.37947 6.50909,-0.0725 11.38769,-0.60872 12.83569,-1.41083 1.2846,-0.71164 2.5073,-1.12216 2.7172,-0.91225 0.21,0.20991 -2.2604,1.70887 -5.4895,3.33102 -3.2292,1.62215 -5.66299,3.28687 -5.40829,3.69937 0.2546,0.4125 2.12389,0.75689 4.15389,0.76531 7.7231,0.032 6.4892,1.73317 -2.1942,3.02505 -7.20109,1.07134 -9.06409,1.05617 -11.36399,-0.0925 -1.9398,-0.9689 -7.1728,-1.398 -17.7508,-1.45555 -9.3682,-0.051 -18.1914,-0.69245 -23.5,-1.70855 -16.986,-3.2512 -26.4646,-4.18819 -31.1105,-3.07536 l -4.3895,1.05143 4.5,0.18348 c 4.1148,0.16777 4.286,0.27224 2,1.22032 -1.6382,0.67943 -10.2562,0.81215 -25,0.38502 -16.5471,-0.47938 -24.4843,-0.30747 -30,0.64976 -4.3483,0.75463 -12.3327,1.15164 -19,0.94475 -29.0047,-0.90005 -54.9803,-0.58122 -65.747,0.80699 -8.789,1.13321 -13.3786,1.22244 -21,0.40828 -9.8515,-1.05238 -23.3572,-0.38495 -18.253,0.90204 1.375,0.34669 4.6787,0.91367 7.3417,1.25996 2.6629,0.34629 4.6229,0.84831 4.3556,1.11562 -0.2673,0.2673 -3.3379,0.88911 -6.8235,1.3818 -3.6777,0.51985 -6.811,1.54344 -7.4659,2.43898 -1.2361,1.69052 -3.9704,2.06001 -4.8394,0.65396 z"
         style="fill:#000000" />
    </g>
  </g>
  <path
     style="opacity:0.07999998;fill:#d9c6ed;fill-opacity:1;stroke:none"
     id="rect3256-3"
     inkscape:connector-curvature="0"
     d="m 14.89831,8.7395363 c -3.242433,0 -5.8437503,2.7674997 -5.8437503,6.1874997 l 0,49.0625 C 27.878614,50.130638 54.866224,40.195879 86.96081,42.208286 l 0,-27.28125 c 0,-3.420001 -2.63257,-6.1874997 -5.875,-6.1874997 l -66.1875,0 z" />
  <g
     id="layer1"
     style="display:inline">
    <path
       d="M 12,6 C 8.676,6 6,8.676 6,12 l 0,72 c 0,3.324 2.676,6 6,6 l 72,0 c 3.324,0 6,-2.676 6,-6 L 90,12 C 90,8.676 87.324,6 84,6 L 12,6 z m 5,7 62,0 c 2.216001,0 4,1.784 4,4 l 0,62 c 10e-7,2.216001 -1.784,4 -4,4 l -62,0 c -2.215999,10e-7 -4,-1.784 -4,-4 l 0,-62 c 0,-2.215999 1.784,-4 4,-4 z"
       inkscape:connector-curvature="0"
       id="rect2419"
       style="fill:url(#linearGradient4094);fill-opacity:1;fill-rule:nonzero;stroke:none" />
    <path
       d="M 12,6 C 8.676,6 6,8.676 6,12 l 0,2 0,68 0,2 c 0,0.334721 0.04135,0.6507 0.09375,0.96875 0.0487,0.295596 0.09704,0.596915 0.1875,0.875 0.00988,0.03038 0.020892,0.0636 0.03125,0.09375 0.098865,0.287771 0.2348802,0.547452 0.375,0.8125 0.1445918,0.273507 0.3156161,0.535615 0.5,0.78125 0.1843839,0.245635 0.3737765,0.473472 0.59375,0.6875 0.439947,0.428056 0.94291,0.814526 1.5,1.09375 0.278545,0.139612 0.5734731,0.246947 0.875,0.34375 -0.2562018,-0.100222 -0.4867109,-0.236272 -0.71875,-0.375 -0.00741,-0.0044 -0.023866,0.0045 -0.03125,0 -0.031933,-0.0193 -0.062293,-0.04251 -0.09375,-0.0625 -0.120395,-0.0767 -0.2310226,-0.163513 -0.34375,-0.25 -0.1061728,-0.0808 -0.2132809,-0.161112 -0.3125,-0.25 C 8.4783201,88.557317 8.3087904,88.373362 8.15625,88.1875 8.0486711,88.057245 7.9378561,87.922215 7.84375,87.78125 7.818661,87.74287 7.805304,87.69538 7.78125,87.65625 7.716487,87.553218 7.6510225,87.451733 7.59375,87.34375 7.4927417,87.149044 7.3880752,86.928049 7.3125,86.71875 7.30454,86.69694 7.288911,86.6782 7.28125,86.65625 7.2494249,86.5643 7.2454455,86.469419 7.21875,86.375 7.1884177,86.268382 7.1483606,86.171969 7.125,86.0625 7.0521214,85.720988 7,85.364295 7,85 L 7,83 7,15 7,13 C 7,10.218152 9.2181517,8 12,8 l 2,0 68,0 2,0 c 2.781848,0 5,2.218152 5,5 l 0,2 0,68 0,2 c 0,0.364295 -0.05212,0.720988 -0.125,1.0625 -0.04415,0.206893 -0.08838,0.397658 -0.15625,0.59375 -0.0077,0.02195 -0.0233,0.04069 -0.03125,0.0625 -0.06274,0.173739 -0.138383,0.367449 -0.21875,0.53125 -0.04158,0.0828 -0.07904,0.169954 -0.125,0.25 -0.0546,0.09721 -0.126774,0.18835 -0.1875,0.28125 -0.09411,0.140965 -0.204921,0.275995 -0.3125,0.40625 -0.143174,0.17445 -0.303141,0.346998 -0.46875,0.5 -0.01117,0.0102 -0.01998,0.02115 -0.03125,0.03125 -0.138386,0.125556 -0.285091,0.234436 -0.4375,0.34375 -0.102571,0.07315 -0.204318,0.153364 -0.3125,0.21875 -0.0074,0.0045 -0.02384,-0.0044 -0.03125,0 -0.232039,0.138728 -0.462548,0.274778 -0.71875,0.375 0.301527,-0.0968 0.596455,-0.204138 0.875,-0.34375 0.55709,-0.279224 1.060053,-0.665694 1.5,-1.09375 0.219973,-0.214028 0.409366,-0.441865 0.59375,-0.6875 0.184384,-0.245635 0.355408,-0.507743 0.5,-0.78125 0.14012,-0.265048 0.276135,-0.524729 0.375,-0.8125 0.01041,-0.03078 0.02133,-0.06274 0.03125,-0.09375 0.09046,-0.278085 0.1388,-0.579404 0.1875,-0.875 C 89.95865,84.6507 90,84.334721 90,84 l 0,-2 0,-68 0,-2 C 90,8.676 87.324,6 84,6 L 12,6 z"
       inkscape:connector-curvature="0"
       id="rect3728"
       style="opacity:0.5;fill:url(#linearGradient4096);fill-opacity:1;fill-rule:nonzero;stroke:none" />
    <path
       d="m 17,12 c -2.752703,0 -5,2.247297 -5,5 l 0,62 c 0,2.752703 2.247298,5 5,5 l 62,0 c 2.752703,0 5.000001,-2.247297 5,-5 l 0,-62 c 0,-2.752703 -2.247297,-5 -5,-5 l -62,0 z m 0,2 62,0 c 1.679298,0 3,1.320703 3,3 l 0,62 c 10e-7,1.679297 -1.320703,3 -3,3 l -62,0 c -1.679296,0 -3,-1.320703 -3,-3 l 0,-62 c 0,-1.679297 1.320703,-3 3,-3 z"
       inkscape:connector-curvature="0"
       id="rect3425"
       style="fill:url(#linearGradient4098);fill-opacity:1;fill-rule:nonzero;stroke:none" />
    <path
       d="M 12,90 C 8.676,90 6,87.324 6,84 L 6,82 6,14 6,12 c 0,-0.334721 0.04135,-0.6507 0.09375,-0.96875 0.0487,-0.295596 0.09704,-0.596915 0.1875,-0.875 C 6.29113,10.12587 6.302142,10.09265 6.3125,10.0625 6.411365,9.774729 6.5473802,9.515048 6.6875,9.25 6.8320918,8.976493 7.0031161,8.714385 7.1875,8.46875 7.3718839,8.223115 7.5612765,7.995278 7.78125,7.78125 8.221197,7.353194 8.72416,6.966724 9.28125,6.6875 9.559795,6.547888 9.8547231,6.440553 10.15625,6.34375 9.9000482,6.443972 9.6695391,6.580022 9.4375,6.71875 c -0.00741,0.0044 -0.023866,-0.0045 -0.03125,0 -0.031933,0.0193 -0.062293,0.04251 -0.09375,0.0625 -0.120395,0.0767 -0.2310226,0.163513 -0.34375,0.25 -0.1061728,0.0808 -0.2132809,0.161112 -0.3125,0.25 C 8.4783201,7.442683 8.3087904,7.626638 8.15625,7.8125 8.0486711,7.942755 7.9378561,8.077785 7.84375,8.21875 7.818661,8.25713 7.805304,8.30462 7.78125,8.34375 7.716487,8.446782 7.6510225,8.548267 7.59375,8.65625 7.4927417,8.850956 7.3880752,9.071951 7.3125,9.28125 7.30454,9.30306 7.288911,9.3218 7.28125,9.34375 7.2494249,9.4357 7.2454455,9.530581 7.21875,9.625 7.1884177,9.731618 7.1483606,9.828031 7.125,9.9375 7.0521214,10.279012 7,10.635705 7,11 l 0,2 0,68 0,2 c 0,2.781848 2.2181517,5 5,5 l 2,0 68,0 2,0 c 2.781848,0 5,-2.218152 5,-5 l 0,-2 0,-68 0,-2 C 89,10.635705 88.94788,10.279012 88.875,9.9375 88.83085,9.730607 88.78662,9.539842 88.71875,9.34375 88.71105,9.3218 88.69545,9.30306 88.6875,9.28125 88.62476,9.107511 88.549117,8.913801 88.46875,8.75 88.42717,8.6672 88.38971,8.580046 88.34375,8.5 88.28915,8.40279 88.216976,8.31165 88.15625,8.21875 88.06214,8.077785 87.951329,7.942755 87.84375,7.8125 87.700576,7.63805 87.540609,7.465502 87.375,7.3125 87.36383,7.3023 87.35502,7.29135 87.34375,7.28125 87.205364,7.155694 87.058659,7.046814 86.90625,6.9375 86.803679,6.86435 86.701932,6.784136 86.59375,6.71875 c -0.0074,-0.0045 -0.02384,0.0044 -0.03125,0 -0.232039,-0.138728 -0.462548,-0.274778 -0.71875,-0.375 0.301527,0.0968 0.596455,0.204138 0.875,0.34375 0.55709,0.279224 1.060053,0.665694 1.5,1.09375 0.219973,0.214028 0.409366,0.441865 0.59375,0.6875 0.184384,0.245635 0.355408,0.507743 0.5,0.78125 0.14012,0.265048 0.276135,0.524729 0.375,0.8125 0.01041,0.03078 0.02133,0.06274 0.03125,0.09375 0.09046,0.278085 0.1388,0.579404 0.1875,0.875 C 89.95865,11.3493 90,11.665279 90,12 l 0,2 0,68 0,2 c 0,3.324 -2.676,6 -6,6 l -72,0 z"
       inkscape:connector-curvature="0"
       id="path3615"
       style="opacity:0.4;fill:url(#radialGradient4100);fill-opacity:1;fill-rule:nonzero;stroke:none" />
    <rect
       width="66"
       height="66"
       rx="12"
       ry="12"
       x="15"
       y="15"
       clip-path="url(#clipPath3613-5)"
       id="rect3171"
       style="opacity:0.1;fill:url(#linearGradient4102);fill-opacity:1;fill-rule:nonzero;stroke:#ffffff;stroke-width:0.5;stroke-linecap:round;stroke-linejoin:miter;stroke-miterlimit:4;stroke-opacity:1;stroke-dasharray:none;stroke-dashoffset:0;filter:url(#filter3794-2)" />
  </g>
</svg>
