<?xml version="1.0" encoding="UTF-8" standalone="no"?>
<!-- Created with Inkscape (http://www.inkscape.org/) -->

<svg
   xmlns:dc="http://purl.org/dc/elements/1.1/"
   xmlns:cc="http://creativecommons.org/ns#"
   xmlns:rdf="http://www.w3.org/1999/02/22-rdf-syntax-ns#"
   xmlns:svg="http://www.w3.org/2000/svg"
   xmlns="http://www.w3.org/2000/svg"
   xmlns:xlink="http://www.w3.org/1999/xlink"
   xmlns:sodipodi="http://sodipodi.sourceforge.net/DTD/sodipodi-0.dtd"
   xmlns:inkscape="http://www.inkscape.org/namespaces/inkscape"
   version="1.0"
   width="96"
   height="96"
   id="svg2408"
   inkscape:version="0.48.2 r9819"
   sodipodi:docname="dbusmanager.svg"
   inkscape:export-filename="/home/buckstabu/Dropbox/Public/lcicons/lcproto2.png"
   inkscape:export-xdpi="90"
   inkscape:export-ydpi="90">
  <sodipodi:namedview
     pagecolor="#ffffff"
     bordercolor="#666666"
     borderopacity="1"
     objecttolerance="10"
     gridtolerance="10"
     guidetolerance="10"
     inkscape:pageopacity="0"
     inkscape:pageshadow="2"
     inkscape:window-width="1920"
     inkscape:window-height="1145"
     id="namedview68"
     showgrid="false"
     inkscape:zoom="3.3333333"
     inkscape:cx="87.825226"
     inkscape:cy="72.860509"
     inkscape:window-x="1678"
     inkscape:window-y="32"
     inkscape:window-maximized="1"
     inkscape:current-layer="svg2408" />
  <defs
     id="defs2410">
    <linearGradient
       id="linearGradient4017">
      <stop
         style="stop-color:#ff6600;stop-opacity:1;"
         offset="0"
         id="stop4019" />
      <stop
         style="stop-color:#ff1e00;stop-opacity:1;"
         offset="1"
         id="stop4021" />
    </linearGradient>
    <linearGradient
       x1="45.447727"
       y1="92.539597"
       x2="45.447727"
       y2="7.0165396"
       id="ButtonShadow"
       gradientUnits="userSpaceOnUse"
       gradientTransform="scale(1.0058652,0.994169)">
      <stop
         id="stop3750"
         style="stop-color:#000000;stop-opacity:1"
         offset="0" />
      <stop
         id="stop3752"
         style="stop-color:#000000;stop-opacity:0.58823532"
         offset="1" />
    </linearGradient>
    <filter
       color-interpolation-filters="sRGB"
       id="filter3174">
      <feGaussianBlur
         id="feGaussianBlur3176"
         stdDeviation="1.71" />
    </filter>
    <linearGradient
       id="linearGradient3224-6">
      <stop
         id="stop3226-2"
         style="stop-color:#42394b;stop-opacity:1"
         offset="0" />
      <stop
         id="stop3228-1"
         style="stop-color:#000000;stop-opacity:1"
         offset="1" />
    </linearGradient>
    <linearGradient
       id="linearGradient3187-5">
      <stop
         id="stop3189-3"
         style="stop-color:#b4b4b4;stop-opacity:1"
         offset="0" />
      <stop
         id="stop3191-2"
         style="stop-color:#e6e6e6;stop-opacity:1"
         offset="1" />
    </linearGradient>
    <linearGradient
       id="linearGradient3737-9">
      <stop
         id="stop3739-7"
         style="stop-color:#ffffff;stop-opacity:1"
         offset="0" />
      <stop
         id="stop3741-6"
         style="stop-color:#ffffff;stop-opacity:0"
         offset="1" />
    </linearGradient>
    <linearGradient
       id="linearGradient3465-2">
      <stop
         id="stop3467-0"
         style="stop-color:#919191;stop-opacity:1"
         offset="0" />
      <stop
         id="stop3469-6"
         style="stop-color:#fdfdfd;stop-opacity:1"
         offset="1" />
    </linearGradient>
    <linearGradient
       id="linearGradient3737-7-3">
      <stop
         id="stop3739-2-3"
         style="stop-color:#ffffff;stop-opacity:1"
         offset="0" />
      <stop
         id="stop3741-7-6"
         style="stop-color:#ffffff;stop-opacity:0"
         offset="1" />
    </linearGradient>
    <linearGradient
       id="linearGradient3737-4-0">
      <stop
         id="stop3739-8-4"
         style="stop-color:#ffffff;stop-opacity:1"
         offset="0" />
      <stop
         id="stop3741-71-8"
         style="stop-color:#ffffff;stop-opacity:0"
         offset="1" />
    </linearGradient>
    <clipPath
       id="clipPath3613-5">
      <rect
         width="84"
         height="84"
         rx="6"
         ry="6"
         x="6"
         y="6"
         id="rect3615-1"
         style="fill:#ffffff;fill-opacity:1;fill-rule:nonzero;stroke:none" />
    </clipPath>
    <filter
       x="-0.192"
       y="-0.192"
       width="1.3839999"
       height="1.3839999"
       color-interpolation-filters="sRGB"
       id="filter3794-2">
      <feGaussianBlur
         id="feGaussianBlur3796-9"
         stdDeviation="5.28" />
    </filter>
    <linearGradient
       inkscape:collect="always"
       xlink:href="#linearGradient3187-5"
       id="linearGradient4094"
       gradientUnits="userSpaceOnUse"
       x1="48"
       y1="90"
       x2="48"
       y2="5.9877172" />
    <linearGradient
       inkscape:collect="always"
       xlink:href="#linearGradient3737-9"
       id="linearGradient4096"
       gradientUnits="userSpaceOnUse"
       x1="36.357143"
       y1="6"
       x2="36.357143"
       y2="63.893143" />
    <linearGradient
       inkscape:collect="always"
       xlink:href="#linearGradient3465-2"
       id="linearGradient4098"
       gradientUnits="userSpaceOnUse"
       gradientTransform="matrix(1.0294118,0,0,1.0294118,-1.4117647,-1.411765)"
       x1="43.17857"
       y1="13"
       x2="43.17857"
       y2="83.294571" />
    <radialGradient
       inkscape:collect="always"
       xlink:href="#linearGradient3737-7-3"
       id="radialGradient4100"
       gradientUnits="userSpaceOnUse"
       gradientTransform="matrix(1.1573129,0,0,0.99590774,-7.551021,0.1971319)"
       cx="48"
       cy="90.171875"
       fx="48"
       fy="90.171875"
       r="42" />
    <linearGradient
       inkscape:collect="always"
       xlink:href="#linearGradient3737-4-0"
       id="linearGradient4102"
       gradientUnits="userSpaceOnUse"
       x1="48"
       y1="20.220806"
       x2="48"
       y2="138.66119" />
    <radialGradient
       inkscape:collect="always"
       xlink:href="#linearGradient3224-6"
       id="radialGradient4113"
       gradientUnits="userSpaceOnUse"
       gradientTransform="matrix(1.3830053,-1.0350102e-8,0,1.3123934,-17.140614,-23.729195)"
       cx="47.098362"
       cy="78.286942"
       fx="47.098362"
       fy="78.286942"
       r="38.957481" />
    <filter
       id="filter3174-6"
       color-interpolation-filters="sRGB">
      <feGaussianBlur
         stdDeviation="1.71"
         id="feGaussianBlur3176-7" />
    </filter>
    <linearGradient
       gradientTransform="scale(1.0058652,0.994169)"
       gradientUnits="userSpaceOnUse"
       id="ButtonShadow-7"
       y2="7.0165396"
       x2="45.447727"
       y1="92.539597"
       x1="45.447727">
      <stop
         offset="0"
         style="stop-color:#000000;stop-opacity:1"
         id="stop3750-1" />
      <stop
         offset="1"
         style="stop-color:#000000;stop-opacity:0.58823532"
         id="stop3752-1" />
    </linearGradient>
    <linearGradient
       inkscape:collect="always"
       xlink:href="#linearGradient4017"
       id="linearGradient3067"
       gradientUnits="userSpaceOnUse"
       gradientTransform="matrix(0.98823529,0,0,0.98823529,-133.83529,-11.135292)"
       x1="66.517784"
       y1="6.2999992"
       x2="66.81778"
       y2="148.69696" />
    <filter
       id="filter3174-4"
       color-interpolation-filters="sRGB">
      <feGaussianBlur
         stdDeviation="1.71"
         id="feGaussianBlur3176-3" />
    </filter>
    <linearGradient
       gradientTransform="scale(1.0058652,0.994169)"
       gradientUnits="userSpaceOnUse"
       id="ButtonShadow-1"
       y2="7.0165396"
       x2="45.447727"
       y1="92.539597"
       x1="45.447727">
      <stop
         offset="0"
         style="stop-color:#000000;stop-opacity:1"
         id="stop3750-9" />
      <stop
         offset="1"
         style="stop-color:#000000;stop-opacity:0.58823532"
         id="stop3752-0" />
    </linearGradient>
  </defs>
  <metadata
     id="metadata2413">
    <rdf:RDF>
      <cc:Work
         rdf:about="">
        <dc:format>image/svg+xml</dc:format>
        <dc:type
           rdf:resource="http://purl.org/dc/dcmitype/StillImage" />
        <dc:title />
      </cc:Work>
    </rdf:RDF>
  </metadata>
  <g
     id="layer2-6"
     style="display:none"
     transform="translate(93.10736,40.263961)">
    <rect
       width="86"
       height="85"
       rx="6"
       ry="6"
       x="5"
       y="7"
       id="rect3745-0"
       style="opacity:0.9;fill:url(#ButtonShadow-7);fill-opacity:1;fill-rule:nonzero;stroke:none;filter:url(#filter3174-6)" />
  </g>
  <path
     style="opacity:0.6;color:#000000;fill:#000000;fill-opacity:1;fill-rule:nonzero;stroke:none;stroke-width:1;marker:none;visibility:visible;display:inline;overflow:visible;enable-background:accumulate"
     id="rect3977-9"
     inkscape:connector-curvature="0"
     d="m 17.89831,14.489536 c -1.662,0 -3,1.338 -3,3 l 0,62 c 0,1.662 1.338,3 3,3 l 62,0 c 1.662,0 3,-1.338 3,-3 l 0,-62 c 0,-1.662 -1.338,-3 -3,-3 l -62,0 z m 0,0.96875 62,0 c 1.140081,0 2.03125,0.891169 2.03125,2.03125 l 0,62 c 0,1.140081 -0.891169,2.03125 -2.03125,2.03125 l -62,0 c -1.140081,0 -2.03125,-0.891169 -2.03125,-2.03125 l 0,-62 c 0,-1.140081 0.891169,-2.03125 2.03125,-2.03125 z" />
  <g
     id="layer2"
     style="display:none">
    <rect
       width="86"
       height="85"
       rx="6"
       ry="6"
       x="5"
       y="7"
       id="rect3745"
       style="opacity:0.9;fill:url(#ButtonShadow);fill-opacity:1;fill-rule:nonzero;stroke:none;filter:url(#filter3174)" />
  </g>
  <rect
     style="fill:url(#radialGradient4113);fill-opacity:1;stroke:none"
     id="rect3461-7"
     y="8.743969"
     x="9.0391903"
     ry="6.1732869"
     rx="5.8527675"
     height="78.516495"
     width="77.914963" />
  <path
     style="font-size:medium;font-style:normal;font-variant:normal;font-weight:normal;font-stretch:normal;text-indent:0;text-align:start;text-decoration:none;line-height:normal;letter-spacing:normal;word-spacing:normal;text-transform:none;direction:ltr;block-progression:tb;writing-mode:lr-tb;text-anchor:start;opacity:0.15;color:#000000;fill:#000000;fill-opacity:1;stroke:none;stroke-width:4;marker:none;visibility:visible;display:inline;overflow:visible;enable-background:accumulate;font-family:Abandoned Bitplane;-inkscape-font-specification:Abandoned Bitplane"
     id="rect3222-3-8"
     inkscape:connector-curvature="0"
     d="m 19.89831,13.489536 c -3.289406,0 -6,2.710594 -6,6 l 0,58 c 0,3.289406 2.710594,6 6,6 l 58,0 c 3.289406,0 6,-2.710594 6,-6 l 0,-58 c 0,-3.289406 -2.710594,-6 -6,-6 l -58,0 z m 0,4 58,0 c 1.142594,0 2,0.857406 2,2 l 0,58 c 0,1.142594 -0.857406,2 -2,2 l -58,0 c -1.142594,0 -2,-0.857406 -2,-2 l 0,-58 c 0,-1.142594 0.857406,-2 2,-2 z" />
  <path
     style="opacity:0.3;color:#000000;fill:#000000;fill-opacity:1;fill-rule:nonzero;stroke:none;stroke-width:1;marker:none;visibility:visible;display:inline;overflow:visible;enable-background:accumulate"
     id="rect3981-0"
     inkscape:connector-curvature="0"
     d="m 17.89831,14.489536 c -1.662,0 -3,1.338 -3,3 l 0,62 c 0,1.662 1.338,3 3,3 l 62,0 c 1.662,0 3,-1.338 3,-3 l 0,-62 c 0,-1.662 -1.338,-3 -3,-3 l -62,0 z m 0,1.9375 62,0 c 0.618163,0 1.0625,0.444337 1.0625,1.0625 l 0,62 c 0,0.618163 -0.444337,1.0625 -1.0625,1.0625 l -62,0 c -0.618163,0 -1.0625,-0.444337 -1.0625,-1.0625 l 0,-62 c 0,-0.618163 0.444337,-1.0625 1.0625,-1.0625 z" />
  <g
     id="g5172"
     transform="translate(134.4,11.699999)">
    <g
       style="display:none"
       id="layer2-3">
      <rect
         style="opacity:0.9;fill:url(#ButtonShadow-1);fill-opacity:1;fill-rule:nonzero;stroke:none;filter:url(#filter3174-4)"
         id="rect3745-3"
         y="7"
         x="5"
         ry="6"
         rx="6"
         height="85"
         width="86" />
    </g>
    <path
       d="m -118.23971,-5.2058798 c -5.71317,3.0756911 -9.60441,9.1166167 -9.60441,16.0588228 0,10.061744 8.15885,18.220588 18.22059,18.220588 10.061747,0 18.220587,-8.158844 18.220587,-18.220588 0,-6.9422061 -3.89124,-12.9831317 -9.604407,-16.0588228 l -17.23236,0 z m 24.489707,0 c 4.04981,4.0807637 6.54706,9.7033497 6.54706,15.9044108 0,12.464344 -10.11066,22.575 -22.574997,22.575 -7.4165,1e-6 -14.01217,-3.585142 -18.12794,-9.110294 l 0,7.782353 0.21617,-0.154412 0.43236,-0.525 2.16176,1.667648 -0.40147,0.555882 -0.61765,1.729412 -0.37058,2.686764 1.54411,0.864706 2.13089,-1.636764 1.17353,-1.420589 0.30882,-0.617647 2.50147,1.05 -0.24706,0.64853 -0.15441,1.822058 0.37059,2.686765 1.69853,0.463235 1.66764,-2.161764 0.74118,-1.667647 0.12353,-0.679412 2.71765,0.370588 -0.0618,0.64853 0.27794,1.822058 1.05,2.501471 1.7603,0 1.05,-2.501471 0.30882,-1.822058 -0.0618,-0.64853 2.68676,-0.370588 0.12353,0.679412 0.77206,1.667647 1.63676,2.161764 1.69853,-0.463235 0.37059,-2.686765 -0.18529,-1.822058 -0.21618,-0.64853 2.501467,-1.05 0.30882,0.617647 1.14265,1.420589 2.16177,1.636764 1.51323,-0.864706 -0.3397,-2.686764 -0.64853,-1.729412 -0.37059,-0.555882 2.16176,-1.667648 0.43236,0.525 1.48235,1.05 2.53235,1.05 1.2353,-1.266176 -1.05,-2.501471 -1.05,-1.482353 -0.525,-0.432352 1.66764,-2.161765 0.55589,0.370588 1.72941,0.648529 2.68676,0.339706 0.86471,-1.513235 -1.63677,-2.161765 -1.42059,-1.173529 -0.61764,-0.247059 1.05,-2.532353 0.64853,0.216177 1.82206,0.185294 2.68676,-0.370588 0.43235,-1.69853 -2.13088,-1.667647 -1.66765,-0.741176 -0.67941,-0.12353 0.37059,-2.717647 0.67941,0.06177 1.79118,-0.308824 2.50147,-1.019117 0,-1.7602941 -2.50147,-1.05 -1.79118,-0.308824 -0.67941,0.06176 -0.37059,-2.717647 0.67941,-0.12353 1.66765,-0.741176 2.13088,-1.667647 -0.43235,-1.69853 -2.68676,-0.339706 -1.82206,0.154412 -0.64853,0.247059 -1.05,-2.53235301 0.61764,-0.27794099 1.42059,-1.1735296 1.63677,-2.130882 -0.40147,-0.7411761 -4.3853,0 -0.49411,0.185294 -0.55589,0.4014701 -0.46323,-0.5867641 -5.74412,0 z m -15.873527,2.5941171 c 7.44293,0 13.464707,6.0217726 13.464707,13.4647057 0,7.442934 -6.021777,13.495588 -13.464707,13.495588 -7.44293,0 -13.49559,-6.052654 -13.49559,-13.495588 0,-7.4429331 6.05266,-13.4647057 13.49559,-13.4647057 z m 43.080877,27.8867647 -1.17353,2.779412 -0.3397,1.97647 0.0618,0.772059 -2.99559,0.370588 -0.12353,-0.710294 -0.83382,-1.852941 -1.85298,-2.377941 -1.85294,0.494118 -0.40147,2.964705 0.18529,2.038236 0.24706,0.679412 -2.77941,1.173529 -0.30882,-0.679412 -1.29706,-1.575 -2.40883,-1.822059 -1.66764,0.988236 0.40147,2.995588 0.67941,1.852941 0.43235,0.648529 -2.37794,1.822059 -0.49412,-0.555882 -1.63676,-1.204412 -2.77941,-1.111765 -1.38971,1.358824 1.14265,2.779412 1.17353,1.636764 0.58676,0.494118 -1.85294,2.408824 -0.61765,-0.432353 -1.88382,-0.710294 -2.96471,-0.401471 -0.98823,1.698529 1.82206,2.377942 1.575,1.297058 0.64853,0.308824 -1.14265,2.779412 -0.71029,-0.247059 -2.00736,-0.185294 -2.9647,0.40147 -0.525,1.883824 2.37794,1.822059 1.85294,0.833823 0.74118,0.154412 -0.40147,2.995588 -0.74118,-0.06176 -2.00735,0.308823 -2.779417,1.173529 0,1.945589 2.779417,1.142647 2.00735,0.339706 0.74118,-0.06177 0.40147,2.995588 -0.74118,0.154412 -1.85294,0.802941 -2.37794,1.852941 0.525,1.883826 2.9647,0.40147 2.00736,-0.21618 0.71029,-0.24706 1.14265,2.77942 -0.64853,0.3397 -1.575,1.26618 -1.82206,2.40882 0.24706,0.40147 5.86764,0 0.33971,-0.24706 0.18529,0.24706 6.14559,0 c -1.27999,-1.35906 -2.41113,-2.86059 -3.36617,-4.47794 l 10.77794,-4.941176 c 2.28914,3.179626 5.94406,5.318886 10.09853,5.558826 l 0.525,3.86029 5.15735,0 -0.61765,-4.5397 c 3.74347,-1.26959 6.75101,-4.148083 8.18383,-7.81324 l 8.2147,1.513235 0,-5.219117 -7.28823,-1.327941 c -0.0498,-4.183774 -2.04461,-7.892201 -5.09559,-10.314706 l 5.43529,-10.530883 c 2.73545,1.792349 5.09637,4.108142 6.94853,6.794118 l 0,-9.727941 -0.83382,0.617647 -0.49412,0.555882 -2.37794,-1.822059 0.40147,-0.648529 0.74118,-1.852941 0.37059,-2.995588 -1.69853,-0.988236 -2.37795,1.822059 -1.26617,1.575 -0.33971,0.679412 -2.77941,-1.173529 0.24706,-0.679412 0.21618,-2.038236 -0.43236,-2.964705 -1.85294,-0.494118 -1.85294,2.377941 -0.83382,1.852941 -0.12353,0.710294 -2.99559,-0.370588 0.0618,-0.772059 -0.3397,-1.97647 -1.14265,-2.779412 -1.94559,0 z m 0.95736,10.191176 c 3.24605,0 6.35449,0.638355 9.20294,1.760295 l -5.4353,10.5 c -1.19522,-0.350122 -2.45969,-0.525 -3.76764,-0.525 -2.59346,0 -5.02039,0.729384 -7.07206,2.007353 l -8.0603,-8.677942 c 4.21045,-3.179299 9.45417,-5.064706 15.13236,-5.064706 z m -48.176467,6.238236 -0.95736,2.069117 -0.0618,0.710295 0.18529,1.235294 -2.22353,0.586764 -0.43235,-1.173529 -0.43235,-0.586765 -1.82206,-1.327941 -1.08088,0.617647 0.21617,2.254412 0.30883,0.648529 0.77205,0.988236 -1.60588,1.605882 -0.98823,-0.772059 -0.64853,-0.308823 -2.25441,-0.216177 -0.61765,1.05 1.32794,1.822059 0.58676,0.432353 1.14265,0.463235 -0.58676,2.192647 -1.2353,-0.185294 -0.74117,0.06177 -2.03824,0.92647 0,1.235295 2.03824,0.92647 0.74117,0.06176 1.2353,-0.154412 0.58676,2.192647 -1.17353,0.463235 -0.58676,0.401471 -1.32794,1.852941 0.58676,1.05 2.25441,-0.216176 0.67941,-0.308824 0.98824,-0.772059 1.60588,1.605883 -0.80294,0.988235 -0.30882,0.679412 -0.21618,2.223529 1.05,0.617647 1.85294,-1.297059 0.40147,-0.586764 0.49412,-1.17353 2.19265,0.586765 -0.1853,1.235294 0.0618,0.741177 0.92647,2.069117 1.20441,0 0.95735,-2.069117 0.0618,-0.710295 -0.1853,-1.266176 2.19265,-0.555882 0.46324,1.142647 0.43235,0.617647 1.82206,1.297059 1.05,-0.586765 -0.21618,-2.254412 -0.27794,-0.648529 -0.77206,-0.988236 1.60588,-1.605882 0.98824,0.772059 0.64853,0.308823 2.25441,0.216177 0.61765,-1.05 -1.32794,-1.822059 -0.58677,-0.432353 -1.17353,-0.463235 0.61765,-2.192647 1.23529,0.185294 0.7103,-0.06177 2.069107,-0.92647 0,-1.235295 -2.038227,-0.92647 -0.74118,-0.0926 -1.23529,0.185294 -0.58677,-2.192647 1.17353,-0.463235 0.58677,-0.432353 1.32794,-1.822108 -0.61765,-1.05 -2.22353,0.216176 -0.67941,0.308824 -0.98823,0.772059 -1.60589,-1.636765 0.80294,-0.957353 0.27795,-0.679412 0.24705,-2.223529 -1.05,-0.617647 -1.85294,1.297059 -0.43235,0.586764 -0.46323,1.17353 -2.19265,-0.586765 0.18529,-1.266176 -0.0618,-0.710295 -0.92647,-2.069117 -1.20441,0 z m 29.276467,2.316176 8.06029,8.677941 c -1.61641,2.212936 -2.56324,4.926719 -2.56324,7.875 0,1.088413 0.15606,2.167556 0.40148,3.180883 l -10.77795,4.910294 c -0.86733,-2.543263 -1.35882,-5.256236 -1.35882,-8.091177 0,-6.345241 2.35194,-12.130743 6.23824,-16.552941 z m -28.751467,8.276471 c 1.79181,0 3.24264,1.450828 3.24264,3.242647 0,1.791819 -1.45083,3.242647 -3.24264,3.242647 -1.79182,0 -3.24265,-1.450828 -3.24265,-3.242647 0,-1.791819 1.45083,-3.242647 3.24265,-3.242647 z m 47.651467,3.242647 c 2.75664,0 5.00294,2.215416 5.00294,4.972059 0,2.756643 -2.2463,5.002941 -5.00294,5.002941 -2.75665,0 -4.97206,-2.246298 -4.97206,-5.002941 0,-2.756643 2.21541,-4.972059 4.97206,-4.972059 z"
       inkscape:connector-curvature="0"
       id="path6159"
       style="fill:url(#linearGradient3067);fill-opacity:1;stroke:#000000;stroke-width:0.98823529;stroke-opacity:1;display:inline" />
  </g>
  <path
     style="opacity:0.07999998;fill:#d9c6ed;fill-opacity:1;stroke:none"
     id="rect3256-3"
     inkscape:connector-curvature="0"
     d="m 14.89831,8.7395363 c -3.242433,0 -5.8437503,2.7674997 -5.8437503,6.1874997 l 0,49.0625 C 27.878614,50.130638 54.866224,40.195879 86.96081,42.208286 l 0,-27.28125 c 0,-3.420001 -2.63257,-6.1874997 -5.875,-6.1874997 l -66.1875,0 z" />
  <g
     id="layer1"
     style="display:inline">
    <path
       d="M 12,6 C 8.676,6 6,8.676 6,12 l 0,72 c 0,3.324 2.676,6 6,6 l 72,0 c 3.324,0 6,-2.676 6,-6 L 90,12 C 90,8.676 87.324,6 84,6 L 12,6 z m 5,7 62,0 c 2.216001,0 4,1.784 4,4 l 0,62 c 10e-7,2.216001 -1.784,4 -4,4 l -62,0 c -2.215999,10e-7 -4,-1.784 -4,-4 l 0,-62 c 0,-2.215999 1.784,-4 4,-4 z"
       inkscape:connector-curvature="0"
       id="rect2419"
       style="fill:url(#linearGradient4094);fill-opacity:1;fill-rule:nonzero;stroke:none" />
    <path
       d="M 12,6 C 8.676,6 6,8.676 6,12 l 0,2 0,68 0,2 c 0,0.334721 0.04135,0.6507 0.09375,0.96875 0.0487,0.295596 0.09704,0.596915 0.1875,0.875 0.00988,0.03038 0.020892,0.0636 0.03125,0.09375 0.098865,0.287771 0.2348802,0.547452 0.375,0.8125 0.1445918,0.273507 0.3156161,0.535615 0.5,0.78125 0.1843839,0.245635 0.3737765,0.473472 0.59375,0.6875 0.439947,0.428056 0.94291,0.814526 1.5,1.09375 0.278545,0.139612 0.5734731,0.246947 0.875,0.34375 -0.2562018,-0.100222 -0.4867109,-0.236272 -0.71875,-0.375 -0.00741,-0.0044 -0.023866,0.0045 -0.03125,0 -0.031933,-0.0193 -0.062293,-0.04251 -0.09375,-0.0625 -0.120395,-0.0767 -0.2310226,-0.163513 -0.34375,-0.25 -0.1061728,-0.0808 -0.2132809,-0.161112 -0.3125,-0.25 C 8.4783201,88.557317 8.3087904,88.373362 8.15625,88.1875 8.0486711,88.057245 7.9378561,87.922215 7.84375,87.78125 7.818661,87.74287 7.805304,87.69538 7.78125,87.65625 7.716487,87.553218 7.6510225,87.451733 7.59375,87.34375 7.4927417,87.149044 7.3880752,86.928049 7.3125,86.71875 7.30454,86.69694 7.288911,86.6782 7.28125,86.65625 7.2494249,86.5643 7.2454455,86.469419 7.21875,86.375 7.1884177,86.268382 7.1483606,86.171969 7.125,86.0625 7.0521214,85.720988 7,85.364295 7,85 L 7,83 7,15 7,13 C 7,10.218152 9.2181517,8 12,8 l 2,0 68,0 2,0 c 2.781848,0 5,2.218152 5,5 l 0,2 0,68 0,2 c 0,0.364295 -0.05212,0.720988 -0.125,1.0625 -0.04415,0.206893 -0.08838,0.397658 -0.15625,0.59375 -0.0077,0.02195 -0.0233,0.04069 -0.03125,0.0625 -0.06274,0.173739 -0.138383,0.367449 -0.21875,0.53125 -0.04158,0.0828 -0.07904,0.169954 -0.125,0.25 -0.0546,0.09721 -0.126774,0.18835 -0.1875,0.28125 -0.09411,0.140965 -0.204921,0.275995 -0.3125,0.40625 -0.143174,0.17445 -0.303141,0.346998 -0.46875,0.5 -0.01117,0.0102 -0.01998,0.02115 -0.03125,0.03125 -0.138386,0.125556 -0.285091,0.234436 -0.4375,0.34375 -0.102571,0.07315 -0.204318,0.153364 -0.3125,0.21875 -0.0074,0.0045 -0.02384,-0.0044 -0.03125,0 -0.232039,0.138728 -0.462548,0.274778 -0.71875,0.375 0.301527,-0.0968 0.596455,-0.204138 0.875,-0.34375 0.55709,-0.279224 1.060053,-0.665694 1.5,-1.09375 0.219973,-0.214028 0.409366,-0.441865 0.59375,-0.6875 0.184384,-0.245635 0.355408,-0.507743 0.5,-0.78125 0.14012,-0.265048 0.276135,-0.524729 0.375,-0.8125 0.01041,-0.03078 0.02133,-0.06274 0.03125,-0.09375 0.09046,-0.278085 0.1388,-0.579404 0.1875,-0.875 C 89.95865,84.6507 90,84.334721 90,84 l 0,-2 0,-68 0,-2 C 90,8.676 87.324,6 84,6 L 12,6 z"
       inkscape:connector-curvature="0"
       id="rect3728"
       style="opacity:0.5;fill:url(#linearGradient4096);fill-opacity:1;fill-rule:nonzero;stroke:none" />
    <path
       d="m 17,12 c -2.752703,0 -5,2.247297 -5,5 l 0,62 c 0,2.752703 2.247298,5 5,5 l 62,0 c 2.752703,0 5.000001,-2.247297 5,-5 l 0,-62 c 0,-2.752703 -2.247297,-5 -5,-5 l -62,0 z m 0,2 62,0 c 1.679298,0 3,1.320703 3,3 l 0,62 c 10e-7,1.679297 -1.320703,3 -3,3 l -62,0 c -1.679296,0 -3,-1.320703 -3,-3 l 0,-62 c 0,-1.679297 1.320703,-3 3,-3 z"
       inkscape:connector-curvature="0"
       id="rect3425"
       style="fill:url(#linearGradient4098);fill-opacity:1;fill-rule:nonzero;stroke:none" />
    <path
       d="M 12,90 C 8.676,90 6,87.324 6,84 L 6,82 6,14 6,12 c 0,-0.334721 0.04135,-0.6507 0.09375,-0.96875 0.0487,-0.295596 0.09704,-0.596915 0.1875,-0.875 C 6.29113,10.12587 6.302142,10.09265 6.3125,10.0625 6.411365,9.774729 6.5473802,9.515048 6.6875,9.25 6.8320918,8.976493 7.0031161,8.714385 7.1875,8.46875 7.3718839,8.223115 7.5612765,7.995278 7.78125,7.78125 8.221197,7.353194 8.72416,6.966724 9.28125,6.6875 9.559795,6.547888 9.8547231,6.440553 10.15625,6.34375 9.9000482,6.443972 9.6695391,6.580022 9.4375,6.71875 c -0.00741,0.0044 -0.023866,-0.0045 -0.03125,0 -0.031933,0.0193 -0.062293,0.04251 -0.09375,0.0625 -0.120395,0.0767 -0.2310226,0.163513 -0.34375,0.25 -0.1061728,0.0808 -0.2132809,0.161112 -0.3125,0.25 C 8.4783201,7.442683 8.3087904,7.626638 8.15625,7.8125 8.0486711,7.942755 7.9378561,8.077785 7.84375,8.21875 7.818661,8.25713 7.805304,8.30462 7.78125,8.34375 7.716487,8.446782 7.6510225,8.548267 7.59375,8.65625 7.4927417,8.850956 7.3880752,9.071951 7.3125,9.28125 7.30454,9.30306 7.288911,9.3218 7.28125,9.34375 7.2494249,9.4357 7.2454455,9.530581 7.21875,9.625 7.1884177,9.731618 7.1483606,9.828031 7.125,9.9375 7.0521214,10.279012 7,10.635705 7,11 l 0,2 0,68 0,2 c 0,2.781848 2.2181517,5 5,5 l 2,0 68,0 2,0 c 2.781848,0 5,-2.218152 5,-5 l 0,-2 0,-68 0,-2 C 89,10.635705 88.94788,10.279012 88.875,9.9375 88.83085,9.730607 88.78662,9.539842 88.71875,9.34375 88.71105,9.3218 88.69545,9.30306 88.6875,9.28125 88.62476,9.107511 88.549117,8.913801 88.46875,8.75 88.42717,8.6672 88.38971,8.580046 88.34375,8.5 88.28915,8.40279 88.216976,8.31165 88.15625,8.21875 88.06214,8.077785 87.951329,7.942755 87.84375,7.8125 87.700576,7.63805 87.540609,7.465502 87.375,7.3125 87.36383,7.3023 87.35502,7.29135 87.34375,7.28125 87.205364,7.155694 87.058659,7.046814 86.90625,6.9375 86.803679,6.86435 86.701932,6.784136 86.59375,6.71875 c -0.0074,-0.0045 -0.02384,0.0044 -0.03125,0 -0.232039,-0.138728 -0.462548,-0.274778 -0.71875,-0.375 0.301527,0.0968 0.596455,0.204138 0.875,0.34375 0.55709,0.279224 1.060053,0.665694 1.5,1.09375 0.219973,0.214028 0.409366,0.441865 0.59375,0.6875 0.184384,0.245635 0.355408,0.507743 0.5,0.78125 0.14012,0.265048 0.276135,0.524729 0.375,0.8125 0.01041,0.03078 0.02133,0.06274 0.03125,0.09375 0.09046,0.278085 0.1388,0.579404 0.1875,0.875 C 89.95865,11.3493 90,11.665279 90,12 l 0,2 0,68 0,2 c 0,3.324 -2.676,6 -6,6 l -72,0 z"
       inkscape:connector-curvature="0"
       id="path3615"
       style="opacity:0.4;fill:url(#radialGradient4100);fill-opacity:1;fill-rule:nonzero;stroke:none" />
    <rect
       width="66"
       height="66"
       rx="12"
       ry="12"
       x="15"
       y="15"
       clip-path="url(#clipPath3613-5)"
       id="rect3171"
       style="opacity:0.1;fill:url(#linearGradient4102);fill-opacity:1;fill-rule:nonzero;stroke:#ffffff;stroke-width:0.5;stroke-linecap:round;stroke-linejoin:miter;stroke-miterlimit:4;stroke-opacity:1;stroke-dasharray:none;stroke-dashoffset:0;filter:url(#filter3794-2)" />
  </g>
</svg>
