<svg version="1.0" viewBox="0 0 128 128" xmlns="http://www.w3.org/2000/svg" xmlns:xlink="http://www.w3.org/1999/xlink">
 <defs>
  <linearGradient id="a">
   <stop stop-color="#fff" offset="0"/>
   <stop stop-color="#fff" stop-opacity="0" offset="1"/>
  </linearGradient>
  <linearGradient id="ay">
   <stop stop-color="#ffca03" offset="0"/>
   <stop stop-color="#ffca03" stop-opacity="0" offset="1"/>
  </linearGradient>
  <linearGradient id="az">
   <stop stop-color="#b25900" offset="0"/>
   <stop stop-color="#ee6e00" offset="1"/>
  </linearGradient>
  <linearGradient id="ba">
   <stop stop-color="#001b1e" offset="0"/>
   <stop stop-color="#001b1e" stop-opacity="0" offset="1"/>
  </linearGradient>
  <linearGradient id="bb">
   <stop stop-color="#001b1e" offset="0"/>
   <stop stop-color="#797979" offset="1"/>
  </linearGradient>
  <linearGradient id="bc">
   <stop stop-color="#707070" offset="0"/>
   <stop stop-color="#cbbd8f" offset="1"/>
  </linearGradient>
  <linearGradient id="b">
   <stop offset="0"/>
   <stop stop-opacity="0" offset="1"/>
  </linearGradient>
  <linearGradient id="c">
   <stop stop-color="#979797" stop-opacity=".17454545" offset="0"/>
   <stop stop-color="#979797" stop-opacity="0" offset="1"/>
  </linearGradient>
  <linearGradient id="j">
   <stop stop-color="#ffe89d" offset="0"/>
   <stop stop-color="#fff" stop-opacity="0" offset="1"/>
  </linearGradient>
  <linearGradient id="t">
   <stop stop-color="#fbfbfb" offset="0"/>
   <stop stop-color="#454545" stop-opacity="0" offset="1"/>
  </linearGradient>
  <linearGradient id="u">
   <stop stop-color="#141414" offset="0"/>
   <stop stop-color="#404040" offset="1"/>
  </linearGradient>
  <linearGradient id="bd" x1="1270.5101" x2="1267.2744" y1="650.24127" y2="562.1449" gradientTransform="matrix(.3880133 0 0 .3880133 -408.04993 -132.95103)" gradientUnits="userSpaceOnUse" xlink:href="#u"/>
  <radialGradient id="au" cx="1120.12" cy="611.65558" r="2.9590001" gradientTransform="matrix(.7655472 -.6433797 .9999983 1.1898819 -1196.3805 604.52013)" gradientUnits="userSpaceOnUse" xlink:href="#t"/>
  <filter id="y" x="-.16008267" y="-.16285013" width="1.3201653" height="1.3257003">
   <feGaussianBlur stdDeviation="0.39473719"/>
  </filter>
  <radialGradient id="at" cx="1156.5026" cy="607.19537" r="36.873901" fx="1144.0371" fy="615.46027" gradientTransform="matrix(1.2011151 -.1434965 .017022376 .1424832 -1090.2672 686.63422)" gradientUnits="userSpaceOnUse" xlink:href="#j"/>
  <filter id="bj">
   <feGaussianBlur stdDeviation="0.38331975"/>
  </filter>
  <radialGradient id="as" cx="1268.5529" cy="606.56342" r="11.5546" gradientTransform="matrix(1.6612962 -.3142742 .051121759 .2702365 -1717.2389 838.80795)" gradientUnits="userSpaceOnUse" xlink:href="#j"/>
  <filter id="bh">
   <feGaussianBlur stdDeviation="0.19716305"/>
  </filter>
  <radialGradient id="aq" cx="1313.6381" cy="583.63123" r="22.70195" gradientTransform="matrix(1.4751917 -.3952764 .089087715 .3324799 -1523.5655 910.52912)" gradientUnits="userSpaceOnUse" xlink:href="#j"/>
  <filter id="bg">
   <feGaussianBlur stdDeviation="0.22193567"/>
  </filter>
  <radialGradient id="ap" cx="1184.5432" cy="651.2785" r="56.156731" fx="1168.8407" fy="663.20691" gradientTransform="matrix(.5133752 -.1247694 .074300878 .3057176 -604.52547 64.468028)" gradientUnits="userSpaceOnUse" xlink:href="#c"/>
  <radialGradient id="ao" cx="1310.6407" cy="610.33667" r="51.328152" gradientTransform="matrix(.3880133 0 0 .2409044 -402.99179 -43.165134)" gradientUnits="userSpaceOnUse" xlink:href="#a"/>
  <filter id="o">
   <feGaussianBlur stdDeviation="0.60797151"/>
  </filter>
  <clipPath id="z">
   <path d="m1401.2247 578.46875c-2.8844 0-5.7387 0.06973-8.5626 0.1875 0.173 0.96689 0.0874 2.35259-0.3437 4.34375-1.6759 7.73985-2.5909 15.31064-6.9063 23.375-2.7933 5.21998-7.2592 11.67172-13.1874 16.5-10.7566 8.76077-24.5656 12.24278-38.3438 14.0625-7.41 0.97864-14.5897-0.41967-19.5-4.78125-6.3989-5.68372-7.8642-15.34433-5.6875-23.375 0.0952-0.35134 0.2255-0.66858 0.3437-1-2.6721 2.84311-4.877 5.80585-6.4687 8.90625 0.4342 4.89998 1.1933 9.33396 3.125 13.375 1.3315 2.78536 4.8454 7.08804 7.4063 8.40625 2.9515 1.51935 4.4484 1.09875 9.8437 2.375 17.34 4.10173 36.8757-1.47802 50.9375-11.25 4.8204-3.34979 8.2046-7.58917 11.7188-11.5625 6.5553-7.41216 9.3753-21.60068 12.75-31.9375 0.8701-2.66569 0.3736-2.48787 5.0937-6.25 0.2524-0.20119 0.9691-0.70329 1.7813-1.3125-1.3336-0.02593-2.6538-0.0625-4-0.0625z" fill="url(#an)" fill-rule="evenodd" filter="url(#o)" stroke="#000" stroke-width=".40000001"/>
  </clipPath>
  <radialGradient id="an" cx="1310.6407" cy="610.33667" r="51.328152" gradientTransform="matrix(1 0 0 .6208666 43.255878 231.39903)" gradientUnits="userSpaceOnUse" xlink:href="#a"/>
  <filter id="x">
   <feGaussianBlur stdDeviation="0.69245546"/>
  </filter>
  <clipPath id="bm">
   <path d="m1073.8561 602.1875c0.9422 0.38203 1.7341 0.85867 2.375 1.4375 2.7881 2.51834 4.5389 6.13615 3.375 10.59375-1.9874 7.61134-6.0071 14.62125-10.7813 21.8125-3.823 5.7584-9.7979 10.61631-17.375 14-8.016 3.57961-16.9463 6.53712-27.9687 7.625-11.0105 1.08671-22.0586 2.76033-33.50001 0.625-6.8165-1.27218-14.3916-4.60813-17.1563-10.15625-0.4116-0.82599-0.7169-1.67299-1-2.53125-0.84 2.5976-1.3125 5.18443-1.3125 7.78125 0 0.39625 0.0421 0.79748 0.0625 1.1875 1.3828 1.387 3.0152 2.55071 4.9063 3.46875 2.8697 1.39311 5.4127 3.30838 9.2812 3.65625 10.1118 0.90931 21.03991 2.74495 30.81251 2.34375 15.9374-0.65431 33.1354-3.68763 46.9375-11.1875 11.8779-6.45426 16.3833-21.56199 23.0625-34.09375 1.4049-2.63605 2.8328-4.58488 8.0313-6.5625 1.075-0.40896 2.1794-0.76491 3.2812-1.0625-5.8036-4.26446-13.7021-7.33853-23.0312-8.9375z" fill="url(#am)" filter="url(#x)" stroke="#000" stroke-dashoffset="1.08779998" stroke-linecap="round" stroke-linejoin="round" stroke-width=".69999999"/>
  </clipPath>
  <radialGradient id="am" cx="1187.0625" cy="632.76263" r="63.537498" gradientTransform="matrix(1 0 0 .4985265 -153.36271 317.31371)" gradientUnits="userSpaceOnUse" xlink:href="#a"/>
  <radialGradient id="al" cx="1187.0625" cy="639.30981" r="63.537498" gradientTransform="matrix(1 0 0 .4985265 -153.36271 317.31371)" gradientUnits="userSpaceOnUse" xlink:href="#a"/>
  <radialGradient id="ak" cx="1201.2721" cy="653.33905" r="55.20673" gradientTransform="matrix(.3880133 0 0 .2089929 -402.99182 -19.889321)" gradientUnits="userSpaceOnUse" xlink:href="#b"/>
  <radialGradient id="aj" cx="1071.083" cy="624.55237" r="42.840542" gradientTransform="matrix(.3880133 0 0 .2878387 -301.46738 -73.219113)" gradientUnits="userSpaceOnUse" xlink:href="#b"/>
  <radialGradient id="ai" cx="1039.2395" cy="629.07086" r="42.840542" fx="1028.0737" fy="623.9035" gradientTransform="matrix(.4639115 -.2352831 .1301963 .2567099 -462.24642 190.87841)" gradientUnits="userSpaceOnUse" xlink:href="#c"/>
  <radialGradient id="ah" cx="1176.3208" cy="671.42694" r="21.776051" gradientTransform="matrix(1.6778734 -.3432374 .034855908 .1703887 -1655.105 954.81512)" gradientUnits="userSpaceOnUse" xlink:href="#b"/>
  <filter id="w" x="-.058909312" y="-.33871996" width="1.1178186" height="1.6774399">
   <feGaussianBlur stdDeviation="1.0690101"/>
  </filter>
  <radialGradient id="ag" cx="1176.3208" cy="671.42694" r="21.776051" gradientTransform="matrix(1.7155139 -.5803946 .1538257 .4546733 -1642.67 1013.8391)" gradientUnits="userSpaceOnUse" xlink:href="#b"/>
  <filter id="v" x="-.10435325" y="-.19222966" width="1.2087065" height="1.3844593">
   <feGaussianBlur stdDeviation="0.31881596"/>
  </filter>
  <linearGradient id="s" x1="1012.2021" x2="997.75201" y1="957.93066" y2="923.24103" gradientTransform="translate(-157.45573,-53.928748)" gradientUnits="userSpaceOnUse" xlink:href="#bc"/>
  <linearGradient id="r" x1="949.43579" x2="957.23651" y1="901.88043" y2="900.62341" gradientTransform="translate(-158.91068,-53.457614)" gradientUnits="userSpaceOnUse" xlink:href="#bb"/>
  <linearGradient id="q" x1="991.06439" x2="960.87335" y1="950.27118" y2="899.36353" gradientTransform="translate(-157.45573,-53.928748)" gradientUnits="userSpaceOnUse" xlink:href="#u"/>
  <radialGradient id="p" cx="841.44366" cy="916.08453" r="3.666193" gradientTransform="matrix(1 0 0 .5428572 0 418.78149)" gradientUnits="userSpaceOnUse" xlink:href="#ba"/>
  <radialGradient id="af" cx="1120.12" cy="611.65558" r="2.9590001" gradientTransform="matrix(.7655472 -.6433797 .9999983 1.1898819 -940.40051 565.41208)" gradientUnits="userSpaceOnUse" xlink:href="#t"/>
  <linearGradient id="av">
   <stop stop-color="#ffbf00" offset="0"/>
   <stop stop-color="#ff7e00" offset="1"/>
  </linearGradient>
  <filter id="n" x="-.075518401" y="-.14957229" width="1.1510368" height="1.2991446">
   <feGaussianBlur stdDeviation="0.59424154"/>
  </filter>
  <filter id="m" x="-.026567443" y="-.24834769" width="1.0531349" height="1.4966954">
   <feGaussianBlur stdDeviation="0.8790991"/>
  </filter>
  <filter id="l">
   <feGaussianBlur stdDeviation="0.24186311"/>
  </filter>
  <filter id="k" x="-.0559906" y="-.48370043" width="1.1119812" height="1.9674009">
   <feGaussianBlur stdDeviation="1.9044657"/>
  </filter>
  <linearGradient id="i" x1="-249.20644" x2="-192.93401" y1="71.508125" y2="-26.961451" gradientTransform="matrix(-.9951589 -.098279458 0 1 -4.6126126 -31.135135)" gradientUnits="userSpaceOnUse" xlink:href="#az"/>
  <radialGradient id="e" cx="222.95265" cy="16.636154" r="8.2704572" gradientTransform="matrix(1.3469039 -.3547571 .1361116 .516774 -86.020399 58.954588)" gradientUnits="userSpaceOnUse" xlink:href="#ay"/>
  <radialGradient id="d" cx="42.700352" cy="103.5803" r="42.559486" gradientTransform="matrix(1.105843,0,0,1.1890799,-227.32629,-87.631511)" gradientUnits="userSpaceOnUse" xlink:href="#av"/>
  <linearGradient id="h" x1="223.99249" x2="316.53125" y1="-16" y2="52.312439" gradientTransform="matrix(1.0108224,0,0,1.0108224,-103.82304,-31.801283)" gradientUnits="userSpaceOnUse" xlink:href="#a"/>
  <linearGradient id="g" x1="96.448334" x2="222.02668" y1="-5.29988" y2="12.231272" gradientTransform="translate(-4.6126126,-31.135135)" gradientUnits="userSpaceOnUse" xlink:href="#a"/>
  <linearGradient id="f" x1="-220.91794" x2="-199.07576" y1="-40.74456" y2="-1.9921155" gradientUnits="userSpaceOnUse" xlink:href="#a"/>
  <clipPath id="bl">
   <path d="m236.14482 53.962239c-0.71078 3.282624-1.09276 6.492509-2.923 9.912755-1.1847 2.213923-3.07756 4.942027-5.59185 6.989806-4.562 3.715619-10.42344 5.201289-16.2671 5.973072-3.14274 0.41506-6.17808-0.183552-8.26064-2.033386-2.71387-2.410587-3.3378-6.5068-2.41466-9.912776 0.96628-3.565155 4.78244-5.492836 8.51483-7.37104 7.75764-3.903781 15.91515-5.570599 24.14649-7.116859 1.97804-0.371577 3.52979 0.169154 2.79593 3.558428z" fill="url(#ae)" fill-rule="evenodd" stroke="url(#ad)" stroke-width=".29688472"/>
  </clipPath>
  <radialGradient id="ae" cx="1039.2395" cy="629.07086" r="42.840542" fx="1028.0737" fy="623.9035" gradientTransform="matrix(.5070822 -.2571781 .1423121 .2805988 -401.74926 160.07256)" gradientUnits="userSpaceOnUse" xlink:href="#c"/>
  <radialGradient id="ad" cx="1071.083" cy="624.55237" r="42.840542" gradientTransform="matrix(.4241211 0 0 .3146244 -226.00845 -128.60135)" gradientUnits="userSpaceOnUse" xlink:href="#b"/>
  <clipPath id="bk">
   <path d="m156.60607 62.897985c10.3615-2.852413 21.25063-4.911611 35.97355-4.508691 2.73962 0.074969 4.77831 0.373481 5.85172 1.343018 1.26231 1.140173 2.06182 2.778307 1.53486 4.796479-0.89979 3.446003-2.73093 6.624924-4.89239 9.880726-1.73086 2.607113-4.43572 4.799404-7.86623 6.331362-3.62923 1.620667-7.67236 2.96093-12.66273 3.45347-4.98493 0.491997-9.97675 1.25455-15.15682 0.287781-3.08616-0.575976-6.51858-2.092738-7.77034-4.604621-1.0194-2.045705-1.08496-4.344936-1.15111-6.523213-0.0531-1.747735 0.13147-3.266986 0.95928-5.755772 0.95267-2.864291 2.93752-4.083166 5.18021-4.700539z" fill="url(#ac)" fill-rule="evenodd" stroke="url(#ab)" stroke-width=".31692362"/>
  </clipPath>
  <radialGradient id="ac" cx="1184.5432" cy="651.2785" r="56.156731" fx="1168.8407" fy="663.20691" gradientTransform="matrix(.599025 -.1455855 .086696977 .3567225 -594.63046 16.062332)" gradientUnits="userSpaceOnUse" xlink:href="#c"/>
  <radialGradient id="ab" cx="1201.2721" cy="653.33905" r="55.20673" gradientTransform="matrix(.4527481 0 0 .2438605 -359.47363 -82.368903)" gradientUnits="userSpaceOnUse" xlink:href="#b"/>
  <linearGradient id="ax" x1="22.486486" x2="86.198204" y1="93.374626" y2="114.70795" gradientUnits="userSpaceOnUse" xlink:href="#a"/>
  <linearGradient id="aw" x1="-.75248235" x2="86.198204" y1="89.297615" y2="114.70795" gradientTransform="translate(54.631962,-6.1155181)" gradientUnits="userSpaceOnUse" xlink:href="#a"/>
  <radialGradient id="aa" cx="101.26279" cy="20.264956" r="2.0894687" gradientTransform="matrix(1,0,0,2,0,-20.264956)" gradientUnits="userSpaceOnUse">
   <stop stop-color="#fff" offset="0"/>
   <stop stop-color="#fff" stop-opacity=".71636361" offset=".5"/>
   <stop stop-color="#fff" stop-opacity="0" offset="1"/>
  </radialGradient>
  <filter id="bf">
   <feGaussianBlur stdDeviation="0.21604708"/>
  </filter>
  <filter id="be" x="-.091844168" y="-.14836361" width="1.1836883" height="1.2967272">
   <feGaussianBlur stdDeviation="1.3105742"/>
  </filter>
  <filter id="bi" x="-.034625738" y="-.15683422" width="1.0692515" height="1.3136684">
   <feGaussianBlur stdDeviation="1.1109091"/>
  </filter>
  <radialGradient id="ar" cx="84.000008" cy="134.11769" r="38.5" gradientTransform="matrix(.4155844 -.103896 .053546785 .2141873 41.909336 100.00096)" gradientUnits="userSpaceOnUse">
   <stop stop-opacity="0" offset="0"/>
   <stop offset="1"/>
  </radialGradient>
 </defs>
 <path d="m37.54955 121.98198c34.636406 2.70974 55.11961-6.27927 76.43243-13.98198l2.01802 1.54955c-23.00666 11.68419-47.084128 13.43068-76 14.45045l-2.45045-2.01802z" fill="url(#ar)" fill-rule="evenodd" filter="url(#bi)"/>
 <path d="m6.1155181 99.460916 30.9852919 20.792764h-5.300116l-28.9467855-21.20047 3.2616096 0.407706z" fill-rule="evenodd" filter="url(#be)" opacity=".32209738"/>
 <g>
  <g transform="matrix(1.0515046 -.1367629 -.2170354 .3337072 -576.86258 -96.96037)">
   <g fill-rule="evenodd">
    <path d="m794.13523 836.6996c-2.26785 0.03471-4.20057 2.44515-2.75 4.1875 1.75139-2.97928 18.08914 21.38866 27.96875 34 10.81527 14.63889 20.69421 25.84682 33 38.25l2.52248-8.44375c-22.65303-22.06296-28.74312-36.26207-60.30373-67.9625-0.15339-0.01963-0.28631-0.03356-0.4375-0.03125zm-2.19099 38.74968c-0.35546 2.22963-1.7136 13.22383-1.92127 15.01481-0.16135 1.39157 0.3965 1.60203 0.95601 2.48551l0.96526-17.50032z" fill="url(#s)"/>
    <path d="m790.52856 892.06123c-0.20137 2.44479 6.88926 3.74335 6.13895-2.12729-2.0771-16.25181-1.46648-31.21502-2.51396-47.97476l-3.206-3.11012c-0.13966 17.73739 1.09885 34.784-0.41899 53.21217z" fill="url(#r)"/>
    <path d="m851.16038 912.25896c-12.30577-12.40318-23.55246-24.76544-34.36773-39.40433-9.87961-12.61134-23.06123-35.40083-24.81262-32.42155-2.95637-1.2518 0.86978-4.13585 1.45286-3.54257 29.67512 32.95738 35.93493 45.3497 58.588 67.41266l-0.86051 7.95579z" fill="url(#q)"/>
   </g>
   <path transform="matrix(1.1714286 0 0 .8947368 -191.80325 74.013797)" d="m845.10986 916.08453c0 1.09917-1.64141 1.99022-3.6662 1.99022-2.02478 0-3.66619-0.89105-3.66619-1.99022 0-1.09916 1.64141-1.99022 3.66619-1.99022 2.02479 0 3.6662 0.89106 3.6662 1.99022z" fill="url(#p)" filter="url(#v)"/>
  </g>
  <path transform="matrix(.9035742 .1010834 -.2690899 .2613057 -200.23713 -114.32839)" d="m527.07114 571.88927 2.699 3.35506 1.9477-0.89894-3.8106-3.32937c-0.5212 0.0486-0.8093 0.33029-0.8361 0.87325z" fill="url(#af)" fill-rule="evenodd" filter="url(#y)"/>
 </g>
 <g transform="matrix(1.0845408,0,0,1.0845408,-134.79988,31.374843)">
  <path d="m142.70271 64.864865 68.87163 7.24948 2.94563-0.00879 2.43346-0.42774 5.18294-1.62376" fill="none" filter="url(#m)" stroke="#6b3f00" stroke-width="1px"/>
  <g>
   <path d="m219.90771-16.614831-67.34628-6.650954c-0.85-0.083945-1.66077 0.01106-2.40323 0.256468l-6.77081 1.987308c-0.21507 0.677119 2.69423 3.339337 2.69423 4.117725v72.767721c0 3.878793 2.89 7.286841 6.47981 7.641362l62.4371 8.472871 7.23799-2.054359c2.4326-0.766458 4.151-3.1381 4.151-6.12906v-72.7677209c0-3.8787931-2.88999-7.2868401-6.47981-7.6413611z" fill="url(#i)"/>
   <path d="m218.23424-16.288288c1.91288-0.135104 3.17051 0.385039 4.32432 1.009009 1.37876 1.370422 2.81792 2.691427 3.17117 4.900901 0.41326 1.2012009 0.25074 2.4024019 0 3.6036029l-18.63257-1.709756 11.13708-7.8037569z" fill="url(#e)" fill-rule="evenodd" filter="url(#n)"/>
   <rect transform="matrix(-.9951589 -.098279494 0 1 0 0)" x="-220.45467" y="-35.641075" width="80.696548" height="86.770584" rx="6.5113235" ry="7.0014315" fill="url(#d)"/>
   <path d="m151.4696 14.702989c-1.89026-0.186678-3.74325-0.211661-5.55299-0.079649v8.15625c1.79827-0.218261 3.64703-0.264828 5.55299-0.076601 15.32622 1.513579 27.76489 16.182002 27.76489 32.741994 0 2.059378-0.21208 4.036023-0.57843 5.942868l7.54858 0.74549c0.28759-1.927024 0.43382-3.914735 0.43382-5.95716 0-20.975988-15.75566-39.555992-35.16886-41.473192zm0 16c-1.94637-0.192218-3.82785-0.086136-5.61083 0.289639 0.02843 0.24029 0.05784 0.478347 0.05784 0.724462v7.8125c1.68886-0.70501 3.55756-1.023663 5.55299-0.826601 7.15224 0.706334 12.95695 7.551602 12.95695 15.279597 0 2.156046-0.46571 4.129205-1.27257 5.874323l7.89565 0.779754c0.50092-1.859881 0.78089-3.840897 0.78089-5.922879 0-12.143994-9.12169-22.900836-20.36092-24.010795zm0 16c-3.06525-0.302716-5.55299 2.139604-5.55299 5.4516 0 3.311998 2.48774 6.245681 5.55299 6.548397 3.06524 0.302716 5.55297-2.139601 5.55297-5.451599 0-3.311999-2.48773-6.245685-5.55297-6.548398z" fill="#fff"/>
   <path d="m144.52339-20.334766c-2.52199 0.025703-4.5487 2.11948-4.5487 5.085701v73.537331c0 1.61494 0.59532 3.099315 1.54782 4.201231l74.61133-74.61133c-0.85611-0.799906-1.91494-1.339574-3.06405-1.453058l-68.04099-6.728287c-0.17236-0.017022-0.33728-0.033301-0.50541-0.031588z" fill="url(#h)"/>
   <path d="m151.07892-22.681346 66.33515 6.15139-4.41406 1.403575-65.92077-6.666146 3.99968-0.888819z" fill="url(#g)" fill-rule="evenodd"/>
  </g>
  <g fill="none">
   <path d="m142.70271 64.864865 68.87163 7.24948 2.94563-0.00879 2.43346-0.42774 5.18294-1.62376" filter="url(#l)" stroke="#6b3f00" stroke-width=".40000001"/>
   <path d="m142.70271 64.864865 68.87163 7.24948 2.94563-0.00879 2.43346-0.42774 5.18294-1.62376" filter="url(#k)" stroke="#6b3f00" stroke-width="2.20000005"/>
   <rect transform="matrix(-.9951589 -.098279494 0 1 0 0)" x="-220.07692" y="-35.228031" width="80.318802" height="86.357536" rx="6.5113235" ry="7.0014315" stroke="url(#f)" stroke-linecap="round" stroke-linejoin="round" stroke-width=".92428923"/>
  </g>
 </g>
 <g transform="matrix(.8962114 0 0 .8962114 -90.296737 45.726661)" clip-path="url(#bl)">
  <path d="m142.70271 64.864865 68.87163 7.24948 2.94563-0.00879 2.43346-0.42774 5.18294-1.62376" fill="none" filter="url(#m)" stroke="#6b3f00" stroke-width="1px"/>
  <g>
   <path d="m219.90771-16.614831-67.34628-6.650954c-0.85-0.083945-1.66077 0.01106-2.40323 0.256468l-6.77081 1.987308c-0.21507 0.677119 2.69423 3.339337 2.69423 4.117725v72.767721c0 3.878793 2.89 7.286841 6.47981 7.641362l62.4371 8.472871 7.23799-2.054359c2.4326-0.766458 4.151-3.1381 4.151-6.12906v-72.7677209c0-3.8787931-2.88999-7.2868401-6.47981-7.6413611z" fill="url(#i)"/>
   <path d="m218.23424-16.288288c1.91288-0.135104 3.17051 0.385039 4.32432 1.009009 1.37876 1.370422 2.81792 2.691427 3.17117 4.900901 0.41326 1.2012009 0.25074 2.4024019 0 3.6036029l-18.63257-1.709756 11.13708-7.8037569z" fill="url(#e)" fill-rule="evenodd" filter="url(#n)"/>
   <rect transform="matrix(-.9951589 -.098279494 0 1 0 0)" x="-220.45467" y="-35.641075" width="80.696548" height="86.770584" rx="6.5113235" ry="7.0014315" fill="url(#d)"/>
   <path d="m151.4696 14.702989c-1.89026-0.186678-3.74325-0.211661-5.55299-0.079649v8.15625c1.79827-0.218261 3.64703-0.264828 5.55299-0.076601 15.32622 1.513579 27.76489 16.182002 27.76489 32.741994 0 2.059378-0.21208 4.036023-0.57843 5.942868l7.54858 0.74549c0.28759-1.927024 0.43382-3.914735 0.43382-5.95716 0-20.975988-15.75566-39.555992-35.16886-41.473192zm0 16c-1.94637-0.192218-3.82785-0.086136-5.61083 0.289639 0.02843 0.24029 0.05784 0.478347 0.05784 0.724462v7.8125c1.68886-0.70501 3.55756-1.023663 5.55299-0.826601 7.15224 0.706334 12.95695 7.551602 12.95695 15.279597 0 2.156046-0.46571 4.129205-1.27257 5.874323l7.89565 0.779754c0.50092-1.859881 0.78089-3.840897 0.78089-5.922879 0-12.143994-9.12169-22.900836-20.36092-24.010795zm0 16c-3.06525-0.302716-5.55299 2.139604-5.55299 5.4516 0 3.311998 2.48774 6.245681 5.55299 6.548397 3.06524 0.302716 5.55297-2.139601 5.55297-5.451599 0-3.311999-2.48773-6.245685-5.55297-6.548398z" fill="#fff"/>
   <path d="m144.52339-20.334766c-2.52199 0.025703-4.5487 2.11948-4.5487 5.085701v73.537331c0 1.61494 0.59532 3.099315 1.54782 4.201231l74.61133-74.61133c-0.85611-0.799906-1.91494-1.339574-3.06405-1.453058l-68.04099-6.728287c-0.17236-0.017022-0.33728-0.033301-0.50541-0.031588z" fill="url(#h)"/>
   <path d="m151.07892-22.681346 66.33515 6.15139-4.41406 1.403575-65.92077-6.666146 3.99968-0.888819z" fill="url(#g)" fill-rule="evenodd"/>
  </g>
  <g fill="none">
   <path d="m142.70271 64.864865 68.87163 7.24948 2.94563-0.00879 2.43346-0.42774 5.18294-1.62376" filter="url(#l)" stroke="#6b3f00" stroke-width=".40000001"/>
   <path d="m142.70271 64.864865 68.87163 7.24948 2.94563-0.00879 2.43346-0.42774 5.18294-1.62376" filter="url(#k)" stroke="#6b3f00" stroke-width="2.20000005"/>
   <rect transform="matrix(-.9951589 -.098279494 0 1 0 0)" x="-220.07692" y="-35.228031" width="80.318802" height="86.357536" rx="6.5113235" ry="7.0014315" stroke="url(#f)" stroke-linecap="round" stroke-linejoin="round" stroke-width=".92428923"/>
  </g>
 </g>
 <g transform="matrix(.3880133 0 0 .3880133 -304.59932 -247.24128)">
  <g fill-rule="evenodd">
   <path d="m794.13523 836.6996c-2.26785 0.03471-4.20057 2.44515-2.75 4.1875 1.75139-2.97928 18.08914 21.38866 27.96875 34 10.81527 14.63889 20.69421 25.84682 33 38.25l5.28125-8.625c-22.65303-22.06296-31.50189-36.08082-63.0625-67.78125-0.15339-0.01963-0.28631-0.03356-0.4375-0.03125zm-2.19099 38.74968c-0.35546 2.22963-1.7136 13.22383-1.92127 15.01481-0.16135 1.39157 0.3965 1.60203 0.95601 2.48551l0.96526-17.50032z" fill="url(#s)"/>
   <path d="m790.52856 892.06123c-0.20137 2.44479 8.50169 4.40417 7.75138-1.46647-2.0771-16.25181-1.46648-31.21502-2.51396-47.97476l-4.81843-3.77094c-0.13966 17.73739 1.09885 34.784-0.41899 53.21217z" fill="url(#r)"/>
   <path d="m851.94689 916.0695c-12.30577-12.40318-23.55246-24.76544-34.36773-39.40433-9.87961-12.61134-23.84774-39.21137-25.59913-36.23209-2.95637-1.2518 0.86978-4.13585 1.45286-3.54257 29.67512 32.95738 35.93493 45.3497 58.588 67.41266l-0.074 11.76633z" fill="url(#q)"/>
  </g>
  <path transform="matrix(1.1714286 0 0 .8947368 -191.80325 74.013797)" d="m845.10986 916.08453c0 1.09917-1.64141 1.99022-3.6662 1.99022-2.02478 0-3.66619-0.89105-3.66619-1.99022 0-1.09916 1.64141-1.99022 3.66619-1.99022 2.02479 0 3.6662 0.89106 3.6662 1.99022z" fill="url(#p)" filter="url(#v)"/>
 </g>
 <path transform="matrix(.3880133 0 0 .3880133 -79.270321 -132.95103)" d="m506.87795 624.43127c1.8502-2.82108-13.6237 3.69618-28.8649 9.00277-15.2491 5.3093-31.4506 8.22395-29.4895 9.77388 10.7484 6.36337 51.6569-10.28888 58.3544-18.77665z" fill="url(#ag)" fill-rule="evenodd" filter="url(#w)"/>
 <path transform="matrix(.3880133 0 0 .3880133 -79.270321 -132.95103)" d="m378.34075 657.68941c2.19-1.99166-12.8988 0.5835-29.7888 2.22187-20.5589 1.99427-43.7151 3.59945-40.7241 6.51818 11.0806 2.90976 63.8154-0.25228 70.5129-8.74005z" fill="url(#ah)" fill-rule="evenodd" filter="url(#w)"/>
 <image x="878.43146" y="836.36182" width="450" height="320" xlink:href="/home/pinheiro/Desktop/58931,1166038365,2.jpg"/>
 <path d="m125.57078 87.937647c-0.1037 7.13e-4 -0.23062 0.01441-0.40012 0.024251-10.16846 0.590436-21.52069 1.884066-37.322016 10.064097-3.129247 1.619935-7.781802 2.733095-9.62758 2.134075-15.348372-4.981131-34.804398 2.20575-51.904608 3.52781-0.341497 0.0264-0.499065 0.15066-0.521377 0.61839l-0.145503 3.05561c-0.015757 0.32999-0.051373 0.48957 0.033601 0.5865 0.411838 0.67319 0.512175 0.63995 1.167688 1.02767 0.741376 0.2033 0.617053-0.83796 1.292242-0.48582 1.339887 0.69879 2.311782 1.8 2.558442 3.61337 0.341411 2.50996 0.247011 4.86662 1.042781 6.85085 0.618692 1.54266 1.744278 2.67451 3.272854 3.41657 1.113479 0.54053 2.091973 1.28117 3.593006 1.41615 3.923509 0.35282 8.164225 1.06777 11.956124 0.91209 6.183918-0.25386 12.857592-1.43173 18.212993-4.34176 4.608779-2.50437 6.365123-8.36283 8.956739-13.22532 0.54512-1.02282 1.099128-1.77899 3.116213-2.54633 1.069368-0.40682 2.161705-0.70874 3.334509-0.71541 1.504989-0.00855 1.33671 0.92527 1.394404 1.72182 0.159242 2.19855 0.427473 4.16013 1.273185 5.92932 0.516645 1.08076 1.874453 2.74771 2.86812 3.2592 1.145263 0.58951 1.732016 0.43318 3.825454 0.92838 6.728149 1.59152 14.301639-0.57198 19.757809-4.36363 1.87036-1.29978 3.1841-2.94476 4.54761-4.48647 2.54358-2.87601 3.64168-8.387113 4.95106-12.397938 0.33766-1.034322 0.14678-0.965326 1.97824-2.425083 0.33494-0.266963 2.51879-1.816211 2.5924-2.209343 0.15593-0.581929-1.42215-1.909743-1.80427-1.889049zm-6.70533 2.75247c1.30292 0.028705 2.14607 0.051251 1.60056 2.570586-0.65027 3.003168-1.0053 5.940734-2.67974 9.069817-1.08383 2.02542-2.81671 4.52879-5.11692 6.40221-4.17367 3.3993-9.53175 4.75037-14.877862 5.45644-2.875182 0.37972-5.661003-0.16283-7.566262-1.85519-2.482856-2.20535-3.051413-5.9538-2.206828-9.06981 0.884015-3.26163 4.38203-4.247403 7.796625-5.965698 7.097197-3.571437 14.561937-5.096735 22.092497-6.511354 0.33933-0.063736 0.65726-0.103623 0.95793-0.097001zm-54.358251 9.385083c1.480083-0.01999 3.006178-0.0068 4.58341 0.03637 2.347906 0.06424 4.099982 0.321 5.019921 1.15192 1.08186 0.97714 1.761153 2.3809 1.309542 4.1105-0.771093 2.95331-2.330794 5.67325-4.183243 8.46355-1.483374 2.23432-3.80172 4.11927-6.741729 5.43217-3.110319 1.38894-6.575433 2.5365-10.852273 2.95861-4.272179 0.42167-8.558987 1.07105-12.99844 0.24251-2.644856-0.49362-5.584097-1.78801-6.656836-3.94076-0.873689-1.75322-0.92549-3.72301-0.982178-5.58982-0.045474-1.49784 0.115087-2.80212 0.824532-4.93504 0.816495-2.45476 2.446539-3.93338 4.437899-4.02564 8.733595-0.40461 17.101144-1.5643 26.239395-3.90437z" fill="url(#bd)" fill-rule="evenodd"/>
 <g transform="matrix(.8418094 0 0 .8418094 -92.359796 51.645705)" clip-path="url(#bk)">
  <path d="m142.70271 64.864865 68.87163 7.24948 2.94563-0.00879 2.43346-0.42774 5.18294-1.62376" fill="none" filter="url(#m)" stroke="#6b3f00" stroke-width="1px"/>
  <g>
   <path d="m219.90771-16.614831-67.34628-6.650954c-0.85-0.083945-1.66077 0.01106-2.40323 0.256468l-6.77081 1.987308c-0.21507 0.677119 2.69423 3.339337 2.69423 4.117725v72.767721c0 3.878793 2.89 7.286841 6.47981 7.641362l62.4371 8.472871 7.23799-2.054359c2.4326-0.766458 4.151-3.1381 4.151-6.12906v-72.7677209c0-3.8787931-2.88999-7.2868401-6.47981-7.6413611z" fill="url(#i)"/>
   <path d="m218.23424-16.288288c1.91288-0.135104 3.17051 0.385039 4.32432 1.009009 1.37876 1.370422 2.81792 2.691427 3.17117 4.900901 0.41326 1.2012009 0.25074 2.4024019 0 3.6036029l-18.63257-1.709756 11.13708-7.8037569z" fill="url(#e)" fill-rule="evenodd" filter="url(#n)"/>
   <rect transform="matrix(-.9951589 -.098279494 0 1 0 0)" x="-220.45467" y="-35.641075" width="80.696548" height="86.770584" rx="6.5113235" ry="7.0014315" fill="url(#d)"/>
   <path d="m151.4696 14.702989c-1.89026-0.186678-3.74325-0.211661-5.55299-0.079649v8.15625c1.79827-0.218261 3.64703-0.264828 5.55299-0.076601 15.32622 1.513579 27.76489 16.182002 27.76489 32.741994 0 2.059378-0.21208 4.036023-0.57843 5.942868l7.54858 0.74549c0.28759-1.927024 0.43382-3.914735 0.43382-5.95716 0-20.975988-15.75566-39.555992-35.16886-41.473192zm0 16c-1.94637-0.192218-3.82785-0.086136-5.61083 0.289639 0.02843 0.24029 0.05784 0.478347 0.05784 0.724462v7.8125c1.68886-0.70501 3.55756-1.023663 5.55299-0.826601 7.15224 0.706334 12.95695 7.551602 12.95695 15.279597 0 2.156046-0.46571 4.129205-1.27257 5.874323l7.89565 0.779754c0.50092-1.859881 0.78089-3.840897 0.78089-5.922879 0-12.143994-9.12169-22.900836-20.36092-24.010795zm0 16c-3.06525-0.302716-5.55299 2.139604-5.55299 5.4516 0 3.311998 2.48774 6.245681 5.55299 6.548397 3.06524 0.302716 5.55297-2.139601 5.55297-5.451599 0-3.311999-2.48773-6.245685-5.55297-6.548398z" fill="#fff"/>
   <path d="m144.52339-20.334766c-2.52199 0.025703-4.5487 2.11948-4.5487 5.085701v73.537331c0 1.61494 0.59532 3.099315 1.54782 4.201231l74.61133-74.61133c-0.85611-0.799906-1.91494-1.339574-3.06405-1.453058l-68.04099-6.728287c-0.17236-0.017022-0.33728-0.033301-0.50541-0.031588z" fill="url(#h)"/>
   <path d="m151.07892-22.681346 66.33515 6.15139-4.41406 1.403575-65.92077-6.666146 3.99968-0.888819z" fill="url(#g)" fill-rule="evenodd"/>
  </g>
  <g fill="none">
   <path d="m142.70271 64.864865 68.87163 7.24948 2.94563-0.00879 2.43346-0.42774 5.18294-1.62376" filter="url(#l)" stroke="#6b3f00" stroke-width=".40000001"/>
   <path d="m142.70271 64.864865 68.87163 7.24948 2.94563-0.00879 2.43346-0.42774 5.18294-1.62376" filter="url(#k)" stroke="#6b3f00" stroke-width="2.20000005"/>
   <rect transform="matrix(-.9951589 -.098279494 0 1 0 0)" x="-220.07692" y="-35.228031" width="80.318802" height="86.357536" rx="6.5113235" ry="7.0014315" stroke="url(#f)" stroke-linecap="round" stroke-linejoin="round" stroke-width=".92428923"/>
  </g>
 </g>
 <g fill-rule="evenodd">
  <path d="m123.91813 91.50252c-1.11919 0-2.2267 0.027059-3.3224 0.072751 0.06712 0.375167 0.03391 0.912834-0.13337 1.685432-0.65027 3.003168-1.0053 5.940734-2.67974 9.069817-1.08383 2.02542-2.81666 4.52879-5.11688 6.40221-4.17371 3.3993-9.53178 4.75037-14.877905 5.45644-2.875183 0.37972-5.660997-0.16283-7.566257-1.85519-2.482855-2.20535-3.051415-5.9538-2.206822-9.06981 0.036937-0.13633 0.087496-0.25942 0.13336-0.38801-1.036816 1.10316-1.892339 2.25274-2.509941 3.45574 0.16847 1.90125 0.463012 3.6217 1.212541 5.18968 0.516637 1.08076 1.880077 2.75025 2.873743 3.26174 1.14522 0.58953 1.726036 0.42632 3.819484 0.92153 6.728147 1.59152 14.308257-0.57349 19.764427-4.36515 1.87038-1.29977 3.18349-2.9447 4.54704-4.48641 2.54355-2.87601 3.63775-8.381343 4.94718-12.392168 0.33761-1.034322 0.14495-0.965326 1.97642-2.425083 0.09794-0.078068 0.37603-0.272886 0.69117-0.509268-0.51745-0.010063-1.02972-0.024251-1.55205-0.024251z" fill="url(#ao)"/>
  <path d="m121.34025 93.801839c-0.65027 3.003155-0.99973 5.939766-2.67415 9.068831-1.08384 2.02544-2.81555 4.52128-5.11578 6.39472-4.17362 3.39929-9.53604 4.75848-14.882196 5.46455-2.875181 0.37973-5.652111-0.16792-7.557372-1.86027-2.482819-2.20536-3.05363-5.95284-2.209079-9.06885 0.884014-3.26163 4.375282-5.025197 7.789916-6.7435 7.097181-3.57143 14.560201-5.096342 22.090761-6.510961 1.80964-0.339943 3.22928 0.154753 2.5579 3.25548z" fill="url(#ai)" stroke="url(#aj)" stroke-width=".27160928"/>
  <path transform="matrix(.3880133 0 0 .3880133 -79.270321 -132.95103)" d="m271.09115 610.99732 2.699 3.35506 1.9477-0.89894-3.8106-3.32937c-0.5212 0.0486-0.8093 0.33029-0.8361 0.87325z" fill="url(#au)" filter="url(#y)"/>
 </g>
 <path transform="matrix(.3880133 0 0 .3880133 -419.7742 -132.95103)" d="m1401.2247 578.46875c-2.8844 0-5.7387 0.06973-8.5626 0.1875 0.173 0.96689 0.0874 2.35259-0.3437 4.34375-1.6759 7.73985-2.5909 15.31064-6.9063 23.375-2.7933 5.21998-7.2592 11.67172-13.1874 16.5-10.7566 8.76077-24.5656 12.24278-38.3438 14.0625-7.41 0.97864-14.5897-0.41967-19.5-4.78125-6.3989-5.68372-7.8642-15.34433-5.6875-23.375 0.0952-0.35134 0.2255-0.66858 0.3437-1-2.6721 2.84311-4.877 5.80585-6.4687 8.90625 0.4342 4.89998 1.1933 9.33396 3.125 13.375 1.3315 2.78536 4.8454 7.08804 7.4063 8.40625 2.9515 1.51935 4.4484 1.09875 9.8437 2.375 17.34 4.10173 36.8757-1.47802 50.9375-11.25 4.8204-3.34979 8.2046-7.58917 11.7188-11.5625 6.5553-7.41216 9.3753-21.60068 12.75-31.9375 0.8701-2.66569 0.3736-2.48787 5.0937-6.25 0.2524-0.20119 0.9691-0.70329 1.7813-1.3125-1.3336-0.02593-2.6538-0.0625-4-0.0625z" clip-path="url(#z)" fill="none" filter="url(#o)" stroke="#000" stroke-width="1.79999995"/>
 <g>
  <path transform="matrix(.3880133 0 0 .3880133 -343.48932 -132.95103)" d="m1073.8561 602.1875c0.9422 0.38203 1.7341 0.85867 2.375 1.4375 2.7881 2.51834 4.5389 6.13615 3.375 10.59375-1.9874 7.61134-6.0071 14.62125-10.7813 21.8125-3.823 5.7584-9.7979 10.61631-17.375 14-8.016 3.57961-16.9463 6.53712-27.9687 7.625-11.0105 1.08671-22.0586 2.76033-33.50001 0.625-6.8165-1.27218-14.3916-4.60813-17.1563-10.15625-0.4116-0.82599-0.7169-1.67299-1-2.53125-0.84 2.5976-1.3125 5.18443-1.3125 7.78125 0 0.39625 0.0421 0.79748 0.0625 1.1875 1.3828 1.387 3.0152 2.55071 4.9063 3.46875 2.8697 1.39311 5.4127 3.30838 9.2812 3.65625 10.1118 0.90931 21.03991 2.74495 30.81251 2.34375 15.9374-0.65431 33.1354-3.68763 46.9375-11.1875 11.8779-6.45426 16.3833-21.56199 23.0625-34.09375 1.4049-2.63605 2.8328-4.58488 8.0313-6.5625 1.075-0.40896 2.1794-0.76491 3.2812-1.0625-5.8036-4.26446-13.7021-7.33853-23.0312-8.9375z" clip-path="url(#bm)" fill="url(#al)" filter="url(#x)" stroke="#000" stroke-dashoffset="1.08779998" stroke-linecap="round" stroke-linejoin="round" stroke-width="1.5"/>
  <path d="m127.12285 89.489704c-0.10372 7.05e-4 -0.23064 0.014409-0.40013 0.02425-10.16847 0.590436-21.52067 1.884059-37.322019 10.06409-3.129254 1.619946-7.781804 2.733116-9.627581 2.134086-15.348372-4.981134-35.269476 1.6244-52.369687 2.94646-0.341489 0.0264-0.499064 0.15065-0.521376 0.6184l-0.145504 3.05561c-0.026154 0.54789-0.107051 0.62604 0.400123 0.72752 0.923466 0.18476 1.746096 0.55849 2.558479 0.98216 1.339887 0.69879 2.311784 1.79999 2.558443 3.61338 0.341411 2.50995 0.247009 4.8666 1.042789 6.85086 1.069361 2.66635 3.6933 3.80319 7.214639 4.42577 2.011307 0.3556 4.326466 0.57799 6.803001 0.63396 7.22667 0.16331 15.827289-1.09055 22.2616-4.58684 4.60878-2.50436 7.120859-7.43269 9.712476-12.29517 0.545119-1.02283 1.099126-1.779 3.116213-2.54634 1.069361-0.40681 2.161696-0.70875 3.33451-0.7154 1.504987-0.00856 1.336702 0.92525 1.394403 1.7218 0.159235 2.19857 0.427472 4.16016 1.273184 5.92933 1.112048 2.32642 2.967332 3.80114 6.984246 3.7225 9.615891-0.18823 17.976021-3.6248 23.317141-9.66395 2.54358-2.87602 3.72268-7.10817 5.03206-11.119009 0.33767-1.034322 0.76339-0.965326 2.59485-2.425082 0.33493-0.266964 0.37502-0.528404 0.44863-0.921528 0.16559-0.884579 0.31087-1.731053 0.5335-2.534215 0.15103-0.544771 0.11712-0.644773-0.19399-0.642642zm-6.70534 1.976436c1.3029 0.028705 2.14606 0.827277 1.60055 3.346618-0.65027 3.003163-1.00531 5.940722-2.67973 9.069812-1.08385 2.02542-3.20473 4.14077-5.50494 6.0142-4.17367 3.3993-9.14373 4.75037-14.48985 5.45643-2.875174 0.37973-5.661002 0.22518-7.566258-1.46717-2.482862-2.20536-3.051414-5.9538-2.206828-9.06979 0.884008-3.26165 4.382026-5.023448 7.796619-6.741744 7.097187-3.57143 14.561957-5.096734 22.092497-6.511346 0.33933-0.063745 0.65727-0.103629 0.95794-0.09701zm-54.358255 10.1611c1.480074-0.01998 3.00617-0.00679 4.583404 0.03638 2.347913 0.06425 4.099981 0.32101 5.019926 1.15191 1.081854 0.97715 1.761154 2.38091 1.309544 4.11052-0.7711 2.9533-2.330795 5.67324-4.183251 8.46354-1.483374 2.23433-3.801713 4.11927-6.741729 5.43219-3.110313 1.38893-6.575426 2.53649-10.852264 2.95859-4.27218 0.42166-8.791525 0.78038-13.230985-0.04815-2.644849-0.49362-5.351552-1.49735-6.424292-3.6501-0.87369-1.75321-0.925491-3.72301-0.98218-5.58981-0.045471-1.49785 0.115082-2.80211 0.824526-4.93505 0.816503-2.45476 2.515922-3.49653 4.437906-4.02562 7.770045-2.13902 15.87882-3.76451 26.239395-3.9044z" fill-rule="evenodd"/>
  <path transform="matrix(.3880133 0 0 .3880133 -79.270321 -132.95103)" d="m274.72405 612.32131c28.4316-3.72585 48.5476-6.7814 71.1957-10.17461 1.5148-0.22695 1.1305-0.34455 2.4462-0.12857-26.7135 3.89595-62.3432 11.19972-73.7478 10.40912l0.1059-0.10594z" fill="url(#at)" fill-rule="evenodd" filter="url(#bj)"/>
 </g>
 <path transform="matrix(.3880133 0 0 .3880133 -79.270321 -132.95103)" d="m432.26625 600.41877c-6.4211 2.83197-15.192 5.02135-22.1092 4.48186 3.0304 1.19627 12.9163 0.5673 22.1092-4.48186z" fill="url(#as)" fill-rule="evenodd" filter="url(#bh)"/>
 <path transform="matrix(.3880133 0 0 .3880133 -79.270321 -132.95103)" d="m445.52075 594.02764c14.0566-6.73029 23.4232-9.11557 45.4039-15.62841-9.076 1.31731-33.4618 7.65345-45.4039 15.62841z" fill="url(#aq)" fill-rule="evenodd" filter="url(#bg)"/>
 <path transform="matrix(.3880133 0 0 .3880133 -419.7742 -132.95103)" d="m1401.2247 578.46875c-2.8844 0-5.7387 0.06973-8.5626 0.1875 0.173 0.96689 0.0874 2.35259-0.3437 4.34375-1.6759 7.73985-2.5909 15.31064-6.9063 23.375-2.7933 5.21998-7.2592 11.67172-13.1874 16.5-10.7566 8.76077-24.5656 12.24278-38.3438 14.0625-7.41 0.97864-14.5897-0.41967-19.5-4.78125-6.3989-5.68372-7.8642-15.34433-5.6875-23.375 0.0952-0.35134 0.2255-0.66858 0.3437-1-2.6721 2.84311-4.877 5.80585-6.4687 8.90625 0.4342 4.89998 1.1933 9.33396 3.125 13.375 1.3315 2.78536 4.8454 7.08804 7.4063 8.40625 2.9515 1.51935 4.4484 1.09875 9.8437 2.375 17.34 4.10173 36.8757-1.47802 50.9375-11.25 4.8204-3.34979 8.2046-7.58917 11.7188-11.5625 6.5553-7.41216 9.3753-21.60068 12.75-31.9375 0.8701-2.66569 0.3736-2.48787 5.0937-6.25 0.2524-0.20119 0.9691-0.70329 1.7813-1.3125-1.3336-0.02593-2.6538-0.0625-4-0.0625z" clip-path="url(#z)" fill="none" filter="url(#o)" stroke="#000" stroke-width=".69999999"/>
 <g>
  <g fill-rule="evenodd">
   <path d="m39.297821 104.60703c8.879997-2.44457 18.212181-4.20934 30.82999-3.86403 2.347905 0.06425 4.095092 0.32008 5.015029 1.15099 1.081819 0.97715 1.767012 2.38106 1.315403 4.11067-0.771137 2.95329-2.340459 5.67768-4.192872 8.46796-1.483373 2.23434-3.801485 4.11318-6.741494 5.42609-3.110319 1.38894-6.575354 2.53757-10.852193 2.95969-4.27218 0.42165-8.550259 1.07517-12.989669 0.24663-2.644899-0.49362-5.586541-1.79351-6.659323-3.94624-0.873646-1.75321-0.92983-3.72369-0.986519-5.59051-0.045514-1.49784 0.112672-2.79987 0.822118-4.9328 0.816458-2.45475 2.51751-3.49935 4.43953-4.02845z" fill="url(#ap)" stroke="url(#ak)" stroke-width=".27160928"/>
   <path d="m72.208972 103.88571c-6.607207-1.79313-25.147679 0.42103-33.290053 3.64582l-2.157919 8.8525c7.244264-7.37745 23.426645-8.78571 35.447972-12.49832z" fill="url(#ax)"/>
   <path d="m119.91001 93.897031c-6.6072-1.79313-18.21676 4.294191-26.359129 7.518979-3.610209 3.59326-3.401929 6.33796-2.157919 8.8525 6.449395-6.67101 7.104779-12.329762 28.517048-16.371479z" fill="url(#aw)"/>
  </g>
  <path transform="matrix(.6454765 -.5545034 .5545034 .6454765 24.215366 61.70415)" d="m103.35226 20.264956a2.0894687 4.1789374 0 1 1-4.178942 0 2.0894687 4.1789374 0 1 1 4.178942 0z" fill="url(#aa)" filter="url(#bf)"/>
 </g>
</svg>
