<!DOCTYPE svg  PUBLIC '-//W3C//DTD SVG 1.0//EN'  'http://www.w3.org/TR/2001/REC-SVG-20010904/DTD/svg10.dtd' [
   <!ENTITY ns_imrep "http://ns.adobe.com/ImageReplacement/1.0/">
   <!ENTITY ns_svg "http://www.w3.org/2000/svg">
   <!ENTITY ns_xlink "http://www.w3.org/1999/xlink">
 ]>
<svg enable-background="new 0 0 132.72 127.219" overflow="visible" viewBox="0 0 132.72 127.219" xml:space="preserve" xmlns="http://www.w3.org/2000/svg" xmlns:xlink="http://www.w3.org/1999/xlink">

   <title>Firefox Logo</title>
   <desc>Firefox logo in SVG, authored by Jon Hicks, made in Adobe Illustrator  (file format cleaned up and slightly modified by Doug Schepers)</desc>

   
      
         <ellipse cx="63.755" cy="59.375" rx="59.336" ry="59.375" fill="#110070"/>
         <radialGradient id="am" cx="64.5688" cy="7.2266" r="104.221" gradientUnits="userSpaceOnUse">
            <stop stop-color="#67C5D5" offset="0"/>
            <stop stop-color="#66C2D3" offset=".1604"/>
            <stop stop-color="#62B9CE" offset=".2795"/>
            <stop stop-color="#5CA8C6" offset=".3852"/>
            <stop stop-color="#5392BA" offset=".4832"/>
            <stop stop-color="#4874AA" offset=".5759"/>
            <stop stop-color="#3A5097" offset=".6646"/>
            <stop stop-color="#2A2781" offset=".7485"/>
            <stop stop-color="#1B006D" offset=".8146"/>
            <stop stop-color="#596AAD" offset="1"/>
         </radialGradient>
         <ellipse cx="63.755" cy="59.375" rx="58.215" ry="58.254" fill="url(#am)"/>
         <radialGradient id="al" cx="64.5518" cy="14.1748" r="52.2317" gradientUnits="userSpaceOnUse">
            <stop stop-color="#0F80BC" offset="0"/>
            <stop stop-color="#0A5F9E" offset=".3376"/>
            <stop stop-color="#00145A" offset="1"/>
         </radialGradient>
         <path d="m55.405 89.446c-0.072-0.316-0.857-1.233-1.458-1.438-0.599-0.205-1.188 0.884-1.574-0.924-1.266 0.726-1.812-0.2-1.812-0.2s-1.365 0.08-1.629 1.751c-0.65 0.769-2.316 3.566-1.431 0.657 0.891-2.927-0.94-0.23-1.11 1.24-0.318 0.653-0.855 0.719-0.517-2.218-1.173-0.405-1.772-3.127-1.129-3.179-0.747-1.041-0.16-2.633 0.462-2.548 0.622 0.08 1.69-1.36 1.657-1.694-0.033-0.333 0.482-0.095 0.45-2.336-0.033-2.247 0.847-2.803 0.919-0.924 0.076 1.872 1.194-0.613 1.079-1.566-0.116-0.949 0.112-3.094 0.793-1.826-0.793-3.137-0.167-3.261 0.309-1.173 1.193 0.094 1.234 0.73 1.234 0.73 1.321-0.325 1.954 0.67 2.056 1.228 1.224-1.445 2.46 0.113 2.46 0.113s0.853-0.283 0.445 1.2c-0.41 1.478 1.772 0.678 1.251-0.384 1.073-0.543 2.666 1.102 3.168 2.224 0.502 1.127-0.86 2.723 0.202 3.109 1.068 0.384 0.6 2.242 0.6 2.242s2.232 1.238 0.683 2.301l-0.528 1.265s1.01 1.127 1.354 0.456c0.344-0.672 0.466 0.683 0.466 0.683-0.129-0.24 0.248 1.396 1.64 1.74 1.398 0.341 2.283 2.55 0.731 2.578-1.546 0.025-1.666-0.017-2.085 0.886-0.417 0.899-2.391 0.931-3.413-0.233-1.087 0.368-3.021-0.106-2.452-0.976-0.938 0.547-1.824-0.922-1.091-1.577 0.733-0.653-0.412-1.499-0.797-0.563-0.381 0.935-2.404 1.396-2.263-0.195 0.042-0.472 1.12-0.748 1.134-0.354 0.197 0.455 0.277-0.036 0.196-0.095z" fill="url(#al)"/>
         
            <radialGradient id="ak" cx="64.5537" cy="14.1758" r="52.2289" gradientUnits="userSpaceOnUse">
               <stop stop-color="#0F80BC" offset="0"/>
               <stop stop-color="#0A5F9E" offset=".3376"/>
               <stop stop-color="#00145A" offset="1"/>
            </radialGradient>
            <path d="m103.541 43.916c0.309 0.306 0.917 0.238 1.254 0.144 0.339-0.097 0.291-0.337 0.583-0.431 0.287-0.097 1.397 0.431 1.107 1.584-0.673 0.094-0.917 0.912-0.917 0.912s-0.673 0.287-1.013 0.144c-0.338-0.144-0.338-0.097-0.821-0.05-0.483 0.05-1.643-0.622-0.387-0.622 1.257 0-0.143-0.577-0.675-0.577-0.53 0-0.097-0.528 0.532-0.384-0.436-0.72-0.195-1.251 0.337-0.72z" fill="url(#ak)"/>
            <radialGradient id="aj" cx="64.5488" cy="14.1724" r="52.2373" gradientUnits="userSpaceOnUse">
               <stop stop-color="#0F80BC" offset="0"/>
               <stop stop-color="#0A5F9E" offset=".3376"/>
               <stop stop-color="#00145A" offset="1"/>
            </radialGradient>
            <path d="m99.188 46.524c-0.337 0.334 0.049 1.344 0.483 1.294 0.433-0.047 1.11-0.238 1.11-0.238s0.337 0.672 0 0.866c-0.337 0.19-1.319 0.106-0.047 0.575 1.304 0.479 1.64 0.334 1.737 0.094 0.097-0.238 0.53-1.054 0.773-1.006 0.193-0.431-0.676-0.815-0.192-1.105 0.479-0.288 0.096-1.343 0.096-1.343s-0.677 0.047-0.966 0.528c-0.29 0.48-0.674-0.047-0.964-0.047-0.049 0.287-0.243 0.527-0.243 0.527l-0.193-0.434c-1e-3 -1e-3 -1.354-0.047-1.594 0.289z" fill="url(#aj)"/>
         
         <radialGradient id="ai" cx="65.4053" cy="19.1201" r="57.3827" gradientUnits="userSpaceOnUse">
            <stop stop-color="#0F80BC" offset="0"/>
            <stop stop-color="#0B629B" offset=".2643"/>
            <stop stop-color="#031747" offset=".8439"/>
            <stop stop-color="#00022F" offset="1"/>
         </radialGradient>
         <path d="m90.165 47.314c-0.042-0.123 0.384-0.62 0.27 0.024-0.262 0.458 1.058 0.87 1.428 0.36 1.241-1.7-1.17-2.522-2.216-1.732-1.056 0.797-1.638-0.912-0.425-1.155 1.209-0.245 1.311-2.43-0.021-2.438 1.176-0.58-0.453-2.318-1.799-2.615-0.217-1.87-2.189-3.059-3.226-2.38-1.047 0.681-1.137 0.561-2.671-0.37-1.528-0.927-2.264 1.928-1.14 3.175 1.131 1.256 0.311 3.281 0.358 2.935 0 0-0.426 0.766-0.398 1.053-1.294 0.439-1.672-1.383-2.475-1.786-0.585 0.763-1.53 1.17-1.53 1.17l0.071-1.553s-4.017-2.188-5.251-1.575c-1.521 0.47-1.881 3.991-0.5 4.506 1.383 0.521-1.735 1.818 1.393 5.116 3.213 3.386 4.455 3.483 5.111 2.932 0.162-0.139 0.442-0.347 0.784-0.578 0.031 0.13 0.083 0.255 0.163 0.373 0.804 1.209-1.869 2.162-2.242 3.894-0.379 1.751-0.03 5.007 1.556 5.118 0.302-1.735 3.27-1.122 1.655 0.45-1.644 1.603-0.491 1.886-0.491 1.886s0.078 3.003 2.592 2.043c-0.073 0.172-0.132 0.392-0.167 0.632-0.703-0.142-2.421-0.357-2.841 0.841-0.53 1.512-2.774-0.512-4.344 0.167-1.563 0.674-3.844 2.887-3.076 4.443 1.476-0.7 2.606 2.456 0.544 1.808-2.069-0.65-1.667 0.583-1.667 0.583s-2.154 1.699-0.137 3.508c-0.775 0.118-2.152 0.981-1.688 2.874 0 0-0.885 0.032-1.004 1.726-2.887 0.582-2.711 1.478 1.633 0.496-1.753 0.91 1.226 1.338 2.546 1.217 1.322-0.12 4.792 1.591 2.185 1.608-2.612 0.016-1.834 1.294 1.294 1.355 3.123 0.064 2.795 0.788 3.259 0.756s2.484 1.561 2.374 2.444c-0.113 0.884 2.116 1.801 3.566 0.788 0.074 0.919 3.886 0.202 4.45-1.455 4.128 0.631 4.033-0.139 3.114-0.629-2.067-0.316-5.86-3.063-1.746-1.65 4.093 1.411 0.15-1.11-0.929-2.079-2.35-0.457-2.47-2.416-2.47-2.416s1.298-0.739 0.274-2.586c2.539-0.471 1.006-1.364 1.291-2.215 0.285-0.854 1.574-1.942 2.016-2.03 0.084-0.115 0.775 0.023 0.134 0.283-0.554 6e-3 -0.161 1.566 0.502 1.646 2.242 0.273 1.586-2.654 0.269-3.243-1.32-0.594-0.135-2.204 0.792-1.12 0.927 1.082 2.993-0.133 2.218-1.504 1.232 0.854 1.896-1.909 1.372-3.495 1.648-1.429 1.595-4.278 0.32-4.915-0.627-0.313-0.93-0.516-1.082-0.905 0.757-0.358 1.761-0.622 2.155-0.269 0.641 0.579 2.425-1.018 2.312-2.885 0.751 0.412 1.947-3.395 0.931-4.727 2.326-3.252 1.699-3.547 0.921-3.002-1.17 1.622-5.013 3.563-2.034 0.688 2.892-2.791-0.769-0.675-1.994-0.222-1.441 1.805-2.97 0.938-2.97 0.938s0.065-1.479-1.796-1.509c0.86-2.373-0.526-1.516-1.011-2.164-0.486-0.647-0.661-2.229-0.512-2.634z" fill="url(#ai)"/>
         <radialGradient id="ah" cx="64.5508" cy="14.1733" r="52.2333" gradientUnits="userSpaceOnUse">
            <stop stop-color="#0F80BC" offset="0"/>
            <stop stop-color="#0A5F9E" offset=".3376"/>
            <stop stop-color="#00145A" offset="1"/>
         </radialGradient>
         <path d="m60.007 23.541c-0.361 0.941 1.178 2.47 1.951 1.978 0.775-0.495 1.885-1.482 1.885-1.482s1.177 0.945 0.701 1.619c-0.479 0.672-2.386 1.428 0.374 1.122 2.831-0.313 3.347-0.897 3.333-1.437-0.015-0.538 0.141-2.469 0.631-2.603 0.015-0.99-1.925-0.898-1.253-1.889 0.672-0.986-0.905-2.606-0.905-2.606s-1.228 0.719-1.382 1.888c-0.155 1.167-1.304 0.538-1.848 0.806 0.141 0.584-0.026 1.212-0.026 1.212l-0.711-0.629c1e-3 -1e-3 -2.571 1.168-2.75 2.021z" fill="url(#ah)"/>
         <radialGradient id="ag" cx="64.5518" cy="14.1646" r="52.2415" gradientUnits="userSpaceOnUse">
            <stop stop-color="#0F80BC" offset="0"/>
            <stop stop-color="#0A5F9E" offset=".3376"/>
            <stop stop-color="#00145A" offset="1"/>
         </radialGradient>
         <path d="m64.61 72.966c-0.337 0.334 0.05 1.343 0.483 1.296 0.434-0.049 1.11-0.24 1.11-0.24s0.337 0.672 0 0.865c-0.339 0.19-1.319 0.108-0.049 0.575 1.303 0.48 1.642 0.336 1.739 0.096 0.095-0.24 0.529-1.056 0.771-1.009 0.195-0.431-0.676-0.814-0.193-1.102 0.483-0.291 0.099-1.346 0.099-1.346s-0.676 0.048-0.966 0.529c-0.29 0.479-0.676-0.049-0.966-0.049-0.049 0.288-0.24 0.528-0.24 0.528l-0.193-0.431c-1e-3 0-1.354-0.048-1.595 0.288z" fill="url(#ag)"/>
         
            <defs>
               <ellipse id="m" cx="63.755" cy="59.375" rx="58.215" ry="58.254"/>
            </defs>
            <clipPath id="a">
            <use xlink:href="#m"/>
            </clipPath>
            <linearGradient id="af" x1="76.3716" x2="93.2318" y1="16.5918" y2="18.0293" gradientUnits="userSpaceOnUse">
               <stop stop-color="#0F80BC" offset="0"/>
               <stop stop-color="#0A5F9E" offset=".3376"/>
               <stop stop-color="#00145A" offset="1"/>
            </linearGradient>
            <path d="m65.061 1.002c-0.912 0.203 0.613 3.503 0.613 3.503s-0.055 2.216 0.321 2.329c0.374 0.113 2.852 0.733 4.147 2.345 1.301 1.614 0.625 2.463-0.458 1.997-1.084-0.465-0.797 0.959-0.797 0.959s3.27 1.063 0.8 0.995c-2.475-0.066 1.666 1.741 1.393 1.93-0.273 0.191-0.429 1.231-0.429 1.231s-2.183 0.182-0.333 0.959c6.26 2.637-0.669 1.925-0.669 1.925l-0.884 1.087 1.749 2.194 1.345 0.962s2.833-0.945 3.716-1.093c0.884-0.146 3.114-1.815 3.114-1.815s0.669 0.478 0.169-0.497c-0.501-0.976 1.841-0.54 2.425 0.186l4.134 1.867c0.054 0.144 0.146 0.274 0.292 0.375 0.806 0.565-0.729 1.535-0.573 2.562 0.156 1.016 1.093 2.704 2.121 2.526-0.18-0.969 1.851-1.086 1.144-6e-3 -0.706 1.077 0.077 1.056 0.077 1.056s0.653 1.521 2.034 0.676c-0.056 0.464 0.227 1.397 1.413 1.459 0 0-0.126 0.506 0.848 0.865-0.132 1.737 0.424 1.792 0.561-0.846 0.245 1.157 0.992-0.471 1.141-1.25 0.15-0.784 1.756-2.505 1.322-0.984-0.431 1.508 4.735 2.06 5.308 0.259 0.578-1.815 2.637-2.763 2.699-3.038 0.062-0.281-4.583-0.712-4.07-0.493 0.514 0.219 1.47-0.948 1.115-1.986 0.576 0.116 0.83-2.301-0.083-2.927 1.143-2.405 0.651-2.48 0.182-2.001-0.57 1.205-2.922 3.023-1.327 0.783 1.609-2.263-0.653-0.284-1.438 0.208-0.689 1.341-1.899 1.08-1.899 1.08s-0.222-0.911-1.516-0.607c0.151-1.612-0.653-0.838-1.12-1.154-0.285-0.193-0.558-0.627-0.726-0.999 1.115 0.452 2.612 0.933 2.354 0.104-0.167-0.542 2.112 0.643 2.192 0.396l2.848-0.396 2.769-1.75c-17.697-15.814-38.024-14.976-38.024-14.976z" clip-path="url(#a)" fill="url(#af)"/>
            <linearGradient id="ae" x1="38.4917" x2="29.1739" y1="19.147" y2="32.8324" gradientUnits="userSpaceOnUse">
               <stop stop-color="#0F80BC" offset="0"/>
               <stop stop-color="#0A5F9E" offset=".3376"/>
               <stop stop-color="#00145A" offset="1"/>
            </linearGradient>
            <path d="m38.752 6.095c-10.573 4.747-18.551 14.531-18.551 14.531s0.938 2.145 1.265 1.987c0.33-0.156-2.361 5.628-0.386 5.954 1.985 0.325 7.696-3.578 6.637-3.22-1.056 0.356 0.595-2.112 0.595-2.112s2.972-1.318 1.214 0.202c-1.743 1.511 2.318 0.187 2.255 0.496-0.064 0.311 0.525 1.147 0.525 1.147s-1.393 1.494 0.406 0.892c6.172-2.075 0.812 1.779 0.812 1.779l0.106 1.312 2.67 0.464 1.578-0.15s1.381-2.436 1.914-3.098c0.535-0.663 1.028-3.284 1.028-3.284s0.803-0.084-0.213-0.468c-1.016-0.385 0.972-1.583 1.886-1.434l4.303-1.336c0.138 0.068 0.292 0.103 0.47 0.082 0.985-0.114 0.489 1.603 1.294 2.25 0.796 0.644 2.627 1.264 3.283 0.469-0.784-0.594 0.674-2.011 0.86-0.751 0.187 1.249 0.767 0.723 0.767 0.723s1.543-2.654 2.036-4.177c0.27 0.377 2.788-3.309 2.025-5.067-0.771-1.78 0.479-3.456 0.34-3.715-0.143-0.256-0.896 0.528-0.34 0.34 0.561-0.192-1.589 0.772-1.874-2.061-0.288-2.89-0.707 0.243-0.985 1.169 0.377 1.508 4.29-6.093 4.29-6.093l5.044-2.057c0 4e-3 -11.481-0.957-25.254 5.226z" clip-path="url(#a)" fill="url(#ae)"/>
         
         <linearGradient id="ad" x1="62.6519" x2="62.6519" y1="34.5464" y2="11.8951" gradientUnits="userSpaceOnUse">
            <stop stop-opacity="0" offset=".0137"/>
            <stop stop-color="#C4E0E3" stop-opacity=".2" offset=".65"/>
            <stop stop-color="#C4E0E3" offset=".8224"/>
            <stop stop-color="#CDE5E8" offset=".8498"/>
            <stop stop-color="#E8F4F7" offset=".9443"/>
            <stop stop-color="#F2FAFC" offset="1"/>
         </linearGradient>
         <ellipse cx="62.652" cy="23.271" rx="30.825" ry="19.971" fill="url(#ad)" opacity=".5"/>
      


      <filter id="b" x="-25%" y="-25%" width="150%" height="150%">
         <feGaussianBlur in="SourceAlpha" result="blur" stdDeviation="1.5"/>
         <feOffset dx="1" dy="1" in="blur" result="shift"/>
         <feMerge>
         <feMergeNode in="shift"/>
         <feMergeNode in="SourceGraphic"/>
         </feMerge>
      </filter>
      <g filter="url(#b)">
         
            <linearGradient id="ac" x1="64.4775" x2="78.4661" y1="56.3008" y2="48.0854" gradientUnits="userSpaceOnUse">
               <stop stop-color="#DF731B" offset="0"/>
               <stop stop-color="#DF731B" offset=".5449"/>
               <stop stop-color="#EC8811" offset=".7014"/>
               <stop stop-color="#F4950B" offset=".8593"/>
               <stop stop-color="#F79A09" offset="1"/>
            </linearGradient>
            <path d="m125.321 43.084-1.426 9.15s-2.039-16.94-4.538-23.273c-3.83-9.704-5.534-9.626-5.545-9.612 2.565 6.519 2.1 10.021 2.1 10.021s-4.545-12.387-16.562-16.328c-14.232-4.665-21.482-2.979-21.428-2.914 0.054 0.066 14.709 2.562 17.308 6.133 0 0-6.225 0-12.42 1.785-0.28 0.08 22.793 2.882 27.51 25.938 0 0-2.529-5.277-5.657-6.173 2.057 6.258 1.529 18.133-0.43 24.035-0.252 0.759-0.51-3.281-4.369-5.021 1.236 8.857-0.074 22.905-6.219 26.775-0.479 0.301 3.852-13.868 0.871-8.39-17.797 27.287-38.956 11.04-47.538 5.249 6.888 1.688 14.205 0.472 18.441-2.423 4.275-2.922 6.804-5.058 9.075-4.553 2.27 0.507 3.781-1.771 2.018-3.792-1.765-2.025-6.051-4.808-11.849-3.291-4.089 1.071-9.156 5.595-16.891 1.014-6.599-3.91-6.554-7.085-6.554-9.108 0-2.024 1.8-5.1 5.076-4.595 2.934 0.453 1.388-1.27 4.545 0 0.86 0.346-0.086-4.129-1.31-6.996 2.357-4.919 10.004-6.381 10.575-6.812 1.034-0.782 0.465-1.172 0.818-2.35 0.33-1.097 0.541-4.062-8.017-3.243-3.938 0.377-6.443-4.726-7.264-5.965 0.266-1.577 0.693-3.018 1.271-4.338 0.587-1.203 1.228-2.305 1.868-3.139 0.2-0.261 0.374-0.49 0.532-0.703 1.276-1.488 2.842-2.76 4.722-3.818 0.981-0.554-10.969-0.035-16.346 6.974-1.443 0.188-3.423-0.228-5.636-0.228-2.774 0-4.953 0.303-6.97 0.81-0.323 0.081-0.844 0.037-1.481-0.115-1.775-1.839-6.797-6.259-7.027-12.254 0 0-7.302 5.612-6.209 20.912-0.096 8.461-2.594 6.042-3.879 10.634-0.598 2.176 0.899 3.815 0.899 3.879-2e-3 0.033 1.796-1.946 1.796-1.946s-11.323 19.617 3.3 44.66c12.604 21.589 33.755 31.13 55.703 29.272 3.839-0.25 7.706-0.822 11.564-1.754 51.133-12.363 45.573-74.107 45.573-74.107z" fill="url(#ac)"/>
         
         <linearGradient id="ab" x1="41.8389" x2="52.6969" y1="36.9619" y2="37.8922" gradientUnits="userSpaceOnUse">
            <stop stop-color="#941403" offset=".0112"/>
            <stop stop-color="#E85C0A" offset=".8972"/>
         </linearGradient>
         <path d="m45.469 27.61s2.21 6.039 7.167 6.019c9.457-0.038 9.646 0.093 9.707 1.243 0.188 3.5-1.54 4.647-2.201 5.145-0.663 0.497-9.668 5.718-9.999 7.211-0.331 1.492-10.391-14.198-10.391-14.198l5.717-5.42z" fill="url(#ab)"/>
         <linearGradient id="aa" x1="24.4502" x2="63.643" y1="33.9526" y2="38.8517" gradientUnits="userSpaceOnUse">
            <stop stop-color="#941403" offset=".0112"/>
            <stop stop-color="#A32104" offset=".1357"/>
            <stop stop-color="#C84107" offset=".4978"/>
            <stop stop-color="#DF5509" offset=".7893"/>
            <stop stop-color="#E85C0A" offset=".972"/>
         </linearGradient>
         <path d="m50.504 34.12s3.072 3.922 0.749 5.491c-2.838 1.916 4.012 2.335 6.494 0.942s4.006-3.44 4.093-3.745 0.902-3.054-4.279-2.096c-3.276 0.606-4.476 0.746-7.057-0.592z" fill="url(#aa)"/>
         <linearGradient id="z" x1="48.731" x2="51.8565" y1="44.3203" y2="42.9451" gradientUnits="userSpaceOnUse">
            <stop stop-color="#F2C8A9" offset="0"/>
            <stop stop-color="#ffc" offset="1"/>
         </linearGradient>
         <path d="m60.143 40.017c0.502-0.378 1.616-1.137 2.042-3.011-0.311 0.126-0.34-0.23-0.707-0.076-6.955 7.255-7.221 2.203-11.017 3.22-3.46 0.947-4.237 2.246-4.383 2.347 0.051 0.073 0.104 0.148 0.155 0.221 0.997 0.506 1.953 2.122 2.671 3.564 0.702 0.836 1.173 1.248 1.241 0.945 0.33-1.493 9.335-6.714 9.998-7.21z" fill="url(#z)"/>
         <linearGradient id="y" x1="38.7676" x2="91.3391" y1="82.5825" y2="84.7472" gradientUnits="userSpaceOnUse">
            <stop stop-color="#B30000" offset="0"/>
            <stop stop-color="#DF731B" offset="1"/>
         </linearGradient>
         <path d="m8.18 45.782c-1.42 2.979-10.532 18.377 4.339 44.005 14.552 25.084 39.737 33.276 65.45 27.71 7.34-1.588 15.803-7.331 21.196-11.545-3.465-8.74-1.414-8.412-3.271-7.262-20.714 12.823-37.18 0.174-49.924-1.443-46.883-5.942-37.625-51.558-37.625-51.558l-0.165 0.093z" fill="url(#y)"/>
         <linearGradient id="x" x1="51.2778" x2="78.6891" y1="74.4243" y2="84.2116" gradientUnits="userSpaceOnUse">
            <stop stop-color="#941403" offset="0"/>
            <stop stop-color="#DF731B" offset="1"/>
         </linearGradient>
         <path d="m47.219 80.933c4.419 1.325 14.06 0.183 18.201-2.897 2.79-2.074 4.898-3.638 6.671-4.292-3.134-2.129-3.184 0.889-9.774 2.415-13.728 3.185-20.393-3.695-20.393-3.695 0.972 5.444 4.372 8.095 5.902 9.036-0.406-0.36-0.619-0.571-0.607-0.567z" fill="url(#x)"/>
         <linearGradient id="w" x1="6.1064" x2="32.8281" y1="87.0566" y2="87.0566" gradientTransform="matrix(.9988 .049 -.049 .9988 4.7153 -1.2399)" gradientUnits="userSpaceOnUse">
            <stop stop-color="#B30000" offset=".0562"/>
            <stop stop-color="#DE5C01" offset="1"/>
         </linearGradient>
         <path d="m32.332 105.794s-11.428-12.896-14.618-27.338c-4.704-4.443-8.042-8.2-10.259-10.917 1.28 10.277 6.52 26.232 24.877 38.255z" fill="url(#w)"/>
         <linearGradient id="v" x1="209.7227" x2="224.2611" y1="-130.6592" y2="-85.6186" gradientTransform="matrix(.9929 .1186 -.1186 .9929 -207.2682 181.2932)" gradientUnits="userSpaceOnUse">
            <stop stop-color="#DE7210" offset=".0562"/>
            <stop stop-color="#F6C08F" offset="1"/>
         </linearGradient>
         <path d="m22.799 94.082s-7.887-11.228-4.93-20.762c2.66-8.571-0.565-3.472-2.441-1.64-1.895 1.851-2.869-5.464-2.821-6.307 3e-3 -0.018 1e-3 -0.026-1e-3 -0.027-0.119-0.025-3.754 17.526 10.193 28.736z" fill="url(#v)"/>
         <linearGradient id="u" x1="12.4712" x2="12.4712" y1="61.1074" y2="111.4548" gradientTransform="matrix(.999 .0448 -.0448 .999 3.2321 -.6968)" gradientUnits="userSpaceOnUse">
            <stop stop-color="#DE7210" offset=".0562"/>
            <stop stop-color="#F6C08F" offset="1"/>
         </linearGradient>
         <path d="m11.115 84.294s-1.798-22.788 3.885-26.009c9.025-5.115 0.753-3.919-1.864-2.499-2.645 1.433-2.4-8-2.026-8.896 0.367-0.883-9.315 8.918 5e-3 37.404z" fill="url(#u)"/>
         <path d="m50.601 17.239s-7.145 7.257-7.092 7.282c0.054 0.026 0.205 9.315 0.438 11.948 0.856 1.011 3.524 7.588 1.482 6.128-2.086-1.49-0.582-1.522-0.4-0.765 5e-3 0.025 5e-3 0.037 0 0.037-0.138 0.064-5.185-10.923 5.572-24.63z" fill="#A40000"/>
         <linearGradient id="t" x1="18.3477" x2="12.8857" y1="30.8462" y2="16.8496" gradientUnits="userSpaceOnUse">
            <stop stop-color="#941403" offset=".0112"/>
            <stop stop-color="#E85C0A" offset=".4719"/>
            <stop stop-color="#F9BD5F" offset="1"/>
         </linearGradient>
         <path d="m16.613 11.647s-7.594 5.825-6.143 21.805c5.878-5.277 14.19-9.222 14.19-9.222-1.395-0.878-7.794-5.997-8.047-12.583z" fill="url(#t)"/>
         <linearGradient id="s" x1="41.7036" x2="54.7924" y1="34.0576" y2="16.8533" gradientUnits="userSpaceOnUse">
            <stop stop-color="#DE7210" offset=".1966"/>
            <stop stop-color="#F9BD5F" offset=".8427"/>
            <stop stop-color="#FFFCCF" offset="1"/>
         </linearGradient>
         <path d="m35.328 29.122 11.406 14.185c-3.291-13.93-0.761-22.288 7.34-26.847 1.199-0.676-16.925 0.243-18.746 12.662z" fill="url(#s)"/>
         <linearGradient id="r" x1="34.7837" x2="48.0524" y1="57.5415" y2="84.0789" gradientUnits="userSpaceOnUse">
            <stop stop-color="#941403" offset=".0169"/>
            <stop stop-color="#E35100" offset=".5"/>
            <stop stop-color="#DF731B" offset="1"/>
         </linearGradient>
         <path d="m27.292 64.164c1.945-12.256 19.002-10.454 19.002-10.454-0.761 0.565-3.683 0.903-4.52 3.241-2.762 7.719-0.128 24.581 17.078 31.653 1.815 0.748-34.434-6.328-31.56-24.44z" fill="url(#r)"/>
         <linearGradient id="q" x1="54.8252" x2="58.1387" y1="41.2671" y2="44.27" gradientUnits="userSpaceOnUse">
            <stop stop-color="#EEA272" offset="0"/>
            <stop stop-color="#EFA777" offset=".1865"/>
            <stop stop-color="#F2B585" offset=".4064"/>
            <stop stop-color="#F6CD9C" offset=".643"/>
            <stop stop-color="#FCEEBB" offset=".8898"/>
            <stop stop-color="#ffc" offset="1"/>
         </linearGradient>
         <path d="m62.087 37.338c-0.084-0.015-0.158-0.013-0.195 0.037-0.21 0.281-1.021 1.239-2.95 2.81-3.583 2.915-5.093 2.177-7.762 2.774-1.215 0.271-2.37 1.087-3.148 1.741 0.315 0.509 0.609 1.057 0.871 1.582 0.702 0.836 1.173 1.248 1.241 0.945 0.331-1.493 9.336-6.714 9.999-7.211 0.47-0.353 1.468-1.054 1.944-2.678z" fill="url(#q)"/>
         <linearGradient id="p" x1="35.5" x2="50.7214" y1="48.3613" y2="63.8933" gradientUnits="userSpaceOnUse">
            <stop stop-color="#DF731B" offset=".1966"/>
            <stop stop-color="#F9BD5F" offset=".8427"/>
            <stop stop-color="#FFFCCF" offset="1"/>
         </linearGradient>
         <path d="m51.09 55.865c0.1-2.59-0.081-8.881-2.774-11.611-2.057-2.085-2.54-4.474-2.816-7.201-22.363 8.353-25.556 19.272-23.32 18.917 17.886-2.835 22.914-3.182 28.91-0.105z" fill="url(#p)"/>
         <linearGradient id="o" x1="847.4707" x2="847.4707" y1="-1065.021" y2="-1007.9581" gradientTransform="matrix(.9673 .2537 -.2537 .9673 -1076.6656 855.2322)" gradientUnits="userSpaceOnUse">
            <stop stop-color="#DE7210" offset=".0562"/>
            <stop stop-color="#F6C08F" offset="1"/>
         </linearGradient>
         <path d="m3.411 71.171s1.554-20.192 11.661-27.582c7.935-5.805 1.773-3.696-1.291-3.456-3.231 0.256-4.954 2.221-4.331 1.498 0.027-0.03 0.036-0.047 0.031-0.055-0.106-0.125-7.584 6.15-6.07 29.595z" fill="url(#o)"/>
         <linearGradient id="n" x1="15.8564" x2="-3.4365" y1="36.4131" y2="67.833" gradientTransform="matrix(.9897 -.0801 .0949 1.1727 -3.8203 -4.9468)" gradientUnits="userSpaceOnUse">
            <stop stop-color="#DE7210" offset=".0562"/>
            <stop stop-color="#F2C06E" offset="1"/>
         </linearGradient>
         <path d="m2.347 55.658s5.416-17.192 16.362-17.047c7.259 0.097 1.501-6.134-0.695-7.081-2.291-0.981-2.839-0.943-3.374-0.469-0.802 0.71-8.004 0.436-12.293 24.597z" fill="url(#n)"/>
         <linearGradient id="l" x1="80.9292" x2="60.4332" y1="67.8447" y2="71.7597" gradientUnits="userSpaceOnUse">
            <stop stop-color="#FFFAEE" offset=".0047"/>
            <stop stop-color="#F5F89B" offset=".2757"/>
            <stop stop-color="#F3ED91" offset=".3102"/>
            <stop stop-color="#ECC267" offset=".4668"/>
            <stop stop-color="#E6A046" offset=".6182"/>
            <stop stop-color="#E2872E" offset=".7611"/>
            <stop stop-color="#E07820" offset=".8921"/>
            <stop stop-color="#DF731B" offset="1"/>
         </linearGradient>
         <path d="m76.185 72.486c0.823-0.807 0.249-3.903-4.924-5.78-4.694-1.705-12.021 2.63-14.195 3.486 0 0 8.299-1.555 11.411-1.037 4.218 0.702 5.7 5.301 7.708 3.331z" fill="url(#l)"/>
         <linearGradient id="k" x1="-411.2729" x2="-411.2729" y1="427.6279" y2="475.3195" gradientTransform="matrix(.992 .1261 -.1261 .992 477.0624 -332.3914)" gradientUnits="userSpaceOnUse">
            <stop stop-color="#DE7210" offset=".0562"/>
            <stop stop-color="#F2C06E" offset="1"/>
         </linearGradient>
         <path d="m10.342 66.822s-0.899-16.902 6.676-24.121c5.947-5.67 1.069-3.255-1.444-2.724-2.65 0.562-3.865 2.377-3.426 1.71 0.019-0.028 0.023-0.043 0.019-0.049-0.103-0.091-5.619 5.919-1.825 25.184z" fill="url(#k)"/>
         <linearGradient id="j" x1="-414.4365" x2="-414.4365" y1="422.6836" y2="470.3703" gradientTransform="matrix(.9324 .3616 -.3616 .9324 554.92 -207.713)" gradientUnits="userSpaceOnUse">
            <stop stop-color="#DE7210" offset=".0562"/>
            <stop stop-color="#F2C06E" offset="1"/>
         </linearGradient>
         <path d="m4.508 61.453s3.201-16.621 12.293-21.801c7.138-4.069 1.823-2.901-0.745-2.991-2.708-0.093-4.324 1.375-3.738 0.834 0.025-0.022 0.033-0.037 0.03-0.042-0.076-0.115-6.878 4.389-7.84 24z" fill="url(#j)"/>
         <linearGradient id="i" x1="13.8481" x2=".5692" y1="55.7974" y2="75.7157" gradientTransform="matrix(.8104 -.5859 .5859 .8104 -28.537 20.3312)" gradientUnits="userSpaceOnUse">
            <stop stop-color="#DE7210" offset=".0562"/>
            <stop stop-color="#F2C072" offset="1"/>
         </linearGradient>
         <path d="m15.303 68.275s-1.75-10.074 2.021-15.033c3.01-3.957 0.367-2.021-1.03-1.451-1.458 0.596-2.011 1.771-1.812 1.34 0.193-0.421-6.488 4.756 0.821 15.144z" fill="url(#i)"/>
         <linearGradient id="h" x1="21.0347" x2="7.7561" y1="49.271" y2="69.1888" gradientTransform="matrix(.8104 -.5859 .5859 .8104 -28.537 20.3312)" gradientUnits="userSpaceOnUse">
            <stop stop-color="#DE7210" offset=".0562"/>
            <stop stop-color="#F2C072" offset="1"/>
         </linearGradient>
         <path d="m17.303 58.775s-1.75-10.074 2.021-15.033c3.01-3.957 0.367-2.021-1.03-1.451-1.458 0.596-2.011 1.771-1.812 1.34 0.193-0.421-6.488 4.756 0.821 15.144z" fill="url(#h)"/>
         <linearGradient id="g" x1="12.3135" x2="6.504" y1="37.8647" y2="48.7088" gradientUnits="userSpaceOnUse">
            <stop stop-color="#DE7210" offset=".0562"/>
            <stop stop-color="#EED8A5" offset="1"/>
         </linearGradient>
         <path d="m6.725 45.003s4.087-8.375 9.52-10.024c4.336-1.315 1.35-1.296 0.014-1.622-1.396-0.338-2.431 0.234-2.054 0.022 0.368-0.207-7.33 0.049-7.48 11.624z" fill="url(#g)"/>
         <linearGradient id="f" x1="11.7305" x2="5.9211" y1="44.4917" y2="55.3354" gradientUnits="userSpaceOnUse">
            <stop stop-color="#DE7210" offset=".0562"/>
            <stop stop-color="#EED8A5" offset="1"/>
         </linearGradient>
         <path d="m6.142 51.631s4.087-8.375 9.52-10.024c4.336-1.315 1.35-1.296 0.014-1.622-1.396-0.338-2.431 0.234-2.054 0.022 0.367-0.208-7.331 0.049-7.48 11.624z" fill="url(#f)"/>
         <linearGradient id="e" x1="18.313" x2="12.6977" y1="39.8911" y2="53.833" gradientUnits="userSpaceOnUse">
            <stop stop-color="#DE7210" offset=".0562"/>
            <stop stop-color="#F2C072" offset="1"/>
         </linearGradient>
         <path d="m9.109 49.803s7.209-14.774 16.794-17.684c7.65-2.32 2.382-2.287 0.024-2.86-2.462-0.597-4.288 0.414-3.624 0.039 0.65-0.367-12.93 0.085-13.194 20.505z" fill="url(#e)"/>
         <linearGradient id="d" x1="20.4468" x2="7.1675" y1="33.1045" y2="53.0234" gradientUnits="userSpaceOnUse">
            <stop stop-color="#DE7210" offset=".0562"/>
            <stop stop-color="#F2C072" offset="1"/>
         </linearGradient>
         <path d="m14.037 41.846s4.484-9.189 10.445-10.999c4.758-1.443 1.481-1.422 0.015-1.779-1.532-0.371-2.667 0.257-2.254 0.024 0.404-0.228-8.042 0.053-8.206 12.754z" fill="url(#d)"/>
         <linearGradient id="c" x1="21.3408" x2="9.2385" y1="37.1255" y2="55.279" gradientUnits="userSpaceOnUse">
            <stop stop-color="#DE7210" offset=".0562"/>
            <stop stop-color="#F2C072" offset="1"/>
         </linearGradient>
         <path d="m15.499 45.092s4.087-8.375 9.52-10.024c4.336-1.315 1.35-1.296 0.014-1.622-1.396-0.338-2.431 0.234-2.054 0.022 0.367-0.208-7.331 0.049-7.48 11.624z" fill="url(#c)"/>
         <linearGradient id="bi" x1="60.2861" x2="61.245" y1="34.2974" y2="36.0061" gradientUnits="userSpaceOnUse">
            <stop stop-color="#8B8B89" offset="0"/>
            <stop stop-color="#120500" offset="1"/>
         </linearGradient>
         <path d="m62.344 34.872c-0.047-0.873-0.176-1.158-4.356-1.229 0.479 0.217 1.305 0.652 2.214 1.398 1.201 0.984 1.396 2.081 1.52 3.217 0.407-0.774 0.705-1.841 0.622-3.386z" fill="url(#bi)"/>
         <linearGradient id="bh" x1="22.5596" x2="22.5596" y1="28.4922" y2="23.2452" gradientUnits="userSpaceOnUse">
            <stop stop-color="#DE7210" offset=".0562"/>
            <stop stop-color="#F6C08F" offset="1"/>
         </linearGradient>
         <path d="m37.802 23.206-3.625 5.833s-14.496-2.273-26.785 9.616c-1.016 0.982 8.038-21.023 30.41-15.449z" fill="url(#bh)"/>
         <linearGradient id="bg" x1="23.0117" x2="33.9931" y1="34.751" y2="21.918" gradientTransform="matrix(.9992 .0398 -.0398 .9992 .9958 -1.3319)" gradientUnits="userSpaceOnUse">
            <stop stop-color="#DE7210" offset=".0562"/>
            <stop stop-color="#F6C08F" offset="1"/>
         </linearGradient>
         <path d="m24.784 33.646s3.863-7.172 8.872-9.339c-2.589 0.082-8.403 2.106-8.872 9.339z" fill="url(#bg)"/>
         <linearGradient id="bf" x1="15.5088" x2="9.6995" y1="33.5078" y2="44.3515" gradientUnits="userSpaceOnUse">
            <stop stop-color="#DE7210" offset=".0562"/>
            <stop stop-color="#EED8A5" offset="1"/>
         </linearGradient>
         <path d="m9.92 40.646s4.087-8.375 9.52-10.024c4.336-1.315 1.35-1.296 0.014-1.622-1.396-0.338-2.431 0.234-2.054 0.022 0.368-0.207-7.331 0.049-7.48 11.624z" fill="url(#bf)"/>
         <linearGradient id="be" x1="16.3398" x2="27.0674" y1="35.8047" y2="23.2683" gradientTransform="matrix(.9946 .1039 -.1039 .9946 3.786 -2.0567)" gradientUnits="userSpaceOnUse">
            <stop stop-color="#DE7210" offset=".0562"/>
            <stop stop-color="#F6C08F" offset="1"/>
         </linearGradient>
         <path d="m18.482 34.745s4.217-6.751 9.235-8.548c-2.527-0.083-8.323 1.526-9.235 8.548z" fill="url(#be)"/>
         <linearGradient id="bd" x1="13.3721" x2="26.2598" y1="22.876" y2="24.641" gradientTransform="matrix(.9959 .0903 -.0903 .9959 2.3457 -2.346)" gradientUnits="userSpaceOnUse">
            <stop stop-color="#DE7210" offset=".0562"/>
            <stop stop-color="#F6C08F" offset="1"/>
         </linearGradient>
         <path d="m25.712 23.214s-3.18 1.389-8.787-0.942l4.999 2.513 3.788-1.571z" fill="url(#bd)"/>
         <linearGradient id="bc" x1="6.9834" x2="25.1783" y1="23.1094" y2="25.6012" gradientUnits="userSpaceOnUse">
            <stop stop-color="#DE7210" offset=".0562"/>
            <stop stop-color="#F6C08F" offset="1"/>
         </linearGradient>
         <path d="m24.175 24.105s-4.238 1.642-12.394-0.802l6.977 2.776c0.863-0.798 5.417-1.974 5.417-1.974z" fill="url(#bc)"/>
         <linearGradient id="bb" x1="15.8809" x2="27.7244" y1="22.228" y2="23.85" gradientTransform="matrix(.9959 .0903 -.0903 .9959 2.3457 -2.346)" gradientUnits="userSpaceOnUse">
            <stop stop-color="#DE7210" offset=".0562"/>
            <stop stop-color="#F6C08F" offset="1"/>
         </linearGradient>
         <path d="m27.268 22.759s-2.813 0.856-8.009-1.154l4.999 2.513c0.528-0.467 3.01-1.359 3.01-1.359z" fill="url(#bb)"/>
         <linearGradient id="ba" x1="15.2012" x2="4.5215" y1="26.9399" y2="25.8437" gradientUnits="userSpaceOnUse">
            <stop stop-color="#DE7210" offset=".0562"/>
            <stop stop-color="#F6C08F" offset="1"/>
         </linearGradient>
         <path d="m18.496 25.993s-2.09 1.735-7.443 1.806l4.63 0.151 2.813-1.957z" fill="url(#ba)"/>
         <linearGradient id="az" x1="10.9453" x2="25.7187" y1="37.0996" y2="19.8352" gradientTransform="matrix(.9946 .1039 -.1039 .9946 3.786 -2.0567)" gradientUnits="userSpaceOnUse">
            <stop stop-color="#DE7210" offset=".0562"/>
            <stop stop-color="#F6C08F" offset="1"/>
         </linearGradient>
         <path d="m13.411 34.871s7.153-9.318 13.044-11.428c-2.968-0.097-11.975 3.186-13.044 11.428z" fill="url(#az)"/>
      </g>
      
         <linearGradient id="ay" x1="88.3306" x2="117.2648" y1="117.3682" y2="72.7407" gradientUnits="userSpaceOnUse">
            <stop stop-color="#DE5C01" offset="0"/>
            <stop stop-color="#FEFD00" offset=".736"/>
            <stop stop-color="#FEFE26" offset=".7783"/>
            <stop stop-color="#FFFE54" offset=".8369"/>
            <stop stop-color="#FFFF76" offset=".889"/>
            <stop stop-color="#FFFF8B" offset=".932"/>
            <stop stop-color="#FFFF92" offset=".9607"/>
         </linearGradient>
         <path d="m124.199 50.76s0.771 17.288-23.244 41.304c-2.669 2.668-17.16 16.244-16.65 20.317 0.179 1.439 38.021-5.805 39.894-61.621z" fill="url(#ay)"/>
         <linearGradient id="ax" x1="105.1567" x2="86.2112" y1="22.7378" y2="14.4171" gradientUnits="userSpaceOnUse">
            <stop stop-color="#F79A09" offset="0"/>
            <stop stop-color="#FEFD00" offset=".736"/>
            <stop stop-color="#FEFE26" offset=".7783"/>
            <stop stop-color="#FFFE54" offset=".8369"/>
            <stop stop-color="#FFFF76" offset=".889"/>
            <stop stop-color="#FFFF8B" offset=".932"/>
            <stop stop-color="#FFFF92" offset=".9607"/>
         </linearGradient>
         <path d="m77.64 10.096c28.926 2.222 34.528 23.021 34.53 21.748 0.073-20.22-27.444-21.755-34.53-21.748z" fill="url(#ax)"/>
         <linearGradient id="aw" x1="117.8823" x2="91.3593" y1="41.729" y2="17.106" gradientUnits="userSpaceOnUse">
            <stop stop-color="#DE5C01" offset="0"/>
            <stop stop-color="#FEFD00" offset=".736"/>
            <stop stop-color="#FEFE26" offset=".7783"/>
            <stop stop-color="#FFFE54" offset=".8369"/>
            <stop stop-color="#FFFF76" offset=".889"/>
            <stop stop-color="#FFFF8B" offset=".932"/>
            <stop stop-color="#FFFF92" offset=".9607"/>
         </linearGradient>
         <path d="m86.449 18.003s20.053 4.099 25.709 25.354c0.75 2.815-2.416-17.267-1.439-15.361 0.975 1.916-8.071-9.358-24.27-9.993z" fill="url(#aw)"/>
         <linearGradient id="av" x1="1.1396" x2="-9.9659" y1="145.4453" y2="133.9595" gradientTransform="matrix(.9996 -.0282 .0282 .9996 104.7769 -104.6242)" gradientUnits="userSpaceOnUse">
            <stop stop-color="#F79A09" offset="0"/>
            <stop stop-color="#FEFD00" offset=".736"/>
            <stop stop-color="#FEFE26" offset=".7783"/>
            <stop stop-color="#FFFE54" offset=".8369"/>
            <stop stop-color="#FFFF76" offset=".889"/>
            <stop stop-color="#FFFF8B" offset=".932"/>
            <stop stop-color="#FFFF92" offset=".9607"/>
         </linearGradient>
         <path d="m94.464 17.483s18.11 3.775 18.29 32.509c0.127 20.338 3.141 7.635 6.131 3.064 2.578-3.948 0.816-8.76 0.754-8.748-0.01 3e-3 -1.305-3.743-0.432-2.156 0.039 0.07-1.216-1.034-1.207-1.035 0.201-0.03-0.697-20.652-23.536-23.634z" fill="url(#av)"/>
         <linearGradient id="au" x1="113.4365" x2="119.687" y1="55.834" y2="34.3323" gradientUnits="userSpaceOnUse">
            <stop stop-color="#F79A09" offset="0"/>
            <stop stop-color="#FEFD00" offset=".736"/>
            <stop stop-color="#FEFE26" offset=".7783"/>
            <stop stop-color="#FFFE54" offset=".8369"/>
            <stop stop-color="#FFFF76" offset=".889"/>
            <stop stop-color="#FFFF8B" offset=".932"/>
            <stop stop-color="#FFFF92" offset=".9607"/>
         </linearGradient>
         <path d="m114.857 21.376s6.505 16.945-0.389 25.371c-2.25 2.75-2.502 16.839 0.247 15.545 2.756-1.296 2.157 7.481 1.796 8.48-8e-3 0.019-0.01 0.028-6e-3 0.031 0.18 0.111 13.592-21.66-1.648-49.427z" fill="url(#au)"/>
         <linearGradient id="at" x1="-51.9663" x2="-52.1943" y1="212.7881" y2="196.4341" gradientTransform="matrix(.9992 -.0412 .0412 .9992 151.8961 -153.906)" gradientUnits="userSpaceOnUse">
            <stop stop-color="#F79A09" offset="0"/>
            <stop stop-color="#FEFD00" offset=".736"/>
            <stop stop-color="#FEFE26" offset=".7783"/>
            <stop stop-color="#FFFE54" offset=".8369"/>
            <stop stop-color="#FFFF76" offset=".889"/>
            <stop stop-color="#FFFF8B" offset=".932"/>
            <stop stop-color="#FFFF92" offset=".9607"/>
         </linearGradient>
         <path d="m105.814 39.215s4.095 11.989-0.193 20.56l3.244 7.245c2.379-5.844 5.408-18.203-3.051-27.805z" fill="url(#at)"/>
         <linearGradient id="as" x1="-172.7212" x2="-161.4561" y1="332.082" y2="309.8933" gradientTransform="matrix(.9975 -.0707 .0707 .9975 254.6004 -268.4704)" gradientUnits="userSpaceOnUse">
            <stop stop-color="#F79A09" offset="0"/>
            <stop stop-color="#FEFD00" offset=".736"/>
            <stop stop-color="#FEFE26" offset=".7783"/>
            <stop stop-color="#FFFE54" offset=".8369"/>
            <stop stop-color="#FFFF76" offset=".889"/>
            <stop stop-color="#FFFF8B" offset=".932"/>
            <stop stop-color="#FFFF92" offset=".9607"/>
         </linearGradient>
         <path d="m113.016 37.789s2.832 19.03-7.387 36.208c0.158 3.973-0.539 7.569-1.496 10.532 0.445 0.586 1.041 0.987 1.827 1.057-0.347 0.32-0.692 0.62-1.026 0.904-0.614 0.271-1.243 0.558-1.852 0.853-0.13 0.303-0.261 0.597-0.389 0.879 0.68-0.477 1.438-1.056 2.24-1.731 2.087-0.922 3.965-1.638 3.961-1.642 0 0-0.383 0.143-1.303 0.478-0.619 0.225-1.16 0.301-1.632 0.259 7.892-7.192 18.706-23.275 7.057-47.797zm-11.907 50.59c-0.902 0.529-1.558 1.025-1.698 1.408-0.103 0.279 0.512 0.118 1.575-0.479 0.055-0.319 0.1-0.632 0.123-0.929z" fill="url(#as)"/>
         <linearGradient id="ar" x1="99.2056" x2="100.7206" y1="87.7466" y2="63.1691" gradientTransform="matrix(.9975 -.0707 .0707 .9975 -10.9669 13.6507)" gradientUnits="userSpaceOnUse">
            <stop stop-color="#DE5C01" offset="0"/>
            <stop stop-color="#FEFD00" offset=".736"/>
            <stop stop-color="#FEFE26" offset=".7783"/>
            <stop stop-color="#FFFE54" offset=".8369"/>
            <stop stop-color="#FFFF76" offset=".889"/>
            <stop stop-color="#FFFF8B" offset=".932"/>
            <stop stop-color="#FFFF92" offset=".9607"/>
         </linearGradient>
         <path d="m100.412 58.065s8.057 22.932-17.693 44.432c-1.519 1.269 10.452 0.726 11.5 0.25 3.086-1.402 6.733-10.757 6.303-9.637-0.427 1.119 11.957-16.536-0.11-35.045z" fill="url(#ar)"/>
         <linearGradient id="aq" x1="58.3691" x2="105.8753" y1="113.8594" y2="85.4649" gradientUnits="userSpaceOnUse">
            <stop stop-color="#B9120D" offset="0"/>
            <stop stop-color="#BB180D" offset=".078"/>
            <stop stop-color="#C0290C" offset=".1822"/>
            <stop stop-color="#C8450A" offset=".3013"/>
            <stop stop-color="#D36C08" offset=".4314"/>
            <stop stop-color="#E29E05" offset=".5706"/>
            <stop stop-color="#F4DA02" offset=".7151"/>
            <stop stop-color="#FEFD00" offset=".7921"/>
            <stop stop-color="#FEFD07" offset=".8136"/>
            <stop stop-color="#FEFD1B" offset=".8455"/>
            <stop stop-color="#FEFE3C" offset=".8837"/>
            <stop stop-color="#FFFE69" offset=".9268"/>
            <stop stop-color="#FFFFA3" offset=".9736"/>
            <stop stop-color="#FFFFC7" offset="1"/>
         </linearGradient>
         <path d="m111.68 72.61s-4.86 29.744-38.461 32.137c-13.157 0.938-32.048-2.141-30.375 2.877 0.519 1.556 2.992 8.043 8.636 9.548 15.275 4.075 55.915 2.741 60.2-44.562z" fill="url(#aq)"/>
      
      
         <linearGradient id="ap" x1="54.2402" x2="102.9066" y1="93.5825" y2="100.176" gradientTransform="matrix(.9951 .0989 -.0989 .9951 10.3843 -6.0754)" gradientUnits="userSpaceOnUse">
            <stop stop-color="#DE7210" offset=".0562"/>
            <stop stop-color="#F6C08F" offset="1"/>
         </linearGradient>
         <path d="m83.657 95.119s-20.559 4.697-33.878-6.641c-12.187-10.377-6.141-1.643-4.488 2.665 1.698 4.418-7.853 1.042-9.289 0.332-1.431-0.701 22.623 14.384 47.655 3.644z" fill="url(#ap)"/>
         <linearGradient id="ao" x1="39.0127" x2="95.5219" y1="89.8896" y2="107.6497" gradientTransform="matrix(.9895 .1448 -.1448 .9895 14.2829 -5.8352)" gradientUnits="userSpaceOnUse">
            <stop stop-color="#DE7210" offset=".0562"/>
            <stop stop-color="#F6C08F" offset="1"/>
         </linearGradient>
         <path d="m70.408 106.325s-24.525-4.82-32.29-21.438c-6.635-14.197-4.879-3.779-5.178 0.962-0.314 4.877-7.191-1.783-8.11-2.942-0.026-0.028-0.044-0.047-0.046-0.042-0.137 0.09 12.649 20.134 45.624 23.46z" fill="url(#ao)"/>
         <linearGradient id="an" x1="-601.4673" x2="-574.5974" y1="628.9609" y2="680.4042" gradientTransform="matrix(.9837 -.1799 .1799 .9837 500.9515 -643.7268)" gradientUnits="userSpaceOnUse">
            <stop stop-color="#DE7210" offset=".0562"/>
            <stop stop-color="#F6C08F" offset="1"/>
         </linearGradient>
         <path d="m43.617 104.176s-11.714-9.073-16.995-21.514c-4.438-1.542-10.339-5.067-10.456-5.67 1.875 9.667 11.746 20.954 27.451 27.184z" fill="url(#an)"/>
      
   
</svg>
