<svg sodipodi:docbase="/home/andreas/projekt/tango" sodipodi:docname="kopete.svg" sodipodi:version="0.32" viewBox="0 0 48 48" xmlns="http://www.w3.org/2000/svg" xmlns:sodipodi="http://inkscape.sourceforge.net/DTD/sodipodi-0.dtd" xmlns:xlink="http://www.w3.org/1999/xlink">
 <defs>
  <radialGradient id="a" cx="26.019152" cy="40.607155" r="16.142857" gradientTransform="matrix(.980843 -4.680594e-7 8.072903e-8 .272124 .498429 29.55698)" gradientUnits="userSpaceOnUse">
   <stop stop-color="#2e3436" offset="0"/>
   <stop stop-color="#2e3436" stop-opacity="0" offset="1"/>
  </radialGradient>
  <linearGradient id="c" x1="12.758479" x2="22.857143" y1="11.057302" y2="22.32143" gradientTransform="matrix(1.218853 0 0 1.220231 .233463 -1.651732)" gradientUnits="userSpaceOnUse">
   <stop stop-color="#a6c2e1" offset="0"/>
   <stop stop-color="#729fcf" offset="1"/>
  </linearGradient>
  <linearGradient id="b" x1="31.219051" x2="9.098052" y1="34.187611" y2="9.6161823" gradientUnits="userSpaceOnUse">
   <stop stop-color="#fff" stop-opacity=".43715847" offset="0"/>
   <stop stop-color="#fff" offset="1"/>
  </linearGradient>
 </defs>
 <sodipodi:namedview fill="#eeeeec" stroke="#c4a000" bordercolor="#666666" borderopacity="1.0" pagecolor="#ffffff" showgrid="false"/>
 <path transform="matrix(1.362832 0 0 .796748 -11.62832 10.14634)" d="m42.285713 40.607143a16.142857 4.3928571 0 1 1-32.285713 0 16.142857 4.3928571 0 1 1 32.285713 0z" fill="url(#a)" opacity=".23118277" sodipodi:cx="26.142857" sodipodi:cy="40.607143" sodipodi:rx="16.142857" sodipodi:ry="4.3928571" sodipodi:type="arc"/>
 <path d="m7.7370264 7.5000002c-1.7906048 0-3.2375811 1.4486093-3.2375786 3.2412378v21.582834c0 1.792628 1.4469714 3.241238 3.2375786 3.241238l16.6177556-2.026455c0.346429 3.115947 7.093039 7.734569 12.053698 7.974258 0.009069-0.121662-5.424371-4.447935-6.024729-9.101882l7.095465-1.65058c0.931976-0.252538 3.086057-0.488964 3.23758-3.241238l2.785949-16.778175c0-1.7926285-1.446974-3.2412378-3.237578-3.2412378h-32.5281406z" fill="url(#c)" stroke="#3465a4" stroke-linecap="round" stroke-linejoin="round" stroke-width="1.0000005" sodipodi:nodetypes="cccccccccccc"/>
 <path d="m7.5227058 8.5024946c-0.8414065 0-2.0179429 1.092349-2.0179404 2.0589424v20.873362c0 1.623192 0.5427976 3.133734 2.2428362 3.133734l17.4297684-2.141931c0.064938 3.178163 5.646443 6.684919 8.218378 7.303269 0.00861-0.11016-3.720052-3.810381-4.290044-8.024443l8.271642-1.888308c1.19496-0.350375 1.912147-0.610937 2.265701-2.385654l2.740719-16.439125c0-1.6231927-0.695914-2.4898464-2.39595-2.4898464h-32.4651102z" fill="none" opacity=".5" stroke="url(#b)" stroke-linecap="round" sodipodi:nodetypes="cccccccccccc"/>
 <g fill="#eeeeec">
  <path transform="matrix(1.253101 0 0 1.253101 -6.088606 -6.072881)" d="m21.617265 17.215601a1.9950513 1.9950513 0 1 1-3.990103 0 1.9950513 1.9950513 0 1 1 3.990103 0z" sodipodi:cx="19.622213" sodipodi:cy="17.215601" sodipodi:rx="1.9950513" sodipodi:ry="1.9950513" sodipodi:type="arc"/>
  <path d="m18.580472 21.990591c-1.332274 0-2.419528 1.093828-2.419528 2.434161 0 0.78729 0.44288 1.381861 1.356801 1.887093-0.003894 1.687025-2.394511 3.625518-2.517745 3.688155 1.219723 0 4.136101-2.609172 5.243897-3.863729 0.004622-0.005235 0.034955 0.006351 0.037806 0 0.43685-0.439492 0.718297-1.041353 0.718297-1.711519 0-1.340332-1.087252-2.434161-2.419528-2.434161z" sodipodi:nodetypes="csccsssc"/>
  <path d="m24.00061 11.000041c0.062286 0.048324 3.056515 4.328966 3.056515 9.814264 0 5.484963-3.098098 8.173717-3.056515 8.185695 0.003392-0.011978 5.151728-1.521011 4.995924-8.399981-0.155774-6.877636-4.992532-9.612263-4.995924-9.599978z" fill-rule="evenodd" sodipodi:nodetypes="czczc"/>
 </g>
</svg>
