<svg version="1.1" viewBox="0 0 48 48" xmlns="http://www.w3.org/2000/svg" xmlns:xlink="http://www.w3.org/1999/xlink">
 <defs>
  <radialGradient id="c" cx="605.71429" cy="486.64789" r="117.14286" gradientTransform="matrix(-2.774389,0,0,1.969706,112.7623,-872.8854)" gradientUnits="userSpaceOnUse" xlink:href="#b"/>
  <linearGradient id="b">
   <stop offset="0"/>
   <stop stop-opacity="0" offset="1"/>
  </linearGradient>
  <radialGradient id="d" cx="605.71429" cy="486.64789" r="117.14286" gradientTransform="matrix(2.774389,0,0,1.969706,-1891.633,-872.8854)" gradientUnits="userSpaceOnUse" xlink:href="#b"/>
  <linearGradient id="i" x1="302.85715" x2="302.85715" y1="366.64789" y2="609.50507" gradientTransform="matrix(2.774389,0,0,1.969706,-1892.179,-872.8854)" gradientUnits="userSpaceOnUse">
   <stop stop-opacity="0" offset="0"/>
   <stop offset=".5"/>
   <stop stop-opacity="0" offset="1"/>
  </linearGradient>
  <linearGradient id="m" x1="17.827532" x2="17.80855" y1="46.606094" y2="17.6409" gradientTransform="matrix(1.3788939 0 0 .727236 -1.4785713 2.3096596)" gradientUnits="userSpaceOnUse">
   <stop stop-color="#919191" offset="0"/>
   <stop stop-color="#e9e9e9" offset=".20232038"/>
   <stop stop-color="#f3f3f3" offset=".23641536"/>
   <stop stop-color="#e6e6e6" offset=".29892281"/>
   <stop stop-color="#f8f8f8" offset="1"/>
  </linearGradient>
  <linearGradient id="l" x1="12.745098" x2="12.728428" y1="38.134369" y2="25.53953" gradientTransform="matrix(1.1211443 0 0 .7874002 .091435846 3.7285646)" gradientUnits="userSpaceOnUse">
   <stop stop-color="#787878" offset="0"/>
   <stop stop-color="#d0d0d0" offset="1"/>
  </linearGradient>
  <linearGradient id="k" x1="4.680656" x2="40.41914" y1="13.835308" y2="73.135864" gradientTransform="matrix(1.3123868 0 0 .6726598 .091435846 3.7285646)" gradientUnits="userSpaceOnUse">
   <stop stop-color="#fff" offset="0"/>
   <stop stop-color="#fff" stop-opacity="0" offset="1"/>
  </linearGradient>
  <radialGradient id="a" cx="18.63378" cy="17.486208" r="40.692665" fx="18.934305" fy="17.810213" gradientTransform="scale(1.036822 .964486)" gradientUnits="userSpaceOnUse" xlink:href="#j"/>
  <radialGradient id="e" cx="11.826907" cy="10.476453" r="32.664848" gradientTransform="scale(1.179536 .847791)" gradientUnits="userSpaceOnUse">
   <stop stop-color="#fff" offset="0"/>
   <stop stop-color="#fff" stop-opacity="0" offset="1"/>
  </radialGradient>
  <radialGradient id="f" cx="15.601279" cy="12.142302" r="43.526714" gradientTransform="scale(.999989 1.000011)" gradientUnits="userSpaceOnUse">
   <stop stop-color="#fff" offset="0"/>
   <stop stop-color="#fff" stop-opacity=".16494845" offset="1"/>
  </radialGradient>
  <radialGradient id="g" cx="15.115514" cy="63.965388" r="12.289036" gradientTransform="scale(1.64399 .608276)" gradientUnits="userSpaceOnUse">
   <stop offset="0"/>
   <stop stop-opacity="0" offset="1"/>
  </radialGradient>
  <radialGradient id="h" cx="18.247644" cy="15.716079" r="29.993349" gradientTransform="scale(.999989 1.000011)" gradientUnits="userSpaceOnUse">
   <stop stop-color="#d3e9ff" offset="0"/>
   <stop stop-color="#d3e9ff" offset=".15517241"/>
   <stop stop-color="#4074ae" offset=".75"/>
   <stop stop-color="#36486c" offset="1"/>
  </radialGradient>
  <linearGradient id="j">
   <stop stop-color="#fff" offset="0"/>
   <stop stop-color="#fefefe" offset=".37931034"/>
   <stop stop-color="#1d1d1d" offset="1"/>
  </linearGradient>
 </defs>
 <g transform="matrix(.023778664 0 0 .018395336 44.712094 34.056268)">
  <rect x="-1559.2523" y="-150.69685" width="1339.6335" height="478.35718" fill="url(#i)" opacity=".40206185"/>
  <path d="m-219.61876-150.68038v478.33079c142.874166 0.90045 345.40022-107.16966 345.40014-239.196175 0-132.026537-159.436816-239.134595-345.40014-239.134615z" fill="url(#d)" opacity=".40206185"/>
  <path d="m-1559.2523-150.68038v478.33079c-142.8742 0.90045-345.4002-107.16966-345.4002-239.196175 0-132.026537 159.4368-239.134595 345.4002-239.134615z" fill="url(#c)" opacity=".40206185"/>
 </g>
 <path d="m6.6076184 14.901471-4.2587262 17.178106c-0.6819145 2.750588 0.8086185 4.508068 2.9649356 4.508068h37.3042822c2.156317 0 3.660732-2.058429 2.911027-4.460614l-5.390792-17.273013c-0.14848-0.475754-0.837861-0.85503-1.401606-0.85416l-30.7275152 0.047454c-0.8283181 0.001278-1.2407116 0.205173-1.4016054 0.854159z" fill="url(#m)" fill-rule="evenodd" stroke="#828282" stroke-width=".93956876"/>
 <path d="m36.873681 16.825538h-8.330845l0.777225 4.029837h8.396609l-0.842989-4.029837z" fill-opacity=".17543862" fill-rule="evenodd"/>
 <g fill="none" stroke="#000" stroke-linecap="round">
  <g stroke-width=".93956876px">
   <path d="m38.735984 23.547181h-15.021481" stroke-opacity=".0994152"/>
   <path d="m39.2367 25.310235h-15.522197" stroke-opacity=".0994152"/>
   <path d="m39.862595 27.073289h-16.148092" stroke-opacity=".12280704"/>
  </g>
  <g stroke-opacity=".15204677">
   <path d="m40.434594 28.836343h-16.728784" stroke-width=".93137705px"/>
   <path d="m41.060197 30.599397h-17.354095" stroke-width=".93165308px"/>
   <path d="m41.810947 32.362451h-18.10452" stroke-width=".93196076px"/>
  </g>
  <path d="m40.87747 34.125505h-17.176409" stroke-opacity=".11695904" stroke-width=".92687124px"/>
 </g>
 <g transform="matrix(1.0014321 0 0 .881527 .4669729 3.7285646)" fill="#000000" font-family="Times New Roman" font-size="6.58773756px" stroke-width="1px">
  <text transform="matrix(1 0 -.169202 1 0 0)" x="11.739901" y="19.331924" style="line-height:100%" xml:space="preserve"><tspan x="11.739901" y="19.331924">N</tspan></text>
  <text transform="matrix(1 0 -.114632 1 0 0)" x="15.444986" y="19.331924" style="line-height:100%" xml:space="preserve"><tspan x="15.444986" y="19.331924">E</tspan></text>
  <text transform="matrix(1 0 .05603472 1 0 0)" x="16.637789" y="19.331924" style="line-height:100%" xml:space="preserve"><tspan x="16.637789" y="19.331924">W</tspan></text>
  <text transform="matrix(1 0 .109619 1 0 0)" x="21.811335" y="19.328707" style="line-height:100%" xml:space="preserve"><tspan x="21.811335" y="19.328707">S</tspan></text>
 </g>
 <path d="m21.121509 23.562922v10.578325h-12.9560272c-1.1335441 0-2.0654536-1.046814-1.5021481-2.53439l1.9402746-8.043935h12.5179007z" fill="url(#l)" fill-rule="evenodd" stroke="#9e9e9e" stroke-width=".93956876px"/>
 <g fill="none">
  <path d="m20.182667 32.433288h-12.5179011" stroke="#fff" stroke-linecap="round" stroke-linejoin="round" stroke-opacity=".30994149" stroke-width=".93956876px"/>
  <path d="m20.182667 32.433156h-12.5179011" stroke="#fff" stroke-linecap="round" stroke-linejoin="round" stroke-opacity=".30994149" stroke-width="2.30151176px"/>
  <path d="m7.4099508 15.554384-3.9860199 16.541889c-0.4420051 1.834311-0.3190668 3.602187 1.9804277 3.602187h36.7456614c2.236904 0 2.960015-1.62771 2.181122-4.109424l-5.028957-16.023274c-0.137507-0.438122-0.458947-0.732574-0.978307-0.731814l-29.8730305 0.043716c-0.6379247 9.34e-4 -0.9274433 0.205892-1.0408967 0.67672z" stroke="url(#k)" stroke-width=".92254788px"/>
 </g>
 <path transform="matrix(1.0014321 0 0 .881527 -.1902169 4.8304733)" d="m6.21875 31.4375a0.96875 0.96875 0 1 1-1.9375 0 0.96875 0.96875 0 1 1 1.9375 0z" fill="#fff" fill-opacity=".63742694"/>
 <g transform="matrix(.5254607 0 0 .5254607 1.6545761 19.245745)">
  <g>
   <path transform="matrix(1,0,0,1.243244,0,-10.27241)" d="m45.052803 38.908627c0 4.128399-9.045214 7.475128-20.203051 7.475128-11.157836 0-20.2030502-3.346729-20.2030502-7.475128 0-4.1284 9.0452142-7.475129 20.2030502-7.475129 11.157837 0 20.203051 3.346729 20.203051 7.475129z" fill="url(#g)"/>
   <path d="m43.959853 23.485499c0 10.709718-8.682103 19.391723-19.390348 19.391723-10.709226 0-19.3908387-8.682103-19.3908387-19.391723 0-10.709227 8.6816127-19.3903473 19.3908387-19.3903473 10.708245 0 19.390348 8.6811203 19.390348 19.3903473z" fill="url(#h)" stroke="#39396c"/>
   <path transform="matrix(.835938 0 0 1 9.886868 0)" d="m30.708637 15.271057c0 5.132605-5.788937 9.293404-12.929952 9.293404-7.141016 0-12.929953-4.160799-12.929953-9.293404s5.788937-9.2934035 12.929953-9.2934035c7.141015 0 12.929952 4.1607985 12.929952 9.2934035z" fill="url(#e)" opacity=".42159382"/>
  </g>
  <g>
   <g transform="matrix(.982371 0 0 .982371 .121079 .232914)" fill-opacity=".71345029">
    <path d="m44.0713 20.7144v0l-0.5449 0.6172c-0.334-0.3936-0.709-0.7246-1.0898-1.0703l-0.8359 0.123-0.7637-0.8633v1.0684l0.6543 0.4951 0.4355 0.4932 0.582-0.6582c0.1465 0.2744 0.291 0.5488 0.4365 0.8232v0.8223l-0.6553 0.7402-1.1992 0.8232-0.9082 0.9063-0.582-0.6602 0.291-0.7402-0.5811-0.6582-0.9814-2.0977-0.8359-0.9453-0.2188 0.2461 0.3281 1.1934 0.6172 0.6992c0.3525 1.0176 0.7012 1.9902 1.1641 2.9629 0.7178 0 1.3945-0.0762 2.1074-0.166v0.5762l-0.8721 2.1392-0.7998 0.9043-0.6543 1.4004v2.3027l0.2188 0.9063-0.3633 0.4102-0.8008 0.4941-0.8359 0.6992 0.6914 0.7813-0.9453 0.8242 0.1816 0.5332-1.418 1.6055h-0.9443l-0.7998 0.4941h-0.5098v-0.6582l-0.2168-1.3184c-0.2813-0.8262-0.5742-1.6465-0.8721-2.4668 0-0.6055 0.0361-1.2051 0.0723-1.8105l0.3643-0.8223-0.5098-0.9883 0.0371-1.3574-0.6914-0.7813 0.3457-1.1309-0.5625-0.6382h-0.9824l-0.3271-0.3701-0.9814 0.6177-0.3994-0.4536-0.9092 0.7817c-0.6172-0.6997-1.2354-1.3989-1.8535-2.0981l-0.7266-1.7285 0.6543-0.9863-0.3633-0.4111 0.7988-1.8936c0.6563-0.8164 1.3418-1.5996 2.0352-2.3857l1.2363-0.3291 1.3809-0.1641 0.9453 0.2471 1.3447 1.3564 0.4727-0.5342 0.6533-0.082 1.2363 0.4111h0.9453l0.6543-0.5762 0.291-0.4111-0.6553-0.4111-1.0908-0.082c-0.3027-0.4199-0.584-0.8613-0.9434-1.2344l-0.3643 0.1641-0.1455 1.0703-0.6543-0.7402-0.1445-0.8242-0.7266-0.5742h-0.292l0.7275 0.8223-0.291 0.7402-0.5811 0.1641 0.3633-0.7402-0.6553-0.3281-0.5801-0.6582-1.0918 0.2461-0.1445 0.3281-0.6543 0.4121-0.3633 0.9053-0.9082 0.4521-0.4004-0.4521h-0.4355v-1.4814l0.9453-0.4941h0.7266l-0.1465-0.5752-0.5801-0.5762 0.9805-0.2061 0.5449-0.6162 0.4355-0.7412h0.8008l-0.2188-0.5752 0.5098-0.3291v0.6582l1.0898 0.2461 1.0898-0.9043 0.0732-0.4121 0.9443-0.6577c-0.3418 0.0425-0.6836 0.0737-1.0176 0.1646v-0.7411l0.3633-0.8228h-0.3633l-0.7984 0.7402-0.2188 0.4116 0.2188 0.5767-0.3643 0.9863-0.5811-0.3291-0.5078-0.5752-0.8008 0.5752-0.291-1.3159 1.3809-0.9048v-0.4941l0.873-0.5757 1.3809-0.3296 0.9453 0.3296 1.7441 0.3291-0.4355 0.4932h-0.9453l0.9453 0.9873 0.7266-0.8223 0.2207-0.3618s2.7871 2.498 4.3799 5.2305c1.5928 2.7334 2.3408 5.9551 2.3408 6.6094z"/>
    <path d="m26.0703 9.2363-0.0732 0.4932 0.5098 0.3291 0.8711-0.5757-0.4355-0.4937-0.582 0.3296-0.29-0.0825"/>
    <path d="m26.8701 5.8633-1.8906-0.7407-2.1797 0.2466-2.6904 0.7402-0.5088 0.4941 1.6719 1.1514v0.6582l-0.6543 0.6582 0.873 1.729 0.5801-0.3301 0.7285-1.1514c1.123-0.3472 2.1299-0.7407 3.1973-1.2344l0.873-2.2212"/>
    <path d="m28.833 12.7749-0.291-0.7412-0.5098 0.165 0.1465 0.9043 0.6543-0.3281"/>
    <path d="m29.123 12.6089-0.1455 0.9883 0.7998-0.165 0.5811-0.5752-0.5088-0.4941c-0.1709-0.4551-0.3672-0.8799-0.5811-1.3164h-0.4355v0.4932l0.29 0.3291v0.7402"/>
    <path d="m18.3652 28.2422-0.582-1.1523-1.0903-0.2466-0.5815-1.5625-1.4536 0.1641-1.2354-0.9043-1.3091 1.1514v0.1816c-0.396-0.1143-0.8828-0.1299-1.2354-0.3467l-0.291-0.8223v-0.9053l-0.8721 0.082c0.0728-0.5762 0.145-1.1514 0.2183-1.7275h-0.5093l-0.5083 0.6582-0.5093 0.2461-0.7271-0.4102-0.0728-0.9053 0.1455-0.9873 1.0908-0.8223h0.8721l0.145-0.4941 1.0903 0.2461 0.7998 0.9883 0.1455-1.6465 1.3813-1.1514 0.5088-1.2344 1.0176-0.4111 0.5815-0.8223 1.3081-0.248 0.6548-0.9863h-1.9629l1.2358-0.5762h0.8716l1.2363-0.4121 0.1455-0.4922-0.4365-0.4121-0.5088-0.165 0.1455-0.4932-0.3633-0.7402-0.8726 0.3281 0.1455-0.6577-1.0176-0.5762-0.7993 1.3979 0.0723 0.4941-0.7993 0.3301-0.5093 1.0693-0.2178-0.9873-1.3813-0.5762-0.2183-0.7402 1.8174-1.0703 0.7998-0.7402 0.0728-0.9048-0.436-0.2471-0.5815-0.0825-0.3633 0.9053s-0.6079 0.1191-0.7642 0.1577c-1.9961 1.8394-6.0293 5.8101-6.9663 13.3062 0.0371 0.1738 0.6792 1.1816 0.6792 1.1816l1.5264 0.9043 1.5264 0.4121 0.6548 0.8232 1.0171 0.7402 0.5815-0.082 0.436 0.1963v0.1328l-0.5811 1.563-0.4365 0.6582 0.1455 0.3301-0.3633 1.2324 1.3086 2.3867 1.3081 1.1523 0.582 0.8223-0.0732 1.7285 0.4365 0.9863-0.4365 1.8926s-0.0342-0.0117 0.0215 0.1777c0.0562 0.1895 2.3291 1.4512 2.4736 1.3438 0.144-0.1094 0.2671-0.2051 0.2671-0.2051l-0.145-0.4102 0.5811-0.5762 0.2183-0.5762 0.9453-0.3301 0.7266-1.8105-0.2178-0.4922 0.5078-0.7402 1.0908-0.248 0.582-1.3164-0.1455-1.6445 0.8721-1.2344 0.1455-1.2344c-1.1934-0.5918-2.377-1.2012-3.5615-1.8105"/>
    <path d="m16.7656 9.5649 0.7266 0.4937h0.582v-0.5757l-0.7266-0.3291-0.582 0.4111"/>
    <path d="m14.876 8.9072-0.3638 0.9048h0.7271l0.3638-0.8228c0.3135-0.2217 0.6255-0.4448 0.9448-0.6582l0.7271 0.2471c0.4844 0.3291 0.9688 0.6582 1.4536 0.9868l0.7275-0.6577-0.8003-0.3291-0.3638-0.7407-1.3809-0.1646-0.0728-0.4116-0.6543 0.165-0.2904 0.5758-0.3638-0.7407-0.145 0.3291 0.0728 0.8228-0.5816 0.494"/>
    <g opacity=".75"></g>
    <g opacity=".75"></g>
    <path d="m17.4922 6.8496 0.3638-0.3286 0.7271-0.1646c0.498-0.2422 0.998-0.4053 1.5264-0.5762l-0.29-0.4937-0.9385 0.1348-0.4434 0.4419-0.731 0.106-0.6499 0.3052-0.3159 0.1528-0.1929 0.2583 0.9443 0.1641"/>
    <path d="m18.7285 14.6665 0.4365-0.6582-0.6548-0.4932 0.2183 1.1514"/>
   </g>
   <g transform="matrix(.982371 0 0 .982371 -.08095179 .030883)" fill="url(#a)" stroke-width="1.01794541">
    <g>
     <g fill="url(#a)">
      <path d="m44.0713 20.7144v0l-0.5449 0.6172c-0.334-0.3936-0.709-0.7246-1.0898-1.0703l-0.8359 0.123-0.7637-0.8633v1.0684l0.6543 0.4951 0.4355 0.4932 0.582-0.6582c0.1465 0.2744 0.291 0.5488 0.4365 0.8232v0.8223l-0.6553 0.7402-1.1992 0.8232-0.9082 0.9063-0.582-0.6602 0.291-0.7402-0.5811-0.6582-0.9814-2.0977-0.8359-0.9453-0.2188 0.2461 0.3281 1.1934 0.6172 0.6992c0.3525 1.0176 0.7012 1.9902 1.1641 2.9629 0.7178 0 1.3945-0.0762 2.1074-0.166v0.5762l-0.8721 2.1392-0.7998 0.9043-0.6543 1.4004v2.3027l0.2188 0.9063-0.3633 0.4102-0.8008 0.4941-0.8359 0.6992 0.6914 0.7813-0.9453 0.8242 0.1816 0.5332-1.418 1.6055h-0.9443l-0.7998 0.4941h-0.5098v-0.6582l-0.2168-1.3184c-0.2813-0.8262-0.5742-1.6465-0.8721-2.4668 0-0.6055 0.0361-1.2051 0.0723-1.8105l0.3643-0.8223-0.5098-0.9883 0.0371-1.3574-0.6914-0.7813 0.3457-1.1309-0.5625-0.6382h-0.9824l-0.3271-0.3701-0.9814 0.6177-0.3994-0.4536-0.9092 0.7817c-0.6172-0.6997-1.2354-1.3989-1.8535-2.0981l-0.7266-1.7285 0.6543-0.9863-0.3633-0.4111 0.7988-1.8936c0.6563-0.8164 1.3418-1.5996 2.0352-2.3857l1.2363-0.3291 1.3809-0.1641 0.9453 0.2471 1.3447 1.3564 0.4727-0.5342 0.6533-0.082 1.2363 0.4111h0.9453l0.6543-0.5762 0.291-0.4111-0.6553-0.4111-1.0908-0.082c-0.3027-0.4199-0.584-0.8613-0.9434-1.2344l-0.3643 0.1641-0.1455 1.0703-0.6543-0.7402-0.1445-0.8242-0.7266-0.5742h-0.292l0.7275 0.8223-0.291 0.7402-0.5811 0.1641 0.3633-0.7402-0.6553-0.3281-0.5801-0.6582-1.0918 0.2461-0.1445 0.3281-0.6543 0.4121-0.3633 0.9053-0.9082 0.4521-0.4004-0.4521h-0.4355v-1.4814l0.9453-0.4941h0.7266l-0.1465-0.5752-0.5801-0.5762 0.9805-0.2061 0.5449-0.6162 0.4355-0.7412h0.8008l-0.2188-0.5752 0.5098-0.3291v0.6582l1.0898 0.2461 1.0898-0.9043 0.0732-0.4121 0.9443-0.6577c-0.3418 0.0425-0.6836 0.0737-1.0176 0.1646v-0.7411l0.3633-0.8228h-0.3633l-0.7984 0.7402-0.2188 0.4116 0.2188 0.5767-0.3643 0.9863-0.5811-0.3291-0.5078-0.5752-0.8008 0.5752-0.291-1.3159 1.3809-0.9048v-0.4941l0.873-0.5757 1.3809-0.3296 0.9453 0.3296 1.7441 0.3291-0.4355 0.4932h-0.9453l0.9453 0.9873 0.7266-0.8223 0.2207-0.3618s2.7871 2.498 4.3799 5.2305c1.5928 2.7334 2.3408 5.9551 2.3408 6.6094z" fill="url(#a)"/>
     </g>
    </g>
    <g>
     <g fill="url(#a)">
      <path d="m26.0703 9.2363-0.0732 0.4932 0.5098 0.3291 0.8711-0.5757-0.4355-0.4937-0.582 0.3296-0.29-0.0825" fill="url(#a)"/>
     </g>
    </g>
    <g>
     <g fill="url(#a)">
      <path d="m26.8701 5.8633-1.8906-0.7407-2.1797 0.2466-2.6904 0.7402-0.5088 0.4941 1.6719 1.1514v0.6582l-0.6543 0.6582 0.873 1.729 0.5801-0.3301 0.7285-1.1514c1.123-0.3472 2.1299-0.7407 3.1973-1.2344l0.873-2.2212" fill="url(#a)"/>
     </g>
    </g>
    <g>
     <g fill="url(#a)">
      <path d="m28.833 12.7749-0.291-0.7412-0.5098 0.165 0.1465 0.9043 0.6543-0.3281" fill="url(#a)"/>
     </g>
    </g>
    <g>
     <g fill="url(#a)">
      <path d="m29.123 12.6089-0.1455 0.9883 0.7998-0.165 0.5811-0.5752-0.5088-0.4941c-0.1709-0.4551-0.3672-0.8799-0.5811-1.3164h-0.4355v0.4932l0.29 0.3291v0.7402" fill="url(#a)"/>
     </g>
    </g>
    <g>
     <g fill="url(#a)">
      <path d="m18.3652 28.2422-0.582-1.1523-1.0903-0.2466-0.5815-1.5625-1.4536 0.1641-1.2354-0.9043-1.3091 1.1514v0.1816c-0.396-0.1143-0.8828-0.1299-1.2354-0.3467l-0.291-0.8223v-0.9053l-0.8721 0.082c0.0728-0.5762 0.145-1.1514 0.2183-1.7275h-0.5093l-0.5083 0.6582-0.5093 0.2461-0.7271-0.4102-0.0728-0.9053 0.1455-0.9873 1.0908-0.8223h0.8721l0.145-0.4941 1.0903 0.2461 0.7998 0.9883 0.1455-1.6465 1.3813-1.1514 0.5088-1.2344 1.0176-0.4111 0.5815-0.8223 1.3081-0.248 0.6548-0.9863h-1.9629l1.2358-0.5762h0.8716l1.2363-0.4121 0.1455-0.4922-0.4365-0.4121-0.5088-0.165 0.1455-0.4932-0.3633-0.7402-0.8726 0.3281 0.1455-0.6577-1.0176-0.5762-0.7993 1.3979 0.0723 0.4941-0.7993 0.3301-0.5093 1.0693-0.2178-0.9873-1.3813-0.5762-0.2183-0.7402 1.8174-1.0703 0.7998-0.7402 0.0728-0.9048-0.436-0.2471-0.5815-0.0825-0.3633 0.9053s-0.6079 0.1191-0.7642 0.1577c-1.9961 1.8394-6.0293 5.8101-6.9663 13.3062 0.0371 0.1738 0.6792 1.1816 0.6792 1.1816l1.5264 0.9043 1.5264 0.4121 0.6548 0.8232 1.0171 0.7402 0.5815-0.082 0.436 0.1963v0.1328l-0.5811 1.563-0.4365 0.6582 0.1455 0.3301-0.3633 1.2324 1.3086 2.3867 1.3081 1.1523 0.582 0.8223-0.0732 1.7285 0.4365 0.9863-0.4365 1.8926s-0.0342-0.0117 0.0215 0.1777c0.0562 0.1895 2.3291 1.4512 2.4736 1.3438 0.144-0.1094 0.2671-0.2051 0.2671-0.2051l-0.145-0.4102 0.5811-0.5762 0.2183-0.5762 0.9453-0.3301 0.7266-1.8105-0.2178-0.4922 0.5078-0.7402 1.0908-0.248 0.582-1.3164-0.1455-1.6445 0.8721-1.2344 0.1455-1.2344c-1.1934-0.5918-2.377-1.2012-3.5615-1.8105" fill="url(#a)"/>
     </g>
    </g>
    <g>
     <g fill="url(#a)">
      <path d="m16.7656 9.5649 0.7266 0.4937h0.582v-0.5757l-0.7266-0.3291-0.582 0.4111" fill="url(#a)"/>
     </g>
    </g>
    <g>
     <g fill="url(#a)">
      <path d="m14.876 8.9072-0.3638 0.9048h0.7271l0.3638-0.8228c0.3135-0.2217 0.6255-0.4448 0.9448-0.6582l0.7271 0.2471c0.4844 0.3291 0.9688 0.6582 1.4536 0.9868l0.7275-0.6577-0.8003-0.3291-0.3638-0.7407-1.3809-0.1646-0.0728-0.4116-0.6543 0.165-0.2904 0.5758-0.3638-0.7407-0.145 0.3291 0.0728 0.8228-0.5816 0.494" fill="url(#a)"/>
     </g>
    </g>
    <g>
     <g opacity=".75"></g>
     <g></g>
    </g>
    <g>
     <g opacity=".75"></g>
     <g></g>
    </g>
    <g>
     <g fill="url(#a)">
      <path d="m17.4922 6.8496 0.3638-0.3286 0.7271-0.1646c0.498-0.2422 0.998-0.4053 1.5264-0.5762l-0.29-0.4937-0.9385 0.1348-0.4434 0.4419-0.731 0.106-0.6499 0.3052-0.3159 0.1528-0.1929 0.2583 0.9443 0.1641" fill="url(#a)"/>
     </g>
    </g>
    <g>
     <g fill="url(#a)">
      <path d="m18.7285 14.6665 0.4365-0.6582-0.6548-0.4932 0.2183 1.1514" fill="url(#a)"/>
     </g>
    </g>
   </g>
   <path d="m42.975093 23.485534c0 10.16582-8.241178 18.406906-18.4056 18.406906-10.165354 0-18.4060669-8.241179-18.4060669-18.406906 0-10.165354 8.2407129-18.4056 18.4060669-18.4056 10.164422 0 18.4056 8.240246 18.4056 18.4056z" fill="none" stroke="url(#f)"/>
  </g>
 </g>
</svg>
