<svg version="1.1" viewBox="0 0 440.91965 520.67902" xmlns="http://www.w3.org/2000/svg" xmlns:xlink="http://www.w3.org/1999/xlink">
 <defs>
  <filter id="a" color-interpolation-filters="sRGB">
   <feGaussianBlur stdDeviation="4.6433625"/>
  </filter>
  <linearGradient id="b">
   <stop stop-color="#00f" offset="0"/>
   <stop stop-color="#6666d7" stop-opacity=".84313726" offset="1"/>
  </linearGradient>
  <linearGradient id="h">
   <stop stop-color="#6666d7" offset="0"/>
   <stop stop-color="#fdfdff" offset="1"/>
  </linearGradient>
  <filter id="i" color-interpolation-filters="sRGB">
   <feGaussianBlur stdDeviation="1.3723022"/>
  </filter>
  <linearGradient id="g" x1="676.84222" x2="841.46173" y1="744.27258" y2="196.96594" gradientTransform="translate(227.48687,-143.83028)" gradientUnits="userSpaceOnUse">
   <stop stop-color="#feffff" offset="0"/>
   <stop stop-color="#b1c3ff" offset=".5"/>
   <stop stop-color="#d4dcff" offset="1"/>
  </linearGradient>
  <linearGradient id="f" x1="817.34882" x2="935.13281" y1="262.53568" y2="498.05151" gradientTransform="translate(227.48687,-143.83028)" gradientUnits="userSpaceOnUse" xlink:href="#b"/>
  <linearGradient id="e" x1="577.32428" x2="528.08911" y1="359.02902" y2="262.68164" gradientUnits="userSpaceOnUse" xlink:href="#h"/>
  <linearGradient id="d" x1="511.75455" x2="597.67334" y1="226.55138" y2="334.94217" gradientUnits="userSpaceOnUse" xlink:href="#b"/>
  <linearGradient id="c" x1="758.51318" x2="676.00873" y1="463.84485" y2="789.01727" gradientTransform="translate(227.48687,-143.83028)" gradientUnits="userSpaceOnUse">
   <stop stop-color="#6b84ff" offset="0"/>
   <stop stop-color="#6b84ff" stop-opacity="0" offset="1"/>
  </linearGradient>
 </defs>
 <g transform="translate(-70.90967,-259.15014)">
  <g>
   <g transform="translate(-720.02864,181.58233)">
    <g stroke="#000">
     <path d="m1016.2354 139.00696 72.2605-0.16727-11.0398 28.93767-86.64572 301.58738c42.94822-10.38598 75.96142-49.76259 89.52802-87.45483 15.107-41.97228 16.056-95.50516 18.1937-134.67941h66.908c0.8907 133.67293-26.6855 250.56544-193.5312 285.36221l-4.85083 49.01004h-77.78044l18.56695-48.50823c-86.5649-19.07256-99.19048-92.62673-50.18093-211.59625 15.39863-35.90069-13.30122-17.72824-33.45395-10.03618l-16.39244-50.01366c48.87788-20.9227 137.84409-43.6952 118.25972 47.17007-32.73813 86.33438-57.81789 146.59157-0.16727 161.41532l87.48209-301.75465z" filter="url(#a)" opacity=".38132294"/>
     <g transform="translate(612.11164,-120.66382)" filter="url(#a)" opacity=".38132294">
      <path d="m487.59136 334.94217 8.53075-27.26497c8.94118 3.07207 16.96759 8.43104 19.73784 26.93043z"/>
      <path d="m500.97294 289.11026 6.85806-21.41053c30.7541 6.51984 48.86047 29.56017 49.51185 66.74063h-23.41777c-2.18654-32.70505-19.41102-40.51958-32.95214-45.3301z"/>
      <path d="m513.51817 247.46009 6.52352-22.24688c41.98063 6.82129 85.35983 45.19844 82.9658 109.39442l-24.25411-0.5018c-0.13843-48.98111-30.88907-78.90732-65.23521-86.64574z"/>
     </g>
     <path d="m856.99457 337.89071c16.50395 3.44495 33.0079 5.58757 49.51185 6.35625-36.09939 81.87859-28.30063 128.28627 24.42139 137.49574l37.80296-133.81581c18.04458 2.83769 34.56703 1.10898 50.85003-1.33815l-42.48654 136.49212c67.62144-16.0949 110.01524-63.3069 121.43784-144.52107 20.3569-1.97998 38.4032-7.30393 55.199-13.71612-7.8119 79.42298-46.9531 173.46729-189.0148 199.72009l-10.70527 46.16646-48.84277-0.66908 14.3852-46.501c-88.82171-15.31116-98.48687-85.17091-62.55889-185.66943z" filter="url(#a)" opacity=".38132294"/>
    </g>
    <path d="m1008.2064 119.62538 72.2606-0.16727-11.0398 28.93767-86.64577 301.58738c42.94827-10.38598 75.96147-49.76259 89.52797-87.45483 15.1071-41.97228 16.0561-95.50516 18.1938-134.67941h66.9079c0.8907 133.67293-26.6854 250.56544-193.53115 285.36221l-4.85083 49.01004h-77.78044l18.56695-48.50823c-86.5649-19.07256-99.19048-92.62673-50.18093-211.59625 15.39863-35.90069-13.30122-17.72824-33.45395-10.03618l-16.39244-50.01366c48.87788-20.9227 137.84409-43.6952 118.25972 47.17007-32.73813 86.33438-57.81789 146.59157-0.16727 161.41532l87.48204-301.75465z" fill="url(#g)" stroke="url(#f)" stroke-width="7.69999981"/>
    <g transform="translate(604.08269,-140.0454)" fill="url(#e)" stroke="url(#d)" stroke-width="5.19999981">
     <path d="m487.59136 334.94217 8.53075-27.26497c8.94118 3.07207 16.96759 8.43104 19.73784 26.93043z"/>
     <path d="m500.97294 289.11026 6.85806-21.41053c30.7541 6.51984 48.86047 29.56017 49.51185 66.74063h-23.41777c-2.18654-32.70505-19.41102-40.51958-32.95214-45.3301z"/>
     <path d="m513.51817 247.46009 6.52352-22.24688c41.98063 6.82129 85.35983 45.19844 82.9658 109.39442l-24.25411-0.5018c-0.13843-48.98111-30.88907-78.90732-65.23521-86.64574z"/>
    </g>
    <path d="m848.96562 318.50913c16.50395 3.44495 33.0079 5.58757 49.51185 6.35625-36.09939 81.87859-28.30063 128.28627 24.42139 137.49574l37.80296-133.81581c18.04458 2.83769 34.56703 1.10898 50.84998-1.33815l-42.48649 136.49212c67.62139-16.0949 110.01529-63.3069 121.43789-144.52107 20.3569-1.97998 38.4032-7.30393 55.199-13.71612-7.8119 79.42298-46.9532 173.46729-189.01485 199.72009l-10.70527 46.16646-48.84277-0.66908 14.3852-46.501c-88.82171-15.31116-98.48687-85.17091-62.55889-185.66943z" fill="url(#c)"/>
   </g>
   <g transform="matrix(3.7716995,0,0,3.7716995,-819.67185,-3918.4442)" fill="#fff" filter="url(#i)" stroke="#fff" stroke-width="1.32566237">
    <path transform="translate(70.00261,258.81818)" d="m206.59375 921.46875-10.5625 11.375-5.21875 10.09375 0.21875 33.21875 6.21875-6.375 0.15625-8.5625 5.25-5 3.875-8.46875 0.0625-26.28125zm-6.4375 10.5-0.0937 23.21875-2.8125 2.8125-0.15625-22.34375 3.0625-3.6875z"/>
    <path d="m279.99515 1215.7724 11.85442-12.0157 3.79018-7.903v-6.3707l-6.69331 7.0965 0.0807 7.0159-2.82248 2.9031 0.16128-36.289-6.45138 12.4189v32.7408z"/>
    <path d="m308.13931 1184.5638-0.0806-35.6439 6.2901-6.2901 0.24192 39.1115-11.69313 11.6125h-4.03211l0.24192-29.8376 5.96753-10.8867-0.16128 35.0794z"/>
    <path d="m317.81639 1178.0318 0.0806-12.7415 6.2901-6.2095-0.24193 9.5158 3.14505-2.7418 0.0806-14.5962-4.83855 5.3223h-4.43532v-13.1446l5.32239-8.9513 9.919-9.8384 0.16129 12.5802-6.12881 6.2901-1e-5 -9.1126-2.82248 2.7419-0.16128 13.1446 4.99982-4.1127 4.27404 0.2419-0.0806 12.2576-4.67725 8.7094z"/>
   </g>
   <g transform="matrix(3.7716995,0,0,3.7716995,-819.67185,-3918.4442)" fill="#ff0015">
    <path transform="translate(70.00261,258.81818)" d="m206.59375 921.46875-10.5625 11.375-5.21875 10.09375 0.21875 33.21875 6.21875-6.375 0.15625-8.5625 5.25-5 3.875-8.46875 0.0625-26.28125zm-6.4375 10.5-0.0937 23.21875-2.8125 2.8125-0.15625-22.34375 3.0625-3.6875z"/>
    <path d="m279.99515 1215.7724 11.85442-12.0157 3.79018-7.903v-6.3707l-6.69331 7.0965 0.0807 7.0159-2.82248 2.9031 0.16128-36.289-6.45138 12.4189v32.7408z"/>
    <path d="m308.13931 1184.5638-0.0806-35.6439 6.2901-6.2901 0.24192 39.1115-11.69313 11.6125h-4.03211l0.24192-29.8376 5.96753-10.8867-0.16128 35.0794z"/>
    <path d="m317.81639 1178.0318 0.0806-12.7415 6.2901-6.2095-0.24193 9.5158 3.14505-2.7418 0.0806-14.5962-4.83855 5.3223h-4.43532v-13.1446l5.32239-8.9513 9.919-9.8384 0.16129 12.5802-6.12881 6.2901-1e-5 -9.1126-2.82248 2.7419-0.16128 13.1446 4.99982-4.1127 4.27404 0.2419-0.0806 12.2576-4.67725 8.7094z"/>
   </g>
  </g>
 </g>
</svg>
