<?xml version="1.0" encoding="UTF-8" standalone="no"?>
<!-- Created with Inkscape (http://www.inkscape.org/) -->

<svg
   xmlns:dc="http://purl.org/dc/elements/1.1/"
   xmlns:cc="http://creativecommons.org/ns#"
   xmlns:rdf="http://www.w3.org/1999/02/22-rdf-syntax-ns#"
   xmlns:svg="http://www.w3.org/2000/svg"
   xmlns="http://www.w3.org/2000/svg"
   xmlns:sodipodi="http://sodipodi.sourceforge.net/DTD/sodipodi-0.dtd"
   xmlns:inkscape="http://www.inkscape.org/namespaces/inkscape"
   width="128"
   height="128"
   id="svg2"
   version="1.1"
   inkscape:version="0.48.2 r9819"
   sodipodi:docname="Новый документ 1">
  <defs
     id="defs4">
    <filter
       inkscape:collect="always"
       id="filter3846"
       x="-0.24878931"
       width="1.4975786"
       y="-0.24535225"
       height="1.4907045"
       color-interpolation-filters="sRGB">
      <feGaussianBlur
         inkscape:collect="always"
         stdDeviation="8.2784169"
         id="feGaussianBlur3848" />
    </filter>
  </defs>
  <sodipodi:namedview
     id="base"
     pagecolor="#ffffff"
     bordercolor="#666666"
     borderopacity="1.0"
     inkscape:pageopacity="0.0"
     inkscape:pageshadow="2"
     inkscape:zoom="0.49497475"
     inkscape:cx="543.00871"
     inkscape:cy="541.36271"
     inkscape:document-units="px"
     inkscape:current-layer="layer1"
     showgrid="false"
     inkscape:window-width="1859"
     inkscape:window-height="1036"
     inkscape:window-x="61"
     inkscape:window-y="0"
     inkscape:window-maximized="1" />
  <metadata
     id="metadata7">
    <rdf:RDF>
      <cc:Work
         rdf:about="">
        <dc:format>image/svg+xml</dc:format>
        <dc:type
           rdf:resource="http://purl.org/dc/dcmitype/StillImage" />
        <dc:title></dc:title>
      </cc:Work>
    </rdf:RDF>
  </metadata>
  <g
     inkscape:label="Layer 1"
     inkscape:groupmode="layer"
     id="layer1"
     transform="translate(0,-924.36218)">
    <g
       id="g3850"
       transform="translate(-589.90976,333.13775)">
      <path
         id="path3054"
         d="m 589.90976,655.22443 0,-64 64,0 64,0 0,64 0,64 -64,0 -64,0 0,-64 z"
         style="fill:#000000"
         inkscape:connector-curvature="0" />
      <path
         style="fill:#ffffff;filter:url(#filter3846)"
         d="m 671.55133,666.47443 c 17.96881,-32.284 19.35843,-35.24783 19.35843,-41.28844 0,-7.37399 -7.17279,-11.3195 -12.36929,-6.80393 -3.06231,2.66104 -3.27354,4.31745 -2.14774,16.84237 0.62146,6.91392 0.454,9.24639 -0.89743,12.5 -2.37656,5.72162 -16.76017,31.5 -17.57611,31.5 -0.3761,0 -4.86521,-10.9125 -9.97582,-24.25 -8.81087,-22.99432 -15.72585,-38.77625 -16.96906,-38.72816 -0.3105,0.012 -4.83758,1.2713 -10.06018,2.79843 -6.47716,1.89397 -9.595,3.29256 -9.80823,4.39977 -0.22781,1.18292 0.22653,1.48219 1.67512,1.10338 3.55877,-0.93064 7.90818,2.72143 11.47252,9.63313 1.85593,3.5989 8.48802,19.25595 14.73797,34.79345 9.67747,24.05839 11.66632,28.25 13.40417,28.25 1.63888,0 5.41021,-6.05401 19.15565,-30.75 z"
         id="path3056"
         inkscape:connector-curvature="0" />
      <path
         id="path3050"
         d="m 671.55133,666.47443 c 17.96881,-32.284 19.35843,-35.24783 19.35843,-41.28844 0,-7.37399 -7.17279,-11.3195 -12.36929,-6.80393 -3.06231,2.66104 -3.27354,4.31745 -2.14774,16.84237 0.62146,6.91392 0.454,9.24639 -0.89743,12.5 -2.37656,5.72162 -16.76017,31.5 -17.57611,31.5 -0.3761,0 -4.86521,-10.9125 -9.97582,-24.25 -8.81087,-22.99432 -15.72585,-38.77625 -16.96906,-38.72816 -0.3105,0.012 -4.83758,1.2713 -10.06018,2.79843 -6.47716,1.89397 -9.595,3.29256 -9.80823,4.39977 -0.22781,1.18292 0.22653,1.48219 1.67512,1.10338 3.55877,-0.93064 7.90818,2.72143 11.47252,9.63313 1.85593,3.5989 8.48802,19.25595 14.73797,34.79345 9.67747,24.05839 11.66632,28.25 13.40417,28.25 1.63888,0 5.41021,-6.05401 19.15565,-30.75 z"
         style="fill:#ffffff"
         inkscape:connector-curvature="0" />
    </g>
  </g>
</svg>
