<svg version="1.1" viewBox="0 0 128 128" xmlns="http://www.w3.org/2000/svg">
 <defs>
  <filter id="a" x="-.24878931" y="-.24535225" width="1.4975786" height="1.4907045" color-interpolation-filters="sRGB">
   <feGaussianBlur stdDeviation="8.2784169"/>
  </filter>
 </defs>
 <g transform="translate(0,-924.36218)">
  <g transform="translate(-589.90976,333.13775)">
   <path d="m589.90976 655.22443v-64h64 64v64 64h-64-64v-64z"/>
   <path d="m671.55133 666.47443c17.96881-32.284 19.35843-35.24783 19.35843-41.28844 0-7.37399-7.17279-11.3195-12.36929-6.80393-3.06231 2.66104-3.27354 4.31745-2.14774 16.84237 0.62146 6.91392 0.454 9.24639-0.89743 12.5-2.37656 5.72162-16.76017 31.5-17.57611 31.5-0.3761 0-4.86521-10.9125-9.97582-24.25-8.81087-22.99432-15.72585-38.77625-16.96906-38.72816-0.3105 0.012-4.83758 1.2713-10.06018 2.79843-6.47716 1.89397-9.595 3.29256-9.80823 4.39977-0.22781 1.18292 0.22653 1.48219 1.67512 1.10338 3.55877-0.93064 7.90818 2.72143 11.47252 9.63313 1.85593 3.5989 8.48802 19.25595 14.73797 34.79345 9.67747 24.05839 11.66632 28.25 13.40417 28.25 1.63888 0 5.41021-6.05401 19.15565-30.75z" fill="#fff" filter="url(#a)"/>
   <path d="m671.55133 666.47443c17.96881-32.284 19.35843-35.24783 19.35843-41.28844 0-7.37399-7.17279-11.3195-12.36929-6.80393-3.06231 2.66104-3.27354 4.31745-2.14774 16.84237 0.62146 6.91392 0.454 9.24639-0.89743 12.5-2.37656 5.72162-16.76017 31.5-17.57611 31.5-0.3761 0-4.86521-10.9125-9.97582-24.25-8.81087-22.99432-15.72585-38.77625-16.96906-38.72816-0.3105 0.012-4.83758 1.2713-10.06018 2.79843-6.47716 1.89397-9.595 3.29256-9.80823 4.39977-0.22781 1.18292 0.22653 1.48219 1.67512 1.10338 3.55877-0.93064 7.90818 2.72143 11.47252 9.63313 1.85593 3.5989 8.48802 19.25595 14.73797 34.79345 9.67747 24.05839 11.66632 28.25 13.40417 28.25 1.63888 0 5.41021-6.05401 19.15565-30.75z" fill="#fff"/>
  </g>
 </g>
</svg>
