<?xml version="1.0" encoding="UTF-8" standalone="no"?>
<!-- Created with Inkscape (http://www.inkscape.org/) -->

<svg
   xmlns:svg="http://www.w3.org/2000/svg"
   xmlns="http://www.w3.org/2000/svg"
   xmlns:xlink="http://www.w3.org/1999/xlink"
   version="1.2"
   width="250"
   height="250"
   id="svg2">
  <title
     id="title4340">azoth icon</title>
  <defs
     id="defs4">
    <linearGradient
       id="linearGradient3304">
      <stop
         id="stop3306"
         style="stop-color:#ff8313;stop-opacity:1"
         offset="0" />
      <stop
         id="stop3308"
         style="stop-color:#ffe400;stop-opacity:1"
         offset="1" />
    </linearGradient>
    <linearGradient
       id="linearGradient3284">
      <stop
         id="stop3286"
         style="stop-color:#ffffff;stop-opacity:0.78431374"
         offset="0" />
      <stop
         id="stop3288"
         style="stop-color:#ffffff;stop-opacity:0.11764706"
         offset="1" />
    </linearGradient>
    <linearGradient
       id="linearGradient3170">
      <stop
         id="stop3172"
         style="stop-color:#323232;stop-opacity:1"
         offset="0" />
      <stop
         id="stop3216"
         style="stop-color:#696969;stop-opacity:1"
         offset="0.32967147" />
      <stop
         id="stop3218"
         style="stop-color:#7f7f7f;stop-opacity:1"
         offset="0.69190311" />
      <stop
         id="stop3212"
         style="stop-color:#b4b4b4;stop-opacity:1"
         offset="1" />
    </linearGradient>
    <linearGradient
       x1="322"
       y1="215"
       x2="322"
       y2="43.264011"
       id="linearGradient3176"
       xlink:href="#linearGradient3170"
       gradientUnits="userSpaceOnUse" />
    <filter
       color-interpolation-filters="sRGB"
       id="filter3270">
      <feGaussianBlur
         stdDeviation="5.31"
         id="feGaussianBlur3272" />
    </filter>
    <linearGradient
       x1="325.5"
       y1="45"
       x2="325.5"
       y2="137.5"
       id="linearGradient3290"
       xlink:href="#linearGradient3284"
       gradientUnits="userSpaceOnUse" />
    <linearGradient
       x1="143.75"
       y1="334.5"
       x2="143.75"
       y2="276"
       id="linearGradient3310"
       xlink:href="#linearGradient3304"
       gradientUnits="userSpaceOnUse"
       gradientTransform="translate(-51.5,-180.5)" />
    <linearGradient
       x1="213.25"
       y1="334.5"
       x2="213.25"
       y2="276"
       id="linearGradient3312"
       xlink:href="#linearGradient3304"
       gradientUnits="userSpaceOnUse"
       gradientTransform="translate(-53.5,-180.5)" />
    <linearGradient
       x1="325.5"
       y1="45"
       x2="325.5"
       y2="135"
       id="linearGradient3433"
       xlink:href="#linearGradient3284"
       gradientUnits="userSpaceOnUse"
       gradientTransform="translate(-200,-4)" />
    <filter
       x="-0.14433655"
       y="-0.14433655"
       width="1.288673"
       height="1.288673"
       color-interpolation-filters="sRGB"
       id="filter3483">
      <feGaussianBlur
         stdDeviation="3.8189046"
         id="feGaussianBlur3485" />
    </filter>
    <filter
       x="-0.14433655"
       y="-0.14433655"
       width="1.288673"
       height="1.288673"
       color-interpolation-filters="sRGB"
       id="filter3487">
      <feGaussianBlur
         stdDeviation="3.8189046"
         id="feGaussianBlur3489" />
    </filter>
    <linearGradient
       x1="322"
       y1="215"
       x2="322"
       y2="43.264011"
       id="linearGradient3501"
       xlink:href="#linearGradient3170"
       gradientUnits="userSpaceOnUse"
       gradientTransform="translate(-200,-4)" />
    <linearGradient
       x1="322"
       y1="215"
       x2="322"
       y2="43.264011"
       id="linearGradient2413"
       xlink:href="#linearGradient3170"
       gradientUnits="userSpaceOnUse"
       gradientTransform="translate(-200,-4)" />
    <linearGradient
       x1="322"
       y1="215"
       x2="322"
       y2="43.264011"
       id="linearGradient2858"
       xlink:href="#linearGradient3170"
       gradientUnits="userSpaceOnUse"
       gradientTransform="matrix(1.2146893,0,0,1.2146893,-270.38136,-32.302267)" />
    <linearGradient
       x1="294.96686"
       y1="165.60571"
       x2="284.96686"
       y2="130.60571"
       id="linearGradient4299"
       xlink:href="#linearGradient3304"
       gradientUnits="userSpaceOnUse"
       gradientTransform="matrix(1.6234792,0,0,1.6234792,-339.73024,-129.0944)" />
    <linearGradient
       x1="299.96686"
       y1="30.605713"
       x2="304.96686"
       y2="70.605713"
       id="linearGradient4301"
       xlink:href="#linearGradient3304"
       gradientUnits="userSpaceOnUse"
       gradientTransform="translate(-191.37709,82.076137)" />
    <linearGradient
       x1="325.5"
       y1="45"
       x2="325.5"
       y2="135"
       id="linearGradient4303"
       xlink:href="#linearGradient3284"
       gradientUnits="userSpaceOnUse"
       gradientTransform="matrix(1.2146893,0,0,1.2146893,-270.38136,-32.30227)" />
    <filter
       x="-0.10859291"
       y="-0.15786418"
       width="1.2171859"
       height="1.3157284"
       color-interpolation-filters="sRGB"
       id="filter4309">
      <feGaussianBlur
         stdDeviation="5.5741275"
         id="feGaussianBlur4311" />
    </filter>
    <filter
       x="-0.1085929"
       y="-0.15786418"
       width="1.2171859"
       height="1.3157284"
       color-interpolation-filters="sRGB"
       id="filter4313">
      <feGaussianBlur
         stdDeviation="5.5741275"
         id="feGaussianBlur4315" />
    </filter>
    <linearGradient
       id="linearGradient3758">
      <stop
         id="stop3760"
         style="stop-color:#ff8313;stop-opacity:1"
         offset="0" />
      <stop
         id="stop3762"
         style="stop-color:#ffe400;stop-opacity:1"
         offset="1" />
    </linearGradient>
    <linearGradient
       id="linearGradient3863">
      <stop
         id="stop3865"
         style="stop-color:#ff8313;stop-opacity:1"
         offset="0" />
      <stop
         id="stop3867"
         style="stop-color:#ffe400;stop-opacity:1"
         offset="1" />
    </linearGradient>
    <linearGradient
       id="linearGradient3870">
      <stop
         id="stop3872"
         style="stop-color:#ff8313;stop-opacity:1"
         offset="0" />
      <stop
         id="stop3874"
         style="stop-color:#ffe400;stop-opacity:1"
         offset="1" />
    </linearGradient>
    <linearGradient
       id="linearGradient3877">
      <stop
         id="stop3879"
         style="stop-color:#ff8313;stop-opacity:1"
         offset="0" />
      <stop
         id="stop3881"
         style="stop-color:#ffe400;stop-opacity:1"
         offset="1" />
    </linearGradient>
    <linearGradient
       x1="-1807.2036"
       y1="125.8584"
       x2="-1807.2036"
       y2="0.00048828119"
       id="linearGradient3085"
       xlink:href="#SVGID_1_"
       gradientUnits="userSpaceOnUse"
       gradientTransform="translate(1691.0275,-3.687744)" />
    <linearGradient
       x1="-1807.2036"
       y1="125.8584"
       x2="-1807.2036"
       y2="0.00048828119"
       id="SVGID_1_"
       gradientUnits="userSpaceOnUse"
       gradientTransform="translate(1915.9799,2.1203186e-6)">
      <stop
         id="stop237"
         style="stop-color:#1b3967;stop-opacity:1"
         offset="0.011" />
      <stop
         id="stop239"
         style="stop-color:#13b5ea;stop-opacity:1"
         offset="0.46700001" />
      <stop
         id="stop241"
         style="stop-color:#002b5c;stop-opacity:1"
         offset="0.99449998" />
    </linearGradient>
    <linearGradient
       x1="560.68457"
       y1="498.95251"
       x2="560.68457"
       y2="266.29327"
       id="linearGradient3838"
       xlink:href="#linearGradient3877"
       gradientUnits="userSpaceOnUse" />
    <linearGradient
       x1="560.68457"
       y1="498.95251"
       x2="560.68457"
       y2="266.29327"
       id="linearGradient3850"
       xlink:href="#linearGradient3877"
       gradientUnits="userSpaceOnUse" />
    <linearGradient
       x1="560.68457"
       y1="498.95251"
       x2="560.68457"
       y2="266.29327"
       id="linearGradient3852"
       xlink:href="#linearGradient3877"
       gradientUnits="userSpaceOnUse" />
    <linearGradient
       x1="560.68457"
       y1="498.95251"
       x2="560.68457"
       y2="266.29327"
       id="linearGradient3854"
       xlink:href="#linearGradient3877"
       gradientUnits="userSpaceOnUse" />
    <linearGradient
       x1="560.68457"
       y1="498.95251"
       x2="560.68457"
       y2="266.29327"
       id="linearGradient3856"
       xlink:href="#linearGradient3877"
       gradientUnits="userSpaceOnUse" />
    <linearGradient
       x1="560.68457"
       y1="498.95251"
       x2="560.68457"
       y2="266.29327"
       id="linearGradient3858"
       xlink:href="#linearGradient3877"
       gradientUnits="userSpaceOnUse" />
  </defs>
  <rect
     width="169"
     height="169"
     rx="30"
     ry="30"
     x="41"
     y="41"
     transform="matrix(1.2146893,0,0,1.2146893,-27.443504,-27.44351)"
     id="rect3240"
     style="fill:#000000;fill-opacity:1;stroke:#000000;stroke-width:8;stroke-linejoin:round;stroke-miterlimit:4;stroke-opacity:1;stroke-dasharray:none;filter:url(#filter3270)" />
  <rect
     width="205.28249"
     height="205.28249"
     rx="36.440678"
     ry="36.440678"
     x="22.358757"
     y="22.358751"
     id="rect3168"
     style="fill:url(#linearGradient2858);fill-opacity:1;stroke:#000000;stroke-width:9.71751404;stroke-linejoin:round;stroke-miterlimit:4;stroke-opacity:1;stroke-dasharray:none" />
  <g
     transform="matrix(0.3768839,0,0,0.3768839,49.253644,-70.691917)"
     id="layer1">
    <g
       transform="matrix(1.7897037,0,0,1.7897037,-139.65875,-1027.8177)"
       id="g2960">
      <g
         transform="translate(-355.59733,482.05656)"
         id="g3831">
        <path
           d="m 575.49687,257.88032 c -3.47123,0.63976 -6.87873,1.44307 -10.24957,2.48834 -10.87012,3.69515 -20.40144,10.97095 -30.06737,23.1652 1.41609,-8.37558 4.40432,-13.90304 6.22084,-20.67687 -21.6668,6.2485 -41.70154,23.54597 -47.07099,40.40581 -35.97013,17.02816 -60.87532,53.68648 -60.87532,96.09709 0,58.63358 47.5946,106.22818 106.22817,106.22818 45.57897,0 84.43783,-28.76159 99.50375,-69.11052 6.47895,-0.2564 12.93232,-0.4598 19.28459,-0.59246 1.30582,-0.0273 2.31496,-0.16936 3.08079,-0.47397 0.38292,-0.15231 0.72889,-0.34376 1.00718,-0.74058 0.2783,-0.39681 0.2853,-1.10762 0.0296,-1.51077 -0.51126,-0.8063 -1.30542,-1.01782 -2.48834,-1.33304 -0.22391,-0.0596 -0.48487,-0.12174 -0.74057,-0.17774 -3.00038,-1.76643 -9.92656,-3.86728 -16.8555,-5.56913 0.0974,-0.37614 0.19851,-0.75054 0.29623,-1.12567 l 35.66612,0.74057 c 1.65318,0.0349 2.79361,-0.0752 3.64363,-0.38509 0.42501,-0.15497 0.78808,-0.37538 1.06643,-0.7702 0.27835,-0.39483 0.34794,-0.97945 0.20736,-1.39229 -0.28115,-0.82567 -0.93486,-1.26949 -1.71813,-1.74775 -0.78327,-0.47827 -1.74853,-0.89773 -2.87344,-1.27379 -10.82073,-3.61746 -22.03951,-6.70609 -33.50364,-9.44975 0.39648,-3.72324 0.62209,-7.48634 0.62209,-11.316 0,-33.85295 -16.00376,-64.16555 -40.70204,-83.6258 -0.14214,-7.45609 -0.69972,-14.98259 -0.26661,-21.80254 0.47983,-7.55556 2.16218,-14.12134 6.72443,-19.10686 l 2.39946,-2.60682 -3.31778,-1.21455 c -2.51729,-0.92801 -5.10034,-1.42493 -7.67236,-1.59964 -7.71606,-0.52414 -15.46497,1.95679 -22.15802,5.15441 -6.04456,2.88778 -11.25817,6.3905 -14.90039,9.09426 0.5277,-5.8518 1.6838,-11.23441 3.70288,-16.32228 1.57418,-3.96674 3.27453,-6.40003 5.77649,-9.44975 l 5e-5,0 z"
           id="path3805"
           style="font-size:medium;font-style:normal;font-variant:normal;font-weight:normal;font-stretch:normal;text-indent:0;text-align:start;text-decoration:none;line-height:normal;letter-spacing:normal;word-spacing:normal;text-transform:none;direction:ltr;block-progression:tb;writing-mode:lr-tb;text-anchor:start;color:#000000;fill:#000000;fill-opacity:1;stroke:none;stroke-width:7.36842108;marker:none;visibility:visible;display:inline;overflow:visible;enable-background:accumulate;font-family:Bitstream Vera Sans;-inkscape-font-specification:Bitstream Vera Sans" />
        <g
           id="g3825"
           style="fill:url(#linearGradient3838);fill-opacity:1">
          <path
             d="m 565.33617,266.29326 c -2.7354,9.86511 -9.21334,20.85078 0.0593,32.55571 -0.88156,-2.23887 -0.42103,-7.90367 0.47397,-9.09428 3.12853,-2.51423 9.44366,-7.27667 17.09248,-10.93089 7.32673,-3.50034 15.59437,-5.78599 23.07634,-4.23609 -3.82043,5.5805 -6.4665,12.00969 -6.90217,18.86987 -0.51341,8.08437 0.21555,19.06846 1.77739,26.92733 23.54118,18.21569 38.36181,46.87744 38.36181,78.97498 0,3.3215 -0.15852,6.59784 -0.47396,9.83485 -6.37349,-1.44669 -12.79999,-2.82491 -19.28459,-4.1176 1.50512,-1.68965 2.94171,-3.35791 4.20647,-5.00629 4.83475,-6.30127 7.96484,-12.34771 7.82048,-18.3959 -0.31031,-13.00044 -7.25906,-24.54292 -20.55838,-32.40759 -13.29933,-7.86467 -32.83147,-12.3528 -59.12756,-12.3528 -26.33668,0 -46.64649,5.0433 -60.54947,13.15262 -13.90298,8.10931 -21.49931,19.59299 -21.18046,31.75588 0.39883,15.39261 7.48744,27.12531 20.91385,38.86541 12.92412,11.30089 31.9161,23.10621 57.43905,39.4875 -10.24538,11.48492 -19.21734,27.27076 -22.45425,37.8286 -48.57911,-6.64593 -85.96602,-48.22995 -85.96602,-98.64468 0,-40.06903 23.6235,-74.59363 57.70565,-90.40947 8.14738,-17.98796 19.38265,-28.7368 34.83668,-37.26577 -2.05557,7.06235 -6.57192,16.21637 3.02155,30.27473 -1.14148,-3.95917 -0.59793,-8.83291 -0.17774,-10.75315 9.8421,-10.64726 19.43609,-19.5403 29.88963,-24.91297 z"
             id="path3807"
             style="font-size:medium;font-style:normal;font-variant:normal;font-weight:normal;font-stretch:normal;text-indent:0;text-align:start;text-decoration:none;line-height:normal;letter-spacing:normal;word-spacing:normal;text-transform:none;direction:ltr;block-progression:tb;writing-mode:lr-tb;text-anchor:start;color:#000000;fill:url(#linearGradient3850);fill-opacity:1;stroke:none;stroke-width:7.36842108;marker:none;visibility:visible;display:inline;overflow:visible;enable-background:accumulate;font-family:Bitstream Vera Sans;-inkscape-font-specification:Bitstream Vera Sans" />
          <path
             d="m 561.49625,396.26544 c -5.32131,2.31753 -9.0995,5.37979 -10.96875,9.40625 -1.8371,3.95721 -1.88733,8.9806 0.34375,15.40625 l 127.625,2.71875 c 1.45905,0.0308 2.36181,-0.1064 2.8125,-0.25 -0.12108,-0.13053 -0.19986,-0.27166 -0.625,-0.53125 -0.61455,-0.37524 -1.48379,-0.78527 -2.5,-1.125 -36.13629,-12.08065 -76.84668,-18.16578 -116.6875,-25.625 z m 0.1875,5.15625 c 0.54096,-0.0302 1.13953,0.0126 1.75,0.125 11.25172,2.07223 13.29066,6.32347 0.9375,6.0625 -2.92032,-0.0617 -5.44275,-0.3416 -5.46875,-3.15625 -0.0194,-2.10093 1.15836,-2.94055 2.78125,-3.03125 z"
             id="path3809"
             style="font-size:medium;font-style:normal;font-variant:normal;font-weight:normal;font-stretch:normal;text-indent:0;text-align:start;text-decoration:none;line-height:normal;letter-spacing:normal;word-spacing:normal;text-transform:none;direction:ltr;block-progression:tb;writing-mode:lr-tb;text-anchor:start;color:#000000;fill:url(#linearGradient3852);fill-opacity:1;stroke:none;stroke-width:7.36842108;marker:none;visibility:visible;display:inline;overflow:visible;enable-background:accumulate;font-family:Bitstream Vera Sans;-inkscape-font-specification:Bitstream Vera Sans" />
          <path
             d="m 552.09468,425.57627 102.94001,7.40576 c 2.06492,0.14863 3.58398,0.41283 4.59157,0.68133 0.21969,0.0586 0.12881,0.052 0.29623,0.11849 -0.4493,0.0877 -0.78506,0.1922 -1.51077,0.20736 -24.20839,0.50557 -49.65025,2.26571 -73.40586,2.39947 0.18903,-0.15522 0.37404,-0.31883 0.56284,-0.47397 l -17.56646,0.23698 c -1.452,-0.0532 -2.89316,-0.10472 -4.32496,-0.17774 -5.60326,-1.43363 -8.69761,-3.38784 -10.24956,-5.33214 -1.34345,-1.68309 -1.52236,-3.38074 -1.33304,-5.06554 z"
             id="path3811"
             style="font-size:medium;font-style:normal;font-variant:normal;font-weight:normal;font-stretch:normal;text-indent:0;text-align:start;text-decoration:none;line-height:normal;letter-spacing:normal;word-spacing:normal;text-transform:none;direction:ltr;block-progression:tb;writing-mode:lr-tb;text-anchor:start;color:#000000;fill:url(#linearGradient3854);fill-opacity:1;stroke:none;stroke-width:7.36842108;marker:none;visibility:visible;display:inline;overflow:visible;enable-background:accumulate;font-family:Bitstream Vera Sans;-inkscape-font-specification:Bitstream Vera Sans" />
          <path
             d="m 631.98798,436.8034 c -14.78599,36.45896 -50.50941,62.14911 -92.30535,62.14911 -2.65153,0 -5.28059,-0.12296 -7.87972,-0.32586 3.41443,-9.85114 13.02527,-26.56845 22.95784,-36.91029 0.0205,-0.0182 0.0388,-0.041 0.0593,-0.0592 0.0285,-0.0297 0.0603,-0.0594 0.0888,-0.0888 8.58191,-7.63151 18.25286,-15.46694 27.75678,-23.25408 15.97703,-0.0141 32.6986,-0.80706 49.32233,-1.51077 l 5e-5,-5e-5 z"
             id="path3813"
             style="font-size:medium;font-style:normal;font-variant:normal;font-weight:normal;font-stretch:normal;text-indent:0;text-align:start;text-decoration:none;line-height:normal;letter-spacing:normal;word-spacing:normal;text-transform:none;direction:ltr;block-progression:tb;writing-mode:lr-tb;text-anchor:start;color:#000000;fill:url(#linearGradient3856);fill-opacity:1;stroke:none;stroke-width:7.36842108;marker:none;visibility:visible;display:inline;overflow:visible;enable-background:accumulate;font-family:Bitstream Vera Sans;-inkscape-font-specification:Bitstream Vera Sans" />
          <path
             d="m 512.57756,373.61749 c 3.833,0 6.96141,3.09879 6.96141,6.93178 0,3.833 -3.12841,6.93179 -6.96141,6.93179 -3.83299,0 -6.93179,-3.09879 -6.93179,-6.93179 0,-3.83299 3.0988,-6.93178 6.93179,-6.93178 z m 97.93373,0.68132 c 3.83299,0 6.93178,3.0988 6.93178,6.93179 0,3.83299 -3.09879,6.93179 -6.93178,6.93179 -3.833,0 -6.93179,-3.0988 -6.93179,-6.93179 0,-3.83299 3.09879,-6.93179 6.93179,-6.93179 z"
             id="path3815"
             style="font-size:medium;font-style:normal;font-variant:normal;font-weight:normal;font-stretch:normal;text-indent:0;text-align:start;text-decoration:none;line-height:normal;letter-spacing:normal;word-spacing:normal;text-transform:none;direction:ltr;block-progression:tb;writing-mode:lr-tb;text-anchor:start;color:#000000;fill:url(#linearGradient3858);fill-opacity:1;stroke:none;stroke-width:7.36842108;marker:none;visibility:visible;display:inline;overflow:visible;enable-background:accumulate;font-family:Bitstream Vera Sans;-inkscape-font-specification:Bitstream Vera Sans" />
        </g>
      </g>
    </g>
  </g>
  <path
     d="m 58.799436,22.358751 c -20.188136,0 -36.440679,16.252543 -36.440679,36.440679 l 0,47.67656 c 24.402124,15.38974 61.342101,25.2048 102.641243,25.2048 41.29914,0 78.23912,-9.81506 102.64125,-25.2048 l 0,-47.67656 c 0,-20.188136 -16.25254,-36.440679 -36.44068,-36.440679 l -132.401134,0 z"
     id="rect3404"
     style="fill:url(#linearGradient4303);fill-opacity:1;stroke:none" />
</svg>
